<svg width="11" height="16" viewBox="0 0 11 16" fill="none" xmlns="http://www.w3.org/2000/svg">
<path fill-rule="evenodd" clip-rule="evenodd" d="M10.1323 3.5971C10.1323 2.77921 9.81283 1.9951 9.24434 1.41688C8.67586 0.838658 7.90495 0.513672 7.10083 0.513672C5.84143 0.513672 4.32216 0.513672 3.06276 0.513672C2.25864 0.513672 1.48774 0.838658 0.919008 1.41688C0.350523 1.9951 0.03125 2.77921 0.03125 3.5971C0.03125 7.73389 0.03125 15.411 0.03125 15.411C0.03125 15.6073 0.141068 15.7863 0.314402 15.8724C0.487735 15.9587 0.694038 15.937 0.84628 15.8164L5.08167 12.4659L9.31707 15.8164C9.46931 15.937 9.67586 15.9587 9.84919 15.8724C10.0223 15.7863 10.1323 15.6073 10.1323 15.411V3.5971Z" fill="black"/>
</svg>
