<svg width="50" height="50" viewBox="0 0 50 50" fill="none" xmlns="http://www.w3.org/2000/svg">
<circle cx="25" cy="25" r="25" fill="#41CC97"/>
<path d="M21.2932 32.707C21.1057 32.5194 21.0004 32.2651 21.0004 32C21.0004 31.7348 21.1057 31.4805 21.2932 31.293L27.5862 25L21.2932 18.707C21.1111 18.5184 21.0103 18.2658 21.0125 18.0036C21.0148 17.7414 21.12 17.4906 21.3054 17.3052C21.4908 17.1197 21.7416 17.0146 22.0038 17.0123C22.266 17.01 22.5186 17.1108 22.7072 17.293L29.7072 24.293C29.8947 24.4805 30 24.7348 30 25C30 25.2651 29.8947 25.5194 29.7072 25.707L22.7072 32.707C22.5197 32.8944 22.2654 32.9998 22.0002 32.9998C21.735 32.9998 21.4807 32.8944 21.2932 32.707Z" fill="white"/>
</svg>
