<svg width="18" height="26" viewBox="0 0 18 26" fill="none" xmlns="http://www.w3.org/2000/svg">
<g id="Group">
<g id="Group_2">
<g id="Group_3">
<path id="Vector" d="M17.9583 25.5H0.25V0.5H13.4866L17.9583 4.97177V25.5ZM1.29167 24.4583H16.9167V5.40323L13.0551 1.54167H1.29167V24.4583Z" fill="#B6BAB9"/>
</g>
<g id="Group_4">
<path id="Vector_2" d="M17.4375 5.70834H12.75V1.02084H13.7917V4.66667H17.4375V5.70834Z" fill="#B6BAB9"/>
</g>
<g id="Group_5">
<path id="Vector_3" d="M6.49935 9.35417H2.85352V5.70834H6.49935V9.35417ZM3.89518 8.3125H5.45768V6.75H3.89518V8.3125Z" fill="#B6BAB9"/>
</g>
<g id="Group_6">
<path id="Vector_4" d="M15.3535 8.3125H7.54102V9.35417H15.3535V8.3125Z" fill="#B6BAB9"/>
</g>
<g id="Group_7">
<path id="Vector_5" d="M11.7077 6.22916H7.54102V7.27083H11.7077V6.22916Z" fill="#B6BAB9"/>
</g>
<g id="Group_8">
<path id="Vector_6" d="M6.49935 14.0417H2.85352V10.3958H6.49935V14.0417ZM3.89518 13H5.45768V11.4375H3.89518V13Z" fill="#B6BAB9"/>
</g>
<g id="Group_9">
<path id="Vector_7" d="M15.3535 13H7.54102V14.0417H15.3535V13Z" fill="#B6BAB9"/>
</g>
<g id="Group_10">
<path id="Vector_8" d="M11.7077 10.9167H7.54102V11.9583H11.7077V10.9167Z" fill="#B6BAB9"/>
</g>
<g id="Group_11">
<path id="Vector_9" d="M6.49935 18.7292H2.85352V15.0833H6.49935V18.7292ZM3.89518 17.6875H5.45768V16.125H3.89518V17.6875Z" fill="#B6BAB9"/>
</g>
<g id="Group_12">
<path id="Vector_10" d="M15.3535 17.6875H7.54102V18.7292H15.3535V17.6875Z" fill="#B6BAB9"/>
</g>
<g id="Group_13">
<path id="Vector_11" d="M11.7077 15.6042H7.54102V16.6458H11.7077V15.6042Z" fill="#B6BAB9"/>
</g>
<g id="Group_14">
<path id="Vector_12" d="M6.49935 23.4167H2.85352V19.7708H6.49935V23.4167ZM3.89518 22.375H5.45768V20.8125H3.89518V22.375Z" fill="#B6BAB9"/>
</g>
<g id="Group_15">
<path id="Vector_13" d="M15.3535 22.375H7.54102V23.4167H15.3535V22.375Z" fill="#B6BAB9"/>
</g>
<g id="Group_16">
<path id="Vector_14" d="M11.7077 20.2917H7.54102V21.3333H11.7077V20.2917Z" fill="#B6BAB9"/>
</g>
</g>
</g>
</svg>
