<svg width="20" height="20" viewBox="0 0 20 20" fill="none" xmlns="http://www.w3.org/2000/svg">
<path id="Vector" d="M17.8449 2.27907H12.502V2.15412C12.502 1.53437 12.2348 0.944064 11.7695 0.535447C11.3034 0.126829 10.6844 -0.0613218 10.0704 0.0176728L1.8772 1.08123C0.807181 1.21983 0 2.13904 0 3.21767V16.4787C0 17.5574 0.807181 18.4766 1.8772 18.6152L10.0704 19.678C10.163 19.6902 10.2557 19.6959 10.3483 19.6959C10.8682 19.6959 11.3745 19.5078 11.7695 19.1602C12.2348 18.7516 12.5027 18.1613 12.5027 17.5415V17.4173H17.8456C19.0334 17.4173 20 16.4507 20 15.2629V4.43347C20 3.24568 19.0327 2.27907 17.8449 2.27907ZM11.0657 17.5415C11.0657 17.7512 10.9788 17.943 10.8215 18.0816C10.665 18.2195 10.4661 18.2827 10.2557 18.2539L2.06248 17.1911C1.70557 17.1451 1.43627 16.8385 1.43627 16.4787V3.21767C1.43627 2.85789 1.70557 2.55196 2.06248 2.50529L10.2557 1.44245C10.288 1.43814 10.3196 1.43599 10.3512 1.43599C10.5242 1.43599 10.6887 1.49774 10.8215 1.6148C10.9788 1.75268 11.0657 1.94442 11.0657 2.15412V17.5415ZM18.563 15.2629C18.563 15.6586 18.2406 15.981 17.8449 15.981H12.502V10.552H14.8165L14.0804 11.2105C13.7846 11.4748 13.7601 11.9286 14.0244 12.2245C14.1666 12.3832 14.3627 12.4636 14.5601 12.4636C14.7303 12.4636 14.902 12.4033 15.0391 12.2805L17.1756 10.3681C17.1806 10.3638 17.182 10.3573 17.1871 10.3523C17.2388 10.3035 17.2768 10.2432 17.312 10.1814C17.3242 10.1599 17.3436 10.1426 17.3537 10.1196C17.3925 10.032 17.4147 9.93509 17.4147 9.83311C17.4147 9.73114 17.3925 9.63491 17.3537 9.54658C17.3436 9.5236 17.3242 9.50636 17.312 9.48482C17.2768 9.42234 17.2388 9.36274 17.1871 9.3139C17.182 9.30959 17.1806 9.30241 17.1756 9.2981L15.0391 7.38572C14.7433 7.12072 14.2901 7.14658 14.0251 7.44173C13.7609 7.7376 13.786 8.19146 14.0812 8.45573L14.8172 9.11426H12.5027V3.71534H17.8456C18.2413 3.71534 18.5637 4.03778 18.5637 4.43347L18.563 15.2629Z" fill="#41CC97"/>
</svg>
