<?xml version="1.0" encoding="UTF-8"?>
<svg id="Layer_2" data-name="Layer 2" xmlns="http://www.w3.org/2000/svg" viewBox="0 0 895.5045 734.5233">
  <defs>
    <style>
      .cls-1 {
        fill: #41cc97;
        stroke-width: 0px;
      }
    </style>
  </defs>
  <g id="Layer_1-2" data-name="Layer 1">
    <g>
      <g>
        <path class="cls-1" d="m408.2194,316.5372c-4.2307,0-8.5482-.99-12.7122-2.9316-7.9563-3.7135-14.4417-10.7383-18.2622-19.7815-13.9346-32.9948-18.0763-99.3885-21.4059-152.7346-.8102-13.0032-1.5779-25.285-2.4164-35.985l-.8102-10.314,20.626-1.6183.8082,10.312c.8526,10.8676,1.6244,23.2283,2.4406,36.3163,3.2326,51.7803,7.2532,116.2243,19.8179,145.9744,1.8204,4.3155,4.6449,7.5401,7.9502,9.0816,1.8648.8708,3.5458,1.1678,5.0247.897,6.9057-1.3031,9.9079-14.7851,11.0818-22.705l1.5193-10.2332,20.4644,3.0366-1.5173,10.2312c-3.5215,23.7374-12.8456,37.1952-27.7156,39.9995-1.6082.3031-3.2447.4546-4.8934.4546Z"/>
        <path class="cls-1" d="m364.7207,209.6713l-5.4368-19.9634,9.9827-2.7174c14.1871-3.865,22.1232-5.5096,32.1725-7.5946,7.2633-1.5072,15.4983-3.2144,28.0732-6.1803l10.0696-2.376,4.7499,20.1371-10.0675,2.3739c-12.8516,3.0326-21.2301,4.7701-28.6227,6.3036-9.7019,2.0123-17.3652,3.6003-30.9401,7.2976l-9.9807,2.7194Z"/>
      </g>
      <path class="cls-1" d="m778.8034,646.6308c-37.9649,0-73.9964-18.939-91.2706-49.9862-13.4012-24.0829-15.4115-54.9139-5.3803-82.4719,6.5258-17.9248,20.3816-35.1101,42.3613-52.5379,8.0815-6.4086,16.3368-11.4576,24.3193-16.3428,9.2271-5.6449,17.941-10.9767,26.0528-18.1087.1475-.1293.2687-.2485.3677-.3576-.8223-.9455-2.3618-2.2891-3.368-3.17-1.0769-.9395-2.1881-1.9093-3.267-2.9801-25.4244-25.2103-37.7669-51.8045-35.692-76.9057,1.1334-13.7063,7.4087-25.5679,18.145-34.304,12.7567-10.3807,30.9381-15.2761,48.6548-13.1062,23.2364,2.8528,43.2402,15.173,60.8902,26.0407l8.8068,5.4247-10.8474,17.6157-8.8089-5.4227c-15.8458-9.7605-33.807-20.822-52.5622-23.1232-12.0475-1.483-24.7234,1.8204-33.0756,8.6169-6.3541,5.1722-9.916,11.8879-10.5827,19.9634-1.9658,23.7718,15.0336,46.0263,29.641,60.5104.6991.695,1.4971,1.3799,2.3073,2.0871,4.6529,4.065,14.3366,12.5223,9.5281,25.4527-1.2668,3.4043-3.5074,6.5864-6.4773,9.1968-9.4513,8.3098-19.3451,14.3649-28.9157,20.2179-7.7987,4.7721-15.165,9.2796-22.2626,14.9064-18.8946,14.9811-30.5966,29.1783-35.7749,43.4018-8.0068,21.9979-6.5056,46.4243,4.0185,65.3391,16.4115,29.4935,56.6433,45.4403,93.59,37.0861,29.1642-6.5945,65.725-26.1094,74.2813-81.6395l1.5759-10.2231,20.4462,3.1498-1.5759,10.2251c-8.0593,52.3016-40.0803,87.343-90.1655,98.6672-8.2937,1.8749-16.6742,2.778-24.9598,2.778Z"/>
      <path class="cls-1" d="m131.0254,402.4478c-22.1858,0-45.3797-5.8652-67.0948-17.1611-14.1649-7.3683-26.764-16.6156-37.4477-27.4852-5.5379-5.6328-10.512-11.6738-14.7791-17.9531-.2909-.4283-.7354-1.0385-1.2668-1.7759-7.0471-9.7423-11.894-17.2015-10.0393-24.485.004-.0101.0061-.0202.0081-.0323.6223-2.4305,63.4237-248.6056,63.4237-248.6056.1919-.7556.4707-1.489.8284-2.182,13.0395-25.285,41.7612-42.1956,71.5861-42.1956.1717,0,.3374.002.5071.002,27.9802.1798,55.5927,14.3063,73.863,37.7912,16.5994,21.3413,25.0264,49.2488,23.7253,78.5847-.9031,20.3331-6.5965,38.2013-16.4681,51.6752-6.1783,8.4351-13.9467,15.1347-21.9635,20.4967,16.949,16.4378,29.0652,34.3909,36.086,53.5077,10.0716,27.4206,8.8573,56.4595-3.3296,79.6676-15.6802,29.8632-45.7171,52.746-76.5239,58.298-6.8753,1.2405-13.9426,1.8527-21.115,1.8527Zm-110.0339-85.9348c.9173,1.8345,2.9982,4.9964,6.2086,9.4352.6768.9375,1.2385,1.7173,1.6123,2.2669,3.5741,5.259,7.7522,10.3322,12.4253,15.0821,9.1584,9.32,20.0058,17.2722,32.2412,23.6364,24.6931,12.8456,51.3277,17.5712,74.9904,13.3002,24.7658-4.463,49.0528-23.1293,61.8781-47.5537,9.3342-17.7773,10.1665-41.2986,2.2265-62.9186-6.546-17.8238-18.5491-34.6657-35.7102-50.1256-2.9033,1.3355-5.6813,2.5214-8.2654,3.5801-16.0297,6.5743-39.8883,14.2376-61.8741,4.9176-12.1122-5.1318-23.8021-17.5914-20.8402-32.817,2.976-15.2741,18.7572-22.6484,33.0776-23.1798,19.5512-.7253,39.9288,6.94,60.6053,22.8182,8.0047-4.7075,15.9004-10.7545,21.614-18.5552,7.4512-10.1706,11.7687-24.1274,12.49-40.3672,1.0668-24.0748-5.9985-47.7537-19.3855-64.9653-14.1972-18.246-36.2941-29.6672-57.6677-29.8046-.1273-.002-.2566-.002-.3839-.002-21.8767,0-42.8482,11.9748-52.6632,29.9966-49.1922,192.8371-60.1002,235.5944-62.5792,245.2558Zm-.5617,2.178l.0182.004c.0424-.1677.0788-.3313.1091-.4889-.0505.1919-.0909.3515-.1273.4849Zm101.0775-125.9141c-.594,0-1.186.0121-1.7759.0323-6.8228.2546-12.8941,3.1518-13.5406,6.4612-.59,3.0346,3.4306,7.6209,8.6068,9.815,10.8151,4.5822,24.6345,3.3336,43.321-3.9579-12.8314-8.2088-25.0951-12.3506-36.6113-12.3506Z"/>
      <path class="cls-1" d="m334.2776,734.5233c-6.7238,0-13.5305-.6041-20.3755-1.8587-45.9576-8.4331-81.4253-43.5068-90.3635-89.3573l-1.98-10.1544,20.3068-3.9579,1.978,10.1524c7.2996,37.4417,36.2638,66.0826,73.7903,72.968,5.5843,1.0223,11.1525,1.5173,16.6378,1.5173,43.6018.004,82.4719-31.1502,90.6281-75.5298,8.2674-45.1737-18.345-89.9796-61.9044-104.2132-3.9397-1.293-8.0088-2.3275-12.1061-3.0791-16.3368-2.9942-33.1585-1.5355-48.6366,4.2246-16.4964,6.1359-34.3101,5.4166-50.1539-2.0264-15.4902-7.2774-27.1155-20.1452-32.7362-36.2294-5.2934-15.1407-6.5521-31.5381-3.6387-47.4203,9.2917-50.4509,57.8576-83.9467,108.2863-74.6651,24.7012,4.5398,46.0485,18.4723,60.1103,39.2277l5.8005,8.5644-17.1268,11.6051-5.8025-8.5644c-10.9262-16.1287-27.5196-26.9559-46.7253-30.4855-39.2216-7.2208-76.9704,18.832-84.1953,58.0576-2.2648,12.3486-1.289,25.0951,2.8204,36.8537,3.772,10.7969,11.5889,19.436,22.006,24.3314,10.7706,5.061,22.899,5.5439,34.1424,1.3597,18.9693-7.0572,39.5732-8.8533,59.583-5.1823,5.0146.9213,9.9948,2.1881,14.8074,3.766,53.3441,17.4298,85.9429,72.2912,75.8188,127.6092-9.9888,54.3381-57.5909,92.4808-110.9713,92.4869Z"/>
      <path class="cls-1" d="m575.6725,369.8409c-.8263,0-1.6486-.0081-2.475-.0242-32.1503-.6485-62.7691-17.2217-81.9041-44.3372-18.6885-26.4771-23.7415-58.6738-13.8638-88.331,6.2046-18.6259,17.3167-36.284,33.1039-52.6329-7.8148-4.9297-15.4195-11.1363-21.5776-19.0279-9.9847-12.791-16.0418-29.9663-17.5187-49.665-2.1295-28.4065,5.2166-55.72,20.6867-76.9098C509.1555,15.5836,535.5356,1.055,562.6895.0509c29.1601-1.0607,57.7748,14.5366,71.2628,38.8458l5.0186,9.0452-18.0905,10.0372-5.0186-9.0452c-9.8029-17.6662-30.8694-29.0147-52.4086-28.2085-20.5634.7617-41.4925,12.4031-54.6209,30.3865-12.391,16.9732-18.5006,39.9954-16.7631,63.1631,1.1698,15.6155,5.7318,28.9217,13.1951,38.4842,5.6752,7.2713,13.3668,12.8254,21.1473,17.1065,19.3734-15.7933,38.6903-23.7879,57.5162-23.7879.1515,0,.301.002.4526.002,13.9972.095,29.6289,6.841,32.9928,21.7049,3.3579,14.8134-7.6875,27.3499-19.3714,32.7261-21.1029,9.7059-44.4847,2.9801-60.2336-2.9215-2.4709-.9253-5.1277-1.9638-7.9037-3.1356-16.0135,15.3751-27.0387,31.9139-32.8049,49.2326-7.7785,23.3515-3.7195,48.8164,11.1363,69.8647,15.3589,21.7635,39.8156,35.0657,65.4179,35.5809,46.8081.9496,94.2002-29.346,110.3349-70.4506l3.7801-9.6291,19.2583,7.5603-3.7801,9.6291c-18.8501,48.0183-73.362,83.5992-127.5344,83.5992Zm-27.4448-190.4632c17.8763,6.2612,31.0027,6.9946,41.1268,2.3396,4.8065-2.2123,8.4694-6.5864,7.8411-9.3624-.6768-2.9881-6.6087-5.5439-12.9547-5.5863-11.3828-.0444-23.4728,4.1539-36.0133,12.6092Z"/>
      <g>
        <rect class="cls-1" x="213.1745" y="242.9821" width="151.7518" height="20.689" transform="translate(8.9139 516.4769) rotate(-84.4408)"/>
        <ellipse class="cls-1" cx="301.3159" cy="139.012" rx="20.2857" ry="19.4478"/>
      </g>
      <g>
        <rect class="cls-1" x="464.7351" y="441.5936" width="20.6894" height="157.3493" transform="translate(-46.2958 46.404) rotate(-5.3326)"/>
        <circle class="cls-1" cx="464.3489" cy="403.1438" r="19.4511"/>
      </g>
      <path class="cls-1" d="m651.1518,660.8644l-10.1544-1.9759c-8.4391-1.6426-16.7348-3.2265-24.9032-4.7863-31.3926-5.9965-61.0458-11.6596-89.5311-18.84-3.368-.8506-6.0854-3.3336-7.233-6.6127-1.1496-3.2791-.5738-6.9137,1.5294-9.6796l11.201-14.7185c40.9268-53.7502,76.7704-100.821,113.911-157.7896-10.7302.6021-20.2624,1.0567-29.0551,1.4769-21.5999,1.0284-40.252,1.9173-65.232,4.4246l-10.2938,1.0344-2.0668-20.5856,10.2918-1.0324c25.5214-2.5639,44.4261-3.465,66.3149-4.5075,13.9123-.6627,29.6794-1.4143,49.0932-2.7093,3.9377-.2323,7.5926,1.689,9.5827,5.0388,1.9901,3.3478,1.9295,7.532-.1576,10.8232-41.6178,65.634-80.6879,116.9456-125.9282,176.3589l-1.6022,2.1073c23.2909,5.3843,47.5961,10.0251,73.0569,14.8882,8.1906,1.5658,16.5126,3.1538,24.9739,4.8004l10.1544,1.9759-3.9519,20.3089Z"/>
    </g>
  </g>
</svg>