<svg width="24" height="24" viewBox="0 0 24 24" fill="none" xmlns="http://www.w3.org/2000/svg">
<path d="M14.5006 16.0002C13.7506 15.5999 14.151 14.8499 14.5006 14.5002C14.9506 14.0502 15.501 12.5005 15.501 12.5005C16.401 12.1002 16.5013 11.4505 16.6006 11.0005C17.001 9.70021 16.0006 9.50053 16.0006 9.50053C16.0006 9.50053 16.8003 7.35085 16.1506 5.70085C15.3003 3.55117 11.8503 2.75053 11.2503 4.75117C7.15064 3.85023 8 9.49957 8 9.49957C8 9.49957 6.99968 9.69926 7.4 10.9996C7.50031 11.4496 7.59969 12.0992 8.49968 12.4996C8.49968 12.4996 9.05 14.0492 9.5 14.4992C9.84968 14.8489 10.25 15.5989 9.5 15.9992C8 16.7989 3.5 16.9996 3.5 20.4993H20.4997C20.5006 16.9996 16.0006 16.7999 14.5006 16.0002V16.0002Z" fill="#41CC97"/>
</svg>
