<svg width="18" height="26" viewBox="0 0 18 26" fill="none" xmlns="http://www.w3.org/2000/svg">
<g id="Group">
<g id="Group_2">
<g id="Group_3">
<path id="Vector" d="M17.9583 25.5H0.25V0.5H13.4866L17.9583 4.97177V25.5ZM1.29167 24.4583H16.9167V5.40323L13.0551 1.54167H1.29167V24.4583Z" fill="#41CC97"/>
</g>
<g id="Group_4">
<path id="Vector_2" d="M17.4375 5.70825H12.75V1.02075H13.7917V4.66659H17.4375V5.70825Z" fill="#41CC97"/>
</g>
<g id="Group_5">
<path id="Vector_3" d="M6.49935 9.35409H2.85352V5.70825H6.49935V9.35409ZM3.89518 8.31242H5.45768V6.74992H3.89518V8.31242Z" fill="#41CC97"/>
</g>
<g id="Group_6">
<path id="Vector_4" d="M15.3535 8.3125H7.54102V9.35417H15.3535V8.3125Z" fill="#41CC97"/>
</g>
<g id="Group_7">
<path id="Vector_5" d="M11.7077 6.22925H7.54102V7.27092H11.7077V6.22925Z" fill="#41CC97"/>
</g>
<g id="Group_8">
<path id="Vector_6" d="M6.49935 14.0416H2.85352V10.3958H6.49935V14.0416ZM3.89518 12.9999H5.45768V11.4374H3.89518V12.9999Z" fill="#41CC97"/>
</g>
<g id="Group_9">
<path id="Vector_7" d="M15.3535 13H7.54102V14.0417H15.3535V13Z" fill="#41CC97"/>
</g>
<g id="Group_10">
<path id="Vector_8" d="M11.7077 10.9167H7.54102V11.9584H11.7077V10.9167Z" fill="#41CC97"/>
</g>
<g id="Group_11">
<path id="Vector_9" d="M6.49935 18.7291H2.85352V15.0833H6.49935V18.7291ZM3.89518 17.6874H5.45768V16.1249H3.89518V17.6874Z" fill="#41CC97"/>
</g>
<g id="Group_12">
<path id="Vector_10" d="M15.3535 17.6875H7.54102V18.7292H15.3535V17.6875Z" fill="#41CC97"/>
</g>
<g id="Group_13">
<path id="Vector_11" d="M11.7077 15.6042H7.54102V16.6459H11.7077V15.6042Z" fill="#41CC97"/>
</g>
<g id="Group_14">
<path id="Vector_12" d="M6.49935 23.4166H2.85352V19.7708H6.49935V23.4166ZM3.89518 22.3749H5.45768V20.8124H3.89518V22.3749Z" fill="#41CC97"/>
</g>
<g id="Group_15">
<path id="Vector_13" d="M15.3535 22.375H7.54102V23.4167H15.3535V22.375Z" fill="#41CC97"/>
</g>
<g id="Group_16">
<path id="Vector_14" d="M11.7077 20.2917H7.54102V21.3334H11.7077V20.2917Z" fill="#41CC97"/>
</g>
</g>
</g>
</svg>
