<?xml version="1.0" encoding="UTF-8"?>
<svg id="Layer_1" data-name="Layer 1" xmlns="http://www.w3.org/2000/svg" viewBox="0 0 24 24">
  <defs>
    <style>
      .cls-1 {
        fill: none;
        stroke: #41cc97;
        stroke-miterlimit: 10;
        stroke-width: .65px;
      }

      .cls-2 {
        fill: #41cc97;
      }

      .cls-2, .cls-3 {
        stroke-width: 0px;
      }

      .cls-3 {
        fill: #fff;
      }
    </style>
  </defs>
  <circle class="cls-2" cx="12" cy="12" r="12"/>
  <g>
    <path class="cls-3" d="m10.5491,4.2904c-1.2719,0-2.4066.2312-3.2087.5827-.8292.3671-1.5758.8979-2.1949,1.5605-.6233.6657-1.0968,1.4472-1.3693,2.2579-.3257.9694-.527,2.4601.3652,4.0572.4475.801,1.1982,1.4119,2.2317,1.8157.9199.3595,2.0689.5494,3.3228.5494.6577,0,1.4258.1866,2.1079.5123.5622.2685,1.328.7571,1.7813,1.5591.5683,1.0055,1.4813,2.032,2.6035,2.411,1.3108.4427,2.5961-.4862,3.3311-1.5212,1.5217-2.1246.9921-5.069.2796-7.165-.4904-1.4403-1.2146-2.6784-2.1501-3.6796-.8328-.8885-1.8378-1.5981-2.9538-2.0857-1.3852-.6097-2.8384-.8545-4.1464-.8545Z"/>
    <path class="cls-1" d="m9.4674,12.9859c-.3665.2895-.8101.4775-1.454.4567-1.2832-.0415-2.2232-.8968-2.4708-2.1466-.0584-.2946-.081-.5962-.081-.8963,0-3.0826,3.3111-4.4841,5.9761-4.371,1.472.0625,3.193.5648,4.0298,1.8669.5691.8856-.0993,1.6225-.6755,1.904-1.2485.6109-2.3975.4735-3.661,1.4636-.691.5415-1.0791,1.2611-1.6636,1.7227Zm9.2599,2.7284c-.2798.9679-.8576,1.8945-1.859,1.8945-.9727,0-1.3675-.6223-2.125-1.8994-.3064-.5166-.7658-.8948-1.3006-1.1578-.4075-.2004-.8443-.3066-1.261-.4794-.1949-.0808-.3842-.2212-.4386-.4252-.236-.885,1.1407-1.4857,1.7506-1.7328,1.0565-.4279,2.4351-.8249,3.574-.5657,1.3851.3153,1.9085,1.7625,1.8704,3.0474-.0114.3846-.0771.8563-.2107,1.3185Z"/>
    <path class="cls-2" d="m7.1534,10.8547c0,.5521.4477.9996,1,.9996s1-.4475,1-.9996h0c0-.5521-.4477-.9996-1-.9996s-1,.4475-1,.9996Z"/>
  </g>
</svg>