<svg width="24" height="14" viewBox="0 0 24 14" fill="none" xmlns="http://www.w3.org/2000/svg">
<path d="M21.7998 10.3256C23.1907 9.28868 24 7.84717 24 6.30449C24 3.3203 20.9905 0.867188 17.2982 0.867188C15.1486 0.867188 13.2266 1.70175 12.0126 2.99153C10.7734 1.70175 8.87671 0.867188 6.70179 0.867188C3.00948 0.867188 0 3.29501 0 6.30449C0 7.7713 0.733404 9.18752 2.04847 10.1991C1.94731 10.5532 1.77028 10.8819 1.59326 11.1854C1.31507 11.6406 1.31507 12.197 1.64384 12.6269C1.84615 12.8798 2.12434 13.0569 2.45311 13.1074C2.52898 13.1074 2.57956 13.1327 2.65543 13.1327C2.78188 13.1327 2.90832 13.1074 3.03477 13.0821C3.84405 12.8293 4.7039 12.3487 5.58904 11.6659C5.96839 11.7165 6.37302 11.7418 6.75237 11.7418C8.902 11.7418 10.824 10.9072 12.0632 9.61745C13.3024 10.9072 15.1992 11.7418 17.3488 11.7418C17.7281 11.7418 18.1075 11.7165 18.5121 11.6659C19.4225 12.3235 21.3446 12.8798 21.9262 12.8798C21.9515 12.8798 21.9515 12.8798 21.9768 12.8798C22.1538 12.8798 22.3562 12.7787 22.4573 12.6269C22.7608 12.2223 22.5079 11.8177 22.3056 11.4889C21.9515 11.0843 21.7492 10.7049 21.7998 10.3256ZM6.6765 10.6038C6.27186 10.6038 5.86723 10.5785 5.46259 10.5026C5.31085 10.4773 5.13382 10.5279 5.00738 10.629C4.17281 11.3119 3.36354 11.7671 2.63014 11.9947L2.52898 11.9441C2.50369 11.9188 2.50369 11.8935 2.52898 11.843C2.85774 11.3119 3.11064 10.7555 3.26238 10.1232C3.31296 9.89564 3.2118 9.66803 3.03477 9.51629C1.79557 8.68173 1.11275 7.5184 1.11275 6.32978C1.11275 3.97783 3.61644 2.05581 6.6765 2.05581C9.73656 2.05581 12.2403 3.97783 12.2403 6.32978C12.2403 8.68173 9.76185 10.6038 6.6765 10.6038ZM20.1054 5.46993L17.3994 8.17593C17.2982 8.27709 17.1465 8.35296 16.9947 8.35296C16.843 8.35296 16.6913 8.30238 16.5901 8.17593L15.0474 6.63326C14.8198 6.40565 14.8198 6.05159 15.0474 5.82398C15.275 5.59638 15.6291 5.59638 15.8567 5.82398L16.9947 6.96202L19.2961 4.66065C19.5237 4.43305 19.8778 4.43305 20.1054 4.66065C20.333 4.88826 20.333 5.24232 20.1054 5.46993Z" fill="#41CC97"/>
<path d="M6.70209 3.39624C5.4376 3.39624 4.88122 4.30667 4.75477 5.06537C4.72948 5.16652 4.78006 5.24239 4.83064 5.31826C4.88122 5.39413 4.98238 5.44471 5.08354 5.44471H5.53876C5.6905 5.44471 5.84223 5.31826 5.86752 5.16652C5.9181 4.86305 6.12042 4.4837 6.72738 4.4837C7.20788 4.4837 7.38491 4.7366 7.46078 4.88834C7.56194 5.11594 7.56194 5.34355 7.4102 5.54587C7.28375 5.7229 7.13201 5.82406 6.98027 5.92522C6.60093 6.17812 6.29745 6.48159 6.22158 7.26558C6.22158 7.36674 6.24687 7.4426 6.29745 7.51847C6.34803 7.59434 6.44919 7.61963 6.52506 7.61963H6.95498C7.13201 7.61963 7.25846 7.49318 7.28375 7.31616C7.30904 7.01268 7.38491 6.9621 7.58723 6.81036C7.76426 6.68391 8.01716 6.50688 8.27005 6.17812C8.6494 5.67232 8.69998 4.96421 8.3965 4.38254C8.11831 3.77559 7.46078 3.39624 6.70209 3.39624Z" fill="#41CC97"/>
<path d="M6.77863 9.38978C7.14177 9.38978 7.43616 9.09539 7.43616 8.73224C7.43616 8.36909 7.14177 8.07471 6.77863 8.07471C6.41548 8.07471 6.12109 8.36909 6.12109 8.73224C6.12109 9.09539 6.41548 9.38978 6.77863 9.38978Z" fill="#41CC97"/>
</svg>
