<svg width="242" height="243" viewBox="0 0 242 243" fill="none" xmlns="http://www.w3.org/2000/svg">
<g id="happy-baby/pana">
<g id="background-complete">
<path id="Vector" d="M162.978 206.137L63.2705 222.382C63.8564 224.226 65.0336 225.825 66.6199 226.933C68.2062 228.041 70.1133 228.595 72.0462 228.51C74.3744 228.36 76.7541 227.266 78.9532 228.04C81.0181 228.757 82.1693 230.833 83.4133 232.608C86.3417 236.746 90.4944 239.86 95.2864 241.513C103.03 244.182 111.558 242.731 119.631 241.25L140.554 237.42C146.098 236.387 151.724 235.355 156.794 232.897C161.863 230.44 166.395 226.316 168.078 220.932C169.761 215.547 167.882 208.914 162.978 206.137Z" fill="#F5F5F5"/>
<path id="Vector_2" d="M166.261 15.1664C165.744 12.2498 162.389 10.1385 159.55 10.0765C156.71 10.0146 154.837 11.3774 153.221 13.8191V13.9017C153.111 12.3638 152.651 10.8715 151.875 9.53911C151.099 8.20673 150.029 7.06971 148.745 6.21523C147.323 5.33762 145.688 4.8647 144.017 4.84742C142.346 4.83013 140.702 5.26914 139.262 6.11715C137.802 7.03703 136.598 8.31116 135.762 9.82108C134.927 11.331 134.486 13.0277 134.482 14.7535C131.948 14.1392 129.222 16.266 128.711 18.9503C128.508 20.2889 128.708 21.6575 129.284 22.8826C129.86 24.1077 130.787 25.1341 131.947 25.8315C134.203 27.1788 137.063 27.153 139.495 26.1567C140.079 27.4821 141.034 28.6103 142.245 29.4053C143.456 30.2003 144.871 30.6282 146.319 30.6375C147.772 30.5664 149.175 30.0829 150.363 29.2437C151.552 28.4045 152.477 27.2442 153.03 25.8986C154.919 26.8588 157.129 27.4473 159.121 26.7349C161.114 26.0225 162.621 23.555 161.8 21.5211C164.634 21.3611 166.813 18.0882 166.261 15.1664Z" fill="#F5F5F5"/>
<path id="Vector_3" d="M234.236 81.9033C233.72 79.0796 230.483 77.0302 227.742 76.9683C225.001 76.9063 223.179 78.2279 221.604 80.5818V80.6593C221.497 79.1667 221.049 77.7186 220.296 76.4256C219.542 75.1327 218.503 74.0293 217.258 73.1999C215.878 72.35 214.293 71.8923 212.673 71.8759C211.054 71.8596 209.46 72.2852 208.064 73.107C206.645 73.9969 205.475 75.2315 204.663 76.6956C203.851 78.1597 203.422 79.8057 203.418 81.48C200.961 80.8812 198.317 82.9409 197.827 85.5478C197.632 86.8433 197.825 88.1677 198.383 89.3532C198.941 90.5387 199.838 91.5319 200.96 92.2071C203.149 93.5131 205.921 93.4821 208.275 92.5219C208.842 93.8061 209.767 94.8991 210.94 95.6694C212.114 96.4396 213.485 96.8543 214.888 96.8633C216.298 96.7958 217.66 96.3278 218.814 95.5141C219.968 94.7004 220.866 93.5747 221.403 92.269C223.23 93.2034 225.378 93.7867 227.308 93.0795C229.239 92.3722 230.7 89.9822 229.889 88.0257C232.661 87.9121 234.752 84.7271 234.236 81.9033Z" fill="#F5F5F5"/>
<path id="Vector_4" d="M227.283 143.819C226.901 141.723 224.501 140.205 222.472 140.164C220.443 140.122 219.096 141.098 217.929 142.853V142.91C217.85 141.805 217.518 140.732 216.959 139.774C216.401 138.817 215.631 138 214.708 137.387C213.685 136.761 212.512 136.425 211.313 136.416C210.114 136.407 208.936 136.725 207.904 137.335C206.861 137.998 206.002 138.913 205.407 139.996C204.811 141.078 204.499 142.294 204.497 143.53C202.68 143.086 200.723 144.614 200.367 146.539C200.221 147.499 200.364 148.48 200.776 149.359C201.189 150.237 201.853 150.974 202.685 151.474C203.511 151.925 204.429 152.18 205.368 152.22C206.308 152.261 207.244 152.085 208.105 151.706C208.524 152.658 209.208 153.467 210.077 154.038C210.945 154.609 211.96 154.916 212.999 154.922C214.043 154.872 215.051 154.526 215.905 153.923C216.759 153.321 217.423 152.487 217.821 151.521C219.178 152.207 220.763 152.641 222.193 152.119C223.623 151.598 224.707 149.838 224.119 148.377C226.116 148.263 227.665 145.909 227.283 143.819Z" fill="#F5F5F5"/>
<path id="Vector_5" d="M31.0476 158.5C30.6656 156.409 28.2704 154.887 26.2416 154.845C24.2129 154.804 22.8604 155.78 21.6989 157.535V157.592C21.6196 156.487 21.2885 155.414 20.7311 154.457C20.1737 153.5 19.4047 152.683 18.4829 152.068C17.4614 151.439 16.288 151.1 15.0884 151.087C13.8889 151.075 12.7085 151.389 11.6739 151.996C10.627 152.656 9.76363 153.57 9.1636 154.653C8.56356 155.736 8.24628 156.952 8.24109 158.19C6.424 157.746 4.46754 159.274 4.11135 161.205C3.96825 162.164 4.11251 163.145 4.52594 164.022C4.93937 164.899 5.60343 165.635 6.43433 166.135C7.25893 166.586 8.176 166.841 9.11486 166.881C10.0537 166.922 10.9893 166.746 11.8495 166.367C12.2687 167.319 12.9543 168.129 13.8236 168.699C14.6928 169.27 15.7086 169.577 16.7484 169.583C17.7923 169.533 18.8002 169.187 19.6542 168.584C20.5081 167.982 21.1726 167.148 21.5698 166.181C22.9223 166.873 24.5123 167.302 25.9422 166.78C27.3721 166.259 28.451 164.499 27.8625 163.043C29.8964 162.955 31.4503 160.596 31.0476 158.5Z" fill="#F5F5F5"/>
<path id="Vector_6" d="M79.2315 13.0347C78.7153 10.1594 75.4115 8.07902 72.6239 8.01708C69.8364 7.95513 67.978 9.2973 66.3777 11.708V11.7906C66.2692 10.2711 65.8141 8.7966 65.0472 7.48029C64.2803 6.16398 63.2221 5.04085 61.9537 4.19706C60.5502 3.33086 58.937 2.86397 57.2878 2.84669C55.6387 2.82941 54.016 3.26238 52.5947 4.09898C51.1542 5.00695 49.9667 6.26447 49.1427 7.75457C48.3186 9.24468 47.8848 10.919 47.8816 12.6217C45.3831 12.0126 42.6936 14.1085 42.2032 16.7515C42.0046 18.0696 42.2011 19.417 42.7681 20.6234C43.335 21.8298 44.2468 22.8411 45.3883 23.5294C47.6183 24.8561 50.4369 24.8251 52.8373 23.8495C53.4128 25.1532 54.3519 26.2633 55.5421 27.047C56.7323 27.8307 58.1232 28.2547 59.5481 28.2683C60.9822 28.1979 62.3666 27.7206 63.5394 26.8924C64.7122 26.0642 65.6251 24.9192 66.1712 23.5914C68.0348 24.5412 70.2184 25.14 72.18 24.4173C74.1416 23.6946 75.6335 21.2787 74.823 19.2551C77.6261 19.1467 79.7581 15.9101 79.2315 13.0347Z" fill="#F5F5F5"/>
<path id="Vector_7" d="M222.28 11.2331L223.008 12.7146C223.049 12.7942 223.108 12.8628 223.181 12.9149C223.254 12.967 223.338 13.0009 223.426 13.014L225.058 13.2515C225.159 13.2672 225.255 13.3107 225.333 13.3773C225.412 13.4439 225.47 13.531 225.502 13.6288C225.534 13.7266 225.539 13.8314 225.515 13.9315C225.491 14.0317 225.44 14.1233 225.367 14.1962L224.185 15.3473C224.116 15.4122 224.065 15.4938 224.037 15.5843C224.009 15.6748 224.005 15.771 224.025 15.8635L224.304 17.4896C224.321 17.5911 224.31 17.6955 224.271 17.7909C224.233 17.8864 224.168 17.9691 224.085 18.0297C224.002 18.0904 223.903 18.1266 223.801 18.1342C223.698 18.1419 223.595 18.1207 223.504 18.073L222.048 17.278C221.968 17.2372 221.88 17.2159 221.79 17.2159C221.7 17.2159 221.612 17.2372 221.532 17.278L220.071 18.0471C219.98 18.0948 219.877 18.1161 219.774 18.1084C219.671 18.1008 219.573 18.0646 219.49 18.0039C219.407 17.9433 219.342 17.8605 219.303 17.7651C219.265 17.6697 219.253 17.5653 219.271 17.4638L219.55 15.8377C219.569 15.7452 219.564 15.6492 219.536 15.5589C219.508 15.4686 219.458 15.3869 219.39 15.3215L218.207 14.1704C218.133 14.0986 218.08 14.0074 218.055 13.9071C218.03 13.8068 218.033 13.7014 218.065 13.6029C218.096 13.5045 218.155 13.4169 218.234 13.3502C218.313 13.2835 218.41 13.2404 218.512 13.2257L220.148 12.9882C220.236 12.976 220.32 12.9423 220.392 12.8901C220.464 12.8379 220.522 12.7688 220.561 12.6888L221.294 11.2073C221.343 11.1172 221.415 11.0424 221.504 10.9911C221.592 10.9398 221.693 10.914 221.795 10.9167C221.897 10.9194 221.997 10.9504 222.083 11.0062C222.168 11.0621 222.237 11.1406 222.28 11.2331Z" fill="#E0E0E0"/>
<path id="Vector_8" d="M10.4922 97.4621L11.2459 99.0107C11.2877 99.0936 11.3489 99.1651 11.4245 99.2191C11.5 99.273 11.5875 99.3078 11.6795 99.3205L13.3675 99.5682C13.4732 99.5835 13.5725 99.6279 13.6542 99.6966C13.736 99.7652 13.797 99.8553 13.8302 99.9568C13.8635 100.058 13.8678 100.167 13.8426 100.271C13.8174 100.374 13.7637 100.469 13.6876 100.544L12.4641 101.716C12.3961 101.781 12.3455 101.863 12.3167 101.953C12.2878 102.043 12.2817 102.139 12.299 102.232L12.588 103.915C12.6061 104.02 12.5943 104.128 12.554 104.227C12.5137 104.326 12.4465 104.412 12.3601 104.475C12.2736 104.538 12.1713 104.575 12.0648 104.583C11.9582 104.591 11.8515 104.568 11.7569 104.519L10.2444 103.724C10.1645 103.683 10.076 103.662 9.9863 103.662C9.89657 103.662 9.80811 103.683 9.72819 103.724L8.21567 104.519C8.12105 104.568 8.01442 104.591 7.90783 104.583C7.80125 104.575 7.69895 104.538 7.6125 104.475C7.52605 104.412 7.45889 104.326 7.41861 104.227C7.37833 104.128 7.36654 104.02 7.38456 103.915L7.67364 102.232C7.69292 102.139 7.68835 102.043 7.66036 101.953C7.63237 101.863 7.58187 101.781 7.51361 101.716L6.26953 100.528C6.19351 100.454 6.13976 100.36 6.11429 100.256C6.08883 100.153 6.09266 100.045 6.12535 99.9432C6.15805 99.8419 6.21832 99.7517 6.2994 99.6828C6.38049 99.6138 6.47918 99.5688 6.58442 99.5528L8.27245 99.305C8.36484 99.2937 8.45292 99.2594 8.52867 99.2053C8.60441 99.1512 8.6654 99.079 8.70608 98.9952L9.45975 97.4466C9.508 97.3501 9.5825 97.2692 9.67468 97.2132C9.76686 97.1572 9.87298 97.1283 9.98084 97.1299C10.0887 97.1316 10.1939 97.1636 10.2844 97.2224C10.3748 97.2811 10.4469 97.3642 10.4922 97.4621Z" fill="#E0E0E0"/>
<path id="Vector_9" d="M12.5673 20.7211L13.6927 22.9976C13.7542 23.1207 13.8445 23.2273 13.9559 23.3081C14.0673 23.389 14.1966 23.4419 14.3328 23.4622L16.8416 23.8235C16.9982 23.847 17.1452 23.9138 17.266 24.0162C17.3868 24.1187 17.4766 24.2527 17.5254 24.4034C17.5742 24.5541 17.58 24.7154 17.5422 24.8692C17.5044 25.023 17.4245 25.1632 17.3114 25.2741L15.4943 27.0447C15.3955 27.1411 15.3217 27.2601 15.2794 27.3915C15.2371 27.5228 15.2276 27.6625 15.2517 27.7984L15.6801 30.2969C15.7077 30.4534 15.6907 30.6144 15.631 30.7617C15.5714 30.909 15.4715 31.0365 15.3428 31.1296C15.2141 31.2228 15.0617 31.2778 14.9032 31.2885C14.7447 31.2992 14.5864 31.265 14.4463 31.19L12.2008 30.013C12.0796 29.947 11.9439 29.9125 11.8059 29.9125C11.6679 29.9125 11.5322 29.947 11.411 30.013L9.16544 31.19C9.02541 31.265 8.86708 31.2992 8.70856 31.2885C8.55004 31.2778 8.39772 31.2228 8.26902 31.1296C8.14032 31.0365 8.04043 30.909 7.98077 30.7617C7.92112 30.6144 7.90411 30.4534 7.93168 30.2969L8.3653 27.7984C8.38825 27.6621 8.37769 27.5223 8.33452 27.391C8.29135 27.2596 8.21687 27.1408 8.11752 27.0447L6.30043 25.2741C6.18702 25.1622 6.10726 25.0208 6.07022 24.8658C6.03318 24.7109 6.04033 24.5486 6.09087 24.3975C6.14141 24.2465 6.23331 24.1126 6.35613 24.0111C6.47895 23.9096 6.62777 23.8447 6.78567 23.8235L9.29965 23.4622C9.43554 23.441 9.56446 23.3879 9.67576 23.3071C9.78706 23.2263 9.87755 23.1202 9.93977 22.9976L11.06 20.7211C11.1322 20.5838 11.2406 20.4688 11.3735 20.3887C11.5063 20.3085 11.6585 20.2661 11.8136 20.2661C11.9688 20.2661 12.121 20.3085 12.2538 20.3887C12.3866 20.4688 12.495 20.5838 12.5673 20.7211Z" fill="#E0E0E0"/>
<path id="Vector_10" d="M27.0258 188.533L27.7227 189.942C27.7597 190.02 27.8155 190.087 27.8849 190.137C27.9543 190.188 28.0352 190.22 28.1202 190.232L29.6689 190.459C29.7671 190.47 29.8599 190.51 29.9363 190.572C30.0128 190.635 30.0696 190.718 30.1 190.812C30.1305 190.906 30.1333 191.007 30.1081 191.103C30.0829 191.198 30.0308 191.285 29.958 191.352L28.8326 192.451C28.7713 192.51 28.7255 192.584 28.6994 192.665C28.6732 192.746 28.6676 192.832 28.6829 192.916L28.9462 194.465C28.9658 194.561 28.9571 194.662 28.9213 194.754C28.8854 194.846 28.8239 194.926 28.744 194.984C28.6641 195.042 28.5691 195.076 28.4705 195.082C28.3718 195.088 28.2735 195.065 28.1873 195.017L26.7935 194.289C26.7151 194.244 26.626 194.22 26.5354 194.22C26.4448 194.22 26.3558 194.244 26.2773 194.289L24.8887 195.017C24.8024 195.067 24.7035 195.091 24.6039 195.086C24.5043 195.081 24.4083 195.047 24.3275 194.988C24.2467 194.93 24.1846 194.849 24.1486 194.757C24.1126 194.664 24.1043 194.562 24.1247 194.465L24.3931 192.916C24.4078 192.832 24.4013 192.745 24.3743 192.664C24.3473 192.583 24.3005 192.51 24.2383 192.451L23.1129 191.352C23.0399 191.285 22.9878 191.198 22.9629 191.102C22.9379 191.006 22.9412 190.905 22.9722 190.81C23.0033 190.716 23.0608 190.633 23.1379 190.57C23.2151 190.508 23.3085 190.469 23.4071 190.459L24.9558 190.232C25.0409 190.22 25.1218 190.188 25.1912 190.137C25.2606 190.087 25.3163 190.02 25.3533 189.942L26.0502 188.533C26.0853 188.432 26.1511 188.344 26.2386 188.282C26.326 188.219 26.4307 188.186 26.538 188.186C26.6453 188.186 26.75 188.219 26.8374 188.282C26.9249 188.344 26.9907 188.432 27.0258 188.533Z" fill="#E0E0E0"/>
<path id="Vector_11" d="M186.476 109.516L187.173 110.925C187.21 111.003 187.266 111.07 187.335 111.12C187.405 111.17 187.486 111.203 187.571 111.214L189.119 111.441C189.218 111.452 189.311 111.491 189.389 111.553C189.466 111.616 189.523 111.699 189.554 111.793C189.585 111.887 189.589 111.988 189.564 112.084C189.539 112.18 189.487 112.267 189.414 112.334L188.288 113.434C188.226 113.492 188.179 113.566 188.152 113.647C188.125 113.728 188.119 113.814 188.133 113.899L188.402 115.447C188.422 115.545 188.414 115.646 188.378 115.739C188.342 115.832 188.28 115.913 188.199 115.971C188.118 116.03 188.022 116.063 187.923 116.068C187.823 116.073 187.724 116.05 187.638 116L186.249 115.272C186.171 115.226 186.082 115.203 185.991 115.203C185.9 115.203 185.811 115.226 185.733 115.272L184.339 116C184.253 116.048 184.155 116.071 184.056 116.065C183.957 116.059 183.862 116.025 183.783 115.967C183.703 115.909 183.641 115.829 183.605 115.737C183.569 115.645 183.561 115.544 183.58 115.447L183.844 113.899C183.859 113.815 183.853 113.728 183.827 113.647C183.801 113.566 183.755 113.493 183.694 113.434L182.569 112.334C182.496 112.268 182.444 112.181 182.418 112.086C182.393 111.99 182.396 111.889 182.426 111.795C182.457 111.701 182.514 111.618 182.59 111.555C182.667 111.492 182.759 111.453 182.858 111.441L184.406 111.214C184.491 111.203 184.572 111.17 184.642 111.12C184.711 111.07 184.767 111.003 184.804 110.925L185.501 109.516C185.536 109.414 185.602 109.326 185.689 109.264C185.776 109.202 185.881 109.168 185.988 109.168C186.096 109.168 186.2 109.202 186.288 109.264C186.375 109.326 186.441 109.414 186.476 109.516Z" fill="#E0E0E0"/>
<path id="Vector_12" d="M218.689 172.319L219.385 173.728C219.422 173.805 219.477 173.872 219.545 173.922C219.614 173.973 219.694 174.005 219.778 174.017L221.326 174.245C221.426 174.254 221.521 174.293 221.599 174.356C221.677 174.418 221.736 174.502 221.767 174.598C221.798 174.693 221.801 174.795 221.775 174.892C221.749 174.989 221.695 175.076 221.621 175.143L220.501 176.237C220.439 176.296 220.393 176.37 220.367 176.451C220.341 176.532 220.335 176.618 220.351 176.702L220.614 178.25C220.636 178.348 220.628 178.451 220.593 178.544C220.557 178.638 220.495 178.72 220.414 178.779C220.333 178.838 220.237 178.872 220.137 178.878C220.036 178.883 219.937 178.858 219.85 178.808L218.461 178.075C218.386 178.034 218.302 178.013 218.216 178.013C218.131 178.013 218.046 178.034 217.971 178.075L216.582 178.808C216.496 178.858 216.396 178.883 216.296 178.878C216.196 178.872 216.099 178.838 216.018 178.779C215.937 178.72 215.875 178.638 215.84 178.544C215.804 178.451 215.797 178.348 215.818 178.25L216.082 176.702C216.097 176.618 216.091 176.532 216.065 176.451C216.039 176.37 215.993 176.296 215.932 176.237L214.822 175.143C214.747 175.076 214.694 174.989 214.668 174.892C214.642 174.795 214.645 174.693 214.676 174.598C214.707 174.502 214.765 174.418 214.844 174.356C214.922 174.293 215.017 174.254 215.116 174.245L216.665 174.017C216.749 174.005 216.829 173.973 216.897 173.922C216.966 173.872 217.021 173.805 217.057 173.728L217.754 172.319C217.796 172.23 217.862 172.155 217.945 172.103C218.027 172.05 218.123 172.022 218.221 172.022C218.319 172.022 218.415 172.05 218.498 172.103C218.581 172.155 218.647 172.23 218.689 172.319Z" fill="#E0E0E0"/>
<path id="Vector_13" d="M51.6595 111.813C51.4193 111.262 51.0133 110.8 50.498 110.492C50.0058 110.168 49.4243 110.007 48.8358 110.032C48.5251 110.055 48.2223 110.14 47.9455 110.283C47.6687 110.426 47.4236 110.623 47.2252 110.863C46.9926 111.152 46.8316 111.491 46.7554 111.854C46.5133 111.621 46.2223 111.445 45.9037 111.338C45.6072 111.242 45.2944 111.207 44.984 111.234C44.6736 111.262 44.3719 111.352 44.0969 111.498C43.5884 111.793 43.1842 112.238 42.9406 112.773C42.6721 113.311 42.5749 113.918 42.6618 114.513C42.7833 115.268 43.1454 115.963 43.6942 116.495C44.3058 117.019 45.0329 117.391 45.8159 117.579C47.1013 117.92 48.7738 118.323 48.7738 118.323C48.7738 118.323 49.7237 117.063 50.6271 116.092C51.1886 115.51 51.6043 114.802 51.8402 114.028C52.018 113.289 51.9547 112.513 51.6595 111.813Z" fill="#E0E0E0"/>
</g>
<g id="Floor">
<path id="Vector_14" d="M230.334 205.351C230.334 205.429 178.811 205.485 115.269 205.485C51.7281 205.485 0.199219 205.429 0.199219 205.351C0.199219 205.274 51.7075 205.217 115.269 205.217C178.831 205.217 230.334 205.279 230.334 205.351Z" fill="black"/>
</g>
<g id="Stars">
<path id="Vector_15" d="M222.267 64.0317L222.979 65.4719C223.017 65.5517 223.074 65.6206 223.145 65.6721C223.216 65.7236 223.3 65.756 223.387 65.7662L224.977 65.9985C225.08 66.0052 225.179 66.0429 225.261 66.1065C225.342 66.1702 225.403 66.2568 225.435 66.3553C225.466 66.4538 225.468 66.5596 225.439 66.6589C225.41 66.7582 225.351 66.8464 225.271 66.9122L224.115 68.0479C224.052 68.108 224.005 68.183 223.979 68.2661C223.953 68.3491 223.948 68.4374 223.965 68.5228L224.234 70.1076C224.261 70.2085 224.257 70.3153 224.222 70.4139C224.188 70.5125 224.124 70.5982 224.039 70.6598C223.955 70.7213 223.854 70.7558 223.749 70.7585C223.645 70.7613 223.542 70.7323 223.454 70.6754L222.05 69.9269C221.972 69.8816 221.883 69.8577 221.792 69.8577C221.701 69.8577 221.612 69.8816 221.534 69.9269L220.114 70.6754C220.027 70.7342 219.923 70.7647 219.818 70.7628C219.712 70.7609 219.61 70.7267 219.524 70.6649C219.439 70.603 219.374 70.5164 219.339 70.4168C219.305 70.3171 219.301 70.2092 219.33 70.1076L219.603 68.5228C219.62 68.437 219.614 68.3484 219.587 68.2653C219.56 68.1823 219.512 68.1074 219.448 68.0479L218.297 66.9225C218.217 66.8564 218.159 66.7677 218.13 66.668C218.101 66.5683 218.103 66.4621 218.135 66.3634C218.167 66.2648 218.229 66.1781 218.311 66.1149C218.393 66.0516 218.493 66.0146 218.597 66.0088L220.187 65.7765C220.273 65.7636 220.355 65.7302 220.426 65.679C220.497 65.6278 220.555 65.5603 220.594 65.4822L221.302 64.042C221.338 63.9436 221.403 63.8586 221.488 63.7982C221.574 63.7377 221.676 63.7048 221.781 63.7036C221.885 63.7025 221.988 63.7333 222.075 63.7919C222.162 63.8505 222.229 63.9341 222.267 64.0317Z" fill="#5EBBFF"/>
<path id="Vector_16" d="M78.5777 21.4076L79.0939 22.4401C79.1219 22.4958 79.1626 22.544 79.2129 22.5808C79.2632 22.6176 79.3215 22.6419 79.383 22.6517L80.5135 22.8169C80.5838 22.8273 80.6498 22.8572 80.7041 22.903C80.7584 22.9489 80.7988 23.009 80.8208 23.0766C80.8428 23.1442 80.8455 23.2165 80.8286 23.2856C80.8117 23.3546 80.7759 23.4176 80.7252 23.4674L79.8941 24.283C79.8504 24.3261 79.8177 24.3791 79.7988 24.4375C79.78 24.4959 79.7754 24.558 79.7857 24.6185L79.9818 25.7439C79.9943 25.8146 79.9866 25.8873 79.9597 25.9539C79.9327 26.0204 79.8875 26.078 79.8293 26.12C79.7711 26.162 79.7023 26.1868 79.6306 26.1915C79.559 26.1962 79.4875 26.1806 79.4243 26.1465L78.3919 25.6303C78.3367 25.6022 78.2757 25.5876 78.2138 25.5876C78.1519 25.5876 78.0908 25.6022 78.0357 25.6303L77.0033 26.1465C76.9402 26.1792 76.8693 26.1936 76.7986 26.1882C76.7278 26.1828 76.6599 26.1578 76.6026 26.116C76.5452 26.0742 76.5006 26.0172 76.4738 25.9515C76.4471 25.8858 76.4391 25.8139 76.4509 25.7439L76.6419 24.6185C76.6521 24.558 76.6476 24.4959 76.6287 24.4375C76.6099 24.3791 76.5772 24.3261 76.5335 24.283L75.7179 23.4828C75.6672 23.433 75.6313 23.3701 75.6145 23.3011C75.5976 23.232 75.6003 23.1597 75.6223 23.0921C75.6443 23.0245 75.6847 22.9644 75.7389 22.9185C75.7932 22.8726 75.8592 22.8428 75.9295 22.8324L77.06 22.6672C77.1211 22.6579 77.1789 22.6337 77.2284 22.5968C77.2779 22.5599 77.3176 22.5114 77.344 22.4556L77.8602 21.4231C77.8854 21.349 77.9329 21.2844 77.9961 21.2381C78.0593 21.1918 78.1352 21.1661 78.2135 21.1644C78.2918 21.1627 78.3688 21.1851 78.4339 21.2286C78.4991 21.2722 78.5493 21.3346 78.5777 21.4076Z" fill="#5EBBFF"/>
<path id="Vector_17" d="M139.552 14.7332L140.068 15.7656C140.096 15.8213 140.137 15.8696 140.187 15.9064C140.238 15.9432 140.296 15.9675 140.357 15.9773L141.488 16.1373C141.559 16.147 141.626 16.1766 141.682 16.2228C141.737 16.2691 141.778 16.3299 141.8 16.3985C141.822 16.467 141.825 16.5404 141.807 16.6102C141.789 16.68 141.752 16.7433 141.7 16.7929L140.868 17.5724C140.825 17.6165 140.792 17.6704 140.773 17.7297C140.754 17.7889 140.75 17.8518 140.76 17.9131L140.956 19.0384C140.967 19.1087 140.958 19.1804 140.93 19.2458C140.903 19.3112 140.858 19.3678 140.8 19.4094C140.742 19.451 140.675 19.4759 140.604 19.4815C140.533 19.4871 140.462 19.4731 140.399 19.4411L139.366 18.9249C139.311 18.8968 139.25 18.8821 139.188 18.8821C139.126 18.8821 139.065 18.8968 139.01 18.9249L137.978 19.4411C137.915 19.4737 137.844 19.4882 137.773 19.4828C137.702 19.4774 137.634 19.4524 137.577 19.4106C137.52 19.3688 137.475 19.3118 137.448 19.2461C137.421 19.1803 137.414 19.1084 137.425 19.0384L137.616 17.9131C137.627 17.8518 137.623 17.7887 137.604 17.7293C137.586 17.6699 137.552 17.616 137.508 17.5724L136.692 16.7774C136.64 16.7278 136.603 16.6645 136.585 16.5947C136.567 16.5249 136.57 16.4515 136.592 16.383C136.614 16.3145 136.655 16.2536 136.71 16.2074C136.765 16.1612 136.833 16.1315 136.904 16.1218L138.034 15.9618C138.095 15.9525 138.153 15.9283 138.203 15.8914C138.252 15.8545 138.292 15.806 138.318 15.7501L138.835 14.7177C138.863 14.6447 138.913 14.5822 138.978 14.5387C139.043 14.4952 139.12 14.4728 139.199 14.4745C139.277 14.4761 139.353 14.5019 139.416 14.5482C139.479 14.5944 139.527 14.659 139.552 14.7332Z" fill="#5EBBFF"/>
<path id="Vector_18" d="M196.405 190.98L197.045 192.276C197.081 192.344 197.133 192.403 197.195 192.449C197.258 192.494 197.33 192.525 197.406 192.539L198.836 192.746C198.925 192.759 199.008 192.797 199.077 192.855C199.145 192.913 199.196 192.989 199.223 193.074C199.251 193.16 199.254 193.251 199.232 193.338C199.21 193.425 199.164 193.504 199.099 193.567L198.067 194.573C198.013 194.629 197.972 194.697 197.948 194.771C197.924 194.846 197.917 194.924 197.927 195.002L198.175 196.421C198.191 196.511 198.182 196.603 198.148 196.687C198.115 196.771 198.058 196.845 197.985 196.898C197.912 196.952 197.825 196.984 197.735 196.991C197.644 196.998 197.554 196.98 197.473 196.938L196.198 196.266C196.128 196.233 196.051 196.215 195.974 196.215C195.896 196.215 195.819 196.233 195.749 196.266L194.474 196.938C194.394 196.98 194.303 196.998 194.212 196.991C194.122 196.984 194.035 196.952 193.962 196.898C193.889 196.845 193.832 196.771 193.799 196.687C193.765 196.603 193.756 196.511 193.772 196.421L194.015 195.002C194.028 194.924 194.023 194.845 193.998 194.77C193.974 194.695 193.932 194.628 193.875 194.573L192.843 193.567C192.78 193.503 192.736 193.424 192.715 193.337C192.695 193.25 192.698 193.159 192.726 193.074C192.754 192.989 192.805 192.914 192.872 192.856C192.94 192.798 193.023 192.76 193.111 192.746L194.541 192.539C194.617 192.525 194.689 192.494 194.752 192.449C194.814 192.403 194.866 192.344 194.902 192.276L195.543 190.98C195.582 190.9 195.643 190.832 195.72 190.784C195.796 190.737 195.884 190.712 195.974 190.712C196.063 190.712 196.151 190.737 196.228 190.784C196.304 190.832 196.365 190.9 196.405 190.98Z" fill="#5EBBFF"/>
</g>
<g id="Moon">
<path id="Vector_19" d="M97.5795 7.69156H97.5227C99.8037 8.29036 101.909 9.42392 103.665 10.9984C105.421 12.5728 106.776 14.5429 107.619 16.7454C108.462 18.9479 108.768 21.3195 108.512 23.6638C108.255 26.0081 107.445 28.2577 106.146 30.2263C104.847 32.1948 103.099 33.8258 101.044 34.984C98.9902 36.1422 96.6896 36.7944 94.3331 36.8865C91.9766 36.9787 89.6321 36.5081 87.4937 35.5139C85.3552 34.5197 83.4844 33.0303 82.0361 31.1692C83.0577 34.4509 84.9892 37.3756 87.6062 39.6038C90.2232 41.832 93.4186 43.2722 96.8212 43.7573C100.224 44.2424 103.694 43.7525 106.83 42.3444C109.965 40.9363 112.637 38.6678 114.535 35.8023C116.433 32.9368 117.479 29.5917 117.553 26.1554C117.626 22.719 116.723 19.3324 114.949 16.3887C113.174 13.4449 110.602 11.0647 107.529 9.52432C104.457 7.98397 101.01 7.34667 97.5898 7.6864L97.5795 7.69156Z" fill="#FFE55E"/>
<g id="Group" opacity="0.6">
<path id="Vector_20" d="M97.5795 7.69156H97.5227C99.8037 8.29036 101.909 9.42392 103.665 10.9984C105.421 12.5728 106.776 14.5429 107.619 16.7454C108.462 18.9479 108.768 21.3195 108.512 23.6638C108.255 26.0081 107.445 28.2577 106.146 30.2263C104.847 32.1948 103.099 33.8258 101.044 34.984C98.9902 36.1422 96.6896 36.7944 94.3331 36.8865C91.9766 36.9787 89.6321 36.5081 87.4937 35.5139C85.3552 34.5197 83.4844 33.0303 82.0361 31.1692C83.0577 34.4509 84.9892 37.3756 87.6062 39.6038C90.2232 41.832 93.4186 43.2722 96.8212 43.7573C100.224 44.2424 103.694 43.7525 106.83 42.3444C109.965 40.9363 112.637 38.6678 114.535 35.8023C116.433 32.9368 117.479 29.5917 117.553 26.1554C117.626 22.719 116.723 19.3324 114.949 16.3887C113.174 13.4449 110.602 11.0647 107.529 9.52432C104.457 7.98397 101.01 7.34667 97.5898 7.6864L97.5795 7.69156Z" fill="white"/>
</g>
</g>
<g id="Clouds">
<path id="Vector_21" d="M121.268 62.2561C121.34 62.2561 121.402 67.2015 121.402 73.3032C121.402 79.4049 121.34 84.3502 121.268 84.3502C121.196 84.3502 121.134 79.4049 121.134 73.3032C121.134 67.2015 121.196 62.2561 121.268 62.2561Z" fill="black"/>
<path id="Vector_22" d="M121.743 82.7861L122.362 84.0457C122.396 84.1129 122.446 84.1709 122.507 84.215C122.568 84.259 122.639 84.2877 122.713 84.2986L124.102 84.4999C124.189 84.5133 124.27 84.5505 124.337 84.6073C124.404 84.6641 124.454 84.7383 124.481 84.8217C124.508 84.9052 124.512 84.9945 124.491 85.0798C124.471 85.1652 124.427 85.2432 124.365 85.3053L123.359 86.2809C123.305 86.3349 123.264 86.401 123.241 86.4737C123.218 86.5464 123.212 86.6237 123.224 86.699L123.462 88.0773C123.482 88.1653 123.476 88.257 123.445 88.3416C123.414 88.4262 123.359 88.5001 123.287 88.5546C123.215 88.609 123.129 88.6416 123.04 88.6485C122.95 88.6554 122.86 88.6363 122.78 88.5936L121.536 87.9431C121.47 87.9074 121.395 87.8887 121.32 87.8887C121.244 87.8887 121.169 87.9074 121.103 87.9431L119.838 88.5729C119.759 88.6157 119.669 88.6348 119.579 88.6278C119.489 88.6209 119.403 88.5883 119.331 88.5339C119.259 88.4795 119.205 88.4056 119.174 88.321C119.143 88.2364 119.137 88.1446 119.157 88.0567L119.394 86.6784C119.408 86.603 119.403 86.5254 119.379 86.4525C119.356 86.3795 119.315 86.3135 119.26 86.2603L118.289 85.3053C118.225 85.2444 118.18 85.1667 118.158 85.0812C118.136 84.9957 118.139 84.9057 118.166 84.8217C118.193 84.7376 118.243 84.6629 118.31 84.606C118.378 84.5491 118.46 84.5123 118.547 84.4999L119.936 84.2986C120.011 84.2877 120.081 84.259 120.142 84.215C120.204 84.1709 120.253 84.1129 120.287 84.0457L120.912 82.7861C120.952 82.7104 121.011 82.6471 121.085 82.6029C121.158 82.5588 121.242 82.5354 121.327 82.5354C121.413 82.5354 121.497 82.5588 121.57 82.6029C121.643 82.6471 121.703 82.7104 121.743 82.7861Z" fill="#FF725E"/>
<path id="Vector_23" d="M155.116 47.4563C154.177 43.8428 149.634 41.4888 145.923 41.6333C142.211 41.7779 139.862 43.6208 137.937 46.7955V46.8936C137.497 43.7338 135.849 40.8678 133.339 38.8988C130.829 36.9298 127.653 36.0116 124.479 36.3374C121.306 36.6632 118.382 38.2075 116.325 40.6454C114.267 43.0833 113.236 46.2244 113.447 49.4076C110.076 48.8346 106.68 51.6996 106.22 55.086C105.761 58.4724 107.944 61.9001 111.016 63.4023C114.087 64.9045 117.825 64.6463 120.932 63.2216C121.831 64.8713 123.187 66.2259 124.838 67.1217C126.489 68.0175 128.364 68.4164 130.237 68.2701C132.109 68.1238 133.9 67.4387 135.391 66.2974C136.883 65.156 138.013 63.6073 138.644 61.8381C141.199 62.8706 144.147 63.4642 146.697 62.406C149.247 61.3477 151.018 58.1678 149.794 55.6951C153.496 55.308 156.056 51.044 155.116 47.4563Z" fill="white"/>
<path id="Vector_24" d="M155.115 47.4559C155.115 47.4559 155.183 47.6934 155.275 48.1735C155.365 48.8865 155.344 49.6091 155.214 50.3158C154.989 51.4588 154.497 52.5325 153.778 53.4492C152.815 54.7185 151.387 55.5539 149.809 55.7722L149.866 55.6638C150.12 56.2041 150.26 56.7911 150.277 57.388C150.294 57.985 150.187 58.579 149.964 59.1328C149.479 60.3851 148.593 61.4416 147.444 62.1372C146.153 62.8482 144.682 63.1675 143.211 63.056C141.633 62.9348 140.084 62.5564 138.627 61.9358L138.767 61.8739C138.174 63.4912 137.168 64.9255 135.85 66.0346C134.744 66.9903 133.438 67.6856 132.027 68.0691C130.617 68.4527 129.138 68.5147 127.7 68.2506C126.262 67.9866 124.902 67.4031 123.72 66.5434C122.538 65.6837 121.564 64.5695 120.87 63.2832L121.035 63.3348C119.562 64.0145 117.976 64.4153 116.358 64.5169C114.676 64.6372 112.989 64.3614 111.433 63.7116C109.833 63.0222 108.466 61.8836 107.5 60.4336C106.48 58.9594 105.989 57.1839 106.106 55.3954C106.286 53.5792 107.179 51.9085 108.589 50.7494C109.253 50.1636 110.036 49.7287 110.885 49.4748C111.733 49.2208 112.626 49.1537 113.503 49.2782L113.348 49.4176C113.253 47.6221 113.538 45.8269 114.182 44.1486C114.827 42.4703 115.818 40.9465 117.091 39.6765C118.309 38.4739 119.772 37.5477 121.381 36.9612C122.925 36.3956 124.564 36.1327 126.207 36.1869C128.544 36.2372 130.816 36.9693 132.743 38.2931C133.345 38.7148 133.912 39.1862 134.436 39.7023C136.373 41.6488 137.639 44.1624 138.049 46.8778H137.853V46.7487V46.7177C138.653 45.3265 139.721 44.1086 140.997 43.1352C142.164 42.2963 143.528 41.7719 144.956 41.6123C146.19 41.4519 147.444 41.5326 148.647 41.8498C149.658 42.1034 150.627 42.5034 151.523 43.0371C152.783 43.7508 153.833 44.7834 154.568 46.0312C154.75 46.36 154.898 46.7058 155.012 47.0636C155.085 47.3011 155.115 47.4301 155.115 47.4301L154.981 47.0688C154.862 46.7105 154.708 46.3647 154.522 46.0363C153.773 44.815 152.722 43.807 151.471 43.1094C150.58 42.5898 149.618 42.202 148.616 41.9582C147.428 41.6529 146.192 41.5811 144.977 41.7466C143.576 41.9067 142.241 42.4259 141.1 43.2539C139.843 44.2192 138.79 45.4247 138.003 46.8003V46.7384V46.8365H137.807C137.513 44.7896 136.706 42.8507 135.459 41.2012C134.212 39.5517 132.567 38.2456 130.678 37.4052C129.258 36.8039 127.738 36.4731 126.197 36.4295C124.552 36.3638 122.91 36.6343 121.373 37.2246C119.835 37.8148 118.435 38.7124 117.256 39.8624C116.012 41.1068 115.044 42.5985 114.414 44.241C113.783 45.8834 113.505 47.64 113.596 49.3969V49.5673L113.431 49.5363C112.593 49.4196 111.739 49.4861 110.929 49.7312C110.119 49.9763 109.371 50.3941 108.738 50.9559C107.383 52.0696 106.523 53.6752 106.348 55.4212C106.238 57.1474 106.713 58.8605 107.696 60.2839C108.635 61.6918 109.962 62.7979 111.516 63.469C113.033 64.1023 114.677 64.3728 116.317 64.2588C117.902 64.1572 119.456 63.7652 120.901 63.1025L121.009 63.0509L121.066 63.1593C121.741 64.4186 122.691 65.5098 123.846 66.3522C125 67.1946 126.329 67.7666 127.734 68.0259C129.14 68.2851 130.585 68.225 131.964 67.8499C133.343 67.4748 134.62 66.7945 135.701 65.8591C136.993 64.7783 137.982 63.3801 138.571 61.8016L138.607 61.6984L138.71 61.7397C140.142 62.3588 141.666 62.7357 143.222 62.8547C144.654 62.9696 146.088 62.6666 147.352 61.9823C148.468 61.3085 149.333 60.2877 149.814 59.076C150.03 58.5427 150.135 57.9708 150.122 57.3954C150.108 56.8201 149.977 56.2536 149.736 55.7309L149.69 55.638H149.793C151.339 55.4315 152.741 54.6248 153.696 53.3924C154.411 52.4864 154.904 51.4257 155.136 50.2951C155.33 49.3579 155.323 48.3902 155.115 47.4559Z" fill="#263238"/>
<path id="Vector_25" d="M55.4868 69.158C55.559 69.158 55.621 74.1033 55.621 80.205C55.621 86.3067 55.559 91.2521 55.4868 91.2521C55.4145 91.2521 55.3525 86.3067 55.3525 80.205C55.3525 74.1033 55.4145 69.158 55.4868 69.158Z" fill="black"/>
<path id="Vector_26" d="M32.3295 73.7676C32.407 73.7676 32.4637 87.7468 32.4637 104.988C32.4637 122.23 32.407 136.214 32.3295 136.214C32.2521 136.214 32.1953 122.235 32.1953 104.988C32.1953 87.7416 32.2573 73.7676 32.3295 73.7676Z" fill="black"/>
<path id="Vector_27" d="M78.9732 47.8587C77.5794 42.5106 70.8066 38.9745 65.2831 39.1862C59.7595 39.3978 56.2492 42.1493 53.41 46.8778V47.0224C52.9884 43.9575 51.7983 41.0491 49.9506 38.5678C48.1029 36.0865 45.6575 34.1128 42.842 32.8306C40.0266 31.5483 36.9325 30.999 33.8477 31.2338C30.7629 31.4687 27.7876 32.48 25.1987 34.1737C22.5009 35.9862 20.321 38.4693 18.8729 41.379C17.4248 44.2887 16.7585 47.525 16.9392 50.7701C11.9268 49.9132 6.86782 54.1823 6.2019 59.2258C5.53598 64.2692 8.78299 69.3746 13.3464 71.615C17.9097 73.8554 23.49 73.4682 28.1102 71.3466C29.4484 73.804 31.4693 75.8216 33.9289 77.1557C36.3885 78.4899 39.1818 79.0837 41.9714 78.8654C44.761 78.647 47.4279 77.626 49.65 75.9254C51.8721 74.2248 53.5545 71.9174 54.4941 69.2817C58.2986 70.8304 62.6865 71.7079 66.4858 70.1283C70.2852 68.5487 72.9179 63.815 71.075 60.1395C76.5573 59.5562 80.3721 53.1912 78.9732 47.8587Z" fill="#F5F5F5"/>
<path id="Vector_28" d="M78.974 47.8587C78.974 47.8587 79.0669 48.22 79.2011 48.9324C79.3353 49.9927 79.3022 51.0674 79.103 52.1175C78.7609 53.811 78.0292 55.4016 76.9659 56.7634C76.2859 57.6223 75.4677 58.362 74.5448 58.9522C73.4963 59.6264 72.3084 60.0535 71.0707 60.2014L71.1275 60.093C71.5049 60.8975 71.7121 61.7713 71.7361 62.6596C71.76 63.5479 71.6003 64.4315 71.2668 65.2552C70.5411 67.1088 69.226 68.6724 67.5243 69.705C65.609 70.755 63.4302 71.2266 61.2522 71.0627C58.9046 70.8851 56.6024 70.3218 54.4381 69.3953L54.5775 69.3333C53.6999 71.7425 52.2046 73.8788 50.2413 75.528C48.1551 77.2945 45.6224 78.4519 42.9213 78.873C40.0433 79.2749 37.111 78.8 34.5069 77.5102C31.7586 76.1936 29.4836 74.0609 27.9923 71.4034L28.1575 71.455C25.9696 72.4589 23.6164 73.0538 21.2143 73.2101C18.7195 73.3855 16.2181 72.9754 13.9098 72.0125C11.5394 70.9868 9.51438 69.3005 8.07658 67.1549C6.56518 64.9732 5.83734 62.3439 6.01171 59.6955C6.14221 58.3641 6.53401 57.0714 7.16469 55.8915C7.79538 54.7116 8.65256 53.6677 9.68718 52.8195C10.668 51.952 11.8252 51.3076 13.0791 50.9306C14.3331 50.5536 15.6538 50.4531 16.9504 50.6359L16.7955 50.7753C16.6541 48.111 17.0757 45.4469 18.0327 42.9564C18.9898 40.466 20.4608 38.2051 22.35 36.3212C24.1583 34.5355 26.3288 33.1589 28.715 32.2844C31.0066 31.4487 33.437 31.0597 35.8749 31.1384C38.2094 31.2064 40.5104 31.7125 42.658 32.6302C43.6831 33.0866 44.666 33.6325 45.5953 34.2615C46.4886 34.8909 47.3294 35.5918 48.1093 36.3573C50.9953 39.2376 52.8838 42.9658 53.4986 46.9966H53.3076V46.852V46.8211V46.7901C54.4867 44.7231 56.0661 42.912 57.9536 41.4627C59.6964 40.2324 61.7266 39.4715 63.8488 39.2533C65.6813 39.0123 67.5433 39.1298 69.331 39.5992C70.8353 39.9755 72.2768 40.5685 73.6105 41.3595C75.4858 42.4185 77.0505 43.951 78.148 45.8041C78.4239 46.2948 78.6455 46.8141 78.8088 47.3528C78.9224 47.709 78.974 47.869 78.974 47.869C78.974 47.869 78.9069 47.6883 78.783 47.3528C78.6051 46.8295 78.3769 46.3247 78.1016 45.8454C76.9904 44.0187 75.4255 42.5106 73.5589 41.4679C72.2295 40.6903 70.7952 40.1079 69.3 39.7386C67.5256 39.2834 65.6799 39.1747 63.8643 39.4185C61.7724 39.6625 59.7781 40.4392 58.0723 41.6744C56.2036 43.1137 54.64 44.9107 53.4728 46.9604V46.8985V47.0482H53.2818C52.664 43.059 50.7885 39.3714 47.9286 36.5225C47.1572 35.7673 46.325 35.0766 45.4404 34.4576C44.5232 33.8371 43.5523 33.2998 42.5393 32.8522C40.4139 31.9482 38.1373 31.4526 35.8285 31.3913C33.4328 31.3226 31.0462 31.7134 28.7976 32.5425C26.4474 33.3971 24.3096 34.7494 22.5307 36.507C20.6701 38.3662 19.2215 40.5959 18.2788 43.0514C17.3361 45.5069 16.9204 48.1332 17.0588 50.7598V50.9302L16.8936 50.8992C15.6409 50.7277 14.3659 50.829 13.1559 51.1961C11.946 51.5632 10.8296 52.1874 9.88335 53.026C8.87418 53.8536 8.0386 54.8726 7.42466 56.0243C6.81071 57.176 6.43052 58.4377 6.30596 59.7368C6.13548 62.3241 6.845 64.8929 8.31921 67.0258C9.72378 69.121 11.6999 70.7692 14.0131 71.775C16.2839 72.722 18.7446 73.125 21.1988 72.952C23.5684 72.8004 25.8901 72.2161 28.0491 71.2279L28.1575 71.1762L28.2143 71.2846C29.6827 73.8955 31.917 75.9928 34.6154 77.2934C37.1707 78.562 40.0488 79.0315 42.8748 78.6407C45.4503 78.2267 47.8707 77.1399 49.8912 75.4901C51.9117 73.8403 53.4607 71.6862 54.3813 69.2456L54.4175 69.1423L54.5207 69.1836C56.6613 70.1045 58.9392 70.6661 61.2625 70.8459C63.4031 71.0171 65.5471 70.5596 67.4313 69.5295C69.1035 68.5256 70.3974 66.9977 71.112 65.1829C71.4367 64.384 71.5941 63.5271 71.5746 62.6649C71.555 61.8028 71.3589 60.9538 70.9984 60.1705L70.9519 60.0775H71.0552C72.2735 59.9392 73.4442 59.5243 74.4777 58.8644C75.3919 58.2852 76.2031 57.5577 76.8781 56.7118C77.9419 55.3665 78.6772 53.7916 79.0256 52.1123C79.2314 51.0706 79.2784 50.0037 79.165 48.9479C79.1082 48.5917 79.0514 48.3233 79.0204 48.1426L78.974 47.8587Z" fill="#263238"/>
<path id="Vector_29" d="M33.1131 135.538L34.2384 137.82C34.3 137.943 34.3903 138.05 34.5017 138.131C34.6131 138.212 34.7424 138.264 34.8785 138.285L37.3925 138.651C37.5496 138.674 37.6972 138.74 37.8186 138.842C37.9401 138.944 38.0306 139.078 38.08 139.229C38.1294 139.38 38.1356 139.542 38.0981 139.696C38.0605 139.85 37.9806 139.991 37.8674 140.102L36.0452 141.872C35.946 141.969 35.872 142.088 35.8297 142.219C35.7874 142.35 35.7781 142.49 35.8026 142.626L36.231 145.135C36.2586 145.291 36.2416 145.452 36.1819 145.6C36.1223 145.747 36.0224 145.874 35.8937 145.968C35.765 146.061 35.6127 146.116 35.4541 146.127C35.2956 146.137 35.1373 146.103 34.9973 146.028L32.7466 144.846C32.6238 144.782 32.4874 144.749 32.3491 144.749C32.2107 144.749 32.0744 144.782 31.9516 144.846L29.706 146.028C29.5659 146.105 29.4069 146.14 29.2475 146.13C29.0881 146.12 28.9348 146.065 28.8053 145.972C28.6757 145.878 28.5752 145.75 28.5154 145.602C28.4556 145.454 28.4388 145.292 28.4671 145.135L28.8956 142.626C28.9181 142.49 28.9073 142.35 28.8642 142.219C28.821 142.088 28.7468 141.969 28.6478 141.872L26.8307 140.102C26.7176 139.991 26.6376 139.851 26.5998 139.697C26.562 139.543 26.5678 139.382 26.6166 139.231C26.6654 139.08 26.7553 138.946 26.8761 138.844C26.9969 138.741 27.1438 138.675 27.3005 138.651L29.8144 138.285C29.9506 138.264 30.0799 138.212 30.1913 138.131C30.3027 138.05 30.393 137.943 30.4546 137.82L31.5644 135.538C31.6324 135.39 31.7415 135.265 31.8787 135.176C32.016 135.088 32.1757 135.042 32.3387 135.042C32.5018 135.042 32.6615 135.088 32.7988 135.176C32.936 135.265 33.0451 135.39 33.1131 135.538Z" fill="#5EBBFF"/>
<path id="Vector_30" d="M55.9089 90.2145L56.5284 91.4689C56.5614 91.5374 56.6106 91.5967 56.6718 91.6417C56.733 91.6867 56.8043 91.716 56.8794 91.727L58.2681 91.9284C58.3548 91.9407 58.4364 91.977 58.5036 92.0332C58.5708 92.0895 58.6209 92.1634 58.6483 92.2466C58.6757 92.3299 58.6792 92.4191 58.6586 92.5043C58.6379 92.5894 58.5938 92.6671 58.5313 92.7285L57.4989 93.7093C57.4453 93.7625 57.4052 93.8277 57.3818 93.8996C57.3585 93.9714 57.3526 94.0477 57.3647 94.1223L57.6021 95.5058C57.6219 95.5937 57.6159 95.6854 57.5849 95.77C57.5539 95.8546 57.4993 95.9286 57.4274 95.983C57.3556 96.0374 57.2696 96.07 57.1798 96.0769C57.09 96.0838 57 96.0648 56.9207 96.022L55.6766 95.3664C55.61 95.3307 55.5355 95.312 55.4598 95.312C55.3842 95.312 55.3097 95.3307 55.243 95.3664L53.9989 96.022C53.9196 96.0648 53.8297 96.0838 53.7399 96.0769C53.65 96.07 53.5641 96.0374 53.4922 95.983C53.4204 95.9286 53.3658 95.8546 53.3348 95.77C53.3038 95.6854 53.2978 95.5937 53.3175 95.5058L53.555 94.1223C53.5684 94.0477 53.5632 93.971 53.5398 93.8989C53.5163 93.8269 53.4755 93.7617 53.4208 93.7093L52.4193 92.7285C52.3483 92.6653 52.2981 92.5821 52.2754 92.4898C52.2526 92.3975 52.2584 92.3005 52.292 92.2116C52.3255 92.1227 52.3853 92.046 52.4633 91.9918C52.5413 91.9375 52.634 91.9082 52.729 91.9077L54.1177 91.7064C54.1928 91.6953 54.2641 91.666 54.3253 91.621C54.3865 91.576 54.4357 91.5167 54.4687 91.4483L55.0933 90.1939C55.1362 90.123 55.1971 90.0647 55.2697 90.0249C55.3424 89.9852 55.4243 89.9653 55.5071 89.9674C55.5899 89.9695 55.6707 89.9935 55.7413 90.0369C55.8119 90.0803 55.8697 90.1416 55.9089 90.2145Z" fill="#5EBBFF"/>
<path id="Vector_31" d="M206.047 50.3213C206.125 50.3213 206.182 65.7665 206.182 84.8201C206.182 103.874 206.125 119.324 206.047 119.324C205.97 119.324 205.913 103.879 205.913 84.8201C205.913 65.7614 205.965 50.3213 206.047 50.3213Z" fill="black"/>
<path id="Vector_32" d="M206.8 120.563L207.926 122.844C207.987 122.968 208.077 123.074 208.189 123.155C208.3 123.236 208.43 123.289 208.566 123.309L211.08 123.676C211.237 123.698 211.384 123.764 211.506 123.867C211.627 123.969 211.718 124.103 211.767 124.254C211.817 124.404 211.823 124.566 211.785 124.72C211.748 124.874 211.668 125.015 211.555 125.126L209.732 126.897C209.633 126.993 209.559 127.112 209.517 127.243C209.475 127.375 209.465 127.515 209.49 127.65L209.918 130.159C209.946 130.316 209.929 130.477 209.869 130.624C209.809 130.771 209.71 130.899 209.581 130.992C209.452 131.085 209.3 131.14 209.141 131.151C208.983 131.162 208.825 131.127 208.684 131.052L206.434 129.87C206.312 129.806 206.176 129.773 206.039 129.773C205.901 129.773 205.766 129.806 205.644 129.87L203.393 131.052C203.253 131.127 203.095 131.162 202.936 131.151C202.778 131.14 202.626 131.085 202.497 130.992C202.368 130.899 202.268 130.771 202.209 130.624C202.149 130.477 202.132 130.316 202.159 130.159L202.588 127.65C202.61 127.515 202.6 127.375 202.558 127.244C202.515 127.113 202.443 126.994 202.345 126.897L200.523 125.126C200.41 125.015 200.33 124.875 200.292 124.721C200.254 124.567 200.26 124.406 200.309 124.255C200.358 124.105 200.448 123.971 200.568 123.868C200.689 123.766 200.836 123.699 200.993 123.676L203.512 123.309C203.648 123.288 203.777 123.235 203.888 123.154C203.999 123.073 204.09 122.967 204.152 122.844L205.277 120.563C205.348 120.422 205.457 120.303 205.591 120.22C205.726 120.137 205.881 120.093 206.039 120.093C206.197 120.093 206.352 120.137 206.486 120.22C206.621 120.303 206.729 120.422 206.8 120.563Z" fill="#5EBBFF"/>
<path id="Vector_33" d="M161.181 29.9618C162.394 25.3159 168.263 22.2599 173.054 22.4457C177.844 22.6315 180.88 25.0268 183.378 29.1101V29.2391C183.943 25.1564 186.07 21.4523 189.312 18.9073C192.554 16.3623 196.657 15.1752 200.757 15.5962C204.857 16.0171 208.634 18.0133 211.291 21.164C213.948 24.3147 215.279 28.3739 215.002 32.4861C219.348 31.7428 223.731 35.4441 224.294 39.8164C224.856 44.1888 222.064 48.5922 218.099 50.5486C214.134 52.5051 209.323 52.1541 205.302 50.3163C204.142 52.4461 202.391 54.1948 200.259 55.3513C198.127 56.5078 195.707 57.0226 193.289 56.8338C190.871 56.645 188.56 55.7605 186.633 54.2871C184.707 52.8136 183.249 50.8143 182.433 48.5302C179.135 49.8879 175.33 50.6364 172.037 49.2632C168.743 47.8901 166.462 43.7913 168.057 40.6063C163.282 40.1055 159.973 34.6078 161.181 29.9618Z" fill="#F5F5F5"/>
<path id="Vector_34" d="M161.181 29.9614C161.174 30.0412 161.162 30.1205 161.145 30.1989C161.145 30.3537 161.068 30.586 161.021 30.8958C160.925 31.8122 160.967 32.738 161.145 33.642C161.449 35.0954 162.087 36.4581 163.009 37.6221C163.589 38.3536 164.287 38.9835 165.074 39.4856C165.969 40.0515 166.983 40.4047 168.037 40.5181H168.14L168.093 40.611C167.782 41.2887 167.612 42.0231 167.595 42.7689C167.578 43.5148 167.714 44.2561 167.995 44.9472C168.613 46.5187 169.733 47.8419 171.18 48.7105C172.813 49.6006 174.669 49.997 176.523 49.8513C178.536 49.6933 180.508 49.205 182.362 48.4059L182.465 48.3646L182.501 48.4678C183.3 50.5787 184.641 52.4418 186.389 53.8692C188.137 55.2966 190.231 56.2379 192.459 56.5983C194.909 56.9383 197.404 56.5317 199.619 55.4316C201.955 54.3063 203.889 52.4897 205.158 50.2281L205.215 50.1249L205.323 50.1713C207.192 51.0292 209.202 51.5366 211.254 51.6684C213.38 51.8124 215.51 51.4589 217.475 50.6359C219.486 49.7631 221.203 48.3293 222.42 46.5062C223.696 44.6603 224.311 42.4373 224.165 40.198C223.94 37.9348 222.826 35.8534 221.068 34.4112C220.245 33.6831 219.275 33.1418 218.224 32.8246C217.172 32.5074 216.064 32.4217 214.976 32.5735L214.811 32.6044V32.4341C214.925 30.1716 214.565 27.9103 213.753 25.7953C212.942 23.6804 211.697 21.7585 210.098 20.1533C208.558 18.6263 206.708 17.4485 204.673 16.6998C202.714 15.9834 200.635 15.6487 198.55 15.7138C196.556 15.7703 194.59 16.1993 192.753 16.9785C191.876 17.3661 191.034 17.8308 190.239 18.3671C189.473 18.9019 188.753 19.4993 188.087 20.1533C185.607 22.6177 183.979 25.81 183.441 29.2645H183.25V29.1406V29.1974C182.238 27.4222 180.883 25.8658 179.264 24.6185C177.787 23.5487 176.059 22.8768 174.247 22.6672C172.676 22.4533 171.079 22.5463 169.544 22.9408C168.249 23.259 167.006 23.7614 165.853 24.4327C164.235 25.3367 162.878 26.6437 161.914 28.2269C161.675 28.6421 161.476 29.0795 161.321 29.5329C161.212 29.8427 161.15 29.9975 161.15 29.9975C161.15 29.9975 161.197 29.8375 161.295 29.5278C161.437 29.066 161.629 28.6211 161.868 28.2011C162.816 26.5918 164.171 25.2601 165.796 24.3398C166.955 23.6522 168.204 23.1309 169.508 22.7911C171.061 22.3873 172.676 22.2856 174.267 22.4917C176.108 22.6982 177.865 23.3756 179.368 24.4585C181.016 25.7191 182.392 27.2993 183.415 29.1045V29.1355V29.2645H183.224C183.756 25.7624 185.395 22.5226 187.901 20.019C188.576 19.355 189.305 18.7472 190.079 18.202C190.886 17.6571 191.74 17.1838 192.629 16.7875C194.491 15.993 196.485 15.5536 198.509 15.4918C200.618 15.4277 202.721 15.7658 204.704 16.4881C206.776 17.2436 208.661 18.4394 210.227 19.9932C211.866 21.6276 213.143 23.5888 213.973 25.7492C214.804 27.9096 215.17 30.2208 215.049 32.5322L214.894 32.3928C216.021 32.2342 217.168 32.3214 218.258 32.6485C219.348 32.9755 220.354 33.5346 221.207 34.2873C223.019 35.7779 224.166 37.9255 224.397 40.26C224.548 42.5597 223.917 44.8429 222.606 46.7385C221.36 48.6028 219.601 50.0673 217.542 50.956C215.539 51.7928 213.368 52.1465 211.203 51.9884C209.117 51.8474 207.074 51.3223 205.179 50.4398L205.349 50.3882C204.046 52.6966 202.063 54.5477 199.671 55.6897C197.41 56.8099 194.864 57.2219 192.366 56.8719C190.016 56.4979 187.815 55.4813 186.006 53.9346C184.327 52.498 183.05 50.6498 182.3 48.5711L182.444 48.633C180.567 49.4363 178.57 49.9246 176.534 50.0784C174.642 50.2223 172.749 49.8115 171.088 48.8963C169.61 48.0023 168.47 46.6447 167.846 45.035C167.56 44.3236 167.423 43.561 167.444 42.7946C167.466 42.0282 167.645 41.2744 167.97 40.58L168.026 40.6833C166.951 40.5548 165.918 40.1842 165.006 39.5992C164.21 39.0892 163.505 38.4487 162.921 37.7047C161.996 36.5228 161.361 35.1401 161.068 33.6679C160.896 32.7573 160.868 31.8253 160.985 30.9061C161.104 30.2815 161.181 29.9614 161.181 29.9614Z" fill="#263238"/>
<path id="Vector_35" d="M183.301 49.5776C183.373 49.5776 183.435 56.4846 183.435 65.0022C183.435 73.5198 183.373 80.432 183.301 80.432C183.229 80.432 183.167 73.525 183.167 65.0022C183.167 56.4795 183.229 49.5776 183.301 49.5776Z" fill="black"/>
<path id="Vector_36" d="M183.777 78.8937L184.396 80.1482C184.429 80.2166 184.478 80.2759 184.54 80.3209C184.601 80.3659 184.672 80.3952 184.747 80.4063L186.136 80.6076C186.223 80.6199 186.304 80.6562 186.372 80.7125C186.439 80.7687 186.489 80.8426 186.516 80.9259C186.544 81.0091 186.547 81.0983 186.526 81.1835C186.506 81.2686 186.462 81.3463 186.399 81.4077L185.393 82.3885C185.339 82.4417 185.299 82.507 185.276 82.5788C185.252 82.6506 185.246 82.727 185.258 82.8015L185.496 84.185C185.516 84.2729 185.51 84.3646 185.479 84.4493C185.448 84.5339 185.393 84.6078 185.321 84.6622C185.249 84.7166 185.163 84.7492 185.074 84.7561C184.984 84.7631 184.894 84.744 184.814 84.7012L183.57 84.0508C183.504 84.0151 183.429 83.9964 183.354 83.9964C183.278 83.9964 183.203 84.0151 183.137 84.0508L181.893 84.6806C181.813 84.7233 181.723 84.7424 181.634 84.7355C181.544 84.7286 181.458 84.696 181.386 84.6416C181.314 84.5871 181.259 84.5132 181.229 84.4286C181.198 84.344 181.192 84.2523 181.211 84.1643L181.449 82.7809C181.462 82.7063 181.457 82.6296 181.433 82.5575C181.41 82.4855 181.369 82.4203 181.314 82.3679L180.313 81.3871C180.251 81.326 180.206 81.2487 180.186 81.164C180.165 81.0792 180.168 80.9903 180.195 80.9072C180.221 80.8241 180.271 80.7501 180.337 80.6935C180.404 80.6369 180.485 80.6 180.571 80.5869L181.96 80.3856C182.035 80.3755 182.107 80.3465 182.168 80.3014C182.23 80.2563 182.279 80.1965 182.311 80.1275L182.935 78.8731C182.976 78.7957 183.038 78.7312 183.113 78.6869C183.189 78.6426 183.275 78.6203 183.363 78.6225C183.45 78.6246 183.535 78.6511 183.608 78.6991C183.682 78.747 183.74 78.8144 183.777 78.8937Z" fill="#5EBBFF"/>
</g>
<g id="Character">
<path id="Vector_37" d="M167.565 192.431C166.135 187.424 163.725 176.124 163.405 173.553C162.321 164.87 162.037 153.255 158.325 147.783C154.195 141.712 146.452 141.041 144.33 140.768C142.209 140.494 120.915 141.351 120.915 141.351C120.915 141.351 110.208 153.482 107.493 160.57C104.778 167.658 103.993 199.957 103.993 199.957L105.206 209.765L155.76 223.9C155.76 223.9 165.144 220.038 167.571 210.772C169.997 201.506 168.794 196.752 167.565 192.431Z" fill="#41CC97"/>
<path id="Vector_38" d="M103.837 191.109C95.4641 186.247 78.9038 191.068 74.1649 195.487C72.3375 193.339 70.443 191.146 67.9703 189.809C65.4976 188.472 62.2403 188.172 59.9431 189.809C57.8783 191.295 57.0265 193.938 56.5671 196.468C55.7717 200.791 55.7002 205.217 56.3554 209.564C56.9646 213.611 58.7042 218.113 62.581 219.429C64.7904 220.178 67.227 219.698 69.4106 218.877C71.5942 218.056 73.6436 216.905 75.8788 216.254C82.4709 214.329 101.406 222.449 109.877 218.835L103.837 191.109Z" fill="#41CC97"/>
<path id="Vector_39" d="M66.0563 218.097C66.4224 217.889 66.7421 217.608 66.9958 217.271C67.6117 216.297 67.9901 215.192 68.1005 214.045C68.5341 211.154 68.3586 207.081 67.956 202.631C67.8527 201.516 67.7392 200.427 67.6256 199.379C67.512 198.331 67.4191 197.314 67.2384 196.37C66.9579 194.682 66.2266 193.102 65.1219 191.796C64.3495 190.941 63.3173 190.365 62.1847 190.154C61.7644 190.107 61.3402 190.107 60.9199 190.154C61.0249 190.116 61.1341 190.09 61.2451 190.077C61.5604 190.036 61.8797 190.036 62.195 190.077C63.3709 190.247 64.4521 190.818 65.2562 191.693C66.4071 193.008 67.1718 194.616 67.4656 196.339C67.6566 197.299 67.7443 198.316 67.8734 199.364C68.0024 200.412 68.1057 201.506 68.2089 202.621C68.6116 207.081 68.7613 211.17 68.2709 214.091C68.1399 215.261 67.7252 216.381 67.0629 217.354C66.8633 217.605 66.6203 217.818 66.3454 217.984C66.2525 218.03 66.1558 218.068 66.0563 218.097Z" fill="black"/>
<g id="Group_2" opacity="0.3">
<path id="Vector_40" d="M84.0136 205.786C84.9222 202.358 85.3197 198.719 84.4989 195.265C84.3259 194.33 83.9173 193.454 83.3116 192.72C83.0016 192.356 82.5941 192.087 82.1369 191.947C81.6797 191.806 81.1918 191.798 80.7305 191.925C80.5286 191.991 80.3496 192.113 80.2143 192.276C80.1047 192.484 80.044 192.715 80.0368 192.95C80.0297 193.185 80.0763 193.419 80.173 193.634L83.7504 206.405C83.931 206.044 84.1117 205.682 84.2666 205.321" fill="black"/>
</g>
<path id="Vector_41" d="M161.716 77.696C161.853 76.0692 162.265 74.4774 162.934 72.9881C163.192 72.41 163.77 71.744 164.333 72.0383C164.7 72.2293 164.772 72.7197 164.772 73.1378C164.76 74.4025 164.458 75.6476 163.889 76.7772C165.139 75.9724 166.648 75.6717 168.112 75.9357C168.576 76.0235 169.098 76.2351 169.211 76.6894C169.366 77.2831 168.731 77.7631 168.179 78.0574C166.561 78.9315 164.942 79.8005 163.321 80.6643" fill="#FFBF9D"/>
<g id="Group_3" opacity="0.2">
<path id="Vector_42" d="M169.211 76.6899C169.098 76.2356 168.576 76.024 168.112 75.9362C166.648 75.6722 165.139 75.9729 163.889 76.7777C164.458 75.6481 164.76 74.403 164.772 73.1383C164.772 72.7202 164.7 72.2298 164.333 72.0388C163.77 71.7445 163.192 72.4104 162.934 72.9886C162.265 74.4779 161.853 76.0697 161.716 77.6965L163.332 80.6648C164.953 79.7975 166.572 78.9286 168.189 78.0579C168.731 77.7636 169.366 77.2835 169.211 76.6899Z" fill="black"/>
</g>
<path id="Vector_43" d="M166.366 80.587C158.179 70.9182 143.973 67.1653 137.794 67.9138C137.427 67.9603 114.827 66.3084 109.324 97.5861C109.324 97.5861 105.99 110.677 105.819 112.195C105.819 112.329 105.757 112.541 105.695 112.82C103.357 123.015 107.998 136.488 119.989 140.768L129.798 143.158C136.834 144.583 148.557 143.158 154.375 138.78C161.431 133.458 170.109 115.168 171.451 108.891C172.685 103.218 174.559 90.2558 166.366 80.587Z" fill="#FFBF9D"/>
<path id="Vector_44" d="M164.813 117.719C165.133 117.677 177.569 116.387 173.997 127.666C170.425 138.945 160.157 132.111 160.24 131.796C160.322 131.481 164.813 117.719 164.813 117.719Z" fill="#FFBF9D"/>
<path id="Vector_45" d="M165.307 128.255C165.353 128.255 165.426 128.404 165.637 128.601C165.942 128.862 166.336 128.996 166.737 128.972C167.743 128.931 168.951 127.744 169.478 126.221C169.727 125.498 169.816 124.73 169.736 123.97C169.738 123.679 169.671 123.392 169.54 123.133C169.409 122.873 169.218 122.649 168.982 122.478C168.826 122.379 168.64 122.338 168.456 122.361C168.272 122.385 168.102 122.472 167.976 122.607C167.79 122.809 167.79 123 167.738 123C167.687 123 167.599 122.798 167.78 122.483C167.897 122.285 168.079 122.134 168.296 122.055C168.587 121.955 168.905 121.971 169.184 122.101C169.51 122.282 169.785 122.542 169.983 122.858C170.181 123.174 170.295 123.536 170.314 123.908C170.443 124.76 170.361 125.63 170.077 126.443C169.478 128.136 168.094 129.463 166.752 129.426C166.503 129.422 166.258 129.361 166.035 129.248C165.813 129.136 165.618 128.974 165.467 128.776C165.266 128.466 165.266 128.26 165.307 128.255Z" fill="#FF9A6C"/>
<path id="Vector_46" d="M114.354 104.452C114.524 104.885 116.873 104.271 119.444 105.314C122.014 106.357 123.377 108.411 123.785 108.194C123.976 108.112 123.904 107.425 123.32 106.496C122.519 105.278 121.359 104.338 120.001 103.807C118.666 103.263 117.192 103.16 115.794 103.512C114.761 103.781 114.266 104.256 114.354 104.452Z" fill="#263238"/>
<path id="Vector_47" d="M140.658 107.967C140.896 108.365 143.121 107.384 145.821 108.003C148.52 108.623 150.198 110.419 150.565 110.156C150.745 110.043 150.565 109.377 149.837 108.556C148.851 107.479 147.556 106.734 146.13 106.424C144.726 106.102 143.256 106.236 141.933 106.806C140.958 107.255 140.54 107.787 140.658 107.967Z" fill="#263238"/>
<path id="Vector_48" d="M145.852 98.2988C146.079 99.0318 148.196 99.0215 150.544 99.6512C152.893 100.281 154.767 101.246 155.314 100.715C155.562 100.451 155.376 99.7751 154.674 99.006C153.719 98.0491 152.523 97.3675 151.213 97.0332C149.903 96.6989 148.527 96.7241 147.23 97.1063C146.244 97.447 145.759 97.9529 145.852 98.2988Z" fill="#263238"/>
<path id="Vector_49" d="M118.752 91.474C118.979 92.2019 121.096 92.1916 123.45 92.8265C125.804 93.4615 127.667 94.4165 128.215 93.8848C128.468 93.6215 128.277 92.9452 127.58 92.1761C126.623 91.2197 125.427 90.5386 124.116 90.2043C122.805 89.87 121.428 89.8949 120.131 90.2764C119.15 90.6223 118.659 91.123 118.752 91.474Z" fill="#263238"/>
<path id="Vector_50" d="M129.741 117.641C129.741 117.775 129.194 117.92 128.357 117.641C127.859 117.452 127.422 117.131 127.093 116.712C126.674 116.173 126.458 115.505 126.483 114.823C126.496 114.471 126.584 114.126 126.741 113.811C126.898 113.496 127.119 113.218 127.392 112.995C127.832 112.63 128.395 112.445 128.966 112.479C129.288 112.532 129.601 112.629 129.896 112.768C130.076 112.84 130.2 112.871 130.221 112.944C130.242 113.016 130.133 113.135 129.875 113.186C129.617 113.238 129.261 113.186 128.972 113.243C128.587 113.312 128.238 113.509 127.981 113.803C127.724 114.097 127.575 114.469 127.557 114.859C127.544 115.306 127.662 115.748 127.898 116.129C128.112 116.455 128.387 116.737 128.708 116.96C129.281 117.342 129.756 117.486 129.741 117.641Z" fill="#263238"/>
<path id="Vector_51" d="M137.587 120.001C137.782 120.084 137.957 120.206 138.103 120.359C138.249 120.513 138.361 120.695 138.434 120.894C138.612 121.444 138.612 122.037 138.434 122.587C138.213 123.367 137.797 124.077 137.226 124.652C136.517 125.372 135.637 125.901 134.669 126.19C133.7 126.479 132.674 126.518 131.687 126.304C130.9 126.146 130.166 125.791 129.555 125.271C129.109 124.902 128.791 124.402 128.646 123.841C128.598 123.636 128.593 123.423 128.63 123.215C128.667 123.007 128.746 122.809 128.863 122.633C129.333 121.957 130.154 121.637 130.892 121.312C131.63 120.987 132.342 120.728 132.957 120.543C133.571 120.357 134.33 120.202 135.125 120.026C135.92 119.851 136.823 119.691 137.587 120.001Z" fill="#FF9A6C"/>
<g id="Group_4" opacity="0.6">
<path id="Vector_52" d="M141.471 117.099C141.088 117.126 140.726 117.282 140.445 117.542C140.163 117.802 139.979 118.15 139.922 118.529C139.882 118.91 139.93 119.294 140.063 119.652C140.197 120.011 140.412 120.333 140.691 120.594C141.353 121.182 142.161 121.581 143.03 121.751C143.942 121.978 144.886 122.049 145.822 121.962C146.648 121.885 147.49 121.642 147.836 120.646C147.997 120.138 147.974 119.589 147.769 119.097C147.252 117.832 146.075 117.549 144.873 117.265C143.84 117.032 142.441 116.785 141.486 117.099" fill="#FF725E"/>
</g>
<g id="Group_5" opacity="0.6">
<path id="Vector_53" d="M117.321 113.248C117.684 113.379 118.08 113.382 118.444 113.256C118.809 113.13 119.119 112.883 119.324 112.557C119.515 112.221 119.625 111.846 119.644 111.46C119.663 111.074 119.59 110.689 119.432 110.337C119.059 109.536 118.475 108.851 117.744 108.355C116.993 107.788 116.152 107.35 115.256 107.059C114.466 106.811 113.599 106.703 112.887 107.482C112.533 107.889 112.335 108.409 112.329 108.948C112.329 110.316 113.269 111.054 114.275 111.772C115.142 112.397 116.34 113.171 117.326 113.259" fill="#FF725E"/>
</g>
<path id="Vector_54" d="M153.88 82.8273C153.919 83.0146 153.919 83.2079 153.88 83.3952C153.803 83.9363 153.657 84.4655 153.446 84.9696C153.11 85.7725 152.641 86.5126 152.057 87.1584C151.278 88.0245 150.305 88.6948 149.218 89.1149C147.883 89.6158 146.433 89.7268 145.037 89.4349C143.418 89.1165 141.945 88.2857 140.835 87.0655C140.231 86.3965 139.777 85.6063 139.503 84.7477C139.203 83.8268 139.203 82.8345 139.503 81.9136C139.808 80.9326 140.489 80.1122 141.397 79.6319C141.884 79.3961 142.42 79.2832 142.96 79.303C143.5 79.3228 144.027 79.4747 144.495 79.7455C144.979 80.019 145.371 80.4305 145.62 80.9276C145.849 81.4205 145.939 81.967 145.878 82.5073C145.819 83.0142 145.658 83.5039 145.405 83.9474C145.152 84.3908 144.813 84.7788 144.407 85.0884C142.922 86.1796 141.07 86.6482 139.245 86.3944C137.615 86.1981 136.082 85.5144 134.847 84.4328C134.291 83.9414 133.811 83.3709 133.422 82.7396C133.08 82.1506 132.818 81.5187 132.642 80.8605C132.49 80.2662 132.406 79.6567 132.389 79.0434C132.382 78.4979 132.431 77.9531 132.534 77.4174C132.689 76.5622 132.989 75.7399 133.422 74.986C133.577 74.7121 133.749 74.4483 133.938 74.1962C134.114 73.9948 134.258 73.8142 134.392 73.6799C134.671 73.427 134.821 73.3031 134.841 73.3238C134.416 73.8969 134.032 74.4989 133.69 75.1254C133.325 75.868 133.081 76.6645 132.968 77.4845C132.893 77.9971 132.867 78.5156 132.89 79.0331C132.929 79.6042 133.025 80.1698 133.179 80.7212C133.358 81.3201 133.615 81.8928 133.943 82.4247C134.311 82.9914 134.759 83.501 135.275 83.9372C136.421 84.9045 137.831 85.5068 139.322 85.6665C140.118 85.7547 140.923 85.7058 141.702 85.522C142.507 85.345 143.263 84.9925 143.917 84.4896C144.24 84.241 144.51 83.9302 144.711 83.5756C144.912 83.2209 145.041 82.8296 145.088 82.4247C145.14 82.0331 145.073 81.6349 144.897 81.2816C144.72 80.9283 144.442 80.636 144.097 80.4424C143.746 80.2402 143.352 80.1261 142.947 80.11C142.543 80.0938 142.14 80.176 141.774 80.3495C141.052 80.7324 140.51 81.3856 140.267 82.1666C140.017 82.933 140.017 83.7592 140.267 84.5257C140.505 85.2868 140.899 85.99 141.423 86.5906C142.364 87.6286 143.585 88.3711 144.94 88.7276C146.294 89.0841 147.723 89.0393 149.053 88.5986C150.075 88.2315 151.001 87.6386 151.763 86.8641C152.34 86.272 152.822 85.5947 153.193 84.8561C153.458 84.1925 153.687 83.5153 153.88 82.8273Z" fill="#263238"/>
<path id="Vector_55" d="M119.99 140.768L119.112 143.462C121.693 147.184 146.554 142.306 146.554 142.306C147.747 140.804 119.99 140.768 119.99 140.768Z" fill="#FFBF9D"/>
<path id="Vector_56" d="M119.989 140.768C119.989 140.768 126.819 142.714 133.308 141.64C130.323 143.13 126.948 143.648 123.654 143.122C122.286 142.865 120.97 142.385 119.757 141.702L119.989 140.768Z" fill="#FF9A6C"/>
<path id="Vector_57" d="M159.341 114.828L160.1 115.246L159.341 115.659L158.923 116.418L158.51 115.659L157.746 115.246L158.51 114.828L158.923 114.069L159.341 114.828Z" fill="white"/>
<path id="Vector_58" d="M156.244 118.204L157.746 119.025L156.244 119.845L155.423 121.353L154.597 119.845L153.095 119.025L154.597 118.204L155.423 116.697L156.244 118.204Z" fill="white"/>
<path id="Vector_59" d="M131.249 126.226C131.539 126.24 131.828 126.282 132.111 126.35C132.876 126.451 133.654 126.405 134.403 126.215C134.91 126.086 135.393 125.875 135.833 125.591C136.328 125.245 136.777 124.837 137.17 124.378C137.593 123.872 137.904 123.283 138.083 122.648C138.265 121.98 138.25 121.274 138.042 120.614C137.948 120.305 137.754 120.037 137.49 119.85C137.227 119.685 136.913 119.621 136.607 119.67C135.95 119.801 135.309 120.005 134.697 120.279L131.409 121.523C129.53 122.215 128.348 122.607 128.311 122.555C128.275 122.504 129.406 121.967 131.254 121.182L134.511 119.835C135.157 119.528 135.838 119.302 136.54 119.164C136.968 119.098 137.406 119.187 137.774 119.417C138.135 119.668 138.403 120.031 138.538 120.449C138.783 121.215 138.797 122.035 138.579 122.808C138.379 123.511 138.026 124.162 137.547 124.713C137.12 125.207 136.625 125.637 136.075 125.988C135.584 126.279 135.049 126.488 134.491 126.608C133.691 126.776 132.864 126.764 132.069 126.572C131.772 126.522 131.491 126.404 131.249 126.226Z" fill="#263238"/>
<path id="Vector_60" d="M141.583 111.916C141.369 112.552 141.411 113.246 141.7 113.851C141.989 114.456 142.503 114.925 143.131 115.158C143.435 115.284 143.761 115.348 144.089 115.347C144.418 115.346 144.743 115.278 145.046 115.15C145.348 115.021 145.622 114.833 145.851 114.597C146.08 114.36 146.259 114.081 146.378 113.774C146.592 113.139 146.55 112.445 146.261 111.84C145.972 111.235 145.458 110.766 144.83 110.533C144.526 110.406 144.2 110.341 143.871 110.342C143.542 110.343 143.217 110.41 142.914 110.539C142.611 110.668 142.338 110.856 142.109 111.093C141.88 111.329 141.701 111.609 141.583 111.916Z" fill="#263238"/>
<path id="Vector_61" d="M145.465 111.916C145.394 111.957 145.337 112.018 145.3 112.092C145.263 112.165 145.249 112.248 145.259 112.329C145.267 112.379 145.285 112.426 145.312 112.469C145.339 112.511 145.374 112.548 145.416 112.577C145.457 112.605 145.504 112.625 145.553 112.635C145.603 112.644 145.654 112.644 145.703 112.634C145.8 112.603 145.881 112.535 145.929 112.446C145.977 112.356 145.989 112.251 145.961 112.154C145.923 112.055 145.847 111.974 145.751 111.93C145.655 111.886 145.545 111.881 145.445 111.916" fill="white"/>
<path id="Vector_62" d="M95.5365 102.8C92.8924 97.5243 91.3544 91.7638 91.0171 85.8721C90.6798 79.9804 91.5502 74.0819 93.5749 68.5388C94.3544 66.4378 95.614 64.1406 97.8182 63.7379C100.275 63.2888 102.407 65.4621 103.677 67.6147C106.522 72.4207 107.668 78.1094 107.554 83.6898C107.441 89.2701 106.124 94.7678 104.307 100.044C103.651 101.938 102.82 103.956 101.091 104.973" fill="#F5F5F5"/>
<g id="Group_6" opacity="0.3">
<path id="Vector_63" d="M101.417 71.4089C101.113 70.5468 100.653 69.5815 99.76 69.3905C98.5727 69.1427 97.6951 70.4229 97.1789 71.5328C95.0911 76.4066 94.0855 81.6753 94.2317 86.9755C94.3779 92.2756 95.6722 97.481 98.0255 102.232L99.6206 102.692C104.337 92.9131 104.983 81.6631 101.417 71.4089Z" fill="black"/>
</g>
<path id="Vector_64" d="M90.6419 103.022C89.4701 101.16 88.0745 99.4491 86.4864 97.9268C84.8345 96.4763 82.7386 95.4128 80.5447 95.4232C77.3648 95.4232 74.634 97.6532 72.4865 99.9969C64.6762 108.509 60.8716 120.227 60.7116 131.775C60.6497 136.463 61.1969 141.315 63.5198 145.388C63.9789 146.36 64.7466 147.153 65.7034 147.644C66.8546 148.124 68.1813 147.794 69.317 147.262C72.1562 145.92 74.2933 143.39 75.7387 140.603C77.1841 137.815 77.9946 134.754 78.7999 131.718L85.6501 105.846" fill="#EBEBEB"/>
<g id="Group_7" opacity="0.3">
<path id="Vector_65" d="M82.1567 106.305L77.9186 104.405C75.3671 106.176 73.2767 108.532 71.822 111.276C70.5494 113.926 69.533 116.692 68.7867 119.535C67.3877 124.331 66.1127 129.183 65.5397 134.15C65.3839 135.176 65.3839 136.22 65.5397 137.247C65.6212 137.76 65.8032 138.252 66.0751 138.695C66.3471 139.138 66.7036 139.523 67.1245 139.828C68.4305 140.69 70.2476 140.385 71.533 139.492C72.8183 138.599 73.6753 137.221 74.4496 135.879C79.5137 126.902 82.5078 116.614 82.1567 106.305Z" fill="black"/>
</g>
<path id="Vector_66" d="M91.1123 102.965C90.3586 103.12 79.9052 106.006 75.1664 114.41C71.4341 121.033 72.7556 128.864 75.1044 132.276C77.4532 135.688 85.8056 144.619 92.3719 144.247C92.3719 144.247 105.933 143.834 110.409 138.987C114.884 134.139 121.017 122.024 116.056 111.72C111.095 101.416 100.838 100.983 91.1123 102.965Z" fill="#EBEBEB"/>
<path id="Vector_67" d="M82.4048 202.27C81.4475 196.55 81.019 190.754 81.1246 184.956L72.3489 178.813C70.6857 179.576 69.3792 180.949 68.6992 182.648C68.0361 184.336 67.639 186.115 67.5222 187.924C66.7531 195.249 67.2383 202.667 68.3637 209.941C68.6734 211.928 69.1225 214.071 70.6557 215.377C72.4418 216.894 75.1416 216.729 77.32 215.893C79.319 215.178 81.0035 213.784 82.0796 211.954C83.6334 209.032 82.9571 205.512 82.4048 202.27Z" fill="#EBEBEB"/>
<path id="Vector_68" d="M106.056 185.39C105.873 184.954 105.587 184.569 105.223 184.267C104.859 183.965 104.428 183.756 103.966 183.655L92.6089 193.159C90.1805 195.372 88.2956 198.115 87.1008 201.176C85.9165 204.228 85.0027 207.379 84.37 210.592C83.7506 213.384 83.1879 216.389 84.2565 219.042C84.7988 220.328 85.6831 221.441 86.8134 222.26C87.9437 223.079 89.2768 223.573 90.6679 223.688C92.0604 223.761 93.4474 223.465 94.689 222.83C95.9307 222.196 96.9831 221.245 97.7401 220.074C99.1752 217.803 99.3662 215 99.7224 212.331C100.249 208.433 101.224 204.608 102.629 200.933C104.224 196.747 106.402 192.627 106.516 188.152C106.575 187.208 106.418 186.263 106.056 185.39Z" fill="#EBEBEB"/>
<path id="Vector_69" d="M111.952 162.593C111.637 155.681 108.751 146.818 106.826 140.277L91.1896 140.396C85.3666 146.735 86.9308 142.461 82.7959 150.173C82.7959 150.173 82.2332 150.442 80.7929 151.995C76.1831 156.987 71.7075 167.936 71.9604 174.312C72.1824 179.902 74.237 185.281 78.0157 188.936C81.8718 192.663 87.1424 194.759 92.3665 194.155C98.7212 193.417 104.467 188.73 107.801 182.71C111.136 176.691 112.267 169.506 111.952 162.593Z" fill="#EBEBEB"/>
<path id="Vector_70" d="M73.731 164.338C71.9888 164.216 70.2999 163.686 68.8011 162.789C68.4707 162.593 68.0577 162.376 67.7273 162.578C67.5599 162.709 67.4373 162.89 67.3763 163.094C66.9048 164.278 66.4695 165.472 66.0703 166.676C65.8392 167.161 65.8059 167.716 65.9774 168.225C66.2458 168.639 66.6576 168.938 67.1337 169.067C69.1986 169.862 70.0142 170.321 72.2133 170.429L73.731 164.338Z" fill="#FF725E"/>
<path id="Vector_71" d="M77.7271 156.202C77.6988 156.28 77.6625 156.354 77.6187 156.424L77.278 157.034C77.1231 157.292 76.9425 157.617 76.736 157.999C76.5295 158.381 76.292 158.804 76.0494 159.289C74.746 161.793 73.7229 164.433 72.9986 167.162C72.2735 169.89 71.9894 172.717 72.1571 175.535C72.2137 176.388 72.3188 177.238 72.472 178.08C72.5185 178.353 72.5598 178.596 72.5908 178.766C72.6056 178.848 72.6056 178.932 72.5908 179.014C72.5595 178.939 72.5353 178.861 72.5185 178.782L72.3481 178.116C72.1546 177.276 72.02 176.424 71.9455 175.566C71.7207 172.726 71.9808 169.868 72.7146 167.115C73.4429 164.367 74.5002 161.717 75.8636 159.222C76.1165 158.742 76.3798 158.314 76.5863 157.942C76.7928 157.57 76.9993 157.25 77.1644 156.997L77.5516 156.414C77.6652 156.264 77.7168 156.197 77.7271 156.202Z" fill="black"/>
<path id="Vector_72" d="M69.8082 166.429C69.3811 166.285 68.9188 166.285 68.4918 166.429C68.2234 166.517 67.9291 166.749 67.9756 167.028C67.9965 167.105 68.0383 167.176 68.0966 167.232C68.1549 167.287 68.2273 167.326 68.306 167.343C68.4642 167.376 68.6278 167.376 68.786 167.343C69.7096 167.248 70.6171 167.035 71.4859 166.708C71.5324 166.698 71.5733 166.67 71.5994 166.63C71.6356 166.563 71.5994 166.481 71.5272 166.424C71.0676 165.802 70.4332 165.331 69.7049 165.071C69.5821 165.024 69.4478 165.015 69.3197 165.045C69.1915 165.075 69.0757 165.144 68.9874 165.242C68.933 165.37 68.9238 165.513 68.9614 165.647C68.9989 165.781 69.0808 165.898 69.1939 165.98C69.426 166.136 69.6468 166.309 69.8546 166.496" fill="#F5F5F5"/>
<path id="Vector_73" d="M88.573 138.842C87.1121 137.644 85.166 137.216 83.2818 137.087C77.2007 136.658 71.2901 138.935 65.2658 139.895C62.948 140.267 60.4805 140.489 58.5911 141.888C57.7561 142.512 57.0962 143.342 56.6748 144.296C56.2535 145.249 56.085 146.296 56.1855 147.334C56.3137 148.369 56.7322 149.347 57.3927 150.154C58.0531 150.962 58.9285 151.566 59.9178 151.897C61.9826 152.532 64.1869 151.84 66.226 151.154L86.8385 144.2L90.0907 143.896C90.8599 142.172 90.0339 140.045 88.573 138.842Z" fill="#EBEBEB"/>
<path id="Vector_74" d="M88.5741 138.843C88.981 139.13 89.3311 139.491 89.6065 139.906C89.9466 140.398 90.1965 140.947 90.3447 141.527C90.5487 142.323 90.4889 143.163 90.1743 143.922V143.963H90.1382L86.886 144.283L73.9806 148.671L65.9431 151.397C64.5092 151.946 62.9921 152.246 61.4571 152.285C60.6555 152.269 59.8667 152.081 59.1445 151.733C58.4179 151.365 57.7788 150.846 57.2706 150.21C56.3784 149.101 55.9394 147.695 56.042 146.276C56.1594 144.906 56.7214 143.612 57.6423 142.59C58.5512 141.634 59.7044 140.945 60.977 140.598C62.1728 140.27 63.3909 140.03 64.6215 139.88C67.0013 139.534 69.2314 139.003 71.3324 138.528C73.4334 138.053 75.3744 137.614 77.1811 137.34C80.7947 136.773 83.8042 136.881 85.7865 137.423C86.5488 137.621 87.2765 137.934 87.9443 138.352C88.178 138.502 88.396 138.675 88.5947 138.868L88.4244 138.755C88.2582 138.634 88.0859 138.522 87.9081 138.419C87.2371 138.025 86.5119 137.731 85.7555 137.547C83.7887 137.031 80.7895 136.958 77.2018 137.547C75.4053 137.831 73.4592 138.27 71.3737 138.765C69.2882 139.261 67.0581 139.798 64.6628 140.143C63.4425 140.297 62.2349 140.539 61.0493 140.866C59.8221 141.201 58.71 141.865 57.8333 142.786C56.9439 143.762 56.3997 145.002 56.2846 146.317C56.2206 147.038 56.306 147.764 56.5354 148.45C56.7648 149.135 57.1334 149.767 57.6179 150.303C58.1025 150.84 58.6927 151.271 59.3515 151.57C60.0103 151.868 60.7237 152.027 61.4468 152.037C62.9518 152.003 64.4397 151.71 65.845 151.17L73.898 148.439L86.8034 144.118L90.0608 143.829L90.004 143.871C90.3147 143.137 90.3817 142.322 90.195 141.548C90.0581 140.978 89.8241 140.437 89.5033 139.947C89.3007 139.646 89.0709 139.365 88.8167 139.106L88.6154 138.915L88.5741 138.843Z" fill="#263238"/>
<path id="Vector_75" d="M62.2447 151.273C62.2034 151.242 62.5596 150.798 62.8539 149.951C63.2529 148.856 63.2729 147.658 62.9107 146.55C62.5485 145.442 61.8251 144.487 60.8561 143.839C60.4432 143.584 60.0176 143.349 59.5811 143.137C59.716 143.139 59.8493 143.167 59.9734 143.22C60.32 143.331 60.6512 143.485 60.9594 143.679C61.9974 144.321 62.7744 145.31 63.1524 146.471C63.5304 147.631 63.485 148.888 63.0242 150.018C62.8923 150.357 62.7189 150.677 62.508 150.973C62.3583 151.2 62.2602 151.304 62.2447 151.273Z" fill="black"/>
<path id="Vector_76" d="M88.3926 114.75C88.478 114.99 88.4904 115.249 88.4283 115.496C88.3662 115.742 88.2324 115.965 88.0438 116.135C87.8551 116.306 87.6202 116.417 87.3686 116.454C87.1171 116.491 86.8602 116.452 86.6305 116.343C86.4008 116.234 86.2087 116.059 86.0783 115.841C85.9479 115.623 85.8852 115.371 85.8981 115.117C85.911 114.863 85.999 114.618 86.1508 114.414C86.3026 114.21 86.5115 114.056 86.7511 113.971C86.91 113.914 87.0787 113.888 87.2474 113.897C87.4161 113.905 87.5815 113.946 87.7341 114.019C87.8867 114.091 88.0235 114.193 88.1365 114.319C88.2495 114.444 88.3366 114.591 88.3926 114.75Z" fill="#263238"/>
<path id="Vector_77" d="M94.8657 112.463C94.9515 112.703 94.9642 112.963 94.9022 113.21C94.8402 113.457 94.7063 113.68 94.5175 113.85C94.3286 114.021 94.0934 114.132 93.8415 114.169C93.5897 114.205 93.3325 114.167 93.1027 114.057C92.8729 113.948 92.6808 113.772 92.5507 113.554C92.4206 113.335 92.3584 113.082 92.3719 112.828C92.3855 112.574 92.4742 112.33 92.6268 112.126C92.7795 111.922 92.9891 111.768 93.2293 111.684C93.3879 111.628 93.5561 111.603 93.7242 111.612C93.8924 111.62 94.0572 111.662 94.2092 111.734C94.3612 111.807 94.4974 111.908 94.6101 112.034C94.7227 112.159 94.8096 112.305 94.8657 112.463Z" fill="#263238"/>
<path id="Vector_78" d="M97.8581 132.219C97.7613 132.087 97.6815 131.943 97.6207 131.791C97.4813 131.507 97.2955 131.094 97.0683 130.578C96.6192 129.545 96.0359 128.11 95.4422 126.499C94.8486 124.889 94.3737 123.402 94.0536 122.334C93.8936 121.792 93.7748 121.353 93.6974 121.048C93.6412 120.894 93.6098 120.732 93.6045 120.568C93.8503 121.122 94.0607 121.691 94.2343 122.272C94.6008 123.335 95.1067 124.801 95.6952 126.401C96.2837 128.002 96.8412 129.457 97.2438 130.5C97.4873 131.059 97.6925 131.633 97.8581 132.219Z" fill="black"/>
<path id="Vector_79" d="M104.735 102.583H104.586L104.157 102.526C103.78 102.47 103.218 102.408 102.495 102.33C100.456 102.132 98.4041 102.113 96.3622 102.273C93.3357 102.516 90.3587 103.186 87.5194 104.261C84.0298 105.55 80.8839 107.626 78.3255 110.326C77.0123 111.727 75.8972 113.3 75.0114 115.003C74.1992 116.595 73.6219 118.295 73.2976 120.052C72.748 123.04 72.8999 126.115 73.7415 129.034C74.0793 130.147 74.5326 131.221 75.094 132.24C75.347 132.684 75.6102 133.087 75.8528 133.453C76.0955 133.82 76.3691 134.129 76.5962 134.398L77.2466 135.105C77.4428 135.306 77.6286 135.456 77.7629 135.585L78.0829 135.879C78.1552 135.946 78.1913 135.983 78.1861 135.988L78.0674 135.9L77.7319 135.626C77.5822 135.502 77.3912 135.358 77.1899 135.167L76.5136 134.47C76.271 134.202 76.0335 133.871 75.7496 133.525C75.4657 133.179 75.2334 132.761 74.9598 132.317C74.3816 131.293 73.9111 130.212 73.5557 129.091C72.6746 126.147 72.4978 123.036 73.0395 120.011C73.3619 118.228 73.9409 116.501 74.7585 114.885C75.6548 113.157 76.7838 111.561 78.1139 110.141C80.6961 107.411 83.877 105.319 87.4058 104.029C90.2709 102.957 93.2749 102.302 96.326 102.082C98.3772 101.94 100.437 101.989 102.479 102.227C103.202 102.32 103.765 102.403 104.136 102.475L104.565 102.557C104.623 102.554 104.681 102.563 104.735 102.583Z" fill="black"/>
<path id="Vector_80" d="M89.6768 118.374C89.4445 118.545 89.1915 118.787 89.2483 119.071C89.3051 119.355 89.5271 119.438 89.7336 119.536C90.6741 120.001 91.6535 120.382 92.6605 120.677C92.9887 120.809 93.3505 120.832 93.693 120.744C93.9345 120.637 94.1457 120.472 94.3072 120.264C95.1204 119.336 95.7431 118.257 96.1398 117.089C96.1707 116.994 96.1769 116.892 96.1576 116.794C96.1383 116.696 96.0943 116.604 96.0297 116.527C95.9651 116.451 95.882 116.392 95.7884 116.357C95.6948 116.321 95.5936 116.31 95.4946 116.325C93.5381 116.655 91.0964 117.331 89.6768 118.374Z" fill="#FF725E"/>
<path id="Vector_81" d="M97.6842 192.369C97.5707 192.434 97.4535 192.493 97.3332 192.545C97.1009 192.653 96.7602 192.813 96.3008 192.983C95.0124 193.478 93.6746 193.833 92.3104 194.042C90.2809 194.357 88.2114 194.31 86.1984 193.902C85.0105 193.652 83.8589 193.253 82.7707 192.715C81.6072 192.13 80.5085 191.424 79.4927 190.609C77.5062 189.048 75.8808 187.075 74.728 184.827C73.7829 183.019 73.0336 181.116 72.4928 179.149C72.1375 177.815 71.94 176.445 71.9043 175.065C71.9043 174.575 71.9043 174.198 71.9043 173.94C71.9043 173.81 71.9164 173.681 71.9404 173.553C71.9714 173.553 71.9404 174.069 71.9921 175.06C72.0714 176.427 72.2946 177.782 72.658 179.102C73.222 181.05 73.9831 182.936 74.9293 184.729C76.0761 186.937 77.6833 188.874 79.6424 190.407C81.5532 191.994 83.8091 193.112 86.2293 193.67C88.2144 194.085 90.2567 194.15 92.2639 193.861C93.6196 193.673 94.9529 193.35 96.244 192.896C97.1835 192.57 97.6687 192.338 97.6842 192.369Z" fill="black"/>
<path id="Vector_82" d="M85.6558 178.633C85.6971 178.633 85.4854 179.484 85.2635 180.857C84.6792 184.44 84.7896 188.101 85.5887 191.641C85.8932 192.999 86.1617 193.82 86.1049 193.835C86.0084 193.656 85.9306 193.468 85.8726 193.273C85.7384 192.906 85.568 192.364 85.3925 191.688C84.9406 189.916 84.6844 188.1 84.6285 186.273C84.5708 184.445 84.7163 182.617 85.0621 180.821C85.2015 180.135 85.3306 179.582 85.4441 179.211C85.4911 179.01 85.5621 178.816 85.6558 178.633Z" fill="black"/>
<path id="Vector_83" d="M76.4307 103.481C77.508 103.856 78.5541 104.315 79.5589 104.855C80.6049 105.311 81.613 105.849 82.5737 106.465C81.4948 106.09 80.4471 105.631 79.4402 105.092C78.3956 104.637 77.3892 104.098 76.4307 103.481Z" fill="black"/>
<path id="Vector_84" d="M107.502 139.302C107.502 139.302 107.404 139.421 107.198 139.591C106.903 139.835 106.593 140.06 106.268 140.262C104.125 141.629 101.641 142.367 99.0982 142.394C98.7154 142.399 98.3326 142.38 97.9522 142.337C97.6837 142.306 97.534 142.28 97.5392 142.26C97.5444 142.239 98.138 142.26 99.0878 142.203C100.33 142.133 101.559 141.922 102.753 141.573C103.944 141.217 105.089 140.724 106.165 140.102C106.996 139.622 107.476 139.266 107.502 139.302Z" fill="black"/>
<path id="Vector_85" d="M106.531 202.621C102.644 187.847 108.596 180.388 111.435 171.937Z" fill="#41CC97"/>
<path id="Vector_86" d="M111.436 171.922C111.416 172.029 111.389 172.134 111.353 172.237C111.276 172.464 111.177 172.753 111.064 173.119C110.801 173.878 110.382 174.972 109.835 176.304C108.762 178.968 107.074 182.602 106.103 186.882C105.668 188.898 105.428 190.952 105.385 193.014C105.374 194.694 105.481 196.372 105.706 198.037C105.814 198.744 105.912 199.384 105.995 199.957L106.304 201.387C106.377 201.759 106.439 202.064 106.485 202.301C106.515 202.405 106.53 202.513 106.531 202.621C106.488 202.522 106.455 202.418 106.433 202.311C106.371 202.081 106.294 201.781 106.201 201.413C106.103 201.011 105.984 200.536 105.85 199.983C105.716 199.431 105.638 198.77 105.52 198.068C105.266 196.394 105.138 194.703 105.138 193.009C105.167 190.926 105.402 188.851 105.84 186.815C106.815 182.499 108.54 178.87 109.66 176.227C110.233 174.905 110.692 173.826 110.966 173.078C111.1 172.722 111.214 172.438 111.301 172.211C111.333 172.109 111.378 172.012 111.436 171.922Z" fill="#263238"/>
<path id="Vector_87" d="M103.212 147.546C102.357 146.896 101.439 146.334 100.471 145.868C100.528 145.233 100.544 144.588 100.559 143.948C100.559 143.173 100.559 142.317 100.043 141.728C99.8357 141.502 99.5721 141.335 99.2791 141.244C98.9861 141.153 98.6743 141.142 98.3755 141.212C98.0786 141.286 97.8025 141.427 97.5681 141.623C97.3338 141.82 97.1473 142.068 97.023 142.347C96.7907 142.864 96.8991 143.406 96.7133 143.943C96.6196 144.15 96.4715 144.328 96.2848 144.459C95.222 144.116 94.1866 143.693 93.1875 143.194C91.5224 142.418 89.7727 141.838 87.9737 141.465C87.0962 141.305 85.9089 141.196 85.3617 142.218C85.2155 142.525 85.1506 142.864 85.1732 143.203C85.1958 143.542 85.3051 143.87 85.4907 144.154C86.007 145.058 86.6161 145.223 87.4988 145.703C86.9469 145.712 86.4006 145.815 85.8831 146.007C85.6107 146.1 85.3645 146.257 85.1651 146.464C84.9658 146.672 84.819 146.924 84.7371 147.2C84.6629 147.529 84.6738 147.872 84.7686 148.197C84.8634 148.521 85.0391 148.816 85.2791 149.053C85.7381 149.442 86.2625 149.746 86.8277 149.951C86.5261 149.985 86.2344 150.08 85.9702 150.229C85.7059 150.379 85.4746 150.58 85.29 150.821C85.1053 151.062 84.9713 151.338 84.8958 151.632C84.8203 151.926 84.8049 152.232 84.8506 152.532C85.0623 153.777 86.8432 154.597 88.0821 154.329C87.673 154.582 87.3213 154.918 87.0497 155.315C86.8691 155.562 86.7457 155.847 86.6886 156.147C86.6314 156.448 86.6419 156.758 86.7193 157.055C86.7849 157.362 86.9168 157.652 87.1058 157.903C87.2948 158.155 87.5364 158.362 87.8137 158.51C88.4647 158.799 89.1987 158.842 89.8786 158.629C90.3432 158.5 91.5305 158.763 92.0106 158.763C92.4906 158.763 94.6484 160.41 94.9272 160.756C96.7753 163.048 97.88 164.214 101.679 165.066L107.1 150.643C103.321 148.299 104.642 148.547 103.212 147.546Z" fill="#FFBF9D"/>
<path id="Vector_88" d="M91.2248 150.241C91.2248 150.318 90.1253 150.05 88.7676 149.988C87.4099 149.926 86.3052 150.086 86.2949 149.988C87.0923 149.714 87.9391 149.616 88.7779 149.699C89.6234 149.698 90.4586 149.883 91.2248 150.241Z" fill="#FF9A6C"/>
<path id="Vector_89" d="M91.2052 153.575C91.2052 153.663 90.3792 153.704 89.4139 153.973C88.8371 154.168 88.2718 154.395 87.7207 154.654C87.7207 154.628 87.8343 154.458 88.1234 154.267C88.4952 154.015 88.9071 153.828 89.3416 153.715C89.9408 153.51 90.5823 153.462 91.2052 153.575Z" fill="#FF9A6C"/>
<path id="Vector_90" d="M87.1748 145.728C88.0407 145.58 88.9303 145.66 89.7559 145.961C90.597 146.204 91.3754 146.627 92.0376 147.2C91.9911 147.282 91.0051 146.658 89.6785 146.219C88.8534 146.01 88.0176 145.846 87.1748 145.728Z" fill="#FF9A6C"/>
<path id="Vector_91" d="M91.4898 155.599C91.1746 155.193 91.0169 154.687 91.0459 154.174C90.9882 153.662 91.1145 153.146 91.4021 152.718C91.4743 152.749 91.2885 153.374 91.3143 154.164C91.3401 154.953 91.5621 155.568 91.4898 155.599Z" fill="#FF9A6C"/>
<path id="Vector_92" d="M91.6761 148.233C91.568 147.875 91.5899 147.491 91.738 147.149C91.9135 146.56 92.2284 146.163 92.2904 146.204C92.2371 146.559 92.1382 146.906 91.9961 147.236C91.8309 147.773 91.7535 148.238 91.6761 148.233Z" fill="#FF9A6C"/>
<path id="Vector_93" d="M91.2253 151.417C91.153 151.417 91.0137 151.046 91.024 150.55C91.0343 150.055 91.1943 149.673 91.2666 149.693C91.3389 149.714 91.3027 150.091 91.2666 150.555C91.2305 151.02 91.2976 151.402 91.2253 151.417Z" fill="#FF9A6C"/>
<path id="Vector_94" d="M152.694 167.136C146.721 172.815 130.378 176.526 121.318 175.169C112.258 173.811 96.875 163.771 96.875 163.771L102.724 147.143C102.724 147.143 121.07 153.818 121.54 153.741C121.54 153.741 145.399 142.487 151.62 146.09" fill="#41CC97"/>
<path id="Vector_95" d="M151.619 146.064C151.619 146.064 151.433 145.992 151.102 145.837C150.572 145.646 150.021 145.52 149.461 145.46C148.556 145.378 147.645 145.378 146.74 145.46C145.518 145.58 144.302 145.77 143.101 146.028C137.696 147.2 130.196 149.858 121.611 153.807H121.585L121.26 153.751L120.981 153.668L120.429 153.492L119.329 153.131L117.094 152.362L112.453 150.757L102.676 147.241L102.846 147.158C101.437 151.164 99.9814 155.32 98.4895 159.579C97.9733 161.029 97.4571 162.47 97.0028 163.817L96.946 163.657C100.487 165.928 104.049 167.967 107.549 169.789C110.889 171.567 114.374 173.057 117.966 174.244C119.645 174.766 121.376 175.102 123.129 175.246C124.775 175.352 126.427 175.352 128.074 175.246C131.027 175.059 133.961 174.641 136.85 173.997C139.23 173.488 141.572 172.815 143.86 171.983L144.603 171.72L145.305 171.431C145.765 171.24 146.214 171.065 146.632 170.879L147.819 170.311L148.372 170.048L148.888 169.764C149.478 169.452 150.05 169.107 150.602 168.731C151.016 168.474 151.415 168.191 151.794 167.885L152.491 167.317L152.734 167.126C152.734 167.126 152.661 167.198 152.507 167.332L151.825 167.926C151.44 168.253 151.033 168.553 150.607 168.824C150.057 169.2 149.487 169.545 148.898 169.857L148.382 170.146L147.83 170.419L146.684 170.992C146.26 171.178 145.816 171.359 145.357 171.555L144.655 171.849L143.912 172.118C141.622 172.967 139.276 173.657 136.891 174.182C134.003 174.836 131.069 175.266 128.115 175.468C126.458 175.574 124.796 175.574 123.139 175.468C121.361 175.337 119.602 175.014 117.894 174.503C114.293 173.307 110.799 171.808 107.451 170.022C103.941 168.194 100.374 166.16 96.8221 163.884L96.7344 163.827L96.7705 163.729C97.2403 162.382 97.7462 160.942 98.2572 159.486C99.7491 155.232 101.21 151.077 102.619 147.071L102.661 146.947L102.784 146.993C109.495 149.435 115.865 151.727 121.554 153.704L121.513 153.637C130.139 149.709 137.639 147.076 143.075 145.94C144.284 145.688 145.506 145.505 146.735 145.393C147.645 145.311 148.561 145.311 149.471 145.393C150.035 145.464 150.588 145.603 151.118 145.806L151.619 146.064Z" fill="#263238"/>
<g id="Group_8" opacity="0.3">
<path id="Vector_96" d="M128.786 162.217C128.132 160.339 127.126 158.603 125.823 157.101C124.595 155.553 123.268 154.045 122.303 152.311L122.819 169.274C124.533 170.27 126.902 169.516 128.074 167.916C129.246 166.316 129.354 164.122 128.786 162.217Z" fill="black"/>
</g>
<g id="Group_9" opacity="0.3">
<path id="Vector_97" d="M111.09 172.913C117.341 176.717 124.315 177.796 131.599 177.084C138.948 176.354 145.866 173.277 151.329 168.308C146.487 170.512 141.619 172.727 136.503 174.193C131.388 175.659 122.937 175.876 118.544 174.57L111.436 171.921L111.09 172.913Z" fill="black"/>
</g>
<path id="Vector_98" d="M79.7155 208.888C79.7155 208.939 79.0806 208.914 78.0791 209.084C76.7853 209.305 75.5431 209.762 74.4139 210.431C73.2554 211.058 72.2885 211.988 71.616 213.121C71.3817 213.605 71.2466 214.132 71.2185 214.669C71.1657 214.526 71.1446 214.373 71.1566 214.22C71.1696 213.805 71.2681 213.398 71.4457 213.023C72.0919 211.819 73.0774 210.832 74.2797 210.183C75.4425 209.491 76.7361 209.046 78.0791 208.877C78.4833 208.83 78.8904 208.811 79.2974 208.821C79.4392 208.823 79.58 208.846 79.7155 208.888Z" fill="black"/>
<path id="Vector_99" d="M127.97 161.251C127.416 159.835 126.666 158.504 125.74 157.297C122.384 152.462 118.608 147.933 114.456 143.762C113.067 142.384 111.565 141.01 109.707 140.391C107.848 139.772 105.53 140.086 104.338 141.64L105.164 147.391C108.53 152.171 115.349 162.284 118.72 167.064C119.319 167.916 119.974 168.814 120.95 169.196C122.08 169.645 123.371 169.273 124.476 168.757C125.895 168.091 127.253 167.116 127.919 165.696C128.506 164.276 128.525 162.685 127.97 161.251Z" fill="#EBEBEB"/>
<path id="Vector_100" d="M125.59 159.465C125.045 159.529 124.503 159.625 123.969 159.754C122.694 160.109 121.584 160.902 120.836 161.995C120.088 163.088 119.75 164.409 119.881 165.727C119.952 166.27 120.059 166.808 120.201 167.337C120.108 167.219 120.037 167.084 119.994 166.94C119.845 166.557 119.745 166.156 119.695 165.748C119.508 164.378 119.837 162.987 120.618 161.847C121.4 160.707 122.578 159.898 123.923 159.579C124.321 159.478 124.73 159.427 125.141 159.429C125.292 159.415 125.444 159.428 125.59 159.465Z" fill="black"/>
<path id="Vector_101" d="M169.176 203.834C169.099 209.053 165.046 220.689 152.812 225.216C147.918 227.028 127.001 229.377 121.839 230.249C117.327 231.013 112.635 230.399 108.185 231.478C104.995 232.247 101.99 233.873 98.7486 234.198C93.509 234.714 88.3416 231.617 85.4095 227.265C82.4774 222.913 81.5379 217.457 81.7237 212.176C81.8321 208.976 82.5703 205.398 85.2392 203.633C87.4744 202.156 90.5149 202.42 92.9153 203.602C95.3157 204.784 97.2257 206.761 99.079 208.692C102.409 203.746 110.689 199.983 117.147 197.443C122.691 195.255 136.381 191.889 140.645 196.06" fill="#41CC97"/>
<path id="Vector_102" d="M140.632 196.06L140.462 195.926C140.301 195.786 140.128 195.66 139.946 195.549C139.262 195.1 138.506 194.774 137.71 194.583C135.645 194.016 132.429 193.959 128.47 194.583C126.282 194.921 124.115 195.384 121.981 195.972C120.815 196.292 119.612 196.659 118.368 197.092C117.124 197.526 115.89 198.052 114.599 198.589C111.855 199.719 109.186 201.023 106.608 202.492C105.215 203.289 103.883 204.188 102.623 205.181C101.291 206.206 100.12 207.424 99.1488 208.795L99.0663 208.908L98.9682 208.81C97.7873 207.514 96.5122 206.306 95.1533 205.197C93.7492 204.043 92.0827 203.252 90.3009 202.895C89.3895 202.694 88.4463 202.686 87.5317 202.871C86.6171 203.056 85.7511 203.43 84.989 203.968C84.2298 204.551 83.6092 205.295 83.1719 206.147C82.7259 207.014 82.4011 207.938 82.2066 208.893C81.841 210.867 81.7161 212.877 81.8349 214.881C81.9158 216.937 82.2152 218.979 82.728 220.972C83.2803 223.004 84.131 224.942 85.2523 226.723C86.3902 228.536 87.8658 230.113 89.5988 231.369C90.8878 232.296 92.3121 233.019 93.8215 233.511C95.3122 233.989 96.8796 234.182 98.4416 234.079C101.565 233.862 104.378 232.412 107.3 231.581C110.222 230.75 113.283 230.667 116.189 230.574C117.645 230.528 119.09 230.471 120.5 230.306C121.909 230.141 123.308 229.877 124.686 229.697C130.215 228.938 135.475 228.267 140.379 227.539C142.831 227.177 145.195 226.795 147.457 226.382C148.587 226.171 149.697 225.949 150.765 225.691C151.816 225.463 152.84 225.128 153.821 224.689C156.53 223.586 159.014 221.998 161.152 220.002C161.477 219.692 161.813 219.408 162.107 219.088L162.964 218.149C163.246 217.85 163.509 217.534 163.754 217.204L164.487 216.27C164.91 215.619 165.359 215.02 165.71 214.396C166.061 213.771 166.428 213.193 166.696 212.594C166.841 212.305 166.985 212.016 167.119 211.737C167.253 211.459 167.357 211.175 167.475 210.901C168.178 209.245 168.686 207.513 168.988 205.739C169.034 205.429 169.076 205.161 169.107 204.928C169.138 204.696 169.138 204.495 169.153 204.335C169.153 204.02 169.194 203.855 169.194 203.855C169.194 203.855 169.194 204.02 169.194 204.34C169.194 204.502 169.184 204.698 169.163 204.928C169.133 205.166 169.096 205.445 169.06 205.744C168.779 207.538 168.283 209.292 167.584 210.968C167.47 211.242 167.362 211.526 167.238 211.81C167.114 212.094 166.959 212.377 166.82 212.672C166.551 213.276 166.19 213.859 165.834 214.489C165.478 215.119 165.034 215.723 164.616 216.378C164.373 216.688 164.13 216.998 163.883 217.323C163.638 217.655 163.375 217.972 163.093 218.273C162.814 218.588 162.525 218.902 162.236 219.222C161.947 219.543 161.601 219.832 161.281 220.141C160.605 220.775 159.895 221.371 159.154 221.927C157.531 223.121 155.77 224.114 153.909 224.885C152.915 225.336 151.877 225.682 150.812 225.918C149.738 226.181 148.628 226.403 147.498 226.615C145.23 227.038 142.867 227.429 140.41 227.787C135.506 228.53 130.246 229.211 124.722 229.975C123.339 230.156 121.955 230.409 120.531 230.59C119.106 230.77 117.655 230.812 116.194 230.863C113.283 230.956 110.279 231.008 107.372 231.865C105.922 232.283 104.497 232.84 103.036 233.341C101.563 233.883 100.025 234.23 98.4623 234.374C96.8654 234.483 95.2622 234.287 93.7389 233.795C92.2019 233.295 90.7515 232.56 89.4388 231.617C87.6777 230.339 86.1792 228.733 85.0251 226.888C83.9056 225.078 83.0635 223.11 82.5266 221.05C82.01 219.038 81.7089 216.977 81.6284 214.902C81.5086 212.877 81.6369 210.845 82.0104 208.852C82.2068 207.871 82.5423 206.924 83.0067 206.038C83.4569 205.153 84.101 204.38 84.8909 203.777C85.6761 203.191 86.5888 202.798 87.5546 202.631C88.4991 202.476 89.4632 202.487 90.4041 202.662C92.2236 203.03 93.9251 203.838 95.3598 205.016C96.7245 206.126 98.0064 207.334 99.1953 208.63H99.0146C100.003 207.245 101.191 206.015 102.54 204.98C103.81 203.983 105.153 203.083 106.557 202.285C109.146 200.815 111.827 199.513 114.584 198.388C115.874 197.872 117.124 197.356 118.362 196.901C119.601 196.447 120.809 196.106 121.976 195.791C124.119 195.208 126.294 194.751 128.491 194.423C132.466 193.845 135.687 193.907 137.783 194.516C138.582 194.718 139.34 195.056 140.023 195.518C140.206 195.634 140.378 195.765 140.539 195.91L140.632 196.06Z" fill="#263238"/>
<path id="Vector_103" d="M97.1264 233.47C97.2881 233.07 97.4294 232.661 97.5497 232.247C97.8001 231.097 97.8211 229.91 97.6116 228.752C97.3029 227.029 96.8997 225.325 96.4037 223.647C95.8875 221.747 95.2009 219.672 94.4008 217.535C93.6006 215.397 92.7437 213.405 91.9023 211.608C91.2408 209.992 90.3125 208.498 89.156 207.19C88.3477 206.336 87.3184 205.723 86.1826 205.419C85.7613 205.328 85.3329 205.275 84.9023 205.259C85.012 205.231 85.1249 205.219 85.2379 205.223C85.5637 205.221 85.8888 205.252 86.2084 205.316C87.387 205.585 88.4627 206.189 89.3057 207.055C90.4001 208.119 91.2983 209.714 92.1397 211.505C92.9812 213.296 93.8691 215.294 94.6692 217.442C95.4693 219.589 96.1301 221.669 96.6566 223.579C97.1464 225.276 97.5343 226.999 97.8181 228.742C98.0094 229.923 97.9585 231.132 97.6684 232.293C97.5768 232.604 97.4576 232.907 97.3122 233.197C97.2599 233.294 97.1976 233.386 97.1264 233.47Z" fill="#263238"/>
<path id="Vector_104" d="M102.646 217.411C102.568 217.411 102.129 215.862 101.407 213.952C100.684 212.042 100.039 210.55 100.111 210.514C100.324 210.803 100.497 211.119 100.627 211.453C100.916 212.057 101.288 212.904 101.66 213.859C102.031 214.814 102.279 215.702 102.444 216.347C102.56 216.691 102.628 217.049 102.646 217.411Z" fill="#263238"/>
<path id="Vector_105" d="M136.68 193.995C138.019 193.166 139.527 192.651 141.094 192.487C142.66 192.324 144.243 192.516 145.724 193.051" fill="#41CC97"/>
<path id="Vector_106" d="M145.724 193.05C145.724 193.092 145.208 192.921 144.382 192.761C143.303 192.559 142.201 192.512 141.109 192.622C140.017 192.739 138.947 193.013 137.934 193.437C137.16 193.763 136.705 194.036 136.68 193.995C137.032 193.691 137.429 193.444 137.857 193.262C139.901 192.285 142.22 192.041 144.423 192.57C144.879 192.66 145.319 192.822 145.724 193.05Z" fill="#263238"/>
<g id="Group_10" opacity="0.3">
<path id="Vector_107" d="M96.9873 206.416C102.055 201.619 107.944 197.772 114.374 195.059C120.827 192.355 127.838 191.248 134.811 191.833C136.359 191.982 138.228 192.447 138.755 193.934C124.233 193.727 107.477 199.096 99.109 208.692C98.5927 208.104 97.6326 207.226 97.1267 206.627" fill="black"/>
</g>
<path id="Vector_108" d="M82.5902 149.327C82.2881 149.114 81.9275 148.999 81.5578 148.999C81.1881 148.999 80.8275 149.114 80.5253 149.327C80.2304 149.554 80.005 149.859 79.8745 150.207C79.744 150.556 79.7138 150.934 79.7872 151.299C79.8703 151.662 80.0413 151.999 80.2852 152.281C80.5292 152.563 80.8385 152.78 81.1861 152.914C81.4443 153.025 81.7251 153.072 82.0051 153.052C82.2852 153.032 82.5565 152.946 82.7967 152.801C83.0616 152.587 83.2628 152.304 83.3783 151.984C83.4939 151.664 83.5195 151.318 83.4523 150.984C83.3542 150.313 82.9361 149.905 82.6005 149.316" fill="#FFBF9D"/>
<path id="Vector_109" d="M84.3651 147.556C84.0636 147.342 83.7027 147.226 83.3326 147.226C82.9626 147.226 82.6017 147.342 82.3002 147.556C82.0058 147.783 81.7807 148.089 81.6502 148.437C81.5198 148.785 81.4893 149.163 81.562 149.528C81.6442 149.891 81.8143 150.228 82.0574 150.51C82.3004 150.792 82.6089 151.009 82.9558 151.144C83.2149 151.254 83.4965 151.301 83.7774 151.281C84.0582 151.262 84.3304 151.176 84.5716 151.03C84.8364 150.816 85.0376 150.534 85.1532 150.213C85.2688 149.893 85.2944 149.547 85.2272 149.213C85.1239 148.542 84.711 148.139 84.3754 147.551" fill="#FFBF9D"/>
<path id="Vector_110" d="M80.7434 152.331C80.4849 152.145 80.1742 152.044 79.8555 152.044C79.5367 152.044 79.2261 152.145 78.9676 152.331C78.7144 152.525 78.521 152.786 78.4095 153.085C78.2981 153.383 78.2733 153.707 78.3378 154.019C78.407 154.33 78.552 154.62 78.7601 154.861C78.9682 155.102 79.2328 155.289 79.5303 155.403C79.7526 155.495 79.9934 155.534 80.2336 155.517C80.4738 155.5 80.7066 155.427 80.9137 155.305C81.14 155.123 81.3121 154.882 81.4113 154.609C81.5105 154.336 81.533 154.041 81.4764 153.756C81.3299 153.237 81.0806 152.752 80.7434 152.331Z" fill="#FFBF9D"/>
</g>
<g id="Hearts">
<path id="Vector_111" d="M84.2721 69.6018C84.0266 69.0543 83.6195 68.595 83.1055 68.2854C82.6133 67.9618 82.0318 67.801 81.4433 67.826C80.9469 67.8588 80.4753 68.0548 80.1019 68.3835C79.7284 68.7121 79.4741 69.1549 79.3784 69.6431C79.1325 69.4123 78.8405 69.2363 78.5215 69.1269C78.2257 69.032 77.9139 68.9973 77.6045 69.0248C77.2951 69.0523 76.9943 69.1414 76.7199 69.2869C76.2085 69.5804 75.8036 70.0287 75.5635 70.5671C75.2937 71.1045 75.1946 71.7115 75.2796 72.3068C75.4056 73.06 75.7671 73.754 76.3121 74.2891C76.924 74.8144 77.6535 75.1845 78.4389 75.368C79.7191 75.7087 81.3968 76.1165 81.3968 76.1165C81.3968 76.1165 82.3466 74.8569 83.2449 73.8813C83.812 73.3016 84.2301 72.5931 84.4631 71.8164C84.6373 71.0767 84.5704 70.3007 84.2721 69.6018Z" fill="#FF725E"/>
<g id="Group_11" opacity="0.7">
<path id="Vector_112" d="M84.2712 69.6016C84.0256 69.0541 83.6185 68.5948 83.1045 68.2852C82.6123 67.9615 82.0308 67.8008 81.4423 67.8258C80.9459 67.8586 80.4743 68.0546 80.1009 68.3832C79.7274 68.7118 79.4731 69.1547 79.3774 69.6429C79.1316 69.412 78.8395 69.236 78.5205 69.1266C78.2247 69.0318 77.9129 68.9971 77.6035 69.0246C77.2941 69.052 76.9933 69.1411 76.7189 69.2867C76.2075 69.5801 75.8026 70.0284 75.5626 70.5669C75.2927 71.1042 75.1936 71.7113 75.2786 72.3065C75.4047 73.0598 75.7661 73.7538 76.3111 74.2888C76.923 74.8141 77.6526 75.1842 78.4379 75.3677C79.7181 75.7084 81.3958 76.1162 81.3958 76.1162C81.3958 76.1162 82.3457 74.8567 83.2439 73.881C83.811 73.3014 84.2291 72.5928 84.4622 71.8161C84.6364 71.0765 84.5694 70.3005 84.2712 69.6016Z" fill="white"/>
</g>
<path id="Vector_113" d="M49.4064 168.055C49.1573 167.515 48.7506 167.063 48.2398 166.759C47.7476 166.436 47.1661 166.275 46.5775 166.3C46.267 166.323 45.9643 166.409 45.6876 166.552C45.4109 166.694 45.1658 166.891 44.9669 167.131C44.7339 167.419 44.5745 167.759 44.5023 168.122C44.2591 167.888 43.9662 167.711 43.6454 167.606C43.35 167.509 43.0379 167.473 42.7281 167.5C42.4183 167.528 42.1174 167.618 41.8438 167.766C41.3327 168.059 40.9264 168.505 40.6823 169.041C40.4164 169.58 40.3193 170.186 40.4036 170.781C40.5296 171.534 40.891 172.228 41.436 172.763C42.0479 173.288 42.7775 173.658 43.5628 173.842C44.843 174.188 46.5156 174.59 46.5156 174.59C46.5156 174.59 47.4706 173.331 48.3688 172.36C48.9338 171.779 49.3516 171.071 49.5871 170.295C49.7691 169.549 49.7058 168.763 49.4064 168.055Z" fill="#FF725E"/>
<g id="Group_12" opacity="0.7">
<path id="Vector_114" d="M49.4064 168.055C49.1573 167.515 48.7506 167.064 48.2398 166.76C47.7476 166.436 47.1661 166.275 46.5775 166.3C46.267 166.323 45.9643 166.409 45.6876 166.552C45.4109 166.695 45.1658 166.892 44.9669 167.131C44.7339 167.419 44.5745 167.759 44.5023 168.122C44.2591 167.888 43.9662 167.712 43.6454 167.606C43.35 167.509 43.0379 167.473 42.7281 167.501C42.4183 167.528 42.1174 167.618 41.8438 167.766C41.3327 168.059 40.9264 168.505 40.6823 169.041C40.4164 169.58 40.3193 170.186 40.4036 170.781C40.5296 171.534 40.891 172.228 41.436 172.763C42.0479 173.289 42.7775 173.659 43.5628 173.842C44.843 174.188 46.5156 174.591 46.5156 174.591C46.5156 174.591 47.4706 173.331 48.3688 172.361C48.9338 171.779 49.3516 171.071 49.5871 170.296C49.7691 169.549 49.7058 168.763 49.4064 168.055Z" fill="white"/>
</g>
<path id="Vector_115" d="M188.626 167.828C188.914 166.747 188.86 165.604 188.472 164.555C188.134 163.511 187.477 162.599 186.593 161.948C186.115 161.62 185.577 161.391 185.009 161.276C184.441 161.16 183.856 161.161 183.289 161.277C182.612 161.42 181.981 161.726 181.451 162.17C181.369 161.548 181.15 160.952 180.811 160.425C180.493 159.941 180.08 159.525 179.598 159.204C179.115 158.883 178.573 158.663 178.003 158.557C176.918 158.39 175.809 158.571 174.833 159.073C173.815 159.538 172.966 160.306 172.402 161.272C171.699 162.512 171.414 163.946 171.591 165.36C171.868 166.836 172.495 168.224 173.419 169.407C174.885 171.4 176.841 173.945 176.841 173.945C176.841 173.945 179.696 173.222 182.138 172.856C183.627 172.679 185.052 172.148 186.293 171.307C187.426 170.43 188.245 169.209 188.626 167.828Z" fill="#FF725E"/>
<g id="Group_13" opacity="0.7">
<path id="Vector_116" d="M188.624 167.828C188.912 166.747 188.858 165.604 188.47 164.555C188.132 163.511 187.475 162.599 186.591 161.948C186.113 161.62 185.575 161.391 185.007 161.276C184.439 161.16 183.854 161.161 183.287 161.277C182.61 161.42 181.979 161.726 181.449 162.17C181.367 161.548 181.148 160.952 180.809 160.425C180.491 159.941 180.078 159.525 179.596 159.204C179.113 158.883 178.571 158.663 178.001 158.557C176.916 158.39 175.807 158.571 174.831 159.073C173.813 159.538 172.964 160.306 172.4 161.272C171.697 162.512 171.412 163.946 171.589 165.36C171.866 166.836 172.493 168.224 173.417 169.407C174.883 171.4 176.839 173.945 176.839 173.945C176.839 173.945 179.694 173.222 182.136 172.856C183.625 172.679 185.05 172.148 186.291 171.307C187.424 170.43 188.243 169.209 188.624 167.828Z" fill="white"/>
</g>
</g>
</g>
</svg>
