<svg width="20" height="19" viewBox="0 0 20 19" fill="none" xmlns="http://www.w3.org/2000/svg">
<g id="1">
<path id="Vector" d="M0.211314 9.59876L1.74791 10.3127C2.11229 10.4788 2.50859 10.5631 2.90901 10.5598C3.27702 10.5594 3.64128 10.4858 3.98058 10.3433C4.31988 10.2008 4.62744 9.99222 4.88534 9.72969L5.99208 8.6106L6.85673 8.45249C7.91773 9.53148 9.05187 10.536 10.2511 11.459L9.73229 11.5949L8.25004 11.039C7.71549 10.8385 7.13199 10.8083 6.57958 10.9525C6.02716 11.0966 5.53287 11.4082 5.16449 11.8444L4.07257 13.1389C4.03493 13.1843 4.00859 13.2379 3.99571 13.2955C3.98283 13.353 3.98377 13.4128 3.99846 13.4699C4.01404 13.5261 4.04278 13.5779 4.0823 13.6208C4.12182 13.6638 4.17098 13.6967 4.22574 13.7169L5.81174 14.3148C6.34694 14.5164 6.93148 14.5472 7.48491 14.403C8.03835 14.2588 8.5335 13.9466 8.90223 13.5094L9.91757 12.3162L10.97 12.0395L10.9551 11.9778C12.2998 12.9546 13.7342 13.8016 15.2388 14.5075L14.9745 14.6458L13.4132 14.4334C12.846 14.3577 12.2693 14.4595 11.7623 14.7249C11.2553 14.9904 10.843 15.4063 10.5821 15.9156L9.8064 17.4226C9.77939 17.4754 9.76546 17.534 9.76579 17.5933C9.76612 17.6527 9.7807 17.711 9.8083 17.7636C9.8359 17.8161 9.87571 17.8613 9.92439 17.8952C9.97307 17.9291 10.0292 17.9509 10.088 17.9586L11.7654 18.1859C11.8882 18.2028 12.0121 18.211 12.136 18.2106C12.6461 18.2116 13.1465 18.0719 13.5823 17.8069C14.0182 17.5419 14.3725 17.1619 14.6064 16.7086L15.3253 15.3054L16.1183 14.8904C17.2187 15.3722 18.3746 15.7158 19.5596 15.9131H19.6065C19.7048 15.919 19.8014 15.8857 19.8751 15.8203C19.9487 15.755 19.9934 15.6631 19.9993 15.5648C20.0052 15.4665 19.9718 15.3699 19.9065 15.2963C19.8412 15.2226 19.7493 15.1779 19.651 15.172C18.5843 14.9784 17.5433 14.6635 16.5482 14.2333L16.4864 13.4576L17.2868 12.1013C17.5771 11.6084 17.7078 11.0377 17.6609 10.4676C17.614 9.89746 17.3919 9.35581 17.025 8.91693L15.9281 7.62243C15.8903 7.57683 15.842 7.54109 15.7874 7.51828C15.7327 7.49547 15.6733 7.48628 15.6143 7.4915C15.5552 7.49605 15.498 7.51482 15.4477 7.54622C15.3974 7.57762 15.3554 7.62072 15.3253 7.67184L14.4631 9.12938C14.1726 9.62282 14.0421 10.1941 14.0894 10.7648C14.1367 11.3354 14.3596 11.8774 14.7275 12.3162L15.7403 13.5243L15.77 13.9047C14.4794 13.3131 13.2399 12.6158 12.0644 11.8197L11.9927 10.96L12.7956 9.59876C13.0859 9.1057 13.2164 8.53483 13.169 7.96461C13.1217 7.3944 12.8989 6.85285 12.5313 6.4144L11.4443 5.11743C11.4058 5.07182 11.3572 5.03596 11.3022 5.01277C11.2472 4.98959 11.1876 4.97974 11.1281 4.98403C11.0691 4.98922 11.0123 5.00855 10.9624 5.04038C10.9125 5.0722 10.8711 5.11558 10.8415 5.16684L9.9818 6.63427C9.69152 7.12719 9.56086 7.69785 9.60774 8.26797C9.65463 8.8381 9.87676 9.37975 10.2437 9.81863L11.2565 11.0267L11.2763 11.2737C9.89578 10.2691 8.5987 9.15466 7.39775 7.94111L7.59291 7.0987L8.7713 6.04878C9.19844 5.66645 9.49666 5.16119 9.62495 4.60247C9.75324 4.04375 9.7053 3.45901 9.48772 2.92864L8.84541 1.35993C8.82441 1.30645 8.79109 1.25867 8.74817 1.22047C8.70525 1.18227 8.65393 1.15472 8.59837 1.14006C8.54087 1.1269 8.48106 1.12766 8.42391 1.14227C8.36677 1.15688 8.31393 1.18492 8.2698 1.22406L6.9926 2.35057C6.56659 2.73153 6.269 3.23506 6.14072 3.79198C6.01244 4.3489 6.05976 4.93188 6.27618 5.46082L6.87402 6.92083L6.78756 7.29881C6.16748 6.64662 5.55235 5.94255 4.92486 5.17919L4.97674 3.66977C5.00099 3.04128 4.83025 2.42067 4.48793 1.89303C4.1456 1.36539 3.64845 0.956554 3.06464 0.722564L1.30571 0.0259076C1.25058 0.00413574 1.19104 -0.00409598 1.13208 0.00190337C1.07311 0.00790271 1.01645 0.0279581 0.966835 0.0603863C0.917225 0.0928146 0.876117 0.13667 0.846961 0.188271C0.817804 0.239872 0.801451 0.297715 0.799273 0.356943L0.730101 2.24681C0.707839 2.87592 0.880877 3.49649 1.22546 4.02331C1.57003 4.55013 2.06925 4.95736 2.65455 5.18907L4.40114 5.89314C4.4444 5.91011 4.49054 5.9185 4.53701 5.91785H4.54689C5.10768 6.59968 5.67093 7.23458 6.22924 7.82748L5.84633 7.89665L4.41843 7.23458C3.90158 6.9949 3.32334 6.92061 2.76269 7.02187C2.20204 7.12312 1.68631 7.39497 1.28594 7.8003L0.100146 9.0108C0.0602811 9.05335 0.0310193 9.10471 0.0147389 9.16069C-0.00154149 9.21668 -0.00438093 9.27572 0.00645129 9.33301C0.0172835 9.3903 0.0414817 9.44422 0.0770788 9.4904C0.112676 9.53658 0.158667 9.57371 0.211314 9.59876ZM8.00547 11.7307L8.49955 11.9185L5.39177 12.7238L5.73269 12.3162C6.0041 11.9951 6.36862 11.7662 6.77579 11.6613C7.18297 11.5564 7.61268 11.5807 8.00547 11.7307ZM8.34639 13.04C8.0762 13.3599 7.71355 13.5882 7.30832 13.6934C6.90309 13.7987 6.47519 13.7759 6.08349 13.628L5.58941 13.4427L8.68978 12.6349L8.34639 13.04ZM11.2516 16.2516C11.4426 15.8789 11.7446 15.5747 12.1158 15.3809C12.4871 15.1871 12.9093 15.1132 13.3243 15.1695L13.848 15.2387L11.0095 16.721L11.2516 16.2516ZM13.9345 16.3677C13.7423 16.7394 13.4402 17.0428 13.0692 17.2365C12.6983 17.4301 12.2766 17.5046 11.8618 17.4497L11.3381 17.3781L14.1741 15.8958L13.9345 16.3677ZM16.6519 11.7258L16.3826 12.1828L16.1084 8.99104L16.4493 9.39619C16.7194 9.7161 16.8839 10.1118 16.9202 10.5289C16.9564 10.946 16.8627 11.3641 16.6519 11.7258ZM15.3055 11.837C15.0363 11.5163 14.8732 11.12 14.8387 10.7028C14.8042 10.2856 14.9 9.86788 15.1129 9.50736L15.3797 9.0528L15.6341 12.2421L15.3055 11.837ZM12.1558 9.22326L11.889 9.67782L11.6246 6.48851L11.9581 6.89366C12.2278 7.21394 12.3916 7.6099 12.4269 8.02707C12.4623 8.44424 12.3676 8.86213 12.1558 9.22326ZM10.8094 9.33443C10.5409 9.01345 10.3782 8.61725 10.3437 8.20018C10.3092 7.7831 10.4045 7.36557 10.6167 7.00483L10.886 6.55027L11.1503 9.73958L10.8094 9.33443ZM8.27475 5.48552L7.87948 5.83632L8.60084 2.71866L8.80094 3.21274C8.95857 3.59956 8.99261 4.02567 8.89839 4.43261C8.80418 4.83954 8.58633 5.20734 8.27475 5.48552ZM6.95801 5.18166C6.80036 4.79405 6.7663 4.3672 6.86049 3.95949C6.95467 3.55178 7.17252 3.18312 7.48421 2.90394L7.87948 2.55067L7.15812 5.6708L6.95801 5.18166ZM2.91395 4.49983C2.4716 4.32471 2.09429 4.017 1.83377 3.61892C1.57325 3.22085 1.4423 2.75191 1.45887 2.27646L1.50828 0.910316L2.78054 1.4044C3.22268 1.57982 3.59979 1.8876 3.86026 2.2856C4.12073 2.68361 4.25183 3.15239 4.23562 3.62777L4.21091 4.27255C3.87494 3.83282 3.53649 3.37826 3.20052 2.90147C3.14289 2.82366 3.05709 2.77149 2.96149 2.75613C2.86589 2.74078 2.76807 2.76345 2.68898 2.8193C2.60988 2.87515 2.55579 2.95975 2.53827 3.05498C2.52076 3.15021 2.54121 3.24851 2.59526 3.32885C2.95265 3.83776 3.31251 4.32525 3.67483 4.79134L2.91395 4.49983ZM4.35914 9.22573C4.06606 9.52461 3.68778 9.72562 3.27607 9.80124C2.86436 9.87686 2.43934 9.82339 2.05918 9.64817L1.58239 9.42583L4.7297 8.85764L4.35914 9.22573ZM4.1121 7.89665L4.59136 8.11898L1.44652 8.69459L1.81461 8.31662C2.10778 8.01784 2.48621 7.81708 2.89799 7.74189C3.30977 7.6667 3.73473 7.72076 4.11457 7.89665H4.1121Z" fill="black"/>
</g>
</svg>
