<?xml version="1.0" encoding="UTF-8"?>
<svg id="Layer_1" data-name="Layer 1" xmlns="http://www.w3.org/2000/svg" viewBox="0 0 24 24">
  <defs>
    <style>
      .cls-1 {
        fill: #41cc97;
      }

      .cls-1, .cls-2 {
        stroke-width: 0px;
      }

      .cls-2 {
        fill: #fff;
      }

      .cls-3 {
        fill: none;
        stroke: #41cc97;
        stroke-linecap: square;
        stroke-miterlimit: 10;
        stroke-width: .65px;
      }
    </style>
  </defs>
  <circle class="cls-1" cx="12" cy="12" r="12"/>
  <g>
    <path class="cls-2" d="m11.6343,18.982c-.9525-.9525-1.2927-1.7604-1.5903-2.4748-.2381-.5783-.4422-1.0715-.961-1.5903-.5187-.5187-1.012-.7228-1.5903-.961-.7144-.2976-1.5222-.6378-2.4747-1.5903-.978-.9865-1.5223-2.2876-1.5223-3.6738s.5443-2.6959,1.5223-3.6738c2.024-2.024,5.3236-2.024,7.3476,0,.9525.9525,1.2927,1.7604,1.5903,2.4747.2381.5783.4422,1.0715.961,1.5903.5188.5187,1.012.7229,1.5903.961.7144.2976,1.5223.6378,2.4748,1.5903.978.978,1.5222,2.2876,1.5222,3.6738s-.5443,2.6958-1.5222,3.6738c-2.024,2.024-5.3237,2.024-7.3477,0Z"/>
    <line class="cls-3" x1="14.917" y1="9.083" x2="9.083" y2="14.9169"/>
    <path class="cls-3" d="m18.982,11.6343s-.654,6.5297-7.3477,7.3477"/>
    <path class="cls-3" d="m12.3657,5.018s-5.6494,1.294-7.3476,7.3476"/>
    <path class="cls-3" d="m18.2652,19.5749s-3.7504-.7887-6.0833-4.1956c-.9644-1.4083-2.1411-2.6445-3.5373-3.6263-1.5808-1.1116-3.4832-3.0571-4.0899-6.2004"/>
    <path class="cls-3" d="m19.4522,18.4391s-1.0568-3.7483-4.6425-6.057c-1.2955-.8341-2.3985-1.9312-3.2028-3.2454-1.0274-1.6787-2.8683-3.8547-5.8259-4.7479"/>
  </g>
</svg>