<?xml version="1.0" encoding="UTF-8"?>
<svg id="Layer_1" data-name="Layer 1" xmlns="http://www.w3.org/2000/svg" viewBox="0 0 24 24">
  <defs>
    <style>
      .cls-1 {
        stroke-linejoin: round;
      }

      .cls-1, .cls-2 {
        stroke: #fff;
      }

      .cls-1, .cls-2, .cls-3 {
        fill: none;
      }

      .cls-1, .cls-3 {
        stroke-width: .65px;
      }

      .cls-2 {
        stroke-width: .5793px;
      }

      .cls-2, .cls-3 {
        stroke-miterlimit: 10;
      }

      .cls-3 {
        stroke: #41cc97;
      }

      .cls-4 {
        fill: #41cc97;
      }

      .cls-4, .cls-5 {
        stroke-width: 0px;
      }

      .cls-5 {
        fill: #fff;
      }
    </style>
  </defs>
  <rect class="cls-4" x="0" y="0" width="24" height="24" rx="12" ry="12"/>
  <g>
    <path class="cls-5" d="m13.4554,13.0088c-.9094,2.1444-2.966,3.5499-5.4412,3.5499-.7389,0-1.4417-.1343-2.0928-.3772-.2119-.0775-.2894-.3359-.155-.5167l1.2195-1.6225c.1654-.2222.5271-.1499.5787.124.5736,2.873,3.2141,5.0019,6.3093,4.7797,2.8368-.2067,5.1828-2.4545,5.4928-5.281.3979-3.6068-2.4131-6.6606-5.9424-6.6606h-5.6168c-.0155.1602-.0207.3204-.0207.4806,0,3.1262,2.5991,5.2706,5.6685,5.5238"/>
    <path class="cls-1" d="m7.8704,7.332h-2.1031s-.9766,0-.9766-.9766"/>
    <line class="cls-2" x1="13.4256" y1="13.0793" x2="13.4256" y2="13.0098"/>
    <path class="cls-2" d="m13.4565,13.0098h-.0309"/>
    <line class="cls-3" x1="13.4244" y1="12.9778" x2="19.7906" y2="12.9778"/>
    <line class="cls-3" x1="13.4244" y1="12.9778" x2="17.9493" y2="17.5027"/>
    <path class="cls-4" d="m13.1089,9.4565c0,.3476-.2781.6257-.618.6257s-.618-.2858-.618-.6257.2781-.618.618-.618c.3476,0,.618.2781.618.618Z"/>
    <line class="cls-3" x1="13.1089" y1="13.5001" x2="16.6891" y2="7.5731"/>
    <line class="cls-3" x1="13.4244" y1="12.9778" x2="13.4244" y2="19.3609"/>
  </g>
</svg>