<svg width="15" height="22" viewBox="0 0 15 22" fill="none" xmlns="http://www.w3.org/2000/svg">
<g id="Group">
<path id="Vector" fill-rule="evenodd" clip-rule="evenodd" d="M14.055 4.79605C14.055 3.70553 13.6157 2.66005 12.834 1.88909C12.0524 1.11813 10.9923 0.684814 9.88668 0.684814C8.15502 0.684814 6.06602 0.684814 4.33435 0.684814C3.22868 0.684814 2.16868 1.11813 1.38668 1.88909C0.605016 2.66005 0.166016 3.70553 0.166016 4.79605C0.166016 10.3118 0.166016 20.5479 0.166016 20.5479C0.166016 20.8096 0.317016 21.0483 0.555349 21.1631C0.793682 21.2781 1.07735 21.2492 1.28668 21.0884L7.11035 16.6211L12.934 21.0884C13.1433 21.2492 13.4273 21.2781 13.6657 21.1631C13.9037 21.0483 14.055 20.8096 14.055 20.5479V4.79605ZM12.666 4.79605V19.1474L7.53668 15.2127C7.28602 15.0204 6.93502 15.0204 6.68402 15.2127L1.55502 19.1474V4.79605C1.55502 4.06914 1.84768 3.37183 2.36902 2.85764C2.89002 2.34344 3.59702 2.05479 4.33435 2.05479H9.88668C10.6237 2.05479 11.3307 2.34344 11.852 2.85764C12.3733 3.37183 12.666 4.06914 12.666 4.79605Z" fill="#141F1E"/>
</g>
</svg>
