<?xml version="1.0" encoding="UTF-8"?>
<svg id="Layer_1" data-name="Layer 1" xmlns="http://www.w3.org/2000/svg" viewBox="0 0 24 24">
  <defs>
    <style>
      .cls-1 {
        fill: #41cc97;
      }

      .cls-1, .cls-2 {
        stroke-width: 0px;
      }

      .cls-2 {
        fill: #fff;
      }

      .cls-3 {
        fill: none;
        stroke: #41cc97;
        stroke-linecap: square;
        stroke-miterlimit: 10;
        stroke-width: .65px;
      }
    </style>
  </defs>
  <circle class="cls-1" cx="12" cy="12" r="12"/>
  <g id="chicken">
    <path class="cls-2" d="m15.21,12.93c-.07.66-.3,1.28-.7,1.74-1.71,1.9-5.94.81-8.33-1.34-1.14-1.03-1.81-2.27-1.87-3.48-.06-1.14.47-2.19,1.35-3.17.8701-.98,1.88-1.6,3.03-1.67,1.21-.06,2.47.49,3.65,1.53,1.8,1.63,3.06,4.34,2.87,6.39Z"/>
  </g>
  <path class="cls-3" d="m16.1364,13.5188c-.4143,1.31-1.4647,2.4176-2.4699,2.8565"/>
  <path class="cls-2" d="m19.66,17.94c-.2.23-.49.34-.81.35-.11-.01-.22.05-.2599.11-.08.07-.09.17-.1.28.04.32-.06.6-.26.83-.19.19-.46.34-.74.35-.29.01-.56-.09-.76-.29-.36-.32-.45-.86-.23-1.26.09-.14.03-.32-.06-.43l-2.26-2.07c.31-.18.61-.4.85-.66.24-.27.4399-.56.58-.91l2.26,2.07c.13.12.3.13.42.04.42-.28.94-.23,1.3.09.43.39.47,1.04.0699,1.5Z"/>
</svg>