<svg width="24" height="24" viewBox="0 0 24 24" fill="none" xmlns="http://www.w3.org/2000/svg">
<g id="Icon">
<path id="Vector" d="M12.0132 2.25C12.7472 2.258 13.4782 2.343 14.1952 2.503C14.3477 2.53705 14.4858 2.6179 14.5902 2.73426C14.6945 2.85062 14.7599 2.99667 14.7772 3.152L14.9472 4.679C14.9712 4.89428 15.0454 5.10093 15.1638 5.28231C15.2823 5.46368 15.4416 5.61473 15.6291 5.72329C15.8165 5.83185 16.0268 5.89489 16.2431 5.90735C16.4593 5.9198 16.6755 5.88132 16.8742 5.795L18.2752 5.18C18.4174 5.11735 18.5756 5.10044 18.7279 5.13161C18.8802 5.16278 19.019 5.24049 19.1252 5.354C20.1371 6.43509 20.8907 7.73161 21.3292 9.146C21.3752 9.29464 21.3738 9.45389 21.3252 9.60171C21.2767 9.74953 21.1834 9.87858 21.0582 9.971L19.8162 10.887C19.6415 11.0153 19.4995 11.1829 19.4016 11.3763C19.3037 11.5696 19.2527 11.7833 19.2527 12C19.2527 12.2167 19.3037 12.4304 19.4016 12.6237C19.4995 12.8171 19.6415 12.9847 19.8162 13.113L21.0592 14.028C21.1847 14.1204 21.2784 14.2495 21.3271 14.3976C21.3759 14.5456 21.3773 14.7051 21.3312 14.854C20.8925 16.2683 20.139 17.5648 19.1272 18.646C19.0213 18.7593 18.8829 18.8369 18.731 18.8682C18.5791 18.8996 18.4213 18.8831 18.2792 18.821L16.8722 18.204C16.6738 18.117 16.4577 18.0779 16.2414 18.09C16.0251 18.102 15.8146 18.1648 15.6271 18.2733C15.4396 18.3817 15.2802 18.5328 15.1619 18.7143C15.0436 18.8958 14.9697 19.1026 14.9462 19.318L14.7772 20.844C14.7601 20.9976 14.696 21.1423 14.5937 21.2581C14.4913 21.3739 14.3556 21.4553 14.2052 21.491C12.7567 21.8356 11.2476 21.8356 9.79919 21.491C9.64879 21.4553 9.51311 21.3739 9.41072 21.2581C9.30833 21.1423 9.24423 20.9976 9.22719 20.844L9.05919 19.32C9.03469 19.1052 8.96014 18.8991 8.84151 18.7183C8.72288 18.5376 8.5635 18.3872 8.37617 18.2792C8.18884 18.1712 7.97879 18.1087 7.76291 18.0967C7.54703 18.0847 7.33135 18.1235 7.13319 18.21L5.72719 18.826C5.58497 18.8883 5.42692 18.9049 5.27485 18.8736C5.12278 18.8422 4.98418 18.7645 4.87819 18.651C3.8659 17.5686 3.11233 16.2707 2.67419 14.855C2.62809 14.7061 2.62951 14.5466 2.67825 14.3986C2.727 14.2505 2.82065 14.1214 2.94619 14.029L4.18919 13.113C4.36404 12.9848 4.50623 12.8173 4.60424 12.6239C4.70225 12.4305 4.75333 12.2168 4.75333 12C4.75333 11.7832 4.70225 11.5695 4.60424 11.3761C4.50623 11.1827 4.36404 11.0152 4.18919 10.887L2.94619 9.973C2.82083 9.88052 2.72738 9.75129 2.67881 9.60327C2.63025 9.45525 2.62898 9.29577 2.67519 9.147C3.11372 7.73262 3.86728 6.43611 4.87919 5.355C4.98538 5.24149 5.1242 5.16378 5.27648 5.13261C5.42875 5.10144 5.58695 5.11835 5.72919 5.181L7.12919 5.796C7.32821 5.88227 7.54469 5.92066 7.76124 5.90809C7.97779 5.89551 8.18837 5.83232 8.37606 5.7236C8.56376 5.61487 8.72334 5.46363 8.84198 5.28204C8.96062 5.10045 9.03502 4.89356 9.05919 4.678L9.22919 3.152C9.24635 2.99635 9.3118 2.84998 9.41635 2.73341C9.5209 2.61684 9.65932 2.53592 9.81219 2.502C10.5292 2.343 11.2622 2.259 12.0132 2.25ZM12.0132 3.75C11.5596 3.75533 11.107 3.79443 10.6592 3.867L10.5502 4.844C10.5003 5.29356 10.3454 5.7251 10.098 6.10379C9.85063 6.48248 9.51771 6.79772 9.1261 7.02409C8.73449 7.25045 8.29515 7.3816 7.84354 7.40694C7.39192 7.43229 6.94067 7.35112 6.52619 7.17L5.62819 6.776C5.05618 7.47012 4.6009 8.25268 4.28019 9.093L5.07819 9.68C5.44241 9.94767 5.73853 10.2973 5.94264 10.7006C6.14674 11.1039 6.25309 11.5495 6.25309 12.0015C6.25309 12.4535 6.14674 12.8991 5.94264 13.3024C5.73853 13.7057 5.44241 14.0553 5.07819 14.323L4.27919 14.911C4.59919 15.753 5.05519 16.537 5.62719 17.233L6.53219 16.836C6.94568 16.6555 7.39578 16.5745 7.84626 16.5997C8.29675 16.6249 8.73502 16.7555 9.12581 16.981C9.5166 17.2065 9.84898 17.5206 10.0962 17.898C10.3434 18.2755 10.4986 18.7057 10.5492 19.154L10.6592 20.138C11.5482 20.288 12.4572 20.288 13.3462 20.138L13.4562 19.154C13.506 18.7051 13.6606 18.2742 13.9076 17.896C14.1546 17.5179 14.4871 17.2031 14.8781 16.9771C15.2692 16.7511 15.7079 16.6202 16.1588 16.595C16.6098 16.5698 17.0604 16.651 17.4742 16.832L18.3792 17.228C18.9509 16.5335 19.4058 15.7506 19.7262 14.91L18.9282 14.322C18.564 14.0543 18.2678 13.7047 18.0637 13.3014C17.8596 12.8981 17.7533 12.4525 17.7533 12.0005C17.7533 11.5485 17.8596 11.1029 18.0637 10.6996C18.2678 10.2963 18.564 9.94667 18.9282 9.679L19.7242 9.092C19.4035 8.25168 18.9482 7.46912 18.3762 6.775L17.4802 7.168C17.0659 7.34935 16.6149 7.43075 16.1633 7.40562C15.7118 7.38049 15.2726 7.24953 14.881 7.02333C14.4894 6.79713 14.1565 6.48203 13.9092 6.10345C13.6619 5.72488 13.507 5.29345 13.4572 4.844L13.3472 3.868C12.9064 3.79593 12.4608 3.75682 12.0142 3.751L12.0132 3.75ZM12.0012 8.25C12.9958 8.25 13.9496 8.64509 14.6528 9.34835C15.3561 10.0516 15.7512 11.0054 15.7512 12C15.7512 12.9946 15.3561 13.9484 14.6528 14.6517C13.9496 15.3549 12.9958 15.75 12.0012 15.75C11.0066 15.75 10.0528 15.3549 9.34954 14.6517C8.64628 13.9484 8.25119 12.9946 8.25119 12C8.25119 11.0054 8.64628 10.0516 9.34954 9.34835C10.0528 8.64509 11.0066 8.25 12.0012 8.25ZM12.0012 9.75C11.4045 9.75 10.8322 9.98705 10.4102 10.409C9.98824 10.831 9.75119 11.4033 9.75119 12C9.75119 12.5967 9.98824 13.169 10.4102 13.591C10.8322 14.0129 11.4045 14.25 12.0012 14.25C12.5979 14.25 13.1702 14.0129 13.5922 13.591C14.0141 13.169 14.2512 12.5967 14.2512 12C14.2512 11.4033 14.0141 10.831 13.5922 10.409C13.1702 9.98705 12.5979 9.75 12.0012 9.75Z" fill="#41CC97"/>
</g>
</svg>
