<svg width="24" height="24" viewBox="0 0 24 24" fill="none" xmlns="http://www.w3.org/2000/svg">
<path d="M19.8449 4.27907H14.502V4.15412C14.502 3.53437 14.2348 2.94406 13.7695 2.53545C13.3034 2.12683 12.6844 1.93868 12.0704 2.01767L3.8772 3.08123C2.80718 3.21983 2 4.13904 2 5.21767V18.4787C2 19.5573 2.80718 20.4766 3.8772 20.6152L12.0704 21.678C12.163 21.6902 12.2557 21.6959 12.3483 21.6959C12.8682 21.6959 13.3745 21.5078 13.7695 21.1602C14.2348 20.7516 14.5027 20.1613 14.5027 19.5416V19.4173H19.8456C21.0334 19.4173 22 18.4507 22 17.2629V6.43347C22 5.24568 21.0327 4.27907 19.8449 4.27907ZM13.0657 19.5416C13.0657 19.7512 12.9788 19.943 12.8215 20.0816C12.665 20.2195 12.4661 20.2827 12.2557 20.2539L4.06248 19.1911C3.70557 19.1451 3.43627 18.8385 3.43627 18.4787V5.21767C3.43627 4.85789 3.70557 4.55196 4.06248 4.50528L12.2557 3.44245C12.288 3.43814 12.3196 3.43599 12.3512 3.43599C12.5242 3.43599 12.6887 3.49774 12.8215 3.6148C12.9788 3.75268 13.0657 3.94442 13.0657 4.15412V19.5416ZM20.563 17.2629C20.563 17.6586 20.2406 17.981 19.8449 17.981H14.502V12.552H16.8165L16.0804 13.2105C15.7846 13.4748 15.7601 13.9286 16.0244 14.2245C16.1666 14.3832 16.3627 14.4636 16.5601 14.4636C16.7303 14.4636 16.902 14.4033 17.0391 14.2805L19.1756 12.3681C19.1806 12.3638 19.182 12.3573 19.1871 12.3523C19.2388 12.3035 19.2768 12.2432 19.312 12.1814C19.3242 12.1599 19.3436 12.1426 19.3537 12.1196C19.3925 12.032 19.4147 11.9351 19.4147 11.8331C19.4147 11.7311 19.3925 11.6349 19.3537 11.5466C19.3436 11.5236 19.3242 11.5064 19.312 11.4848C19.2768 11.4223 19.2388 11.3627 19.1871 11.3139C19.182 11.3096 19.1806 11.3024 19.1756 11.2981L17.0391 9.38572C16.7433 9.12072 16.2901 9.14658 16.0251 9.44173C15.7609 9.7376 15.786 10.1915 16.0812 10.4557L16.8172 11.1143H14.5027V5.71534H19.8456C20.2413 5.71534 20.5637 6.03778 20.5637 6.43347L20.563 17.2629Z" fill="#41CC97"/>
</svg>
