<svg width="22" height="24" viewBox="0 0 22 24" fill="none" xmlns="http://www.w3.org/2000/svg">
<path fill-rule="evenodd" clip-rule="evenodd" d="M18.055 4.79605C18.055 3.70553 17.6157 2.66005 16.834 1.88909C16.0523 1.11813 14.9923 0.684814 13.8867 0.684814C12.155 0.684814 10.066 0.684814 8.33435 0.684814C7.22868 0.684814 6.16868 1.11813 5.38668 1.88909C4.60502 2.66005 4.16602 3.70553 4.16602 4.79605C4.16602 10.3118 4.16602 20.5479 4.16602 20.5479C4.16602 20.8096 4.31702 21.0483 4.55535 21.1631C4.79368 21.2781 5.07735 21.2492 5.28668 21.0884L11.1103 16.6211L16.934 21.0884C17.1433 21.2492 17.4273 21.2781 17.6657 21.1631C17.9037 21.0483 18.055 20.8096 18.055 20.5479V4.79605ZM16.666 4.79605V19.1474L11.5367 15.2127C11.286 15.0204 10.935 15.0204 10.684 15.2127L5.55502 19.1474V4.79605C5.55502 4.06914 5.84768 3.37183 6.36902 2.85764C6.89002 2.34344 7.59702 2.05479 8.33435 2.05479H13.8867C14.6237 2.05479 15.3307 2.34344 15.852 2.85764C16.3733 3.37183 16.666 4.06914 16.666 4.79605Z" fill="#41CC97"/>
</svg>
