<?xml version="1.0" encoding="UTF-8"?>
<svg id="Layer_1" data-name="Layer 1" xmlns="http://www.w3.org/2000/svg" viewBox="0 0 24 24">
  <defs>
    <style>
      .cls-1 {
        fill: none;
        stroke: #41cc97;
        stroke-miterlimit: 10;
        stroke-width: .65px;
      }

      .cls-2 {
        fill: #41cc97;
      }

      .cls-2, .cls-3 {
        stroke-width: 0px;
      }

      .cls-3 {
        fill: #fff;
      }
    </style>
  </defs>
  <circle class="cls-2" cx="12" cy="12" r="12"/>
  <g>
    <path class="cls-3" d="m15.8402,15.2237c.0879-.7721.1153-1.5563-.0106-2.3231-.675-4.1125-4.2358-7.2443-8.5326-7.2515h-2.1679v2.1679c.0072,4.2967,3.139,7.8575,7.2515,8.5326.7526.1235,1.5219.1041,2.2812.0327l5.2423-.8284c.1912-.022.3014.211.1631.3449l-4.782,4.678c-.1351.1308-.3593.0169-.3334-.1694l.8884-5.1836Z"/>
    <path class="cls-2" d="m7.0273,8.3511c0,.3507.2858.643.6365.643s.643-.2858.643-.643c0-.3507-.2858-.6365-.643-.6365-.3507,0-.6365.2858-.6365.6365Z"/>
    <line class="cls-1" x1="7.0354" y1="13.2209" x2="12.7009" y2="7.5539"/>
  </g>
</svg>