<svg width="311" height="182" viewBox="0 0 311 182" fill="none" xmlns="http://www.w3.org/2000/svg">
<rect width="311" height="182" rx="8" fill="#F6F6F6"/>
<path d="M82.0736 9.67772C81.9737 9.95629 80.6807 28.5313 80.6807 28.5313L90.9879 27.7482L92.5332 12.5055L82.0736 9.67772Z" fill="#455A64"/>
<path d="M80.6816 28.5322L79.6777 28.2484L81.1178 9.40527L82.1953 9.71012L80.6816 28.5322Z" fill="#263238"/>
<path d="M87.2662 13.4196C87.2662 13.5059 87.2917 13.5903 87.3397 13.662C87.3876 13.7337 87.4557 13.7897 87.5355 13.8227C87.6152 13.8557 87.7029 13.8643 87.7875 13.8475C87.8721 13.8307 87.9499 13.7891 88.0109 13.7281C88.0719 13.6671 88.1135 13.5894 88.1303 13.5047C88.1471 13.4201 88.1385 13.3324 88.1055 13.2527C88.0724 13.173 88.0165 13.1048 87.9448 13.0569C87.873 13.009 87.7887 12.9834 87.7024 12.9834C87.5867 12.9834 87.4758 13.0293 87.3939 13.1112C87.3121 13.193 87.2662 13.3039 87.2662 13.4196Z" fill="#263238"/>
<path d="M55.1049 18.0088C55.1654 18.1606 55.1792 18.327 55.1445 18.4866C55.1098 18.6463 55.0282 18.792 54.9101 18.9049C54.7921 19.0179 54.643 19.093 54.482 19.1206C54.3209 19.1483 54.1553 19.1272 54.0064 19.0601C53.4808 18.8183 53.3441 18.0772 53.4177 17.4832C53.4913 16.8893 53.6595 16.2428 53.3809 15.7067C53.1108 15.3324 52.7804 15.0056 52.4033 14.7395C52.1056 14.4677 51.8744 14.131 51.7276 13.7555C51.5809 13.3799 51.5225 12.9757 51.557 12.574C51.6041 12.1725 51.7609 11.7918 52.0104 11.4737C52.2598 11.1556 52.5922 10.9125 52.9709 10.7712C53.7436 10.5084 54.7317 10.6976 55.2889 10.0932C55.6936 9.6569 55.6831 8.97361 55.9827 8.46377C56.4557 7.66484 57.528 7.48613 58.453 7.55972C59.3781 7.6333 60.3189 7.88034 61.202 7.60702C61.9378 7.38101 62.5265 6.82386 63.2098 6.46645C63.9562 6.07297 64.807 5.92292 65.6429 6.03734C66.4788 6.15176 67.258 6.52491 67.8712 7.10448C68.4844 7.68404 68.9008 8.44097 69.0621 9.26914C69.2235 10.0973 69.1216 10.9552 68.7708 11.7225C68.5412 12.285 68.1205 12.7485 67.5829 13.0313" fill="#263238"/>
<path d="M56.0192 33.7038L64.7233 33.0099C64.7759 31.9955 64.7233 28.064 64.7233 28.064C64.7233 28.064 68.3447 27.4963 68.4026 23.8591C68.4604 20.2219 67.8191 11.9225 67.8191 11.9225C65.7625 11.0362 63.5065 10.715 61.2843 10.9922C59.062 11.2694 56.9541 12.1349 55.1782 13.4993L54.6526 13.9146L56.0192 33.7038Z" fill="#FFBE9D"/>
<path d="M66.9524 18.1561C66.8751 18.0864 66.8203 17.9953 66.7949 17.8945C66.7694 17.7936 66.7744 17.6874 66.8093 17.5894C66.8442 17.4914 66.9075 17.406 66.991 17.3439C67.0745 17.2819 67.1745 17.246 67.2784 17.2408C67.3823 17.2357 67.4854 17.2615 67.5746 17.315C67.6639 17.3684 67.7353 17.4472 67.7797 17.5413C67.8241 17.6353 67.8397 17.7404 67.8243 17.8433C67.809 17.9462 67.7634 18.0423 67.6935 18.1193C67.5999 18.2222 67.4695 18.2839 67.3305 18.2908C67.1916 18.2977 67.0556 18.2492 66.9524 18.1561Z" fill="#263238"/>
<path d="M67.8334 17.3308C67.7756 17.3939 67.4182 17.1206 66.9188 17.1153C66.4195 17.1101 66.0621 17.3729 66.0043 17.3045C65.9465 17.2362 66.0358 17.1679 66.1935 17.047C66.4046 16.8909 66.6616 16.8096 66.9241 16.8157C67.186 16.8191 67.44 16.9056 67.6494 17.0628C67.8071 17.1889 67.8597 17.2993 67.8334 17.3308Z" fill="#263238"/>
<path d="M62.0908 17.7612C62.179 17.8158 62.2492 17.8953 62.2923 17.9898C62.3355 18.0842 62.3497 18.1893 62.3332 18.2917C62.3167 18.3942 62.2702 18.4895 62.1996 18.5656C62.129 18.6417 62.0374 18.6952 61.9365 18.7194C61.8355 18.7435 61.7297 18.7372 61.6323 18.7013C61.5349 18.6654 61.4503 18.6014 61.3892 18.5175C61.3282 18.4335 61.2933 18.3334 61.2891 18.2297C61.2848 18.1259 61.3114 18.0233 61.3654 17.9346C61.4015 17.8755 61.4489 17.824 61.505 17.7832C61.561 17.7424 61.6246 17.7131 61.692 17.697C61.7594 17.6809 61.8294 17.6782 61.8978 17.6893C61.9662 17.7003 62.0318 17.7247 62.0908 17.7612Z" fill="#263238"/>
<path d="M62.4154 17.767C62.3576 17.8301 62.0054 17.5568 61.5061 17.5568C61.0068 17.5568 60.6441 17.8091 60.5915 17.746C60.539 17.6829 60.6178 17.6041 60.7755 17.4832C60.9909 17.3318 61.2481 17.251 61.5114 17.2519C61.7742 17.2546 62.029 17.3432 62.2367 17.5042C62.3891 17.6251 62.4417 17.7407 62.4154 17.767Z" fill="#263238"/>
<path d="M64.4186 21.8821C64.6746 21.7782 64.9467 21.7195 65.2228 21.7087C65.3542 21.7087 65.4541 21.6666 65.4646 21.5983C65.4707 21.4673 65.4378 21.3374 65.37 21.2251C65.2438 20.894 65.1124 20.5576 64.9758 20.2107C64.6044 19.3528 64.3191 18.4601 64.1243 17.5459C64.5821 18.3613 64.9572 19.2206 65.2438 20.1108C65.37 20.463 65.4961 20.7994 65.617 21.1305C65.6966 21.2936 65.7206 21.4782 65.6853 21.6561C65.6685 21.7065 65.6395 21.752 65.6011 21.7887C65.5626 21.8253 65.5157 21.852 65.4646 21.8664C65.391 21.8866 65.3148 21.8955 65.2386 21.8926C64.9666 21.936 64.6893 21.9324 64.4186 21.8821Z" fill="#263238"/>
<path d="M62.7948 22.4345C63.576 22.7792 64.3997 23.0179 65.2441 23.1441C65.0711 23.402 64.8162 23.5941 64.5206 23.6895C64.225 23.7849 63.9059 23.7779 63.6148 23.6697C62.532 23.2965 62.7948 22.4345 62.7948 22.4345Z" fill="white"/>
<path d="M64.7129 28.0008C63.0372 28.0336 61.3899 27.5651 59.9824 26.6552C59.9824 26.6552 61.0967 29.2833 64.7129 28.9364V28.0008Z" fill="#EB996E"/>
<path d="M67.8613 12.8415C67.8613 12.8415 65.7589 14.0714 62.7787 12.8415C60.8339 12.0478 58.6159 11.7483 58.1586 12.1635C57.7013 12.5787 57.7486 14.5182 55.93 15.2173C55.93 15.2173 56.3294 18.8965 54.8472 18.8965C53.365 18.8965 53.8643 13.1148 53.8643 13.1148L57.3334 11.0912L61.2071 10.04L64.9442 10.2923L67.8613 10.86V12.8415Z" fill="#263238"/>
<path d="M55.0514 17.6874C54.9936 17.6559 52.5653 16.9516 52.6442 19.4272C52.723 21.9028 55.1934 21.3089 55.1934 21.2405C55.1934 21.1722 55.0514 17.6874 55.0514 17.6874Z" fill="#FFBE9D"/>
<path d="M54.411 20.3261C54.411 20.3261 54.3689 20.3576 54.2953 20.3944C54.1919 20.4331 54.0781 20.4331 53.9747 20.3944C53.8103 20.2996 53.6747 20.1621 53.5822 19.9965C53.4896 19.8308 53.4436 19.6432 53.4491 19.4536C53.4345 19.2419 53.4687 19.0297 53.549 18.8334C53.5694 18.7549 53.6089 18.6827 53.6639 18.6231C53.7189 18.5635 53.7877 18.5184 53.8643 18.4917C53.9133 18.4752 53.9666 18.4774 54.0142 18.4977C54.0617 18.5181 54.1 18.5552 54.1219 18.6021C54.1587 18.6704 54.1219 18.7177 54.1586 18.723C54.1954 18.7282 54.206 18.6809 54.185 18.5758C54.1693 18.5154 54.1342 18.4618 54.0851 18.4234C54.0504 18.3988 54.0111 18.3814 53.9696 18.3724C53.928 18.3634 53.8851 18.3628 53.8433 18.3708C53.7423 18.3936 53.6488 18.4418 53.5715 18.5108C53.4943 18.5797 53.4358 18.6672 53.4018 18.765C53.3047 18.9847 53.2614 19.2243 53.2756 19.4641C53.2699 19.6851 53.3297 19.9029 53.4476 20.09C53.5654 20.2771 53.736 20.4251 53.9379 20.5153C54.0052 20.5335 54.0759 20.5358 54.1442 20.5221C54.2126 20.5084 54.2769 20.4791 54.3321 20.4365C54.4057 20.3839 54.4162 20.3313 54.411 20.3261Z" fill="#EB996E"/>
<path d="M53.3751 10.0142C53.3751 10.0931 53.7588 10.0563 54.174 10.1877C54.5893 10.3191 54.8731 10.5556 54.9309 10.5031C54.9887 10.4505 54.7522 10.0826 54.2529 9.93013C53.7536 9.77771 53.3436 9.9459 53.3751 10.0142Z" fill="#263238"/>
<path d="M54.7778 8.4746C54.6191 8.84723 54.5949 9.26347 54.7095 9.65197C54.8409 10.3195 55.2351 10.7032 55.3086 10.6717C55.3822 10.6401 55.0879 10.1933 54.9775 9.62043C54.8671 9.04752 54.8619 8.4746 54.7778 8.4746Z" fill="#263238"/>
<path d="M65.4058 16.5164C65.4847 16.6531 65.9577 16.5164 66.5306 16.5164C67.1035 16.5164 67.5818 16.569 67.6449 16.427C67.708 16.2851 67.2192 15.9382 66.5044 15.9698C65.7895 16.0013 65.327 16.3902 65.4058 16.5164Z" fill="#263238"/>
<path d="M59.8544 16.0532C59.928 16.1846 60.3801 16.0532 60.974 16.0532C61.5679 16.0532 62.0252 16.1057 62.0883 15.9638C62.1514 15.8219 61.6625 15.4698 60.9477 15.5066C60.2329 15.5433 59.7703 15.927 59.8544 16.0532Z" fill="#263238"/>
<path d="M39.3613 169.043L38.4993 172.665C38.4993 172.665 32.5704 180.365 30.7466 179.987C29.5482 179.74 31.0199 177.732 33.2748 171.887L33.7478 169.469L39.3613 169.043Z" fill="#41CC97"/>
<path d="M30.5052 178.851C30.5136 178.891 30.5297 178.928 30.5525 178.961C30.6134 179.059 30.6985 179.138 30.7995 179.193C30.9606 179.279 31.1426 179.319 31.3251 179.308C31.5666 179.284 31.798 179.199 31.9979 179.061C33.0561 178.203 34.0536 177.272 34.9834 176.276C35.9124 175.288 36.7896 174.253 37.6114 173.174C37.9268 172.759 38.1738 172.418 38.342 172.176L38.5312 171.897C38.5733 171.834 38.5943 171.797 38.589 171.797L38.5102 171.887L38.3052 172.149C38.0897 172.433 37.8374 172.754 37.5484 173.127C36.9019 173.942 35.9715 175.051 34.8835 176.202C33.9558 177.19 32.9712 178.124 31.9348 178.998C31.7776 179.125 31.589 179.206 31.389 179.234C31.1891 179.262 30.9853 179.235 30.7995 179.156C30.6747 179.084 30.5727 178.978 30.5052 178.851Z" fill="#263238"/>
<path d="M31.3416 176.375C31.3416 176.375 31.5308 176.375 31.8251 176.401C32.1988 176.462 32.5564 176.598 32.8763 176.8C33.2089 176.993 33.4845 177.271 33.6753 177.604C33.8172 177.862 33.854 178.046 33.875 178.041C33.8667 177.875 33.8219 177.714 33.7436 177.568C33.5648 177.208 33.283 176.91 32.9342 176.711C32.5963 176.496 32.213 176.363 31.8146 176.322C31.655 176.302 31.4928 176.32 31.3416 176.375Z" fill="#263238"/>
<path d="M36.9555 174.568C36.9555 174.568 36.8924 174.305 36.8451 173.884C36.7856 173.341 36.888 172.792 37.1395 172.307C37.3885 171.816 37.7856 171.415 38.2748 171.162C38.4822 171.068 38.6966 170.991 38.916 170.93C38.855 170.921 38.793 170.921 38.7321 170.93C38.5632 170.96 38.399 171.011 38.2433 171.083C37.7236 171.323 37.301 171.732 37.0448 172.244C36.7796 172.751 36.6821 173.329 36.7663 173.895C36.791 174.064 36.8297 174.231 36.8819 174.394C36.8982 174.455 36.923 174.513 36.9555 174.568Z" fill="#263238"/>
<path d="M38.9829 169.658C38.8209 170.018 38.7129 170.401 38.6623 170.793C38.5519 171.434 38.431 171.944 38.4573 171.955C38.6152 171.591 38.7197 171.207 38.7674 170.814C38.8778 170.173 39.0092 169.668 38.9829 169.658Z" fill="#263238"/>
<path d="M33.1718 172.396C33.1718 172.427 33.5082 172.396 33.9076 172.511C34.3071 172.627 34.6014 172.758 34.6172 172.732C34.4249 172.558 34.1853 172.444 33.9286 172.406C33.6826 172.33 33.4198 172.326 33.1718 172.396Z" fill="#263238"/>
<path d="M33.0496 173.017C33.0496 173.048 33.3335 173.017 33.6646 173.101C33.9957 173.185 34.2323 173.332 34.248 173.306C34.1055 173.136 33.9051 173.026 33.6856 172.996C33.4781 172.925 33.2521 172.933 33.0496 173.017Z" fill="#263238"/>
<path d="M32.5761 173.794C33.0049 173.727 33.4432 173.826 33.8008 174.072C33.7378 173.976 33.6552 173.893 33.5583 173.831C33.4613 173.768 33.3523 173.727 33.2384 173.71C33.1285 173.675 33.0123 173.664 32.898 173.679C32.7836 173.693 32.6738 173.732 32.5761 173.794Z" fill="#263238"/>
<path d="M33.5756 172.139C33.6431 172.14 33.7104 172.131 33.7753 172.113C33.9538 172.079 34.1295 172.031 34.301 171.971C34.5551 171.884 34.8014 171.775 35.0368 171.645C35.1668 171.575 35.2931 171.497 35.4152 171.414C35.4975 171.368 35.5675 171.303 35.6196 171.224C35.6717 171.146 35.7044 171.056 35.7148 170.962C35.7066 170.912 35.6878 170.865 35.6598 170.823C35.6317 170.781 35.595 170.746 35.5522 170.72C35.5094 170.693 35.4614 170.677 35.4115 170.67C35.3615 170.664 35.3109 170.668 35.2628 170.683C35.1036 170.738 34.962 170.834 34.8528 170.962C34.6373 171.172 34.4534 171.377 34.3272 171.551C34.2011 171.724 34.0749 171.882 34.0014 171.987C33.9605 172.04 33.9269 172.098 33.9015 172.16C33.9015 172.16 34.0854 171.94 34.3903 171.603C34.5375 171.435 34.7267 171.235 34.9422 171.03C35.0424 170.92 35.169 170.837 35.3101 170.788C35.4468 170.752 35.6202 170.825 35.6255 170.967C35.6308 171.109 35.4941 171.241 35.3784 171.33C35.2628 171.419 35.1104 171.509 34.9842 171.582C34.7536 171.711 34.5149 171.826 34.2694 171.924C33.8384 172.06 33.5756 172.118 33.5756 172.139Z" fill="#263238"/>
<path d="M33.8903 172.06C33.8959 172.001 33.8959 171.941 33.8903 171.881C33.8903 171.766 33.8903 171.597 33.8483 171.387C33.8205 171.142 33.7586 170.901 33.6643 170.672C33.6038 170.536 33.5241 170.408 33.4278 170.294C33.3779 170.22 33.3045 170.165 33.2196 170.139C33.1346 170.112 33.0431 170.115 32.96 170.147C32.8903 170.2 32.8377 170.273 32.8087 170.356C32.7798 170.439 32.7757 170.529 32.7971 170.615C32.8225 170.761 32.8667 170.905 32.9285 171.04C33.0321 171.266 33.1744 171.473 33.3489 171.65C33.4663 171.767 33.5928 171.874 33.7274 171.971C33.773 172.011 33.8268 172.042 33.8851 172.06C33.8851 172.06 33.6801 171.902 33.4068 171.597C33.2463 171.419 33.115 171.217 33.0178 170.998C32.9628 170.872 32.9239 170.74 32.9022 170.604C32.9022 170.467 32.9022 170.299 33.0125 170.241C33.1229 170.184 33.2596 170.241 33.3489 170.368C33.4377 170.473 33.5119 170.589 33.5697 170.714C33.6692 170.933 33.7382 171.165 33.7747 171.403C33.7965 171.625 33.8352 171.844 33.8903 172.06Z" fill="#263238"/>
<path opacity="0.4" d="M38.5008 172.664L38.916 170.924C38.916 170.924 37.4653 171.192 37.0869 172.28C36.8662 172.875 36.7714 173.508 36.8083 174.141L33.6547 177.542C33.6547 177.542 32.861 175.965 31.4261 176.364C31.4261 176.364 30.3013 178.845 30.3328 179.471C30.3644 180.096 31.0897 179.996 31.3473 179.896C32.3914 179.292 33.3436 178.542 34.175 177.668C35.8412 175.933 37.6914 173.731 38.5008 172.664Z" fill="#141F1E"/>
<path d="M68.8274 170.887V166.057L59.7763 165.947L59.6607 173.016L60.2179 173.058C62.7145 173.226 72.9218 173.742 74.5985 173.258C76.496 172.701 68.8274 170.887 68.8274 170.887Z" fill="#41CC97"/>
<g opacity="0.4">
<path d="M62.9668 172.991C62.8419 172.226 62.4397 171.534 61.8368 171.047C61.2464 170.563 60.496 170.32 59.7343 170.363L59.7028 172.897L62.9668 172.991Z" fill="#141F1E"/>
</g>
<path opacity="0.4" d="M72.5702 171.902C72.5702 171.902 75.2613 172.711 74.9144 173.148C74.5675 173.584 64.2393 173.458 59.6718 173V172.801L71.724 173.053C71.724 173.053 72.0446 171.939 72.5702 171.902Z" fill="#141F1E"/>
<path d="M59.5616 172.79H59.714L60.1608 172.822L61.806 172.917C63.1989 172.98 65.1173 173.048 67.2408 173.08C69.3642 173.111 71.2827 173.08 72.6703 173.08L74.3208 173.032H74.7675H74.9199C74.8694 173.024 74.818 173.024 74.7675 173.032H74.3102H72.6598C71.2722 173.032 69.3485 173.032 67.2303 173.032C65.1121 173.032 63.1883 172.948 61.8007 172.901L60.1556 172.843H59.7088L59.5616 172.79Z" fill="#263238"/>
<path d="M71.7557 173.195C71.8292 172.924 71.9351 172.663 72.071 172.417C72.2365 172.188 72.4269 171.978 72.6387 171.791C72.3568 171.892 72.1214 172.092 71.9764 172.354C71.7997 172.596 71.7208 172.897 71.7557 173.195Z" fill="#263238"/>
<path d="M69.1015 171.808C69.1015 171.808 69.2539 171.671 69.3906 171.466C69.5272 171.261 69.6113 171.077 69.585 171.061C69.5588 171.045 69.4326 171.198 69.296 171.403C69.1593 171.608 69.0542 171.792 69.1015 171.808Z" fill="#263238"/>
<path d="M68.3699 171.413C68.3699 171.439 68.5329 171.345 68.6906 171.208C68.8482 171.072 68.9639 170.94 68.9428 170.914C68.9218 170.888 68.7799 170.987 68.6222 171.124C68.4645 171.261 68.3489 171.413 68.3699 171.413Z" fill="#263238"/>
<path d="M67.9191 170.552C68.0707 170.605 68.2318 170.627 68.3922 170.615C68.551 170.636 68.7126 170.622 68.8652 170.573C68.7144 170.516 68.5529 170.492 68.3922 170.504C68.2329 170.484 68.0711 170.5 67.9191 170.552Z" fill="#263238"/>
<path d="M67.7671 169.947C67.9228 170.05 68.1058 170.105 68.2927 170.104C68.4704 170.132 68.6523 170.11 68.8184 170.041C68.6451 170.009 68.4691 169.993 68.2927 169.994C68.1193 169.963 67.9434 169.947 67.7671 169.947Z" fill="#263238"/>
<path d="M69.4176 171.019C69.6104 171.055 69.8082 171.055 70.001 171.019C70.2147 170.994 70.4257 170.95 70.6317 170.888C70.755 170.851 70.8746 170.804 70.9892 170.746C71.0575 170.706 71.1082 170.643 71.1311 170.567C71.1427 170.524 71.1409 170.478 71.1259 170.436C71.1109 170.393 71.0833 170.357 71.047 170.331C70.827 170.215 70.5733 170.182 70.3309 170.235C70.0884 170.289 69.8729 170.427 69.7224 170.625C69.6336 170.741 69.5676 170.873 69.528 171.014C69.5175 171.066 69.5175 171.12 69.528 171.172C69.5886 170.992 69.6812 170.824 69.8013 170.677C69.9391 170.52 70.1229 170.41 70.3269 170.362C70.556 170.287 70.8055 170.306 71.0207 170.415C71.11 170.488 71.0733 170.593 70.9734 170.656C70.8676 170.711 70.7567 170.755 70.6423 170.788C70.447 170.854 70.2466 170.903 70.0431 170.935C69.6383 171.003 69.4176 171.003 69.4176 171.019Z" fill="#263238"/>
<path d="M69.5801 171.05C69.6495 170.93 69.6737 170.788 69.6485 170.651C69.6335 170.497 69.5812 170.349 69.4961 170.22C69.4482 170.134 69.3792 170.061 69.2955 170.008C69.2119 169.956 69.1163 169.926 69.0177 169.92C68.959 169.932 68.9071 169.966 68.8728 170.015C68.8385 170.064 68.8245 170.124 68.8338 170.183C68.8449 170.277 68.8773 170.367 68.9284 170.446C69.0034 170.577 69.0953 170.697 69.2017 170.803C69.2895 170.908 69.4013 170.989 69.5276 171.04C69.5276 171.04 69.412 170.935 69.2543 170.751C69.1629 170.642 69.0835 170.524 69.0177 170.399C68.9389 170.273 68.8863 170.052 69.0177 170.025C69.1491 169.999 69.3121 170.162 69.3962 170.278C69.4779 170.392 69.5335 170.523 69.5591 170.661C69.5773 170.79 69.5843 170.92 69.5801 171.05Z" fill="#263238"/>
<path d="M59.7772 170.32C60.0002 170.316 60.2232 170.327 60.4448 170.352C60.9773 170.418 61.4804 170.633 61.8961 170.972C62.3117 171.311 62.6231 171.761 62.7943 172.27C62.9257 172.659 62.9362 172.922 62.9572 172.916C62.9674 172.857 62.9674 172.797 62.9572 172.738C62.9459 172.57 62.9159 172.405 62.8678 172.244C62.713 171.709 62.3993 171.235 61.9684 170.883C61.5376 170.531 61.0098 170.318 60.4553 170.273C60.2893 170.256 60.122 170.256 59.956 170.273C59.8403 170.294 59.7772 170.309 59.7772 170.32Z" fill="#263238"/>
<path d="M60.7654 166.562C60.6568 167.799 60.6252 169.042 60.6708 170.283C60.7723 169.046 60.8039 167.803 60.7654 166.562Z" fill="#263238"/>
<path d="M64.1179 172.102C64.5497 172.207 64.993 172.256 65.4372 172.249C65.8807 172.278 66.3261 172.248 66.7617 172.16C66.7617 172.128 66.1678 172.16 65.4424 172.16C64.7171 172.16 64.1231 172.07 64.1179 172.102Z" fill="#263238"/>
<path d="M62.3477 172.076C62.3477 172.076 62.395 172.202 62.4528 172.339C62.5106 172.475 62.5421 172.596 62.5737 172.596C62.6052 172.596 62.621 172.454 62.5737 172.297C62.5264 172.139 62.3634 172.055 62.3477 172.076Z" fill="#263238"/>
<path d="M61.6944 171.235C61.6944 171.235 61.7312 171.351 61.8258 171.45C61.9204 171.55 62.0098 171.608 62.0308 171.587C62.0519 171.566 61.994 171.466 61.9047 171.372C61.8153 171.277 61.6944 171.214 61.6944 171.235Z" fill="#263238"/>
<path d="M60.7325 170.846C60.7325 170.877 60.8587 170.877 60.9953 170.924C61.132 170.972 61.2214 171.045 61.2424 171.024C61.2634 171.003 61.1951 170.877 61.0269 170.819C60.8587 170.762 60.7273 170.814 60.7325 170.846Z" fill="#263238"/>
<path d="M60.0554 170.657C60.0554 170.683 60.0974 170.73 60.171 170.762C60.2446 170.794 60.3182 170.794 60.3287 170.762C60.3393 170.73 60.2867 170.683 60.2131 170.657C60.1395 170.631 60.0659 170.631 60.0554 170.657Z" fill="#263238"/>
<path d="M74.9883 74.8894L70.7624 168.79L56.6655 169.084L59.0045 90.4738L43.1469 169.688H29.7438L47.6461 74.8894" fill="#263238"/>
<path d="M43.8457 168.412L43.5251 169.8L29.7436 169.984L29.9538 167.813L43.8457 168.412Z" fill="#455A64"/>
<path d="M33.1181 168.328C33.0446 168.328 32.9552 168.48 32.9184 168.696C32.8816 168.911 32.9184 169.095 32.992 169.105C33.0656 169.116 33.1549 168.953 33.1917 168.738C33.2285 168.522 33.197 168.343 33.1181 168.328Z" fill="#455A64"/>
<path d="M33.6382 165.253C33.5593 165.253 33.4437 165.579 33.3701 166C33.2965 166.42 33.3018 166.778 33.3701 166.793C33.4384 166.809 33.5646 166.473 33.6382 166.047C33.7118 165.621 33.7118 165.269 33.6382 165.253Z" fill="#455A64"/>
<path d="M34.1538 162.178C34.0802 162.178 33.9593 162.504 33.891 162.925C33.8227 163.345 33.8174 163.708 33.891 163.718C33.9646 163.729 34.0802 163.398 34.1538 162.972C34.2274 162.546 34.2274 162.194 34.1538 162.178Z" fill="#455A64"/>
<path d="M34.6694 159.103C34.5958 159.103 34.4749 159.429 34.4066 159.849C34.3383 160.27 34.3383 160.633 34.4066 160.643C34.4749 160.654 34.6011 160.322 34.6694 159.897C34.7377 159.471 34.743 159.119 34.6694 159.103Z" fill="#455A64"/>
<path d="M35.189 156.028C35.1154 156.028 34.9945 156.354 34.9209 156.774C34.8473 157.195 34.8526 157.557 34.9209 157.568C34.9892 157.578 35.1154 157.247 35.189 156.822C35.2625 156.396 35.2625 156.044 35.189 156.028Z" fill="#455A64"/>
<path d="M35.7045 152.954C35.6309 152.954 35.5153 153.274 35.4417 153.7C35.3681 154.126 35.3734 154.478 35.4417 154.494C35.51 154.509 35.6362 154.173 35.7045 153.747C35.7728 153.322 35.7833 152.969 35.7045 152.954Z" fill="#455A64"/>
<path d="M36.224 149.863C36.1505 149.863 36.0348 150.183 35.9612 150.609C35.8876 151.035 35.8929 151.387 35.9612 151.403C36.0296 151.419 36.1557 151.082 36.224 150.656C36.2924 150.231 36.3029 149.894 36.224 149.863Z" fill="#455A64"/>
<path d="M36.7495 146.804C36.6759 146.804 36.555 147.13 36.4815 147.551C36.4079 147.971 36.4131 148.334 36.4815 148.344C36.5498 148.355 36.6759 148.024 36.7495 147.598C36.8231 147.172 36.8231 146.82 36.7495 146.804Z" fill="#455A64"/>
<path d="M37.2709 143.73C37.1974 143.73 37.0817 144.056 37.0081 144.476C36.9346 144.897 36.9346 145.254 37.0081 145.27C37.0817 145.286 37.1974 144.949 37.2709 144.524C37.3445 144.098 37.3498 143.746 37.2709 143.73Z" fill="#455A64"/>
<path d="M37.8003 140.66C37.7214 140.66 37.6058 140.98 37.5322 141.401C37.4587 141.821 37.4587 142.184 37.5322 142.195C37.6058 142.205 37.7267 141.874 37.8003 141.448C37.8739 141.022 37.8739 140.67 37.8003 140.66Z" fill="#455A64"/>
<path d="M38.3276 137.586C38.254 137.586 38.1332 137.906 38.0596 138.332C37.986 138.758 37.9913 139.11 38.0596 139.12C38.1279 139.131 38.254 138.8 38.3276 138.374C38.4012 137.948 38.4012 137.596 38.3276 137.586Z" fill="#455A64"/>
<path d="M38.8569 134.51C38.7833 134.51 38.6624 134.831 38.5889 135.257C38.5153 135.682 38.5153 136.035 38.5889 136.045C38.6624 136.056 38.7833 135.724 38.8569 135.304C38.9305 134.884 38.9305 134.526 38.8569 134.51Z" fill="#455A64"/>
<path d="M39.3881 131.467C39.3146 131.467 39.1937 131.783 39.1201 132.208C39.0465 132.634 39.0465 132.986 39.1201 133.002C39.1937 133.018 39.3146 132.682 39.3881 132.256C39.4617 131.83 39.467 131.467 39.3881 131.467Z" fill="#455A64"/>
<path d="M39.9292 128.366C39.8503 128.366 39.7294 128.686 39.6559 129.112C39.5823 129.538 39.5823 129.89 39.6559 129.901C39.7294 129.911 39.8556 129.58 39.9292 129.159C40.0028 128.739 40.0028 128.382 39.9292 128.366Z" fill="#455A64"/>
<path d="M40.4663 125.297C40.3927 125.297 40.2718 125.617 40.1982 126.038C40.1246 126.458 40.1246 126.816 40.1982 126.831C40.2718 126.847 40.3927 126.511 40.4663 126.085C40.5399 125.659 40.5399 125.307 40.4663 125.297Z" fill="#455A64"/>
<path d="M41.0118 122.221C40.9382 122.221 40.8121 122.542 40.7385 122.968C40.6649 123.393 40.6649 123.746 40.7385 123.756C40.8121 123.767 40.933 123.441 41.0066 123.015C41.0801 122.589 41.0854 122.237 41.0118 122.221Z" fill="#455A64"/>
<path d="M41.5587 119.152C41.4851 119.152 41.359 119.473 41.2854 119.898C41.2118 120.324 41.2065 120.676 41.2854 120.687C41.3642 120.697 41.4799 120.366 41.5534 119.946C41.627 119.525 41.6323 119.168 41.5587 119.152Z" fill="#455A64"/>
<path d="M42.1108 116.083C42.0372 116.083 41.9111 116.403 41.8375 116.829C41.7639 117.255 41.7587 117.607 41.8375 117.617C41.9163 117.628 42.0372 117.297 42.1108 116.876C42.1844 116.456 42.1844 116.098 42.1108 116.083Z" fill="#455A64"/>
<path d="M42.6628 113.012C42.5892 113.012 42.4683 113.333 42.3895 113.759C42.3106 114.184 42.3106 114.537 42.3895 114.547C42.4683 114.558 42.5892 114.232 42.668 113.806C42.7469 113.38 42.7416 113.028 42.6628 113.012Z" fill="#455A64"/>
<path d="M43.226 109.949C43.1524 109.949 43.0263 110.264 42.9527 110.69C42.8791 111.116 42.8686 111.468 42.9527 111.478C43.0368 111.489 43.1472 111.163 43.226 110.737C43.3049 110.312 43.2996 109.959 43.226 109.949Z" fill="#455A64"/>
<path d="M43.7931 106.879C43.7143 106.879 43.5934 107.199 43.5145 107.62C43.4357 108.04 43.4304 108.398 43.5145 108.413C43.5986 108.429 43.709 108.093 43.7878 107.672C43.8667 107.252 43.8667 106.894 43.7931 106.879Z" fill="#455A64"/>
<path d="M44.3496 103.814C44.276 103.814 44.1498 104.129 44.071 104.555C43.9922 104.981 43.9922 105.333 44.071 105.344C44.1498 105.354 44.2655 105.028 44.3443 104.603C44.4232 104.177 44.4337 103.825 44.3496 103.814Z" fill="#455A64"/>
<path d="M44.9389 100.75C44.8601 100.75 44.7392 101.065 44.6604 101.491C44.5815 101.917 44.5763 102.269 44.6604 102.279C44.7445 102.29 44.8601 101.964 44.9389 101.538C45.0178 101.112 45.0125 100.76 44.9389 100.75Z" fill="#455A64"/>
<path d="M45.517 97.6862C45.4435 97.6862 45.3173 98.0016 45.2385 98.4273C45.1596 98.8531 45.1544 99.2 45.2385 99.2158C45.3226 99.2315 45.4382 98.9004 45.517 98.4746C45.5959 98.0489 45.5906 97.6967 45.517 97.6862Z" fill="#455A64"/>
<path d="M46.106 94.6218C46.0324 94.6218 45.9062 94.9372 45.8274 95.3629C45.7485 95.7886 45.738 96.1408 45.8274 96.1513C45.9167 96.1618 46.0271 95.836 46.1112 95.4155C46.1953 94.995 46.1795 94.6376 46.106 94.6218Z" fill="#455A64"/>
<path d="M46.7006 91.5632C46.627 91.5632 46.5008 91.8786 46.4168 92.2991C46.3327 92.7196 46.3274 93.077 46.4168 93.0927C46.5061 93.1085 46.6165 92.7774 46.7006 92.3516C46.7847 91.9259 46.7742 91.5737 46.7006 91.5632Z" fill="#455A64"/>
<path d="M47.3032 88.4988C47.2296 88.4988 47.0982 88.8141 47.0194 89.2399C46.9406 89.6656 46.9248 90.0178 47.0194 90.0283C47.114 90.0388 47.2244 89.7129 47.3085 89.2924C47.3926 88.872 47.3768 88.5145 47.3032 88.4988Z" fill="#455A64"/>
<path d="M47.9142 85.4392C47.8406 85.4392 47.7092 85.7546 47.6251 86.1803C47.541 86.6061 47.5305 86.953 47.6251 86.9687C47.7197 86.9845 47.8248 86.6534 47.9089 86.2329C47.993 85.8124 47.9878 85.455 47.9142 85.4392Z" fill="#455A64"/>
<path d="M48.5287 82.3855C48.4551 82.3855 48.3237 82.7009 48.2396 83.1214C48.1555 83.5418 48.145 83.8993 48.2396 83.915C48.3342 83.9308 48.4446 83.5997 48.5287 83.1739C48.6128 82.7482 48.6023 82.4013 48.5287 82.3855Z" fill="#455A64"/>
<path d="M49.1541 79.3269C49.0805 79.3269 48.9491 79.6423 48.865 80.0628C48.7809 80.4833 48.7651 80.8407 48.8387 80.8564C48.9123 80.8722 49.0437 80.5411 49.1331 80.1206C49.2224 79.7001 49.2277 79.3427 49.1541 79.3269Z" fill="#455A64"/>
<path d="M49.6062 77.0242C49.5274 77.0242 49.4328 77.1714 49.3907 77.3816C49.3487 77.5919 49.3907 77.7811 49.4433 77.7968C49.4958 77.8126 49.6114 77.6497 49.6587 77.4394C49.706 77.2292 49.7061 77.04 49.6062 77.0242Z" fill="#455A64"/>
<path d="M59.0678 168.318C58.9942 168.318 58.9206 168.491 58.9101 168.707C58.8996 168.922 58.9521 169.101 59.0257 169.106C59.0993 169.112 59.1729 168.938 59.1834 168.723C59.1939 168.507 59.1676 168.323 59.0678 168.318Z" fill="#455A64"/>
<path d="M59.2258 165.19C59.147 165.19 59.0734 165.537 59.0576 165.968C59.0419 166.399 59.0892 166.751 59.1628 166.756C59.2363 166.762 59.3152 166.409 59.331 165.978C59.3467 165.547 59.2994 165.195 59.2258 165.19Z" fill="#455A64"/>
<path d="M59.3192 162.062C59.2457 162.062 59.1721 162.409 59.1616 162.84C59.1511 163.271 59.1984 163.623 59.272 163.628C59.3455 163.634 59.4191 163.281 59.4349 162.85C59.4507 162.419 59.3928 162.062 59.3192 162.062Z" fill="#455A64"/>
<path d="M59.3973 158.93C59.3237 158.93 59.2554 159.277 59.2449 159.713C59.2344 160.15 59.2817 160.496 59.3605 160.496C59.4394 160.496 59.5077 160.15 59.5182 159.719C59.5287 159.288 59.4762 158.935 59.3973 158.93Z" fill="#455A64"/>
<path d="M59.4715 155.802C59.3979 155.802 59.3296 156.149 59.3191 156.58C59.3086 157.011 59.3612 157.363 59.4347 157.369C59.5083 157.374 59.5819 157.022 59.5924 156.585C59.6029 156.149 59.5504 155.802 59.4715 155.802Z" fill="#455A64"/>
<path d="M59.5568 152.67C59.478 152.67 59.4097 153.017 59.3992 153.448C59.3886 153.879 59.4359 154.232 59.5148 154.237C59.5936 154.242 59.662 153.89 59.6725 153.459C59.683 153.028 59.6304 152.67 59.5568 152.67Z" fill="#455A64"/>
<path d="M59.6614 149.538C59.5825 149.538 59.5089 149.885 59.4932 150.316C59.4774 150.747 59.53 151.099 59.6036 151.104C59.6771 151.109 59.7507 150.757 59.7665 150.326C59.7823 149.895 59.735 149.543 59.6614 149.538Z" fill="#455A64"/>
<path d="M59.7933 146.41C59.7145 146.41 59.6409 146.757 59.6199 147.188C59.5988 147.619 59.6514 147.971 59.725 147.976C59.7986 147.981 59.8774 147.629 59.8932 147.198C59.909 146.767 59.8669 146.415 59.7933 146.41Z" fill="#455A64"/>
<path d="M59.9133 143.283C59.8345 143.283 59.7609 143.624 59.7451 144.061C59.7294 144.497 59.7767 144.844 59.8503 144.844C59.9238 144.844 60.0027 144.502 60.0185 144.071C60.0342 143.64 59.9869 143.283 59.9133 143.283Z" fill="#455A64"/>
<path d="M60.0244 140.15C59.9456 140.15 59.872 140.497 59.8562 140.928C59.8404 141.359 59.893 141.716 59.9666 141.716C60.0402 141.716 60.119 141.369 60.1348 140.938C60.1506 140.507 60.119 140.155 60.0244 140.15Z" fill="#455A64"/>
<path d="M60.1186 137.023C60.0398 137.023 59.9715 137.365 59.9557 137.801C59.9399 138.237 59.9977 138.584 60.0713 138.584C60.1449 138.584 60.2185 138.237 60.229 137.806C60.2395 137.375 60.1922 137.023 60.1186 137.023Z" fill="#455A64"/>
<path d="M60.1981 133.889C60.1245 133.889 60.0562 134.236 60.0456 134.667C60.0351 135.098 60.0825 135.456 60.1613 135.456C60.2401 135.456 60.3085 135.109 60.319 134.678C60.3295 134.247 60.2769 133.889 60.1981 133.889Z" fill="#455A64"/>
<path d="M60.2665 130.763C60.1929 130.763 60.1245 131.11 60.114 131.541C60.1035 131.972 60.1613 132.324 60.2349 132.324C60.3085 132.324 60.3768 131.977 60.3873 131.546C60.3978 131.115 60.3453 130.763 60.2665 130.763Z" fill="#455A64"/>
<path d="M60.3188 127.63C60.2452 127.63 60.1769 127.976 60.1716 128.407C60.1664 128.838 60.219 129.196 60.2978 129.196C60.3766 129.196 60.4397 128.849 60.445 128.413C60.4502 127.976 60.3977 127.63 60.3188 127.63Z" fill="#455A64"/>
<path d="M60.3546 124.498C60.281 124.498 60.2179 124.85 60.2127 125.281C60.2074 125.712 60.2652 126.064 60.3388 126.064C60.4124 126.064 60.4807 125.717 60.486 125.286C60.4913 124.855 60.4334 124.503 60.3546 124.498Z" fill="#455A64"/>
<path d="M60.382 121.37C60.3031 121.37 60.24 121.717 60.24 122.153C60.24 122.589 60.2926 122.931 60.3714 122.936C60.4503 122.941 60.5081 122.584 60.5134 122.153C60.5186 121.722 60.4555 121.37 60.382 121.37Z" fill="#455A64"/>
<path d="M60.3868 118.237C60.3132 118.237 60.2501 118.589 60.2501 119.02C60.2501 119.451 60.3079 119.803 60.3868 119.803C60.4656 119.803 60.5234 119.451 60.5234 119.02C60.5234 118.589 60.4604 118.237 60.3868 118.237Z" fill="#455A64"/>
<path d="M60.3757 115.104C60.3021 115.104 60.239 115.456 60.2443 115.887C60.2495 116.318 60.3073 116.67 60.3809 116.67C60.4545 116.67 60.5176 116.318 60.5176 115.887C60.5176 115.456 60.4545 115.104 60.3757 115.104Z" fill="#455A64"/>
<path d="M60.3558 111.977C60.277 111.977 60.2192 112.329 60.2244 112.76C60.2297 113.191 60.2928 113.544 60.3663 113.544C60.4399 113.544 60.503 113.191 60.4977 112.755C60.4925 112.319 60.4294 111.977 60.3558 111.977Z" fill="#455A64"/>
<path d="M60.3134 108.866C60.2346 108.866 60.182 109.218 60.1873 109.649C60.1925 110.08 60.2608 110.432 60.3344 110.432C60.408 110.432 60.4659 110.08 60.4606 109.649C60.4553 109.218 60.387 108.866 60.3134 108.866Z" fill="#455A64"/>
<path d="M60.2545 105.712C60.1809 105.712 60.1231 106.064 60.1336 106.495C60.1441 106.926 60.2071 107.278 60.286 107.278C60.3648 107.278 60.4174 106.921 60.4069 106.49C60.3964 106.059 60.3333 105.712 60.2545 105.712Z" fill="#455A64"/>
<path d="M60.1861 102.585C60.1072 102.585 60.0547 102.937 60.0652 103.368C60.0757 103.799 60.1493 104.151 60.2229 104.151C60.2965 104.151 60.349 103.799 60.3385 103.363C60.328 102.927 60.2597 102.559 60.1861 102.585Z" fill="#455A64"/>
<path d="M60.0766 99.4519C59.9977 99.4519 59.9504 99.8093 59.9714 100.24C59.9925 100.671 60.0608 101.018 60.1396 101.018C60.2185 101.018 60.2605 100.661 60.2448 100.23C60.229 99.7988 60.1502 99.4467 60.0766 99.4519Z" fill="#455A64"/>
<path d="M59.8915 96.325C59.818 96.325 59.7759 96.6824 59.8074 97.1134C59.839 97.5444 59.9178 97.8913 59.9967 97.886C60.0755 97.8808 60.107 97.5286 60.0808 97.0976C60.0545 96.6666 59.9651 96.3197 59.8915 96.325Z" fill="#455A64"/>
<path d="M59.5934 93.208C59.5145 93.208 59.4883 93.5706 59.5356 94.0016C59.5829 94.4326 59.6722 94.769 59.751 94.7638C59.8299 94.7585 59.8509 94.4011 59.8089 93.9701C59.7668 93.5391 59.6827 93.1975 59.5934 93.208Z" fill="#455A64"/>
<path d="M59.3034 90.8801C59.2298 90.8801 59.193 91.0746 59.2245 91.2901C59.256 91.5056 59.3401 91.6685 59.4137 91.658C59.4873 91.6475 59.5241 91.4688 59.4926 91.2533C59.461 91.0378 59.3769 90.8696 59.3034 90.8801Z" fill="#455A64"/>
<path d="M71.1289 169.248L56.2174 169.49L56.3382 167.009L71.1289 167.083V169.248Z" fill="#455A64"/>
<path d="M61.3541 76.0828C61.2969 76.2684 61.2668 76.4614 61.2648 76.6557C61.2228 77.0236 61.1754 77.5597 61.1229 78.2325C61.0178 79.5571 60.8864 81.3862 60.7602 83.4203C60.7024 84.4347 60.6446 85.3966 60.5973 86.2849C60.606 87.0539 60.5141 87.8208 60.324 88.566C60.1683 89.0534 59.8264 89.4596 59.3726 89.6961C59.2025 89.7644 59.0266 89.8171 58.847 89.8537C58.8953 89.8662 58.9459 89.8662 58.9942 89.8537C59.1434 89.8571 59.2918 89.8303 59.4304 89.7749C59.6827 89.6678 59.9099 89.5092 60.0973 89.3091C60.2846 89.1091 60.4281 88.8721 60.5184 88.6133C60.7451 87.856 60.8619 87.0701 60.8653 86.2796C60.9232 85.3913 60.9862 84.4295 61.0493 83.4203C61.1755 81.3914 61.2753 79.5518 61.3331 78.222C61.3594 77.5545 61.3804 77.0184 61.3857 76.6452C61.3945 76.4571 61.3839 76.2687 61.3541 76.0828Z" fill="#455A64"/>
<path d="M59.904 77.3285C59.904 77.3653 60.0249 77.4546 60.0354 77.6754C60.0421 77.734 60.0361 77.7934 60.018 77.8496C59.9999 77.9058 59.97 77.9575 59.9303 78.0012C59.8804 78.0443 59.8188 78.0718 59.7534 78.0802C59.688 78.0886 59.6216 78.0776 59.5624 78.0485C59.4993 78.0273 59.4439 77.9882 59.4028 77.9359C59.3617 77.8836 59.3368 77.8204 59.3311 77.7542C59.3335 77.696 59.3478 77.639 59.3731 77.5865C59.3984 77.5341 59.4342 77.4874 59.4783 77.4493C59.6412 77.3022 59.8041 77.3285 59.8146 77.2917C59.8252 77.2549 59.6412 77.134 59.3626 77.2917C59.2824 77.3398 59.2148 77.4065 59.1654 77.486C59.116 77.5655 59.0864 77.6557 59.0788 77.749C59.0788 77.8708 59.1153 77.9899 59.1836 78.0908C59.2519 78.1917 59.3489 78.2698 59.4621 78.315C59.5752 78.3603 59.6993 78.3706 59.8184 78.3447C59.9374 78.3187 60.046 78.2577 60.13 78.1694C60.1886 78.0967 60.2295 78.0114 60.2496 77.9202C60.2696 77.829 60.2683 77.7344 60.2456 77.6438C60.1195 77.3285 59.904 77.2917 59.904 77.3285Z" fill="#455A64"/>
<path d="M46.642 79.5518C46.9894 79.7923 47.3897 79.9456 47.8089 79.9985C48.82 80.2042 49.8701 80.0888 50.8125 79.6685C51.7548 79.2482 52.5424 78.544 53.065 77.6543C53.3052 77.3048 53.4584 76.9029 53.5117 76.4822C53.4697 76.4822 53.3225 76.9237 52.902 77.5334C52.3606 78.3512 51.5976 78.998 50.7023 79.3982C49.8069 79.7985 48.8161 79.9356 47.8457 79.7935C47.094 79.7042 46.6578 79.5097 46.642 79.5518Z" fill="#455A64"/>
<path d="M70.1062 76.0828C70.0337 76.4197 70.0519 76.7697 70.1587 77.0973C70.3461 77.9159 70.7867 78.6546 71.418 79.2085C72.0492 79.7624 72.839 80.1032 73.675 80.1826C74.0146 80.2456 74.3649 80.2166 74.6895 80.0985C74.6895 80.0512 74.3005 80.0985 73.7013 79.9934C72.9216 79.8677 72.1929 79.525 71.5989 79.0044C71.0049 78.4838 70.5696 77.8065 70.3427 77.05C70.143 76.4665 70.1062 76.0776 70.1062 76.0828Z" fill="#455A64"/>
<path d="M78.6354 35.5692L91.7756 38.9804L89.6732 23.4066L89.4051 22.6655L84.5905 21.9191L85.1635 18.366C85.2343 17.9726 85.3859 17.5982 85.6087 17.2664C85.8315 16.9346 86.1208 16.6526 86.4582 16.4382C86.7955 16.2238 87.1737 16.0817 87.5687 16.0209C87.9638 15.9601 88.3671 15.9819 88.7533 16.0849L90.3302 16.5053C90.8916 16.6508 91.416 16.9133 91.869 17.2757C92.3219 17.638 92.6931 18.0919 92.9582 18.6078C93.8675 20.4001 94.7611 22.3554 94.677 22.1872L101.72 41.2931C102.334 42.5181 102.587 43.8927 102.45 45.2562C102.312 46.6197 101.789 47.9158 100.942 48.9933C98.6716 51.9419 93.1895 49.8921 90.6088 49.3927L73.7893 45.6872L78.6354 35.5692Z" fill="#FFBE9D"/>
<path d="M30.1593 66.0444C28.7598 64.4349 27.9925 62.3719 28.0003 60.239C28.008 58.1062 28.7902 56.0487 30.2014 54.4494L44.2562 38.5077L48.0195 49.0199C47.762 49.1934 37.0763 60.6516 37.0763 60.6516L46.2588 72.0994C46.9587 72.9677 47.4267 73.9995 47.6188 75.0981C47.811 76.1967 47.721 77.3261 47.3573 78.3805L45.7804 84.7824L38.1801 81.3764L38.7057 80.588H43.7516L44.0512 79.3791L30.1593 66.0444Z" fill="#FFBE9D"/>
<path d="M35.104 58.6121C35.3735 59.091 35.73 59.5152 36.1553 59.8631C36.5062 60.2701 36.9031 60.6352 37.3379 60.9511C37.1066 60.4563 36.7693 60.0184 36.3498 59.6686C35.9875 59.2584 35.5679 58.9026 35.104 58.6121Z" fill="#EB996E"/>
<path d="M77.9889 78.2277L47.6402 76.1936L47.9976 61.24V50.4177L44.6179 55.4057L35.5984 45.9816L45.6797 36.2998C47.3854 34.5151 49.4864 33.1558 51.8135 32.3315C53.0475 31.8852 54.3442 31.6368 55.6557 31.5956C58.6745 32.5495 61.9139 32.5495 64.9327 31.5956C67.7795 31.8544 70.5953 32.3823 73.3425 33.1725L85.1582 36.3314L81.2845 50.7751L74.1729 48.4204C74.1729 48.4204 78.0677 75.2265 77.9889 78.2277Z" fill="#41CC97"/>
<path d="M44.6387 55.4057L42.5625 54.7855L43.2721 53.9813L44.6387 55.4057Z" fill="#41CC97"/>
<path d="M47.7191 50.9652C48.1931 50.4778 48.5981 49.9278 48.9228 49.3305C49.3264 48.7827 49.6552 48.1835 49.9004 47.5487C49.0202 48.5822 48.2863 49.7318 47.7191 50.9652Z" fill="#263238"/>
<path d="M81.2541 50.9335L83.6035 47.843L82.1581 47.5223L81.2541 50.9335Z" fill="#41CC97"/>
<g opacity="0.6">
<path d="M43.413 38.6812C43.413 38.6812 43.4498 38.7286 43.5286 38.8021L43.8965 39.1228C44.3987 39.5039 44.9459 39.8217 45.5259 40.0689C46.4493 40.4557 47.437 40.6661 48.4378 40.6891C49.7687 40.7411 51.091 40.4535 52.28 39.8534C52.9963 39.5335 53.6148 39.0293 54.0723 38.3922C54.326 38.0373 54.4384 37.6007 54.3877 37.1675C54.3432 36.9387 54.2331 36.7279 54.0706 36.5608C53.9082 36.3937 53.7005 36.2776 53.4731 36.2267C53.2439 36.1702 53.005 36.1659 52.7739 36.2141C52.5429 36.2624 52.3256 36.3618 52.1381 36.5052C51.7602 36.7916 51.472 37.18 51.3076 37.6248C50.9587 38.5409 50.9795 39.5567 51.3654 40.4578C51.7521 41.4031 52.4344 42.1978 53.3102 42.7232C54.2113 43.267 55.2186 43.6111 56.2641 43.7324C57.3424 43.9002 58.4452 43.8083 59.4809 43.4643C60.0139 43.2772 60.5063 42.9899 60.9315 42.6181C61.3499 42.231 61.7047 41.7805 61.9828 41.283C62.5504 40.3106 62.9394 39.2699 63.6122 38.45C64.2804 37.6472 65.2375 37.1393 66.277 37.0361C67.2798 36.9245 68.2934 37.1071 69.1941 37.5617C70.063 37.9949 70.8367 38.5971 71.47 39.333C71.7786 39.664 72.0051 40.0628 72.1311 40.4974C72.2571 40.9321 72.2791 41.3902 72.1953 41.8349C72.1109 42.2586 71.8685 42.6344 71.5173 42.8861C71.1763 43.115 70.7609 43.2052 70.3557 43.1384C70.1661 43.097 69.9889 43.0117 69.8383 42.8894C69.6877 42.7671 69.5679 42.6111 69.4885 42.4341C69.3275 42.0781 69.2536 41.689 69.273 41.2988C69.3082 40.5487 69.4681 39.8098 69.746 39.1122C70.2757 37.753 71.1862 36.5753 72.3683 35.7205C73.5504 34.8656 74.954 34.3698 76.4107 34.2924C76.8365 34.2661 77.0625 34.2924 77.0625 34.2661C76.8465 34.2371 76.6286 34.2248 76.4107 34.2293C75.7811 34.2414 75.1557 34.335 74.5501 34.5079C73.5929 34.7813 72.6995 35.2423 71.9221 35.864C70.8844 36.6956 70.0803 37.7822 69.5883 39.0176C69.2923 39.7377 69.1148 40.501 69.0627 41.2778C69.0398 41.7015 69.1173 42.1247 69.2887 42.5129C69.3868 42.7234 69.533 42.9079 69.7157 43.0512C69.8983 43.1946 70.1122 43.2929 70.34 43.3382C70.8043 43.4231 71.2834 43.3231 71.675 43.0596C72.0709 42.7828 72.35 42.3688 72.4582 41.898C72.5668 41.4216 72.5487 40.925 72.4056 40.4578C72.2505 39.9906 72.008 39.5571 71.6908 39.1806C71.0397 38.4103 70.2385 37.7807 69.336 37.3304C68.3921 36.8451 67.3276 36.6443 66.2718 36.7523C65.1632 36.8641 64.1425 37.4056 63.4282 38.2608C62.7186 39.128 62.3297 40.1845 61.7725 41.1306C61.5144 41.6024 61.1826 42.03 60.7896 42.3973C60.3923 42.7459 59.932 43.0153 59.4336 43.191C58.4361 43.5184 57.3761 43.6083 56.3377 43.4538C55.3324 43.335 54.3634 43.0055 53.4942 42.4867C52.6613 41.9937 52.0118 41.2427 51.644 40.3474C51.2828 39.5134 51.2564 38.5723 51.5704 37.7194C51.719 37.3164 51.9776 36.9631 52.3168 36.6997C52.4762 36.5755 52.6615 36.4889 52.8589 36.4461C53.0564 36.4033 53.2609 36.4056 53.4574 36.4527C53.6445 36.4913 53.816 36.5842 53.9506 36.7197C54.0852 36.8553 54.1769 37.0275 54.2143 37.2148C54.249 37.5871 54.1503 37.9597 53.9357 38.266C53.5024 38.8751 52.9145 39.3578 52.2327 39.6641C51.0736 40.2605 49.7829 40.5551 48.4798 40.5209C47.4966 40.5086 46.5239 40.3162 45.61 39.9532C44.8179 39.642 44.0772 39.2132 43.413 38.6812Z" fill="white"/>
</g>
<g opacity="0.6">
<path d="M48.2393 53.5711H48.3864L48.8016 53.5343C49.1748 53.5343 49.7162 53.4502 50.4153 53.4186C51.2643 53.3727 52.1159 53.4221 52.954 53.5658C54.0588 53.7499 55.0906 54.2376 55.9342 54.9744C56.4068 55.4074 56.7675 55.9485 56.9854 56.5513C57.1082 56.8683 57.1522 57.2104 57.1137 57.5482C57.0753 57.886 56.9555 58.2094 56.7646 58.4908C56.5587 58.7773 56.2626 58.9864 55.9237 59.0847C55.7524 59.1331 55.5726 59.1441 55.3967 59.1169C55.2207 59.0897 55.0527 59.0249 54.904 58.927C54.5903 58.7184 54.3496 58.4171 54.2155 58.065C54.0792 57.6991 54.0447 57.3031 54.1156 56.9192C54.2832 56.1044 54.6599 55.3472 55.2088 54.7221C55.7662 54.0505 56.4502 53.4951 57.2219 53.0875C58.8526 52.2071 60.7533 51.9671 62.5516 52.4147C64.3453 52.8758 65.9621 53.858 67.198 55.2372C67.8193 55.8459 68.2767 56.6016 68.5278 57.4343C68.6308 57.8262 68.5898 58.2421 68.4122 58.6064C68.2269 58.9504 67.9133 59.2073 67.5396 59.3212C67.1734 59.4428 66.7798 59.4553 66.4065 59.3573C66.0333 59.2593 65.6965 59.0551 65.4372 58.7693C65.2107 58.482 65.0489 58.1492 64.9627 57.7936C64.8765 57.4381 64.868 57.0681 64.9379 56.7089C65.0478 56.0207 65.3714 55.3845 65.8629 54.8903C66.3202 54.4264 66.8535 54.0442 67.4398 53.7603C69.1878 52.8123 71.2336 52.5733 73.1532 53.0928C73.8406 53.3231 74.47 53.6997 74.998 54.1965C74.8786 54.0487 74.7448 53.9132 74.5986 53.7918C74.1836 53.4391 73.7057 53.168 73.1899 52.9929C71.2423 52.421 69.1482 52.6342 67.3557 53.5868C66.7511 53.8774 66.2002 54.2684 65.7263 54.7432C65.2016 55.2672 64.8527 55.9412 64.7276 56.6722C64.6488 57.0637 64.6549 57.4677 64.7456 57.8567C64.8363 58.2457 65.0094 58.6107 65.2533 58.927C65.5412 59.2491 65.9168 59.4802 66.3341 59.5922C66.7513 59.7042 67.1922 59.6923 67.6027 59.5578C67.8247 59.4953 68.032 59.3893 68.2125 59.2458C68.393 59.1023 68.5431 58.9242 68.6539 58.722C68.8572 58.3039 68.9074 57.8278 68.7959 57.3765C68.5343 56.5 68.0572 55.7031 67.4082 55.0585C66.1371 53.6386 64.4751 52.6256 62.6305 52.1467C60.7656 51.6851 58.7957 51.9362 57.1063 52.851C56.302 53.2774 55.588 53.8557 55.0039 54.5539C54.4304 55.2195 54.0376 56.0213 53.8633 56.8824C53.7926 57.3114 53.8343 57.7515 53.9842 58.1596C54.1436 58.557 54.4205 58.8963 54.7779 59.132C54.9554 59.2454 55.1548 59.3199 55.3632 59.3507C55.5715 59.3815 55.784 59.3679 55.9868 59.3107C56.3741 59.1955 56.7123 58.9552 56.9486 58.6274C57.1594 58.3161 57.2911 57.9581 57.3323 57.5844C57.3735 57.2108 57.323 56.8327 57.1851 56.4829C56.9512 55.846 56.563 55.2771 56.0551 54.8273C55.1799 54.0745 54.1109 53.5827 52.9698 53.4081C52.1198 53.2748 51.2572 53.2413 50.3995 53.3083C49.6952 53.3556 49.1538 53.4291 48.7859 53.4764L48.3707 53.5395C48.326 53.5461 48.2821 53.5567 48.2393 53.5711Z" fill="white"/>
</g>
<g opacity="0.6">
<path d="M47.6841 70.6957L47.8207 70.722C47.9101 70.722 48.0467 70.7588 48.2254 70.7746C48.7516 70.8146 49.2805 70.7953 49.8023 70.7168C50.6221 70.5879 51.4155 70.327 52.1518 69.9441C53.1336 69.4313 53.9856 68.7015 54.6432 67.8101C54.8387 67.5595 55.0029 67.2859 55.132 66.9954C55.2086 66.8308 55.2483 66.6514 55.2483 66.4698C55.2483 66.2882 55.2086 66.1089 55.132 65.9442C55.0518 65.7692 54.9147 65.6266 54.743 65.5395C54.5613 65.4551 54.3535 65.4456 54.1648 65.5132C53.812 65.6654 53.5315 65.9478 53.3817 66.3016C53.0917 67.0128 53.0437 67.7996 53.245 68.5407C53.4534 69.3154 53.8323 70.0338 54.3541 70.6432C55.4935 71.934 57.0474 72.7872 58.7482 73.0557C60.5655 73.3688 62.4353 73.0674 64.0621 72.199C64.2671 72.0886 64.4615 71.9519 64.6613 71.831C64.861 71.7102 65.0292 71.5472 65.2184 71.4053C65.59 71.1146 65.9053 70.7583 66.1487 70.3541C66.3987 69.9395 66.4832 69.4459 66.3853 68.9717C66.3432 68.7265 66.2333 68.4981 66.0679 68.3122C65.9025 68.1264 65.6884 67.9907 65.4497 67.9205C64.9905 67.8097 64.5063 67.8813 64.0989 68.1202C63.7087 68.3471 63.3956 68.6859 63.2001 69.0926C63.0108 69.4797 62.9098 69.9039 62.9044 70.3348C62.8989 70.7656 62.9891 71.1923 63.1685 71.584C63.5321 72.3132 64.1273 72.9011 64.861 73.2555C65.5381 73.5958 66.2845 73.7756 67.0423 73.7811C68.3801 73.7484 69.6991 73.4575 70.9265 72.9243C72.7171 72.2033 74.3452 71.131 75.7148 69.7707C76.2244 69.2959 76.6809 68.7672 77.0762 68.1938C77.0423 68.2248 77.0107 68.2582 76.9816 68.2937L76.7188 68.6038C76.4822 68.8666 76.1353 69.2608 75.6413 69.7234C74.2559 71.0352 72.6299 72.0668 70.8529 72.7614C69.6464 73.2673 68.3555 73.5419 67.0475 73.5708C66.3265 73.5698 65.6156 73.4007 64.9714 73.0767C64.2847 72.7416 63.7297 72.1866 63.3945 71.4999C63.2305 71.1439 63.1482 70.7556 63.1537 70.3637C63.1591 69.9717 63.2522 69.5859 63.4261 69.2345C63.6007 68.8741 63.8789 68.574 64.225 68.3725C64.5696 68.1668 64.9817 68.1063 65.3708 68.2043C65.56 68.2583 65.7302 68.3642 65.8621 68.5101C65.9941 68.656 66.0824 68.836 66.1172 69.0296C66.2004 69.4395 66.1253 69.8658 65.907 70.2227C65.6757 70.5957 65.3803 70.9249 65.0344 71.1951C64.8557 71.3265 64.6875 71.4736 64.5088 71.5998C64.3301 71.7259 64.1304 71.8468 63.9359 71.9519C62.363 72.7943 60.5536 73.0866 58.7955 72.7824C57.1555 72.5276 55.6547 71.7122 54.5485 70.475C54.0561 69.8942 53.6972 69.2124 53.4973 68.4777C53.3021 67.7838 53.3409 67.0449 53.6077 66.3752C53.738 66.1048 53.9595 65.8889 54.2332 65.7655C54.3686 65.717 54.5175 65.7227 54.6488 65.7815C54.78 65.8403 54.8835 65.9476 54.9375 66.0809C54.9996 66.2151 55.0318 66.3613 55.0318 66.5093C55.0318 66.6572 54.9996 66.8034 54.9375 66.9376C54.8191 67.2138 54.6654 67.4736 54.4802 67.7103C53.8473 68.5843 53.0242 69.3032 52.0729 69.8127C51.3546 70.2004 50.5793 70.4718 49.776 70.6169C49.2672 70.7012 48.7516 70.7381 48.236 70.7273L47.8312 70.701L47.6841 70.6957Z" fill="white"/>
</g>
<path opacity="0.4" d="M81.2541 50.9335L83.6035 47.843L82.1581 47.5223L81.2541 50.9335Z" fill="#141F1E"/>
<path opacity="0.5" d="M44.6387 55.4057L42.5625 54.7855L43.2721 53.9813L44.6387 55.4057Z" fill="#141F1E"/>
<path d="M138.238 74.1961C137.772 74.1961 137.408 74.0654 137.146 73.8041C136.904 73.5427 136.782 73.1787 136.782 72.7121V55.5481C136.782 55.0627 136.904 54.6987 137.146 54.4561C137.408 54.1947 137.772 54.0641 138.238 54.0641C138.705 54.0641 139.06 54.1947 139.302 54.4561C139.564 54.6987 139.694 55.0627 139.694 55.5481V72.7121C139.694 73.1787 139.573 73.5427 139.33 73.8041C139.088 74.0654 138.724 74.1961 138.238 74.1961ZM145.703 74.1961C145.255 74.1961 144.909 74.0747 144.667 73.8321C144.424 73.5707 144.303 73.2161 144.303 72.7681V61.5681C144.303 61.1014 144.424 60.7467 144.667 60.5041C144.909 60.2614 145.245 60.1401 145.675 60.1401C146.123 60.1401 146.459 60.2614 146.683 60.5041C146.925 60.7467 147.047 61.1014 147.047 61.5681V63.8641L146.739 63.2481C147.112 62.2587 147.691 61.4841 148.475 60.9241C149.259 60.3641 150.201 60.0841 151.303 60.0841C152.441 60.0841 153.365 60.3547 154.075 60.8961C154.784 61.4374 155.269 62.2681 155.531 63.3881H155.139C155.493 62.3614 156.1 61.5587 156.959 60.9801C157.817 60.3827 158.816 60.0841 159.955 60.0841C161 60.0841 161.859 60.2894 162.531 60.7001C163.203 61.0921 163.707 61.6987 164.043 62.5201C164.379 63.3227 164.547 64.3401 164.547 65.5721V72.7681C164.547 73.2161 164.416 73.5707 164.155 73.8321C163.912 74.0747 163.567 74.1961 163.119 74.1961C162.671 74.1961 162.325 74.0747 162.083 73.8321C161.84 73.5707 161.719 73.2161 161.719 72.7681V65.7121C161.719 64.5547 161.513 63.7054 161.103 63.1641C160.711 62.6227 160.057 62.3521 159.143 62.3521C158.116 62.3521 157.304 62.7067 156.707 63.4161C156.109 64.1254 155.811 65.1054 155.811 66.3561V72.7681C155.811 73.2161 155.689 73.5707 155.447 73.8321C155.204 74.0747 154.859 74.1961 154.411 74.1961C153.963 74.1961 153.608 74.0747 153.347 73.8321C153.104 73.5707 152.983 73.2161 152.983 72.7681V65.7121C152.983 64.5547 152.787 63.7054 152.395 63.1641C152.003 62.6227 151.349 62.3521 150.435 62.3521C149.408 62.3521 148.596 62.7067 147.999 63.4161C147.42 64.1254 147.131 65.1054 147.131 66.3561V72.7681C147.131 73.7201 146.655 74.1961 145.703 74.1961ZM170.18 79.2361C169.732 79.2361 169.387 79.1147 169.144 78.8721C168.902 78.6294 168.78 78.2747 168.78 77.8081V61.5681C168.78 61.1014 168.902 60.7467 169.144 60.5041C169.387 60.2614 169.723 60.1401 170.152 60.1401C170.6 60.1401 170.946 60.2614 171.188 60.5041C171.431 60.7467 171.552 61.1014 171.552 61.5681V64.0041L171.244 63.4161C171.543 62.4081 172.131 61.6054 173.008 61.0081C173.886 60.3921 174.922 60.0841 176.116 60.0841C177.33 60.0841 178.384 60.3734 179.28 60.9521C180.195 61.5307 180.895 62.3427 181.38 63.3881C181.884 64.4334 182.136 65.6934 182.136 67.1681C182.136 68.6054 181.884 69.8654 181.38 70.9481C180.895 72.0121 180.204 72.8334 179.308 73.4121C178.412 73.9721 177.348 74.2521 176.116 74.2521C174.94 74.2521 173.914 73.9534 173.036 73.3561C172.159 72.7587 171.571 71.9654 171.272 70.9761H171.608V77.8081C171.608 78.2747 171.478 78.6294 171.216 78.8721C170.974 79.1147 170.628 79.2361 170.18 79.2361ZM175.416 72.0681C176.2 72.0681 176.882 71.8814 177.46 71.5081C178.039 71.1347 178.487 70.5841 178.804 69.8561C179.122 69.1281 179.28 68.2321 179.28 67.1681C179.28 65.5627 178.926 64.3494 178.216 63.5281C177.526 62.7067 176.592 62.2961 175.416 62.2961C174.651 62.2961 173.97 62.4827 173.372 62.8561C172.794 63.2107 172.346 63.7521 172.028 64.4801C171.711 65.2081 171.552 66.1041 171.552 67.1681C171.552 68.7547 171.907 69.9681 172.616 70.8081C173.326 71.6481 174.259 72.0681 175.416 72.0681ZM191.539 74.2521C190.158 74.2521 188.963 73.9627 187.955 73.3841C186.966 72.8054 186.191 71.9841 185.631 70.9201C185.071 69.8561 184.791 68.6054 184.791 67.1681C184.791 66.0667 184.95 65.0867 185.267 64.2281C185.585 63.3694 186.033 62.6321 186.611 62.0161C187.209 61.3814 187.918 60.9054 188.739 60.5881C189.579 60.2521 190.513 60.0841 191.539 60.0841C192.902 60.0841 194.078 60.3734 195.067 60.9521C196.075 61.5307 196.859 62.3521 197.419 63.4161C197.979 64.4614 198.259 65.7121 198.259 67.1681C198.259 68.2507 198.101 69.2307 197.783 70.1081C197.466 70.9854 197.009 71.7321 196.411 72.3481C195.833 72.9641 195.123 73.4401 194.283 73.7761C193.462 74.0934 192.547 74.2521 191.539 74.2521ZM191.539 72.0681C192.305 72.0681 192.977 71.8814 193.555 71.5081C194.134 71.1347 194.582 70.5841 194.899 69.8561C195.235 69.1281 195.403 68.2321 195.403 67.1681C195.403 65.5627 195.049 64.3494 194.339 63.5281C193.63 62.7067 192.697 62.2961 191.539 62.2961C190.755 62.2961 190.074 62.4827 189.495 62.8561C188.917 63.2107 188.459 63.7521 188.123 64.4801C187.806 65.2081 187.647 66.1041 187.647 67.1681C187.647 68.7547 188.002 69.9681 188.711 70.8081C189.421 71.6481 190.363 72.0681 191.539 72.0681ZM203.143 74.1961C202.677 74.1961 202.322 74.0747 202.079 73.8321C201.837 73.5707 201.715 73.2161 201.715 72.7681V61.5681C201.715 61.1014 201.837 60.7467 202.079 60.5041C202.322 60.2614 202.658 60.1401 203.087 60.1401C203.535 60.1401 203.871 60.2614 204.095 60.5041C204.338 60.7467 204.459 61.1014 204.459 61.5681V63.6121H204.179C204.478 62.4921 205.029 61.6427 205.831 61.0641C206.634 60.4854 207.661 60.1494 208.911 60.0561C209.247 60.0374 209.509 60.1214 209.695 60.3081C209.901 60.4947 210.013 60.7841 210.031 61.1761C210.069 61.5681 209.985 61.8854 209.779 62.1281C209.574 62.3521 209.257 62.4827 208.827 62.5201L208.295 62.5761C207.082 62.6881 206.158 63.0707 205.523 63.7241C204.889 64.3774 204.571 65.2734 204.571 66.4121V72.7681C204.571 73.2161 204.45 73.5707 204.207 73.8321C203.983 74.0747 203.629 74.1961 203.143 74.1961ZM219.03 74.2521C217.91 74.2521 216.968 74.0561 216.202 73.6641C215.437 73.2721 214.868 72.6934 214.494 71.9281C214.121 71.1627 213.934 70.2294 213.934 69.1281V62.5201H212.254C211.881 62.5201 211.592 62.4267 211.386 62.2401C211.181 62.0347 211.078 61.7641 211.078 61.4281C211.078 61.0734 211.181 60.8027 211.386 60.6161C211.592 60.4294 211.881 60.3361 212.254 60.3361H213.934V57.4521C213.934 56.9854 214.056 56.6307 214.298 56.3881C214.56 56.1454 214.914 56.0241 215.362 56.0241C215.81 56.0241 216.156 56.1454 216.398 56.3881C216.641 56.6307 216.762 56.9854 216.762 57.4521V60.3361H220.038C220.412 60.3361 220.701 60.4294 220.906 60.6161C221.112 60.8027 221.214 61.0734 221.214 61.4281C221.214 61.7641 221.112 62.0347 220.906 62.2401C220.701 62.4267 220.412 62.5201 220.038 62.5201H216.762V68.9041C216.762 69.8934 216.968 70.6401 217.378 71.1441C217.808 71.6481 218.498 71.9001 219.45 71.9001C219.786 71.9001 220.076 71.8721 220.318 71.8161C220.58 71.7414 220.794 71.6947 220.962 71.6761C221.168 71.6761 221.336 71.7507 221.466 71.9001C221.597 72.0307 221.662 72.2921 221.662 72.6841C221.662 72.9641 221.606 73.2254 221.494 73.4681C221.401 73.7107 221.224 73.8694 220.962 73.9441C220.738 74.0187 220.43 74.0841 220.038 74.1401C219.665 74.2147 219.329 74.2521 219.03 74.2521ZM228.081 74.2521C227.129 74.2521 226.27 74.0654 225.505 73.6921C224.758 73.3187 224.17 72.8147 223.741 72.1801C223.312 71.5454 223.097 70.8267 223.097 70.0241C223.097 69.0161 223.349 68.2227 223.853 67.6441C224.376 67.0467 225.225 66.6267 226.401 66.3841C227.596 66.1227 229.201 65.9921 231.217 65.9921H232.533V67.7281H231.245C229.901 67.7281 228.837 67.7934 228.053 67.9241C227.269 68.0547 226.709 68.2787 226.373 68.5961C226.056 68.8947 225.897 69.3147 225.897 69.8561C225.897 70.5654 226.14 71.1441 226.625 71.5921C227.11 72.0214 227.782 72.2361 228.641 72.2361C229.332 72.2361 229.938 72.0774 230.461 71.7601C230.984 71.4241 231.394 70.9761 231.693 70.4161C232.01 69.8561 232.169 69.2121 232.169 68.4841V65.2641C232.169 64.2001 231.945 63.4347 231.497 62.9681C231.049 62.5014 230.312 62.2681 229.285 62.2681C228.688 62.2681 228.062 62.3427 227.409 62.4921C226.774 62.6414 226.112 62.8934 225.421 63.2481C225.104 63.3974 224.833 63.4441 224.609 63.3881C224.385 63.3321 224.208 63.2107 224.077 63.0241C223.946 62.8187 223.872 62.6041 223.853 62.3801C223.853 62.1374 223.909 61.9041 224.021 61.6801C224.152 61.4561 224.366 61.2881 224.665 61.1761C225.486 60.7841 226.298 60.5041 227.101 60.3361C227.904 60.1681 228.66 60.0841 229.369 60.0841C230.62 60.0841 231.646 60.2801 232.449 60.6721C233.27 61.0641 233.877 61.6614 234.269 62.4641C234.661 63.2667 234.857 64.3027 234.857 65.5721V72.7681C234.857 73.2161 234.745 73.5707 234.521 73.8321C234.297 74.0747 233.97 74.1961 233.541 74.1961C233.13 74.1961 232.804 74.0747 232.561 73.8321C232.318 73.5707 232.197 73.2161 232.197 72.7681V70.9481H232.449C232.3 71.6387 232.02 72.2361 231.609 72.7401C231.217 73.2254 230.722 73.5987 230.125 73.8601C229.528 74.1214 228.846 74.2521 228.081 74.2521ZM240.432 74.1961C239.984 74.1961 239.639 74.0747 239.396 73.8321C239.153 73.5707 239.032 73.2161 239.032 72.7681V61.5681C239.032 61.1014 239.153 60.7467 239.396 60.5041C239.639 60.2614 239.975 60.1401 240.404 60.1401C240.852 60.1401 241.188 60.2614 241.412 60.5041C241.655 60.7467 241.776 61.1014 241.776 61.5681V63.7521L241.468 63.2481C241.879 62.2027 242.523 61.4187 243.4 60.8961C244.277 60.3547 245.285 60.0841 246.424 60.0841C247.507 60.0841 248.403 60.2894 249.112 60.7001C249.84 61.0921 250.381 61.6987 250.736 62.5201C251.091 63.3227 251.268 64.3401 251.268 65.5721V72.7681C251.268 73.2161 251.147 73.5707 250.904 73.8321C250.661 74.0747 250.316 74.1961 249.868 74.1961C249.401 74.1961 249.047 74.0747 248.804 73.8321C248.561 73.5707 248.44 73.2161 248.44 72.7681V65.7401C248.44 64.5641 248.207 63.7054 247.74 63.1641C247.292 62.6227 246.583 62.3521 245.612 62.3521C244.473 62.3521 243.559 62.7067 242.868 63.4161C242.196 64.1254 241.86 65.0774 241.86 66.2721V72.7681C241.86 73.7201 241.384 74.1961 240.432 74.1961ZM261.465 74.2521C260.065 74.2521 258.851 73.9627 257.825 73.3841C256.817 72.7867 256.033 71.9561 255.473 70.8921C254.913 69.8094 254.633 68.5401 254.633 67.0841C254.633 66.0014 254.791 65.0307 255.109 64.1721C255.426 63.2947 255.874 62.5574 256.453 61.9601C257.05 61.3627 257.769 60.9054 258.609 60.5881C259.467 60.2521 260.419 60.0841 261.465 60.0841C262.118 60.0841 262.799 60.1867 263.509 60.3921C264.237 60.5787 264.909 60.8961 265.525 61.3441C265.767 61.4934 265.917 61.6801 265.973 61.9041C266.047 62.1094 266.057 62.3241 266.001 62.5481C265.963 62.7721 265.861 62.9681 265.693 63.1361C265.543 63.2854 265.357 63.3787 265.133 63.4161C264.909 63.4347 264.666 63.3694 264.405 63.2201C263.957 62.9027 263.499 62.6787 263.033 62.5481C262.566 62.3987 262.118 62.3241 261.689 62.3241C261.017 62.3241 260.419 62.4361 259.897 62.6601C259.393 62.8654 258.963 63.1734 258.609 63.5841C258.254 63.9761 257.983 64.4707 257.797 65.0681C257.629 65.6654 257.545 66.3467 257.545 67.1121C257.545 68.6427 257.899 69.8467 258.609 70.7241C259.337 71.5827 260.363 72.0121 261.689 72.0121C262.118 72.0121 262.566 71.9467 263.033 71.8161C263.499 71.6854 263.957 71.4614 264.405 71.1441C264.666 70.9947 264.909 70.9387 265.133 70.9761C265.357 71.0134 265.534 71.1161 265.665 71.2841C265.814 71.4334 265.907 71.6201 265.945 71.8441C266.001 72.0494 265.991 72.2641 265.917 72.4881C265.842 72.7121 265.683 72.8987 265.441 73.0481C264.843 73.4774 264.19 73.7854 263.481 73.9721C262.79 74.1587 262.118 74.2521 261.465 74.2521ZM274.934 74.2521C273.44 74.2521 272.152 73.9721 271.07 73.4121C270.006 72.8334 269.175 72.0214 268.578 70.9761C267.999 69.9121 267.71 68.6521 267.71 67.1961C267.71 65.7774 267.999 64.5361 268.578 63.4721C269.156 62.4081 269.95 61.5774 270.958 60.9801C271.966 60.3827 273.114 60.0841 274.402 60.0841C275.354 60.0841 276.203 60.2427 276.95 60.5601C277.696 60.8587 278.331 61.3067 278.854 61.9041C279.395 62.4827 279.796 63.1921 280.058 64.0321C280.338 64.8721 280.478 65.8147 280.478 66.8601C280.478 67.1774 280.384 67.4201 280.198 67.5881C280.011 67.7374 279.731 67.8121 279.358 67.8121H269.95V66.0761H278.574L278.098 66.4681C278.098 65.5347 277.958 64.7414 277.678 64.0881C277.416 63.4347 277.015 62.9401 276.474 62.6041C275.951 62.2494 275.298 62.0721 274.514 62.0721C273.636 62.0721 272.89 62.2774 272.274 62.6881C271.676 63.0987 271.219 63.6681 270.902 64.3961C270.584 65.1241 270.426 65.9734 270.426 66.9441V67.1121C270.426 68.7547 270.808 69.9961 271.574 70.8361C272.358 71.6574 273.487 72.0681 274.962 72.0681C275.522 72.0681 276.11 71.9934 276.726 71.8441C277.36 71.6947 277.958 71.4427 278.518 71.0881C278.835 70.9014 279.115 70.8174 279.358 70.8361C279.619 70.8547 279.824 70.9387 279.974 71.0881C280.142 71.2374 280.244 71.4241 280.282 71.6481C280.319 71.8721 280.282 72.1054 280.17 72.3481C280.058 72.5721 279.862 72.7774 279.582 72.9641C278.947 73.3934 278.21 73.7201 277.37 73.9441C276.53 74.1494 275.718 74.2521 274.934 74.2521ZM142.41 110.252C141.029 110.252 139.834 109.963 138.826 109.384C137.837 108.805 137.062 107.984 136.502 106.92C135.942 105.856 135.662 104.605 135.662 103.168C135.662 102.067 135.821 101.087 136.138 100.228C136.456 99.3694 136.904 98.6321 137.482 98.0161C138.08 97.3814 138.789 96.9054 139.61 96.5881C140.45 96.2521 141.384 96.0841 142.41 96.0841C143.773 96.0841 144.949 96.3734 145.938 96.9521C146.946 97.5307 147.73 98.3521 148.29 99.4161C148.85 100.461 149.13 101.712 149.13 103.168C149.13 104.251 148.972 105.231 148.654 106.108C148.337 106.985 147.88 107.732 147.282 108.348C146.704 108.964 145.994 109.44 145.154 109.776C144.333 110.093 143.418 110.252 142.41 110.252ZM142.41 108.068C143.176 108.068 143.848 107.881 144.426 107.508C145.005 107.135 145.453 106.584 145.77 105.856C146.106 105.128 146.274 104.232 146.274 103.168C146.274 101.563 145.92 100.349 145.21 99.5281C144.501 98.7067 143.568 98.2961 142.41 98.2961C141.626 98.2961 140.945 98.4827 140.366 98.8561C139.788 99.2107 139.33 99.7521 138.994 100.48C138.677 101.208 138.518 102.104 138.518 103.168C138.518 104.755 138.873 105.968 139.582 106.808C140.292 107.648 141.234 108.068 142.41 108.068ZM154.69 110.196C154.242 110.196 153.887 110.075 153.626 109.832C153.383 109.571 153.262 109.216 153.262 108.768V98.5201H151.694C151.339 98.5201 151.059 98.4267 150.854 98.2401C150.648 98.0347 150.546 97.7641 150.546 97.4281C150.546 97.0734 150.648 96.8027 150.854 96.6161C151.059 96.4294 151.339 96.3361 151.694 96.3361H154.074L153.262 97.0921V96.0841C153.262 94.2361 153.719 92.8454 154.634 91.9121C155.548 90.9601 156.883 90.4001 158.638 90.2321L159.506 90.1761C159.823 90.1387 160.075 90.1854 160.262 90.3161C160.448 90.4467 160.57 90.6147 160.626 90.8201C160.682 91.0254 160.682 91.2401 160.626 91.4641C160.588 91.6694 160.495 91.8561 160.346 92.0241C160.196 92.1921 160.01 92.2854 159.786 92.3041L159.254 92.3321C158.152 92.4254 157.35 92.7427 156.846 93.2841C156.342 93.8067 156.09 94.6094 156.09 95.6921V96.7841L155.698 96.3361H158.806C159.198 96.3361 159.487 96.4294 159.674 96.6161C159.879 96.8027 159.982 97.0734 159.982 97.4281C159.982 97.7641 159.879 98.0347 159.674 98.2401C159.487 98.4267 159.198 98.5201 158.806 98.5201H156.09V108.768C156.09 109.72 155.623 110.196 154.69 110.196ZM170.771 110C170.398 110 170.09 109.925 169.847 109.776C169.623 109.627 169.465 109.421 169.371 109.16C169.297 108.88 169.297 108.581 169.371 108.264C169.465 107.928 169.642 107.583 169.903 107.228L181.103 91.7161V92.6961H170.547C170.118 92.6961 169.791 92.5934 169.567 92.3881C169.343 92.1641 169.231 91.8561 169.231 91.4641C169.231 91.0721 169.343 90.7734 169.567 90.5681C169.791 90.3627 170.118 90.2601 170.547 90.2601H182.447C182.821 90.2601 183.129 90.3347 183.371 90.4841C183.614 90.6334 183.773 90.8387 183.847 91.1001C183.941 91.3614 183.941 91.6601 183.847 91.9961C183.773 92.3321 183.605 92.6774 183.343 93.0321L172.115 108.544V107.564H183.091C183.521 107.564 183.847 107.667 184.071 107.872C184.295 108.077 184.407 108.376 184.407 108.768C184.407 109.16 184.295 109.468 184.071 109.692C183.847 109.897 183.521 110 183.091 110H170.771ZM187.464 103.672C187.128 103.672 186.848 103.56 186.624 103.336C186.4 103.112 186.288 102.841 186.288 102.524C186.288 102.188 186.4 101.917 186.624 101.712C186.848 101.488 187.128 101.376 187.464 101.376H193.624C193.942 101.376 194.212 101.488 194.436 101.712C194.66 101.917 194.772 102.188 194.772 102.524C194.772 102.841 194.66 103.112 194.436 103.336C194.212 103.56 193.942 103.672 193.624 103.672H187.464ZM205.137 110.252C204.279 110.252 203.439 110.187 202.617 110.056C201.796 109.925 201.021 109.729 200.293 109.468C199.565 109.188 198.912 108.852 198.333 108.46C198.053 108.255 197.857 108.021 197.745 107.76C197.652 107.499 197.624 107.247 197.661 107.004C197.717 106.743 197.829 106.519 197.997 106.332C198.165 106.145 198.371 106.033 198.613 105.996C198.856 105.94 199.127 106.015 199.425 106.22C200.265 106.761 201.152 107.163 202.085 107.424C203.019 107.667 204.036 107.788 205.137 107.788C206.724 107.788 207.891 107.508 208.637 106.948C209.403 106.369 209.785 105.623 209.785 104.708C209.785 103.961 209.515 103.373 208.973 102.944C208.432 102.496 207.527 102.141 206.257 101.88L203.261 101.264C201.488 100.891 200.163 100.275 199.285 99.4161C198.427 98.5574 197.997 97.4001 197.997 95.9441C197.997 95.0667 198.175 94.2641 198.529 93.5361C198.903 92.8081 199.416 92.1827 200.069 91.6601C200.723 91.1187 201.507 90.7081 202.421 90.4281C203.336 90.1481 204.335 90.0081 205.417 90.0081C206.575 90.0081 207.657 90.1574 208.665 90.4561C209.692 90.7547 210.607 91.2121 211.409 91.8281C211.652 91.9961 211.811 92.2107 211.885 92.4721C211.979 92.7147 211.997 92.9574 211.941 93.2001C211.904 93.4427 211.801 93.6481 211.633 93.8161C211.465 93.9841 211.251 94.0867 210.989 94.1241C210.728 94.1427 210.439 94.0494 210.121 93.8441C209.393 93.3587 208.647 93.0134 207.881 92.8081C207.135 92.5841 206.304 92.4721 205.389 92.4721C204.475 92.4721 203.672 92.6121 202.981 92.8921C202.309 93.1721 201.787 93.5641 201.413 94.0681C201.059 94.5721 200.881 95.1694 200.881 95.8601C200.881 96.6441 201.133 97.2694 201.637 97.7361C202.141 98.2027 202.981 98.5574 204.157 98.8001L207.125 99.4161C208.992 99.8081 210.383 100.415 211.297 101.236C212.212 102.057 212.669 103.149 212.669 104.512C212.669 105.389 212.492 106.183 212.137 106.892C211.783 107.583 211.279 108.18 210.625 108.684C209.972 109.188 209.179 109.58 208.245 109.86C207.331 110.121 206.295 110.252 205.137 110.252ZM221.967 110.252C220.567 110.252 219.354 109.963 218.327 109.384C217.319 108.787 216.535 107.956 215.975 106.892C215.415 105.809 215.135 104.54 215.135 103.084C215.135 102.001 215.294 101.031 215.611 100.172C215.929 99.2947 216.377 98.5574 216.955 97.9601C217.553 97.3627 218.271 96.9054 219.111 96.5881C219.97 96.2521 220.922 96.0841 221.967 96.0841C222.621 96.0841 223.302 96.1867 224.011 96.3921C224.739 96.5787 225.411 96.8961 226.027 97.3441C226.27 97.4934 226.419 97.6801 226.475 97.9041C226.55 98.1094 226.559 98.3241 226.503 98.5481C226.466 98.7721 226.363 98.9681 226.195 99.1361C226.046 99.2854 225.859 99.3787 225.635 99.4161C225.411 99.4347 225.169 99.3694 224.907 99.2201C224.459 98.9027 224.002 98.6787 223.535 98.5481C223.069 98.3987 222.621 98.3241 222.191 98.3241C221.519 98.3241 220.922 98.4361 220.399 98.6601C219.895 98.8654 219.466 99.1734 219.111 99.5841C218.757 99.9761 218.486 100.471 218.299 101.068C218.131 101.665 218.047 102.347 218.047 103.112C218.047 104.643 218.402 105.847 219.111 106.724C219.839 107.583 220.866 108.012 222.191 108.012C222.621 108.012 223.069 107.947 223.535 107.816C224.002 107.685 224.459 107.461 224.907 107.144C225.169 106.995 225.411 106.939 225.635 106.976C225.859 107.013 226.037 107.116 226.167 107.284C226.317 107.433 226.41 107.62 226.447 107.844C226.503 108.049 226.494 108.264 226.419 108.488C226.345 108.712 226.186 108.899 225.943 109.048C225.346 109.477 224.693 109.785 223.983 109.972C223.293 110.159 222.621 110.252 221.967 110.252ZM234.96 110.252C233.579 110.252 232.384 109.963 231.376 109.384C230.387 108.805 229.612 107.984 229.052 106.92C228.492 105.856 228.212 104.605 228.212 103.168C228.212 102.067 228.371 101.087 228.688 100.228C229.006 99.3694 229.454 98.6321 230.032 98.0161C230.63 97.3814 231.339 96.9054 232.16 96.5881C233 96.2521 233.934 96.0841 234.96 96.0841C236.323 96.0841 237.499 96.3734 238.488 96.9521C239.496 97.5307 240.28 98.3521 240.84 99.4161C241.4 100.461 241.68 101.712 241.68 103.168C241.68 104.251 241.522 105.231 241.204 106.108C240.887 106.985 240.43 107.732 239.832 108.348C239.254 108.964 238.544 109.44 237.704 109.776C236.883 110.093 235.968 110.252 234.96 110.252ZM234.96 108.068C235.726 108.068 236.398 107.881 236.976 107.508C237.555 107.135 238.003 106.584 238.32 105.856C238.656 105.128 238.824 104.232 238.824 103.168C238.824 101.563 238.47 100.349 237.76 99.5281C237.051 98.7067 236.118 98.2961 234.96 98.2961C234.176 98.2961 233.495 98.4827 232.916 98.8561C232.338 99.2107 231.88 99.7521 231.544 100.48C231.227 101.208 231.068 102.104 231.068 103.168C231.068 104.755 231.423 105.968 232.132 106.808C232.842 107.648 233.784 108.068 234.96 108.068ZM246.564 110.196C246.098 110.196 245.743 110.075 245.5 109.832C245.258 109.571 245.136 109.216 245.136 108.768V97.5681C245.136 97.1014 245.258 96.7467 245.5 96.5041C245.743 96.2614 246.079 96.1401 246.508 96.1401C246.956 96.1401 247.292 96.2614 247.516 96.5041C247.759 96.7467 247.88 97.1014 247.88 97.5681V99.6121H247.6C247.899 98.4921 248.45 97.6427 249.252 97.0641C250.055 96.4854 251.082 96.1494 252.332 96.0561C252.668 96.0374 252.93 96.1214 253.116 96.3081C253.322 96.4947 253.434 96.7841 253.452 97.1761C253.49 97.5681 253.406 97.8854 253.2 98.1281C252.995 98.3521 252.678 98.4827 252.248 98.5201L251.716 98.5761C250.503 98.6881 249.579 99.0707 248.944 99.7241C248.31 100.377 247.992 101.273 247.992 102.412V108.768C247.992 109.216 247.871 109.571 247.628 109.832C247.404 110.075 247.05 110.196 246.564 110.196ZM262.082 110.252C260.589 110.252 259.301 109.972 258.218 109.412C257.154 108.833 256.323 108.021 255.726 106.976C255.147 105.912 254.858 104.652 254.858 103.196C254.858 101.777 255.147 100.536 255.726 99.4721C256.305 98.4081 257.098 97.5774 258.106 96.9801C259.114 96.3827 260.262 96.0841 261.55 96.0841C262.502 96.0841 263.351 96.2427 264.098 96.5601C264.845 96.8587 265.479 97.3067 266.002 97.9041C266.543 98.4827 266.945 99.1921 267.206 100.032C267.486 100.872 267.626 101.815 267.626 102.86C267.626 103.177 267.533 103.42 267.346 103.588C267.159 103.737 266.879 103.812 266.506 103.812H257.098V102.076H265.722L265.246 102.468C265.246 101.535 265.106 100.741 264.826 100.088C264.565 99.4347 264.163 98.9401 263.622 98.6041C263.099 98.2494 262.446 98.0721 261.662 98.0721C260.785 98.0721 260.038 98.2774 259.422 98.6881C258.825 99.0987 258.367 99.6681 258.05 100.396C257.733 101.124 257.574 101.973 257.574 102.944V103.112C257.574 104.755 257.957 105.996 258.722 106.836C259.506 107.657 260.635 108.068 262.11 108.068C262.67 108.068 263.258 107.993 263.874 107.844C264.509 107.695 265.106 107.443 265.666 107.088C265.983 106.901 266.263 106.817 266.506 106.836C266.767 106.855 266.973 106.939 267.122 107.088C267.29 107.237 267.393 107.424 267.43 107.648C267.467 107.872 267.43 108.105 267.318 108.348C267.206 108.572 267.01 108.777 266.73 108.964C266.095 109.393 265.358 109.72 264.518 109.944C263.678 110.149 262.866 110.252 262.082 110.252Z" fill="#141F1E"/>
<path d="M135.543 135V126.273H138.594C139.202 126.273 139.704 126.378 140.099 126.588C140.493 126.796 140.787 127.075 140.981 127.428C141.174 127.777 141.27 128.165 141.27 128.591C141.27 128.966 141.204 129.276 141.07 129.52C140.939 129.764 140.766 129.957 140.55 130.099C140.337 130.242 140.106 130.347 139.856 130.415V130.5C140.123 130.517 140.391 130.611 140.661 130.781C140.931 130.952 141.157 131.196 141.339 131.514C141.52 131.832 141.611 132.222 141.611 132.682C141.611 133.119 141.512 133.513 141.313 133.862C141.114 134.212 140.8 134.489 140.371 134.693C139.942 134.898 139.384 135 138.697 135H135.543ZM136.6 134.063H138.697C139.387 134.063 139.877 133.929 140.167 133.662C140.459 133.392 140.606 133.065 140.606 132.682C140.606 132.386 140.53 132.114 140.38 131.864C140.229 131.611 140.015 131.409 139.736 131.259C139.458 131.105 139.128 131.028 138.748 131.028H136.6V134.063ZM136.6 130.108H138.56C138.878 130.108 139.165 130.046 139.421 129.921C139.68 129.796 139.884 129.619 140.035 129.392C140.188 129.165 140.265 128.898 140.265 128.591C140.265 128.207 140.131 127.882 139.864 127.615C139.597 127.345 139.174 127.21 138.594 127.21H136.6V130.108ZM144.059 137.455C143.889 137.455 143.737 137.44 143.603 137.412C143.47 137.386 143.377 137.361 143.326 137.335L143.582 136.449C143.826 136.511 144.042 136.534 144.23 136.517C144.417 136.5 144.583 136.416 144.728 136.266C144.876 136.118 145.011 135.878 145.133 135.546L145.321 135.034L142.9 128.455H143.991L145.798 133.671H145.866L147.673 128.455H148.764L145.985 135.955C145.86 136.293 145.706 136.573 145.521 136.794C145.336 137.019 145.122 137.185 144.877 137.293C144.636 137.401 144.363 137.455 144.059 137.455ZM154.003 135V126.273H159.27V127.21H155.059V130.159H158.997V131.097H155.059V134.063H159.338V135H154.003ZM162.244 126.273V135H161.238V126.273H162.244ZM165.291 126.273V135H164.286V126.273H165.291ZM167.981 137.455C167.811 137.455 167.659 137.44 167.525 137.412C167.392 137.386 167.299 137.361 167.248 137.335L167.504 136.449C167.748 136.511 167.964 136.534 168.152 136.517C168.339 136.5 168.505 136.416 168.65 136.266C168.798 136.118 168.933 135.878 169.055 135.546L169.242 135.034L166.822 128.455H167.913L169.72 133.671H169.788L171.595 128.455H172.686L169.907 135.955C169.782 136.293 169.627 136.573 169.443 136.794C169.258 137.019 169.044 137.185 168.799 137.293C168.558 137.401 168.285 137.455 167.981 137.455ZM175.219 131.063V135H174.213V128.455H175.185V129.477H175.27C175.423 129.145 175.656 128.878 175.969 128.676C176.281 128.472 176.685 128.369 177.179 128.369C177.622 128.369 178.01 128.46 178.342 128.642C178.675 128.821 178.933 129.094 179.118 129.46C179.303 129.824 179.395 130.284 179.395 130.841V135H178.389V130.909C178.389 130.395 178.256 129.994 177.989 129.707C177.722 129.418 177.355 129.273 176.889 129.273C176.568 129.273 176.281 129.342 176.028 129.482C175.778 129.621 175.581 129.824 175.436 130.091C175.291 130.358 175.219 130.682 175.219 131.063ZM189.917 128.455C189.866 128.023 189.658 127.688 189.294 127.449C188.931 127.21 188.485 127.091 187.956 127.091C187.57 127.091 187.232 127.153 186.942 127.278C186.655 127.403 186.431 127.575 186.269 127.794C186.11 128.013 186.03 128.261 186.03 128.54C186.03 128.773 186.086 128.973 186.196 129.141C186.31 129.305 186.455 129.443 186.631 129.554C186.807 129.662 186.992 129.751 187.185 129.823C187.378 129.891 187.556 129.946 187.718 129.989L188.604 130.227C188.831 130.287 189.084 130.369 189.363 130.474C189.644 130.58 189.912 130.723 190.168 130.905C190.427 131.084 190.64 131.314 190.807 131.595C190.975 131.876 191.059 132.222 191.059 132.631C191.059 133.102 190.935 133.528 190.688 133.909C190.444 134.29 190.086 134.592 189.614 134.817C189.145 135.041 188.576 135.153 187.905 135.153C187.28 135.153 186.739 135.053 186.282 134.851C185.827 134.649 185.469 134.368 185.208 134.007C184.949 133.646 184.803 133.227 184.769 132.75H185.86C185.888 133.08 185.999 133.352 186.192 133.568C186.388 133.781 186.635 133.94 186.934 134.046C187.235 134.148 187.559 134.199 187.905 134.199C188.309 134.199 188.671 134.134 188.992 134.003C189.313 133.869 189.567 133.685 189.755 133.449C189.942 133.21 190.036 132.932 190.036 132.614C190.036 132.324 189.955 132.088 189.793 131.906C189.631 131.724 189.418 131.577 189.154 131.463C188.89 131.349 188.604 131.25 188.297 131.165L187.223 130.858C186.542 130.662 186.002 130.382 185.604 130.019C185.206 129.655 185.008 129.179 185.008 128.591C185.008 128.102 185.14 127.676 185.404 127.313C185.671 126.946 186.029 126.662 186.478 126.46C186.929 126.256 187.434 126.153 187.991 126.153C188.553 126.153 189.053 126.254 189.491 126.456C189.928 126.655 190.275 126.928 190.53 127.274C190.789 127.621 190.925 128.014 190.939 128.455H189.917ZM194.786 135.153C194.371 135.153 193.995 135.075 193.657 134.919C193.319 134.76 193.05 134.531 192.851 134.233C192.653 133.932 192.553 133.568 192.553 133.142C192.553 132.767 192.627 132.463 192.775 132.23C192.922 131.994 193.12 131.81 193.367 131.676C193.614 131.543 193.887 131.443 194.185 131.378C194.486 131.31 194.789 131.256 195.093 131.216C195.491 131.165 195.813 131.126 196.06 131.101C196.31 131.073 196.492 131.026 196.606 130.96C196.722 130.895 196.78 130.781 196.78 130.619V130.585C196.78 130.165 196.665 129.838 196.435 129.605C196.208 129.372 195.863 129.256 195.4 129.256C194.92 129.256 194.543 129.361 194.27 129.571C193.998 129.781 193.806 130.006 193.695 130.244L192.741 129.903C192.911 129.506 193.138 129.196 193.422 128.974C193.709 128.75 194.022 128.594 194.36 128.506C194.701 128.415 195.036 128.369 195.366 128.369C195.576 128.369 195.817 128.395 196.09 128.446C196.366 128.494 196.631 128.595 196.887 128.749C197.145 128.902 197.36 129.134 197.53 129.443C197.701 129.753 197.786 130.168 197.786 130.688V135H196.78V134.114H196.729C196.661 134.256 196.547 134.408 196.388 134.57C196.229 134.732 196.018 134.869 195.753 134.983C195.489 135.097 195.167 135.153 194.786 135.153ZM194.939 134.25C195.337 134.25 195.672 134.172 195.945 134.016C196.221 133.859 196.428 133.658 196.567 133.411C196.709 133.163 196.78 132.903 196.78 132.631V131.71C196.738 131.761 196.644 131.808 196.499 131.851C196.357 131.891 196.192 131.926 196.005 131.957C195.82 131.986 195.64 132.011 195.464 132.034C195.29 132.054 195.15 132.071 195.042 132.085C194.78 132.119 194.536 132.175 194.309 132.251C194.084 132.325 193.903 132.438 193.763 132.588C193.627 132.736 193.559 132.938 193.559 133.193C193.559 133.543 193.688 133.807 193.947 133.986C194.208 134.162 194.539 134.25 194.939 134.25ZM202.668 128.455V129.307H199.276V128.455H202.668ZM200.265 126.886H201.27V133.125C201.27 133.409 201.312 133.622 201.394 133.764C201.479 133.903 201.587 133.997 201.718 134.046C201.851 134.091 201.992 134.114 202.14 134.114C202.251 134.114 202.342 134.108 202.413 134.097C202.484 134.082 202.54 134.071 202.583 134.063L202.788 134.966C202.719 134.992 202.624 135.017 202.502 135.043C202.38 135.071 202.225 135.085 202.038 135.085C201.753 135.085 201.475 135.024 201.202 134.902C200.932 134.78 200.708 134.594 200.529 134.344C200.353 134.094 200.265 133.778 200.265 133.398V126.886ZM207.228 128.455V129.307H203.836V128.455H207.228ZM204.824 126.886H205.83V133.125C205.83 133.409 205.871 133.622 205.953 133.764C206.039 133.903 206.147 133.997 206.277 134.046C206.411 134.091 206.551 134.114 206.699 134.114C206.81 134.114 206.901 134.108 206.972 134.097C207.043 134.082 207.1 134.071 207.142 134.063L207.347 134.966C207.279 134.992 207.184 135.017 207.061 135.043C206.939 135.071 206.784 135.085 206.597 135.085C206.313 135.085 206.034 135.024 205.762 134.902C205.492 134.78 205.267 134.594 205.088 134.344C204.912 134.094 204.824 133.778 204.824 133.398V126.886ZM211.614 135.136C210.984 135.136 210.44 134.997 209.982 134.719C209.528 134.438 209.177 134.046 208.93 133.543C208.685 133.037 208.563 132.449 208.563 131.778C208.563 131.108 208.685 130.517 208.93 130.006C209.177 129.492 209.521 129.091 209.961 128.804C210.404 128.514 210.921 128.369 211.512 128.369C211.853 128.369 212.19 128.426 212.522 128.54C212.854 128.653 213.157 128.838 213.43 129.094C213.702 129.347 213.92 129.682 214.082 130.099C214.244 130.517 214.325 131.031 214.325 131.642V132.068H209.279V131.199H213.302C213.302 130.83 213.228 130.5 213.08 130.21C212.935 129.921 212.728 129.692 212.458 129.524C212.191 129.357 211.876 129.273 211.512 129.273C211.112 129.273 210.765 129.372 210.472 129.571C210.183 129.767 209.96 130.023 209.803 130.338C209.647 130.653 209.569 130.992 209.569 131.352V131.932C209.569 132.426 209.654 132.845 209.825 133.189C209.998 133.53 210.238 133.79 210.545 133.969C210.852 134.145 211.208 134.233 211.614 134.233C211.879 134.233 212.117 134.196 212.33 134.122C212.546 134.046 212.732 133.932 212.889 133.781C213.045 133.628 213.166 133.438 213.251 133.21L214.222 133.483C214.12 133.813 213.948 134.102 213.707 134.352C213.465 134.599 213.167 134.793 212.812 134.932C212.457 135.068 212.058 135.136 211.614 135.136ZM216.054 135V128.455H217.026V129.443H217.094C217.214 129.119 217.429 128.857 217.742 128.655C218.054 128.453 218.407 128.352 218.799 128.352C218.873 128.352 218.965 128.354 219.076 128.357C219.187 128.359 219.27 128.364 219.327 128.369V129.392C219.293 129.384 219.215 129.371 219.093 129.354C218.973 129.334 218.847 129.324 218.714 129.324C218.395 129.324 218.111 129.391 217.861 129.524C217.614 129.655 217.418 129.837 217.273 130.07C217.131 130.3 217.06 130.563 217.06 130.858V135H216.054ZM225.487 126.273V135H224.431V126.273H225.487ZM228.676 131.063V135H227.67V128.455H228.642V129.477H228.727C228.88 129.145 229.113 128.878 229.426 128.676C229.738 128.472 230.142 128.369 230.636 128.369C231.079 128.369 231.467 128.46 231.799 128.642C232.132 128.821 232.39 129.094 232.575 129.46C232.76 129.824 232.852 130.284 232.852 130.841V135H231.846V130.909C231.846 130.395 231.713 129.994 231.446 129.707C231.179 129.418 230.812 129.273 230.346 129.273C230.025 129.273 229.738 129.342 229.485 129.482C229.235 129.621 229.038 129.824 228.893 130.091C228.748 130.358 228.676 130.682 228.676 131.063ZM239.526 129.921L238.623 130.176C238.566 130.026 238.482 129.879 238.371 129.737C238.263 129.592 238.115 129.473 237.928 129.379C237.74 129.286 237.5 129.239 237.208 129.239C236.807 129.239 236.473 129.331 236.206 129.516C235.942 129.698 235.81 129.929 235.81 130.21C235.81 130.46 235.901 130.658 236.083 130.803C236.265 130.948 236.549 131.068 236.935 131.165L237.907 131.403C238.492 131.546 238.928 131.763 239.215 132.055C239.502 132.345 239.645 132.719 239.645 133.176C239.645 133.551 239.537 133.886 239.321 134.182C239.108 134.477 238.81 134.71 238.427 134.881C238.043 135.051 237.597 135.136 237.088 135.136C236.421 135.136 235.868 134.992 235.431 134.702C234.993 134.412 234.716 133.989 234.6 133.432L235.554 133.193C235.645 133.546 235.817 133.81 236.07 133.986C236.326 134.162 236.659 134.25 237.071 134.25C237.54 134.25 237.912 134.151 238.188 133.952C238.466 133.75 238.606 133.509 238.606 133.227C238.606 133 238.526 132.81 238.367 132.656C238.208 132.5 237.963 132.384 237.634 132.307L236.543 132.051C235.944 131.909 235.503 131.689 235.222 131.391C234.944 131.09 234.804 130.713 234.804 130.261C234.804 129.892 234.908 129.565 235.115 129.281C235.326 128.997 235.611 128.774 235.972 128.612C236.336 128.45 236.748 128.369 237.208 128.369C237.856 128.369 238.364 128.511 238.733 128.796C239.106 129.08 239.37 129.455 239.526 129.921ZM244.206 128.455V129.307H240.814V128.455H244.206ZM241.802 126.886H242.808V133.125C242.808 133.409 242.849 133.622 242.932 133.764C243.017 133.903 243.125 133.997 243.255 134.046C243.389 134.091 243.53 134.114 243.677 134.114C243.788 134.114 243.879 134.108 243.95 134.097C244.021 134.082 244.078 134.071 244.12 134.063L244.325 134.966C244.257 134.992 244.162 135.017 244.04 135.043C243.917 135.071 243.763 135.085 243.575 135.085C243.291 135.085 243.013 135.024 242.74 134.902C242.47 134.78 242.245 134.594 242.067 134.344C241.89 134.094 241.802 133.778 241.802 133.398V126.886ZM245.919 135V128.455H246.924V135H245.919ZM246.43 127.364C246.234 127.364 246.065 127.297 245.923 127.163C245.784 127.03 245.714 126.869 245.714 126.682C245.714 126.494 245.784 126.334 245.923 126.2C246.065 126.067 246.234 126 246.43 126C246.626 126 246.794 126.067 246.933 126.2C247.075 126.334 247.146 126.494 247.146 126.682C247.146 126.869 247.075 127.03 246.933 127.163C246.794 127.297 246.626 127.364 246.43 127.364ZM251.813 128.455V129.307H248.421V128.455H251.813ZM249.409 126.886H250.415V133.125C250.415 133.409 250.456 133.622 250.539 133.764C250.624 133.903 250.732 133.997 250.862 134.046C250.996 134.091 251.137 134.114 251.284 134.114C251.395 134.114 251.486 134.108 251.557 134.097C251.628 134.082 251.685 134.071 251.728 134.063L251.932 134.966C251.864 134.992 251.769 135.017 251.647 135.043C251.524 135.071 251.37 135.085 251.182 135.085C250.898 135.085 250.62 135.024 250.347 134.902C250.077 134.78 249.853 134.594 249.674 134.344C249.497 134.094 249.409 133.778 249.409 133.398V126.886ZM257.651 132.324V128.455H258.656V135H257.651V133.892H257.582C257.429 134.224 257.19 134.507 256.866 134.74C256.543 134.97 256.133 135.085 255.639 135.085C255.23 135.085 254.866 134.996 254.548 134.817C254.23 134.635 253.98 134.362 253.798 133.999C253.616 133.632 253.526 133.171 253.526 132.614V128.455H254.531V132.546C254.531 133.023 254.665 133.403 254.932 133.688C255.202 133.972 255.545 134.114 255.963 134.114C256.213 134.114 256.467 134.05 256.726 133.922C256.987 133.794 257.206 133.598 257.382 133.334C257.561 133.07 257.651 132.733 257.651 132.324ZM263.545 128.455V129.307H260.153V128.455H263.545ZM261.141 126.886H262.147V133.125C262.147 133.409 262.188 133.622 262.271 133.764C262.356 133.903 262.464 133.997 262.594 134.046C262.728 134.091 262.869 134.114 263.016 134.114C263.127 134.114 263.218 134.108 263.289 134.097C263.36 134.082 263.417 134.071 263.46 134.063L263.664 134.966C263.596 134.992 263.501 135.017 263.379 135.043C263.256 135.071 263.102 135.085 262.914 135.085C262.63 135.085 262.352 135.024 262.079 134.902C261.809 134.78 261.585 134.594 261.406 134.344C261.229 134.094 261.141 133.778 261.141 133.398V126.886ZM267.932 135.136C267.301 135.136 266.757 134.997 266.299 134.719C265.845 134.438 265.494 134.046 265.247 133.543C265.003 133.037 264.88 132.449 264.88 131.778C264.88 131.108 265.003 130.517 265.247 130.006C265.494 129.492 265.838 129.091 266.278 128.804C266.721 128.514 267.238 128.369 267.829 128.369C268.17 128.369 268.507 128.426 268.839 128.54C269.172 128.653 269.474 128.838 269.747 129.094C270.02 129.347 270.237 129.682 270.399 130.099C270.561 130.517 270.642 131.031 270.642 131.642V132.068H265.596V131.199H269.619C269.619 130.83 269.545 130.5 269.397 130.21C269.253 129.921 269.045 129.692 268.775 129.524C268.508 129.357 268.193 129.273 267.829 129.273C267.429 129.273 267.082 129.372 266.79 129.571C266.5 129.767 266.277 130.023 266.12 130.338C265.964 130.653 265.886 130.992 265.886 131.352V131.932C265.886 132.426 265.971 132.845 266.142 133.189C266.315 133.53 266.555 133.79 266.862 133.969C267.169 134.145 267.525 134.233 267.932 134.233C268.196 134.233 268.434 134.196 268.647 134.122C268.863 134.046 269.049 133.932 269.206 133.781C269.362 133.628 269.483 133.438 269.568 133.21L270.54 133.483C270.437 133.813 270.265 134.102 270.024 134.352C269.782 134.599 269.484 134.793 269.129 134.932C268.774 135.068 268.375 135.136 267.932 135.136Z" fill="#141F1E"/>
</svg>
