<svg width="26" height="23" viewBox="0 0 26 23" fill="none" xmlns="http://www.w3.org/2000/svg">
<g id="Group">
<g id="Group_2">
<g id="Group_3">
<path id="Vector" d="M4.73542 17.9405H2.21002C1.76282 17.9405 1.39453 18.3088 1.39453 18.756V21.8601C1.39453 22.3073 1.76282 22.6756 2.21002 22.6756H4.73542C5.18262 22.6756 5.55091 22.3073 5.55091 21.8601V18.756C5.55091 18.3088 5.18262 17.9405 4.73542 17.9405Z" fill="#41CC97"/>
<path id="Vector_2" d="M11.4971 14.7311H8.97174C8.52454 14.7311 8.15625 15.0993 8.15625 15.5465V21.8863C8.15625 22.3335 8.52454 22.7018 8.97174 22.7018H11.4971C11.9443 22.7018 12.3126 22.3335 12.3126 21.8863V15.5202C12.3126 15.073 11.9443 14.7311 11.4971 14.7311Z" fill="#41CC97"/>
<path id="Vector_3" d="M18.2569 11.4955H15.7315C15.2843 11.4955 14.916 11.8638 14.916 12.311V21.8864C14.916 22.3336 15.2843 22.7019 15.7315 22.7019H18.2569C18.7041 22.7019 19.0724 22.3336 19.0724 21.8864V12.2847C19.0724 11.8374 18.7041 11.4955 18.2569 11.4955Z" fill="#41CC97"/>
<path id="Vector_4" d="M25.0186 8.25977H22.4932C22.046 8.25977 21.6777 8.62806 21.6777 9.07526V21.8601C21.6777 22.3073 22.046 22.6756 22.4932 22.6756H25.0186C25.4658 22.6756 25.8341 22.3073 25.8341 21.8601V9.07526C25.8341 8.62806 25.4658 8.25977 25.0186 8.25977Z" fill="#41CC97"/>
<path id="Vector_5" d="M20.8095 1.97257L14.5486 0.762486C13.9699 0.657261 13.5227 1.236 13.7594 1.78843L14.6539 3.60355L1.29032 10.1275C0.895723 10.3116 0.71158 10.8114 0.92203 11.206L1.79013 12.9949C1.97428 13.3895 2.47409 13.5736 2.86869 13.3631L16.2322 6.83921L17.1266 8.65434C17.3897 9.18046 18.1263 9.18046 18.4156 8.65434L21.3093 2.9722C21.5198 2.57761 21.283 2.05149 20.8095 1.97257Z" fill="#41CC97"/>
</g>
</g>
</g>
</svg>
