<svg width="26" height="23" viewBox="0 0 26 23" fill="none" xmlns="http://www.w3.org/2000/svg">
<g id="Group">
<g id="Group_2">
<g id="Group_3">
<path id="Vector" d="M4.73542 17.9404H2.21002C1.76282 17.9404 1.39453 18.3087 1.39453 18.7559V21.8601C1.39453 22.3073 1.76282 22.6755 2.21002 22.6755H4.73542C5.18262 22.6755 5.55091 22.3073 5.55091 21.8601V18.7559C5.55091 18.3087 5.18262 17.9404 4.73542 17.9404Z" fill="#B6BAB9"/>
<path id="Vector_2" d="M11.4971 14.731H8.97174C8.52454 14.731 8.15625 15.0992 8.15625 15.5464V21.8862C8.15625 22.3334 8.52454 22.7017 8.97174 22.7017H11.4971C11.9443 22.7017 12.3126 22.3334 12.3126 21.8862V15.5201C12.3126 15.0729 11.9443 14.731 11.4971 14.731Z" fill="#B6BAB9"/>
<path id="Vector_3" d="M18.2569 11.4954H15.7315C15.2843 11.4954 14.916 11.8636 14.916 12.3109V21.8863C14.916 22.3335 15.2843 22.7018 15.7315 22.7018H18.2569C18.7041 22.7018 19.0724 22.3335 19.0724 21.8863V12.2845C19.0724 11.8373 18.7041 11.4954 18.2569 11.4954Z" fill="#B6BAB9"/>
<path id="Vector_4" d="M25.0186 8.25977H22.4932C22.046 8.25977 21.6777 8.62805 21.6777 9.07526V21.8601C21.6777 22.3073 22.046 22.6756 22.4932 22.6756H25.0186C25.4658 22.6756 25.8341 22.3073 25.8341 21.8601V9.07526C25.8341 8.62805 25.4658 8.25977 25.0186 8.25977Z" fill="#B6BAB9"/>
<path id="Vector_5" d="M20.8095 1.97257L14.5486 0.762486C13.9699 0.657261 13.5227 1.236 13.7594 1.78843L14.6539 3.60355L1.29032 10.1275C0.895723 10.3116 0.71158 10.8114 0.92203 11.206L1.79013 12.9949C1.97428 13.3895 2.47409 13.5736 2.86869 13.3631L16.2322 6.83921L17.1266 8.65434C17.3897 9.18046 18.1263 9.18046 18.4156 8.65434L21.3093 2.9722C21.5198 2.57761 21.283 2.05149 20.8095 1.97257Z" fill="#B6BAB9"/>
</g>
</g>
</g>
</svg>
