<svg width="21" height="21" viewBox="0 0 21 21" fill="none" xmlns="http://www.w3.org/2000/svg">
<g id="Group">
<path id="Vector" d="M14.0319 19.0051C14.277 18.9159 14.5221 18.8491 14.7672 18.76C14.6558 19.0051 14.433 19.0719 14.2324 19.1388C13.5639 19.4062 12.9177 19.6513 12.2492 19.8964C11.6253 20.1192 11.0013 20.2975 10.3551 20.4758C9.77573 20.6318 9.19636 20.6318 8.59471 20.6986C8.01534 20.7655 7.45825 20.6763 6.87888 20.5872C6.41093 20.4981 5.96525 20.3866 5.51958 20.2307C5.43045 20.2084 5.3636 20.1861 5.27447 20.1415C4.51683 19.6513 3.71462 19.2056 3.04612 18.5817C2.84556 18.3811 2.60045 18.2251 2.37761 18.0469C2.24391 17.9355 2.11021 17.824 2.08793 17.6681C2.04336 17.4675 1.93194 17.3115 1.79824 17.2001C1.48627 16.9104 1.28572 16.5316 1.1743 16.1528C0.97375 15.5288 0.728632 14.9049 0.594931 14.2587C0.52808 14.0136 0.483513 13.7462 0.505797 13.501C0.572647 12.0081 1.10745 10.7379 2.17706 9.66828C2.86785 8.97749 3.69234 8.48726 4.60596 8.10844C5.02935 7.93017 5.43045 7.68505 5.87612 7.52907C6.47778 7.30623 7.07943 7.15025 7.68108 6.92741C8.90668 6.43717 10.0431 5.81324 10.979 4.87733C11.5584 4.29796 12.1378 3.71859 12.628 3.07237C12.9177 2.69355 13.2965 2.44843 13.6531 2.13646C14.589 1.33425 15.7254 1 16.951 1C17.3521 1 17.7087 1.11142 18.0429 1.37882C18.3326 1.62394 18.6 1.86906 18.912 2.11418C18.9565 2.13646 18.9788 2.18103 19.0234 2.20331C19.4468 2.7604 19.8924 3.2952 20.1376 3.96371C20.2267 4.23111 20.3827 4.47623 20.4495 4.76591C20.561 5.36757 20.4718 5.94694 20.3381 6.52631C20.2267 7.06111 20.0261 7.55135 19.8256 8.06387C19.4913 8.84379 19.068 9.55687 18.6891 10.3145C18.3772 10.9607 18.2212 11.6515 17.9983 12.32C17.7309 13.1445 17.4858 13.9913 17.0847 14.7712C16.7505 15.3951 16.4831 16.0414 16.1042 16.6653C15.6363 17.4898 14.9901 18.1583 14.277 18.7822C14.1879 18.8491 14.0987 18.9382 14.0096 19.0051C14.0096 18.9828 14.0319 18.9828 14.0319 19.0051ZM0.795482 13.3896C0.773199 13.7462 0.817766 14.0359 0.884616 14.3255C1.0406 14.9272 1.24115 15.5288 1.4417 16.1082C1.66454 16.7544 2.06564 17.267 2.73415 17.5566C3.64777 17.98 4.62824 18.1583 5.631 18.2029C6.32179 18.2474 7.01258 18.2029 7.70337 18.0246C8.01534 17.9355 8.28274 17.824 8.59471 17.7126C9.33006 17.4675 9.99857 17.0887 10.6002 16.6207C11.6253 15.7962 12.5612 14.8826 13.4302 13.9021C14.3216 12.8771 15.1683 11.8298 15.9037 10.6933C16.3494 10.0025 16.795 9.28946 17.1739 8.55411C17.419 8.06387 17.5972 7.55135 17.8424 7.06111C17.9983 6.72686 18.1766 6.41489 18.288 6.05835C18.444 5.47898 18.5777 4.89961 18.7337 4.32024C18.8674 3.83 18.9343 3.31748 18.8228 2.82725C18.7337 2.38158 18.5332 1.98047 18.132 1.71307C18.0206 1.64622 17.9092 1.57937 17.8201 1.46795C17.6195 1.2674 17.3744 1.20055 17.107 1.20055C16.0151 1.17827 14.9901 1.42339 14.0987 2.09189C13.6308 2.44843 13.1628 2.80496 12.784 3.2952C12.472 3.6963 12.0709 4.03056 11.7367 4.40938C11.4024 4.81048 11.0236 5.16702 10.6002 5.50127C9.5529 6.30347 8.39416 6.92741 7.124 7.30623C5.85384 7.70733 4.65053 8.21986 3.51407 8.86608C2.801 9.26718 2.22163 9.84655 1.75367 10.5151C1.08517 11.4064 0.750915 12.3869 0.795482 13.3896ZM19.0902 2.78268C19.2017 3.4289 19.0234 4.05284 18.8897 4.67678C18.8228 5.01103 18.6891 5.30072 18.6223 5.63497C18.5777 5.96922 18.444 6.30347 18.3103 6.61544C18.1098 7.03883 17.9092 7.43993 17.7309 7.86332C17.4413 8.53182 17.1293 9.20033 16.7505 9.82427C15.9483 11.1613 15.0124 12.4314 13.9873 13.6125C13.1183 14.6375 12.1601 15.5734 11.1573 16.487C10.1768 17.3561 8.99581 17.8463 7.77022 18.2474C7.05715 18.4703 6.29951 18.4257 5.56415 18.4925C5.51959 18.4925 5.47502 18.4925 5.43045 18.4703C5.0962 18.3811 4.73966 18.3589 4.40541 18.3143C4.13801 18.292 3.89289 18.2251 3.62549 18.136C3.22438 18.0246 2.82328 17.8686 2.42218 17.7349C2.91242 18.0914 3.3358 18.4925 3.80376 18.8491C4.49454 19.3616 5.2299 19.8518 6.05439 20.1415C6.29951 20.2307 6.54463 20.2307 6.78974 20.2975C7.61423 20.5426 8.43872 20.4981 9.26321 20.3866C9.5529 20.3421 9.86487 20.3421 10.1546 20.2529C10.5779 20.1192 11.0013 20.0078 11.447 19.8964C12.1824 19.6959 12.8509 19.3616 13.4971 18.9828C14.0542 18.6485 14.4776 18.2029 14.9232 17.7349C15.2129 17.4229 15.5026 17.0664 15.7254 16.6876C16.1711 15.9522 16.5276 15.1946 16.9065 14.4147C17.3967 13.4342 17.6864 12.3646 17.9983 11.3173C18.0875 10.983 18.1989 10.671 18.3326 10.3591C18.7337 9.49002 19.2239 8.68781 19.6028 7.81875C19.937 7.06111 20.093 6.28119 20.2044 5.4567C20.249 5.21158 20.1821 4.96646 20.1376 4.72134C20.0707 4.38709 19.9147 4.09741 19.8033 3.80772C19.6696 3.4289 19.3576 3.13922 19.0902 2.78268Z" fill="black" stroke="black" stroke-width="0.25" stroke-miterlimit="10"/>
<g id="Vector_2">
<path d="M4.16051 14.3925C3.82626 13.9246 3.93767 13.4343 3.87082 12.9886C3.82626 12.6767 3.95996 12.3647 4.04909 12.0527C4.33878 11.05 4.89587 10.2255 5.69807 9.5347C5.80949 9.44557 5.94319 9.35643 6.07689 9.2673C6.52256 8.9999 6.99051 8.75478 7.48075 8.55423C8.28296 8.21997 9.10745 8.10856 9.9765 8.30911C10.2662 8.37596 10.5336 8.44281 10.8233 8.50966C11.4026 8.66564 11.9597 8.91076 12.4054 9.31187C12.4945 9.401 12.5614 9.49013 12.606 9.60155C12.6505 9.69069 12.6505 9.8021 12.7619 9.86895C12.8956 9.73525 12.8511 9.55698 12.8734 9.401C12.8734 9.31187 12.8734 9.22273 12.9848 9.20045C13.1185 9.17816 13.1185 9.31187 13.1408 9.401C13.1853 9.55698 13.1408 9.71297 13.0739 9.84667C12.9625 10.1809 12.7842 10.4929 12.5614 10.7826C11.7146 11.9413 10.6896 12.8772 9.37485 13.5457C8.81776 13.8354 8.26067 14.0805 7.6813 14.3257C6.83453 14.7045 5.94319 14.7713 5.02957 14.7045C4.82902 14.6822 4.62846 14.6599 4.42791 14.6599C4.09366 14.6822 3.80397 14.5262 3.49201 14.4594C3.44744 14.4594 3.42515 14.4371 3.40287 14.4148C3.3583 14.3702 3.31374 14.3257 3.3583 14.2588C3.38059 14.2142 3.42515 14.2142 3.49201 14.2142C3.71484 14.2811 3.89311 14.3702 4.16051 14.3925ZM5.45295 14.3702C5.56437 14.3479 5.67579 14.3479 5.74264 14.192C5.60894 14.2365 5.54209 14.3034 5.45295 14.3702C5.43067 14.3925 5.3861 14.3925 5.36382 14.4148C5.34154 14.4148 5.31925 14.4594 5.34154 14.4594C5.36382 14.5039 5.40839 14.4816 5.43067 14.4594C5.45295 14.4371 5.45295 14.3925 5.45295 14.3702ZM5.18555 14.2365C5.36382 14.1474 5.5198 14.0583 5.69807 13.9691C5.78721 13.9246 5.89862 13.8354 5.98776 13.88C6.12146 13.9468 6.23288 13.9246 6.34429 13.8354C6.41114 13.7909 6.47799 13.7463 6.54485 13.8131C6.6117 13.9023 6.50028 13.9468 6.45571 14.0137C6.34429 14.1028 6.21059 14.1697 6.14374 14.3034C6.09917 14.3257 6.05461 14.3257 6.01004 14.3479C5.96547 14.3702 5.92091 14.4148 5.94319 14.4594C5.98776 14.5262 6.05461 14.4816 6.07689 14.4148C6.09917 14.3702 6.09917 14.3257 6.12146 14.2811C6.25516 14.2811 6.36658 14.192 6.45571 14.1028C6.70083 13.9023 6.8791 13.6126 7.25792 13.6349C7.30248 13.6349 7.34705 13.568 7.4139 13.5457C7.48075 13.5012 7.5476 13.4789 7.59217 13.4343C7.61445 13.412 7.6813 13.412 7.6813 13.4566C7.70359 13.4789 7.70359 13.5234 7.6813 13.5457C7.63674 13.5903 7.56989 13.6349 7.52532 13.7017C7.36933 13.8577 7.21335 14.0137 7.07965 14.1697C7.05737 14.192 7.0128 14.2588 7.05737 14.2811C7.12422 14.3257 7.16878 14.2811 7.21335 14.2365C7.23563 14.2142 7.23563 14.1697 7.25792 14.1474C7.48075 13.88 7.70359 13.568 8.03784 13.412C8.28296 13.3006 8.55036 13.256 8.7732 13.1223C8.7732 13.1223 8.81776 13.1446 8.84005 13.1669C8.7732 13.2783 8.66178 13.3675 8.63949 13.5012C8.55036 13.568 8.43894 13.6126 8.43894 13.7686C8.55036 13.6794 8.59493 13.6126 8.63949 13.5012C8.84005 13.3675 8.95146 13.1446 9.10745 12.9664C9.1743 12.8772 9.24115 12.7658 9.39713 12.7881C9.39713 13.0109 9.15201 13.1223 9.15201 13.3229C9.28572 13.1669 9.41942 12.9886 9.53083 12.8104C9.59768 12.7212 9.64225 12.5875 9.75367 12.5875C9.90965 12.5653 9.9765 12.4761 10.0211 12.3424C10.0434 12.2756 10.1102 12.1864 10.1771 12.231C10.3999 12.4093 10.3999 12.1864 10.489 12.0973C10.5336 12.0305 10.5782 11.9636 10.645 11.9413C10.8456 11.8968 10.9124 11.7631 10.9793 11.6071C11.0015 11.5402 11.0684 11.4288 11.1575 11.4734C11.3358 11.5848 11.3358 11.4511 11.3804 11.3397C11.4026 11.2728 11.4249 11.206 11.4472 11.1391C11.4695 11.1168 11.4918 11.0945 11.5363 11.0945C11.5809 11.0945 11.6255 11.1391 11.6255 11.1837C11.6255 11.2951 11.6255 11.4288 11.6255 11.6071C11.826 11.2728 11.982 10.9831 12.0712 10.6712C12.1157 10.5375 12.1603 10.4038 12.294 10.3369C12.4277 10.2701 12.45 10.1364 12.45 10.0027C12.4277 9.60155 12.1603 9.35643 11.6701 9.2673C11.5586 9.24502 11.3804 9.28958 11.4918 9.06675C11.4918 9.04446 11.4695 8.9999 11.4472 8.97761C11.113 8.82163 10.801 8.66564 10.4222 8.64336C10.3108 8.64336 10.2439 8.59879 10.1548 8.55423C9.82052 8.39824 9.46398 8.30911 9.10745 8.42053C8.84005 8.50966 8.52808 8.39824 8.28296 8.55423C7.94871 8.44281 7.6813 8.64336 7.39162 8.77706C7.07965 8.91076 6.76768 9.08903 6.45571 9.24501C6.07689 9.44557 5.78721 9.71297 5.47524 10.0249C4.80673 10.6712 4.47248 11.4734 4.22736 12.3424C4.09366 12.8327 4.18279 13.3452 4.24964 13.8577C4.24964 13.9023 4.27193 13.9468 4.29421 13.9914C4.42791 14.2588 4.4502 14.2811 4.73988 14.1474C4.91815 14.0583 5.07413 13.9691 5.2524 13.88C5.31925 13.8577 5.3861 13.7686 5.49752 13.8577C5.45295 14.0805 5.27469 14.1251 5.18555 14.2365C5.05185 14.2811 4.94043 14.3479 4.80673 14.4594C5.05185 14.5039 5.07413 14.3034 5.18555 14.2365ZM7.65902 14.0583C7.94871 14.036 7.97099 13.8131 8.10469 13.6794C7.94871 13.8131 7.79272 13.9468 7.65902 14.0583Z" fill="black"/>
<path d="M5.45295 14.3702C5.56437 14.3479 5.67579 14.3479 5.74264 14.192C5.60894 14.2365 5.54209 14.3034 5.45295 14.3702ZM5.45295 14.3702C5.43067 14.3925 5.3861 14.3925 5.36382 14.4148C5.34154 14.4148 5.31925 14.4594 5.34154 14.4594C5.36382 14.5039 5.40839 14.4816 5.43067 14.4594C5.45295 14.4371 5.45295 14.3925 5.45295 14.3702ZM5.18555 14.2365C5.36382 14.1474 5.5198 14.0583 5.69807 13.9691C5.78721 13.9246 5.89862 13.8354 5.98776 13.88C6.12146 13.9468 6.23288 13.9246 6.34429 13.8354C6.41114 13.7908 6.47799 13.7463 6.54485 13.8131C6.6117 13.9023 6.50028 13.9468 6.45571 14.0137C6.34429 14.1028 6.21059 14.1697 6.14374 14.3034C6.09917 14.3257 6.05461 14.3257 6.01004 14.3479C5.96547 14.3702 5.92091 14.4148 5.94319 14.4594C5.98776 14.5262 6.05461 14.4816 6.07689 14.4148C6.09917 14.3702 6.09917 14.3257 6.12146 14.2811C6.25516 14.2811 6.36658 14.192 6.45571 14.1028C6.70083 13.9023 6.8791 13.6126 7.25792 13.6349C7.30248 13.6349 7.34705 13.568 7.4139 13.5457C7.48075 13.5012 7.5476 13.4789 7.59217 13.4343C7.61445 13.412 7.6813 13.412 7.6813 13.4566C7.70359 13.4789 7.70359 13.5234 7.6813 13.5457C7.63674 13.5903 7.56989 13.6349 7.52532 13.7017C7.36933 13.8577 7.21335 14.0137 7.07965 14.1697C7.05737 14.192 7.0128 14.2588 7.05737 14.2811C7.12422 14.3257 7.16878 14.2811 7.21335 14.2365C7.23563 14.2142 7.23563 14.1697 7.25792 14.1474C7.48075 13.88 7.70359 13.568 8.03784 13.412C8.28296 13.3006 8.55036 13.256 8.7732 13.1223C8.7732 13.1223 8.81776 13.1446 8.84005 13.1669C8.7732 13.2783 8.66178 13.3675 8.63949 13.5012M5.18555 14.2365C5.27469 14.1251 5.45295 14.0805 5.49752 13.8577C5.3861 13.7686 5.31925 13.8577 5.2524 13.88C5.07413 13.9691 4.91815 14.0583 4.73988 14.1474C4.4502 14.2811 4.42791 14.2588 4.29421 13.9914C4.27193 13.9468 4.24964 13.9023 4.24964 13.8577C4.18279 13.3452 4.09366 12.8327 4.22736 12.3424C4.47248 11.4734 4.80673 10.6712 5.47524 10.0249C5.78721 9.71297 6.07689 9.44557 6.45571 9.24501C6.76768 9.08903 7.07965 8.91076 7.39162 8.77706C7.6813 8.64336 7.94871 8.44281 8.28296 8.55423C8.52808 8.39824 8.84005 8.50966 9.10745 8.42053C9.46398 8.30911 9.82052 8.39824 10.1548 8.55423C10.2439 8.59879 10.3108 8.64336 10.4222 8.64336C10.801 8.66564 11.113 8.82163 11.4472 8.97761C11.4695 8.9999 11.4918 9.04446 11.4918 9.06675C11.3804 9.28958 11.5586 9.24502 11.6701 9.2673C12.1603 9.35643 12.4277 9.60155 12.45 10.0027C12.45 10.1364 12.4277 10.2701 12.294 10.3369C12.1603 10.4038 12.1157 10.5375 12.0712 10.6712C11.982 10.9831 11.826 11.2728 11.6255 11.6071C11.6255 11.4288 11.6255 11.2951 11.6255 11.1837C11.6255 11.1391 11.5809 11.0945 11.5363 11.0945C11.4918 11.0945 11.4695 11.1168 11.4472 11.1391C11.4249 11.206 11.4026 11.2728 11.3804 11.3397C11.3358 11.4511 11.3358 11.5848 11.1575 11.4734C11.0684 11.4288 11.0015 11.5402 10.9793 11.6071C10.9124 11.7631 10.8456 11.8968 10.645 11.9413C10.5782 11.9636 10.5336 12.0305 10.489 12.0973C10.3999 12.1864 10.3999 12.4093 10.1771 12.231C10.1102 12.1864 10.0434 12.2756 10.0211 12.3424C9.9765 12.4761 9.90965 12.5653 9.75367 12.5875C9.64225 12.5875 9.59768 12.7212 9.53083 12.8104C9.41942 12.9886 9.28572 13.1669 9.15201 13.3229C9.15201 13.1223 9.39713 13.0109 9.39713 12.7881C9.24115 12.7658 9.1743 12.8772 9.10745 12.9664C8.95146 13.1446 8.84005 13.3675 8.63949 13.5012M5.18555 14.2365C5.05185 14.2811 4.94043 14.3479 4.80673 14.4594C5.05185 14.5039 5.07413 14.3034 5.18555 14.2365ZM8.63949 13.5012C8.55036 13.568 8.43894 13.6126 8.43894 13.7686C8.55036 13.6794 8.59493 13.6126 8.63949 13.5012ZM4.16051 14.3925C3.82626 13.9246 3.93768 13.4343 3.87082 12.9886C3.82626 12.6767 3.95996 12.3647 4.04909 12.0527C4.33878 11.05 4.89587 10.2255 5.69807 9.5347C5.80949 9.44557 5.94319 9.35643 6.07689 9.2673C6.52256 8.9999 6.99051 8.75478 7.48075 8.55423C8.28296 8.21997 9.10745 8.10856 9.9765 8.30911C10.2662 8.37596 10.5336 8.44281 10.8233 8.50966C11.4026 8.66564 11.9597 8.91076 12.4054 9.31187C12.4945 9.401 12.5614 9.49013 12.606 9.60155C12.6505 9.69069 12.6505 9.8021 12.7619 9.86895C12.8956 9.73525 12.8511 9.55698 12.8734 9.401C12.8734 9.31187 12.8734 9.22273 12.9848 9.20045C13.1185 9.17816 13.1185 9.31187 13.1408 9.401C13.1853 9.55698 13.1408 9.71297 13.0739 9.84667C12.9625 10.1809 12.7842 10.4929 12.5614 10.7826C11.7146 11.9413 10.6896 12.8772 9.37485 13.5457C8.81776 13.8354 8.26067 14.0805 7.6813 14.3257C6.83453 14.7045 5.94319 14.7713 5.02957 14.7045C4.82902 14.6822 4.62846 14.6599 4.42791 14.6599C4.09366 14.6822 3.80397 14.5262 3.49201 14.4594C3.44744 14.4594 3.42515 14.4371 3.40287 14.4148C3.3583 14.3702 3.31374 14.3257 3.3583 14.2588C3.38059 14.2142 3.42515 14.2142 3.49201 14.2142C3.71484 14.2811 3.89311 14.3702 4.16051 14.3925ZM7.65902 14.0583C7.94871 14.036 7.97099 13.8131 8.10469 13.6794C7.94871 13.8131 7.79272 13.9468 7.65902 14.0583Z" stroke="black" stroke-width="0.25" stroke-miterlimit="10"/>
</g>
<path id="Vector_3" d="M16.5063 1.78003C16.8629 1.86916 17.264 1.91373 17.6205 2.092C17.9771 2.29255 18.133 2.64909 18.0662 2.98334C18.0439 3.05019 18.0439 3.11704 17.9771 3.11704C17.8879 3.11704 17.8656 3.05019 17.8656 2.96105C17.8434 2.44853 17.5091 2.24798 17.0412 2.13657C16.3058 1.9583 15.6373 2.06971 15.0134 2.47082C14.3894 2.87192 13.81 3.31759 13.2975 3.8524C12.8296 4.32035 12.4953 4.87744 11.9828 5.30082C11.7377 5.50137 11.4703 5.70193 11.2697 5.94704C11.2252 5.99161 11.1806 6.03618 11.136 6.05846C11.0469 6.10303 10.9355 6.1476 10.8686 6.05846C10.7795 5.92476 10.9355 5.92476 11.0023 5.85791C11.448 5.47909 11.8714 5.12256 12.2502 4.69917C12.8296 4.00838 13.4312 3.31759 14.1666 2.80507C14.6791 2.44853 15.1916 2.06971 15.8378 1.91373C16.0384 1.8246 16.2612 1.8246 16.5063 1.78003Z" fill="black" stroke="black" stroke-width="0.25" stroke-miterlimit="10"/>
<path id="Vector_4" d="M1.865 14.6598C1.79815 14.6152 1.77587 14.5706 1.77587 14.5261C1.64217 13.6347 1.53075 12.7434 1.77587 11.8298C1.95414 11.139 2.28839 10.515 2.73406 9.95796C2.75634 9.93567 2.77863 9.91339 2.80091 9.89111C2.89004 9.82425 2.97918 9.71284 3.06831 9.80197C3.17973 9.91339 3.02374 9.98024 2.95689 10.0471C2.46666 10.6265 2.11012 11.2727 1.97642 12.008C1.865 12.6097 1.84272 13.2113 1.93185 13.8353C1.97642 14.2587 1.97642 14.4147 1.865 14.6598Z" fill="black" stroke="black" stroke-width="0.25" stroke-miterlimit="10"/>
<path id="Vector_5" d="M9.66352 6.66016C9.70808 6.79386 9.64123 6.83842 9.57438 6.88299C9.10643 7.23953 8.59391 7.5515 8.01454 7.72976C7.19005 7.97488 6.38784 8.26457 5.56335 8.46512C5.38508 8.50969 5.20681 8.59882 5.02855 8.66567C4.98398 8.68796 4.91713 8.73252 4.87256 8.75481C4.78343 8.79937 4.67201 8.86622 4.62744 8.75481C4.56059 8.6211 4.69429 8.57654 4.78343 8.53197C4.93941 8.46512 5.0954 8.37599 5.25138 8.33142C5.80847 8.15315 6.34327 7.99717 6.90036 7.8189C7.27918 7.70748 7.658 7.57378 8.03682 7.46236C8.43792 7.32866 8.81674 7.15039 9.15099 6.90527C9.30698 6.81614 9.46296 6.72701 9.66352 6.66016Z" fill="black" stroke="black" stroke-width="0.25" stroke-miterlimit="10"/>
<path id="Vector_6" d="M3.44789 16.9549C3.42561 16.9995 3.38104 17.0217 3.33648 16.9995C3.00222 16.7766 2.57884 16.6206 2.33372 16.2864C2.24458 16.175 2.17773 16.0413 2.17773 15.9076C2.17773 15.8407 2.20002 15.7961 2.26687 15.7739C2.33372 15.7516 2.40057 15.7961 2.40057 15.863C2.46742 16.2641 2.77939 16.4424 3.09136 16.6206C3.20278 16.6875 3.29191 16.7766 3.40333 16.8658C3.44789 16.8658 3.47018 16.9103 3.44789 16.9549Z" fill="black" stroke="black" stroke-width="0.25" stroke-miterlimit="10"/>
<g id="Vector_7">
<path d="M8.79605 20.097C8.75149 20.2307 8.66235 20.253 8.55094 20.2084C8.35038 20.1416 8.1944 20.0301 7.99385 20.1415C7.927 20.1638 7.88243 20.1193 7.86015 20.0524C7.86015 20.0078 7.86015 19.941 7.83786 19.9187C7.7933 19.8519 7.72645 19.8296 7.6596 19.8964C7.59275 19.941 7.61503 19.9856 7.63731 20.0524C7.68188 20.1193 7.7933 20.1638 7.7933 20.2753C7.61503 20.2753 7.16936 20.097 7.08022 19.9856C6.94652 19.8519 6.83511 19.7404 6.63455 19.7627C6.58999 19.8964 6.81282 19.9187 6.7014 20.0747C6.25573 20.0301 6.09975 19.5399 5.72093 19.4062C5.67636 19.4285 5.65408 19.4508 5.67636 19.473C5.72093 19.5399 5.87692 19.5845 5.7655 19.6959C5.69865 19.7627 5.60951 19.6959 5.54266 19.6513C5.23069 19.4062 4.89644 19.1388 4.58447 18.8937C4.56219 18.8714 4.53991 18.8491 4.53991 18.8491C4.49534 18.7823 4.38392 18.6931 4.47305 18.604C4.56219 18.4926 4.65132 18.604 4.71817 18.6708C4.85187 18.7823 4.98558 18.7823 5.11928 18.76C5.45353 18.6708 5.7655 18.7823 6.07747 18.7823C6.09975 18.7823 6.09975 18.8045 6.12203 18.8491C6.0329 19.0051 5.83235 18.8937 5.72093 19.0274C5.83235 19.2056 5.96605 19.1611 6.09975 19.1165C6.38944 19.0274 6.67912 19.0274 6.96881 18.9382C7.01337 18.916 7.10251 18.916 7.10251 19.0051C7.10251 19.0719 7.05794 19.0719 7.01337 19.0942C6.85739 19.1611 6.67912 19.1388 6.54542 19.2502C6.67912 19.473 6.70141 19.4953 6.94652 19.4285C7.19164 19.3616 7.43676 19.2502 7.70416 19.2502C7.7933 19.3616 7.59275 19.4285 7.68188 19.5176C7.77101 19.5845 7.86015 19.5399 7.94928 19.5176C8.14983 19.4285 8.37267 19.3171 8.64007 19.2056C8.52865 19.5622 8.21668 19.5399 8.0607 19.7182C8.14983 19.8519 8.26125 19.785 8.35038 19.7404C8.5955 19.6067 8.84062 19.4953 9.08574 19.3616C9.17487 19.3171 9.26401 19.2502 9.39771 19.2948C9.33086 19.5399 9.04117 19.5176 8.92976 19.6959C9.04117 19.8519 9.17487 19.785 9.28629 19.7182C9.66511 19.5176 10.0439 19.2948 10.4227 19.0942C10.5342 19.0274 10.6679 18.8491 10.7793 19.0051C10.8461 19.1165 10.6456 19.2056 10.5342 19.2725C10.3113 19.4062 10.0885 19.5399 9.86566 19.6736C9.93251 19.7627 9.97708 19.7404 9.99936 19.7182C10.445 19.4062 10.9798 19.2279 11.4478 18.916C11.5369 18.8491 11.6929 18.7377 11.7598 18.8491C11.8489 18.9828 11.6483 19.0497 11.5369 19.1165C11.1804 19.2948 10.8016 19.473 10.445 19.6959C10.3782 19.7404 10.289 19.7627 10.2445 19.8296C10.2445 19.9633 10.4896 19.9187 10.445 20.0301C10.3782 20.1861 10.2445 20.0524 10.1331 20.0524C10.0216 20.0301 9.91023 19.9856 9.79881 19.941C9.68739 19.8964 9.57598 19.8296 9.46456 19.8519C9.44228 20.0078 9.66511 20.0078 9.59826 20.1193C9.50913 20.253 9.37543 20.1416 9.28629 20.097C9.10802 20.0301 8.95204 20.2084 8.79605 20.097C8.77377 19.8964 8.77377 19.8964 8.50637 19.9187C8.57322 20.0524 8.68464 20.0524 8.79605 20.097ZM7.05794 19.629C7.08022 19.6736 7.12479 19.7182 7.16936 19.7404C7.23621 19.7627 7.30306 19.8073 7.36991 19.7404C7.39219 19.7182 7.39219 19.6736 7.36991 19.6513C7.32534 19.5845 7.30306 19.5399 7.21393 19.5622C7.16936 19.5622 7.10251 19.5622 7.05794 19.629ZM5.11928 19.0274C5.14156 19.1165 5.18613 19.1388 5.23069 19.1834C5.27526 19.2279 5.34211 19.2502 5.38668 19.2056C5.45353 19.1388 5.38668 19.0719 5.31983 19.0274C5.27526 18.9828 5.20841 18.9828 5.11928 19.0274ZM6.36715 19.5622C6.32259 19.4508 6.27802 19.3393 6.07747 19.3171C6.14432 19.473 6.23345 19.5399 6.36715 19.5622Z" fill="black"/>
<path d="M8.79605 20.097C8.75149 20.2307 8.66235 20.253 8.55094 20.2084C8.35038 20.1416 8.1944 20.0301 7.99385 20.1415C7.927 20.1638 7.88243 20.1193 7.86015 20.0524C7.86015 20.0078 7.86015 19.941 7.83786 19.9187C7.7933 19.8519 7.72645 19.8296 7.6596 19.8964C7.59275 19.941 7.61503 19.9856 7.63731 20.0524C7.68188 20.1193 7.7933 20.1638 7.7933 20.2753C7.61503 20.2753 7.16936 20.097 7.08022 19.9856C6.94652 19.8519 6.83511 19.7404 6.63455 19.7627C6.58999 19.8964 6.81282 19.9187 6.7014 20.0747C6.25573 20.0301 6.09975 19.5399 5.72093 19.4062C5.67636 19.4285 5.65408 19.4508 5.67636 19.473C5.72093 19.5399 5.87692 19.5845 5.7655 19.6959C5.69865 19.7627 5.60951 19.6959 5.54266 19.6513C5.23069 19.4062 4.89644 19.1388 4.58447 18.8937C4.56219 18.8714 4.53991 18.8491 4.53991 18.8491C4.49534 18.7823 4.38392 18.6931 4.47305 18.604C4.56219 18.4926 4.65132 18.604 4.71817 18.6708C4.85187 18.7823 4.98558 18.7823 5.11928 18.76C5.45353 18.6708 5.7655 18.7823 6.07747 18.7823C6.09975 18.7823 6.09975 18.8045 6.12203 18.8491C6.0329 19.0051 5.83235 18.8937 5.72093 19.0274C5.83235 19.2056 5.96605 19.1611 6.09975 19.1165C6.38944 19.0274 6.67912 19.0274 6.96881 18.9382C7.01337 18.916 7.10251 18.916 7.10251 19.0051C7.10251 19.0719 7.05794 19.0719 7.01337 19.0942C6.85739 19.1611 6.67912 19.1388 6.54542 19.2502C6.67912 19.473 6.70141 19.4953 6.94652 19.4285C7.19164 19.3616 7.43676 19.2502 7.70416 19.2502C7.7933 19.3616 7.59275 19.4285 7.68188 19.5176C7.77101 19.5845 7.86015 19.5399 7.94928 19.5176C8.14983 19.4285 8.37267 19.3171 8.64007 19.2056C8.52865 19.5622 8.21668 19.5399 8.0607 19.7182C8.14983 19.8519 8.26125 19.785 8.35038 19.7404C8.5955 19.6067 8.84062 19.4953 9.08574 19.3616C9.17487 19.3171 9.26401 19.2502 9.39771 19.2948C9.33086 19.5399 9.04117 19.5176 8.92976 19.6959C9.04117 19.8519 9.17487 19.785 9.28629 19.7182C9.66511 19.5176 10.0439 19.2948 10.4227 19.0942C10.5342 19.0274 10.6679 18.8491 10.7793 19.0051C10.8461 19.1165 10.6456 19.2056 10.5342 19.2725C10.3113 19.4062 10.0885 19.5399 9.86566 19.6736C9.93251 19.7627 9.97708 19.7404 9.99936 19.7182C10.445 19.4062 10.9798 19.2279 11.4478 18.916C11.5369 18.8491 11.6929 18.7377 11.7598 18.8491C11.8489 18.9828 11.6483 19.0497 11.5369 19.1165C11.1804 19.2948 10.8016 19.473 10.445 19.6959C10.3782 19.7404 10.289 19.7627 10.2445 19.8296C10.2445 19.9633 10.4896 19.9187 10.445 20.0301C10.3782 20.1861 10.2445 20.0524 10.1331 20.0524C10.0216 20.0301 9.91023 19.9856 9.79881 19.941C9.68739 19.8964 9.57598 19.8296 9.46456 19.8519C9.44228 20.0078 9.66511 20.0078 9.59826 20.1193C9.50913 20.253 9.37543 20.1416 9.28629 20.097C9.10802 20.0301 8.95204 20.2084 8.79605 20.097ZM8.79605 20.097C8.77377 19.8964 8.77377 19.8964 8.50637 19.9187C8.57322 20.0524 8.68464 20.0524 8.79605 20.097ZM7.05794 19.629C7.08022 19.6736 7.12479 19.7182 7.16936 19.7404C7.23621 19.7627 7.30306 19.8073 7.36991 19.7404C7.39219 19.7182 7.39219 19.6736 7.36991 19.6513C7.32534 19.5845 7.30306 19.5399 7.21393 19.5622C7.16936 19.5622 7.10251 19.5622 7.05794 19.629ZM5.11928 19.0274C5.14156 19.1165 5.18613 19.1388 5.23069 19.1834C5.27526 19.2279 5.34211 19.2502 5.38668 19.2056C5.45353 19.1388 5.38668 19.0719 5.31983 19.0274C5.27526 18.9828 5.20841 18.9828 5.11928 19.0274ZM6.36715 19.5622C6.32259 19.4508 6.27802 19.3393 6.07747 19.3171C6.14432 19.473 6.23345 19.5399 6.36715 19.5622Z" stroke="black" stroke-width="0.25" stroke-miterlimit="10"/>
</g>
<path id="Vector_8" d="M12.3166 19.0496C12.0269 19.1164 11.804 19.317 11.5589 19.4507C11.4921 19.473 11.4252 19.5175 11.3806 19.5621C11.3361 19.5844 11.2915 19.6067 11.2469 19.5621C11.2024 19.5175 11.2247 19.473 11.2692 19.4284C11.3138 19.3838 11.3806 19.3393 11.4252 19.2947C11.8709 19.0273 12.3166 18.7376 12.7622 18.4702C12.8736 18.4034 12.9851 18.3365 13.0519 18.4925C12.8514 18.7599 12.5394 18.849 12.3166 19.0496Z" fill="black" stroke="black" stroke-width="0.25" stroke-miterlimit="10"/>
<path id="Vector_9" d="M12.3167 19.0497C12.5396 18.8269 12.8738 18.76 13.0521 18.4704C13.2527 18.3144 13.4755 18.1584 13.676 18.0024C13.832 17.891 13.9657 17.735 14.1663 17.6904C14.2331 17.7573 14.2108 17.8018 14.1663 17.8241C13.6538 18.2252 13.2081 18.6932 12.651 19.072C12.5841 19.1166 12.5173 19.1611 12.4504 19.2057C12.4059 19.228 12.339 19.2503 12.2945 19.2057C12.2499 19.1611 12.2945 19.1166 12.3167 19.0497Z" fill="black" stroke="black" stroke-width="0.25" stroke-miterlimit="10"/>
<path id="Vector_10" d="M18.3996 9.13345C18.4665 9.13345 18.5556 9.08888 18.6002 9.15573C18.6447 9.22258 18.6002 9.26715 18.5556 9.31172C18.4888 9.40085 18.3996 9.48998 18.3328 9.57912C18.2214 9.71282 18.0877 9.82424 18.1991 10.0471C18.2436 10.1362 18.1768 10.2476 18.1099 10.3368C18.0208 10.5373 17.9317 10.7379 17.7534 10.9384C17.642 10.5819 17.9762 10.3368 17.9094 10.0025C17.8203 9.64597 18.1991 9.48999 18.2882 9.2003C18.3328 9.2003 18.3773 9.15573 18.3996 9.13345Z" fill="black" stroke="black" stroke-width="0.25" stroke-miterlimit="10"/>
<path id="Vector_11" d="M18.5559 7.88561C18.489 7.88561 18.4445 7.84105 18.4667 7.79648C18.5113 7.72963 18.5336 7.6405 18.6004 7.59593C18.957 7.26168 19.3135 6.92742 19.67 6.61546C19.7146 6.57089 19.8037 6.52632 19.8483 6.59317C19.8929 6.63774 19.8706 6.70459 19.826 6.74916C19.7369 6.83829 19.67 6.92742 19.5809 6.99427C19.2912 7.26168 19.0015 7.5068 18.7119 7.7742C18.6673 7.81876 18.6227 7.88561 18.5559 7.88561Z" fill="black" stroke="black" stroke-width="0.25" stroke-miterlimit="10"/>
<path id="Vector_12" d="M18.399 8.77697C18.243 8.73241 18.1985 8.64327 18.2876 8.53185C18.3322 8.465 18.399 8.37587 18.4659 8.30902C18.7333 8.04162 19.0007 7.77421 19.2681 7.50681C19.3127 7.46225 19.3795 7.41768 19.4464 7.48453C19.5132 7.55138 19.4686 7.61823 19.4241 7.6628C19.2235 7.86335 19.023 8.0639 18.8224 8.26445C18.6887 8.39815 18.5105 8.53185 18.4436 8.73241C18.4213 8.73241 18.4213 8.75469 18.399 8.77697Z" fill="black" stroke="black" stroke-width="0.25" stroke-miterlimit="10"/>
<path id="Vector_13" d="M18.4003 8.77685C18.4226 8.75456 18.4449 8.73228 18.4671 8.73228C18.6231 8.66543 18.7123 8.55401 18.8237 8.44259C18.8905 8.37574 18.9351 8.30889 19.0242 8.28661C19.0688 8.26433 19.1134 8.26433 19.1579 8.30889C19.2025 8.35346 19.1802 8.39803 19.1579 8.44259C19.0911 8.50944 19.0242 8.5763 18.9574 8.64315C18.7791 8.79913 18.6008 8.9774 18.4449 9.13338C18.4003 9.17795 18.378 9.20023 18.3334 9.2448C18.2666 9.31165 18.1997 9.3785 18.1106 9.42307C18.066 9.44535 18.0215 9.46764 17.9769 9.42307C17.9323 9.3785 17.9546 9.33393 17.9769 9.28937C18.066 9.13338 18.1997 9.02197 18.3334 8.88826C18.3334 8.86598 18.3557 8.82141 18.4003 8.77685Z" fill="black" stroke="black" stroke-width="0.25" stroke-miterlimit="10"/>
<path id="Vector_14" d="M19.9599 5.99161C19.9377 6.08074 19.8931 6.12531 19.8485 6.19216C19.6034 6.41499 19.3583 6.63783 19.1355 6.88295C19.0909 6.92752 19.024 6.99437 18.9572 6.92752C18.8903 6.88295 18.9349 6.8161 18.9572 6.77153C19.2023 6.45956 19.492 6.19216 19.7817 5.94704C19.8262 5.92476 19.8708 5.90247 19.9154 5.92476C19.9377 5.92476 19.9377 5.96932 19.9599 5.99161Z" fill="black" stroke="black" stroke-width="0.25" stroke-miterlimit="10"/>
<path id="Vector_15" d="M19.9148 5.43447C19.8925 5.47904 19.8702 5.52361 19.8256 5.54589C19.5805 5.76872 19.3577 5.96928 19.1348 6.21439C19.0903 6.25896 19.0457 6.30353 18.9789 6.23668C18.9343 6.19211 18.9566 6.12526 18.9789 6.08069C19.1571 5.81329 19.4022 5.59046 19.6696 5.36762C19.7142 5.32305 19.7811 5.30077 19.8256 5.34534C19.8702 5.36762 19.8925 5.41219 19.9148 5.43447Z" fill="black" stroke="black" stroke-width="0.25" stroke-miterlimit="10"/>
<path id="Vector_16" d="M19.9357 4.89968C19.9134 4.92196 19.9134 4.96653 19.8911 4.98882C19.7351 5.1448 19.5791 5.30078 19.4454 5.43449C19.4009 5.47905 19.3563 5.47905 19.3117 5.45677C19.2449 5.4122 19.2672 5.34535 19.3117 5.30078C19.4454 5.10023 19.6014 4.96653 19.7797 4.83283C19.8465 4.78826 19.9134 4.81055 19.9357 4.89968Z" fill="black" stroke="black" stroke-width="0.25" stroke-miterlimit="10"/>
<path id="Vector_17" d="M19.1797 4.89961C19.2688 4.72135 19.3802 4.54308 19.5808 4.40938C19.6031 4.38709 19.6476 4.40938 19.6699 4.43166C19.6922 4.45394 19.6922 4.49851 19.6922 4.52079C19.6031 4.69906 19.4917 4.85505 19.3134 4.98875C19.2465 5.03331 19.202 4.96646 19.1797 4.89961Z" fill="black" stroke="black" stroke-width="0.25" stroke-miterlimit="10"/>
<path id="Vector_18" d="M8.03675 8.95522C7.90305 9.13349 7.65793 9.06664 7.54651 9.22262C7.65793 9.28948 7.81391 9.17806 7.90305 9.31176C7.90305 9.37861 7.83619 9.40089 7.79163 9.42318C7.21226 9.51231 6.69974 9.77971 6.18722 10.0248C6.0758 10.0694 5.91981 10.2477 5.83068 10.0694C5.76383 9.91341 5.98666 9.89113 6.0758 9.84656C6.27635 9.73514 6.49918 9.66829 6.69974 9.55688C6.81115 9.49003 7.05627 9.51231 6.96714 9.24491C6.96714 9.22262 6.98942 9.20034 7.01171 9.20034C7.14541 9.04436 7.79163 8.91066 8.03675 8.95522Z" fill="black" stroke="black" stroke-width="0.25" stroke-miterlimit="10"/>
<path id="Vector_19" d="M7.28062 9.91348C7.23605 10.0472 7.12463 10.0695 7.0355 10.0918C6.5007 10.3146 5.98818 10.5597 5.47566 10.8271C5.45337 10.8494 5.43109 10.8494 5.4088 10.8717C5.34195 10.894 5.2751 10.9385 5.23054 10.8494C5.20825 10.7825 5.25282 10.738 5.29739 10.6934C5.34195 10.6711 5.36424 10.6488 5.4088 10.6266C5.89904 10.3814 6.38928 10.1363 6.9018 9.93577C7.01322 9.8912 7.14692 9.84663 7.28062 9.91348Z" fill="black" stroke="black" stroke-width="0.25" stroke-miterlimit="10"/>
<path id="Vector_20" d="M4.89674 11.6738C4.87446 11.6516 4.82989 11.6516 4.80761 11.6293C4.78532 11.5847 4.78532 11.5401 4.82989 11.4956C4.89674 11.451 4.96359 11.4064 5.05272 11.3841C5.43154 11.1836 5.78808 11.0053 6.1669 10.8048C6.25603 10.7602 6.36745 10.7379 6.47887 10.6934C6.50115 10.6934 6.54572 10.6934 6.568 10.7156C6.59029 10.7602 6.568 10.8048 6.52344 10.8271C6.47887 10.8493 6.4343 10.8716 6.38973 10.8939C5.94406 11.0945 5.49839 11.3173 5.07501 11.5624C5.03044 11.6293 4.96359 11.6516 4.89674 11.6738Z" fill="black" stroke="black" stroke-width="0.25" stroke-miterlimit="10"/>
<path id="Vector_21" d="M5.49703 11.8075C5.60845 11.8075 5.69758 11.7852 5.69758 11.8966C5.69758 11.9635 5.63073 11.9858 5.58616 11.9858C5.34104 12.0526 5.14049 12.1863 4.89537 12.2977C4.80624 12.3423 4.71711 12.3646 4.62797 12.4091C4.5834 12.4314 4.53884 12.4091 4.51655 12.3646C4.49427 12.32 4.51655 12.2532 4.56112 12.2309C4.87309 12.0749 5.16278 11.8743 5.49703 11.8075Z" fill="black" stroke="black" stroke-width="0.25" stroke-miterlimit="10"/>
<path id="Vector_22" d="M5.25178 12.5205C5.14036 12.7211 4.71698 12.9439 4.56099 12.8993C4.51642 12.8993 4.49414 12.877 4.49414 12.8325C4.49414 12.8102 4.51642 12.7656 4.53871 12.7433C4.76154 12.6765 4.98438 12.5428 5.25178 12.5205Z" fill="black" stroke="black" stroke-width="0.25" stroke-miterlimit="10"/>
<path id="Vector_23" d="M4.98547 13.8353C4.98547 13.8576 4.96318 13.8799 4.96318 13.9021C4.85176 13.9913 4.74035 14.0581 4.58436 14.1027C4.56208 14.1027 4.51751 14.1027 4.49523 14.0804C4.47294 14.0581 4.47294 14.0136 4.49523 13.9913C4.5398 13.9021 4.82948 13.7684 4.91861 13.7907C4.96318 13.7684 4.98547 13.7907 4.98547 13.8353Z" fill="black" stroke="black" stroke-width="0.25" stroke-miterlimit="10"/>
<path id="Vector_24" d="M4.65163 13.5455C4.62935 13.5232 4.58478 13.5232 4.5625 13.4786C4.5625 13.4563 4.5625 13.4118 4.58478 13.3895C4.67392 13.3226 4.80762 13.2781 4.91904 13.3226C4.9636 13.3226 4.98589 13.3672 4.9636 13.4118C4.89675 13.5009 4.78533 13.5009 4.65163 13.5455Z" fill="black" stroke="black" stroke-width="0.25" stroke-miterlimit="10"/>
</g>
</svg>
