<svg width="998" height="1000" viewBox="0 0 998 1000" fill="none" xmlns="http://www.w3.org/2000/svg">
<path d="M747.482 493.196C745.731 494.505 743.774 495.514 741.692 496.181C735.965 498.159 729.728 498.08 724.053 495.956C720.121 494.521 716.584 492.175 713.731 489.112C710.448 485.573 708.177 481.217 707.155 476.5C706.58 473.962 706.398 471.351 706.617 468.758C706.804 466.046 707.418 463.38 708.435 460.859C710.552 455.506 714.329 450.972 719.212 447.923C724.095 444.874 729.826 443.469 735.566 443.916C740.901 444.336 745.992 446.328 750.197 449.639C753.984 452.629 756.898 456.581 758.635 461.083C760.14 464.989 760.701 469.195 760.273 473.359C759.673 479.392 757.001 485.03 752.71 489.314C751.194 490.888 749.427 492.2 747.482 493.196C749.17 491.876 750.781 490.46 752.306 488.955C756.311 484.645 758.746 479.111 759.218 473.246C759.57 469.26 758.978 465.247 757.49 461.532C755.789 457.27 752.986 453.537 749.367 450.716C747.427 449.194 745.271 447.969 742.971 447.08C740.58 446.118 738.049 445.55 735.476 445.397C730.054 444.986 724.642 446.316 720.029 449.194C715.415 452.072 711.841 456.347 709.826 461.398C708.853 463.781 708.262 466.303 708.076 468.87C707.85 471.325 708.001 473.8 708.524 476.209C709.405 480.413 711.322 484.33 714.101 487.606C716.879 490.882 720.431 493.413 724.435 494.969C729.901 497.096 735.923 497.326 741.535 495.62C745.574 494.386 747.392 493.039 747.482 493.196Z" fill="#E0E0E0"/>
<path d="M752.304 528.093L752.977 528.699L754.997 530.652L762.896 538.439H762.604L783.34 525.311L783.183 525.759C781.679 521.541 780.018 516.783 778.246 511.779V511.532L778.425 511.33C782.057 507.45 785.145 503.094 787.603 498.382L787.738 498.112H802.886L802.347 498.516C804.075 490.999 805.915 482.987 807.823 474.594L808.137 475.268L794.784 468.85L794.448 468.693V468.311C794.276 462.981 793.393 457.698 791.822 452.602L791.71 452.221L791.979 451.952C795.256 448.72 798.846 445.219 802.504 441.494V442.347L789.219 421.634L790.049 421.926L776.069 426.818L775.642 426.953L775.328 426.661C771.466 423.048 767.142 419.962 762.47 417.483L762.066 417.281V416.832C762.066 412.187 762.066 407.137 762.066 401.998L762.649 402.739L738.84 397.241L739.692 396.837L733.229 410.302L733.05 410.706H732.579C727.304 410.876 722.074 411.743 717.027 413.286L716.264 413.084L716.107 412.927L715.77 412.591L715.12 411.917L713.818 410.593L711.192 407.968L705.986 402.717L706.929 402.829L686.104 415.822L686.418 414.924C688.049 419.637 689.672 424.305 691.287 428.927L691.445 429.354L691.13 429.69C687.502 433.541 684.414 437.867 681.952 442.549L681.728 442.931H681.301H666.468L667.164 442.369C665.279 450.508 663.431 458.475 661.621 466.269L661.239 465.483L674.592 471.946L674.951 472.126V472.53C675.096 477.859 675.964 483.143 677.531 488.238L677.644 488.62L677.352 488.889L666.805 499.302V498.516L679.753 519.364L679.08 519.139L693.083 514.292L693.397 514.18L693.644 514.404C697.511 518.041 701.842 521.149 706.525 523.65L706.794 523.785V524.099C706.794 529.485 706.794 534.332 706.682 538.91L706.323 538.483L730.2 544.116L729.818 544.296L736.371 530.988V530.854H736.506C740.523 530.741 744.521 530.245 748.444 529.373L751.339 528.677L752.304 528.475L751.361 528.811C750.733 529.013 749.791 529.305 748.489 529.619C744.572 530.605 740.564 531.184 736.528 531.347L736.73 531.19L730.379 544.655L730.245 544.901H729.998L706.054 539.493H705.717V539.134C705.717 534.646 705.717 529.687 705.717 524.301L705.964 524.75C701.184 522.238 696.761 519.098 692.813 515.414L693.352 515.526L679.371 520.441L678.945 520.598L678.698 520.217L665.66 499.414L665.391 498.988L665.75 498.629L676.252 488.194L676.095 488.844C674.494 483.67 673.596 478.303 673.425 472.889L673.806 473.472L660.342 467.054L659.848 466.808L659.96 466.269L665.548 441.831L665.66 441.27H666.244H681.077L680.426 441.651C682.96 436.855 686.122 432.417 689.829 428.456L689.672 429.219C688.056 424.596 686.425 419.929 684.78 415.216L684.578 414.655L685.094 414.341L705.896 401.348L706.413 401.011L706.839 401.437L712.045 406.689L714.648 409.337L715.972 410.661L716.623 411.334L716.96 411.648L717.117 411.828C715.591 411.446 716.691 411.715 716.354 411.626C721.532 410.04 726.897 409.15 732.309 408.978L731.658 409.404L738.121 395.939L738.368 395.401L738.952 395.536L762.851 401.056L763.435 401.191V401.797C763.435 406.913 763.435 411.985 763.435 416.63L763.053 415.979C767.842 418.514 772.272 421.676 776.226 425.382L775.508 425.225L789.511 420.378L790.027 420.176L790.341 420.669L803.312 441.494L803.581 441.943L803.2 442.325C799.542 445.96 795.929 449.506 792.653 452.737L792.832 452.086C794.405 457.266 795.288 462.631 795.458 468.042L795.099 467.503L808.451 473.989L808.877 474.191L808.765 474.639C806.813 483.032 804.928 491.021 803.177 498.539V498.965H802.751H787.918L788.344 498.696C785.81 503.458 782.647 507.859 778.941 511.779V511.33C780.692 516.379 782.307 521.114 783.766 525.356L783.878 525.647L783.609 525.804L762.717 538.685H762.559L762.425 538.551L754.773 530.652L752.82 528.587C752.636 528.435 752.464 528.27 752.304 528.093Z" fill="#FFF5BF"/>
<path fill-rule="evenodd" clip-rule="evenodd" d="M801.115 350.541C793.878 352.77 786.377 354.023 778.809 354.266L769.675 373.138L735.879 365.329V344.347C729.177 340.817 722.98 336.402 717.455 331.219L697.663 338.131L679.306 308.688L694.184 293.945C691.96 286.7 690.715 279.191 690.482 271.616L671.586 262.505L679.508 228.642H700.468C704.013 221.944 708.435 215.748 713.618 210.218L706.706 190.493L736.149 172.136L750.892 187.014C758.129 184.79 765.631 183.545 773.198 183.312L782.332 164.417L816.128 172.248V193.208C822.817 196.748 829.005 201.163 834.529 206.336L854.322 199.447L872.701 228.867L857.778 243.722C860.02 250.956 861.273 258.459 861.503 266.028L880.376 275.162L872.566 308.958H851.607C848.06 315.648 843.637 321.836 838.456 327.359L845.368 347.152L815.858 365.531L801.115 350.63V350.541ZM794.383 301.171C800.628 297.272 805.578 291.608 808.605 284.896C811.632 278.184 812.6 270.725 811.389 263.463C810.177 256.2 806.839 249.46 801.796 244.095C796.754 238.729 790.234 234.98 783.06 233.32C775.887 231.66 768.383 232.164 761.496 234.769C754.609 237.374 748.649 241.962 744.37 247.954C740.091 253.946 737.685 261.072 737.456 268.432C737.227 275.791 739.185 283.053 743.083 289.3C745.666 293.453 749.042 297.057 753.019 299.906C756.996 302.754 761.495 304.79 766.259 305.899C771.023 307.008 775.959 307.167 780.784 306.367C785.61 305.567 790.231 303.824 794.383 301.238V301.171Z" fill="#FFF5BF"/>
<path fill-rule="evenodd" clip-rule="evenodd" d="M880.735 462.341C876.882 463.519 872.89 464.183 868.864 464.316L864.016 474.347L846.064 470.196V458.975C842.501 457.092 839.204 454.745 836.257 451.996L825.732 455.654L815.971 439.945L823.892 432.113C822.697 428.265 822.032 424.271 821.917 420.242L811.864 415.373L816.016 397.42H827.236C829.133 393.867 831.487 390.578 834.237 387.636L830.557 377.111L846.266 367.327L854.12 375.248C857.973 374.071 861.965 373.407 865.991 373.274L870.838 363.22L888.791 367.394V378.615C892.35 380.493 895.641 382.84 898.575 385.594L909.122 381.936L918.884 397.644L910.963 405.499C912.158 409.347 912.823 413.341 912.937 417.37L922.991 422.217L918.839 440.17H907.619C905.727 443.733 903.373 447.03 900.617 449.976L904.298 460.501L888.589 470.285L880.735 462.364V462.341ZM877.167 436.108C880.494 434.035 883.131 431.023 884.746 427.451C886.36 423.879 886.879 419.909 886.237 416.042C885.594 412.175 883.819 408.586 881.137 405.728C878.454 402.87 874.984 400.872 871.166 399.986C867.347 399.101 863.352 399.368 859.685 400.753C856.019 402.139 852.845 404.58 850.567 407.77C848.288 410.959 847.006 414.753 846.884 418.67C846.761 422.588 847.804 426.454 849.879 429.78C852.66 434.236 857.096 437.406 862.213 438.592C867.33 439.779 872.708 438.885 877.167 436.108Z" fill="#FFF5BF"/>
<path d="M192.093 263.762C192.34 263.987 181.816 274.781 168.598 287.841C155.38 300.902 144.496 311.314 144.272 311.09C144.048 310.866 154.572 300.072 167.79 287.011C181.008 273.95 191.869 263.538 192.093 263.762Z" fill="#E0E0E0"/>
<path d="M192.206 310.977C191.981 311.201 180.985 300.833 167.79 287.84C154.595 274.847 143.936 264.12 144.16 263.873C144.384 263.627 155.38 273.994 168.598 287.01C181.816 300.026 192.453 310.73 192.206 310.977Z" fill="#E0E0E0"/>
<path d="M239.69 562.427C239.69 562.741 226.226 561.574 209.709 559.846C193.193 558.118 179.818 556.413 179.841 556.099C179.863 555.785 193.305 556.929 209.822 558.679C226.338 560.43 239.735 562.09 239.69 562.427Z" fill="#E0E0E0"/>
<path d="M237.312 584.957C237.312 585.272 223.847 584.127 207.331 582.377C190.815 580.626 177.417 578.966 177.462 578.652C177.507 578.337 190.927 579.482 207.443 581.21C223.96 582.938 237.357 584.643 237.312 584.957Z" fill="#E0E0E0"/>
<path d="M75.4918 512.945C75.4918 512.945 57.7187 511.666 59.3569 551.544C60.9951 591.421 65.0569 612.627 65.0569 612.627C65.0569 612.627 64.5407 621.469 57.6963 619.741C50.8518 618.013 37.9708 609.396 31.5976 615.837C25.2244 622.277 27.3563 632.734 36.0858 644.785C44.8153 656.836 63.0148 683.922 64.6754 686.368C66.336 688.814 66.9194 693.302 62.0722 692.876C57.225 692.449 24.4614 681.341 20.1304 697.207C15.7993 713.072 45.6904 742.537 48.8995 745.903C52.1085 749.27 52.288 751.289 50.9865 753.286C49.6849 755.284 39.0255 750.504 29.5779 747.721C20.1304 744.938 8.68556 743.39 6.95762 752.748C5.22968 762.106 18.38 789.483 67.6824 818.275L91.4024 830.056L113.843 815.739C160.004 782.078 170.372 753.601 167.701 744.445C165.031 735.289 153.81 738.004 144.699 741.729C135.588 745.455 125.445 751.244 123.964 749.382C122.483 747.519 122.438 745.455 125.288 741.842C128.138 738.229 154.932 705.936 149.03 690.497C143.128 675.058 111.644 689.487 106.864 690.497C102.084 691.507 102.376 686.839 103.633 684.281C104.889 681.723 120.396 652.864 127.914 640.028C135.431 627.192 136.71 616.757 129.484 610.855C122.258 604.953 110.499 614.849 103.947 617.25C97.3941 619.651 95.913 610.922 95.913 610.922C95.913 610.922 97.8204 589.379 95.4642 549.569C93.1079 509.759 75.1328 512.945 75.1328 512.945" fill="#ECFAF5"/>
<path d="M76.8367 548.648C76.8544 548.925 76.8544 549.202 76.8367 549.479C76.8367 550.085 76.8367 550.892 77.0162 551.925C77.1733 554.169 77.3752 557.288 77.667 561.35C78.2056 569.518 78.9012 581.367 79.7091 595.976C81.3248 625.149 83.2323 665.677 85.1847 710.424C87.137 755.171 88.9323 795.542 90.3909 824.872C91.1315 839.459 91.7374 851.308 92.1637 859.521C92.3657 863.583 92.5228 866.747 92.635 868.946C92.635 869.978 92.635 870.809 92.635 871.392C92.6501 871.669 92.6501 871.946 92.635 872.222C92.635 872.222 92.635 871.953 92.635 871.392C92.635 870.831 92.635 870.001 92.4555 868.946C92.2984 866.702 92.074 863.605 91.8047 859.543C91.2661 851.375 90.5704 839.526 89.7626 824.895C88.1244 795.722 86.2394 755.216 84.287 710.447C82.3347 665.677 80.5394 625.351 79.0583 595.999C78.3178 581.39 77.7119 569.563 77.3079 561.35C77.106 557.288 76.9489 554.124 76.8367 551.925C76.8367 550.87 76.8367 550.062 76.8367 549.479C76.8367 548.895 76.8367 548.648 76.8367 548.648Z" fill="#B1EAD4"/>
<path d="M49.1455 628.582C49.679 628.934 50.1686 629.348 50.6042 629.816C51.5242 630.646 52.8482 631.88 54.3742 633.429C57.4935 636.526 61.7124 640.924 66.2678 645.861L77.8697 658.562L81.3929 662.377C81.8675 662.815 82.2825 663.313 82.6272 663.858C82.0917 663.508 81.5952 663.102 81.1461 662.647C80.2485 661.794 78.902 660.56 77.3985 658.989C74.3017 655.87 70.1052 651.426 65.6171 646.489L53.9254 633.878L50.3798 630.063C49.9012 629.629 49.4857 629.13 49.1455 628.582Z" fill="#B1EAD4"/>
<path d="M84.9832 663.073C84.8037 662.893 93.4883 653.805 104.35 642.876C115.211 631.947 124.21 623.038 124.389 623.218C124.569 623.398 115.884 632.486 105 643.415C94.1166 654.343 85.1627 663.252 84.9832 663.073Z" fill="#B1EAD4"/>
<path d="M84.8928 731.81C85.3938 731.393 85.944 731.038 86.531 730.755L91.1763 728.152C95.1034 725.908 100.489 722.901 106.324 719.31C112.158 715.72 117.342 712.309 121.067 709.818L125.556 706.878C126.073 706.473 126.638 706.134 127.239 705.868C126.796 706.35 126.299 706.779 125.758 707.147C124.77 707.933 123.311 709.032 121.494 710.356C117.836 712.982 112.697 716.505 106.84 720.073C100.983 723.641 95.6195 726.648 91.5353 728.713C89.5156 729.723 87.8999 730.531 86.7554 731.069C86.16 731.376 85.5362 731.624 84.8928 731.81Z" fill="#B1EAD4"/>
<path d="M45.5994 707.753C46.1772 707.932 46.7283 708.189 47.2375 708.516C48.2698 709.054 49.7285 709.885 51.5462 710.917C55.1367 712.959 60.0961 715.854 65.5492 719.086C71.0024 722.317 75.8945 725.302 79.4177 727.501L83.5692 730.126C84.1018 730.418 84.5924 730.78 85.0279 731.204C84.4553 731.011 83.9058 730.755 83.3897 730.441C82.3798 729.88 80.8987 729.072 79.1035 728.039C75.4905 725.997 70.5311 723.102 65.078 719.871C59.6249 716.639 54.7328 713.655 51.2096 711.456L47.058 708.875C46.5276 708.562 46.0376 708.185 45.5994 707.753Z" fill="#B1EAD4"/>
<path d="M37.8127 768.411C38.5291 768.686 39.2199 769.024 39.8773 769.421L45.4202 772.472C50.0654 775.076 56.4611 778.733 63.3728 782.818C70.2846 786.902 76.7251 790.627 81.3255 793.387L86.7113 796.686C87.3857 797.06 88.0242 797.496 88.6187 797.988C87.8833 797.74 87.182 797.401 86.5317 796.978L81.0113 793.948C76.366 791.345 69.9929 787.687 63.0587 783.603C56.1244 779.519 49.7064 775.771 45.106 773.033L39.7427 769.735C39.0466 769.376 38.3983 768.931 37.8127 768.411Z" fill="#B1EAD4"/>
<path d="M87.6301 796.955C88.2584 796.409 88.9519 795.941 89.6947 795.564L95.4395 792.063C100.309 789.079 107.019 784.972 114.29 780.215C121.561 775.457 128.068 771.014 132.759 767.76L138.301 763.923C138.938 763.395 139.64 762.95 140.388 762.599C139.812 763.189 139.181 763.722 138.503 764.192C137.247 765.202 135.407 766.593 133.118 768.299C128.629 771.687 122.099 776.243 114.806 780.978C107.513 785.713 100.736 789.774 95.7761 792.602C93.2852 794.016 91.288 795.138 89.8518 795.878C89.1406 796.295 88.3978 796.655 87.6301 796.955Z" fill="#B1EAD4"/>
<path d="M123.268 837.888H57.6509L79.0594 1000H101.859L123.268 837.888Z" fill="#287C5C"/>
<path d="M61.1287 857.816C61.1287 857.816 61.1287 858.04 61.4653 858.377C61.8973 858.88 62.4437 859.272 63.0586 859.521C64.2038 859.912 65.4226 860.038 66.6235 859.89C67.8245 859.743 68.9764 859.325 69.9928 858.668C72.6408 857.21 74.9522 854.337 78.4978 853.058C82.4377 851.796 86.686 851.883 90.571 853.305C94.5151 854.66 98.2822 856.483 101.791 858.736C104.703 860.603 107.74 862.267 110.88 863.718C113.024 864.672 115.29 865.329 117.612 865.67C118.244 865.759 118.881 865.804 119.52 865.805C119.946 865.805 120.17 865.805 120.17 865.805C117.066 865.323 114.045 864.409 111.194 863.089C108.112 861.572 105.115 859.886 102.218 858.04C98.6625 855.689 94.8247 853.797 90.7954 852.407C86.6848 850.918 82.1902 850.871 78.049 852.273C76.3032 852.99 74.6881 853.991 73.2691 855.235C72.0799 856.292 70.8203 857.266 69.4991 858.152C68.5815 858.79 67.5354 859.218 66.4344 859.408C65.3333 859.598 64.2041 859.545 63.1259 859.252C62.3743 858.905 61.6963 858.418 61.1287 857.816Z" fill="#F5F5F5"/>
<path d="M63.3726 887.661C63.3726 887.661 63.8887 886.988 64.8985 885.933C66.3918 884.459 68.1819 883.319 70.1497 882.59C73.0733 881.532 76.178 881.067 79.2831 881.221C83.1109 881.517 86.9177 882.042 90.683 882.792C94.5348 883.532 98.4758 883.691 102.375 883.263C105.557 882.857 108.659 881.972 111.575 880.637C113.575 879.757 115.472 878.658 117.23 877.361C117.89 876.92 118.48 876.383 118.981 875.768C116.553 877.334 114.018 878.729 111.396 879.942C108.522 881.103 105.501 881.858 102.42 882.186C98.6126 882.558 94.7716 882.369 91.0196 881.625C87.2053 880.87 83.344 880.375 79.4626 880.144C76.2325 880.039 73.0158 880.604 70.015 881.804C67.9868 882.609 66.1847 883.896 64.7639 885.552C64.386 886.008 64.0482 886.496 63.754 887.01C63.5072 887.459 63.3726 887.639 63.3726 887.661Z" fill="#F5F5F5"/>
<path d="M115.839 903.639C115.293 903.226 114.678 902.915 114.022 902.719C112.28 902.059 110.45 901.666 108.591 901.552C105.844 901.369 103.085 901.528 100.378 902.024C97.3033 902.517 94.0269 903.348 90.5935 904.088C87.3869 904.839 84.1026 905.208 80.8093 905.188C78.1389 905.115 75.5056 904.544 73.0448 903.505C70.7947 902.433 68.7923 900.905 67.1653 899.017C67.4225 899.654 67.804 900.234 68.2873 900.722C69.5345 902.142 71.0627 903.289 72.7755 904.088C75.2934 905.28 78.0258 905.952 80.8093 906.063C84.1833 906.148 87.5543 905.801 90.8403 905.031C94.3411 904.29 97.5726 903.415 100.58 902.787C103.216 902.261 105.903 902.028 108.591 902.091C111.06 902.315 113.494 902.835 115.839 903.639Z" fill="#F5F5F5"/>
<path d="M69.2529 926.125C71.2623 925.266 73.4876 925.046 75.6261 925.497C77.957 926.06 80.2158 926.888 82.3583 927.965C85.0702 929.279 87.9971 930.093 90.9981 930.366C96.4862 930.835 101.982 929.563 106.707 926.731C108.072 925.864 109.344 924.856 110.499 923.724C111.285 922.871 111.711 922.377 111.644 922.333C109.907 923.679 108.094 924.923 106.213 926.058C101.573 928.618 96.2778 929.743 90.9981 929.289C84.782 928.93 80.0021 925.227 75.6934 924.801C74.0368 924.517 72.3347 924.672 70.7565 925.25C69.6793 925.609 69.208 926.103 69.2529 926.125Z" fill="#F5F5F5"/>
<path d="M72.9096 957.251C74.7939 957.296 76.6646 956.921 78.3852 956.151C81.684 955.051 85.7457 952.538 90.5256 950.631C92.748 949.738 95.1107 949.244 97.5047 949.172C99.4399 949.172 101.35 949.609 103.092 950.451C104.69 951.302 106.077 952.498 107.154 953.952C107.066 953.442 106.85 952.964 106.526 952.56C105.732 951.406 104.679 950.453 103.452 949.778C101.628 948.771 99.587 948.224 97.5047 948.185C94.98 948.191 92.4804 948.686 90.1441 949.643C85.2072 951.596 81.1678 954.131 78.0934 955.455C75.019 956.779 72.8872 957.071 72.9096 957.251Z" fill="#F5F5F5"/>
<path d="M76.1191 971.724C77.4342 972.363 78.8313 972.816 80.2707 973.071C83.6887 973.897 87.1606 974.482 90.6608 974.821C94.1578 975.165 97.6742 975.27 101.186 975.135C102.653 975.163 104.118 974.99 105.539 974.619C105.539 974.283 98.8068 974.619 90.773 973.767C82.7392 972.914 76.2089 971.433 76.1191 971.724Z" fill="#F5F5F5"/>
<path d="M997.516 997.375C997.516 997.712 774.185 997.958 498.769 997.958C223.353 997.958 0 997.712 0 997.375C0 997.038 223.264 996.792 498.769 996.792C774.275 996.792 997.516 997.061 997.516 997.375Z" fill="#263238"/>
<path d="M281.857 295.965C281.857 295.965 287.961 259.364 289.419 256.581C290.878 253.799 307.731 236.699 309.728 236.384C311.725 236.07 338.318 227.677 336.837 231.896C335.356 236.115 316.64 241.636 316.64 241.636L314.867 243.88C314.867 243.88 330.823 238.673 334.772 238.808C338.722 238.943 339.081 242.735 336.231 243.812C333.381 244.89 319.333 248.996 318.794 249.894C318.256 250.791 334.503 246.146 336.478 246.236C339.215 246.348 341.19 249.804 338.408 250.993C336.747 251.667 321.128 255.257 321.128 255.257C325.944 254.624 330.791 254.25 335.647 254.135C338.048 254.786 337.891 257.703 335.198 258.399C333.381 258.87 323.843 259.297 321.42 259.947C321.42 259.947 319.602 261.473 319.669 266.321C319.737 271.168 313.453 284.026 313.453 284.026L281.857 295.965Z" fill="#FFBE9D"/>
<path d="M336.815 231.785C335.744 233.156 334.418 234.307 332.91 235.173C331.335 236.235 329.668 237.151 327.928 237.911C325.953 238.652 323.754 239.415 321.465 240.155L316.55 241.816L316.82 241.659C314.015 244.698 310.976 247.511 307.731 250.074C310.226 246.799 312.972 243.723 315.945 240.873V240.761H316.102L320.949 239.056L327.389 236.812C329.09 236.121 330.74 235.311 332.326 234.388C335.154 232.884 336.702 231.628 336.815 231.785Z" fill="#EB996E"/>
<path d="M691.132 697.925L328.892 660.606C323.583 660.041 318.713 657.395 315.349 653.249C311.985 649.102 310.399 643.792 310.94 638.48L373.617 29.4813C374.404 21.93 378.153 14.9989 384.042 10.2076C389.932 5.4162 397.48 3.15554 405.034 3.92121L750.443 39.4899C757.994 40.2769 764.925 44.0261 769.716 49.9154C774.508 55.8047 776.769 63.3535 776.003 70.907L713.169 679.906C712.619 685.21 709.993 690.082 705.865 693.458C701.736 696.834 696.44 698.44 691.132 697.925Z" fill="#61D5A9"/>
<path opacity="0.4" d="M691.132 697.925L328.892 660.606C323.583 660.041 318.713 657.395 315.349 653.249C311.985 649.102 310.399 643.792 310.94 638.48L373.617 29.4813C374.404 21.93 378.153 14.9989 384.042 10.2076C389.932 5.4162 397.48 3.15554 405.034 3.92121L750.443 39.4899C757.994 40.2769 764.925 44.0261 769.717 49.9154C774.508 55.8047 776.769 63.3535 776.003 70.907L713.169 679.906C712.619 685.21 709.993 690.082 705.865 693.458C701.736 696.834 696.44 698.44 691.132 697.925Z" fill="black"/>
<path d="M654.575 694.155L292.268 656.858C286.954 656.292 282.081 653.644 278.716 649.492C275.352 645.341 273.769 640.025 274.316 634.709L337.15 25.7106C337.534 21.9692 338.651 18.3401 340.438 15.0306C342.225 11.7211 344.646 8.79608 347.564 6.42251C350.481 4.04894 353.838 2.27336 357.442 1.19721C361.045 0.121048 364.826 -0.234611 368.567 0.150541L713.886 35.6519C717.628 36.0359 721.257 37.1533 724.566 38.9401C727.876 40.7269 730.801 43.1482 733.174 46.0657C735.548 48.9831 737.323 52.3396 738.4 55.9434C739.476 59.5472 739.831 63.3277 739.446 67.069L676.612 676.09C676.073 681.403 673.452 686.286 669.322 689.671C665.193 693.056 659.89 694.669 654.575 694.155Z" fill="#41CC97"/>
<path d="M470.402 528.391L345.484 515.526C342.501 515.218 339.833 517.388 339.526 520.371L334.464 569.526C334.156 572.509 336.326 575.177 339.309 575.484L464.227 588.349C467.211 588.657 469.879 586.487 470.186 583.504L475.248 534.349C475.555 531.365 473.386 528.698 470.402 528.391Z" fill="#61D5A9"/>
<g opacity="0.4">
<path d="M470.401 528.391L345.483 515.526C342.499 515.218 339.832 517.388 339.524 520.371L334.462 569.526C334.155 572.509 336.324 575.177 339.308 575.484L464.226 588.349C467.209 588.657 469.877 586.487 470.184 583.504L475.247 534.349C475.554 531.365 473.384 528.698 470.401 528.391Z" fill="black"/>
</g>
<path d="M362.294 68.2348L348.397 203.176L692.39 238.603L706.287 103.662L362.294 68.2348Z" fill="#FAFAFA"/>
<path d="M692.412 238.606C692.412 238.606 692.412 237.776 692.614 236.205C692.816 234.634 692.995 232.278 693.287 229.226C693.893 223.077 694.791 214.056 695.957 202.409C698.202 179.138 701.68 145.455 705.899 103.67L706.258 104.119L362.263 68.8193L362.913 68.3031C358.044 115.429 353.331 161.096 348.978 203.24L348.484 202.611L594.996 228.284L666.582 235.801L685.769 237.866L690.729 238.404L692.434 238.606C692.434 238.606 691.873 238.606 690.774 238.472L685.882 238L666.807 236.115L595.221 228.912L348.372 203.733H347.811V203.195C352.142 161.029 356.787 115.429 361.679 68.2358V67.6523H362.263L706.348 103.266H706.752V103.67C702.263 145.567 698.785 179.34 696.339 202.656C695.105 214.236 694.095 223.234 693.489 229.338C693.152 232.368 692.906 234.679 692.726 236.25L692.412 238.606Z" fill="#263238"/>
<path d="M415.91 264.48L366.733 259.415C364.169 259.151 361.876 261.016 361.612 263.58L356.547 312.757C356.283 315.321 358.148 317.614 360.712 317.878L409.889 322.943C412.454 323.207 414.746 321.342 415.011 318.778L420.075 269.601C420.339 267.037 418.475 264.744 415.91 264.48Z" fill="#61D5A9"/>
<g opacity="0.4">
<path d="M415.91 264.48L366.733 259.415C364.169 259.151 361.876 261.016 361.612 263.58L356.548 312.757C356.283 315.321 358.148 317.614 360.713 317.878L409.889 322.943C412.454 323.207 414.747 321.342 415.011 318.778L420.075 269.601C420.339 267.037 418.475 264.744 415.91 264.48Z" fill="black"/>
</g>
<path d="M406.895 263.559L357.718 258.494C355.153 258.23 352.86 260.095 352.596 262.659L347.532 311.836C347.268 314.401 349.132 316.693 351.697 316.958L400.874 322.022C403.438 322.286 405.731 320.422 405.995 317.857L411.06 268.68C411.324 266.116 409.459 263.823 406.895 263.559Z" fill="#263238"/>
<path d="M384.68 278.259L382.189 302.697L376.534 302.114L378.576 282.276L373.707 281.76L374.178 277.272L384.68 278.259Z" fill="white"/>
<path d="M497.447 272.9L448.27 267.835C445.706 267.571 443.413 269.436 443.149 272L438.084 321.177C437.82 323.741 439.685 326.034 442.249 326.298L491.426 331.363C493.99 331.627 496.283 329.762 496.547 327.198L501.612 278.021C501.876 275.457 500.011 273.164 497.447 272.9Z" fill="#61D5A9"/>
<g opacity="0.4">
<path d="M497.447 272.899L448.27 267.835C445.706 267.571 443.413 269.435 443.149 272L438.084 321.177C437.82 323.741 439.685 326.034 442.249 326.298L491.426 331.362C493.99 331.627 496.283 329.762 496.547 327.198L501.612 278.021C501.876 275.456 500.011 273.163 497.447 272.899Z" fill="black"/>
</g>
<path d="M488.413 271.958L439.236 266.893C436.672 266.629 434.379 268.494 434.115 271.058L429.05 320.235C428.786 322.799 430.651 325.092 433.215 325.356L482.392 330.421C484.957 330.685 487.25 328.82 487.514 326.256L492.578 277.079C492.842 274.515 490.978 272.222 488.413 271.958Z" fill="#263238"/>
<path d="M472.986 307.343L472.515 311.831L454.113 309.946L454.495 306.288L464.795 298.366C467.174 296.549 467.69 295.337 467.802 294.147C468.004 292.24 466.792 290.983 464.212 290.714C463.238 290.576 462.246 290.681 461.323 291.017C460.399 291.354 459.572 291.912 458.916 292.644L455.078 289.569C456.346 288.189 457.936 287.145 459.706 286.53C461.476 285.915 463.371 285.749 465.222 286.046C470.652 286.607 473.996 289.749 473.525 294.17C473.3 296.549 472.403 298.658 468.677 301.441L462.529 306.153L472.986 307.343Z" fill="white"/>
<path d="M581.969 281.603L532.792 276.539C530.228 276.275 527.935 278.139 527.671 280.704L522.606 329.881C522.342 332.445 524.207 334.738 526.771 335.002L575.948 340.067C578.513 340.331 580.806 338.466 581.07 335.902L586.134 286.725C586.398 284.16 584.534 281.867 581.969 281.603Z" fill="#61D5A9"/>
<g opacity="0.4">
<path d="M581.968 281.603L532.791 276.539C530.227 276.275 527.934 278.139 527.67 280.704L522.605 329.881C522.341 332.445 524.206 334.738 526.77 335.002L575.947 340.067C578.511 340.331 580.804 338.466 581.068 335.902L586.133 286.725C586.397 284.16 584.532 281.867 581.968 281.603Z" fill="black"/>
</g>
<path d="M572.959 280.662L523.782 275.597C521.217 275.333 518.924 277.198 518.66 279.762L513.596 328.939C513.332 331.504 515.196 333.796 517.761 334.061L566.938 339.125C569.502 339.389 571.795 337.525 572.059 334.96L577.123 285.783C577.388 283.219 575.523 280.926 572.959 280.662Z" fill="#263238"/>
<path d="M557.611 313.155C557.185 317.262 553.639 320.695 546.705 320C543.43 319.705 540.312 318.465 537.729 316.431L540.354 312.325C542.235 313.982 544.591 315.003 547.086 315.242C549.914 315.534 551.776 314.569 551.978 312.572C552.18 310.574 550.924 309.452 547.737 309.116L545.156 308.846L545.538 305.121L551.126 299.96L540.758 298.905L541.229 294.417L558.284 296.167L557.903 299.825L551.754 305.525C553.525 305.798 555.123 306.743 556.214 308.165C557.305 309.586 557.805 311.374 557.611 313.155Z" fill="white"/>
<path d="M666.513 290.307L617.336 285.243C614.772 284.979 612.479 286.843 612.215 289.408L607.15 338.585C606.886 341.149 608.751 343.442 611.315 343.706L660.492 348.771C663.057 349.035 665.349 347.17 665.614 344.606L670.678 295.429C670.942 292.864 669.078 290.572 666.513 290.307Z" fill="#61D5A9"/>
<g opacity="0.4">
<path d="M666.514 290.307L617.337 285.243C614.772 284.979 612.479 286.843 612.215 289.408L607.151 338.585C606.886 341.149 608.751 343.442 611.316 343.706L660.493 348.771C663.057 349.035 665.35 347.17 665.614 344.606L670.678 295.429C670.943 292.864 669.078 290.572 666.514 290.307Z" fill="black"/>
</g>
<path d="M657.681 289.363L608.504 284.298C605.94 284.034 603.647 285.899 603.383 288.463L598.318 337.64C598.054 340.204 599.919 342.497 602.483 342.761L651.66 347.826C654.225 348.09 656.517 346.225 656.782 343.661L661.846 294.484C662.11 291.92 660.246 289.627 657.681 289.363Z" fill="#263238"/>
<path d="M616.839 312.638L616.609 314.87L642.727 317.56L642.957 315.328L616.839 312.638Z" fill="white"/>
<path d="M635.232 304.178C635.148 305.017 634.817 305.812 634.28 306.463C633.744 307.114 633.027 307.592 632.219 307.835C631.412 308.078 630.55 308.077 629.744 307.83C628.937 307.584 628.222 307.104 627.688 306.451C627.154 305.798 626.826 305.001 626.745 304.162C626.664 303.322 626.834 302.477 627.233 301.735C627.633 300.992 628.243 300.384 628.988 299.988C629.732 299.592 630.578 299.426 631.417 299.51C632.542 299.624 633.575 300.179 634.291 301.054C635.006 301.93 635.345 303.053 635.232 304.178Z" fill="white"/>
<path d="M632.876 326.956C632.791 327.796 632.459 328.592 631.921 329.243C631.384 329.894 630.665 330.37 629.856 330.613C629.048 330.855 628.185 330.851 627.378 330.603C626.571 330.354 625.857 329.872 625.324 329.217C624.792 328.561 624.466 327.763 624.388 326.922C624.31 326.082 624.483 325.237 624.886 324.495C625.288 323.753 625.902 323.147 626.649 322.754C627.397 322.361 628.244 322.199 629.083 322.288C630.204 322.407 631.232 322.965 631.943 323.839C632.653 324.714 632.989 325.834 632.876 326.956Z" fill="white"/>
<path d="M407.092 350.15L357.915 345.086C355.351 344.822 353.058 346.686 352.794 349.251L347.729 398.428C347.465 400.992 349.33 403.285 351.894 403.549L401.071 408.613C403.636 408.878 405.929 407.013 406.193 404.448L411.257 355.272C411.521 352.707 409.657 350.414 407.092 350.15Z" fill="#61D5A9"/>
<g opacity="0.4">
<path d="M407.093 350.15L357.916 345.085C355.352 344.821 353.059 346.686 352.795 349.25L347.73 398.427C347.466 400.991 349.331 403.284 351.895 403.548L401.072 408.613C403.636 408.877 405.929 407.012 406.193 404.448L411.258 355.271C411.522 352.707 409.657 350.414 407.093 350.15Z" fill="black"/>
</g>
<path d="M398.077 349.231L348.9 344.167C346.335 343.903 344.043 345.767 343.778 348.332L338.714 397.509C338.45 400.073 340.314 402.366 342.879 402.63L392.056 407.694C394.62 407.959 396.913 406.094 397.177 403.53L402.242 354.353C402.506 351.788 400.641 349.495 398.077 349.231Z" fill="#263238"/>
<path d="M381.001 383.888L377.029 383.484L376.49 388.601L370.992 388.04L371.531 382.923L358.403 381.554L358.785 377.762L371.868 363.489L377.792 364.118L365.629 377.582L372.182 378.255L372.653 373.767L377.971 374.306L377.5 378.794L381.472 379.198L381.001 383.888Z" fill="white"/>
<path d="M488.631 358.549L439.454 353.485C436.89 353.22 434.597 355.085 434.333 357.649L429.268 406.826C429.004 409.391 430.869 411.684 433.433 411.948L482.61 417.012C485.174 417.276 487.467 415.412 487.731 412.847L492.796 363.67C493.06 361.106 491.195 358.813 488.631 358.549Z" fill="#61D5A9"/>
<g opacity="0.4">
<path d="M488.631 358.549L439.454 353.485C436.89 353.22 434.597 355.085 434.333 357.649L429.268 406.826C429.004 409.391 430.869 411.684 433.433 411.948L482.61 417.012C485.175 417.276 487.467 415.412 487.731 412.847L492.796 363.67C493.06 361.106 491.195 358.813 488.631 358.549Z" fill="black"/>
</g>
<path d="M479.619 357.607L430.442 352.543C427.877 352.279 425.584 354.143 425.32 356.708L420.256 405.885C419.992 408.449 421.856 410.742 424.421 411.006L473.598 416.07C476.162 416.335 478.455 414.47 478.719 411.906L483.784 362.729C484.048 360.164 482.183 357.871 479.619 357.607Z" fill="#263238"/>
<path d="M461.788 389.656C461.361 393.965 457.793 397.398 450.836 396.68C447.563 396.382 444.445 395.142 441.86 393.112L444.531 389.028C446.408 390.686 448.767 391.701 451.263 391.922C454.09 392.214 455.953 391.227 456.155 389.23C456.357 387.232 455.235 385.931 450.814 385.482L444.575 384.831L447.246 371.367L462.102 372.893L461.653 377.381L451.487 376.326L450.612 380.926L452.609 381.128C459.723 381.802 462.236 385.325 461.788 389.656Z" fill="white"/>
<path d="M573.175 367.253L523.998 362.188C521.434 361.924 519.141 363.789 518.877 366.353L513.812 415.53C513.548 418.094 515.413 420.387 517.977 420.651L567.154 425.716C569.718 425.98 572.011 424.115 572.275 421.551L577.34 372.374C577.604 369.81 575.739 367.517 573.175 367.253Z" fill="#61D5A9"/>
<g opacity="0.4">
<path d="M573.175 367.253L523.998 362.189C521.434 361.925 519.141 363.789 518.877 366.354L513.812 415.531C513.548 418.095 515.413 420.388 517.977 420.652L567.154 425.716C569.718 425.981 572.011 424.116 572.275 421.552L577.34 372.375C577.604 369.81 575.739 367.517 573.175 367.253Z" fill="black"/>
</g>
<path d="M564.138 366.311L514.961 361.246C512.396 360.982 510.104 362.847 509.839 365.411L504.775 414.588C504.511 417.153 506.375 419.445 508.94 419.709L558.117 424.774C560.681 425.038 562.974 423.173 563.238 420.609L568.303 371.432C568.567 368.868 566.702 366.575 564.138 366.311Z" fill="#263238"/>
<path d="M548.093 398.497C547.577 403.478 543.178 406.194 538.039 405.655C531.307 404.959 527.582 400.314 528.39 392.46C529.265 384.022 534.83 379.848 542.168 380.611C544.549 380.793 546.837 381.615 548.789 382.99L546.275 386.917C544.984 385.912 543.42 385.318 541.787 385.212C537.703 384.808 534.853 386.94 534.202 391.585C535.087 390.926 536.095 390.45 537.166 390.184C538.237 389.918 539.35 389.868 540.441 390.036C541.512 390.048 542.57 390.28 543.547 390.72C544.524 391.16 545.399 391.797 546.118 392.592C546.837 393.387 547.383 394.321 547.723 395.338C548.063 396.354 548.189 397.429 548.093 398.497ZM542.595 398.205C542.653 397.683 542.598 397.155 542.435 396.656C542.272 396.157 542.004 395.698 541.649 395.312C541.294 394.925 540.86 394.618 540.377 394.413C539.894 394.207 539.372 394.108 538.847 394.121C538.331 394.011 537.798 394.009 537.281 394.114C536.764 394.22 536.275 394.431 535.843 394.734C535.411 395.037 535.047 395.426 534.772 395.877C534.497 396.327 534.319 396.829 534.247 397.352C534.022 399.439 535.436 401.122 538.152 401.414C538.652 401.517 539.169 401.514 539.669 401.405C540.168 401.296 540.64 401.083 541.052 400.781C541.464 400.478 541.809 400.093 542.063 399.649C542.317 399.205 542.475 398.713 542.528 398.205H542.595Z" fill="white"/>
<path d="M657.673 375.955L608.496 370.89C605.932 370.626 603.639 372.491 603.375 375.055L598.31 424.232C598.046 426.797 599.911 429.089 602.475 429.353L651.652 434.418C654.216 434.682 656.509 432.818 656.773 430.253L661.838 381.076C662.102 378.512 660.237 376.219 657.673 375.955Z" fill="#61D5A9"/>
<g opacity="0.4">
<path d="M657.673 375.953L608.496 370.889C605.932 370.625 603.639 372.489 603.375 375.054L598.31 424.231C598.046 426.795 599.911 429.088 602.475 429.352L651.652 434.417C654.217 434.681 656.509 432.816 656.773 430.252L661.838 381.075C662.102 378.51 660.238 376.218 657.673 375.953Z" fill="black"/>
</g>
<path d="M648.661 375.013L599.484 369.949C596.919 369.685 594.626 371.55 594.362 374.114L589.298 423.291C589.034 425.855 590.898 428.148 593.463 428.412L642.64 433.477C645.204 433.741 647.497 431.876 647.761 429.312L652.826 380.135C653.09 377.57 651.225 375.278 648.661 375.013Z" fill="#263238"/>
<path d="M630.653 392.72L610.037 408.978L611.427 410.74L632.043 394.482L630.653 392.72Z" fill="white"/>
<path d="M613.65 390.929L611.909 392.345L628.475 412.715L630.216 411.299L613.65 390.929Z" fill="white"/>
<path d="M398.345 435.114L349.168 430.049C346.603 429.785 344.31 431.65 344.046 434.214L338.982 483.391C338.718 485.956 340.582 488.249 343.147 488.513L392.324 493.577C394.888 493.841 397.181 491.977 397.445 489.412L402.509 440.235C402.774 437.671 400.909 435.378 398.345 435.114Z" fill="#61D5A9"/>
<g opacity="0.4">
<path d="M398.345 435.114L349.168 430.049C346.604 429.785 344.311 431.65 344.047 434.214L338.982 483.391C338.718 485.956 340.583 488.249 343.147 488.513L392.324 493.577C394.888 493.841 397.181 491.977 397.445 489.412L402.51 440.235C402.774 437.671 400.909 435.378 398.345 435.114Z" fill="black"/>
</g>
<path d="M389.329 434.196L340.152 429.131C337.588 428.867 335.295 430.732 335.031 433.296L329.966 482.473C329.702 485.037 331.567 487.33 334.131 487.594L383.308 492.659C385.872 492.923 388.165 491.058 388.429 488.494L393.494 439.317C393.758 436.753 391.893 434.46 389.329 434.196Z" fill="#263238"/>
<path d="M370.991 449.257L370.61 452.915L359.389 472.708L353.263 472.057L364.034 453.185L355.956 452.354L355.552 456.326L350.525 455.81L351.423 447.26L370.991 449.257Z" fill="white"/>
<path d="M479.882 443.512L430.705 438.447C428.141 438.183 425.848 440.048 425.584 442.612L420.519 491.789C420.255 494.353 422.12 496.646 424.684 496.91L473.861 501.975C476.425 502.239 478.718 500.374 478.982 497.81L484.047 448.633C484.311 446.069 482.446 443.776 479.882 443.512Z" fill="#61D5A9"/>
<g opacity="0.4">
<path d="M479.88 443.512L430.703 438.447C428.139 438.183 425.846 440.048 425.582 442.612L420.518 491.789C420.253 494.353 422.118 496.646 424.682 496.91L473.859 501.975C476.424 502.239 478.717 500.374 478.981 497.81L484.045 448.633C484.309 446.069 482.445 443.776 479.88 443.512Z" fill="black"/>
</g>
<path d="M470.848 442.57L421.671 437.505C419.107 437.241 416.814 439.106 416.55 441.67L411.485 490.847C411.221 493.411 413.086 495.704 415.65 495.968L464.827 501.033C467.392 501.297 469.684 499.432 469.949 496.868L475.013 447.691C475.277 445.127 473.413 442.834 470.848 442.57Z" fill="#263238"/>
<path d="M454.965 475.492C454.494 479.98 450.096 482.561 443.902 481.91C437.708 481.26 433.961 477.961 434.432 473.383C434.538 472.166 435.001 471.007 435.764 470.053C436.526 469.099 437.554 468.391 438.718 468.019C437.903 467.415 437.264 466.602 436.87 465.667C436.475 464.731 436.338 463.707 436.474 462.701C436.923 458.415 440.962 456.148 446.55 456.709C452.138 457.27 455.706 460.367 455.279 464.653C455.188 465.67 454.826 466.644 454.23 467.473C453.634 468.302 452.826 468.956 451.891 469.366C452.949 469.971 453.806 470.875 454.353 471.965C454.9 473.055 455.113 474.282 454.965 475.492ZM449.265 474.729C449.49 472.485 447.851 471.071 445.046 470.78C442.241 470.488 440.379 471.632 440.154 473.787C439.93 475.941 441.523 477.489 444.328 477.781C447.133 478.073 449.063 476.794 449.355 474.639L449.265 474.729ZM441.994 463.509C441.792 465.349 443.139 466.651 445.428 466.897C447.717 467.144 449.377 466.134 449.579 464.294C449.781 462.454 448.368 461.063 446.056 460.838C443.745 460.614 442.174 461.534 441.994 463.442V463.509Z" fill="white"/>
<path d="M564.404 452.217L515.227 447.152C512.663 446.888 510.37 448.753 510.106 451.317L505.041 500.494C504.777 503.059 506.642 505.352 509.206 505.616L558.383 510.68C560.948 510.944 563.24 509.08 563.504 506.515L568.569 457.338C568.833 454.774 566.968 452.481 564.404 452.217Z" fill="#61D5A9"/>
<g opacity="0.4">
<path d="M564.404 452.217L515.227 447.152C512.663 446.888 510.37 448.753 510.106 451.317L505.041 500.494C504.777 503.059 506.642 505.352 509.206 505.616L558.383 510.68C560.948 510.944 563.241 509.08 563.505 506.515L568.569 457.338C568.833 454.774 566.969 452.481 564.404 452.217Z" fill="black"/>
</g>
<path d="M553.746 447.342L504.803 442.398C502.251 442.141 499.973 444.001 499.715 446.553L494.771 495.495C494.514 498.047 496.374 500.325 498.926 500.583L547.868 505.527C550.42 505.785 552.698 503.925 552.956 501.373L557.9 452.43C558.158 449.878 556.298 447.6 553.746 447.342Z" fill="#263238"/>
<path d="M539.117 478.364C538.242 486.802 532.722 490.976 525.339 490.213C522.974 490.039 520.701 489.224 518.763 487.857L521.277 483.93C522.565 484.938 524.132 485.526 525.765 485.613C529.804 486.016 532.699 483.885 533.35 479.217C532.458 479.881 531.444 480.361 530.365 480.631C529.287 480.901 528.166 480.954 527.067 480.788C526 480.767 524.949 480.528 523.979 480.084C523.008 479.64 522.14 479.002 521.426 478.209C520.713 477.416 520.17 476.484 519.832 475.473C519.494 474.461 519.367 473.39 519.459 472.328C519.975 467.346 524.374 464.63 529.535 465.169C536.245 465.865 539.948 470.51 539.117 478.364ZM533.26 473.472C533.462 471.385 532.048 469.702 529.378 469.41C528.873 469.312 528.354 469.322 527.853 469.437C527.352 469.552 526.88 469.771 526.469 470.079C526.058 470.388 525.716 470.779 525.465 471.228C525.214 471.677 525.06 472.173 525.013 472.685C524.966 473.197 525.026 473.713 525.191 474.2C525.355 474.687 525.62 475.135 525.968 475.513C526.315 475.892 526.739 476.193 527.21 476.398C527.681 476.603 528.191 476.707 528.705 476.704C529.219 476.813 529.751 476.815 530.267 476.71C530.782 476.604 531.271 476.393 531.701 476.089C532.131 475.786 532.493 475.397 532.765 474.946C533.038 474.496 533.214 473.994 533.283 473.472H533.26Z" fill="white"/>
<path d="M648.925 460.918L599.748 455.853C597.184 455.589 594.891 457.454 594.627 460.018L589.562 509.195C589.298 511.759 591.163 514.052 593.727 514.316L642.904 519.381C645.468 519.645 647.761 517.78 648.025 515.216L653.09 466.039C653.354 463.475 651.489 461.182 648.925 460.918Z" fill="#61D5A9"/>
<g opacity="0.4">
<path d="M648.925 460.918L599.748 455.853C597.184 455.589 594.891 457.454 594.627 460.018L589.562 509.195C589.298 511.759 591.163 514.052 593.727 514.316L642.904 519.381C645.468 519.645 647.761 517.78 648.025 515.216L653.09 466.039C653.354 463.475 651.489 461.182 648.925 460.918Z" fill="black"/>
</g>
<path d="M639.914 459.976L590.737 454.912C588.173 454.648 585.88 456.512 585.616 459.077L580.551 508.254C580.287 510.818 582.152 513.111 584.716 513.375L633.893 518.44C636.458 518.704 638.751 516.839 639.015 514.275L644.079 465.098C644.343 462.533 642.479 460.24 639.914 459.976Z" fill="#263238"/>
<path d="M599.374 484.268L599.144 486.5L625.262 489.19L625.492 486.958L599.374 484.268Z" fill="white"/>
<path d="M555.58 537.93L506.403 532.865C503.839 532.601 501.546 534.465 501.282 537.03L496.217 586.207C495.953 588.771 497.818 591.064 500.382 591.328L549.559 596.393C552.123 596.657 554.416 594.792 554.68 592.228L559.745 543.051C560.009 540.486 558.144 538.194 555.58 537.93Z" fill="#61D5A9"/>
<g opacity="0.4">
<path d="M555.579 537.93L506.402 532.865C503.837 532.601 501.544 534.465 501.28 537.03L496.216 586.207C495.952 588.771 497.816 591.064 500.381 591.328L549.558 596.393C552.122 596.657 554.415 594.792 554.679 592.228L559.744 543.051C560.008 540.486 558.143 538.194 555.579 537.93Z" fill="black"/>
</g>
<path d="M546.547 536.988L497.37 531.923C494.806 531.659 492.513 533.524 492.249 536.088L487.184 585.265C486.92 587.83 488.785 590.123 491.349 590.387L540.526 595.451C543.09 595.715 545.383 593.851 545.647 591.286L550.712 542.109C550.976 539.545 549.111 537.252 546.547 536.988Z" fill="#263238"/>
<path d="M640.101 546.634L590.924 541.569C588.36 541.305 586.067 543.17 585.803 545.734L580.738 594.911C580.474 597.475 582.339 599.768 584.903 600.032L634.08 605.097C636.644 605.361 638.937 603.496 639.201 600.932L644.266 551.755C644.53 549.191 642.665 546.898 640.101 546.634Z" fill="#61D5A9"/>
<g opacity="0.4">
<path d="M640.101 546.634L590.924 541.569C588.36 541.305 586.067 543.17 585.803 545.734L580.738 594.911C580.474 597.475 582.339 599.768 584.903 600.032L634.08 605.097C636.645 605.361 638.938 603.496 639.202 600.932L644.266 551.755C644.53 549.191 642.666 546.898 640.101 546.634Z" fill="black"/>
</g>
<path d="M631.09 545.692L581.913 540.628C579.349 540.364 577.056 542.228 576.792 544.793L571.727 593.97C571.463 596.534 573.328 598.827 575.892 599.091L625.069 604.155C627.634 604.42 629.926 602.555 630.19 599.991L635.255 550.814C635.519 548.249 633.655 545.956 631.09 545.692Z" fill="#455A64"/>
<path d="M590.888 566.795L590.658 569.027L616.776 571.717L617.006 569.485L590.888 566.795Z" fill="white"/>
<path d="M589.88 576.717L589.65 578.949L615.768 581.639L615.997 579.407L589.88 576.717Z" fill="white"/>
<path d="M459.249 527.235L329.264 513.848C326.181 513.53 323.426 515.772 323.108 518.854L318.083 567.651C317.765 570.733 320.006 573.489 323.089 573.807L453.074 587.193C456.156 587.511 458.912 585.27 459.229 582.187L464.255 533.39C464.572 530.308 462.331 527.552 459.249 527.235Z" fill="#263238"/>
<path d="M385.892 548.828C386.722 540.772 391.659 536.688 397.651 537.294C403.643 537.9 407.615 542.926 406.784 550.983C405.954 559.039 401.062 563.123 395.048 562.495C389.034 561.866 385.062 556.862 385.892 548.828ZM401.107 550.399C401.69 544.856 399.962 542.365 397.157 542.074C394.352 541.782 392.175 543.869 391.614 549.412C391.053 554.955 392.759 557.446 395.542 557.737C398.324 558.029 400.546 555.92 401.107 550.399Z" fill="white"/>
<path d="M519.356 550.511L516.279 576.585L518.508 576.848L521.585 550.774L519.356 550.511Z" fill="white"/>
<path d="M506.017 561.254L505.787 563.486L531.904 566.176L532.134 563.944L506.017 561.254Z" fill="white"/>
<path d="M493.787 150.639L490.039 187.061L488.311 186.881L491.992 152.075L482.836 151.133L482.993 149.517L493.787 150.639Z" fill="#263238"/>
<path d="M523.725 188.9L523.545 190.515L498.86 187.979L498.995 186.723L516.23 172.608C521.166 168.591 522.356 166.032 522.67 163.07C523.164 158.223 520.112 154.767 513.694 154.094C511.676 153.731 509.603 153.833 507.631 154.393C505.659 154.953 503.842 155.956 502.316 157.325L501.239 156.069C502.957 154.572 504.984 153.473 507.176 152.853C509.368 152.232 511.671 152.104 513.918 152.478C520.875 153.196 524.937 157.236 524.331 163.115C523.972 166.571 522.58 169.466 517.284 173.752L501.576 186.611L523.725 188.9Z" fill="#263238"/>
<path d="M552.582 183.289C551.954 189.348 547.264 193.163 539.252 192.265C536.892 192.139 534.586 191.506 532.491 190.41C530.397 189.315 528.562 187.781 527.112 185.915L528.189 184.77C529.524 186.502 531.218 187.924 533.155 188.939C535.092 189.954 537.226 190.538 539.409 190.65C546.366 191.368 550.361 188.406 550.922 183.065C551.483 177.724 548.274 174.088 540.554 173.213L538.534 172.989L538.669 171.754L551.527 158.133L531.443 156.068L531.6 154.453L554.041 156.697L553.906 157.931L540.98 171.597C549.418 172.54 553.21 177.208 552.582 183.289Z" fill="#263238"/>
<path d="M588.488 186.566L580.567 185.758L579.489 196.282L577.761 196.103L578.839 185.578L557.924 183.334L558.058 182.077L580.746 159.502L582.766 159.704L560.325 182.01L578.973 183.94L579.916 174.672L581.644 174.851L580.679 184.097L588.6 184.927L588.488 186.566Z" fill="#263238"/>
<path d="M596.051 196.395C595.946 197.047 595.773 197.687 595.535 198.303L592.931 205.035L591.585 204.9L593.941 197.876C593.489 197.802 593.085 197.551 592.817 197.178C592.55 196.806 592.442 196.343 592.516 195.89C592.591 195.438 592.842 195.034 593.214 194.766C593.587 194.499 594.05 194.391 594.502 194.465C594.961 194.522 595.38 194.755 595.669 195.115C595.958 195.476 596.095 195.935 596.051 196.395Z" fill="#263238"/>
<path d="M632.135 191.076L624.236 190.268L623.158 200.771L621.43 200.591L622.508 190.089L601.593 187.845L601.727 186.588L624.393 164.08L626.412 164.304L603.971 186.611L622.62 188.518L623.562 179.25L625.29 179.43L624.393 188.698L632.314 189.505L632.135 191.076Z" fill="#263238"/>
<path d="M659.199 194.083C658.571 200.007 653.993 204.159 645.735 203.306C643.385 203.171 641.092 202.535 639.01 201.439C636.927 200.344 635.103 198.815 633.661 196.955L634.783 195.811C636.112 197.549 637.805 198.976 639.743 199.992C641.681 201.008 643.818 201.587 646.004 201.69C653.118 202.431 657 199.042 657.538 193.881C658.122 188.271 655.115 184.591 644.702 183.513L637.633 182.795L641.224 165.808L660.007 167.76L659.85 169.376L642.503 167.58L639.518 181.359L645.129 181.943C656.259 183.087 659.85 187.62 659.199 194.083Z" fill="#263238"/>
<path d="M261.122 940.397L246.85 993.156L293.235 997.375L302.974 947.152L261.122 940.397Z" fill="#FF725E"/>
<path d="M294.512 993.088C292.266 993.249 290.01 993.174 287.78 992.864C283.606 992.527 277.861 991.877 271.51 991.069L255.308 988.825C253.031 988.653 250.777 988.262 248.575 987.658C250.823 987.529 253.078 987.619 255.308 987.927C259.482 988.264 265.227 988.914 271.577 989.722L287.78 991.966C290.051 992.149 292.304 992.524 294.512 993.088Z" fill="#263238"/>
<g opacity="0.6">
<path d="M246.85 993.156L293.235 997.375L293.975 993.515L248.196 987.703L246.917 992.618" fill="white"/>
</g>
<path d="M269.83 990.8C272.435 977.251 275.731 963.844 279.704 950.631C278.562 957.437 277.064 964.179 275.215 970.828C273.767 977.574 271.969 984.24 269.83 990.8Z" fill="#263238"/>
<path d="M292.022 992.752C292.75 989.524 292.75 986.174 292.022 982.946C291.208 979.478 289.453 976.302 286.95 973.767C283.83 970.723 279.757 968.845 275.416 968.449C271.081 968.001 266.719 968.995 263.006 971.276C259.992 973.189 257.507 975.828 255.78 978.951C254.243 981.883 253.247 985.068 252.84 988.354C252.81 988.123 252.81 987.889 252.84 987.658C252.831 986.991 252.869 986.323 252.952 985.661C253.275 983.19 254.035 980.797 255.196 978.592C256.9 975.277 259.437 972.462 262.557 970.424C266.443 967.966 271.045 966.891 275.618 967.372C280.203 967.789 284.498 969.798 287.758 973.049C290.34 975.745 292.113 979.112 292.875 982.766C293.376 985.209 293.376 987.729 292.875 990.172C292.73 990.829 292.535 991.474 292.291 992.101C292.232 992.33 292.141 992.549 292.022 992.752Z" fill="#263238"/>
<path d="M452.43 934.384L449.67 975.921C449.67 975.921 491.006 989.633 491.253 997.352L410.466 997.936L412.104 933.037L452.43 934.384Z" fill="#FF725E"/>
<g opacity="0.6">
<path d="M424.804 971.68C424.02 971.896 423.342 972.393 422.899 973.075C422.457 973.758 422.28 974.579 422.403 975.383C422.586 976.177 423.068 976.87 423.75 977.318C424.431 977.765 425.259 977.932 426.061 977.784C426.889 977.552 427.603 977.024 428.066 976.3C428.53 975.575 428.71 974.706 428.574 973.857C428.297 973.052 427.719 972.386 426.963 971.997C426.206 971.608 425.328 971.527 424.512 971.77" fill="white"/>
</g>
<g opacity="0.6">
<path d="M410.466 997.98L410.892 991.428L488.672 993.672C489.494 994.096 490.197 994.718 490.718 995.482C491.239 996.246 491.562 997.128 491.657 998.048L410.466 997.98Z" fill="white"/>
</g>
<path d="M450.993 975.562C450.993 975.966 448.995 976.078 446.998 977.29C445.001 978.502 443.946 980.118 443.587 979.961C443.228 979.803 443.879 977.537 446.303 976.101C448.726 974.664 451.082 975.203 450.993 975.562Z" fill="#263238"/>
<path d="M459.341 979.332C459.341 979.714 457.702 980.32 456.311 981.958C454.92 983.596 454.471 985.324 454.067 985.302C453.663 985.279 453.484 983.058 455.256 981.038C457.029 979.018 459.363 978.951 459.341 979.332Z" fill="#263238"/>
<path d="M463.852 989.61C463.493 989.61 463 987.681 464.077 985.571C465.154 983.462 467.039 982.631 467.196 982.968C467.353 983.305 466.164 984.427 465.311 986.177C464.458 987.927 464.256 989.588 463.852 989.61Z" fill="#263238"/>
<path d="M450.566 966.026C450.387 966.385 448.591 965.779 446.37 965.868C444.148 965.958 442.375 966.609 442.173 966.25C441.971 965.891 443.699 964.567 446.325 964.5C448.95 964.432 450.768 965.734 450.566 966.026Z" fill="#263238"/>
<g opacity="0.3">
<path d="M451.867 942.619L451.373 950.025L411.698 948.454L411.855 941.789L451.867 942.619Z" fill="black"/>
</g>
<path d="M450.97 957.632C449.636 957.948 448.241 957.901 446.931 957.497C445.479 957.191 444.07 956.709 442.734 956.061C441.954 955.685 441.204 955.25 440.49 954.76C440.04 954.502 439.637 954.168 439.301 953.772C439.048 953.484 438.899 953.12 438.879 952.737C438.859 952.354 438.968 951.976 439.189 951.663C439.398 951.398 439.664 951.184 439.967 951.037C440.27 950.889 440.602 950.812 440.939 950.81C441.451 950.82 441.959 950.911 442.443 951.079C443.302 951.312 444.136 951.627 444.934 952.022C446.282 952.673 447.517 953.537 448.591 954.58C450.409 956.375 451.015 957.857 450.835 957.924C450.656 957.991 449.781 956.802 447.918 955.298C446.835 954.434 445.643 953.718 444.372 953.166C443.649 952.84 442.898 952.577 442.128 952.381C441.276 952.134 440.558 952.089 440.311 952.381C440.064 952.673 440.311 952.583 440.311 952.83C440.57 953.113 440.864 953.362 441.186 953.57C441.889 954.049 442.585 954.475 443.273 954.849C444.507 955.506 445.799 956.047 447.133 956.465C448.435 956.773 449.717 957.163 450.97 957.632Z" fill="#263238"/>
<path d="M450.432 958.193C449.719 957.005 449.389 955.625 449.489 954.243C449.447 951.875 450.069 949.543 451.284 947.511C451.515 946.984 451.878 946.525 452.338 946.179C452.798 945.833 453.339 945.611 453.91 945.536C454.273 945.551 454.623 945.672 454.918 945.883C455.213 946.094 455.44 946.387 455.571 946.725C455.763 947.2 455.891 947.698 455.952 948.207C456.093 949.42 455.992 950.649 455.657 951.823C455.322 952.998 454.759 954.095 454 955.051C452.362 957.116 450.701 957.52 450.679 957.295C450.656 957.071 451.958 956.375 453.214 954.4C453.945 953.267 454.42 951.988 454.606 950.653C454.718 949.871 454.718 949.078 454.606 948.296C454.606 947.444 454.202 946.748 453.888 946.815C453.573 946.883 452.788 947.421 452.429 948.094C452.013 948.814 451.653 949.564 451.352 950.338C450.868 951.622 450.566 952.966 450.454 954.333C450.275 956.644 450.656 958.125 450.432 958.193Z" fill="#263238"/>
<path d="M277.256 287.303C277.256 287.303 268.481 335.102 261.547 364.028C256.072 386.469 241.934 428.613 267.539 440.843C293.144 453.073 327.478 403.681 327.478 403.681L342.087 291.163C331.921 293.07 320.387 304.874 308.112 322.221L310.356 279.583L277.256 287.303Z" fill="#455A64"/>
<path d="M629.621 357.924L616.157 364.342L603.747 344.886L610.995 329.873C611.691 328.482 612.432 326.934 613.24 325.138C614.137 323.036 614.676 320.799 614.833 318.518C615.145 315.709 615.077 312.871 614.631 310.08C613.958 307.567 616.606 305.592 618.401 306.984C620.196 308.375 622.216 315.287 620.892 323.567C619.568 331.848 629.173 323.074 632.741 319.932C636.309 316.79 647.776 307.634 649.594 307.994C652.219 308.51 652.152 311.517 648.517 314.546C644.881 317.576 634.626 327.517 636.309 329.357C638.411 329.594 640.388 330.48 641.965 331.891C643.541 333.303 644.639 335.17 645.106 337.234C646.003 341.296 646.744 346.928 644.455 348.791C639.712 352.151 634.757 355.202 629.621 357.924Z" fill="#FFBE9D"/>
<path d="M368.568 176.558L368.209 293.497L418.342 295.966L419.801 267.533C419.801 267.533 437.619 271.079 442.241 254.518C445.181 243.948 444.486 162.241 444.486 162.241L368.568 176.558Z" fill="#FFBE9D"/>
<path d="M455.751 173.684C452.362 180.663 436.272 193.455 436.272 193.455L429.001 212.933C422.696 207.996 414.213 208.288 412.62 219.374C411.453 227.408 421.417 229.023 421.417 229.023C415.604 238.897 411.677 246.976 403.239 256.266C394.084 266.455 388.967 267.487 379.048 267.644H368.097C368.097 267.644 345.656 248.928 350.145 199.671C354.633 150.413 398.864 164.798 409.433 152.545C426.645 132.438 467.039 150.368 455.751 173.684Z" fill="#263238"/>
<path d="M352.634 240.85H354.025C355.361 240.826 356.691 240.676 357.997 240.401C362.795 239.31 367.226 236.99 370.856 233.669C376.062 228.558 380.451 222.677 383.872 216.233C386.116 212.71 388.225 208.962 390.918 205.349C393.63 201.552 396.96 198.237 400.77 195.542C404.689 193.004 409.016 191.16 413.561 190.089C417.914 188.967 422.201 188.271 426.24 187.486C434.319 185.983 441.567 183.738 446.437 179.901C450.422 176.985 453.308 172.811 454.628 168.052C454.946 166.76 455.112 165.434 455.121 164.103C455.121 163.183 455.121 162.689 455.121 162.689C455.121 162.689 455.121 163.183 455.278 164.103C455.308 165.446 455.172 166.787 454.874 168.097C453.598 172.931 450.718 177.188 446.706 180.17C441.724 184.075 434.408 186.386 426.33 187.89C422.268 188.698 418.004 189.394 413.673 190.538C409.18 191.606 404.901 193.427 401.016 195.924C397.265 198.605 393.976 201.88 391.277 205.618C388.607 209.209 386.385 212.934 384.253 216.457C380.791 222.923 376.347 228.812 371.08 233.916C367.403 237.269 362.905 239.592 358.042 240.648C356.719 240.907 355.374 241.035 354.025 241.03C353.105 240.918 352.634 240.85 352.634 240.85Z" fill="#455A64"/>
<path d="M350.055 200.794C350.055 200.794 350.84 200.48 352.299 199.987C354.532 199.201 356.841 198.652 359.188 198.348C362.924 197.779 366.741 198.576 369.937 200.592C370.925 201.249 371.772 202.095 372.431 203.081C373.089 204.067 373.546 205.174 373.775 206.337C374.042 207.65 373.977 209.01 373.585 210.292C373.193 211.573 372.487 212.737 371.531 213.675C370.44 214.634 369.054 215.189 367.603 215.246C366.096 215.269 364.613 214.872 363.317 214.102C360.569 212.471 358.523 209.881 357.572 206.831C356.492 203.617 356.344 200.162 357.146 196.867C357.972 193.386 359.862 190.248 362.554 187.891C365.371 185.366 368.913 183.795 372.675 183.403C376.572 183.159 380.479 183.662 384.187 184.884C388.002 186.108 391.902 187.046 395.856 187.689C399.938 188.228 404.072 188.228 408.154 187.689C412.239 187.203 416.227 186.098 419.98 184.413C421.816 183.673 423.472 182.549 424.839 181.117C426.205 179.685 427.249 177.978 427.902 176.109C428.437 174.28 428.475 172.341 428.014 170.492C427.553 168.642 426.608 166.949 425.276 165.585C423.923 164.361 422.237 163.566 420.432 163.298C418.627 163.03 416.783 163.303 415.133 164.081C413.527 164.787 412.212 166.023 411.408 167.582C410.643 169.115 410.361 170.845 410.6 172.541C410.829 174.166 411.402 175.723 412.28 177.108C413.159 178.493 414.323 179.675 415.694 180.575C418.334 182.195 421.371 183.049 424.468 183.044C427.324 183.095 430.168 182.67 432.884 181.787C437.589 180.306 441.864 177.703 445.338 174.202C447.982 171.599 450.16 168.563 451.779 165.226C452.801 163.071 453.59 160.815 454.135 158.493C454.427 156.923 454.629 156.092 454.629 156.092L454.225 158.516C453.727 160.836 452.974 163.094 451.981 165.248C450.397 168.647 448.224 171.739 445.563 174.382C442.08 177.937 437.781 180.587 433.041 182.101C430.287 182.99 427.407 183.43 424.513 183.403C421.348 183.423 418.239 182.56 415.537 180.912C414.112 179.986 412.903 178.766 411.989 177.334C411.076 175.902 410.48 174.291 410.241 172.609C409.976 170.829 410.266 169.011 411.071 167.402C411.923 165.759 413.308 164.453 414.998 163.7C416.728 162.88 418.662 162.591 420.555 162.871C422.449 163.15 424.217 163.986 425.635 165.271C427.022 166.689 428.009 168.45 428.494 170.374C428.979 172.297 428.945 174.315 428.396 176.222C427.722 178.155 426.645 179.922 425.237 181.408C423.829 182.894 422.121 184.063 420.227 184.839C416.428 186.537 412.397 187.656 408.266 188.16C404.139 188.688 399.961 188.688 395.834 188.16C391.866 187.512 387.951 186.574 384.12 185.355C380.461 184.154 376.61 183.644 372.765 183.852C370.156 184.129 367.643 184.989 365.41 186.366C363.177 187.744 361.281 189.604 359.863 191.811C358.444 194.018 357.538 196.515 357.211 199.118C356.885 201.721 357.146 204.365 357.976 206.853C358.899 209.814 360.881 212.33 363.542 213.922C364.775 214.661 366.188 215.049 367.626 215.044C369.001 214.993 370.316 214.47 371.351 213.563C372.26 212.656 372.93 211.537 373.302 210.308C373.674 209.078 373.736 207.776 373.483 206.517C373.032 204.251 371.711 202.253 369.803 200.951C366.656 198.955 362.896 198.158 359.211 198.707C356.875 198.989 354.574 199.508 352.344 200.256L350.055 200.794Z" fill="#455A64"/>
<path d="M316.976 519.139L250.192 957.811L305.666 964.835L383.917 596.918L403.643 967.326L463.762 966.272L453.798 520.171L316.976 519.139Z" fill="#263238"/>
<path d="M402.567 968.449V967.371L383.313 605.446L306.543 966.092L248.915 958.777L316.013 518.129L454.899 519.161L464.908 967.484L402.567 968.449ZM384.614 588.369L404.811 966.182L462.731 965.172L452.812 521.293L317.943 520.373L251.473 956.824L304.77 963.556L384.614 588.369Z" fill="#263238"/>
<path d="M445.899 965.554C445.562 965.554 445.315 877.675 445.315 769.286C445.315 660.897 445.562 572.974 445.899 572.974C446.236 572.974 446.482 660.852 446.482 769.286C446.482 877.72 446.213 965.554 445.899 965.554Z" fill="#455A64"/>
<path d="M293.459 963.96C293.474 963.643 293.519 963.327 293.593 963.018C293.593 962.322 293.885 961.402 294.11 960.235C294.581 957.744 295.276 954.154 296.152 949.576C298.037 940.263 300.64 926.911 304.028 910.417C310.761 877.361 320.298 831.762 331.249 781.494C342.2 731.227 352.501 685.762 360.13 652.931C363.968 636.549 367.087 623.287 369.264 614.041C370.363 609.553 371.239 605.962 371.822 603.494C372.114 602.327 372.361 601.429 372.518 600.756C372.594 600.443 372.691 600.136 372.809 599.836C372.809 599.836 372.809 600.15 372.63 600.778C372.45 601.407 372.316 602.372 372.069 603.539C371.508 606.03 370.722 609.598 369.713 614.153C367.626 623.399 364.641 636.594 360.938 653.11C353.51 686.009 343.345 731.474 332.394 781.741C321.442 832.008 311.77 877.586 304.836 910.574C301.358 927.045 298.553 940.375 296.6 949.666C295.635 954.154 294.872 957.789 294.356 960.28L293.728 963.04C293.669 963.355 293.579 963.664 293.459 963.96Z" fill="#455A64"/>
<path d="M403.643 596.516C402.815 596.737 401.963 596.85 401.107 596.852L394.173 597.346C388.316 597.728 380.214 598.132 371.328 599.007C362.441 599.882 354.43 601.094 348.618 601.857L341.728 602.732C340.886 602.894 340.026 602.946 339.17 602.889C339.975 602.594 340.811 602.391 341.661 602.283C343.254 601.946 345.588 601.52 348.393 601.026C354.183 600.061 362.194 598.782 371.126 597.84C380.057 596.897 388.181 596.695 394.038 596.516C396.978 596.516 399.356 596.404 400.995 596.404C401.879 596.344 402.767 596.382 403.643 596.516Z" fill="#455A64"/>
<path d="M454.965 568.037C454.418 568.278 453.833 568.422 453.237 568.463C451.632 568.696 450.009 568.771 448.39 568.688C443.002 568.4 437.811 566.57 433.434 563.415C429.058 560.259 425.68 555.913 423.705 550.892C423.108 549.385 422.664 547.821 422.381 546.225C422.179 545.103 422.156 544.474 422.246 544.452C422.336 544.429 422.829 546.92 424.49 550.556C426.641 555.303 429.98 559.415 434.185 562.494C438.432 565.501 443.39 567.35 448.569 567.858C452.429 568.261 454.92 567.813 454.965 568.037Z" fill="#455A64"/>
<path d="M305.554 527.757L459.229 527.263L450.814 425.853C449.893 402.649 450.028 399.866 449.445 378.458C449.445 378.458 471.257 404.826 488.424 423.339C493.483 428.779 500.142 432.466 507.438 433.867C514.733 435.267 522.284 434.307 528.997 431.126L618.761 368.494L601.952 325.475L520.38 375.406C516.632 373.162 484.879 327.764 462.932 305.66C448.88 291.512 429.926 283.309 409.994 282.748C393.452 282.361 376.902 283.028 360.444 284.745C348.456 286.029 337.29 291.449 328.865 300.074C320.441 308.699 315.285 319.99 314.284 332.005C312.69 350.968 313.97 372.982 313.97 410.391L305.554 527.757Z" fill="#455A64"/>
<path d="M312.782 342.26C312.782 342.26 312.782 342.686 312.782 343.449C312.782 344.212 312.782 345.491 312.782 346.838C312.782 349.8 312.782 354.064 312.782 359.337C312.782 369.884 313.253 384.426 313.724 400.516C314.196 416.606 314.263 431.193 313.859 441.717C313.679 446.991 313.433 451.255 313.186 454.194C313.186 455.563 312.984 456.685 312.916 457.583C312.849 458.481 312.782 458.75 312.782 458.75C312.782 458.75 312.782 458.346 312.782 457.583C312.782 456.82 312.894 455.541 312.961 454.194C313.163 451.255 313.343 446.991 313.478 441.717C313.792 431.17 313.657 416.606 313.208 400.516C312.759 384.426 312.378 369.884 312.4 359.337C312.4 354.064 312.4 349.8 312.557 346.838C312.557 345.469 312.557 344.369 312.67 343.449C312.782 342.529 312.782 342.26 312.782 342.26Z" fill="#263238"/>
<path d="M517.015 389.925C517.041 389.212 517.147 388.505 517.329 387.815C517.598 386.514 517.98 384.718 518.451 382.766C518.922 380.814 519.349 379.019 519.685 377.762C519.818 377.057 520.036 376.371 520.336 375.72C520.308 376.434 520.195 377.142 520 377.829C519.753 379.131 519.349 380.904 518.9 382.878C518.451 384.853 518.002 386.604 517.666 387.883C517.524 388.585 517.306 389.27 517.015 389.925Z" fill="#263238"/>
<path d="M525.205 391.181C524.346 388.533 523.649 385.835 523.118 383.102C522.426 380.403 521.88 377.669 521.48 374.911C522.326 377.563 523.023 380.26 523.567 382.99C524.258 385.689 524.805 388.423 525.205 391.181Z" fill="#263238"/>
<path d="M453.238 382.25L452.407 381.487L450.051 379.243C448.031 377.268 445.114 374.373 441.613 370.67C437.509 366.366 433.686 361.801 430.168 357.004C425.817 351.131 422.305 344.681 419.734 337.839C417.133 330.983 415.965 323.667 416.3 316.341C416.412 310.359 417.725 304.46 420.16 298.994C421.903 295.339 424.496 292.153 427.722 289.704C428.587 289.046 429.494 288.447 430.438 287.909L431.448 287.348C431.448 287.348 430.056 288.111 427.835 289.839C424.685 292.32 422.158 295.501 420.452 299.129C418.083 304.571 416.816 310.429 416.726 316.364C416.413 323.631 417.589 330.886 420.182 337.682C422.74 344.481 426.213 350.898 430.505 356.757C434.006 361.549 437.798 366.12 441.86 370.446C445.316 374.171 448.188 377.178 450.186 379.131L452.43 381.375C452.991 381.958 453.238 382.25 453.238 382.25Z" fill="#263238"/>
<path d="M353.353 340.533C351.323 338.895 349.546 336.967 348.079 334.811C346.328 332.891 344.861 330.73 343.726 328.393C345.751 330.026 347.528 331.946 348.999 334.093C350.76 336.013 352.227 338.184 353.353 340.533Z" fill="#FAFAFA"/>
<path d="M388.27 380.163C386.143 383.109 383.705 385.817 380.999 388.242C378.564 390.945 375.848 393.382 372.898 395.513C377.462 389.864 382.615 384.719 388.27 380.163Z" fill="#FAFAFA"/>
<path d="M422.066 437.051C421.751 437.051 420.517 433.685 418.228 429.802C415.939 425.92 413.561 423.07 413.74 422.913C416.055 424.522 417.923 426.691 419.171 429.219C420.774 431.547 421.769 434.24 422.066 437.051Z" fill="#FAFAFA"/>
<path d="M334.459 430.609C331.044 423.444 329.648 415.484 330.42 407.585C330.779 407.585 330.869 412.836 332.013 419.164C333.158 425.493 334.908 430.475 334.459 430.609Z" fill="#FAFAFA"/>
<path d="M380.978 455.655C378.182 449.632 377.579 442.821 379.272 436.4C379.609 436.4 379.115 440.776 379.609 446.072C380.103 451.368 381.314 455.542 380.978 455.655Z" fill="#FAFAFA"/>
<path d="M362.576 492.031C358.874 490.418 355.34 488.441 352.029 486.129C348.505 484.152 345.176 481.846 342.088 479.24C345.796 480.855 349.337 482.832 352.657 485.142C356.175 487.117 359.497 489.424 362.576 492.031Z" fill="#FAFAFA"/>
<path d="M434.926 481.282C435.083 481.596 429.877 484.177 423.84 488.014C417.804 491.852 413.203 495.42 412.979 495.151C415.963 491.945 419.413 489.206 423.212 487.027C426.801 484.526 430.752 482.589 434.926 481.282Z" fill="#FAFAFA"/>
<path d="M343.883 522.416C340.097 522.239 336.338 521.683 332.663 520.755C328.88 520.198 325.165 519.251 321.577 517.928C325.365 518.106 329.124 518.67 332.798 519.611C336.578 520.167 340.293 521.107 343.883 522.416Z" fill="#FAFAFA"/>
<path d="M392.446 514.517C388.164 510.364 385.259 504.999 384.12 499.145C384.434 499.145 385.826 502.69 388.137 506.909C390.448 511.128 392.715 514.292 392.446 514.517Z" fill="#FAFAFA"/>
<path d="M447.112 518.309C446.269 520.209 445.082 521.936 443.611 523.404C441.367 526.007 439.482 527.892 439.123 527.757C439.947 525.834 441.136 524.089 442.624 522.618C444.868 520.06 446.775 518.13 447.112 518.309Z" fill="#FAFAFA"/>
<path d="M347.181 364.051C347.361 364.32 345.364 365.981 342.693 367.731C341.177 368.973 339.431 369.903 337.554 370.469C337.375 370.2 339.394 368.539 342.042 366.766C343.556 365.526 345.304 364.603 347.181 364.051Z" fill="#FAFAFA"/>
<path d="M385.062 321.749C383.262 318.071 381.906 314.191 381.023 310.192C379.809 306.292 379.055 302.262 378.779 298.187C380.188 302.007 381.328 305.921 382.19 309.901C383.426 313.777 384.386 317.737 385.062 321.749Z" fill="#FAFAFA"/>
<path d="M421.439 360.258C421.282 360.572 418.006 359.315 413.809 358.53C409.613 357.744 406.09 357.677 406.09 357.318C411.394 356.394 416.852 357.439 421.439 360.258Z" fill="#FAFAFA"/>
<path d="M446.437 327.539C443.649 328.353 440.701 328.453 437.865 327.831C434.973 327.581 432.193 326.601 429.786 324.981C429.921 324.666 433.466 325.99 438.044 326.664C442.622 327.337 446.392 327.202 446.437 327.539Z" fill="#FAFAFA"/>
<path d="M471.998 364.029C471.577 359.899 471.789 355.73 472.627 351.664C473.106 347.536 474.227 343.508 475.948 339.726C476.262 339.726 474.848 345.156 473.704 351.844C472.559 358.531 472.357 364.051 471.998 364.029Z" fill="#FAFAFA"/>
<path d="M502.068 407.024C496.475 402.349 491.403 397.082 486.943 391.315C492.523 396.006 497.593 401.271 502.068 407.024Z" fill="#FAFAFA"/>
<path d="M527.066 403.681C524.747 408.754 521.725 413.475 518.09 417.706C519.086 415.083 520.446 412.613 522.129 410.368C523.453 407.918 525.115 405.667 527.066 403.681Z" fill="#FAFAFA"/>
<path d="M556.084 389.566C554.13 386.897 552.502 384.004 551.237 380.948C549.622 378.054 548.349 374.981 547.444 371.792C549.395 374.471 551.022 377.371 552.291 380.432C553.903 383.32 555.176 386.385 556.084 389.566Z" fill="#FAFAFA"/>
<path d="M595.579 373.229C588.656 372.796 581.805 371.576 575.158 369.594C578.635 369.629 582.097 370.05 585.481 370.85C588.926 371.259 592.314 372.057 595.579 373.229Z" fill="#FAFAFA"/>
<path d="M281.857 415.261C284.254 408.292 287.399 401.603 291.237 395.311C290.212 398.853 288.813 402.276 287.063 405.522C285.676 408.943 283.931 412.207 281.857 415.261Z" fill="#FAFAFA"/>
<path d="M302.793 378.323C300.284 376.36 298.023 374.099 296.061 371.59C293.797 369.338 291.801 366.83 290.114 364.118C292.63 366.072 294.892 368.334 296.846 370.85C299.122 373.092 301.119 375.601 302.793 378.323Z" fill="#FAFAFA"/>
<path d="M301.044 437.633C301.246 437.88 299.698 439.518 297.588 441.291C295.479 443.063 293.571 444.275 293.347 444.028C293.122 443.782 294.716 442.143 296.825 440.393C298.935 438.643 300.842 437.341 301.044 437.633Z" fill="#FAFAFA"/>
<path d="M308.112 339.075C308.382 339.276 307.439 340.87 306.025 342.643C304.612 344.415 303.243 345.672 302.996 345.47C302.749 345.268 303.691 343.675 305.105 341.902C306.519 340.129 307.978 338.873 308.112 339.075Z" fill="#FAFAFA"/>
<g opacity="0.3">
<path d="M425.41 349.262C434.903 379.086 442.219 410.391 451.711 440.215L449.467 378.458C440.236 369.791 432.152 359.98 425.41 349.262Z" fill="black"/>
</g>
<path d="M270.995 388.287C271.073 388.04 271.171 387.8 271.287 387.569L272.184 385.482C272.992 383.686 274.182 381.128 275.708 377.964C278.76 371.636 283.158 362.996 288.454 353.661C293.75 344.325 298.889 336.112 302.749 330.255C304.679 327.315 306.272 324.959 307.394 323.366L308.696 321.525C309.01 321.099 309.167 320.875 309.189 320.897L308.785 321.57L307.551 323.455L303.063 330.434C299.271 336.336 294.087 344.572 288.903 353.885C283.719 363.198 279.164 371.838 276.067 378.099L272.409 385.571C272.027 386.334 271.691 387.008 271.421 387.591C271.304 387.837 271.162 388.071 270.995 388.287Z" fill="#263238"/>
<path d="M286.142 359.72C285.342 360.117 284.518 360.462 283.674 360.752C281.723 361.603 279.86 362.64 278.108 363.849C276.368 365.071 274.752 366.462 273.283 368C272.139 369.19 271.511 369.975 271.466 369.93C271.421 369.885 271.466 369.706 271.825 369.324C272.197 368.784 272.602 368.267 273.037 367.776C274.448 366.142 276.062 364.694 277.839 363.467C279.616 362.234 281.538 361.224 283.561 360.46C284.17 360.223 284.792 360.021 285.424 359.854C285.656 359.777 285.898 359.731 286.142 359.72Z" fill="#263238"/>
<path d="M288.253 313.693C286.331 317.369 284.078 320.862 281.521 324.128C279.24 327.614 276.633 330.875 273.734 333.867C275.665 330.204 277.918 326.719 280.466 323.455C282.751 319.964 285.358 316.696 288.253 313.693Z" fill="#FAFAFA"/>
<path d="M304.455 277.205C305.567 277.402 306.713 277.248 307.734 276.766C308.755 276.284 309.601 275.496 310.155 274.512C311.412 272.627 311.995 270.383 313.095 268.408C316.439 262.551 324.024 259.993 327.076 253.979C327.502 253.126 327.749 251.959 327.076 251.376C326.402 250.792 325.393 251.196 324.607 251.578L304.635 261.586" fill="#FFBE9D"/>
<path d="M304.589 261.585C305.206 261.058 305.893 260.62 306.631 260.283C307.978 259.52 309.975 258.466 312.444 257.164L321.106 252.676L323.642 251.397C324.584 250.725 325.75 250.444 326.895 250.611C327.247 250.746 327.55 250.982 327.766 251.29C327.982 251.598 328.101 251.963 328.107 252.339C328.118 252.961 327.979 253.577 327.703 254.134C327.217 255.123 326.614 256.049 325.908 256.895C323.098 259.735 320.099 262.381 316.932 264.816C315.663 265.927 314.566 267.22 313.678 268.654C312.87 270.023 312.354 271.436 311.725 272.715C311.328 273.797 310.698 274.777 309.88 275.588C309.062 276.398 308.075 277.019 306.99 277.406C306.596 277.563 306.171 277.628 305.747 277.597C305.323 277.566 304.912 277.439 304.544 277.226C305.303 277.253 306.062 277.155 306.789 276.934C307.738 276.502 308.59 275.881 309.292 275.11C309.994 274.338 310.532 273.432 310.873 272.446C311.413 271.016 312.027 269.616 312.713 268.25C313.617 266.696 314.752 265.289 316.079 264.076C319.223 261.628 322.22 258.998 325.055 256.199C325.681 255.424 326.23 254.59 326.693 253.708C327.097 252.878 327.097 252.003 326.693 251.89C326.29 251.778 325.257 252.16 324.449 252.586L321.914 253.843L313.117 258.107C310.603 259.296 308.629 260.351 307.125 260.867C306.322 261.235 305.466 261.477 304.589 261.585Z" fill="#EB996E"/>
<path d="M930.958 878.058H788.908V897.581H930.958V878.058Z" fill="#263238"/>
<path d="M931.181 897.804H788.66V877.81H931.181V897.804ZM789.153 897.378H930.687V878.348H789.153V897.378Z" fill="#263238"/>
<path d="M802.08 891.072L822.524 991.921H898.172L917.92 897.558L802.08 891.072Z" fill="#263238"/>
<path d="M802.08 982.383L812.986 997.374H904.926L917.92 982.383H802.08Z" fill="#455A64"/>
<path d="M854.59 894.012C854.299 894.012 853.94 847.291 853.782 789.663C853.625 732.035 853.782 685.291 854.007 685.291C854.231 685.291 854.635 732.012 854.792 789.663C854.949 847.313 854.86 894.012 854.59 894.012Z" fill="#263238"/>
<path d="M886.232 777.074C886.139 777.451 886.011 777.819 885.851 778.173L884.572 781.18C884.302 781.854 883.988 782.572 883.651 783.424L882.709 786.095C882.372 787.037 881.991 788.047 881.609 789.124C881.228 790.202 880.936 791.368 880.555 792.603C878.867 798.311 877.541 804.12 876.583 809.994C875.467 817.2 874.718 824.458 874.339 831.739C873.82 844.99 874.195 858.26 875.461 871.46C875.932 876.531 876.381 880.638 876.717 883.466C876.874 884.79 876.987 885.867 877.076 886.719C877.106 887.1 877.106 887.483 877.076 887.864C876.93 887.514 876.84 887.143 876.807 886.764C876.672 885.912 876.493 884.834 876.268 883.51C875.797 880.705 875.236 876.599 874.698 871.527C873.274 858.278 872.869 844.939 873.486 831.627C873.842 824.307 874.591 817.01 875.73 809.77C876.737 803.861 878.146 798.028 879.949 792.311C880.33 791.099 880.667 789.932 881.071 788.855L882.238 785.826C882.619 784.883 882.956 784.008 883.27 783.178C883.584 782.347 883.988 781.674 884.28 780.933L885.738 777.994C885.869 777.67 886.035 777.362 886.232 777.074Z" fill="#263238"/>
<path d="M882.597 739.282C882.478 739.807 882.328 740.324 882.148 740.831C881.766 741.908 881.273 743.344 880.667 745.162C880.33 746.127 879.971 747.159 879.59 748.303L878.445 752.074C877.615 754.789 876.65 757.841 875.797 761.319C875.326 763.025 874.855 764.842 874.361 766.705C873.867 768.567 873.486 770.587 873.037 772.629C872.05 776.691 871.331 781.112 870.411 785.712C868.841 795.003 867.472 805.258 866.507 816.075C865.542 826.891 865.228 837.259 865.093 846.684C864.958 856.109 865.093 864.637 865.564 871.683C865.699 875.251 865.923 878.415 866.103 881.288C866.282 884.16 866.439 886.539 866.619 888.536C866.798 890.533 866.888 891.969 866.978 893.024C867.032 893.554 867.032 894.088 866.978 894.617C866.849 894.102 866.767 893.577 866.731 893.047L866.192 888.559C865.946 886.584 865.699 884.07 865.497 881.333C865.295 878.595 864.981 875.296 864.801 871.728C864.33 864.614 864.128 856.019 864.106 846.661C864.083 837.304 864.554 826.846 865.452 816.007C866.35 805.168 867.831 794.846 869.446 785.555C870.389 780.932 871.129 776.579 872.162 772.427C872.655 770.385 873.104 768.41 873.553 766.525C874.002 764.64 874.585 762.845 875.057 761.117C875.954 757.661 876.964 754.587 877.862 751.894L879.073 748.146C879.5 747.024 879.904 745.902 880.24 745.027L881.901 740.763C882.104 740.256 882.336 739.762 882.597 739.282Z" fill="#263238"/>
<path d="M845.593 902.271V901.732C845.593 901.306 845.593 900.79 845.458 900.117C845.346 898.636 845.211 896.571 845.032 893.945C844.695 888.492 844.224 880.728 843.618 871.168C842.384 851.959 840.589 825.411 837.357 796.216C835.719 781.629 833.789 767.761 831.814 755.194C830.737 748.933 829.795 742.964 828.695 737.398C827.595 731.833 826.63 726.672 825.621 721.959C824.611 717.247 823.646 712.983 822.816 709.28C821.985 705.577 821.2 702.368 820.571 699.743C819.943 697.117 819.449 695.255 819.113 693.729C818.956 693.078 818.843 692.562 818.754 692.158C818.664 691.754 818.642 691.619 818.754 691.619C818.826 691.786 818.887 691.959 818.933 692.135C818.933 692.539 819.203 693.033 819.382 693.684C819.786 695.12 820.347 697.117 821.043 699.653C821.738 702.189 822.636 705.42 823.511 709.145C824.386 712.871 825.486 717.089 826.473 721.824C827.461 726.559 828.717 731.676 829.66 737.241C830.602 742.807 831.769 748.776 832.869 755.059C834.911 767.626 836.863 781.495 838.502 796.104C841.733 825.277 843.416 851.914 844.471 871.146C844.987 880.75 845.346 888.537 845.57 893.923C845.57 896.549 845.75 898.636 845.795 900.117C845.795 900.767 845.795 901.306 845.795 901.732C845.765 901.924 845.696 902.107 845.593 902.271Z" fill="#263238"/>
<path d="M853.422 707.753C852.816 701.133 846.129 696.128 839.464 696.061C836.135 696.21 832.885 697.113 829.957 698.703C827.03 700.293 824.502 702.528 822.566 705.239C818.741 710.705 815.978 716.84 814.42 723.327C809.567 738.864 807.865 755.214 809.415 771.417C811.323 787.53 817.853 803.395 829.41 814.773C831.295 816.635 833.741 818.476 836.322 817.937C837.709 817.519 838.962 816.745 839.957 815.693C851.271 805.326 860.24 792.661 866.262 778.546C872.284 764.431 875.221 749.193 874.875 733.851C874.696 727.725 873.888 721.352 870.499 716.258C867.111 711.164 859.279 705.733 853.422 707.775" fill="#2E8F6A"/>
<path d="M803.784 654.727L794.426 671.692C794.202 672.073 793.91 672.522 793.461 672.567C793.012 672.612 792.608 672.141 792.339 671.737C784.081 659.065 775.852 646.394 767.654 633.722L773.354 630.491L803.784 654.727Z" fill="#2E8F6A"/>
<g opacity="0.2">
<path d="M803.784 654.727L794.426 671.692C794.202 672.073 793.91 672.522 793.461 672.567C793.012 672.612 792.608 672.141 792.339 671.737C784.081 659.065 775.852 646.394 767.654 633.722L773.354 630.491L803.784 654.727Z" fill="black"/>
</g>
<path d="M854.009 685.29L769.564 635.449C768.634 635.056 767.893 634.315 767.5 633.384C767.163 632.128 768.106 630.938 769.003 629.996C774.809 623.97 781.845 619.267 789.633 616.207C797.421 613.148 805.777 611.804 814.132 612.268C822.48 612.873 830.557 615.499 837.664 619.921C844.771 624.343 850.697 630.426 854.929 637.648C863.075 652.212 863.344 671.466 854.009 685.29Z" fill="#2E8F6A"/>
<path d="M781.725 619.561C782.083 619.458 782.453 619.405 782.825 619.404C783.566 619.404 784.643 619.247 786.012 619.269C789.944 619.217 793.872 619.525 797.748 620.19C810.609 622.368 822.582 628.17 832.262 636.914C841.941 645.659 848.924 656.984 852.391 669.559C853.441 673.34 854.147 677.208 854.501 681.116C854.543 681.939 854.543 682.763 854.501 683.585C854.444 684.244 854.22 684.877 853.85 685.425C854.111 684.019 854.156 682.581 853.985 681.161C853.496 677.304 852.701 673.492 851.606 669.761C847.362 655.545 838.724 643.039 826.932 634.037C815.139 625.034 800.799 619.998 785.967 619.651C783.251 619.584 781.725 619.651 781.725 619.561Z" fill="#263238"/>
<path d="M842.562 650.889C841.22 651.701 839.789 652.356 838.298 652.841C835.605 653.896 831.858 655.243 827.639 656.589C823.42 657.936 819.583 658.99 816.777 659.664C815.28 660.124 813.738 660.425 812.177 660.561C813.607 659.865 815.113 659.338 816.665 658.99L827.437 655.624L838.141 652.168C839.568 651.594 841.049 651.166 842.562 650.889Z" fill="#263238"/>
<path d="M829.278 615.163C830.027 618.246 830.359 621.416 830.265 624.588C830.509 627.753 830.335 630.937 829.749 634.058C829.329 630.927 829.164 627.768 829.256 624.61C829.014 621.465 829.021 618.306 829.278 615.163Z" fill="#263238"/>
<path d="M768.823 634.507C770.802 633.596 772.85 632.846 774.949 632.263C778.787 631.074 784.128 629.593 790.097 628.156C796.066 626.72 801.474 625.621 805.446 624.925C807.564 624.449 809.719 624.156 811.887 624.05C809.823 624.715 807.716 625.24 805.581 625.621C801.676 626.496 796.268 627.708 790.321 629.121C784.375 630.535 779.101 631.949 775.151 632.959C773.079 633.618 770.965 634.135 768.823 634.507Z" fill="#263238"/>
<path d="M818.371 693.39C811.122 687.87 803.425 686.793 794.337 687.152C785.22 687.739 776.293 690.022 768.014 693.884C753.764 700.123 740.389 709.301 731.884 722.316C723.379 735.332 720.394 752.567 726.767 766.727C727.268 768.211 728.299 769.457 729.662 770.228C731.239 770.693 732.931 770.565 734.42 769.868C750.622 764.595 766.937 759.254 781.815 750.973C796.693 742.693 810.27 731.203 818.259 716.168C820.309 712.616 821.615 708.684 822.096 704.611C822.311 702.583 822.09 700.533 821.448 698.597C820.805 696.662 819.756 694.887 818.371 693.39Z" fill="#2E8F6A"/>
<path d="M818.527 691.686C818.147 691.865 817.758 692.022 817.36 692.157L813.972 693.324L811.503 694.132L808.631 695.254C806.589 696.084 804.143 696.915 801.697 698.127L797.725 699.944C796.356 700.573 794.987 701.358 793.528 702.188C790.588 703.625 787.626 705.465 784.552 707.35C770.964 715.742 758.886 726.363 748.826 738.767C746.582 741.684 744.338 744.377 742.543 747.115C741.623 748.461 740.68 749.718 739.872 751.02C739.064 752.321 738.301 753.533 737.628 754.722C736.102 756.966 734.958 759.21 733.88 761.23C733.364 762.195 732.848 763.093 732.399 763.945L731.277 766.19C730.627 767.491 730.11 768.568 729.706 769.399C729.522 769.779 729.312 770.146 729.078 770.498C729.179 770.088 729.322 769.689 729.505 769.309C729.879 768.456 730.35 767.356 730.918 766.01C731.255 765.292 731.592 764.484 731.973 763.631C732.355 762.778 732.871 761.858 733.387 760.871C734.419 758.919 735.519 756.63 737 754.273L739.244 750.503C740.029 749.202 740.972 747.923 741.892 746.554C743.665 743.771 745.864 741.033 748.108 738.094C753.183 731.874 758.735 726.059 764.714 720.702C770.779 715.443 777.255 710.678 784.081 706.452C787.267 704.59 790.274 702.772 793.259 701.358C794.717 700.617 796.109 699.855 797.5 699.226L801.517 697.476C804.075 696.286 806.476 695.501 808.541 694.738C809.596 694.357 810.561 693.975 811.458 693.683L813.949 692.943L817.405 691.955C817.769 691.827 818.145 691.736 818.527 691.686Z" fill="#263238"/>
<path d="M761.776 722.34C755.996 724.551 750.1 726.446 744.115 728.017C738.224 729.93 732.23 731.511 726.162 732.752C731.941 730.531 737.836 728.628 743.823 727.052C749.718 725.159 755.711 723.586 761.776 722.34Z" fill="#263238"/>
<path d="M761.057 761.387C760.752 759.571 760.624 757.729 760.676 755.889C760.564 752.478 760.564 747.788 760.676 742.581C760.788 737.375 761.102 732.685 761.394 729.296C761.441 727.452 761.674 725.618 762.089 723.821C762.24 725.658 762.24 727.504 762.089 729.341C761.955 733.066 761.82 737.599 761.663 742.604C761.506 747.608 761.439 752.164 761.326 755.889C761.388 757.726 761.297 759.564 761.057 761.387Z" fill="#263238"/>
<path d="M794.449 744.376C794.179 744.376 793.282 734.839 792.474 723.035C791.666 711.231 791.217 701.626 791.486 701.604C791.756 701.582 792.653 711.141 793.484 722.968C794.314 734.794 794.74 744.354 794.449 744.376Z" fill="#263238"/>
<path d="M752.887 700.684C754.763 700.455 756.656 700.394 758.543 700.505C762.043 700.505 766.846 700.639 772.164 700.819C777.483 700.999 782.307 701.201 785.808 701.402C787.7 701.4 789.587 701.588 791.441 701.963C789.564 702.177 787.672 702.23 785.786 702.121C782.285 702.121 777.46 702.008 772.142 701.829C766.823 701.649 761.998 701.425 758.52 701.223C756.63 701.214 754.745 701.034 752.887 700.684Z" fill="#263238"/>
<path d="M833.094 816.995C833.01 816.628 832.972 816.251 832.982 815.873C832.982 815.021 832.982 813.944 832.825 812.62C832.69 809.792 832.668 805.708 832.825 800.659C832.982 795.609 833.251 789.595 833.857 782.953C834.463 776.31 835.473 769.017 836.842 761.41C838.21 753.802 839.916 746.644 841.644 740.181C843.372 733.718 845.212 727.995 846.917 723.215C848.623 718.435 850.059 714.621 851.181 711.995L852.46 708.988C852.587 708.623 852.761 708.276 852.976 707.956C852.902 708.333 852.789 708.701 852.64 709.055L851.54 712.13C850.53 714.755 849.184 718.615 847.591 723.35C845.997 728.085 844.269 733.897 842.541 740.338C840.814 746.778 839.22 753.937 837.829 761.499C836.438 769.062 835.585 776.333 834.799 782.953C834.014 789.573 833.722 795.564 833.543 800.591C833.363 805.618 833.094 809.859 833.094 812.62C833.094 813.944 833.094 815.021 833.094 815.873C833.133 816.246 833.133 816.622 833.094 816.995Z" fill="#263238"/>
<path d="M837.581 761.702C836.614 763.069 835.483 764.313 834.214 765.405C831.97 767.649 828.941 770.499 825.395 773.618C821.85 776.737 818.663 779.408 816.105 781.293C814.848 782.395 813.47 783.351 811.998 784.143C813.103 782.889 814.328 781.746 815.656 780.732L824.632 772.855L833.609 764.889C834.836 763.711 836.165 762.645 837.581 761.702Z" fill="#263238"/>
<path d="M864.241 783.245C862.905 781.689 861.704 780.022 860.65 778.263L852.302 766.1C849.071 761.499 846.131 757.37 843.775 754.027C842.512 752.416 841.372 750.713 840.364 748.933C841.82 750.377 843.156 751.938 844.358 753.6C846.602 756.585 849.834 760.759 853.132 765.516C856.431 770.274 859.259 774.65 861.234 777.881C862.385 779.581 863.391 781.375 864.241 783.245Z" fill="#263238"/>
<path d="M850.236 715.609C850.371 715.856 841.506 721.825 830.398 729.073C819.29 736.322 810.201 741.82 810.022 741.573C809.842 741.326 818.751 735.357 829.837 728.108C840.923 720.86 850.079 715.295 850.236 715.609Z" fill="#263238"/>
<path d="M875.26 742.537C866.086 734.507 857.358 725.982 849.116 716.999C853.822 720.893 858.316 725.036 862.581 729.409C867.05 733.543 871.283 737.926 875.26 742.537Z" fill="#263238"/>
<path d="M881.564 741.999L889.172 741.37C894.583 740.931 899.836 739.323 904.566 736.658C906.876 735.301 909.275 734.101 911.747 733.067C921.172 729.275 931.697 729.948 941.818 729.432C958.43 728.594 974.706 724.435 989.684 717.202C990.555 716.8 991.283 716.143 991.771 715.317C993.319 712.467 990.425 709.931 987.911 708.382C975.075 700.461 962.014 692.449 947.518 688.522C933.021 684.595 916.415 685.268 903.983 693.818C889.396 703.849 884.1 724.472 881.542 741.999" fill="#2E8F6A"/>
<path d="M991.927 714.373C991.482 714.214 991.053 714.011 990.648 713.767L987.035 711.882C983.894 710.244 979.383 707.798 973.571 705.15C966.937 701.898 960.028 699.239 952.925 697.206C944.237 694.696 935.138 693.934 926.153 694.961C917.159 695.967 908.663 699.614 901.738 705.441C896.329 710.501 892.008 716.61 889.036 723.394C886.965 727.936 885.122 732.58 883.516 737.307C882.932 738.901 882.484 740.18 882.147 741.145C882.016 741.604 881.836 742.048 881.608 742.469C881.688 741.998 881.801 741.533 881.945 741.077C882.259 740.09 882.641 738.833 883.134 737.173C884.595 732.379 886.349 727.68 888.386 723.102C891.318 716.2 895.659 709.986 901.132 704.858C908.162 698.853 916.831 695.094 926.019 694.064C935.129 692.974 944.365 693.737 953.172 696.308C960.319 698.389 967.254 701.139 973.885 704.521C979.562 707.349 984.028 709.862 987.103 711.635L990.626 713.677C991.08 713.868 991.516 714.101 991.927 714.373Z" fill="#263238"/>
<path d="M973.639 724.202C973.482 724.449 963.496 717.986 951.378 709.818C939.26 701.649 929.521 694.805 929.678 694.558C929.835 694.311 939.798 700.774 951.939 708.965C964.079 717.156 973.796 723.978 973.639 724.202Z" fill="#263238"/>
<path d="M963.001 694.042C960.656 694.838 958.205 695.277 955.73 695.343C953.282 695.711 950.794 695.711 948.347 695.343C950.762 694.907 953.208 694.659 955.662 694.603C958.09 694.22 960.543 694.032 963.001 694.042Z" fill="#263238"/>
<path d="M919.357 688.364C918.547 690.228 917.44 691.948 916.081 693.458C914.94 695.221 913.549 696.809 911.951 698.171C912.769 696.338 913.875 694.649 915.228 693.167C916.363 691.374 917.754 689.756 919.357 688.364Z" fill="#263238"/>
<path d="M928.287 730.081C926.602 729.379 924.993 728.507 923.484 727.478C920.612 725.728 916.752 723.17 912.556 720.163C908.359 717.155 904.746 714.283 902.098 712.196C900.619 711.139 899.238 709.952 897.969 708.65C899.556 709.492 901.059 710.484 902.457 711.613L913.094 719.332C917.223 722.339 921.038 724.987 923.821 726.872C925.394 727.819 926.888 728.893 928.287 730.081Z" fill="#263238"/>
<path d="M892.785 774.379C885.515 772.472 876.852 779.54 875.349 786.901C873.845 794.262 876.606 801.802 879.837 808.601C886.747 823.844 897.029 837.319 909.908 848.007C922.884 858.679 939.091 864.643 955.889 864.928C952.815 850.655 956.697 835.755 954.991 821.235C953.477 808.459 947.675 796.573 938.532 787.52C929.39 778.467 917.448 772.783 904.657 771.394C900.011 770.901 894.626 770.16 892.785 774.446" fill="#2E8F6A"/>
<path d="M955.889 864.861C955.525 864.74 955.179 864.574 954.856 864.367C953.884 863.856 952.967 863.247 952.119 862.549C949.074 859.895 946.633 856.62 944.96 852.945C943.793 850.701 942.492 848.255 941.235 845.562L937.308 836.899C935.912 833.716 934.307 830.627 932.505 827.654C930.531 824.503 928.326 821.503 925.908 818.678C920.926 812.821 915.585 807.771 910.94 802.969C906.759 798.751 902.952 794.178 899.562 789.303C897.283 785.992 895.407 782.421 893.975 778.666C893.526 777.319 893.189 776.287 893.01 775.546C892.882 775.185 892.807 774.807 892.785 774.424C892.785 774.424 893.279 775.905 894.356 778.531C895.905 782.186 897.846 785.663 900.146 788.899C903.594 793.692 907.43 798.195 911.613 802.363C916.258 807.143 921.644 812.192 926.671 818.072C929.147 820.938 931.398 823.992 933.403 827.205C935.198 830.229 936.801 833.362 938.205 836.585L942.043 845.27C943.254 847.963 944.511 850.431 945.633 852.698C947.198 856.332 949.489 859.608 952.365 862.325C954.497 864.075 955.934 864.771 955.889 864.861Z" fill="#263238"/>
<path d="M918.366 852.991C918.427 851.342 918.652 849.703 919.039 848.099C919.623 845.114 920.543 841.007 921.8 836.519C923.056 832.031 924.425 828.059 925.502 825.299C925.998 823.736 926.66 822.231 927.477 820.811C927.193 822.434 926.757 824.026 926.176 825.568C925.278 828.463 924.044 832.48 922.787 836.923C921.53 841.366 920.543 845.451 919.735 848.39C919.435 849.966 918.976 851.507 918.366 852.991Z" fill="#263238"/>
<path d="M954.497 817.961C952.76 817.713 951.048 817.315 949.38 816.772C946.261 815.964 941.93 814.842 937.105 813.765C932.28 812.687 927.904 811.835 924.718 811.229C922.98 811.007 921.268 810.624 919.601 810.084C921.354 810.065 923.104 810.207 924.83 810.511C928.062 810.937 932.505 811.678 937.33 812.755C942.154 813.832 946.485 814.999 949.582 816.076C951.287 816.514 952.936 817.147 954.497 817.961Z" fill="#263238"/>
<path d="M891.305 828.127C891.389 826.221 891.652 824.328 892.09 822.472C892.741 818.993 893.751 814.236 895.12 809.007C896.489 803.779 897.925 799.111 899.047 795.79C899.58 793.95 900.279 792.163 901.134 790.449C900.826 792.332 900.361 794.186 899.742 795.992C898.777 799.38 897.498 804.048 896.085 809.254C894.671 814.46 893.616 819.173 892.786 822.606C892.461 824.488 891.965 826.336 891.305 828.127Z" fill="#263238"/>
<path d="M937.823 787.419C937.823 787.688 928.712 786.97 917.627 785.781C906.541 784.591 897.43 783.402 897.43 783.133C897.43 782.863 906.541 783.581 917.627 784.771C928.712 785.96 937.846 787.15 937.823 787.419Z" fill="#263238"/>
<path d="M931.181 897.491C931.181 897.76 899.27 897.984 859.932 897.984C820.593 897.984 788.66 897.76 788.66 897.491C788.66 897.221 820.57 896.975 859.932 896.975C899.293 896.975 931.181 897.199 931.181 897.491Z" fill="#455A64"/>
<path d="M908.987 938.534C908.987 938.826 887.489 939.05 860.964 939.05C834.439 939.05 812.963 938.826 812.963 938.534C812.963 938.242 834.461 938.041 860.964 938.041C887.466 938.041 908.987 938.265 908.987 938.534Z" fill="#455A64"/>
<path d="M908.134 944.503C908.134 944.773 887.018 944.997 861.009 944.997C835 944.997 813.883 944.773 813.883 944.503C813.883 944.234 835 943.987 861.009 943.987C887.018 943.987 908.134 944.122 908.134 944.503Z" fill="#455A64"/>
<path d="M909.818 933.71C909.818 933.979 887.579 934.204 860.157 934.204C832.734 934.204 810.495 933.979 810.495 933.71C810.495 933.441 832.734 933.194 860.157 933.194C887.579 933.194 909.818 933.418 909.818 933.71Z" fill="#455A64"/>
<path d="M900.414 69.0212C900.414 69.3578 885.356 69.5374 866.753 69.4476C848.149 69.3578 833.091 68.9988 833.091 68.6846C833.091 68.3704 848.149 68.1685 866.753 68.2582C885.356 68.348 900.414 68.7071 900.414 69.0212Z" fill="#263238"/>
<path d="M867 102.481C866.686 102.481 866.282 87.4453 866.08 68.8194C865.878 50.1935 866.08 35.1582 866.327 35.1582C866.574 35.1582 867.068 50.1935 867.247 68.8194C867.427 87.4453 867.337 102.481 867 102.481Z" fill="#263238"/>
<path d="M935.782 571.269C928.737 568.331 921.846 565.035 915.136 561.395C908.219 558.097 901.477 554.442 894.939 550.444C895.074 550.175 904.32 554.596 915.585 560.341C926.85 566.086 935.939 571 935.782 571.269Z" fill="#263238"/>
<path d="M905.306 581.412C908.134 574.314 911.332 567.371 914.888 560.609C918.077 553.699 921.62 546.958 925.502 540.412C922.664 547.505 919.466 554.448 915.92 561.215C912.725 568.122 909.183 574.863 905.306 581.412Z" fill="#263238"/>
<path d="M130.246 413.263C130.246 413.577 119.609 418.133 106.257 423.451C92.9045 428.77 81.9534 432.854 81.8412 432.562C81.729 432.271 92.4557 427.693 105.83 422.374C119.205 417.056 130.111 412.972 130.246 413.263Z" fill="#263238"/>
<path d="M105.472 398.676C105.472 398.676 105.09 398.026 104.282 396.993C103.138 395.564 101.565 394.541 99.7943 394.076C98.3716 393.697 96.8715 393.72 95.4614 394.144C94.0512 394.567 92.7866 395.374 91.8086 396.475C90.8306 397.576 90.1778 398.927 89.923 400.377C89.6681 401.827 89.8213 403.319 90.3655 404.688C90.9096 406.056 91.8233 407.246 93.0045 408.125C94.1857 409.004 95.588 409.537 97.0548 409.666C98.5216 409.794 99.9952 409.512 101.311 408.851C102.627 408.191 103.733 407.178 104.507 405.925C105.485 404.366 105.926 402.529 105.764 400.696C105.764 399.394 105.382 398.699 105.472 398.654C105.882 399.247 106.137 399.934 106.212 400.651C106.573 402.608 106.223 404.63 105.225 406.351C104.487 407.659 103.428 408.757 102.148 409.542C100.868 410.328 99.4094 410.774 97.9092 410.839C96.0582 410.907 94.2314 410.401 92.6794 409.39C91.1273 408.379 89.926 406.913 89.2402 405.193C88.5544 403.472 88.4177 401.581 88.8488 399.78C89.2799 397.978 90.2578 396.354 91.6483 395.131C92.7707 394.143 94.1261 393.458 95.5868 393.14C97.0474 392.822 98.565 392.882 99.9962 393.313C101.906 393.865 103.554 395.083 104.641 396.746C105.067 397.315 105.352 397.976 105.472 398.676Z" fill="#263238"/>
<path d="M122.301 440.888C122.189 440.888 121.92 440.237 121.112 439.204C119.975 437.768 118.398 436.744 116.624 436.287C115.335 435.957 113.985 435.95 112.693 436.267C111.401 436.584 110.208 437.216 109.218 438.105C108.017 439.189 107.177 440.614 106.81 442.19C106.443 443.765 106.567 445.415 107.166 446.918C107.764 448.421 108.809 449.705 110.159 450.597C111.509 451.488 113.099 451.945 114.716 451.906C116.062 451.893 117.384 451.544 118.56 450.889C119.736 450.235 120.729 449.296 121.449 448.158C122.416 446.595 122.857 444.762 122.705 442.93C122.705 441.628 122.301 440.932 122.414 440.888C122.821 441.474 123.076 442.153 123.154 442.862C123.508 444.829 123.15 446.858 122.144 448.585C121.412 449.892 120.357 450.991 119.081 451.776C117.804 452.562 116.348 453.008 114.851 453.073C113 453.141 111.173 452.635 109.621 451.624C108.069 450.613 106.868 449.147 106.182 447.426C105.496 445.705 105.36 443.815 105.791 442.013C106.222 440.212 107.2 438.588 108.59 437.364C109.719 436.388 111.073 435.708 112.531 435.387C113.989 435.065 115.503 435.113 116.938 435.524C118.843 436.097 120.487 437.32 121.583 438.98C121.973 439.549 122.219 440.203 122.301 440.888Z" fill="#263238"/>
<path d="M255.714 179.992C255.714 179.992 255.961 180.597 256.387 181.764C256.814 182.931 257.442 184.704 258.25 186.948C259.866 191.436 262.244 198.169 265.274 206.876L265.431 207.28H264.982L236.168 203.285H236.46C226.407 211.182 214.504 216.38 201.879 218.388C198.323 218.958 194.73 219.265 191.13 219.308C189.289 219.308 187.427 219.151 185.542 219.106L182.737 218.971C181.794 218.971 180.852 218.702 179.909 218.567C172.024 217.606 164.355 215.33 157.221 211.835C149.607 208.146 142.654 203.226 136.643 197.271C128.695 189.335 122.617 179.726 118.852 169.144C115.087 158.562 113.731 147.273 114.881 136.1C116.031 124.927 119.659 114.152 125.501 104.559C131.342 94.9655 139.251 86.7963 148.649 80.6461C155.362 76.2334 162.754 72.951 170.529 70.9293L173.379 70.1887L174.793 69.8297L176.229 69.6053L181.974 68.7525C183.881 68.573 185.789 68.5281 187.696 68.4159C189.579 68.2813 191.469 68.2813 193.351 68.4159C195.214 68.573 197.099 68.4159 198.916 68.8198L204.37 69.6726C206.165 69.9643 207.915 70.5253 209.666 70.9517L212.269 71.6249C213.121 71.8942 213.952 72.2308 214.782 72.5226C233.229 78.919 248.454 92.2595 257.218 109.707C261.792 118.799 264.479 128.722 265.117 138.88C265.969 151.45 263.557 164.028 258.115 175.391C257.375 176.895 256.791 178.017 256.387 178.735C255.983 179.453 255.714 179.857 255.714 179.857C255.714 179.857 255.871 179.475 256.253 178.712C256.634 177.949 257.218 176.805 257.891 175.301C259.895 170.907 261.474 166.331 262.603 161.635C264.427 154.212 265.049 146.545 264.444 138.925C263.503 124.301 258.262 110.281 249.378 98.6263C240.495 86.9718 228.365 78.2025 214.513 73.4202C213.683 73.1285 212.875 72.8143 212.022 72.545L209.464 71.8718C207.736 71.4678 206.008 70.9068 204.235 70.6375L198.849 69.8072C197.054 69.493 195.214 69.5604 193.351 69.4257C191.499 69.2798 189.638 69.2798 187.786 69.4257C185.923 69.4257 184.038 69.5828 182.153 69.7399L176.498 70.6151L175.084 70.8395L173.671 71.1985L170.865 71.9167C163.214 73.9159 155.943 77.1608 149.345 81.5213C138.305 88.7072 129.375 98.6993 123.47 110.474C117.565 122.248 114.897 135.381 115.74 148.526C116.582 161.671 120.906 174.355 128.266 185.279C135.626 196.203 145.759 204.973 157.625 210.691C164.675 214.177 172.261 216.453 180.066 217.423C180.986 217.557 181.906 217.737 182.849 217.827L185.632 217.961C187.494 217.961 189.312 218.231 191.13 218.186C194.685 218.159 198.233 217.867 201.744 217.311C214.238 215.388 226.033 210.306 236.011 202.545H236.146H236.168L265.027 206.674L264.735 207.01C261.796 198.326 259.529 191.571 258.003 186.814L256.275 181.63C255.871 180.597 255.714 179.992 255.714 179.992Z" fill="#263238"/>
<path d="M193.889 126.358C194.399 126.606 194.829 126.992 195.131 127.472C195.432 127.952 195.593 128.507 195.595 129.074V144.019C195.591 144.481 195.481 144.936 195.273 145.348C195.065 145.76 194.765 146.119 194.396 146.397C194.027 146.675 193.599 146.864 193.146 146.95C192.692 147.036 192.224 147.016 191.78 146.892C190.547 146.577 189.264 146.514 188.007 146.706C186.75 146.899 185.545 147.344 184.464 148.014C183.473 148.59 182.609 149.36 181.923 150.277C181.237 151.195 180.742 152.241 180.469 153.354C180.281 154.49 180.318 155.651 180.58 156.772C180.842 157.893 181.323 158.951 181.995 159.885C182.705 160.938 183.615 161.841 184.674 162.542C185.733 163.243 186.92 163.728 188.167 163.969C190.699 164.222 193.242 163.607 195.379 162.225C197.515 160.843 199.119 158.775 199.926 156.362C200.2 155.645 200.738 155.06 201.429 154.726C202.121 154.393 202.913 154.337 203.645 154.569C204.376 154.802 204.991 155.305 205.364 155.976C205.736 156.647 205.838 157.436 205.648 158.179C204.394 161.954 201.877 165.181 198.52 167.315C195.164 169.449 191.174 170.36 187.224 169.893C185.174 169.53 183.218 168.759 181.472 167.626C179.726 166.492 178.225 165.02 177.058 163.296C175.914 161.688 175.105 159.865 174.681 157.937C174.257 156.009 174.226 154.015 174.59 152.075C175.029 150.162 175.852 148.358 177.01 146.773C178.167 145.188 179.634 143.854 181.322 142.852C183.814 141.354 186.673 140.577 189.58 140.608V129.074C189.58 128.28 189.894 127.518 190.453 126.955C191.012 126.392 191.771 126.072 192.565 126.066C193.023 126.064 193.475 126.164 193.889 126.358Z" fill="#5EBBFF"/>
<path d="M189.759 120.075C189.746 119.586 189.878 119.104 190.14 118.691C190.401 118.277 190.779 117.95 191.226 117.752C191.673 117.553 192.169 117.492 192.651 117.576C193.132 117.66 193.579 117.885 193.932 118.223C194.286 118.561 194.531 118.996 194.637 119.474C194.743 119.951 194.704 120.45 194.527 120.905C194.349 121.361 194.04 121.754 193.638 122.033C193.237 122.313 192.762 122.467 192.273 122.476C191.624 122.482 190.998 122.235 190.528 121.786C190.059 121.338 189.783 120.724 189.759 120.075Z" fill="#5EBBFF"/>
</svg>
