<svg width="19" height="26" viewBox="0 0 19 26" fill="none" xmlns="http://www.w3.org/2000/svg">
<g id="Group 632595">
<path id="Vector" d="M18.2892 25.5C18.279 25.5 18.2638 25.5 18.2536 25.5L1.28824 24.0285C1.06421 24.0082 0.901274 23.8147 0.921641 23.5907C0.942007 23.3666 1.13549 23.2037 1.35952 23.2241L17.887 24.6599V4.89418L1.3137 3.46343C1.08966 3.44815 0.926732 3.25467 0.942007 3.03064C0.957282 2.80661 1.15076 2.64368 1.3748 2.65895C1.37989 2.65895 1.37989 2.65895 1.38498 2.65895L18.3299 4.12534C18.5387 4.14571 18.6965 4.31882 18.6965 4.52758V25.0978C18.6965 25.3167 18.5132 25.5 18.2892 25.5Z" fill="#41CC97"/>
<path id="Vector_2" d="M14.4653 6.53357C12.7494 6.53357 11.3594 7.92359 11.3594 9.63947V14.1201C11.3594 14.3441 11.5427 14.5223 11.7616 14.5223H12.4184V16.9612C12.4184 17.1853 12.5966 17.3635 12.8207 17.3635C13.0447 17.3635 13.2229 17.1853 13.2229 16.9612V14.1201C13.2229 13.8961 13.0447 13.7179 12.8207 13.7179H12.1639V9.63947C12.1639 8.52949 12.9632 7.57736 14.0579 7.37878V16.9612C14.0579 17.1853 14.2362 17.3635 14.4602 17.3635C14.6842 17.3635 14.8624 17.1853 14.8624 16.9612V6.9409C14.8624 6.9409 14.8624 6.9409 14.8624 6.93581C14.8675 6.71687 14.6893 6.53357 14.4653 6.53357Z" fill="#41CC97"/>
<path id="Vector_3" d="M7.0624 9.69552C6.83836 9.69552 6.66016 9.51731 6.66016 9.29328V6.90021C6.67034 6.67618 6.85364 6.50306 7.07767 6.51324C7.29152 6.51834 7.45954 6.69145 7.46464 6.90021V9.29328C7.46973 9.51731 7.28643 9.69552 7.0624 9.69552Z" fill="#41CC97"/>
<path id="Vector_4" d="M6.25789 17.3635C6.03386 17.3635 5.85565 17.1853 5.85565 16.9612V12.8829L4.80678 11.1364C4.76604 11.0651 4.74568 10.9837 4.75077 10.9022L5.0359 6.86963C5.05118 6.6456 5.24466 6.48266 5.46869 6.49794C5.68763 6.51321 5.85565 6.7067 5.84038 6.92564L5.56543 10.8309L6.60922 12.5621C6.64486 12.6232 6.66522 12.6945 6.66522 12.7708V16.9612C6.66013 17.1853 6.48193 17.3635 6.25789 17.3635Z" fill="#41CC97"/>
<path id="Vector_5" d="M7.87099 17.3635C7.64696 17.3635 7.46875 17.1853 7.46875 16.9612V12.7708C7.46875 12.6995 7.48912 12.6231 7.52476 12.5621L8.56854 10.8309L8.29359 6.92561C8.27832 6.70158 8.44634 6.51319 8.67038 6.49791C8.88932 6.48264 9.0828 6.65066 9.09807 6.8696L9.3832 10.9022C9.3883 10.9836 9.36793 11.0651 9.3272 11.1364L8.27832 12.8828V16.9612C8.27323 17.1853 8.09502 17.3635 7.87099 17.3635Z" fill="#41CC97"/>
<path id="Vector_6" d="M15.2482 20.4492C15.2381 20.4492 15.2228 20.4492 15.2126 20.4492L4.32159 19.5073C4.10265 19.4767 3.9499 19.268 3.98045 19.049C4.011 18.8505 4.18412 18.7028 4.38778 18.7079L15.2788 19.6498C15.5028 19.6702 15.6658 19.8637 15.6454 20.0877C15.6352 20.2914 15.457 20.4492 15.2482 20.4492Z" fill="#41CC97"/>
<path id="Vector_7" d="M15.2493 22.4654H15.2137L4.32776 21.5235C4.10373 21.5082 3.94079 21.3147 3.95607 21.0907C3.97134 20.8667 4.16483 20.7037 4.38886 20.719C4.39395 20.719 4.39395 20.719 4.39904 20.719L15.2901 21.661C15.5141 21.6813 15.677 21.8748 15.6566 22.0988C15.6363 22.3076 15.4581 22.4654 15.2493 22.4654Z" fill="#41CC97"/>
<path id="Vector_8" d="M1.31826 24.0336C1.09422 24.0336 0.916016 23.8554 0.916016 23.6314V3.06117C0.916016 2.86259 1.06367 2.69457 1.25716 2.66402L15.2897 0.505166C15.5086 0.469524 15.7174 0.622273 15.748 0.841214C15.753 0.86158 15.753 0.881947 15.753 0.902313V2.64874C15.753 2.87278 15.5748 3.05098 15.3508 3.05098C15.1268 3.05098 14.9486 2.87278 14.9486 2.64874V1.37584L1.72559 3.40231V23.6263C1.72559 23.8503 1.54229 24.0336 1.31826 24.0336Z" fill="#41CC97"/>
</g>
</svg>
