<svg width="334" height="59" viewBox="0 0 334 59" fill="none" xmlns="http://www.w3.org/2000/svg">
<path d="M0 8C0 3.58172 3.58172 0 8 0H50.7459V59H8C3.58172 59 0 55.4183 0 51V8Z" fill="#EA1015"/>
<rect x="50.7461" width="46.1326" height="59" fill="#FFA500"/>
<rect x="50.7461" width="46.1326" height="59" fill="#FFA500"/>
<rect x="96.8789" width="46.1326" height="59" fill="#DAFF00"/>
<rect x="96.8789" width="46.1326" height="59" fill="#DAFF00"/>
<rect x="143.012" width="46.1326" height="59" fill="#5AFF00"/>
<rect x="189.145" width="46.1326" height="59" fill="#DAFF00"/>
<rect x="189.145" width="46.1326" height="59" fill="#DAFF00"/>
<rect x="235.277" width="46.1326" height="59" fill="#FFA500"/>
<rect x="235.277" width="46.1326" height="59" fill="#FFA500"/>
<path d="M281.41 0H326.001C330.42 0 334.001 3.58172 334.001 8V51C334.001 55.4183 330.42 59 326.001 59H281.41V0Z" fill="#EA1015"/>
<line x1="9" y1="27.5" x2="325" y2="27.5" stroke="#B6BAB9"/>
<path d="M15.3302 45.1193C14.8302 45.1193 14.3799 45.0199 13.9793 44.821C13.5788 44.6222 13.2577 44.3494 13.0163 44.0028C12.7748 43.6562 12.6427 43.2614 12.62 42.8182H13.6427C13.6825 43.2131 13.8614 43.5398 14.1796 43.7983C14.5006 44.054 14.8842 44.1818 15.3302 44.1818C15.6881 44.1818 16.0063 44.098 16.2847 43.9304C16.566 43.7628 16.7861 43.5327 16.9452 43.2401C17.1072 42.9446 17.1881 42.6108 17.1881 42.2386C17.1881 41.858 17.1043 41.5185 16.9367 41.2202C16.7719 40.919 16.5447 40.6818 16.2549 40.5085C15.9651 40.3352 15.6342 40.2472 15.262 40.2443C14.995 40.2415 14.7208 40.2827 14.4396 40.3679C14.1583 40.4503 13.9268 40.5568 13.745 40.6875L12.7563 40.5682L13.2847 36.2727H17.8188V37.2102H14.1711L13.8643 39.7841H13.9154C14.0944 39.642 14.3188 39.5241 14.5887 39.4304C14.8586 39.3366 15.1398 39.2898 15.4325 39.2898C15.9665 39.2898 16.4424 39.4176 16.86 39.6733C17.2805 39.9261 17.61 40.2727 17.8486 40.7131C18.0901 41.1534 18.2109 41.6562 18.2109 42.2216C18.2109 42.7784 18.0859 43.2756 17.8359 43.7131C17.5887 44.1477 17.2478 44.4915 16.8131 44.7443C16.3785 44.9943 15.8842 45.1193 15.3302 45.1193ZM20.5256 45.0682C20.3153 45.0682 20.1349 44.9929 19.9844 44.8423C19.8338 44.6918 19.7585 44.5114 19.7585 44.3011C19.7585 44.0909 19.8338 43.9105 19.9844 43.7599C20.1349 43.6094 20.3153 43.5341 20.5256 43.5341C20.7358 43.5341 20.9162 43.6094 21.0668 43.7599C21.2173 43.9105 21.2926 44.0909 21.2926 44.3011C21.2926 44.4403 21.2571 44.5682 21.1861 44.6847C21.1179 44.8011 21.0256 44.8949 20.9091 44.9659C20.7955 45.0341 20.6676 45.0682 20.5256 45.0682ZM25.901 45.1193C25.3385 45.1193 24.8371 45.0227 24.3967 44.8295C23.9592 44.6364 23.6112 44.3679 23.3527 44.0241C23.097 43.6776 22.9578 43.2756 22.9351 42.8182H24.0089C24.0317 43.0994 24.1283 43.3423 24.2987 43.5469C24.4692 43.7486 24.6922 43.9048 24.9678 44.0156C25.2433 44.1264 25.5487 44.1818 25.8839 44.1818C26.2589 44.1818 26.5913 44.1165 26.8811 43.9858C27.1709 43.8551 27.3982 43.6733 27.5629 43.4403C27.7277 43.2074 27.8101 42.9375 27.8101 42.6307C27.8101 42.3097 27.7305 42.027 27.5714 41.7827C27.4124 41.5355 27.1794 41.3423 26.8726 41.2031C26.5658 41.0639 26.1908 40.9943 25.7476 40.9943H25.0487V40.0568H25.7476C26.0942 40.0568 26.3982 39.9943 26.6595 39.8693C26.9237 39.7443 27.1297 39.5682 27.2774 39.3409C27.428 39.1136 27.5033 38.8466 27.5033 38.5398C27.5033 38.2443 27.4379 37.9872 27.3072 37.7685C27.1766 37.5497 26.9919 37.3793 26.7533 37.2571C26.5175 37.1349 26.2391 37.0739 25.918 37.0739C25.6169 37.0739 25.3328 37.1293 25.0658 37.2401C24.8016 37.348 24.5857 37.5057 24.418 37.7131C24.2504 37.9176 24.1595 38.1648 24.1453 38.4545H23.1226C23.1396 37.9972 23.2774 37.5966 23.5359 37.2528C23.7945 36.9062 24.1325 36.6364 24.5501 36.4432C24.9706 36.25 25.4322 36.1534 25.9351 36.1534C26.4749 36.1534 26.9379 36.2628 27.3243 36.4815C27.7107 36.6974 28.0075 36.983 28.2149 37.3381C28.4223 37.6932 28.526 38.0767 28.526 38.4886C28.526 38.9801 28.3967 39.3991 28.1382 39.7457C27.8825 40.0923 27.5345 40.3324 27.0942 40.4659V40.5341C27.6453 40.625 28.0757 40.8594 28.3854 41.2372C28.695 41.6122 28.8499 42.0767 28.8499 42.6307C28.8499 43.1051 28.7206 43.5312 28.4621 43.9091C28.2064 44.2841 27.857 44.5795 27.4138 44.7955C26.9706 45.0114 26.4663 45.1193 25.901 45.1193ZM31.7473 42.6136L31.7303 41.3693H31.9348L34.7984 38.4545H36.0428L32.9916 41.5398H32.9064L31.7473 42.6136ZM30.8098 45V36.2727H31.8155V45H30.8098ZM34.9689 45L32.4121 41.7614L33.128 41.0625L36.2473 45H34.9689ZM39.9097 47.5909C39.4239 47.5909 39.0062 47.5284 38.6568 47.4034C38.3074 47.2812 38.0162 47.1193 37.7832 46.9176C37.5531 46.7188 37.3699 46.5057 37.2335 46.2784L38.0347 45.7159C38.1256 45.8352 38.2406 45.9716 38.3798 46.125C38.519 46.2812 38.7094 46.4162 38.9508 46.5298C39.1952 46.6463 39.5148 46.7045 39.9097 46.7045C40.4381 46.7045 40.8741 46.5767 41.2179 46.321C41.5616 46.0653 41.7335 45.6648 41.7335 45.1193V43.7898H41.6483C41.5744 43.9091 41.4693 44.0568 41.333 44.233C41.1994 44.4062 41.0062 44.5611 40.7534 44.6974C40.5034 44.831 40.1653 44.8977 39.7392 44.8977C39.2108 44.8977 38.7364 44.7727 38.3159 44.5227C37.8983 44.2727 37.5673 43.9091 37.323 43.4318C37.0815 42.9545 36.9608 42.375 36.9608 41.6932C36.9608 41.0227 37.0787 40.4389 37.3145 39.9418C37.5503 39.4418 37.8784 39.0554 38.2989 38.7827C38.7193 38.5071 39.2051 38.3693 39.7562 38.3693C40.1824 38.3693 40.5205 38.4403 40.7705 38.5824C41.0233 38.7216 41.2165 38.8807 41.35 39.0597C41.4864 39.2358 41.5915 39.3807 41.6653 39.4943H41.7676V38.4545H42.7392V45.1875C42.7392 45.75 42.6114 46.2074 42.3557 46.5597C42.1028 46.9148 41.7619 47.1747 41.333 47.3395C40.9068 47.5071 40.4324 47.5909 39.9097 47.5909ZM39.8756 43.9943C40.279 43.9943 40.6199 43.902 40.8983 43.7173C41.1767 43.5327 41.3883 43.267 41.5332 42.9205C41.6781 42.5739 41.7506 42.1591 41.7506 41.6761C41.7506 41.2045 41.6795 40.7884 41.5375 40.4276C41.3955 40.0668 41.1852 39.7841 40.9068 39.5795C40.6284 39.375 40.2847 39.2727 39.8756 39.2727C39.4494 39.2727 39.0943 39.3807 38.8102 39.5966C38.529 39.8125 38.3173 40.1023 38.1753 40.4659C38.0361 40.8295 37.9665 41.233 37.9665 41.6761C37.9665 42.1307 38.0375 42.5327 38.1795 42.8821C38.3244 43.2287 38.5375 43.5014 38.8187 43.7003C39.1028 43.8963 39.4551 43.9943 39.8756 43.9943Z" fill="white"/>
<path d="M66.8842 45.1193C66.5263 45.1136 66.1683 45.0455 65.8104 44.9148C65.4524 44.7841 65.1257 44.5639 64.8303 44.2543C64.5348 43.9418 64.2976 43.5199 64.1186 42.9886C63.9396 42.4545 63.8501 41.7841 63.8501 40.9773C63.8501 40.2045 63.9226 39.5199 64.0675 38.9233C64.2124 38.3239 64.4226 37.8196 64.6982 37.4105C64.9737 36.9986 65.3061 36.6861 65.6953 36.473C66.0874 36.2599 66.5291 36.1534 67.0206 36.1534C67.5092 36.1534 67.9439 36.2514 68.3246 36.4474C68.7081 36.6406 69.0206 36.9105 69.2621 37.2571C69.5035 37.6037 69.6598 38.0028 69.7308 38.4545H68.691C68.5945 38.0625 68.407 37.7372 68.1285 37.4787C67.8501 37.2202 67.4808 37.0909 67.0206 37.0909C66.3445 37.0909 65.8118 37.3849 65.4226 37.973C65.0362 38.5611 64.8416 39.3864 64.8388 40.4489H64.907C65.066 40.2074 65.255 40.0014 65.4737 39.831C65.6953 39.6577 65.9396 39.5241 66.2067 39.4304C66.4737 39.3366 66.7564 39.2898 67.0547 39.2898C67.5547 39.2898 68.0121 39.4148 68.4268 39.6648C68.8416 39.9119 69.174 40.2543 69.424 40.6918C69.674 41.1264 69.799 41.625 69.799 42.1875C69.799 42.7273 69.6783 43.2216 69.4368 43.6705C69.1953 44.1165 68.8558 44.4716 68.4183 44.7358C67.9837 44.9972 67.4723 45.125 66.8842 45.1193ZM66.8842 44.1818C67.2422 44.1818 67.5632 44.0923 67.8473 43.9134C68.1342 43.7344 68.3601 43.4943 68.5249 43.1932C68.6925 42.892 68.7763 42.5568 68.7763 42.1875C68.7763 41.8267 68.6953 41.4986 68.5334 41.2031C68.3743 40.9048 68.1541 40.6676 67.8729 40.4915C67.5945 40.3153 67.2763 40.2273 66.9183 40.2273C66.6484 40.2273 66.397 40.2812 66.1641 40.3892C65.9311 40.4943 65.7266 40.6392 65.5504 40.8239C65.3771 41.0085 65.2408 41.2202 65.1413 41.4588C65.0419 41.6946 64.9922 41.9432 64.9922 42.2045C64.9922 42.5511 65.0732 42.875 65.2351 43.1761C65.3999 43.4773 65.6243 43.7202 65.9084 43.9048C66.1953 44.0895 66.5206 44.1818 66.8842 44.1818ZM72.6293 42.6136L72.6123 41.3693H72.8168L75.6805 38.4545H76.9248L73.8736 41.5398H73.7884L72.6293 42.6136ZM71.6918 45V36.2727H72.6975V45H71.6918ZM75.8509 45L73.2941 41.7614L74.01 41.0625L77.1293 45H75.8509ZM80.7917 47.5909C80.3059 47.5909 79.8883 47.5284 79.5388 47.4034C79.1894 47.2812 78.8982 47.1193 78.6653 46.9176C78.4352 46.7188 78.2519 46.5057 78.1156 46.2784L78.9167 45.7159C79.0076 45.8352 79.1227 45.9716 79.2619 46.125C79.4011 46.2812 79.5914 46.4162 79.8329 46.5298C80.0772 46.6463 80.3968 46.7045 80.7917 46.7045C81.3201 46.7045 81.7562 46.5767 82.0999 46.321C82.4437 46.0653 82.6156 45.6648 82.6156 45.1193V43.7898H82.5303C82.4565 43.9091 82.3513 44.0568 82.215 44.233C82.0815 44.4062 81.8883 44.5611 81.6354 44.6974C81.3854 44.831 81.0474 44.8977 80.6212 44.8977C80.0928 44.8977 79.6184 44.7727 79.1979 44.5227C78.7803 44.2727 78.4494 43.9091 78.205 43.4318C77.9636 42.9545 77.8428 42.375 77.8428 41.6932C77.8428 41.0227 77.9607 40.4389 78.1965 39.9418C78.4323 39.4418 78.7604 39.0554 79.1809 38.7827C79.6013 38.5071 80.0871 38.3693 80.6383 38.3693C81.0644 38.3693 81.4025 38.4403 81.6525 38.5824C81.9053 38.7216 82.0985 38.8807 82.232 39.0597C82.3684 39.2358 82.4735 39.3807 82.5474 39.4943H82.6496V38.4545H83.6212V45.1875C83.6212 45.75 83.4934 46.2074 83.2377 46.5597C82.9849 46.9148 82.644 47.1747 82.215 47.3395C81.7888 47.5071 81.3144 47.5909 80.7917 47.5909ZM80.7576 43.9943C81.161 43.9943 81.5019 43.902 81.7803 43.7173C82.0587 43.5327 82.2704 43.267 82.4153 42.9205C82.5602 42.5739 82.6326 42.1591 82.6326 41.6761C82.6326 41.2045 82.5616 40.7884 82.4195 40.4276C82.2775 40.0668 82.0673 39.7841 81.7888 39.5795C81.5104 39.375 81.1667 39.2727 80.7576 39.2727C80.3315 39.2727 79.9763 39.3807 79.6923 39.5966C79.411 39.8125 79.1994 40.1023 79.0573 40.4659C78.9181 40.8295 78.8485 41.233 78.8485 41.6761C78.8485 42.1307 78.9195 42.5327 79.0616 42.8821C79.2065 43.2287 79.4195 43.5014 79.7008 43.7003C79.9849 43.8963 80.3371 43.9943 80.7576 43.9943Z" fill="#141F1E"/>
<path d="M108.03 45.1193C107.672 45.1136 107.314 45.0455 106.956 44.9148C106.598 44.7841 106.271 44.5639 105.976 44.2543C105.681 43.9418 105.443 43.5199 105.264 42.9886C105.085 42.4545 104.996 41.7841 104.996 40.9773C104.996 40.2045 105.068 39.5199 105.213 38.9233C105.358 38.3239 105.568 37.8196 105.844 37.4105C106.119 36.9986 106.452 36.6861 106.841 36.473C107.233 36.2599 107.675 36.1534 108.166 36.1534C108.655 36.1534 109.09 36.2514 109.47 36.4474C109.854 36.6406 110.166 36.9105 110.408 37.2571C110.649 37.6037 110.806 38.0028 110.877 38.4545H109.837C109.74 38.0625 109.553 37.7372 109.274 37.4787C108.996 37.2202 108.627 37.0909 108.166 37.0909C107.49 37.0909 106.957 37.3849 106.568 37.973C106.182 38.5611 105.987 39.3864 105.984 40.4489H106.053C106.212 40.2074 106.401 40.0014 106.619 39.831C106.841 39.6577 107.085 39.5241 107.352 39.4304C107.619 39.3366 107.902 39.2898 108.2 39.2898C108.7 39.2898 109.158 39.4148 109.573 39.6648C109.987 39.9119 110.32 40.2543 110.57 40.6918C110.82 41.1264 110.945 41.625 110.945 42.1875C110.945 42.7273 110.824 43.2216 110.582 43.6705C110.341 44.1165 110.002 44.4716 109.564 44.7358C109.129 44.9972 108.618 45.125 108.03 45.1193ZM108.03 44.1818C108.388 44.1818 108.709 44.0923 108.993 43.9134C109.28 43.7344 109.506 43.4943 109.671 43.1932C109.838 42.892 109.922 42.5568 109.922 42.1875C109.922 41.8267 109.841 41.4986 109.679 41.2031C109.52 40.9048 109.3 40.6676 109.019 40.4915C108.74 40.3153 108.422 40.2273 108.064 40.2273C107.794 40.2273 107.543 40.2812 107.31 40.3892C107.077 40.4943 106.872 40.6392 106.696 40.8239C106.523 41.0085 106.386 41.2202 106.287 41.4588C106.188 41.6946 106.138 41.9432 106.138 42.2045C106.138 42.5511 106.219 42.875 106.381 43.1761C106.546 43.4773 106.77 43.7202 107.054 43.9048C107.341 44.0895 107.666 44.1818 108.03 44.1818ZM113.16 45.0682C112.95 45.0682 112.77 44.9929 112.619 44.8423C112.469 44.6918 112.393 44.5114 112.393 44.3011C112.393 44.0909 112.469 43.9105 112.619 43.7599C112.77 43.6094 112.95 43.5341 113.16 43.5341C113.371 43.5341 113.551 43.6094 113.702 43.7599C113.852 43.9105 113.927 44.0909 113.927 44.3011C113.927 44.4403 113.892 44.5682 113.821 44.6847C113.753 44.8011 113.66 44.8949 113.544 44.9659C113.43 45.0341 113.302 45.0682 113.16 45.0682ZM116.012 45L119.915 37.2784V37.2102H115.415V36.2727H121.006V37.2614L117.12 45H116.012ZM123.749 42.6136L123.732 41.3693H123.937L126.8 38.4545H128.045L124.994 41.5398H124.908L123.749 42.6136ZM122.812 45V36.2727H123.817V45H122.812ZM126.971 45L124.414 41.7614L125.13 41.0625L128.249 45H126.971ZM131.912 47.5909C131.426 47.5909 131.008 47.5284 130.659 47.4034C130.309 47.2812 130.018 47.1193 129.785 46.9176C129.555 46.7188 129.372 46.5057 129.235 46.2784L130.037 45.7159C130.128 45.8352 130.243 45.9716 130.382 46.125C130.521 46.2812 130.711 46.4162 130.953 46.5298C131.197 46.6463 131.517 46.7045 131.912 46.7045C132.44 46.7045 132.876 46.5767 133.22 46.321C133.564 46.0653 133.735 45.6648 133.735 45.1193V43.7898H133.65C133.576 43.9091 133.471 44.0568 133.335 44.233C133.201 44.4062 133.008 44.5611 132.755 44.6974C132.505 44.831 132.167 44.8977 131.741 44.8977C131.213 44.8977 130.738 44.7727 130.318 44.5227C129.9 44.2727 129.569 43.9091 129.325 43.4318C129.083 42.9545 128.963 42.375 128.963 41.6932C128.963 41.0227 129.081 40.4389 129.316 39.9418C129.552 39.4418 129.88 39.0554 130.301 38.7827C130.721 38.5071 131.207 38.3693 131.758 38.3693C132.184 38.3693 132.522 38.4403 132.772 38.5824C133.025 38.7216 133.218 38.8807 133.352 39.0597C133.488 39.2358 133.593 39.3807 133.667 39.4943H133.77V38.4545H134.741V45.1875C134.741 45.75 134.613 46.2074 134.358 46.5597C134.105 46.9148 133.764 47.1747 133.335 47.3395C132.909 47.5071 132.434 47.5909 131.912 47.5909ZM131.878 43.9943C132.281 43.9943 132.622 43.902 132.9 43.7173C133.179 43.5327 133.39 43.267 133.535 42.9205C133.68 42.5739 133.753 42.1591 133.753 41.6761C133.753 41.2045 133.681 40.7884 133.539 40.4276C133.397 40.0668 133.187 39.7841 132.909 39.5795C132.63 39.375 132.287 39.2727 131.878 39.2727C131.451 39.2727 131.096 39.3807 130.812 39.5966C130.531 39.8125 130.319 40.1023 130.177 40.4659C130.038 40.8295 129.968 41.233 129.968 41.6761C129.968 42.1307 130.039 42.5327 130.181 42.8821C130.326 43.2287 130.539 43.5014 130.821 43.7003C131.105 43.8963 131.457 43.9943 131.878 43.9943Z" fill="#141F1E"/>
<path d="M152.176 45L156.08 37.2784V37.2102H151.58V36.2727H157.171V37.2614L153.284 45H152.176ZM158.209 45.0682C157.999 45.0682 157.819 44.9929 157.668 44.8423C157.517 44.6918 157.442 44.5114 157.442 44.3011C157.442 44.0909 157.517 43.9105 157.668 43.7599C157.819 43.6094 157.999 43.5341 158.209 43.5341C158.419 43.5341 158.6 43.6094 158.75 43.7599C158.901 43.9105 158.976 44.0909 158.976 44.3011C158.976 44.4403 158.941 44.5682 158.87 44.6847C158.801 44.8011 158.709 44.8949 158.593 44.9659C158.479 45.0341 158.351 45.0682 158.209 45.0682ZM163.515 45.1193C163.015 45.1193 162.565 45.0199 162.164 44.821C161.764 44.6222 161.443 44.3494 161.201 44.0028C160.96 43.6562 160.828 43.2614 160.805 42.8182H161.828C161.868 43.2131 162.047 43.5398 162.365 43.7983C162.686 44.054 163.069 44.1818 163.515 44.1818C163.873 44.1818 164.191 44.098 164.47 43.9304C164.751 43.7628 164.971 43.5327 165.13 43.2401C165.292 42.9446 165.373 42.6108 165.373 42.2386C165.373 41.858 165.289 41.5185 165.122 41.2202C164.957 40.919 164.73 40.6818 164.44 40.5085C164.15 40.3352 163.819 40.2472 163.447 40.2443C163.18 40.2415 162.906 40.2827 162.625 40.3679C162.343 40.4503 162.112 40.5568 161.93 40.6875L160.941 40.5682L161.47 36.2727H166.004V37.2102H162.356L162.049 39.7841H162.101C162.28 39.642 162.504 39.5241 162.774 39.4304C163.044 39.3366 163.325 39.2898 163.618 39.2898C164.152 39.2898 164.628 39.4176 165.045 39.6733C165.466 39.9261 165.795 40.2727 166.034 40.7131C166.275 41.1534 166.396 41.6562 166.396 42.2216C166.396 42.7784 166.271 43.2756 166.021 43.7131C165.774 44.1477 165.433 44.4915 164.998 44.7443C164.564 44.9943 164.069 45.1193 163.515 45.1193ZM169.243 42.6136L169.226 41.3693H169.431L172.295 38.4545H173.539L170.488 41.5398H170.402L169.243 42.6136ZM168.306 45V36.2727H169.312V45H168.306ZM172.465 45L169.908 41.7614L170.624 41.0625L173.743 45H172.465ZM177.406 47.5909C176.92 47.5909 176.502 47.5284 176.153 47.4034C175.803 47.2812 175.512 47.1193 175.279 46.9176C175.049 46.7188 174.866 46.5057 174.73 46.2784L175.531 45.7159C175.622 45.8352 175.737 45.9716 175.876 46.125C176.015 46.2812 176.205 46.4162 176.447 46.5298C176.691 46.6463 177.011 46.7045 177.406 46.7045C177.934 46.7045 178.37 46.5767 178.714 46.321C179.058 46.0653 179.23 45.6648 179.23 45.1193V43.7898H179.144C179.071 43.9091 178.965 44.0568 178.829 44.233C178.696 44.4062 178.502 44.5611 178.25 44.6974C178 44.831 177.661 44.8977 177.235 44.8977C176.707 44.8977 176.232 44.7727 175.812 44.5227C175.394 44.2727 175.063 43.9091 174.819 43.4318C174.578 42.9545 174.457 42.375 174.457 41.6932C174.457 41.0227 174.575 40.4389 174.811 39.9418C175.046 39.4418 175.375 39.0554 175.795 38.7827C176.215 38.5071 176.701 38.3693 177.252 38.3693C177.678 38.3693 178.017 38.4403 178.267 38.5824C178.519 38.7216 178.713 38.8807 178.846 39.0597C178.982 39.2358 179.088 39.3807 179.161 39.4943H179.264V38.4545H180.235V45.1875C180.235 45.75 180.107 46.2074 179.852 46.5597C179.599 46.9148 179.258 47.1747 178.829 47.3395C178.403 47.5071 177.928 47.5909 177.406 47.5909ZM177.372 43.9943C177.775 43.9943 178.116 43.902 178.394 43.7173C178.673 43.5327 178.884 43.267 179.029 42.9205C179.174 42.5739 179.247 42.1591 179.247 41.6761C179.247 41.2045 179.176 40.7884 179.034 40.4276C178.892 40.0668 178.681 39.7841 178.403 39.5795C178.125 39.375 177.781 39.2727 177.372 39.2727C176.946 39.2727 176.59 39.3807 176.306 39.5966C176.025 39.8125 175.813 40.1023 175.671 40.4659C175.532 40.8295 175.463 41.233 175.463 41.6761C175.463 42.1307 175.534 42.5327 175.676 42.8821C175.821 43.2287 176.034 43.5014 176.315 43.7003C176.599 43.8963 176.951 43.9943 177.372 43.9943Z" fill="#141F1E"/>
<path d="M199.66 45.1193C199.075 45.1193 198.558 45.0156 198.109 44.8082C197.663 44.598 197.315 44.3097 197.065 43.9432C196.815 43.5739 196.691 43.1534 196.694 42.6818C196.691 42.3125 196.764 41.9716 196.912 41.6591C197.059 41.3437 197.261 41.081 197.517 40.8707C197.775 40.6577 198.063 40.5227 198.382 40.4659V40.4148C197.964 40.3068 197.632 40.0724 197.385 39.7116C197.137 39.348 197.015 38.9347 197.018 38.4716C197.015 38.0284 197.127 37.6321 197.355 37.2827C197.582 36.9332 197.894 36.6577 198.292 36.456C198.693 36.2543 199.149 36.1534 199.66 36.1534C200.166 36.1534 200.617 36.2543 201.015 36.456C201.413 36.6577 201.725 36.9332 201.953 37.2827C202.183 37.6321 202.299 38.0284 202.302 38.4716C202.299 38.9347 202.173 39.348 201.923 39.7116C201.676 40.0724 201.348 40.3068 200.938 40.4148V40.4659C201.254 40.5227 201.538 40.6577 201.791 40.8707C202.044 41.081 202.245 41.3437 202.396 41.6591C202.546 41.9716 202.623 42.3125 202.626 42.6818C202.623 43.1534 202.495 43.5739 202.242 43.9432C201.992 44.3097 201.644 44.598 201.198 44.8082C200.755 45.0156 200.242 45.1193 199.66 45.1193ZM199.66 44.1818C200.055 44.1818 200.396 44.1179 200.683 43.9901C200.97 43.8622 201.191 43.6818 201.348 43.4489C201.504 43.2159 201.583 42.9432 201.586 42.6307C201.583 42.3011 201.498 42.0099 201.331 41.7571C201.163 41.5043 200.934 41.3054 200.644 41.1605C200.358 41.0156 200.029 40.9432 199.66 40.9432C199.288 40.9432 198.956 41.0156 198.663 41.1605C198.373 41.3054 198.144 41.5043 197.977 41.7571C197.812 42.0099 197.731 42.3011 197.734 42.6307C197.731 42.9432 197.806 43.2159 197.96 43.4489C198.116 43.6818 198.339 43.8622 198.629 43.9901C198.919 44.1179 199.262 44.1818 199.66 44.1818ZM199.66 40.0398C199.973 40.0398 200.25 39.9773 200.491 39.8523C200.735 39.7273 200.927 39.5526 201.066 39.3281C201.206 39.1037 201.277 38.8409 201.279 38.5398C201.277 38.2443 201.207 37.9872 201.071 37.7685C200.934 37.5469 200.745 37.3764 200.504 37.2571C200.262 37.1349 199.981 37.0739 199.66 37.0739C199.333 37.0739 199.048 37.1349 198.804 37.2571C198.559 37.3764 198.37 37.5469 198.237 37.7685C198.103 37.9872 198.038 38.2443 198.041 38.5398C198.038 38.8409 198.105 39.1037 198.241 39.3281C198.38 39.5526 198.572 39.7273 198.816 39.8523C199.061 39.9773 199.342 40.0398 199.66 40.0398ZM204.94 45.0682C204.729 45.0682 204.549 44.9929 204.398 44.8423C204.248 44.6918 204.173 44.5114 204.173 44.3011C204.173 44.0909 204.248 43.9105 204.398 43.7599C204.549 43.6094 204.729 43.5341 204.94 43.5341C205.15 43.5341 205.33 43.6094 205.481 43.7599C205.631 43.9105 205.707 44.0909 205.707 44.3011C205.707 44.4403 205.671 44.5682 205.6 44.6847C205.532 44.8011 205.44 44.8949 205.323 44.9659C205.21 45.0341 205.082 45.0682 204.94 45.0682ZM207.49 43.2102V42.3409L211.325 36.2727H211.956V37.6193H211.53L208.632 42.2045V42.2727H213.797V43.2102H207.49ZM211.598 45V42.946V42.5412V36.2727H212.603V45H211.598ZM216.548 42.6136L216.531 41.3693H216.736L219.599 38.4545H220.844L217.792 41.5398H217.707L216.548 42.6136ZM215.611 45V36.2727H216.616V45H215.611ZM219.77 45L217.213 41.7614L217.929 41.0625L221.048 45H219.77ZM224.71 47.5909C224.225 47.5909 223.807 47.5284 223.458 47.4034C223.108 47.2812 222.817 47.1193 222.584 46.9176C222.354 46.7188 222.171 46.5057 222.034 46.2784L222.835 45.7159C222.926 45.8352 223.041 45.9716 223.181 46.125C223.32 46.2812 223.51 46.4162 223.752 46.5298C223.996 46.6463 224.316 46.7045 224.71 46.7045C225.239 46.7045 225.675 46.5767 226.019 46.321C226.362 46.0653 226.534 45.6648 226.534 45.1193V43.7898H226.449C226.375 43.9091 226.27 44.0568 226.134 44.233C226 44.4062 225.807 44.5611 225.554 44.6974C225.304 44.831 224.966 44.8977 224.54 44.8977C224.012 44.8977 223.537 44.7727 223.117 44.5227C222.699 44.2727 222.368 43.9091 222.124 43.4318C221.882 42.9545 221.762 42.375 221.762 41.6932C221.762 41.0227 221.879 40.4389 222.115 39.9418C222.351 39.4418 222.679 39.0554 223.1 38.7827C223.52 38.5071 224.006 38.3693 224.557 38.3693C224.983 38.3693 225.321 38.4403 225.571 38.5824C225.824 38.7216 226.017 38.8807 226.151 39.0597C226.287 39.2358 226.392 39.3807 226.466 39.4943H226.568V38.4545H227.54V45.1875C227.54 45.75 227.412 46.2074 227.156 46.5597C226.904 46.9148 226.563 47.1747 226.134 47.3395C225.708 47.5071 225.233 47.5909 224.71 47.5909ZM224.676 43.9943C225.08 43.9943 225.421 43.902 225.699 43.7173C225.977 43.5327 226.189 43.267 226.334 42.9205C226.479 42.5739 226.551 42.1591 226.551 41.6761C226.551 41.2045 226.48 40.7884 226.338 40.4276C226.196 40.0668 225.986 39.7841 225.708 39.5795C225.429 39.375 225.085 39.2727 224.676 39.2727C224.25 39.2727 223.895 39.3807 223.611 39.5966C223.33 39.8125 223.118 40.1023 222.976 40.4659C222.837 40.8295 222.767 41.233 222.767 41.6761C222.767 42.1307 222.838 42.5327 222.98 42.8821C223.125 43.2287 223.338 43.5014 223.62 43.7003C223.904 43.8963 224.256 43.9943 224.676 43.9943Z" fill="#141F1E"/>
<path d="M245.938 36.1534C246.296 36.1562 246.654 36.2244 247.012 36.358C247.37 36.4915 247.696 36.7131 247.992 37.0227C248.287 37.3295 248.525 37.7486 248.704 38.2798C248.883 38.8111 248.972 39.4773 248.972 40.2784C248.972 41.054 248.898 41.7429 248.75 42.3452C248.606 42.9446 248.395 43.4503 248.12 43.8622C247.847 44.2741 247.515 44.5866 247.123 44.7997C246.733 45.0128 246.293 45.1193 245.802 45.1193C245.313 45.1193 244.877 45.0227 244.493 44.8295C244.113 44.6335 243.8 44.3622 243.556 44.0156C243.314 43.6662 243.16 43.2614 243.091 42.8011H244.131C244.225 43.2017 244.411 43.5327 244.689 43.794C244.971 44.0526 245.341 44.1818 245.802 44.1818C246.475 44.1818 247.006 43.8878 247.395 43.2997C247.787 42.7116 247.983 41.8807 247.983 40.8068H247.915C247.756 41.0455 247.567 41.2514 247.348 41.4247C247.13 41.598 246.887 41.7315 246.62 41.8253C246.353 41.919 246.069 41.9659 245.768 41.9659C245.268 41.9659 244.809 41.8423 244.391 41.5952C243.976 41.3452 243.644 41.0028 243.394 40.5682C243.147 40.1307 243.023 39.6307 243.023 39.0682C243.023 38.5341 243.143 38.0455 243.381 37.6023C243.623 37.1562 243.961 36.8011 244.395 36.5369C244.833 36.2727 245.347 36.1449 245.938 36.1534ZM245.938 37.0909C245.58 37.0909 245.258 37.1804 244.971 37.3594C244.687 37.5355 244.461 37.7741 244.293 38.0753C244.128 38.3736 244.046 38.7045 244.046 39.0682C244.046 39.4318 244.125 39.7628 244.285 40.0611C244.446 40.3565 244.667 40.5923 244.945 40.7685C245.226 40.9418 245.546 41.0284 245.904 41.0284C246.174 41.0284 246.425 40.9759 246.658 40.8707C246.891 40.7628 247.094 40.6165 247.268 40.4318C247.444 40.2443 247.581 40.0327 247.681 39.7969C247.78 39.5582 247.83 39.3097 247.83 39.0511C247.83 38.7102 247.748 38.3906 247.583 38.0923C247.421 37.794 247.196 37.5526 246.91 37.3679C246.625 37.1832 246.302 37.0909 245.938 37.0909ZM251.293 45.0682C251.083 45.0682 250.903 44.9929 250.752 44.8423C250.601 44.6918 250.526 44.5114 250.526 44.3011C250.526 44.0909 250.601 43.9105 250.752 43.7599C250.903 43.6094 251.083 43.5341 251.293 43.5341C251.503 43.5341 251.684 43.6094 251.834 43.7599C251.985 43.9105 252.06 44.0909 252.06 44.3011C252.06 44.4403 252.025 44.5682 251.954 44.6847C251.885 44.8011 251.793 44.8949 251.677 44.9659C251.563 45.0341 251.435 45.0682 251.293 45.0682ZM256.669 45.1193C256.106 45.1193 255.605 45.0227 255.164 44.8295C254.727 44.6364 254.379 44.3679 254.12 44.0241C253.865 43.6776 253.725 43.2756 253.703 42.8182H254.777C254.799 43.0994 254.896 43.3423 255.066 43.5469C255.237 43.7486 255.46 43.9048 255.735 44.0156C256.011 44.1264 256.316 44.1818 256.652 44.1818C257.027 44.1818 257.359 44.1165 257.649 43.9858C257.938 43.8551 258.166 43.6733 258.331 43.4403C258.495 43.2074 258.578 42.9375 258.578 42.6307C258.578 42.3097 258.498 42.027 258.339 41.7827C258.18 41.5355 257.947 41.3423 257.64 41.2031C257.333 41.0639 256.958 40.9943 256.515 40.9943H255.816V40.0568H256.515C256.862 40.0568 257.166 39.9943 257.427 39.8693C257.691 39.7443 257.897 39.5682 258.045 39.3409C258.196 39.1136 258.271 38.8466 258.271 38.5398C258.271 38.2443 258.206 37.9872 258.075 37.7685C257.944 37.5497 257.759 37.3793 257.521 37.2571C257.285 37.1349 257.007 37.0739 256.686 37.0739C256.384 37.0739 256.1 37.1293 255.833 37.2401C255.569 37.348 255.353 37.5057 255.186 37.7131C255.018 37.9176 254.927 38.1648 254.913 38.4545H253.89C253.907 37.9972 254.045 37.5966 254.304 37.2528C254.562 36.9062 254.9 36.6364 255.318 36.4432C255.738 36.25 256.2 36.1534 256.703 36.1534C257.242 36.1534 257.706 36.2628 258.092 36.4815C258.478 36.6974 258.775 36.983 258.982 37.3381C259.19 37.6932 259.294 38.0767 259.294 38.4886C259.294 38.9801 259.164 39.3991 258.906 39.7457C258.65 40.0923 258.302 40.3324 257.862 40.4659V40.5341C258.413 40.625 258.843 40.8594 259.153 41.2372C259.463 41.6122 259.617 42.0767 259.617 42.6307C259.617 43.1051 259.488 43.5312 259.23 43.9091C258.974 44.2841 258.625 44.5795 258.181 44.7955C257.738 45.0114 257.234 45.1193 256.669 45.1193ZM262.515 42.6136L262.498 41.3693H262.702L265.566 38.4545H266.81L263.759 41.5398H263.674L262.515 42.6136ZM261.577 45V36.2727H262.583V45H261.577ZM265.736 45L263.18 41.7614L263.896 41.0625L267.015 45H265.736ZM270.677 47.5909C270.191 47.5909 269.774 47.5284 269.424 47.4034C269.075 47.2812 268.784 47.1193 268.551 46.9176C268.321 46.7188 268.137 46.5057 268.001 46.2784L268.802 45.7159C268.893 45.8352 269.008 45.9716 269.147 46.125C269.287 46.2812 269.477 46.4162 269.718 46.5298C269.963 46.6463 270.282 46.7045 270.677 46.7045C271.206 46.7045 271.642 46.5767 271.985 46.321C272.329 46.0653 272.501 45.6648 272.501 45.1193V43.7898H272.416C272.342 43.9091 272.237 44.0568 272.101 44.233C271.967 44.4062 271.774 44.5611 271.521 44.6974C271.271 44.831 270.933 44.8977 270.507 44.8977C269.978 44.8977 269.504 44.7727 269.083 44.5227C268.666 44.2727 268.335 43.9091 268.091 43.4318C267.849 42.9545 267.728 42.375 267.728 41.6932C267.728 41.0227 267.846 40.4389 268.082 39.9418C268.318 39.4418 268.646 39.0554 269.066 38.7827C269.487 38.5071 269.973 38.3693 270.524 38.3693C270.95 38.3693 271.288 38.4403 271.538 38.5824C271.791 38.7216 271.984 38.8807 272.118 39.0597C272.254 39.2358 272.359 39.3807 272.433 39.4943H272.535V38.4545H273.507V45.1875C273.507 45.75 273.379 46.2074 273.123 46.5597C272.87 46.9148 272.53 47.1747 272.101 47.3395C271.674 47.5071 271.2 47.5909 270.677 47.5909ZM270.643 43.9943C271.047 43.9943 271.387 43.902 271.666 43.7173C271.944 43.5327 272.156 43.267 272.301 42.9205C272.446 42.5739 272.518 42.1591 272.518 41.6761C272.518 41.2045 272.447 40.7884 272.305 40.4276C272.163 40.0668 271.953 39.7841 271.674 39.5795C271.396 39.375 271.052 39.2727 270.643 39.2727C270.217 39.2727 269.862 39.3807 269.578 39.5966C269.297 39.8125 269.085 40.1023 268.943 40.4659C268.804 40.8295 268.734 41.233 268.734 41.6761C268.734 42.1307 268.805 42.5327 268.947 42.8821C269.092 43.2287 269.305 43.5014 269.586 43.7003C269.87 43.8963 270.223 43.9943 270.643 43.9943Z" fill="#141F1E"/>
<path d="M289.272 36.2727V45H288.215V37.3807H288.164L286.034 38.7955V37.7216L288.215 36.2727H289.272ZM294.829 45.1193C294.187 45.1193 293.64 44.9446 293.188 44.5952C292.736 44.2429 292.391 43.733 292.153 43.0653C291.914 42.3949 291.795 41.5852 291.795 40.6364C291.795 39.6932 291.914 38.8878 292.153 38.2202C292.394 37.5497 292.741 37.0384 293.192 36.6861C293.647 36.331 294.192 36.1534 294.829 36.1534C295.465 36.1534 296.009 36.331 296.461 36.6861C296.915 37.0384 297.262 37.5497 297.501 38.2202C297.742 38.8878 297.863 39.6932 297.863 40.6364C297.863 41.5852 297.744 42.3949 297.505 43.0653C297.266 43.733 296.921 44.2429 296.469 44.5952C296.018 44.9446 295.471 45.1193 294.829 45.1193ZM294.829 44.1818C295.465 44.1818 295.959 43.875 296.312 43.2614C296.664 42.6477 296.84 41.7727 296.84 40.6364C296.84 39.8807 296.759 39.2372 296.597 38.706C296.438 38.1747 296.208 37.7699 295.907 37.4915C295.609 37.2131 295.249 37.0739 294.829 37.0739C294.198 37.0739 293.705 37.3849 293.35 38.0071C292.995 38.6264 292.817 39.5028 292.817 40.6364C292.817 41.392 292.897 42.0341 293.056 42.5625C293.215 43.0909 293.444 43.4929 293.742 43.7685C294.043 44.044 294.406 44.1818 294.829 44.1818ZM300.128 45.0682C299.917 45.0682 299.737 44.9929 299.586 44.8423C299.436 44.6918 299.36 44.5114 299.36 44.3011C299.36 44.0909 299.436 43.9105 299.586 43.7599C299.737 43.6094 299.917 43.5341 300.128 43.5341C300.338 43.5341 300.518 43.6094 300.669 43.7599C300.819 43.9105 300.895 44.0909 300.895 44.3011C300.895 44.4403 300.859 44.5682 300.788 44.6847C300.72 44.8011 300.628 44.8949 300.511 44.9659C300.397 45.0341 300.27 45.0682 300.128 45.0682ZM302.678 43.2102V42.3409L306.513 36.2727H307.144V37.6193H306.717L303.82 42.2045V42.2727H308.984V43.2102H302.678ZM306.786 45V42.946V42.5412V36.2727H307.791V45H306.786ZM311.736 42.6136L311.719 41.3693H311.923L314.787 38.4545H316.031L312.98 41.5398H312.895L311.736 42.6136ZM310.798 45V36.2727H311.804V45H310.798ZM314.958 45L312.401 41.7614L313.117 41.0625L316.236 45H314.958ZM319.898 47.5909C319.413 47.5909 318.995 47.5284 318.645 47.4034C318.296 47.2812 318.005 47.1193 317.772 46.9176C317.542 46.7188 317.359 46.5057 317.222 46.2784L318.023 45.7159C318.114 45.8352 318.229 45.9716 318.369 46.125C318.508 46.2812 318.698 46.4162 318.94 46.5298C319.184 46.6463 319.503 46.7045 319.898 46.7045C320.427 46.7045 320.863 46.5767 321.207 46.321C321.55 46.0653 321.722 45.6648 321.722 45.1193V43.7898H321.637C321.563 43.9091 321.458 44.0568 321.322 44.233C321.188 44.4062 320.995 44.5611 320.742 44.6974C320.492 44.831 320.154 44.8977 319.728 44.8977C319.199 44.8977 318.725 44.7727 318.305 44.5227C317.887 44.2727 317.556 43.9091 317.312 43.4318C317.07 42.9545 316.949 42.375 316.949 41.6932C316.949 41.0227 317.067 40.4389 317.303 39.9418C317.539 39.4418 317.867 39.0554 318.288 38.7827C318.708 38.5071 319.194 38.3693 319.745 38.3693C320.171 38.3693 320.509 38.4403 320.759 38.5824C321.012 38.7216 321.205 38.8807 321.339 39.0597C321.475 39.2358 321.58 39.3807 321.654 39.4943H321.756V38.4545H322.728V45.1875C322.728 45.75 322.6 46.2074 322.344 46.5597C322.092 46.9148 321.751 47.1747 321.322 47.3395C320.895 47.5071 320.421 47.5909 319.898 47.5909ZM319.864 43.9943C320.268 43.9943 320.609 43.902 320.887 43.7173C321.165 43.5327 321.377 43.267 321.522 42.9205C321.667 42.5739 321.739 42.1591 321.739 41.6761C321.739 41.2045 321.668 40.7884 321.526 40.4276C321.384 40.0668 321.174 39.7841 320.895 39.5795C320.617 39.375 320.273 39.2727 319.864 39.2727C319.438 39.2727 319.083 39.3807 318.799 39.5966C318.518 39.8125 318.306 40.1023 318.164 40.4659C318.025 40.8295 317.955 41.233 317.955 41.6761C317.955 42.1307 318.026 42.5327 318.168 42.8821C318.313 43.2287 318.526 43.5014 318.807 43.7003C319.092 43.8963 319.444 43.9943 319.864 43.9943Z" fill="white"/>
<path d="M15.0043 15.244V16.432H10.9122V15.244H15.0043ZM19.9374 19.12C19.1934 19.12 18.5454 18.956 17.9934 18.628C17.4494 18.292 17.0774 17.824 16.8774 17.224L18.1254 16.636C18.1974 16.924 18.3094 17.172 18.4614 17.38C18.6134 17.588 18.8134 17.748 19.0614 17.86C19.3094 17.964 19.6174 18.016 19.9854 18.016C20.2974 18.016 20.5614 17.96 20.7774 17.848C20.9934 17.736 21.1574 17.58 21.2694 17.38C21.3894 17.18 21.4494 16.952 21.4494 16.696C21.4494 16.432 21.3974 16.212 21.2934 16.036C21.1974 15.86 21.0414 15.732 20.8254 15.652C20.6174 15.572 20.3494 15.532 20.0214 15.532C19.9254 15.532 19.8254 15.536 19.7214 15.544C19.6254 15.544 19.5214 15.552 19.4094 15.568V14.488C19.4814 14.496 19.5494 14.504 19.6134 14.512C19.6854 14.512 19.7534 14.512 19.8174 14.512C20.3374 14.512 20.7094 14.408 20.9334 14.2C21.1574 13.992 21.2694 13.668 21.2694 13.228C21.2694 12.852 21.1534 12.564 20.9214 12.364C20.6974 12.164 20.3734 12.064 19.9494 12.064C19.5094 12.064 19.1654 12.168 18.9174 12.376C18.6774 12.576 18.4934 12.868 18.3654 13.252L17.1894 12.76C17.3014 12.392 17.4894 12.072 17.7534 11.8C18.0174 11.528 18.3414 11.32 18.7254 11.176C19.1174 11.024 19.5454 10.948 20.0094 10.948C20.5774 10.948 21.0494 11.04 21.4254 11.224C21.8094 11.408 22.0934 11.66 22.2774 11.98C22.4694 12.3 22.5654 12.656 22.5654 13.048C22.5654 13.352 22.5214 13.62 22.4334 13.852C22.3454 14.076 22.2254 14.272 22.0734 14.44C21.9294 14.6 21.7694 14.724 21.5934 14.812C21.4254 14.9 21.2534 14.96 21.0774 14.992V15.016C21.3094 15.024 21.5214 15.072 21.7134 15.16C21.9134 15.24 22.0894 15.356 22.2414 15.508C22.4014 15.652 22.5254 15.828 22.6134 16.036C22.7014 16.244 22.7454 16.472 22.7454 16.72C22.7454 17.2 22.6254 17.62 22.3854 17.98C22.1454 18.34 21.8134 18.62 21.3894 18.82C20.9734 19.02 20.4894 19.12 19.9374 19.12ZM32.431 10.96C33.143 10.96 33.759 11.096 34.279 11.368C34.799 11.632 35.239 12.024 35.599 12.544L34.735 13.372C34.431 12.908 34.087 12.576 33.703 12.376C33.327 12.168 32.879 12.064 32.359 12.064C31.975 12.064 31.659 12.116 31.411 12.22C31.163 12.324 30.979 12.464 30.859 12.64C30.747 12.808 30.691 13 30.691 13.216C30.691 13.464 30.775 13.68 30.943 13.864C31.119 14.048 31.443 14.192 31.915 14.296L33.523 14.656C34.291 14.824 34.835 15.08 35.155 15.424C35.475 15.768 35.635 16.204 35.635 16.732C35.635 17.22 35.503 17.644 35.239 18.004C34.975 18.364 34.607 18.64 34.135 18.832C33.671 19.024 33.123 19.12 32.491 19.12C31.931 19.12 31.427 19.048 30.979 18.904C30.531 18.76 30.139 18.564 29.803 18.316C29.467 18.068 29.191 17.784 28.975 17.464L29.863 16.576C30.031 16.856 30.243 17.108 30.499 17.332C30.755 17.548 31.051 17.716 31.387 17.836C31.731 17.956 32.111 18.016 32.527 18.016C32.895 18.016 33.211 17.972 33.475 17.884C33.747 17.796 33.951 17.668 34.087 17.5C34.231 17.324 34.303 17.116 34.303 16.876C34.303 16.644 34.223 16.44 34.063 16.264C33.911 16.088 33.623 15.952 33.199 15.856L31.459 15.46C30.979 15.356 30.583 15.208 30.271 15.016C29.959 14.824 29.727 14.592 29.575 14.32C29.423 14.04 29.347 13.728 29.347 13.384C29.347 12.936 29.467 12.532 29.707 12.172C29.955 11.804 30.311 11.512 30.775 11.296C31.239 11.072 31.791 10.96 32.431 10.96ZM40.8262 11.08C42.0662 11.08 43.0302 11.424 43.7182 12.112C44.4142 12.792 44.7622 13.768 44.7622 15.04C44.7622 16.312 44.4142 17.292 43.7182 17.98C43.0302 18.66 42.0662 19 40.8262 19H38.0302V11.08H40.8262ZM40.8262 17.908C41.6662 17.908 42.3062 17.66 42.7462 17.164C43.1942 16.66 43.4182 15.952 43.4182 15.04C43.4182 14.128 43.1942 13.424 42.7462 12.928C42.3062 12.424 41.6662 12.172 40.8262 12.172H39.3142V17.908H40.8262Z" fill="white"/>
<path d="M61.2718 15.244V16.432H57.1798V15.244H61.2718ZM63.2477 19V18.064C64.0077 17.52 64.6437 17.04 65.1557 16.624C65.6757 16.208 66.0917 15.824 66.4037 15.472C66.7157 15.12 66.9397 14.788 67.0757 14.476C67.2197 14.156 67.2917 13.832 67.2917 13.504C67.2917 13.08 67.1597 12.736 66.8957 12.472C66.6317 12.208 66.2637 12.076 65.7917 12.076C65.2957 12.076 64.8997 12.244 64.6037 12.58C64.3157 12.908 64.1517 13.36 64.1117 13.936L62.9957 13.42C63.0517 12.916 63.1997 12.48 63.4397 12.112C63.6797 11.744 64.0037 11.46 64.4117 11.26C64.8277 11.06 65.3077 10.96 65.8517 10.96C66.2997 10.96 66.6917 11.024 67.0277 11.152C67.3717 11.28 67.6597 11.46 67.8917 11.692C68.1237 11.916 68.2997 12.18 68.4197 12.484C68.5477 12.788 68.6117 13.112 68.6117 13.456C68.6117 13.96 68.4877 14.448 68.2397 14.92C67.9917 15.384 67.5997 15.86 67.0637 16.348C66.5277 16.836 65.8237 17.36 64.9517 17.92V17.944C65.0477 17.928 65.1797 17.92 65.3477 17.92C65.5157 17.912 65.6837 17.908 65.8517 17.908C66.0197 17.9 66.1557 17.896 66.2597 17.896H68.7557V19H63.2477ZM78.429 10.96C79.141 10.96 79.757 11.096 80.277 11.368C80.797 11.632 81.237 12.024 81.597 12.544L80.733 13.372C80.429 12.908 80.085 12.576 79.701 12.376C79.325 12.168 78.877 12.064 78.357 12.064C77.973 12.064 77.657 12.116 77.409 12.22C77.161 12.324 76.977 12.464 76.857 12.64C76.745 12.808 76.689 13 76.689 13.216C76.689 13.464 76.773 13.68 76.941 13.864C77.117 14.048 77.441 14.192 77.913 14.296L79.521 14.656C80.289 14.824 80.833 15.08 81.153 15.424C81.473 15.768 81.633 16.204 81.633 16.732C81.633 17.22 81.501 17.644 81.237 18.004C80.973 18.364 80.605 18.64 80.133 18.832C79.669 19.024 79.121 19.12 78.489 19.12C77.929 19.12 77.425 19.048 76.977 18.904C76.529 18.76 76.137 18.564 75.801 18.316C75.465 18.068 75.189 17.784 74.973 17.464L75.861 16.576C76.029 16.856 76.241 17.108 76.497 17.332C76.753 17.548 77.049 17.716 77.385 17.836C77.729 17.956 78.109 18.016 78.525 18.016C78.893 18.016 79.209 17.972 79.473 17.884C79.745 17.796 79.949 17.668 80.085 17.5C80.229 17.324 80.301 17.116 80.301 16.876C80.301 16.644 80.221 16.44 80.061 16.264C79.909 16.088 79.621 15.952 79.197 15.856L77.457 15.46C76.977 15.356 76.581 15.208 76.269 15.016C75.957 14.824 75.725 14.592 75.573 14.32C75.421 14.04 75.345 13.728 75.345 13.384C75.345 12.936 75.465 12.532 75.705 12.172C75.953 11.804 76.309 11.512 76.773 11.296C77.237 11.072 77.789 10.96 78.429 10.96ZM86.8242 11.08C88.0642 11.08 89.0282 11.424 89.7162 12.112C90.4122 12.792 90.7602 13.768 90.7602 15.04C90.7602 16.312 90.4122 17.292 89.7162 17.98C89.0282 18.66 88.0642 19 86.8242 19H84.0282V11.08H86.8242ZM86.8242 17.908C87.6642 17.908 88.3042 17.66 88.7442 17.164C89.1922 16.66 89.4162 15.952 89.4162 15.04C89.4162 14.128 89.1922 13.424 88.7442 12.928C88.3042 12.424 87.6642 12.172 86.8242 12.172H85.3122V17.908H86.8242Z" fill="#141F1E"/>
<path d="M108.506 15.244V16.432H104.414V15.244H108.506ZM112.09 19V13.564C112.09 13.404 112.09 13.24 112.09 13.072C112.098 12.896 112.106 12.712 112.114 12.52C111.842 12.784 111.53 13.012 111.178 13.204C110.834 13.388 110.478 13.52 110.11 13.6L109.87 12.484C110.038 12.46 110.234 12.404 110.458 12.316C110.682 12.228 110.914 12.116 111.154 11.98C111.394 11.844 111.614 11.7 111.814 11.548C112.014 11.388 112.17 11.232 112.282 11.08H113.362V19H112.09ZM123.46 10.96C124.172 10.96 124.788 11.096 125.308 11.368C125.828 11.632 126.268 12.024 126.628 12.544L125.764 13.372C125.46 12.908 125.116 12.576 124.732 12.376C124.356 12.168 123.908 12.064 123.388 12.064C123.004 12.064 122.688 12.116 122.44 12.22C122.192 12.324 122.008 12.464 121.888 12.64C121.776 12.808 121.72 13 121.72 13.216C121.72 13.464 121.804 13.68 121.972 13.864C122.148 14.048 122.472 14.192 122.944 14.296L124.552 14.656C125.32 14.824 125.864 15.08 126.184 15.424C126.504 15.768 126.664 16.204 126.664 16.732C126.664 17.22 126.532 17.644 126.268 18.004C126.004 18.364 125.636 18.64 125.164 18.832C124.7 19.024 124.152 19.12 123.52 19.12C122.96 19.12 122.456 19.048 122.008 18.904C121.56 18.76 121.168 18.564 120.832 18.316C120.496 18.068 120.22 17.784 120.004 17.464L120.892 16.576C121.06 16.856 121.272 17.108 121.528 17.332C121.784 17.548 122.08 17.716 122.416 17.836C122.76 17.956 123.14 18.016 123.556 18.016C123.924 18.016 124.24 17.972 124.504 17.884C124.776 17.796 124.98 17.668 125.116 17.5C125.26 17.324 125.332 17.116 125.332 16.876C125.332 16.644 125.252 16.44 125.092 16.264C124.94 16.088 124.652 15.952 124.228 15.856L122.488 15.46C122.008 15.356 121.612 15.208 121.3 15.016C120.988 14.824 120.756 14.592 120.604 14.32C120.452 14.04 120.376 13.728 120.376 13.384C120.376 12.936 120.496 12.532 120.736 12.172C120.984 11.804 121.34 11.512 121.804 11.296C122.268 11.072 122.82 10.96 123.46 10.96ZM131.855 11.08C133.095 11.08 134.059 11.424 134.747 12.112C135.443 12.792 135.791 13.768 135.791 15.04C135.791 16.312 135.443 17.292 134.747 17.98C134.059 18.66 133.095 19 131.855 19H129.059V11.08H131.855ZM131.855 17.908C132.695 17.908 133.335 17.66 133.775 17.164C134.223 16.66 134.447 15.952 134.447 15.04C134.447 14.128 134.223 13.424 133.775 12.928C133.335 12.424 132.695 12.172 131.855 12.172H130.343V17.908H131.855Z" fill="#141F1E"/>
<path d="M155.059 19.12C154.107 19.12 153.359 18.776 152.815 18.088C152.279 17.392 152.011 16.376 152.011 15.04C152.011 13.704 152.279 12.692 152.815 12.004C153.359 11.308 154.107 10.96 155.059 10.96C156.019 10.96 156.767 11.308 157.303 12.004C157.847 12.692 158.119 13.704 158.119 15.04C158.119 16.376 157.847 17.392 157.303 18.088C156.767 18.776 156.019 19.12 155.059 19.12ZM155.059 18.028C155.443 18.028 155.763 17.92 156.019 17.704C156.283 17.48 156.479 17.148 156.607 16.708C156.743 16.26 156.811 15.704 156.811 15.04C156.811 14.376 156.743 13.824 156.607 13.384C156.479 12.936 156.283 12.604 156.019 12.388C155.763 12.164 155.443 12.052 155.059 12.052C154.675 12.052 154.351 12.164 154.087 12.388C153.831 12.604 153.639 12.936 153.511 13.384C153.383 13.824 153.319 14.376 153.319 15.04C153.319 15.704 153.383 16.26 153.511 16.708C153.639 17.148 153.831 17.48 154.087 17.704C154.351 17.92 154.675 18.028 155.059 18.028ZM167.805 10.96C168.517 10.96 169.133 11.096 169.653 11.368C170.173 11.632 170.613 12.024 170.973 12.544L170.109 13.372C169.805 12.908 169.461 12.576 169.077 12.376C168.701 12.168 168.253 12.064 167.733 12.064C167.349 12.064 167.033 12.116 166.785 12.22C166.537 12.324 166.353 12.464 166.233 12.64C166.121 12.808 166.065 13 166.065 13.216C166.065 13.464 166.149 13.68 166.317 13.864C166.493 14.048 166.817 14.192 167.289 14.296L168.897 14.656C169.665 14.824 170.209 15.08 170.529 15.424C170.849 15.768 171.009 16.204 171.009 16.732C171.009 17.22 170.877 17.644 170.613 18.004C170.349 18.364 169.981 18.64 169.509 18.832C169.045 19.024 168.497 19.12 167.865 19.12C167.305 19.12 166.801 19.048 166.353 18.904C165.905 18.76 165.513 18.564 165.177 18.316C164.841 18.068 164.565 17.784 164.349 17.464L165.237 16.576C165.405 16.856 165.617 17.108 165.873 17.332C166.129 17.548 166.425 17.716 166.761 17.836C167.105 17.956 167.485 18.016 167.901 18.016C168.269 18.016 168.585 17.972 168.849 17.884C169.121 17.796 169.325 17.668 169.461 17.5C169.605 17.324 169.677 17.116 169.677 16.876C169.677 16.644 169.597 16.44 169.437 16.264C169.285 16.088 168.997 15.952 168.573 15.856L166.833 15.46C166.353 15.356 165.957 15.208 165.645 15.016C165.333 14.824 165.101 14.592 164.949 14.32C164.797 14.04 164.721 13.728 164.721 13.384C164.721 12.936 164.841 12.532 165.081 12.172C165.329 11.804 165.685 11.512 166.149 11.296C166.613 11.072 167.165 10.96 167.805 10.96ZM176.2 11.08C177.44 11.08 178.404 11.424 179.092 12.112C179.788 12.792 180.136 13.768 180.136 15.04C180.136 16.312 179.788 17.292 179.092 17.98C178.404 18.66 177.44 19 176.2 19H173.404V11.08H176.2ZM176.2 17.908C177.04 17.908 177.68 17.66 178.12 17.164C178.568 16.66 178.792 15.952 178.792 15.04C178.792 14.128 178.568 13.424 178.12 12.928C177.68 12.424 177.04 12.172 176.2 12.172H174.688V17.908H176.2Z" fill="#141F1E"/>
<path d="M199.091 12.136V18.208H197.975V12.136H199.091ZM201.479 14.632V15.7H195.575V14.632H201.479ZM205.088 19V13.564C205.088 13.404 205.088 13.24 205.088 13.072C205.096 12.896 205.104 12.712 205.112 12.52C204.84 12.784 204.528 13.012 204.176 13.204C203.832 13.388 203.476 13.52 203.108 13.6L202.868 12.484C203.036 12.46 203.232 12.404 203.456 12.316C203.68 12.228 203.912 12.116 204.152 11.98C204.392 11.844 204.612 11.7 204.812 11.548C205.012 11.388 205.168 11.232 205.28 11.08H206.36V19H205.088ZM216.458 10.96C217.17 10.96 217.786 11.096 218.306 11.368C218.826 11.632 219.266 12.024 219.626 12.544L218.762 13.372C218.458 12.908 218.114 12.576 217.73 12.376C217.354 12.168 216.906 12.064 216.386 12.064C216.002 12.064 215.686 12.116 215.438 12.22C215.19 12.324 215.006 12.464 214.886 12.64C214.774 12.808 214.718 13 214.718 13.216C214.718 13.464 214.802 13.68 214.97 13.864C215.146 14.048 215.47 14.192 215.942 14.296L217.55 14.656C218.318 14.824 218.862 15.08 219.182 15.424C219.502 15.768 219.662 16.204 219.662 16.732C219.662 17.22 219.53 17.644 219.266 18.004C219.002 18.364 218.634 18.64 218.162 18.832C217.698 19.024 217.15 19.12 216.518 19.12C215.958 19.12 215.454 19.048 215.006 18.904C214.558 18.76 214.166 18.564 213.83 18.316C213.494 18.068 213.218 17.784 213.002 17.464L213.89 16.576C214.058 16.856 214.27 17.108 214.526 17.332C214.782 17.548 215.078 17.716 215.414 17.836C215.758 17.956 216.138 18.016 216.554 18.016C216.922 18.016 217.238 17.972 217.502 17.884C217.774 17.796 217.978 17.668 218.114 17.5C218.258 17.324 218.33 17.116 218.33 16.876C218.33 16.644 218.25 16.44 218.09 16.264C217.938 16.088 217.65 15.952 217.226 15.856L215.486 15.46C215.006 15.356 214.61 15.208 214.298 15.016C213.986 14.824 213.754 14.592 213.602 14.32C213.45 14.04 213.374 13.728 213.374 13.384C213.374 12.936 213.494 12.532 213.734 12.172C213.982 11.804 214.338 11.512 214.802 11.296C215.266 11.072 215.818 10.96 216.458 10.96ZM224.854 11.08C226.094 11.08 227.058 11.424 227.746 12.112C228.442 12.792 228.79 13.768 228.79 15.04C228.79 16.312 228.442 17.292 227.746 17.98C227.058 18.66 226.094 19 224.854 19H222.058V11.08H224.854ZM224.854 17.908C225.694 17.908 226.334 17.66 226.774 17.164C227.222 16.66 227.446 15.952 227.446 15.04C227.446 14.128 227.222 13.424 226.774 12.928C226.334 12.424 225.694 12.172 224.854 12.172H223.342V17.908H224.854Z" fill="#141F1E"/>
<path d="M244.156 12.136V18.208H243.04V12.136H244.156ZM246.544 14.632V15.7H240.64V14.632H246.544ZM248.474 19V18.064C249.234 17.52 249.87 17.04 250.382 16.624C250.902 16.208 251.318 15.824 251.63 15.472C251.942 15.12 252.166 14.788 252.302 14.476C252.446 14.156 252.518 13.832 252.518 13.504C252.518 13.08 252.386 12.736 252.122 12.472C251.858 12.208 251.49 12.076 251.018 12.076C250.522 12.076 250.126 12.244 249.83 12.58C249.542 12.908 249.378 13.36 249.338 13.936L248.222 13.42C248.278 12.916 248.426 12.48 248.666 12.112C248.906 11.744 249.23 11.46 249.638 11.26C250.054 11.06 250.534 10.96 251.078 10.96C251.526 10.96 251.918 11.024 252.254 11.152C252.598 11.28 252.886 11.46 253.118 11.692C253.35 11.916 253.526 12.18 253.646 12.484C253.774 12.788 253.838 13.112 253.838 13.456C253.838 13.96 253.714 14.448 253.466 14.92C253.218 15.384 252.826 15.86 252.29 16.348C251.754 16.836 251.05 17.36 250.178 17.92V17.944C250.274 17.928 250.406 17.92 250.574 17.92C250.742 17.912 250.91 17.908 251.078 17.908C251.246 17.9 251.382 17.896 251.486 17.896H253.982V19H248.474ZM263.656 10.96C264.368 10.96 264.984 11.096 265.504 11.368C266.024 11.632 266.464 12.024 266.824 12.544L265.96 13.372C265.656 12.908 265.312 12.576 264.928 12.376C264.552 12.168 264.104 12.064 263.584 12.064C263.2 12.064 262.884 12.116 262.636 12.22C262.388 12.324 262.204 12.464 262.084 12.64C261.972 12.808 261.916 13 261.916 13.216C261.916 13.464 262 13.68 262.168 13.864C262.344 14.048 262.668 14.192 263.14 14.296L264.748 14.656C265.516 14.824 266.06 15.08 266.38 15.424C266.7 15.768 266.86 16.204 266.86 16.732C266.86 17.22 266.728 17.644 266.464 18.004C266.2 18.364 265.832 18.64 265.36 18.832C264.896 19.024 264.348 19.12 263.716 19.12C263.156 19.12 262.652 19.048 262.204 18.904C261.756 18.76 261.364 18.564 261.028 18.316C260.692 18.068 260.416 17.784 260.2 17.464L261.088 16.576C261.256 16.856 261.468 17.108 261.724 17.332C261.98 17.548 262.276 17.716 262.612 17.836C262.956 17.956 263.336 18.016 263.752 18.016C264.12 18.016 264.436 17.972 264.7 17.884C264.972 17.796 265.176 17.668 265.312 17.5C265.456 17.324 265.528 17.116 265.528 16.876C265.528 16.644 265.448 16.44 265.288 16.264C265.136 16.088 264.848 15.952 264.424 15.856L262.684 15.46C262.204 15.356 261.808 15.208 261.496 15.016C261.184 14.824 260.952 14.592 260.8 14.32C260.648 14.04 260.572 13.728 260.572 13.384C260.572 12.936 260.692 12.532 260.932 12.172C261.18 11.804 261.536 11.512 262 11.296C262.464 11.072 263.016 10.96 263.656 10.96ZM272.051 11.08C273.291 11.08 274.255 11.424 274.943 12.112C275.639 12.792 275.987 13.768 275.987 15.04C275.987 16.312 275.639 17.292 274.943 17.98C274.255 18.66 273.291 19 272.051 19H269.255V11.08H272.051ZM272.051 17.908C272.891 17.908 273.531 17.66 273.971 17.164C274.419 16.66 274.643 15.952 274.643 15.04C274.643 14.128 274.419 13.424 273.971 12.928C273.531 12.424 272.891 12.172 272.051 12.172H270.539V17.908H272.051Z" fill="#141F1E"/>
<path d="M290.289 12.136V18.208H289.173V12.136H290.289ZM292.677 14.632V15.7H286.773V14.632H292.677ZM297.295 19.12C296.551 19.12 295.903 18.956 295.351 18.628C294.807 18.292 294.435 17.824 294.235 17.224L295.483 16.636C295.555 16.924 295.667 17.172 295.819 17.38C295.971 17.588 296.171 17.748 296.419 17.86C296.667 17.964 296.975 18.016 297.343 18.016C297.655 18.016 297.919 17.96 298.135 17.848C298.351 17.736 298.515 17.58 298.627 17.38C298.747 17.18 298.807 16.952 298.807 16.696C298.807 16.432 298.755 16.212 298.651 16.036C298.555 15.86 298.399 15.732 298.183 15.652C297.975 15.572 297.707 15.532 297.379 15.532C297.283 15.532 297.183 15.536 297.079 15.544C296.983 15.544 296.879 15.552 296.767 15.568V14.488C296.839 14.496 296.907 14.504 296.971 14.512C297.043 14.512 297.111 14.512 297.175 14.512C297.695 14.512 298.067 14.408 298.291 14.2C298.515 13.992 298.627 13.668 298.627 13.228C298.627 12.852 298.511 12.564 298.279 12.364C298.055 12.164 297.731 12.064 297.307 12.064C296.867 12.064 296.523 12.168 296.275 12.376C296.035 12.576 295.851 12.868 295.723 13.252L294.547 12.76C294.659 12.392 294.847 12.072 295.111 11.8C295.375 11.528 295.699 11.32 296.083 11.176C296.475 11.024 296.903 10.948 297.367 10.948C297.935 10.948 298.407 11.04 298.783 11.224C299.167 11.408 299.451 11.66 299.635 11.98C299.827 12.3 299.923 12.656 299.923 13.048C299.923 13.352 299.879 13.62 299.791 13.852C299.703 14.076 299.583 14.272 299.431 14.44C299.287 14.6 299.127 14.724 298.951 14.812C298.783 14.9 298.611 14.96 298.435 14.992V15.016C298.667 15.024 298.879 15.072 299.071 15.16C299.271 15.24 299.447 15.356 299.599 15.508C299.759 15.652 299.883 15.828 299.971 16.036C300.059 16.244 300.103 16.472 300.103 16.72C300.103 17.2 299.983 17.62 299.743 17.98C299.503 18.34 299.171 18.62 298.747 18.82C298.331 19.02 297.847 19.12 297.295 19.12ZM309.788 10.96C310.5 10.96 311.116 11.096 311.636 11.368C312.156 11.632 312.596 12.024 312.956 12.544L312.092 13.372C311.788 12.908 311.444 12.576 311.06 12.376C310.684 12.168 310.236 12.064 309.716 12.064C309.332 12.064 309.016 12.116 308.768 12.22C308.52 12.324 308.336 12.464 308.216 12.64C308.104 12.808 308.048 13 308.048 13.216C308.048 13.464 308.132 13.68 308.3 13.864C308.476 14.048 308.8 14.192 309.272 14.296L310.88 14.656C311.648 14.824 312.192 15.08 312.512 15.424C312.832 15.768 312.992 16.204 312.992 16.732C312.992 17.22 312.86 17.644 312.596 18.004C312.332 18.364 311.964 18.64 311.492 18.832C311.028 19.024 310.48 19.12 309.848 19.12C309.288 19.12 308.784 19.048 308.336 18.904C307.888 18.76 307.496 18.564 307.16 18.316C306.824 18.068 306.548 17.784 306.332 17.464L307.22 16.576C307.388 16.856 307.6 17.108 307.856 17.332C308.112 17.548 308.408 17.716 308.744 17.836C309.088 17.956 309.468 18.016 309.884 18.016C310.252 18.016 310.568 17.972 310.832 17.884C311.104 17.796 311.308 17.668 311.444 17.5C311.588 17.324 311.66 17.116 311.66 16.876C311.66 16.644 311.58 16.44 311.42 16.264C311.268 16.088 310.98 15.952 310.556 15.856L308.816 15.46C308.336 15.356 307.94 15.208 307.628 15.016C307.316 14.824 307.084 14.592 306.932 14.32C306.78 14.04 306.704 13.728 306.704 13.384C306.704 12.936 306.824 12.532 307.064 12.172C307.312 11.804 307.668 11.512 308.132 11.296C308.596 11.072 309.148 10.96 309.788 10.96ZM318.184 11.08C319.424 11.08 320.388 11.424 321.076 12.112C321.772 12.792 322.12 13.768 322.12 15.04C322.12 16.312 321.772 17.292 321.076 17.98C320.388 18.66 319.424 19 318.184 19H315.388V11.08H318.184ZM318.184 17.908C319.024 17.908 319.664 17.66 320.104 17.164C320.552 16.66 320.776 15.952 320.776 15.04C320.776 14.128 320.552 13.424 320.104 12.928C319.664 12.424 319.024 12.172 318.184 12.172H316.672V17.908H318.184Z" fill="white"/>
</svg>
