<svg width="344" height="259" viewBox="0 0 344 259" fill="none" xmlns="http://www.w3.org/2000/svg">
<path d="M325.173 162.399C324.969 154.874 325.553 142.041 318.956 136.758C313.16 132.119 308.654 138.415 307.027 143.493C303.087 155.814 304.936 169.4 304.948 182.118C304.948 182.311 304.948 182.504 304.948 182.721C304.641 192.083 303.514 202.211 304.539 211.555C304.539 211.555 303.533 202.193 296.182 206.205C288.832 210.218 299.857 231.274 299.857 231.274C299.857 231.274 291.17 224.924 287.157 230.274C283.145 235.624 292.17 241.637 292.17 241.637C292.17 241.637 283.813 239.299 283.813 241.637C283.813 243.974 286.488 245.981 294.176 246.987H335.614C335.614 246.987 342.302 243.306 340.964 239.299C339.627 235.293 332.602 237.6 332.602 237.6C332.602 237.6 343.302 224.563 342.633 218.881C341.965 213.2 328.258 219.887 328.258 219.887C328.258 219.887 338.952 192.812 336.946 180.781C335.367 171.304 328.011 177.768 324.005 181.431C324.948 175.133 325.339 168.765 325.173 162.399Z" fill="#92E3A9" stroke="white" stroke-linecap="round" stroke-linejoin="round"/>
<path opacity="0.5" d="M325.173 162.399C324.969 154.874 325.553 142.041 318.956 136.758C313.16 132.119 308.654 138.415 307.027 143.493C303.087 155.814 304.936 169.4 304.948 182.118C304.948 182.311 304.948 182.504 304.948 182.721C304.641 192.083 303.514 202.211 304.539 211.555C304.539 211.555 303.533 202.193 296.182 206.205C288.832 210.218 299.857 231.274 299.857 231.274C299.857 231.274 291.17 224.924 287.157 230.274C283.145 235.624 292.17 241.637 292.17 241.637C292.17 241.637 283.813 239.299 283.813 241.637C283.813 243.974 286.488 245.981 294.176 246.987H335.614C335.614 246.987 342.302 243.306 340.964 239.299C339.627 235.293 332.602 237.6 332.602 237.6C332.602 237.6 343.302 224.563 342.633 218.881C341.965 213.2 328.258 219.887 328.258 219.887C328.258 219.887 338.952 192.812 336.946 180.781C335.367 171.304 328.011 177.768 324.005 181.431C324.948 175.133 325.339 168.765 325.173 162.399Z" fill="white"/>
<path d="M311.877 246.625L314.889 154.706" stroke="white" stroke-linecap="round" stroke-linejoin="round"/>
<path d="M313.552 208.187L329.259 193.481" stroke="white" stroke-linecap="round" stroke-linejoin="round"/>
<path d="M320.902 201.5L324.246 192.143" stroke="white" stroke-linecap="round" stroke-linejoin="round"/>
<path d="M300.514 219.55L312.546 232.588" stroke="white" stroke-linecap="round" stroke-linejoin="round"/>
<path d="M332.602 226.906L312.545 237.269" stroke="white" stroke-linecap="round" stroke-linejoin="round"/>
<path d="M321.908 232.919L329.258 232.588" stroke="white" stroke-linecap="round" stroke-linejoin="round"/>
<path d="M311.877 246.625L314.889 154.706" stroke="#92E3A9" stroke-linecap="round" stroke-linejoin="round"/>
<path d="M313.552 208.187L329.259 193.481" stroke="#92E3A9" stroke-linecap="round" stroke-linejoin="round"/>
<path d="M320.902 201.5L324.246 192.143" stroke="#92E3A9" stroke-linecap="round" stroke-linejoin="round"/>
<path d="M300.514 219.55L312.546 232.588" stroke="#92E3A9" stroke-linecap="round" stroke-linejoin="round"/>
<path d="M332.602 226.906L312.545 237.269" stroke="#92E3A9" stroke-linecap="round" stroke-linejoin="round"/>
<path d="M321.908 232.919L329.258 232.588" stroke="#92E3A9" stroke-linecap="round" stroke-linejoin="round"/>
<g opacity="0.8">
<path d="M311.877 246.625L314.889 154.706" stroke="white" stroke-linecap="round" stroke-linejoin="round"/>
<path d="M313.552 208.187L329.259 193.481" stroke="white" stroke-linecap="round" stroke-linejoin="round"/>
<path d="M320.902 201.5L324.246 192.143" stroke="white" stroke-linecap="round" stroke-linejoin="round"/>
<path d="M300.514 219.55L312.546 232.588" stroke="white" stroke-linecap="round" stroke-linejoin="round"/>
<path d="M332.602 226.907L312.545 237.269" stroke="white" stroke-linecap="round" stroke-linejoin="round"/>
<path d="M321.909 232.919L329.259 232.588" stroke="white" stroke-linecap="round" stroke-linejoin="round"/>
</g>
<path d="M254.461 228.051C254.461 237.396 261.866 244.975 261.866 244.975C261.866 244.975 269.27 237.396 269.27 228.051C269.27 218.707 261.866 211.128 261.866 211.128C261.866 211.128 254.461 218.701 254.461 228.051Z" fill="#92E3A9"/>
<path d="M249.329 242.468C252.943 246.523 259.053 246.963 259.053 246.963C259.053 246.963 259.348 240.824 255.757 236.769C252.166 232.714 246.033 232.274 246.033 232.274C246.033 232.274 245.732 238.414 249.329 242.468Z" fill="#92E3A9"/>
<path d="M268.198 236.63C264.42 240.516 264.444 246.662 264.444 246.662C264.444 246.662 270.584 246.499 274.355 242.607C278.127 238.715 278.115 232.576 278.115 232.576C278.115 232.576 271.969 232.738 268.198 236.63Z" fill="#92E3A9"/>
<g opacity="0.5">
<path d="M254.461 228.051C254.461 237.396 261.866 244.975 261.866 244.975C261.866 244.975 269.27 237.396 269.27 228.051C269.27 218.707 261.866 211.128 261.866 211.128C261.866 211.128 254.461 218.701 254.461 228.051Z" fill="white"/>
<path d="M261.866 244.975V211.128" stroke="white" stroke-linecap="round" stroke-linejoin="round"/>
<path d="M261.866 223.159L257.721 219.538" stroke="white" stroke-linecap="round" stroke-linejoin="round"/>
<path d="M261.932 228.75L267.065 221.315" stroke="white" stroke-linecap="round" stroke-linejoin="round"/>
<path d="M261.866 231.973L255.745 226.515" stroke="white" stroke-linecap="round" stroke-linejoin="round"/>
<path d="M261.932 236.317L267.987 230.925" stroke="white" stroke-linecap="round" stroke-linejoin="round"/>
<path d="M261.931 240.07L257.19 236.317" stroke="white" stroke-linecap="round" stroke-linejoin="round"/>
<path d="M249.329 242.468C252.943 246.523 259.053 246.963 259.053 246.963C259.053 246.963 259.348 240.824 255.757 236.769C252.166 232.714 246.033 232.274 246.033 232.274C246.033 232.274 245.732 238.414 249.329 242.468Z" fill="white"/>
<path d="M259.053 246.963L246.033 232.274" stroke="white" stroke-linecap="round" stroke-linejoin="round"/>
<path d="M250.66 237.498L247.467 237.522" stroke="white" stroke-linecap="round" stroke-linejoin="round"/>
<path d="M252.841 239.896L252.208 234.697" stroke="white" stroke-linecap="round" stroke-linejoin="round"/>
<path d="M254.052 241.324L249.298 241.306" stroke="white" stroke-linecap="round" stroke-linejoin="round"/>
<path d="M255.751 243.179L256.299 238.51" stroke="white" stroke-linecap="round" stroke-linejoin="round"/>
<path d="M257.197 244.806L253.697 245.005" stroke="white" stroke-linecap="round" stroke-linejoin="round"/>
<path d="M268.198 236.63C264.42 240.516 264.444 246.662 264.444 246.662C264.444 246.662 270.584 246.499 274.355 242.607C278.127 238.715 278.115 232.576 278.115 232.576C278.115 232.576 271.969 232.738 268.198 236.63Z" fill="white"/>
<path d="M264.444 246.662L278.115 232.576" stroke="white" stroke-linecap="round" stroke-linejoin="round"/>
<path d="M273.252 237.582L272.993 234.401" stroke="white" stroke-linecap="round" stroke-linejoin="round"/>
<path d="M271.023 239.938L276.162 238.914" stroke="white" stroke-linecap="round" stroke-linejoin="round"/>
<path d="M269.692 241.252L269.354 236.51" stroke="white" stroke-linecap="round" stroke-linejoin="round"/>
<path d="M267.963 243.083L272.662 243.288" stroke="white" stroke-linecap="round" stroke-linejoin="round"/>
<path d="M266.451 244.643L265.993 241.173" stroke="white" stroke-linecap="round" stroke-linejoin="round"/>
</g>
<path d="M261.865 244.975V211.128" stroke="#92E3A9" stroke-linecap="round" stroke-linejoin="round"/>
<path d="M261.866 223.159L257.721 219.538" stroke="#92E3A9" stroke-linecap="round" stroke-linejoin="round"/>
<path d="M261.932 228.75L267.065 221.315" stroke="#92E3A9" stroke-linecap="round" stroke-linejoin="round"/>
<path d="M261.865 231.973L255.744 226.515" stroke="#92E3A9" stroke-linecap="round" stroke-linejoin="round"/>
<path d="M261.932 236.317L267.987 230.925" stroke="#92E3A9" stroke-linecap="round" stroke-linejoin="round"/>
<path d="M261.931 240.07L257.19 236.317" stroke="#92E3A9" stroke-linecap="round" stroke-linejoin="round"/>
<g opacity="0.7">
<path d="M261.866 244.975V211.128" stroke="white" stroke-linecap="round" stroke-linejoin="round"/>
<path d="M261.867 223.159L257.722 219.538" stroke="white" stroke-linecap="round" stroke-linejoin="round"/>
<path d="M261.932 228.75L267.065 221.315" stroke="white" stroke-linecap="round" stroke-linejoin="round"/>
<path d="M261.866 231.973L255.745 226.515" stroke="white" stroke-linecap="round" stroke-linejoin="round"/>
<path d="M261.932 236.317L267.987 230.925" stroke="white" stroke-linecap="round" stroke-linejoin="round"/>
<path d="M261.932 240.07L257.191 236.317" stroke="white" stroke-linecap="round" stroke-linejoin="round"/>
</g>
<path d="M259.052 246.963L246.032 232.274" stroke="#92E3A9" stroke-linecap="round" stroke-linejoin="round"/>
<path d="M250.659 237.498L247.466 237.522" stroke="#92E3A9" stroke-linecap="round" stroke-linejoin="round"/>
<path d="M252.841 239.896L252.208 234.697" stroke="#92E3A9" stroke-linecap="round" stroke-linejoin="round"/>
<path d="M254.051 241.324L249.297 241.306" stroke="#92E3A9" stroke-linecap="round" stroke-linejoin="round"/>
<path d="M255.75 243.179L256.298 238.51" stroke="#92E3A9" stroke-linecap="round" stroke-linejoin="round"/>
<path d="M257.196 244.806L253.696 245.005" stroke="#92E3A9" stroke-linecap="round" stroke-linejoin="round"/>
<g opacity="0.7">
<path d="M259.052 246.963L246.032 232.274" stroke="white" stroke-linecap="round" stroke-linejoin="round"/>
<path d="M250.659 237.498L247.466 237.522" stroke="white" stroke-linecap="round" stroke-linejoin="round"/>
<path d="M252.841 239.896L252.208 234.696" stroke="white" stroke-linecap="round" stroke-linejoin="round"/>
<path d="M254.051 241.324L249.297 241.306" stroke="white" stroke-linecap="round" stroke-linejoin="round"/>
<path d="M255.75 243.179L256.298 238.51" stroke="white" stroke-linecap="round" stroke-linejoin="round"/>
<path d="M257.196 244.806L253.696 245.005" stroke="white" stroke-linecap="round" stroke-linejoin="round"/>
</g>
<path d="M264.444 246.662L278.115 232.576" stroke="#92E3A9" stroke-linecap="round" stroke-linejoin="round"/>
<path d="M273.252 237.582L272.993 234.401" stroke="#92E3A9" stroke-linecap="round" stroke-linejoin="round"/>
<path d="M271.023 239.938L276.162 238.914" stroke="#92E3A9" stroke-linecap="round" stroke-linejoin="round"/>
<path d="M269.691 241.252L269.354 236.51" stroke="#92E3A9" stroke-linecap="round" stroke-linejoin="round"/>
<path d="M267.963 243.083L272.662 243.288" stroke="#92E3A9" stroke-linecap="round" stroke-linejoin="round"/>
<path d="M266.451 244.643L265.993 241.173" stroke="#92E3A9" stroke-linecap="round" stroke-linejoin="round"/>
<g opacity="0.7">
<path d="M264.445 246.662L278.116 232.576" stroke="white" stroke-linecap="round" stroke-linejoin="round"/>
<path d="M273.253 237.582L272.994 234.401" stroke="white" stroke-linecap="round" stroke-linejoin="round"/>
<path d="M271.024 239.938L276.164 238.914" stroke="white" stroke-linecap="round" stroke-linejoin="round"/>
<path d="M269.693 241.252L269.356 236.51" stroke="white" stroke-linecap="round" stroke-linejoin="round"/>
<path d="M267.964 243.083L272.663 243.288" stroke="white" stroke-linecap="round" stroke-linejoin="round"/>
<path d="M266.452 244.643L265.994 241.173" stroke="white" stroke-linecap="round" stroke-linejoin="round"/>
</g>
<path d="M18.8263 162.399C19.0251 154.874 18.4468 142.041 25.0439 136.758C30.8397 132.119 35.3462 138.414 36.9669 143.493C40.9131 155.814 39.0575 169.4 39.0514 182.118C39.0514 182.311 39.0514 182.504 39.0514 182.721C39.3647 192.083 40.4853 202.211 39.4672 211.555C39.4672 211.555 40.4673 202.193 47.8235 206.205C55.1798 210.218 44.1424 231.274 44.1424 231.274C44.1424 231.274 52.8361 224.924 56.8486 230.274C60.8611 235.624 51.8481 241.613 51.8481 241.613C51.8481 241.613 60.2044 239.275 60.2044 241.613C60.2044 243.95 57.5294 245.957 49.8418 246.963H8.38539C8.38539 246.963 1.6979 243.282 3.0354 239.275C4.37289 235.269 11.3917 237.6 11.3917 237.6C11.3917 237.6 0.697784 224.563 1.36653 218.881C2.03528 213.2 15.7416 219.887 15.7416 219.887C15.7416 219.887 5.04164 192.812 7.04789 180.799C8.62638 171.322 15.9886 177.786 19.9891 181.449C19.0469 175.145 18.6579 168.771 18.8263 162.399Z" fill="#92E3A9" stroke="white" stroke-linecap="round" stroke-linejoin="round"/>
<path opacity="0.5" d="M18.8263 162.399C19.0251 154.874 18.4468 142.041 25.0439 136.758C30.8397 132.119 35.3462 138.414 36.9669 143.493C40.9131 155.814 39.0575 169.4 39.0514 182.118C39.0514 182.311 39.0514 182.504 39.0514 182.721C39.3647 192.083 40.4853 202.211 39.4672 211.555C39.4672 211.555 40.4673 202.193 47.8235 206.205C55.1798 210.218 44.1424 231.274 44.1424 231.274C44.1424 231.274 52.8361 224.924 56.8486 230.274C60.8611 235.624 51.8481 241.613 51.8481 241.613C51.8481 241.613 60.2044 239.275 60.2044 241.613C60.2044 243.95 57.5294 245.957 49.8418 246.963H8.38539C8.38539 246.963 1.6979 243.282 3.0354 239.275C4.37289 235.269 11.3917 237.6 11.3917 237.6C11.3917 237.6 0.697784 224.563 1.36653 218.881C2.03528 213.2 15.7416 219.887 15.7416 219.887C15.7416 219.887 5.04164 192.812 7.04789 180.799C8.62638 171.322 15.9886 177.786 19.9891 181.449C19.0469 175.145 18.6579 168.771 18.8263 162.399Z" fill="white"/>
<path d="M32.1167 246.625L29.1104 154.706" stroke="white" stroke-linecap="round" stroke-linejoin="round"/>
<path d="M30.4479 208.187L14.7354 193.481" stroke="white" stroke-linecap="round" stroke-linejoin="round"/>
<path d="M23.0928 201.5L19.749 192.143" stroke="white" stroke-linecap="round" stroke-linejoin="round"/>
<path d="M43.4792 219.55L31.4478 232.588" stroke="white" stroke-linecap="round" stroke-linejoin="round"/>
<path d="M11.3916 226.906L31.4481 237.269" stroke="white" stroke-linecap="round" stroke-linejoin="round"/>
<path d="M22.0916 232.919L14.7354 232.588" stroke="white" stroke-linecap="round" stroke-linejoin="round"/>
<path d="M32.1167 246.625L29.1104 154.706" stroke="#92E3A9" stroke-linecap="round" stroke-linejoin="round"/>
<path d="M30.4479 208.187L14.7354 193.481" stroke="#92E3A9" stroke-linecap="round" stroke-linejoin="round"/>
<path d="M23.0928 201.5L19.749 192.143" stroke="#92E3A9" stroke-linecap="round" stroke-linejoin="round"/>
<path d="M43.4792 219.55L31.4478 232.588" stroke="#92E3A9" stroke-linecap="round" stroke-linejoin="round"/>
<path d="M11.3916 226.906L31.4481 237.269" stroke="#92E3A9" stroke-linecap="round" stroke-linejoin="round"/>
<path d="M22.0916 232.919L14.7354 232.588" stroke="#92E3A9" stroke-linecap="round" stroke-linejoin="round"/>
<g opacity="0.8">
<path d="M32.1167 246.625L29.1104 154.706" stroke="white" stroke-linecap="round" stroke-linejoin="round"/>
<path d="M30.4479 208.187L14.7354 193.481" stroke="white" stroke-linecap="round" stroke-linejoin="round"/>
<path d="M23.0928 201.5L19.749 192.143" stroke="white" stroke-linecap="round" stroke-linejoin="round"/>
<path d="M43.4797 219.55L31.4482 232.588" stroke="white" stroke-linecap="round" stroke-linejoin="round"/>
<path d="M11.3916 226.907L31.4481 237.269" stroke="white" stroke-linecap="round" stroke-linejoin="round"/>
<path d="M22.0916 232.919L14.7354 232.588" stroke="white" stroke-linecap="round" stroke-linejoin="round"/>
</g>
<path d="M90.7436 228.051C90.7436 237.396 83.3392 244.975 83.3392 244.975C83.3392 244.975 75.9468 237.396 75.9468 228.051C75.9468 218.707 83.3512 211.128 83.3512 211.128C83.3512 211.128 90.7436 218.701 90.7436 228.051Z" fill="#92E3A9"/>
<path d="M95.871 242.468C92.2561 246.523 86.147 246.963 86.147 246.963C86.147 246.963 85.8518 240.824 89.4486 236.769C93.0453 232.714 99.1725 232.274 99.1725 232.274C99.1725 232.274 99.4437 238.414 95.871 242.468Z" fill="#92E3A9"/>
<path d="M77.0071 236.63C80.7786 240.516 80.7605 246.662 80.7605 246.662C80.7605 246.662 74.6213 246.499 70.8438 242.607C67.0662 238.715 67.0903 232.576 67.0903 232.576C67.0903 232.576 73.2296 232.738 77.0071 236.63Z" fill="#92E3A9"/>
<g opacity="0.5">
<path d="M90.7431 228.051C90.7431 237.396 83.3387 244.975 83.3387 244.975C83.3387 244.975 75.9463 237.396 75.9463 228.051C75.9463 218.707 83.3507 211.128 83.3507 211.128C83.3507 211.128 90.7431 218.701 90.7431 228.051Z" fill="white"/>
<path d="M83.3379 244.975V211.128" stroke="white" stroke-linecap="round" stroke-linejoin="round"/>
<path d="M83.3379 223.159L87.4829 219.538" stroke="white" stroke-linecap="round" stroke-linejoin="round"/>
<path d="M83.2718 228.75L78.1387 221.315" stroke="white" stroke-linecap="round" stroke-linejoin="round"/>
<path d="M83.3379 231.973L89.459 226.515" stroke="white" stroke-linecap="round" stroke-linejoin="round"/>
<path d="M83.2717 236.317L77.2168 230.925" stroke="white" stroke-linecap="round" stroke-linejoin="round"/>
<path d="M83.272 240.07L88.0074 236.317" stroke="white" stroke-linecap="round" stroke-linejoin="round"/>
<path d="M95.8695 242.468C92.2546 246.523 86.1455 246.963 86.1455 246.963C86.1455 246.963 85.8503 240.824 89.4471 236.769C93.0439 232.714 99.1711 232.274 99.1711 232.274C99.1711 232.274 99.4422 238.414 95.8695 242.468Z" fill="white"/>
<path d="M86.146 246.963L99.1715 232.274" stroke="white" stroke-linecap="round" stroke-linejoin="round"/>
<path d="M94.5435 237.498L97.7306 237.522" stroke="white" stroke-linecap="round" stroke-linejoin="round"/>
<path d="M92.3633 239.896L92.9959 234.697" stroke="white" stroke-linecap="round" stroke-linejoin="round"/>
<path d="M91.146 241.324L95.9056 241.306" stroke="white" stroke-linecap="round" stroke-linejoin="round"/>
<path d="M89.4477 243.179L88.8994 238.51" stroke="white" stroke-linecap="round" stroke-linejoin="round"/>
<path d="M88.0073 244.806L91.5077 245.005" stroke="white" stroke-linecap="round" stroke-linejoin="round"/>
<path d="M77.0066 236.63C80.7781 240.516 80.76 246.662 80.76 246.662C80.76 246.662 74.6208 246.499 70.8433 242.607C67.0657 238.715 67.0898 232.576 67.0898 232.576C67.0898 232.576 73.2291 232.738 77.0066 236.63Z" fill="white"/>
<path d="M80.76 246.662L67.0898 232.576" stroke="white" stroke-linecap="round" stroke-linejoin="round"/>
<path d="M71.9453 237.582L72.2104 234.401" stroke="white" stroke-linecap="round" stroke-linejoin="round"/>
<path d="M74.1801 239.938L69.041 238.914" stroke="white" stroke-linecap="round" stroke-linejoin="round"/>
<path d="M75.5054 241.252L75.8488 236.51" stroke="white" stroke-linecap="round" stroke-linejoin="round"/>
<path d="M77.2345 243.083L72.5352 243.288" stroke="white" stroke-linecap="round" stroke-linejoin="round"/>
<path d="M78.7534 244.643L79.2053 241.173" stroke="white" stroke-linecap="round" stroke-linejoin="round"/>
</g>
<path d="M83.3394 244.975V211.128" stroke="#92E3A9" stroke-linecap="round" stroke-linejoin="round"/>
<path d="M83.3394 223.159L87.4844 219.538" stroke="#92E3A9" stroke-linecap="round" stroke-linejoin="round"/>
<path d="M83.2737 228.75L78.1406 221.315" stroke="#92E3A9" stroke-linecap="round" stroke-linejoin="round"/>
<path d="M83.3394 231.973L89.4605 226.515" stroke="#92E3A9" stroke-linecap="round" stroke-linejoin="round"/>
<path d="M83.2736 236.317L77.2188 230.925" stroke="#92E3A9" stroke-linecap="round" stroke-linejoin="round"/>
<path d="M83.2734 240.07L88.0089 236.317" stroke="#92E3A9" stroke-linecap="round" stroke-linejoin="round"/>
<g opacity="0.7">
<path d="M83.3394 244.975V211.128" stroke="white" stroke-linecap="round" stroke-linejoin="round"/>
<path d="M83.3394 223.159L87.4844 219.538" stroke="white" stroke-linecap="round" stroke-linejoin="round"/>
<path d="M83.2742 228.75L78.1411 221.315" stroke="white" stroke-linecap="round" stroke-linejoin="round"/>
<path d="M83.3394 231.973L89.4605 226.515" stroke="white" stroke-linecap="round" stroke-linejoin="round"/>
<path d="M83.2736 236.317L77.2188 230.925" stroke="white" stroke-linecap="round" stroke-linejoin="round"/>
<path d="M83.2734 240.07L88.0089 236.317" stroke="white" stroke-linecap="round" stroke-linejoin="round"/>
</g>
<path d="M86.147 246.963L99.1725 232.274" stroke="#92E3A9" stroke-linecap="round" stroke-linejoin="round"/>
<path d="M94.5454 237.498L97.7325 237.522" stroke="#92E3A9" stroke-linecap="round" stroke-linejoin="round"/>
<path d="M92.3643 239.896L92.9969 234.697" stroke="#92E3A9" stroke-linecap="round" stroke-linejoin="round"/>
<path d="M91.1475 241.324L95.907 241.306" stroke="#92E3A9" stroke-linecap="round" stroke-linejoin="round"/>
<path d="M89.4491 243.179L88.9009 238.51" stroke="#92E3A9" stroke-linecap="round" stroke-linejoin="round"/>
<path d="M88.0093 244.806L91.5097 245.005" stroke="#92E3A9" stroke-linecap="round" stroke-linejoin="round"/>
<g opacity="0.7">
<path d="M86.1475 246.963L99.173 232.274" stroke="white" stroke-linecap="round" stroke-linejoin="round"/>
<path d="M94.5459 237.498L97.733 237.522" stroke="white" stroke-linecap="round" stroke-linejoin="round"/>
<path d="M92.3652 239.896L92.9978 234.696" stroke="white" stroke-linecap="round" stroke-linejoin="round"/>
<path d="M91.1479 241.324L95.9075 241.306" stroke="white" stroke-linecap="round" stroke-linejoin="round"/>
<path d="M89.4496 243.179L88.9014 238.51" stroke="white" stroke-linecap="round" stroke-linejoin="round"/>
<path d="M88.0098 244.806L91.5102 245.005" stroke="white" stroke-linecap="round" stroke-linejoin="round"/>
</g>
<path d="M80.7605 246.662L67.0903 232.576" stroke="#92E3A9" stroke-linecap="round" stroke-linejoin="round"/>
<path d="M71.9468 237.582L72.2119 234.401" stroke="#92E3A9" stroke-linecap="round" stroke-linejoin="round"/>
<path d="M74.1821 239.938L69.043 238.914" stroke="#92E3A9" stroke-linecap="round" stroke-linejoin="round"/>
<path d="M75.5073 241.252L75.8507 236.51" stroke="#92E3A9" stroke-linecap="round" stroke-linejoin="round"/>
<path d="M77.2364 243.083L72.5371 243.288" stroke="#92E3A9" stroke-linecap="round" stroke-linejoin="round"/>
<path d="M78.7549 244.643L79.2067 241.173" stroke="#92E3A9" stroke-linecap="round" stroke-linejoin="round"/>
<g opacity="0.7">
<path d="M80.76 246.662L67.0898 232.576" stroke="white" stroke-linecap="round" stroke-linejoin="round"/>
<path d="M71.9453 237.582L72.2104 234.401" stroke="white" stroke-linecap="round" stroke-linejoin="round"/>
<path d="M74.1801 239.938L69.041 238.914" stroke="white" stroke-linecap="round" stroke-linejoin="round"/>
<path d="M75.5054 241.252L75.8488 236.51" stroke="white" stroke-linecap="round" stroke-linejoin="round"/>
<path d="M77.2345 243.083L72.5352 243.288" stroke="white" stroke-linecap="round" stroke-linejoin="round"/>
<path d="M78.7534 244.643L79.2053 241.173" stroke="white" stroke-linecap="round" stroke-linejoin="round"/>
</g>
<path d="M257.521 67.9068H94.6533C94.6046 67.9076 94.5561 67.8986 94.5108 67.8805C94.4655 67.8624 94.4243 67.8355 94.3896 67.8013C94.3548 67.7671 94.3272 67.7263 94.3083 67.6813C94.2895 67.6363 94.2798 67.588 94.2798 67.5393C94.2798 67.4402 94.3191 67.3452 94.3892 67.2751C94.4592 67.2051 94.5543 67.1657 94.6533 67.1657H257.521C257.57 67.1657 257.618 67.1754 257.663 67.1943C257.708 67.2131 257.749 67.2407 257.783 67.2755C257.817 67.3103 257.844 67.3515 257.862 67.3968C257.88 67.4421 257.889 67.4905 257.888 67.5393C257.888 67.6367 257.85 67.7302 257.781 67.7991C257.712 67.868 257.618 67.9068 257.521 67.9068Z" fill="#92E3A9"/>
<g opacity="0.3">
<path d="M257.52 67.9068H94.6528C94.6041 67.9076 94.5556 67.8986 94.5103 67.8805C94.4651 67.8624 94.4238 67.8355 94.3891 67.8013C94.3543 67.7671 94.3267 67.7263 94.3078 67.6813C94.289 67.6363 94.2793 67.588 94.2793 67.5393C94.2793 67.4402 94.3187 67.3452 94.3887 67.2751C94.4588 67.2051 94.5538 67.1657 94.6528 67.1657H257.52C257.569 67.1657 257.617 67.1754 257.662 67.1943C257.707 67.2131 257.748 67.2407 257.782 67.2755C257.817 67.3103 257.844 67.3515 257.862 67.3968C257.88 67.4421 257.889 67.4905 257.888 67.5393C257.888 67.6367 257.849 67.7302 257.78 67.7991C257.711 67.868 257.618 67.9068 257.52 67.9068Z" fill="white"/>
</g>
<path d="M257.196 132.504H94.3281C94.2794 132.505 94.2309 132.496 94.1856 132.478C94.1404 132.46 94.0991 132.433 94.0644 132.399C94.0296 132.365 94.002 132.324 93.9831 132.279C93.9643 132.234 93.9546 132.186 93.9546 132.137C93.9546 132.038 93.9939 131.943 94.064 131.873C94.134 131.803 94.2291 131.763 94.3281 131.763H257.196C257.244 131.763 257.293 131.773 257.338 131.792C257.383 131.811 257.423 131.838 257.458 131.873C257.492 131.908 257.519 131.949 257.537 131.994C257.555 132.04 257.564 132.088 257.563 132.137C257.563 132.185 257.554 132.233 257.535 132.278C257.517 132.322 257.49 132.363 257.456 132.397C257.421 132.431 257.381 132.458 257.336 132.476C257.292 132.495 257.244 132.504 257.196 132.504Z" fill="#92E3A9"/>
<g opacity="0.3">
<path d="M257.196 132.504H94.3281C94.2794 132.505 94.2309 132.496 94.1856 132.478C94.1404 132.46 94.0991 132.433 94.0644 132.399C94.0296 132.365 94.002 132.324 93.9831 132.279C93.9643 132.234 93.9546 132.186 93.9546 132.137C93.9546 132.038 93.9939 131.943 94.064 131.873C94.134 131.803 94.2291 131.763 94.3281 131.763H257.196C257.244 131.763 257.293 131.773 257.338 131.792C257.383 131.811 257.423 131.838 257.458 131.873C257.492 131.908 257.519 131.949 257.537 131.994C257.555 132.04 257.564 132.088 257.563 132.137C257.563 132.185 257.554 132.233 257.535 132.278C257.517 132.322 257.49 132.363 257.456 132.397C257.421 132.431 257.381 132.458 257.336 132.476C257.292 132.495 257.244 132.504 257.196 132.504Z" fill="white"/>
</g>
<path d="M257.196 185.311H94.3281C94.2291 185.311 94.134 185.272 94.064 185.202C93.9939 185.132 93.9546 185.037 93.9546 184.938C93.9546 184.889 93.9643 184.841 93.9831 184.796C94.002 184.751 94.0296 184.71 94.0644 184.676C94.0991 184.641 94.1404 184.615 94.1856 184.596C94.2309 184.578 94.2794 184.569 94.3281 184.57H257.196C257.244 184.57 257.292 184.58 257.336 184.598C257.381 184.617 257.421 184.644 257.456 184.678C257.49 184.712 257.517 184.752 257.535 184.797C257.554 184.842 257.563 184.889 257.563 184.938C257.564 184.986 257.555 185.035 257.537 185.08C257.519 185.125 257.492 185.167 257.458 185.201C257.423 185.236 257.383 185.264 257.338 185.283C257.293 185.302 257.244 185.311 257.196 185.311Z" fill="#92E3A9"/>
<g opacity="0.3">
<path d="M257.196 185.311H94.3281C94.2291 185.311 94.134 185.272 94.064 185.202C93.9939 185.132 93.9546 185.037 93.9546 184.938C93.9546 184.889 93.9643 184.841 93.9831 184.796C94.002 184.751 94.0296 184.71 94.0644 184.676C94.0991 184.641 94.1404 184.615 94.1856 184.596C94.2309 184.578 94.2794 184.569 94.3281 184.57H257.196C257.244 184.57 257.292 184.58 257.336 184.598C257.381 184.617 257.421 184.644 257.456 184.678C257.49 184.712 257.517 184.752 257.535 184.797C257.554 184.842 257.563 184.889 257.563 184.938C257.564 184.986 257.555 185.035 257.537 185.08C257.519 185.125 257.492 185.167 257.458 185.201C257.423 185.236 257.383 185.264 257.338 185.283C257.293 185.302 257.244 185.311 257.196 185.311Z" fill="white"/>
</g>
<path d="M128.954 194.246V249.204" stroke="#263238" stroke-width="0.265171" stroke-miterlimit="10"/>
<path d="M136.804 194.246V249.204" stroke="#263238" stroke-width="0.265171" stroke-miterlimit="10"/>
<path d="M144.654 194.246V249.204" stroke="#263238" stroke-width="0.265171" stroke-miterlimit="10"/>
<path d="M152.505 194.246V249.204" stroke="#263238" stroke-width="0.265171" stroke-miterlimit="10"/>
<path d="M160.355 194.246V249.204" stroke="#263238" stroke-width="0.265171" stroke-miterlimit="10"/>
<path d="M168.206 194.246V249.204" stroke="#263238" stroke-width="0.265171" stroke-miterlimit="10"/>
<path d="M176.056 194.246V249.204" stroke="#263238" stroke-width="0.265171" stroke-miterlimit="10"/>
<path d="M183.906 194.246V249.204" stroke="#263238" stroke-width="0.265171" stroke-miterlimit="10"/>
<path d="M191.756 194.246V249.204" stroke="#263238" stroke-width="0.265171" stroke-miterlimit="10"/>
<path d="M199.606 194.246V249.204" stroke="#263238" stroke-width="0.265171" stroke-miterlimit="10"/>
<path d="M207.457 194.246V249.204" stroke="#263238" stroke-width="0.265171" stroke-miterlimit="10"/>
<path d="M215.307 194.246V249.204" stroke="#263238" stroke-width="0.265171" stroke-miterlimit="10"/>
<path d="M129.346 199.349H214.915" stroke="#263238" stroke-width="0.265171" stroke-miterlimit="10"/>
<path d="M129.346 206.808H214.915" stroke="#263238" stroke-width="0.265171" stroke-miterlimit="10"/>
<path d="M129.346 214.266H214.915" stroke="#263238" stroke-width="0.265171" stroke-miterlimit="10"/>
<path d="M129.346 221.725H214.915" stroke="#263238" stroke-width="0.265171" stroke-miterlimit="10"/>
<path d="M129.346 229.183H214.915" stroke="#263238" stroke-width="0.265171" stroke-miterlimit="10"/>
<path d="M129.346 236.642H214.915" stroke="#263238" stroke-width="0.265171" stroke-miterlimit="10"/>
<path d="M129.346 244.101H214.915" stroke="#263238" stroke-width="0.265171" stroke-miterlimit="10"/>
<path d="M147.323 213.525L135.84 248.927H159.891L148.401 213.525C148.365 213.411 148.293 213.311 148.196 213.241C148.099 213.17 147.982 213.132 147.862 213.132C147.742 213.132 147.625 213.17 147.529 213.241C147.432 213.311 147.36 213.411 147.323 213.525Z" fill="#92E3A9" stroke="#263238" stroke-width="1.06068" stroke-miterlimit="10"/>
<path d="M169.217 201.801L153.932 248.927H185.598L170.295 201.801C170.259 201.687 170.187 201.587 170.09 201.517C169.993 201.446 169.876 201.408 169.756 201.408C169.636 201.408 169.519 201.446 169.422 201.517C169.326 201.587 169.254 201.687 169.217 201.801Z" fill="#263238" stroke="#263238" stroke-width="1.06068" stroke-miterlimit="10"/>
<path d="M189.364 221.623L180.501 248.927H199.299L190.418 221.623C190.377 221.517 190.304 221.426 190.21 221.362C190.116 221.297 190.005 221.263 189.891 221.263C189.777 221.263 189.666 221.297 189.572 221.362C189.478 221.426 189.405 221.517 189.364 221.623Z" fill="#92E3A9" stroke="#263238" stroke-width="1.06068" stroke-miterlimit="10"/>
<path d="M201.504 230.997L195.69 248.927H208.396L202.582 230.997C202.546 230.883 202.474 230.783 202.377 230.713C202.28 230.642 202.163 230.604 202.043 230.604C201.923 230.604 201.806 230.642 201.709 230.713C201.612 230.783 201.541 230.883 201.504 230.997Z" fill="#263238" stroke="#263238" stroke-width="1.06068" stroke-miterlimit="10"/>
<path d="M127.917 176.876C124.472 176.876 121.104 175.855 118.24 173.941C115.376 172.027 113.143 169.307 111.825 166.124C110.507 162.942 110.162 159.44 110.834 156.061C111.506 152.682 113.165 149.579 115.601 147.143C118.036 144.707 121.14 143.048 124.519 142.376C127.897 141.704 131.399 142.049 134.582 143.367C137.765 144.685 140.485 146.918 142.399 149.782C144.313 152.647 145.334 156.014 145.334 159.459C145.329 164.077 143.493 168.504 140.227 171.77C136.962 175.035 132.535 176.872 127.917 176.876ZM127.917 147.156C125.484 147.158 123.106 147.88 121.083 149.233C119.061 150.585 117.485 152.507 116.555 154.755C115.625 157.003 115.382 159.477 115.857 161.863C116.333 164.249 117.505 166.44 119.226 168.16C120.946 169.88 123.138 171.051 125.525 171.526C127.911 172 130.384 171.756 132.632 170.824C134.88 169.893 136.801 168.316 138.152 166.293C139.504 164.27 140.225 161.892 140.225 159.459C140.222 156.196 138.924 153.068 136.616 150.761C134.308 148.454 131.18 147.158 127.917 147.156Z" fill="#263238" stroke="#263238" stroke-width="1.06068" stroke-miterlimit="10"/>
<path d="M127.916 176.876C125.566 176.884 123.238 176.411 121.076 175.488C118.914 174.565 116.963 173.211 115.343 171.508L119.036 167.972C120.18 169.175 121.558 170.131 123.085 170.783C124.612 171.435 126.256 171.768 127.916 171.761C129.532 171.761 131.132 171.443 132.624 170.825C134.117 170.207 135.473 169.3 136.616 168.158C137.758 167.016 138.664 165.659 139.283 164.167C139.901 162.674 140.219 161.074 140.219 159.459C140.219 157.843 139.901 156.243 139.283 154.751C138.664 153.258 137.758 151.902 136.616 150.76C135.473 149.617 134.117 148.711 132.624 148.093C131.132 147.474 129.532 147.156 127.916 147.156V142.041C130.204 142.041 132.469 142.492 134.582 143.367C136.695 144.242 138.615 145.525 140.233 147.143C141.85 148.76 143.133 150.68 144.008 152.793C144.884 154.907 145.334 157.172 145.334 159.459C145.334 161.746 144.884 164.011 144.008 166.124C143.133 168.237 141.85 170.158 140.233 171.775C138.615 173.392 136.695 174.675 134.582 175.551C132.469 176.426 130.204 176.876 127.916 176.876Z" fill="#92E3A9" stroke="#263238" stroke-width="1.06068" stroke-miterlimit="10"/>
<path d="M170.873 176.876C167.428 176.878 164.06 175.857 161.195 173.944C158.329 172.031 156.096 169.311 154.777 166.128C153.458 162.946 153.112 159.444 153.783 156.065C154.455 152.685 156.113 149.581 158.549 147.145C160.984 144.708 164.088 143.049 167.467 142.376C170.845 141.704 174.348 142.048 177.531 143.367C180.714 144.685 183.434 146.917 185.349 149.782C187.263 152.646 188.284 156.014 188.284 159.459C188.28 164.076 186.444 168.502 183.18 171.768C179.916 175.033 175.49 176.87 170.873 176.876ZM170.873 147.156C168.44 147.159 166.063 147.882 164.041 149.235C162.02 150.589 160.445 152.511 159.515 154.759C158.586 157.007 158.344 159.481 158.82 161.866C159.296 164.252 160.469 166.443 162.19 168.162C163.911 169.882 166.103 171.052 168.489 171.526C170.875 172 173.348 171.755 175.596 170.824C177.843 169.892 179.764 168.315 181.115 166.293C182.466 164.27 183.187 161.892 183.187 159.459C183.183 156.195 181.883 153.067 179.575 150.761C177.266 148.454 174.136 147.158 170.873 147.156Z" fill="#263238" stroke="#263238" stroke-width="1.06068" stroke-miterlimit="10"/>
<path d="M177.651 175.503L175.663 170.797C178.276 169.69 180.425 167.714 181.748 165.203C183.071 162.693 183.486 159.802 182.923 157.021C182.359 154.24 180.852 151.738 178.656 149.941C176.46 148.143 173.711 147.159 170.873 147.156V142.041C174.892 142.042 178.787 143.432 181.898 145.976C185.009 148.52 187.144 152.062 187.942 156.001C188.74 159.94 188.151 164.033 186.276 167.588C184.4 171.142 181.353 173.938 177.651 175.503Z" fill="#92E3A9" stroke="#263238" stroke-width="1.06068" stroke-miterlimit="10"/>
<path d="M213.824 176.876C210.379 176.876 207.011 175.855 204.147 173.941C201.283 172.027 199.05 169.307 197.732 166.124C196.414 162.942 196.069 159.44 196.741 156.061C197.413 152.682 199.072 149.579 201.508 147.143C203.944 144.707 207.047 143.048 210.426 142.376C213.805 141.704 217.307 142.049 220.489 143.367C223.672 144.685 226.392 146.918 228.306 149.782C230.22 152.646 231.241 156.014 231.241 159.459C231.237 164.077 229.4 168.504 226.135 171.77C222.869 175.035 218.442 176.872 213.824 176.876ZM213.824 147.156C211.391 147.156 209.012 147.878 206.989 149.23C204.966 150.581 203.389 152.503 202.458 154.751C201.527 156.999 201.283 159.473 201.758 161.859C202.232 164.245 203.404 166.438 205.125 168.158C206.845 169.879 209.037 171.05 211.424 171.525C213.81 172 216.284 171.756 218.532 170.825C220.78 169.894 222.701 168.317 224.053 166.294C225.405 164.271 226.126 161.892 226.126 159.459C226.123 156.197 224.826 153.07 222.52 150.763C220.213 148.457 217.086 147.159 213.824 147.156Z" fill="#263238" stroke="#263238" stroke-width="1.06068" stroke-miterlimit="10"/>
<path d="M225.886 157.007C225.314 154.231 223.805 151.736 221.61 149.942C219.416 148.148 216.671 147.164 213.836 147.156V142.041C217.851 142.051 221.739 143.444 224.847 145.984C227.956 148.524 230.095 152.057 230.905 155.989L225.886 157.007Z" fill="#92E3A9" stroke="#263238" stroke-width="1.06068" stroke-miterlimit="10"/>
<path d="M134.864 122.756H216.662" stroke="#263238" stroke-width="1.06068" stroke-miterlimit="10"/>
<path d="M134.864 122.756V121.015" stroke="#263238" stroke-width="1.06068" stroke-miterlimit="10"/>
<path d="M151.22 122.756V121.015" stroke="#263238" stroke-width="1.06068" stroke-miterlimit="10"/>
<path d="M167.584 122.756V121.015" stroke="#263238" stroke-width="1.06068" stroke-miterlimit="10"/>
<path d="M183.941 122.756V121.015" stroke="#263238" stroke-width="1.06068" stroke-miterlimit="10"/>
<path d="M200.298 122.756V121.015" stroke="#263238" stroke-width="1.06068" stroke-miterlimit="10"/>
<path d="M216.663 122.756V121.015" stroke="#263238" stroke-width="1.06068" stroke-miterlimit="10"/>
<path d="M148.931 99.5068H137.152V113.454H148.931V99.5068Z" fill="#92E3A9" stroke="#263238" stroke-width="1.06068" stroke-miterlimit="10"/>
<path d="M165.288 83.2336H153.51V115.779H165.288V83.2336Z" fill="#92E3A9" stroke="#263238" stroke-width="1.06068" stroke-miterlimit="10"/>
<path d="M181.651 60.4543H169.873V96.7234H181.651V60.4543Z" fill="#92E3A9" stroke="#263238" stroke-width="1.06068" stroke-miterlimit="10"/>
<path d="M198.009 94.3978H186.231V101.374H198.009V94.3978Z" fill="#92E3A9" stroke="#263238" stroke-width="1.06068" stroke-miterlimit="10"/>
<path d="M214.366 90.2105H202.588V108.345H214.366V90.2105Z" fill="#92E3A9" stroke="#263238" stroke-width="1.06068" stroke-miterlimit="10"/>
<path d="M148.931 113.46H137.152V122.762H148.931V113.46Z" fill="#263238" stroke="#263238" stroke-width="1.06068" stroke-miterlimit="10"/>
<path d="M165.288 115.786H153.51V122.762H165.288V115.786Z" fill="#263238" stroke="#263238" stroke-width="1.06068" stroke-miterlimit="10"/>
<path d="M181.651 96.7171H169.873V122.756H181.651V96.7171Z" fill="#263238" stroke="#263238" stroke-width="1.06068" stroke-miterlimit="10"/>
<path d="M198.009 101.368H186.231V122.756H198.009V101.368Z" fill="#263238" stroke="#263238" stroke-width="1.06068" stroke-miterlimit="10"/>
<path d="M214.366 108.345H202.588V122.756H214.366V108.345Z" fill="#263238" stroke="#263238" stroke-width="1.06068" stroke-miterlimit="10"/>
<path d="M238.459 53.8691C238.318 53.8701 238.178 53.8359 238.053 53.7696C237.928 53.7034 237.821 53.6071 237.742 53.4895L212.402 16.5336L186.694 43.9463L160.444 26.8359L135.05 32.7281L109.258 53.6763C109.079 53.8217 108.85 53.89 108.62 53.8663C108.391 53.8426 108.18 53.7287 108.035 53.5497C107.89 53.3708 107.821 53.1414 107.845 52.912C107.869 52.6827 107.983 52.4721 108.162 52.3267L134.267 31.1256L160.776 24.9743L186.429 41.699L212.619 13.7682L239.176 52.5075C239.266 52.6375 239.319 52.7896 239.329 52.9474C239.339 53.1053 239.305 53.2628 239.232 53.403C239.159 53.5432 239.049 53.6607 238.913 53.7429C238.778 53.825 238.623 53.8686 238.465 53.8691H238.459Z" fill="#263238"/>
<path d="M110.891 53.0013C110.891 53.4267 110.764 53.8426 110.528 54.1963C110.292 54.55 109.956 54.8257 109.563 54.9885C109.17 55.1513 108.737 55.1938 108.32 55.1109C107.903 55.0279 107.52 54.823 107.219 54.5222C106.918 54.2214 106.713 53.8382 106.63 53.4209C106.547 53.0037 106.59 52.5713 106.753 52.1782C106.915 51.7852 107.191 51.4493 107.545 51.213C107.898 50.9766 108.314 50.8505 108.74 50.8505C109.31 50.8505 109.857 51.0771 110.261 51.4805C110.664 51.8838 110.891 52.4309 110.891 53.0013Z" fill="#92E3A9"/>
<path d="M134.658 34.0776C135.846 34.0776 136.809 33.1147 136.809 31.9268C136.809 30.7389 135.846 29.776 134.658 29.776C133.47 29.776 132.507 30.7389 132.507 31.9268C132.507 33.1147 133.47 34.0776 134.658 34.0776Z" fill="#92E3A9"/>
<path d="M160.606 28.0526C161.794 28.0526 162.757 27.0896 162.757 25.9017C162.757 24.7138 161.794 23.7509 160.606 23.7509C159.419 23.7509 158.456 24.7138 158.456 25.9017C158.456 27.0896 159.419 28.0526 160.606 28.0526Z" fill="#92E3A9"/>
<path d="M186.555 44.9705C187.743 44.9705 188.706 44.0076 188.706 42.8197C188.706 41.6318 187.743 40.6688 186.555 40.6688C185.367 40.6688 184.404 41.6318 184.404 42.8197C184.404 44.0076 185.367 44.9705 186.555 44.9705Z" fill="#92E3A9"/>
<path d="M214.655 15.1535C214.655 15.5789 214.529 15.9948 214.292 16.3485C214.056 16.7022 213.72 16.9779 213.327 17.1407C212.934 17.3035 212.501 17.346 212.084 17.2631C211.667 17.1801 211.284 16.9752 210.983 16.6744C210.682 16.3736 210.477 15.9904 210.394 15.5732C210.311 15.1559 210.354 14.7235 210.517 14.3305C210.68 13.9374 210.955 13.6015 211.309 13.3652C211.663 13.1288 212.078 13.0027 212.504 13.0027C213.074 13.0027 213.621 13.2293 214.025 13.6327C214.428 14.036 214.655 14.5831 214.655 15.1535Z" fill="#92E3A9"/>
<path d="M240.603 53.0013C240.603 53.4267 240.477 53.8426 240.241 54.1963C240.005 54.55 239.669 54.8257 239.276 54.9885C238.883 55.1513 238.45 55.1938 238.033 55.1109C237.616 55.0279 237.233 54.823 236.932 54.5222C236.631 54.2214 236.426 53.8382 236.343 53.4209C236.26 53.0037 236.303 52.5713 236.465 52.1782C236.628 51.7852 236.904 51.4493 237.258 51.213C237.611 50.9766 238.027 50.8505 238.453 50.8505C239.023 50.8505 239.57 51.0771 239.973 51.4805C240.377 51.8838 240.603 52.4309 240.603 53.0013Z" fill="#92E3A9"/>
<path d="M284.838 258C307.803 258 326.421 255.5 326.421 252.415C326.421 249.331 307.803 246.83 284.838 246.83C261.872 246.83 243.255 249.331 243.255 252.415C243.255 255.5 261.872 258 284.838 258Z" fill="#92E3A9"/>
<path opacity="0.7" d="M284.838 258C307.803 258 326.421 255.5 326.421 252.415C326.421 249.331 307.803 246.83 284.838 246.83C261.872 246.83 243.255 249.331 243.255 252.415C243.255 255.5 261.872 258 284.838 258Z" fill="white"/>
<path d="M57.0173 258C78.2094 258 95.389 255.499 95.389 252.415C95.389 249.33 78.2094 246.83 57.0173 246.83C35.8251 246.83 18.6455 249.33 18.6455 252.415C18.6455 255.499 35.8251 258 57.0173 258Z" fill="#92E3A9"/>
<path opacity="0.7" d="M57.0173 258C78.2094 258 95.389 255.499 95.389 252.415C95.389 249.33 78.2094 246.83 57.0173 246.83C35.8251 246.83 18.6455 249.33 18.6455 252.415C18.6455 255.499 35.8251 258 57.0173 258Z" fill="white"/>
<path d="M273.102 55.6644C273.102 55.6644 288.899 54.1341 289.802 56.7669C290.706 59.3998 290.405 65.4125 290.405 65.4125C291.201 65.6193 291.977 65.8955 292.724 66.2379C292.935 66.4427 295.273 67.973 293.092 70.4853C292.522 71.1224 291.832 71.6404 291.061 72.0096C290.1 72.4353 289.185 72.9603 288.332 73.576L285.163 77.1728L285.766 81.8059C285.766 81.8059 287.182 82.8301 288.911 86.4028C288.911 86.4028 292.995 88.8127 295.393 90.1803C297.365 91.2164 299.416 92.0947 301.527 92.8071C301.527 92.8071 302.623 93.1626 302.545 93.9518C302.466 94.7411 297.086 112.629 297.086 112.629L294.255 121.666C294.201 122.776 294.056 123.881 293.821 124.967C293.417 126.913 291.899 128.191 290.326 127.793L290.483 134.42C290.483 134.42 283.097 138.113 270.915 137.487C270.915 137.487 265.179 136.933 260.938 133.794L260.859 118.31L241.315 114.526C241.315 114.526 238.839 114.002 240.11 111.773C241.381 109.544 245.653 104.013 245.653 104.013L259.383 87.2161C259.383 87.2161 260.329 86.1015 260.679 85.7461C261.028 85.3906 261.884 85.1436 265.275 84.8604C268.667 84.5773 272.469 83.9206 272.469 83.9206C272.469 83.9206 274.53 82.1493 274.825 82.1493C275.12 82.1493 275.18 79.4984 275.18 79.4984C274.138 78.7465 273.272 77.7775 272.64 76.6584C272.009 75.5392 271.628 74.2964 271.523 73.0157C271.228 68.7141 273.114 58.6346 273.114 58.6346L273.102 55.6644Z" fill="white"/>
<path d="M261.179 133.733C261.179 133.733 259.516 158.435 259.516 170.255C259.516 182.076 260.257 191.649 260.625 199.951C260.992 208.254 259.516 213.971 260.805 220.056C262.095 226.141 265.053 243.854 265.053 243.854L268.529 245.951C268.529 245.951 269.132 231.859 270.397 226.882C271.662 221.906 272.06 200.873 272.807 194.415C273.554 187.956 275.946 165.086 275.946 165.086C275.946 165.086 285.17 189.065 287.393 198.475C289.616 207.886 297.171 229.093 298.84 234.257C300.509 239.42 303.081 247.071 303.081 247.071C303.863 247.3 304.684 247.361 305.491 247.252C305.84 247.224 306.175 247.107 306.466 246.913C306.757 246.719 306.994 246.454 307.154 246.143C307.154 246.143 304.702 230.696 303.623 223.189C302.292 213.905 300.123 199.951 298.804 194.788C297.484 189.625 295.484 181.504 295.484 177.63C295.484 173.756 290.508 134.854 290.508 134.854C290.508 134.854 273.168 142.403 261.179 133.733Z" fill="#263238"/>
<path d="M275.933 165.086L268.535 156.459" stroke="white" stroke-width="0.530341" stroke-miterlimit="10" stroke-linecap="round"/>
<path d="M266.644 157.091L272.735 162.761" stroke="white" stroke-width="0.530341" stroke-miterlimit="10" stroke-linecap="round"/>
<path d="M279.663 157.724C281.222 153.778 284.121 150.506 287.85 148.482" stroke="white" stroke-width="0.530341" stroke-miterlimit="10" stroke-linecap="round"/>
<path d="M288.266 136.938C288.266 136.938 287.429 140.083 288.477 141.975C289.525 143.867 290.58 143.867 290.58 143.867C290.58 143.867 292.465 154.151 292.465 160.031C292.465 165.911 291.206 166.538 292.465 173.045C293.724 179.552 294.568 181.654 294.568 185.432C294.568 189.209 296.243 191.734 297.713 194.041C299.183 196.349 299.605 203.078 299.605 205.795C299.605 208.513 300.442 211.465 301.286 214.194C301.286 214.194 301.484 220.315 302.545 221.749C303.605 223.183 303.804 228.051 303.804 228.051" stroke="white" stroke-width="0.530341" stroke-miterlimit="10" stroke-linecap="round"/>
<path d="M274.415 164.23C274.415 164.23 274.831 169.05 273.361 177.455C271.891 185.859 270.842 188.161 270.632 197.819C270.421 207.476 271.264 209.157 270.842 214.194C270.421 219.231 267.902 227.189 267.902 230.804C267.902 234.419 268.288 245.974 268.288 245.974" stroke="white" stroke-width="0.530341" stroke-miterlimit="10" stroke-linecap="round"/>
<path d="M269.794 138.197L270.216 139.878L272.945 140.505L272.524 138.408" stroke="white" stroke-width="0.530341" stroke-miterlimit="10" stroke-linecap="round"/>
<path d="M272.957 140.505C272.957 140.505 277.994 140.294 280.512 139.457L279.91 137.776" stroke="white" stroke-width="0.530341" stroke-miterlimit="10" stroke-linecap="round"/>
<path d="M282.181 137.354L282.783 139.457C282.783 139.457 286.814 139.228 287.416 138.625" stroke="white" stroke-width="0.530341" stroke-miterlimit="10" stroke-linecap="round"/>
<path d="M270.216 139.879C268.823 139.835 267.459 139.474 266.227 138.824L264.335 137.776L264.938 136.306" stroke="white" stroke-width="0.530341" stroke-miterlimit="10" stroke-linecap="round"/>
<path d="M265.053 243.854C265.053 243.854 256.016 249.752 254.721 252.518C253.425 255.283 258.595 254.18 262.282 252.704C265.969 251.228 268.306 245.951 268.306 245.951L265.053 243.854Z" fill="white" stroke="#263238" stroke-width="1.06068" stroke-miterlimit="10" stroke-linecap="round"/>
<path d="M303.37 247.149C303.826 249.676 304.723 252.103 306.021 254.319C308.009 257.41 311.763 260.061 311.763 255.199C311.763 250.337 307.13 246.161 307.13 246.161C307.13 246.161 304.828 247.408 303.37 247.149Z" fill="white" stroke="#263238" stroke-width="1.06068" stroke-miterlimit="10" stroke-linecap="round"/>
<path d="M273.048 59.0022C273.048 59.0022 271.09 71.1481 271.753 74.1605C273.265 80.9022 278.573 80.613 281.892 79.3237C284.995 78.1187 288.092 73.8592 288.489 73.2989C288.518 73.2594 288.558 73.2298 288.604 73.2146C289.098 73.076 292.165 72.1 293.514 69.7323C294.99 67.1476 292.225 66.0451 292.225 66.0451" fill="white"/>
<mask id="mask0_2258_61845" style="mask-type:luminance" maskUnits="userSpaceOnUse" x="271" y="59" width="23" height="22">
<path d="M273.048 59.0022C273.048 59.0022 271.09 71.1481 271.753 74.1605C273.265 80.9022 278.573 80.613 281.892 79.3237C284.995 78.1187 288.092 73.8592 288.489 73.2989C288.518 73.2594 288.558 73.2298 288.604 73.2146C289.098 73.076 292.165 72.1 293.514 69.7323C294.99 67.1476 292.225 66.0451 292.225 66.0451" fill="white"/>
</mask>
<g mask="url(#mask0_2258_61845)">
<g style="mix-blend-mode:multiply" opacity="0.5">
<path d="M285.609 76.4255L288.537 73.2083C288.537 73.2083 292.001 72.1419 293.513 69.7019C294.399 68.274 293.911 67.0269 293.375 66.6895C292.64 66.2918 291.881 65.9397 291.103 65.6352L290.121 67.7981L289.284 67.9427C289.284 67.9427 289.633 65.7135 288.621 64.3941C287.609 63.0747 287.38 59.255 287.38 59.255C287.38 59.255 285.964 66.8703 285.789 70.0574C285.744 71.8311 285.19 73.5544 284.193 75.0218C284.193 75.0218 284.374 76.9678 284.723 78.9138C284.765 79.1427 284.807 79.4861 284.85 79.9139L285.332 79.1427L285.597 79.8777C285.295 78.6125 285.157 77.269 285.609 76.4255Z" fill="#92E3A9"/>
</g>
</g>
<path d="M273.048 59.0022C273.048 59.0022 271.09 71.1481 271.753 74.1605C273.265 80.9022 278.573 80.613 281.892 79.3237C284.995 78.1187 288.092 73.8592 288.489 73.2989C288.518 73.2594 288.558 73.2298 288.604 73.2146C289.098 73.076 292.165 72.1 293.514 69.7323C294.99 67.1476 292.225 66.0451 292.225 66.0451" stroke="#263238" stroke-width="1.06068" stroke-miterlimit="10" stroke-linecap="round"/>
<path d="M280.542 65.1773C280.428 65.6592 280.542 66.093 280.765 66.1473C280.988 66.2015 281.289 65.8641 281.404 65.3881C281.518 64.9122 281.404 64.4784 281.181 64.4181C280.958 64.3579 280.657 64.7013 280.542 65.1773Z" fill="#263238"/>
<path d="M275.367 63.9182C275.253 64.4001 275.367 64.8339 275.59 64.8881C275.813 64.9424 276.114 64.605 276.229 64.129C276.343 63.6531 276.229 63.2133 276.006 63.159C275.783 63.1048 275.476 63.4362 275.367 63.9182Z" fill="#263238"/>
<path d="M283.754 63.0688C283.47 62.5679 283.064 62.1462 282.575 61.842C282.085 61.5379 281.528 61.3611 280.953 61.3277" stroke="#263238" stroke-width="1.06068" stroke-miterlimit="10" stroke-linecap="round"/>
<path d="M276.988 61.418C276.514 61.2107 275.988 61.1527 275.48 61.2517C274.972 61.3507 274.506 61.602 274.145 61.9722" stroke="#263238" stroke-width="1.06068" stroke-miterlimit="10" stroke-linecap="round"/>
<path d="M277.337 63.6112C277.348 64.4183 277.288 65.2248 277.156 66.0211C276.957 67.0273 276.174 67.2261 276.373 68.0033C276.572 68.7805 277.578 68.8588 277.578 68.8588" stroke="#263238" stroke-width="1.06068" stroke-miterlimit="10" stroke-linecap="round"/>
<path d="M278.626 71.9976C279.053 72.1334 279.504 72.1752 279.948 72.1201C280.392 72.0649 280.819 71.9142 281.199 71.6783" stroke="#263238" stroke-width="1.06068" stroke-miterlimit="10" stroke-linecap="round"/>
<path d="M288.169 50.5191C288.169 50.5191 284.115 47.0127 280.241 47.0127C276.367 47.0127 273.228 49.2298 270.83 49.4226C268.432 49.6154 266.775 47.3923 265.299 50.3444C263.823 53.2965 269.36 58.279 273.047 59.0141C276.734 59.7491 281.897 58.6465 283.374 58.4598C284.788 58.3628 286.207 58.3628 287.621 58.4598C287.621 58.4598 286.512 61.9662 287.621 63.0747C288.73 64.1833 288.91 64.9183 288.91 65.6533C288.974 66.4646 289.096 67.27 289.278 68.0633L290.386 68.4368L290.941 66.4064C292.436 64.8116 293.458 62.8318 293.893 60.6889C294.441 57.3693 291.676 54.0617 291.676 54.0617L288.169 50.5191Z" fill="#263238"/>
<path d="M272.638 57.5018C272.638 57.5018 278.946 58.7068 283.886 56.6523C288.827 54.5979 284.567 50.5191 284.567 50.5191" stroke="white" stroke-width="0.530341" stroke-miterlimit="10" stroke-linecap="round"/>
<path d="M285.609 50.1758C286.121 50.1758 290.381 53.4111 289.525 55.7969C288.669 58.1827 286.97 58.3574 286.97 58.3574" stroke="white" stroke-width="0.530341" stroke-miterlimit="10" stroke-linecap="round"/>
<path d="M284.91 123.359L279.584 120.551C278.215 120.475 276.854 120.298 275.512 120.021C274.27 119.665 261.534 118.448 261.534 118.448L261.341 121.461C261.341 121.461 275.867 123.413 278.873 123.768C281.88 124.124 284.543 125.54 285.073 126.425C285.603 127.311 286.669 128.196 286.139 130.642C285.609 133.089 282.067 136.667 282.067 136.667C281.898 136.414 290.586 135.788 290.501 134.86C290.314 133.016 289.332 127.63 289.332 127.63L284.91 123.359Z" fill="#92E3A9"/>
<path opacity="0.5" d="M284.91 123.359L279.584 120.551C278.215 120.475 276.854 120.298 275.512 120.021C274.27 119.665 261.534 118.448 261.534 118.448L261.341 121.461C261.341 121.461 275.867 123.413 278.873 123.768C281.88 124.124 284.543 125.54 285.073 126.425C285.603 127.311 286.669 128.196 286.139 130.642C285.609 133.089 282.067 136.667 282.067 136.667C281.928 136.396 290.604 135.782 290.501 134.86C290.218 132.51 289.332 127.63 289.332 127.63L284.91 123.359Z" fill="white"/>
<path d="M302.478 93.8853C302.008 91.6802 298.502 91.9754 296.387 90.7524C294.272 89.5294 289.157 86.6978 289.157 86.6978L286.681 82.9744C286.234 81.9706 285.873 80.9306 285.603 79.8657L285.337 79.1306L284.855 79.9018C285.163 83.2034 285.458 91.6561 285.458 91.6561L286.518 96.97C286.518 96.97 290.597 114.502 291.657 118.4C292.718 122.298 292.718 124.949 292.013 126.19C291.308 127.431 291.543 127.998 291.543 127.998C291.543 127.998 294.308 125.859 294.14 123.738C293.917 121.244 302.809 95.3794 302.478 93.8853Z" fill="#92E3A9"/>
<path opacity="0.5" d="M302.478 93.8853C302.237 91.6441 298.502 91.9754 296.387 90.7524C294.272 89.5294 289.157 86.6978 289.157 86.6978L286.681 82.9744C286.234 81.9706 285.873 80.9306 285.603 79.8657L285.337 79.1306L284.855 79.9018C285.163 83.2034 285.458 91.6561 285.458 91.6561L286.518 96.97C286.518 96.97 290.597 114.502 291.657 118.4C292.718 122.298 292.718 124.949 292.013 126.19C291.308 127.431 291.543 127.998 291.543 127.998C291.543 127.998 294.387 125.853 294.14 123.738C293.856 121.467 302.695 95.747 302.478 93.8853Z" fill="white"/>
<path d="M287.001 91.6743C287.001 91.6743 285.892 81.7153 285.338 79.1307C284.784 76.5461 285.157 75.076 282.759 75.076C280.361 75.076 277.409 74.7025 277.939 75.9978C278.47 77.2932 282.157 76.1786 282.759 76.7329C283.362 77.2871 282.94 78.5764 282.94 78.5764C282.94 78.5764 278.12 78.95 278.12 80.2393C278.12 81.5286 278.307 85.0591 279.229 85.4025C280.15 85.7459 280.518 83.7457 280.518 83.7457C280.518 83.7457 280.705 87.963 281.627 89.4632C282.214 90.3897 282.894 91.2537 283.657 92.0418L287.001 91.6743Z" fill="white" stroke="#263238" stroke-width="1.06068" stroke-miterlimit="10" stroke-linecap="round"/>
<path d="M283.681 94.44C283.681 94.44 283.127 117.334 284.048 121.003C284.97 124.672 289.953 129.673 292.531 127.275C295.11 124.877 293.827 119.714 293.827 117.316C293.827 114.918 287.922 97.2114 287.922 95.916C287.835 94.8404 287.585 93.7842 287.181 92.7832" stroke="#263238" stroke-width="1.06068" stroke-miterlimit="10" stroke-linecap="round"/>
<path d="M284.049 97.2112L287.737 96.8377" stroke="#263238" stroke-width="1.06068" stroke-miterlimit="10" stroke-linecap="round"/>
<path d="M260.468 108.658L261.178 88.2885C261.178 88.2885 260.293 87.7583 259.937 89.7043C259.582 91.6503 259.407 95.5543 259.407 95.5543C259.407 95.5543 255.154 92.8974 256.22 94.488C257.286 96.0785 259.052 99.6271 259.052 99.6271L252.473 106.176L255.485 107.417L260.468 108.658Z" fill="#92E3A9"/>
<path opacity="0.5" d="M260.468 108.658L261.178 88.2885C261.178 88.2885 260.293 87.7583 259.937 89.7043C259.582 91.6503 259.407 95.5543 259.407 95.5543C259.407 95.5543 255.154 92.8974 256.22 94.488C257.286 96.0785 259.052 99.6271 259.052 99.6271L252.473 106.176L255.485 107.417L260.468 108.658Z" fill="white"/>
<path d="M269.288 92.8372C269.288 92.8372 268.95 94.0421 270.366 94.0421C271.782 94.0421 274.27 93.036 274.27 93.036L274.089 91.0358C274.089 91.0358 270.685 92.6926 269.288 92.8372Z" fill="#92E3A9"/>
<path opacity="0.5" d="M269.288 92.8372C269.288 92.8372 268.95 94.0421 270.366 94.0421C271.782 94.0421 274.27 93.036 274.27 93.036L274.089 91.0358C274.089 91.0358 270.685 92.6926 269.288 92.8372Z" fill="white"/>
<path d="M275.368 79.3658C275.368 79.3658 273.524 90.2104 274.633 92.6203C275.741 95.0302 277.398 94.4638 278.687 93.3613C279.977 92.2588 281.639 89.4874 281.639 89.4874" stroke="#263238" stroke-width="1.06068" stroke-miterlimit="10" stroke-linecap="round"/>
<path d="M260.805 118.605L261.179 133.733C261.179 133.733 265.396 137.788 273.536 137.788C281.675 137.788 290.507 134.836 290.507 134.836V129.486" stroke="#263238" stroke-width="1.06068" stroke-miterlimit="10" stroke-linecap="round"/>
<path d="M285.711 81.5285C285.711 81.5285 289.031 84.8482 289.031 87.9871C289.031 91.126 288.476 91.861 288.476 91.861" stroke="#263238" stroke-width="1.06068" stroke-miterlimit="10" stroke-linecap="round"/>
<path d="M288.657 86.1438C288.657 86.1438 293.64 89.0899 296.405 90.7527C299.17 92.4155 302.496 92.4095 302.496 93.8856C302.496 95.3616 294.748 120.449 294.748 120.449" stroke="#263238" stroke-width="1.06068" stroke-miterlimit="10" stroke-linecap="round"/>
<path d="M291.797 94.4398L289.953 101.82" stroke="#263238" stroke-width="1.06068" stroke-miterlimit="10" stroke-linecap="round"/>
<path d="M260.853 98.7714L257.871 92.5177" stroke="#263238" stroke-width="0.530341" stroke-miterlimit="10" stroke-linecap="round"/>
<path d="M260.854 100.561L256.383 97.8796" stroke="#263238" stroke-width="0.530341" stroke-miterlimit="10" stroke-linecap="round"/>
<path d="M275.44 114.551L274.548 119.021" stroke="#263238" stroke-width="0.530341" stroke-miterlimit="10" stroke-linecap="round"/>
<path d="M299.556 93.7105C299.556 93.7105 295.092 94.6021 290.923 99.6629" stroke="#263238" stroke-width="0.530341" stroke-miterlimit="10" stroke-linecap="round"/>
<path d="M296.58 93.4396C296.58 93.4396 295.375 93.1384 291.224 96.7111" stroke="#263238" stroke-width="0.530341" stroke-miterlimit="10" stroke-linecap="round"/>
<path d="M275.439 94.9036L273.655 108.893L275.143 109.194L276.336 104.73" stroke="#263238" stroke-width="0.530341" stroke-miterlimit="10" stroke-linecap="round"/>
<path d="M276.632 131.522C271.27 135.993 263.83 135.692 263.83 135.692" stroke="#263238" stroke-width="0.530341" stroke-miterlimit="10" stroke-linecap="round"/>
<path d="M253.973 107.224C253.973 107.224 250.328 103.887 245.165 108.134" stroke="#263238" stroke-width="0.530341" stroke-miterlimit="10" stroke-linecap="round"/>
<path d="M275.011 82.0828C275.011 82.0828 273.535 82.4503 271.872 85.0349C270.21 87.6196 268.185 92.0417 269.661 92.4092C271.137 92.7767 273.879 91.1199 273.879 91.1199" stroke="#263238" stroke-width="1.06068" stroke-miterlimit="10" stroke-linecap="round"/>
<path d="M280.729 91.861L282.573 93.5178" stroke="#263238" stroke-width="1.06068" stroke-miterlimit="10" stroke-linecap="round"/>
<path d="M272.427 83.9264C272.427 83.9264 265.6 84.8482 262.835 85.035C260.07 85.2217 260.606 86.2399 259.702 86.8786C258.244 87.8967 241.519 109.098 240.423 111.128C239.326 113.159 239.501 114.08 241.345 114.635C243.188 115.189 261.552 118.418 261.552 118.418L277.777 120.081L279.066 116.02C279.066 116.02 282.837 116.52 283.5 116.52" stroke="#263238" stroke-width="1.06068" stroke-miterlimit="10" stroke-linecap="round"/>
<path d="M277.222 114.526C273.642 113.487 270.18 112.074 266.896 110.309" stroke="#263238" stroke-width="1.06068" stroke-miterlimit="10" stroke-linecap="round"/>
<path d="M265.42 109.935C265.42 109.935 259.998 107.923 257.064 107.555C254.13 107.188 249.635 107.067 249.635 107.067" stroke="#263238" stroke-width="1.06068" stroke-miterlimit="10" stroke-linecap="round"/>
<path d="M260.438 107.538L260.992 92.9637" stroke="#263238" stroke-width="1.06068" stroke-miterlimit="10" stroke-linecap="round"/>
<path d="M277.776 120.081C279.042 120.717 280.368 121.226 281.735 121.599" stroke="#263238" stroke-width="1.06068" stroke-miterlimit="10" stroke-linecap="round"/>
<path d="M36.382 108.339L38.557 96.4519L52.3236 91.0296C52.3236 91.0296 52.9923 87.3365 53.6671 87.1738C54.3419 87.0111 55.0046 85.4929 55.0046 85.4929L54.6732 82.4504C54.6732 82.4504 55.9324 77.6306 62.2644 81.384C62.2644 81.384 60.3485 82.6612 60.6799 83.1914C61.0113 83.7216 60.3124 85.4085 61.1498 85.4085C61.9873 85.4085 63.6802 86.4749 64.5358 87.3365C65.1345 87.9798 65.6636 88.6846 66.1142 89.4391L73.2415 89.8488C73.9721 89.8549 74.6989 89.9541 75.4044 90.144C75.5249 86.6617 75.0972 84.0048 74.2537 81.9383C71.1871 74.4796 65.5961 71.8167 64.7948 68.0813C63.9935 64.346 64.3972 63.9543 64.3972 63.9543C65.2119 63.1259 65.8085 62.1083 66.1334 60.9928C66.4583 59.8772 66.5014 58.6984 66.2588 57.5621C65.4636 53.5676 62.397 50.7661 51.3415 50.2359C40.2861 49.7058 41.8887 57.2909 41.8887 57.2909L42.0212 57.8211C42.0212 57.8211 34.9602 60.231 36.2977 69.1417C37.6352 78.0523 41.491 81.9262 41.3585 84.7217C41.2259 87.5172 37.0929 88.5836 31.2308 94.9638C25.3687 101.344 24.1758 110.942 26.5737 117.201C27.7787 120.28 30.1343 122.846 33.0925 124.762L36.382 108.339Z" fill="#263238"/>
<path d="M45.6123 109.514V112.201L40.5093 127.967C43.698 128.811 47.0421 128.881 50.2634 128.172C52.0817 127.698 53.8197 126.957 55.4206 125.973L45.6123 109.514Z" fill="#263238"/>
<path d="M60.283 83.095L60.8854 85.8062C60.8854 85.8062 62.6929 83.9988 66.2234 89.4873C66.2234 89.4873 73.5615 89.3126 75.5618 90.3127C75.5618 90.3127 75.9775 90.4332 77.333 91.8731C78.6886 93.3131 83.7856 97.8979 83.7856 97.8979C83.7856 97.8979 90.3285 103.971 90.9791 104.441C91.6298 104.911 94.0699 107.242 95.8954 108.056L100.787 96.9159L102.968 91.4032L104.173 86.8666H104.559L104.643 83.2095L104.348 78.8476C104.396 78.6258 104.497 78.419 104.643 78.2451C105.148 77.545 105.537 76.7678 105.794 75.9437C105.794 75.534 105.378 73.112 105.378 73.112C105.378 73.112 105.174 72.5095 105.619 72.4372C106.065 72.3649 107.71 72.9373 107.915 74.088L108.517 73.8832C109.016 72.6911 109.638 71.5543 110.373 70.4912C111.349 69.226 112.349 68.4308 112.97 68.8404C113.14 68.9579 113.263 69.1323 113.316 69.3323C113.369 69.5322 113.348 69.7445 113.259 69.9309L111.319 73.4976C111.319 73.4976 110.463 74.6483 111.524 75.058C111.524 75.058 113.819 76.5341 113.97 77.8294C114.12 79.1247 113.289 80.2393 112.554 81.1912C111.819 82.1431 110.523 84.2036 110.523 84.2036L109.017 85.5351L108.415 87.8305L109.126 88.7162L108.065 93.3131L107.3 96.7592L106.915 98.8498L104.505 107.104L102.095 114.297C102.095 114.297 100.854 118.418 97.8474 118.304C94.841 118.189 91.5455 116.563 90.4791 116.032C89.4127 115.502 80.6226 110.911 80.6226 110.911L78.8151 110.056C79.0563 110.879 79.1602 111.736 79.1224 112.592C79.0923 114.183 77.3812 117.689 76.8812 118.485L76.586 124.702C76.4693 125.781 76.4895 126.87 76.6462 127.943C76.9113 129.564 78.2669 138.734 78.5621 139.878C78.5621 139.878 75.6341 142.529 66.9102 143.789C58.1863 145.048 54.1015 143.005 54.1015 143.005L50.2156 140.722L55.0053 131.257C55.0053 131.257 56.2102 128.443 56.0897 127.702C55.9692 126.961 53.9088 123.768 53.9088 123.768L46.3477 110.309L45.9922 110.429L44.8174 114.358L40.5699 127.678L34.9789 144.307C34.9789 144.307 33.4486 148.524 32.816 149.771L31.0508 155.151C31.1488 156.112 31.3863 157.054 31.7557 157.947L27.3154 155.073L28.1047 150.856L29.0867 144.566L30.2917 137.728L31.352 132.07L33.045 124.527L33.6475 122.443L34.8524 116.551L36.9731 105.863L38.7806 96.711L51.4326 91.6803L52.2218 91.0779C52.3973 89.9131 52.825 88.8008 53.475 87.8185C53.9261 87.1722 54.4632 86.5905 55.0715 86.0894C55.0715 86.0894 55.0113 85.3001 54.9691 84.553C54.9269 83.806 54.7341 82.4323 54.7341 82.4323C54.7341 82.4323 58.6442 84.1132 60.283 83.095Z" fill="white"/>
<path d="M43.3354 58.8816C43.3354 58.8816 45.6791 53.6942 50.3664 53.6942C55.0536 53.6942 64.7595 62.9001 64.7595 62.9001" stroke="white" stroke-width="0.530341" stroke-miterlimit="10" stroke-linecap="round"/>
<path d="M45.3408 59.7009C45.3408 59.7009 48.1845 56.6885 51.703 57.8573C55.2214 59.0261 55.7215 63.2133 55.7215 63.2133" stroke="white" stroke-width="0.530341" stroke-miterlimit="10" stroke-linecap="round"/>
<path d="M42.9971 60.219C42.9971 60.219 38.8159 62.5626 38.4785 66.9185C38.1411 71.2744 44.3346 76.4557 45.172 82.3178C46.0094 88.1799 41.6596 89.5114 34.6287 94.3673C27.5977 99.2233 28.7726 110.098 30.2788 112.442" stroke="white" stroke-width="0.530341" stroke-miterlimit="10" stroke-linecap="round"/>
<path d="M31.1167 113.785C31.1167 113.785 32.1168 115.96 33.623 116.629" stroke="white" stroke-width="0.530341" stroke-miterlimit="10" stroke-linecap="round"/>
<path d="M43.5043 71.5999C43.3063 72.025 43.2175 72.4929 43.2459 72.961C43.2743 73.4292 43.419 73.8828 43.667 74.2809C44.5044 75.7871 50.8967 83.3181 50.3665 86.8365C49.8363 90.355 46.5167 92.5239 46.5167 92.5239" stroke="white" stroke-width="0.530341" stroke-miterlimit="10" stroke-linecap="round"/>
<path d="M46.6787 60.219C46.6787 60.219 42.8289 61.8939 42.9976 65.7437C43.1663 69.5935 44.0037 70.5996 44.0037 70.5996" stroke="white" stroke-width="0.530341" stroke-miterlimit="10" stroke-linecap="round"/>
<path d="M64.7588 72.9555C65.955 75.6635 67.5964 78.152 69.6148 80.3178C72.6271 83.3301 72.9585 87.686 72.9585 87.686" stroke="white" stroke-width="0.530341" stroke-miterlimit="10" stroke-linecap="round"/>
<path d="M68.272 82.4805C68.272 82.4805 69.7782 85.999 69.7782 88.1739" stroke="white" stroke-width="0.530341" stroke-miterlimit="10" stroke-linecap="round"/>
<path d="M59.9385 83.4144L55.2091 87.6739C55.2091 87.6739 54.703 88.9632 53.7511 91.0297C52.7992 93.0962 52.9558 97.0545 52.9558 97.0545L55.8718 102.856C55.8718 102.856 50.2628 96.4219 49.9435 95.6266C49.6241 94.8314 43.756 96.2653 42.6475 96.7412C41.5389 97.2172 40.105 98.1691 40.4243 99.597C40.7436 101.025 42.1715 102.923 41.5329 103.242C40.8943 103.561 39.1531 102.766 39.1531 103.718C39.1531 104.67 41.2196 108.321 40.2677 109.586C39.3158 110.851 33.285 131.323 33.285 131.323C33.285 131.323 37.0926 128.148 36.1407 129.42C35.1888 130.691 30.5919 140.999 30.5919 140.999L28.8447 147.024L32.9717 125.612L36.46 107.538L38.5567 96.452C40.581 95.7772 52.3232 91.0297 52.3232 91.0297C52.3232 91.0297 53.2511 87.1257 55.0043 85.493L54.6729 82.4505C54.6729 82.4505 57.8721 83.5711 59.9385 83.4144Z" fill="#92E3A9"/>
<path opacity="0.5" d="M59.9385 83.4144L55.2091 87.6739C55.2091 87.6739 54.703 88.9632 53.7511 91.0297C52.7992 93.0962 52.9558 97.0545 52.9558 97.0545L55.8718 102.856C55.8718 102.856 50.2628 96.4219 49.9435 95.6266C49.6241 94.8314 43.756 96.2653 42.6475 96.7412C41.5389 97.2172 40.105 98.1691 40.4243 99.597C40.7436 101.025 42.1715 102.923 41.5329 103.242C40.8943 103.561 39.1531 102.766 39.1531 103.718C39.1531 104.67 41.2196 108.321 40.2677 109.586C39.3158 110.851 33.285 131.323 33.285 131.323C33.285 131.323 37.0926 128.148 36.1407 129.42C35.1888 130.691 30.5919 140.999 30.5919 140.999L28.8447 147.024L32.9717 125.612L36.46 107.538L38.5567 96.452C40.581 95.7772 52.3232 91.0297 52.3232 91.0297C52.3232 91.0297 52.5763 87.4149 55.0103 86.1497L54.6729 82.4505C54.6729 82.4505 57.8721 83.5711 59.9385 83.4144Z" fill="white"/>
<path d="M77.5435 104.827C77.5435 104.827 80.3992 100.073 80.7185 101.182C81.0378 102.29 79.9232 106.092 79.9232 106.092C79.9232 106.092 82.9356 104.983 82.6223 105.935C82.3091 106.887 81.6704 107.363 81.8271 107.839C81.9837 108.315 92.2981 113.707 93.5693 114.34C94.8406 114.972 97.8529 111.327 99.2808 112.436C100.709 113.544 99.2808 117.346 96.4251 117.352C93.5693 117.358 85.3214 113.737 85.3214 113.737L78.8267 109.96" fill="#92E3A9"/>
<path opacity="0.5" d="M77.5435 104.827C77.5435 104.827 80.3992 100.073 80.7185 101.182C81.0378 102.29 79.9232 106.092 79.9232 106.092C79.9232 106.092 82.9356 104.983 82.6223 105.935C82.3091 106.887 81.6704 107.363 81.8271 107.839C81.9837 108.315 92.2981 113.707 93.5693 114.34C94.8406 114.972 97.8529 111.327 99.2808 112.436C100.709 113.544 99.2808 117.346 96.4251 117.352C93.5693 117.358 85.3214 113.737 85.3214 113.737L78.8508 109.972" fill="white"/>
<path d="M60.4155 124.021C60.4155 124.021 78.9598 114.189 75.9474 117.834C72.935 121.479 62.952 125.612 60.4155 124.021Z" fill="#92E3A9"/>
<path opacity="0.5" d="M60.4155 124.021C60.4155 124.021 78.9598 114.189 75.9474 117.834C72.935 121.479 62.952 125.612 60.4155 124.021Z" fill="white"/>
<path d="M54.6733 82.4805C54.6733 82.4805 54.8059 85.0109 55.2095 87.6738C55.6132 90.3368 55.4746 90.3368 58.005 93.5299C60.5354 96.723 63.1984 99.392 63.596 98.8618" stroke="#263238" stroke-width="1.06068" stroke-miterlimit="10" stroke-linecap="round"/>
<path d="M63.7288 97.9281C63.7288 97.9281 63.9939 93.265 63.066 90.2044C62.1382 87.1438 60.8007 86.0714 60.8007 85.3846C60.7557 84.6689 60.6672 83.9567 60.5356 83.2518" stroke="#263238" stroke-width="1.06068" stroke-miterlimit="10" stroke-linecap="round"/>
<path d="M54.6732 86.3425C53.609 87.3007 52.8645 88.5625 52.5404 89.9574C52.1427 92.0841 51.7451 94.6145 51.7451 94.6145L55.8721 102.874C56.2314 101.436 56.7677 100.048 57.4686 98.7415C57.8158 98.0967 58.2655 97.5127 58.8001 97.0124" stroke="#263238" stroke-width="1.06068" stroke-miterlimit="10" stroke-linecap="round"/>
<path d="M64.6632 95.6625C64.9546 95.5895 65.2576 95.5754 65.5545 95.6209C65.8514 95.6664 66.1362 95.7707 66.3923 95.9276C67.4587 96.4638 69.5915 99.2593 69.5915 99.2593C69.5915 99.2593 68.1275 92.3308 65.5971 88.74C63.0667 85.1493 61.3315 85.4083 61.3315 85.4083" stroke="#263238" stroke-width="1.06068" stroke-miterlimit="10" stroke-linecap="round"/>
<path d="M51.3418 91.5359L38.5572 96.4521C38.5572 96.4521 33.9001 121.889 32.165 128.679C30.4298 135.468 27.5078 154.651 27.5078 154.651L30.966 155.314L32.171 151.856" stroke="#263238" stroke-linecap="round" stroke-linejoin="round"/>
<path d="M32.834 149.867C32.834 149.867 33.6293 148.662 35.762 142.035C37.8948 135.408 43.5942 119.141 44.5522 115.93C45.5101 112.719 46.2813 110.604 46.2813 110.604" stroke="#263238" stroke-width="1.06068" stroke-miterlimit="10" stroke-linecap="round"/>
<path d="M44.0156 106.694C44.0156 106.694 54.8 125.973 55.7338 126.805C56.6676 127.636 55.3362 129.865 55.065 131.064" stroke="#263238" stroke-width="1.06068" stroke-miterlimit="10" stroke-linecap="round"/>
<path d="M53.8723 133.486L50.4141 140.68C50.4141 140.68 52.6794 144.144 62.2648 144.144C67.9692 144.161 73.5919 142.788 78.6461 140.143C78.6461 140.143 76.3808 128.16 76.5134 126.027C76.6459 123.895 76.917 118.304 76.917 118.304C76.917 118.304 79.3269 114.689 79.0438 111.911C78.7606 109.134 77.5797 105.917 77.5797 105.387C77.5797 104.856 77.3147 99.1268 77.3147 99.1268" stroke="#263238" stroke-width="1.06068" stroke-miterlimit="10" stroke-linecap="round"/>
<path d="M62.2466 121.648L71.7898 115.792" stroke="#263238" stroke-width="0.530341" stroke-miterlimit="10" stroke-linecap="round"/>
<path d="M67.272 119.81L72.4593 116.798" stroke="#263238" stroke-width="0.530341" stroke-miterlimit="10" stroke-linecap="round"/>
<path d="M95.8293 108.182L93.8833 112.948" stroke="#263238" stroke-width="0.530341" stroke-miterlimit="10" stroke-linecap="round"/>
<path d="M95.0519 110.267L93.2144 112.11" stroke="#263238" stroke-width="0.530341" stroke-miterlimit="10" stroke-linecap="round"/>
<path d="M40.6544 127.178C40.6544 127.178 37.4733 130.859 35.2983 132.366" stroke="#263238" stroke-width="0.530341" stroke-miterlimit="10" stroke-linecap="round"/>
<path d="M38.8168 128.179C38.8168 128.179 33.2921 132.528 31.9546 133.535" stroke="#263238" stroke-width="0.530341" stroke-miterlimit="10" stroke-linecap="round"/>
<path d="M39.7983 97.2112C41.4638 99.566 42.9732 102.027 44.3169 104.579" stroke="#263238" stroke-width="0.530341" stroke-miterlimit="10" stroke-linecap="round"/>
<path d="M44.8408 105.748L46.0096 107.754" stroke="#263238" stroke-width="0.530341" stroke-miterlimit="10" stroke-linecap="round"/>
<path d="M77.5796 105.387L79.0436 97.9282" stroke="#263238" stroke-width="0.530341" stroke-miterlimit="10" stroke-linecap="round"/>
<path d="M78.1162 105.917L80.3755 102.724" stroke="#263238" stroke-width="0.530341" stroke-miterlimit="10" stroke-linecap="round"/>
<path d="M46.2809 110.58L39.8887 107.116" stroke="#263238" stroke-width="0.530341" stroke-miterlimit="10" stroke-linecap="round"/>
<path d="M63.4639 99.5247C63.4639 99.5247 65.8738 104.345 66.663 107.785" stroke="#263238" stroke-width="0.530341" stroke-miterlimit="10" stroke-linecap="round"/>
<path d="M103.017 91.132C103.654 91.085 104.294 91.1676 104.899 91.3747C105.504 91.5817 106.06 91.9091 106.535 92.337" stroke="#263238" stroke-width="0.530341" stroke-miterlimit="10" stroke-linecap="round"/>
<path d="M29.8218 151.344L31.4726 151.958" stroke="#263238" stroke-width="0.530341" stroke-miterlimit="10" stroke-linecap="round"/>
<path d="M27.4652 154.892C27.486 157.183 27.3652 159.473 27.1038 161.748C26.7061 164.55 26.8387 170.942 27.3689 172.936C27.899 174.931 28.1701 175.346 28.7003 174.141C29.2305 172.936 30.8331 165.887 30.8331 165.887C30.8331 165.887 31.0982 170.545 32.2971 170.147C33.496 169.749 32.8333 167.484 32.8333 165.484C32.8333 163.484 32.9659 162.821 32.8333 161.224C32.7008 159.628 30.9235 155.681 30.9235 155.681" fill="white"/>
<path d="M27.4652 154.892C27.486 157.183 27.3652 159.473 27.1038 161.748C26.7061 164.55 26.8387 170.942 27.3689 172.936C27.899 174.931 28.1701 175.346 28.7003 174.141C29.2305 172.936 30.8331 165.887 30.8331 165.887C30.8331 165.887 31.0982 170.545 32.2971 170.147C33.496 169.749 32.8333 167.484 32.8333 165.484C32.8333 163.484 32.9659 162.821 32.8333 161.224C32.7008 159.628 30.9235 155.681 30.9235 155.681" stroke="#263238" stroke-miterlimit="10" stroke-linecap="round"/>
<path d="M104.571 86.7641C104.51 85.5861 104.51 84.4057 104.571 83.2276C104.679 82.119 104.239 80.4622 104.348 79.0103C104.456 77.5583 105.896 77.0221 105.673 75.1424C105.45 73.2626 105.011 73.0397 105.342 72.5999C105.673 72.1601 107.752 72.8168 107.884 74.0338C108.003 75.2862 108.003 76.5469 107.884 77.7993C107.776 78.1306 108.547 80.2092 108.107 81.1129C107.855 81.6024 107.669 82.123 107.553 82.6613" stroke="#263238" stroke-width="0.880843" stroke-miterlimit="10" stroke-linecap="round"/>
<path d="M108.331 73.9375C108.331 73.9375 110.873 68.8525 112.313 68.7381C113.753 68.6236 113.307 69.943 112.861 70.6178C112.415 71.2926 110.981 73.7145 110.873 74.7146C110.765 75.7148 109.433 79.0224 109.433 79.0224" stroke="#263238" stroke-width="0.880843" stroke-miterlimit="10" stroke-linecap="round"/>
<path d="M110.891 74.7145C110.891 74.7145 114.764 77.034 113.903 78.9318C113.041 80.8296 112.571 81.5888 111.909 81.3417C111.321 81.0415 110.796 80.6326 110.36 80.1368" stroke="#263238" stroke-width="0.880843" stroke-miterlimit="10" stroke-linecap="round"/>
<path d="M112.313 81.3478C112.313 81.3478 111.313 83.0046 110.542 84.0047C110.098 84.5823 109.572 85.0918 108.981 85.5169L108.511 87.1496" stroke="#263238" stroke-width="0.880843" stroke-miterlimit="10" stroke-linecap="round"/>
<path d="M65.8608 89.4031C65.8608 89.4031 75.0486 89.2705 76.2475 90.7345C77.4465 92.1985 91.9662 105.519 93.7194 106.718C95.4726 107.917 95.8521 108.182 95.8521 108.182C95.8521 108.182 103.04 91.9154 103.04 91.1322C103.04 90.3489 104.245 86.7401 104.245 86.7401C104.245 86.7401 106.51 87.0052 107.046 87.0052C107.582 87.0052 109.04 88.7403 109.04 88.7403C109.04 88.7403 107.046 96.8617 107.046 97.7775C107.046 98.6932 103.317 111.363 101.582 115.249C99.8466 119.135 97.4547 118.575 93.5928 117.376C89.731 116.177 79.2117 110.188 79.2117 110.188" stroke="#263238" stroke-width="1.06068" stroke-miterlimit="10" stroke-linecap="round"/>
<path d="M50.4136 140.68C50.4136 140.68 45.0817 154.019 43.6418 163.098C42.2019 172.177 42.8164 193.409 42.4007 195.68C41.985 197.951 36.2133 208.669 36.2133 213.827C36.2133 218.984 33.1226 245.583 33.1226 245.583L35.183 246.818C35.183 246.818 42.4128 224.527 45.0817 218.773C47.7507 213.019 51.474 199.391 52.5042 196.71C53.5345 194.029 60.7582 172.581 61.1678 169.9C61.5775 167.219 64.0537 160.622 64.0537 160.622C64.0537 160.622 69.4158 193.409 70.446 200.217C71.4762 207.025 78.6939 243.932 78.6939 243.932C79.1679 244.048 79.6523 244.117 80.1398 244.137C80.7423 244.137 80.9652 243.107 80.9652 243.107C80.9652 243.107 83.8511 216.917 83.0257 209.904C82.2003 202.892 79.7302 194.24 79.7302 191.758C79.7302 189.276 83.4414 167.84 83.4414 160.429C83.4414 153.019 78.6216 140.156 78.6216 140.156C78.6216 140.156 61.5173 148.783 50.4136 140.68Z" fill="#263238"/>
<path d="M79.6521 193.119C79.6521 193.119 77.8146 200.988 75.3022 205.169" stroke="white" stroke-width="0.530341" stroke-miterlimit="10" stroke-linecap="round"/>
<path d="M79.1519 201.157C79.1519 201.157 77.6457 206.844 74.6333 209.525" stroke="white" stroke-width="0.530341" stroke-miterlimit="10" stroke-linecap="round"/>
<path d="M43.5044 198.644C43.5044 198.644 44.6732 205.507 46.0107 208.35" stroke="white" stroke-width="0.530341" stroke-miterlimit="10" stroke-linecap="round"/>
<path d="M43.1655 202.663C43.1655 202.663 44.1717 207.519 46.0092 210.362" stroke="white" stroke-width="0.530341" stroke-miterlimit="10" stroke-linecap="round"/>
<path d="M64.5903 160.652L71.2838 155.127" stroke="white" stroke-width="0.530341" stroke-miterlimit="10" stroke-linecap="round"/>
<path d="M67.772 158.308L75.6403 154.79" stroke="white" stroke-width="0.530341" stroke-miterlimit="10" stroke-linecap="round"/>
<path d="M50.5293 148.934C50.5293 148.934 55.7226 152.277 58.735 155.127" stroke="white" stroke-width="0.530341" stroke-miterlimit="10" stroke-linecap="round"/>
<path d="M33.34 245.565C33.34 245.565 25.5078 252.192 25.5078 255.482C25.5078 258.772 28.5985 258.573 31.9001 255.482C35.2017 252.391 35.3704 246.023 35.3704 246.023L33.34 245.565Z" fill="white" stroke="#263238" stroke-width="1.06068" stroke-miterlimit="10" stroke-linecap="round"/>
<path d="M78.6943 243.932C78.6943 243.932 81.3754 250.529 84.2672 253.421C87.1591 256.313 88.8039 257.337 88.8039 254.24C88.8039 251.144 86.9483 247.643 80.9717 243.107C80.9657 243.107 82.6165 244.342 78.6943 243.932Z" fill="white" stroke="#263238" stroke-width="1.06068" stroke-miterlimit="10" stroke-linecap="round"/>
<path d="M51.0284 61.3274C50.4922 61.1286 49.9861 60.8876 49.462 60.6647C48.9378 60.4418 47.9799 60.3213 47.6184 61.9661C47.0822 64.376 50.8115 66.3641 49.6126 68.3583C48.8667 69.5715 47.7457 70.5085 46.4195 71.0273C46.2036 71.1015 45.9786 71.1461 45.7507 71.1599C44.6843 71.2924 42.9552 71.1599 43.4854 73.0215C44.0156 74.8832 45.7507 76.4858 46.8171 76.4858H47.8835C47.8835 76.4858 49.0884 80.1006 53.607 82.0767C58.1256 84.0529 61.1982 83.9444 62.2646 81.414C63.331 78.8836 64.1323 76.7508 64.1323 73.4192C64.1323 70.0875 62.9273 64.4965 62.9273 64.4965C62.9273 64.4965 61.8609 65.9665 57.734 64.0988C55.0047 62.8638 52.4502 61.8636 51.0284 61.3274Z" fill="white"/>
<mask id="mask1_2258_61845" style="mask-type:luminance" maskUnits="userSpaceOnUse" x="43" y="60" width="22" height="24">
<path d="M51.0279 61.3274C50.4917 61.1286 49.9856 60.8876 49.4615 60.6647C48.9373 60.4418 47.9794 60.3213 47.6179 61.9661C47.0817 64.376 50.811 66.3641 49.6121 68.3583C48.8662 69.5715 47.7452 70.5085 46.419 71.0273C46.2031 71.1015 45.9781 71.1461 45.7502 71.1599C44.6838 71.2924 42.9547 71.1599 43.4849 73.0215C44.0151 74.8832 45.7502 76.4858 46.8166 76.4858H47.883C47.883 76.4858 49.0879 80.1006 53.6065 82.0767C58.1251 84.0529 61.1977 83.9444 62.2641 81.414C63.3305 78.8836 64.1318 76.7508 64.1318 73.4192C64.1318 70.0875 62.9268 64.4965 62.9268 64.4965C62.9268 64.4965 61.8604 65.9665 57.7335 64.0988C55.0043 62.8638 52.4498 61.8636 51.0279 61.3274Z" fill="white"/>
</mask>
<g mask="url(#mask1_2258_61845)">
<g style="mix-blend-mode:multiply" opacity="0.5">
<path d="M57.7396 64.0989C57.7396 64.0989 51.3714 63.7434 50.4195 63.9C49.4676 64.0567 50.5761 66.9124 50.2628 69.7682C49.9496 72.6239 50.1002 77.2268 51.3714 78.6547C52.8715 80.127 54.4611 81.5052 56.131 82.7817C56.131 82.7817 51.2449 81.9924 49.4676 79.9259C47.6903 77.8594 47.4071 76.7509 47.4071 76.7509C47.4071 76.7509 43.2801 74.341 42.9608 72.4673C42.6415 70.5936 45.3707 71.5876 46.6781 70.6598C47.4131 70.1537 50.4556 69.2018 49.6905 66.6654C48.9253 64.129 47.6903 63.653 47.6421 61.954C47.6059 60.7491 48.6663 60.3996 49.317 60.2912C49.6103 60.2418 49.9117 60.2861 50.1785 60.4177L57.7396 64.0989Z" fill="#92E3A9"/>
</g>
</g>
<path d="M51.0284 61.3274C50.4922 61.1286 49.9861 60.8876 49.462 60.6647C48.9378 60.4418 47.9799 60.3213 47.6184 61.9661C47.0822 64.376 50.8115 66.3641 49.6126 68.3583C48.8667 69.5715 47.7457 70.5085 46.4195 71.0273C46.2036 71.1015 45.9786 71.1461 45.7507 71.1599C44.6843 71.2924 42.9552 71.1599 43.4854 73.0215C44.0156 74.8832 45.7507 76.4858 46.8171 76.4858H47.8835C47.8835 76.4858 49.0884 80.1006 53.607 82.0767C58.1256 84.0529 61.1982 83.9444 62.2646 81.414C63.331 78.8836 64.1323 76.7508 64.1323 73.4192C64.1323 70.0875 62.9273 64.4965 62.9273 64.4965C62.9273 64.4965 61.8609 65.9665 57.734 64.0988C55.0047 62.8638 52.4502 61.8636 51.0284 61.3274Z" stroke="#263238" stroke-width="1.06068" stroke-miterlimit="10" stroke-linecap="round"/>
<path d="M55.7335 69.2202C55.8179 69.7263 55.6793 70.1721 55.4202 70.2143C55.1612 70.2565 54.8961 69.8769 54.8178 69.3708C54.7394 68.8647 54.878 68.4129 55.131 68.3707C55.3841 68.3285 55.6492 68.7382 55.7335 69.2202Z" fill="#263238"/>
<path d="M61.2463 68.2984C61.3246 68.8045 61.1861 69.2503 60.933 69.2925C60.68 69.3346 60.4089 68.9551 60.3305 68.449C60.2522 67.9429 60.3848 67.4971 60.6378 67.4549C60.8908 67.4127 61.162 67.7923 61.2463 68.2984Z" fill="#263238"/>
<path d="M52.541 66.7618C52.8781 66.2607 53.3354 65.852 53.8711 65.5731C54.4068 65.2942 55.0038 65.154 55.6076 65.1652" stroke="#263238" stroke-width="1.06068" stroke-miterlimit="10" stroke-linecap="round"/>
<path d="M59.7344 65.5628C60.2461 65.3839 60.8002 65.3648 61.3231 65.5079C61.846 65.651 62.313 65.9496 62.6624 66.3641" stroke="#263238" stroke-width="1.06068" stroke-miterlimit="10" stroke-linecap="round"/>
<path d="M59.2044 67.8283C59.1308 68.6702 59.1308 69.5169 59.2044 70.3587C59.3369 71.4251 60.1322 71.6902 59.8671 72.4915C59.602 73.2928 58.5356 73.2868 58.5356 73.2868" stroke="#263238" stroke-width="1.06068" stroke-miterlimit="10" stroke-linecap="round"/>
<path d="M57.204 76.4858C56.7477 76.5936 56.2735 76.6015 55.8139 76.5089C55.3542 76.4164 54.92 76.2256 54.541 75.9496" stroke="#263238" stroke-width="1.06068" stroke-miterlimit="10" stroke-linecap="round"/>
</svg>
