<svg width="298" height="302" viewBox="0 0 298 302" fill="none" xmlns="http://www.w3.org/2000/svg">
<path d="M198.482 288.048H204.143V220.251H198.482V288.048Z" fill="#E0E0E0"/>
<path d="M161.276 223.311H242.21C242.21 220.982 241.284 218.748 239.637 217.1C237.99 215.453 235.756 214.528 233.427 214.528H170.06C167.731 214.53 165.498 215.456 163.851 217.102C162.204 218.749 161.278 220.982 161.276 223.311Z" fill="#EBEBEB"/>
<path d="M242.536 223.645H160.949V223.311C160.953 220.896 161.914 218.581 163.622 216.873C165.329 215.166 167.644 214.205 170.059 214.201H233.426C235.841 214.205 238.156 215.166 239.864 216.873C241.572 218.581 242.533 220.896 242.536 223.311V223.645ZM161.61 222.984H241.876C241.79 220.8 240.862 218.734 239.287 217.219C237.712 215.704 235.612 214.857 233.426 214.855H170.059C167.874 214.857 165.774 215.704 164.199 217.219C162.624 218.734 161.696 220.8 161.61 222.984Z" fill="#E0E0E0"/>
<path d="M195.818 223.485C195.818 223.603 198.044 223.693 200.784 223.693C203.524 223.693 205.749 223.603 205.749 223.485C204.102 223.279 202.442 223.209 200.784 223.276C199.126 223.209 197.465 223.279 195.818 223.485Z" fill="#E0E0E0"/>
<path d="M176.562 294.175H177.362C177.307 290.978 177.89 287.803 179.076 284.834C180.262 281.865 182.027 279.162 184.268 276.882C186.509 274.602 189.182 272.791 192.13 271.555C195.079 270.319 198.244 269.683 201.441 269.683C204.638 269.683 207.803 270.319 210.751 271.555C213.7 272.791 216.373 274.602 218.614 276.882C220.855 279.162 222.62 281.865 223.806 284.834C224.992 287.803 225.574 290.978 225.52 294.175H226.32C226.375 290.873 225.772 287.592 224.547 284.526C223.321 281.459 221.497 278.667 219.182 276.312C216.866 273.957 214.105 272.087 211.059 270.811C208.013 269.534 204.743 268.876 201.441 268.876C198.138 268.876 194.869 269.534 191.823 270.811C188.777 272.087 186.016 273.957 183.7 276.312C181.384 278.667 179.561 281.459 178.335 284.526C177.11 287.592 176.507 290.873 176.562 294.175Z" fill="#EBEBEB"/>
<path d="M222.188 295.419C222.187 296.158 222.405 296.881 222.814 297.496C223.224 298.111 223.807 298.591 224.489 298.874C225.171 299.158 225.922 299.233 226.647 299.09C227.372 298.947 228.038 298.591 228.561 298.069C229.084 297.547 229.44 296.882 229.585 296.157C229.73 295.433 229.656 294.682 229.374 293.999C229.091 293.316 228.613 292.732 227.998 292.322C227.384 291.911 226.662 291.692 225.923 291.692C225.433 291.691 224.947 291.787 224.494 291.974C224.041 292.161 223.63 292.435 223.283 292.781C222.936 293.127 222.661 293.539 222.473 293.991C222.285 294.444 222.188 294.929 222.188 295.419Z" fill="#E0E0E0"/>
<path d="M173.043 294.905C173.042 295.644 173.259 296.366 173.669 296.981C174.078 297.596 174.661 298.076 175.343 298.36C176.026 298.644 176.777 298.718 177.502 298.575C178.227 298.432 178.893 298.077 179.416 297.555C179.939 297.033 180.295 296.367 180.44 295.643C180.584 294.918 180.511 294.167 180.228 293.484C179.946 292.801 179.467 292.218 178.853 291.807C178.239 291.396 177.516 291.177 176.777 291.177C175.788 291.177 174.839 291.57 174.139 292.269C173.439 292.967 173.045 293.915 173.043 294.905Z" fill="#E0E0E0"/>
<path d="M176.806 288.041C176.806 288.159 187.626 288.25 200.979 288.25C214.331 288.25 225.158 288.159 225.158 288.041C225.158 287.923 214.338 287.832 200.979 287.832C187.62 287.832 176.806 287.916 176.806 288.041Z" fill="#EBEBEB"/>
<path d="M244.588 153.129V203.032C244.593 204.588 244.291 206.129 243.698 207.567C243.106 209.006 242.236 210.313 241.138 211.414C240.04 212.516 238.735 213.39 237.298 213.986C235.862 214.582 234.322 214.889 232.766 214.889H194.274L199.504 153.129C199.503 152.435 199.639 151.748 199.904 151.107C200.169 150.465 200.557 149.883 201.048 149.392C201.538 148.901 202.12 148.512 202.761 148.246C203.402 147.98 204.089 147.844 204.782 147.844H239.303C240.705 147.844 242.049 148.4 243.04 149.392C244.032 150.383 244.588 151.727 244.588 153.129Z" fill="#EBEBEB"/>
<path d="M230.993 214.528C231.017 214.475 231.047 214.426 231.084 214.382L231.362 213.971C231.619 213.624 231.981 213.088 232.419 212.393C233.655 210.41 234.618 208.269 235.284 206.03C235.748 204.491 236.067 202.913 236.237 201.315C236.396 199.465 236.447 197.607 236.39 195.751C236.39 191.822 236.39 187.517 236.39 182.99C236.39 173.95 236.431 165.778 236.445 159.812C236.445 156.877 236.494 154.485 236.515 152.788C236.515 151.988 236.515 151.348 236.55 150.875C236.546 150.655 236.56 150.434 236.591 150.215C236.623 150.434 236.637 150.655 236.633 150.875C236.633 151.348 236.633 151.988 236.668 152.788C236.668 154.485 236.71 156.877 236.73 159.812C236.73 165.778 236.772 173.957 236.793 182.99C236.793 187.517 236.793 191.822 236.793 195.751C236.836 197.608 236.77 199.465 236.598 201.315C236.416 202.931 236.078 204.526 235.59 206.078C234.892 208.331 233.878 210.473 232.579 212.441C232.12 213.137 231.737 213.651 231.459 213.985C231.325 214.183 231.169 214.365 230.993 214.528Z" fill="#E0E0E0"/>
<path d="M210.054 214.556C210.459 214.499 210.868 214.475 211.278 214.486L214.609 214.444C217.39 214.444 221.313 214.444 225.603 214.444C227.752 214.444 229.776 214.444 231.654 214.514C233.316 214.485 234.975 214.667 236.591 215.056C237.683 215.347 238.697 215.877 239.561 216.607C239.795 216.803 240.012 217.019 240.207 217.254C240.346 217.414 240.409 217.497 240.402 217.511C240.395 217.525 240.089 217.198 239.463 216.732C238.588 216.073 237.587 215.6 236.522 215.341C234.922 215 233.288 214.853 231.654 214.903L225.603 214.862C221.313 214.862 217.425 214.778 214.616 214.723L211.285 214.639C210.873 214.645 210.461 214.617 210.054 214.556Z" fill="#E0E0E0"/>
<path d="M288.233 186.099H72.9922V193.672H288.233V186.099Z" fill="#E0E0E0"/>
<path d="M83.6258 192.74L62.3389 299.182H65.9412L91.1433 193.672L83.6258 192.74Z" fill="#E0E0E0"/>
<path d="M262.822 192.518L284.102 299.182H280.507L255.298 193.672L262.822 192.518Z" fill="#E0E0E0"/>
<path d="M114.502 162.74V175.953H112.298V177.343H114.502V186.175H155.699V178.129H152.646V176.384H155.699V173.755H157.09V172.559H155.484V162.74H114.502Z" fill="#F5F5F5"/>
<path d="M144.76 162.739V186.022H155.699V177.983H152.646V176.384L155.699 176.432V173.811H157.083L157.055 172.454L155.448 172.413V162.705L144.76 162.739Z" fill="#E0E0E0"/>
<path d="M145.539 177.149C145.539 177.225 138.084 177.295 128.891 177.295C119.697 177.295 112.235 177.225 112.235 177.149C112.235 177.072 119.69 177.003 128.891 177.003C138.091 177.003 145.539 177.065 145.539 177.149Z" fill="#E0E0E0"/>
<path d="M145.539 175.806C145.539 175.883 138.084 175.952 128.891 175.952C119.697 175.952 112.235 175.883 112.235 175.806C112.235 175.73 119.69 175.66 128.891 175.66C138.091 175.66 145.539 175.723 145.539 175.806Z" fill="#E0E0E0"/>
<path d="M147.681 172.197C147.681 172.274 140.226 172.343 130.991 172.343C121.756 172.343 114.343 172.274 114.343 172.197C114.343 172.121 121.798 172.051 130.991 172.051C140.185 172.051 147.681 172.114 147.681 172.197Z" fill="#E0E0E0"/>
<path d="M147.883 182.031C147.883 182.114 140.428 182.177 131.234 182.177C122.041 182.177 114.586 182.114 114.586 182.031C114.586 181.947 122.034 181.885 131.234 181.885C140.435 181.885 147.883 181.947 147.883 182.031Z" fill="#E0E0E0"/>
<path d="M69.0287 0.684814H0.292969V62.1812H69.0287V0.684814Z" fill="#FAFAFA"/>
<path d="M69.0286 62.1812C69.0286 62.1812 69.0286 61.7848 69.0286 61.0407C69.0286 60.2966 69.0286 59.1769 69.0286 57.7444C69.0286 54.8584 69.0286 50.6371 68.9869 45.2267C68.9869 34.4824 68.9382 19.1275 68.9034 0.650062L69.0634 0.803056H0.327679L0.508491 0.622247C0.508491 22.994 0.508491 44.0445 0.508491 62.1186L0.348541 61.9517L50.0644 62.0351L64.0842 62.0769H67.7977H68.7504H69.0843H67.8325H64.1537L50.1687 62.1186L0.348541 62.202H0.181641V62.0421C0.181641 43.9611 0.181641 22.9175 0.181641 0.54575V0.49707H0.369405H69.1051H69.2581V0.705697C69.2581 19.2248 69.2025 34.6076 69.1816 45.3797C69.1816 50.7414 69.1816 54.9488 69.1399 57.8278C69.1399 59.2187 69.1399 60.3453 69.1399 61.0894C69.1399 61.8335 69.0286 62.1812 69.0286 62.1812Z" fill="#E0E0E0"/>
<path d="M26.649 11.6099C26.649 11.7072 23.0258 11.7907 18.5681 11.7907C14.1105 11.7907 10.4873 11.7072 10.4873 11.6099C10.4873 11.5125 14.1035 11.4221 18.5681 11.4221C23.0328 11.4221 26.649 11.5056 26.649 11.6099Z" fill="#E0E0E0"/>
<path d="M55.7739 16.2276C55.7739 16.3249 45.8294 16.4084 33.576 16.4084C21.3226 16.4084 11.3711 16.3249 11.3711 16.2276C11.3711 16.1302 21.3087 16.0398 33.576 16.0398C45.8433 16.0398 55.7739 16.1232 55.7739 16.2276Z" fill="#E0E0E0"/>
<path d="M13.4994 24.051H10.6064V26.944H13.4994V24.051Z" fill="#E0E0E0"/>
<path d="M20.6273 24.051H17.7344V26.944H20.6273V24.051Z" fill="#E0E0E0"/>
<path d="M27.8871 23.9189H24.9941V26.8119H27.8871V23.9189Z" fill="#E0E0E0"/>
<path d="M34.8832 24.051H31.9902V26.944H34.8832V24.051Z" fill="#E0E0E0"/>
<path d="M42.0111 24.051H39.1182V26.944H42.0111V24.051Z" fill="#E0E0E0"/>
<path d="M49.1391 24.051H46.2461V26.944H49.1391V24.051Z" fill="#E0E0E0"/>
<path d="M56.267 24.051H53.374V26.944H56.267V24.051Z" fill="#EBEBEB"/>
<path d="M13.4994 30.2056H10.6064V33.0985H13.4994V30.2056Z" fill="#EBEBEB"/>
<path d="M20.6273 30.2056H17.7344V33.0985H20.6273V30.2056Z" fill="#E0E0E0"/>
<path d="M27.7553 30.2056H24.8623V33.0985H27.7553V30.2056Z" fill="#EBEBEB"/>
<path d="M34.8832 30.2056H31.9902V33.0985H34.8832V30.2056Z" fill="#E0E0E0"/>
<path d="M42.0111 30.2056H39.1182V33.0985H42.0111V30.2056Z" fill="#E0E0E0"/>
<path d="M49.2719 30.0735H46.3789V32.9664H49.2719V30.0735Z" fill="#E0E0E0"/>
<path d="M56.267 30.2056H53.374V33.0985H56.267V30.2056Z" fill="#E0E0E0"/>
<path d="M13.4994 36.3601H10.6064V39.2531H13.4994V36.3601Z" fill="#E0E0E0"/>
<path d="M20.7592 36.228H17.8662V39.121H20.7592V36.228Z" fill="#E0E0E0"/>
<path d="M27.7553 36.3601H24.8623V39.2531H27.7553V36.3601Z" fill="#E0E0E0"/>
<path d="M34.8832 36.3601H31.9902V39.2531H34.8832V36.3601Z" fill="#EBEBEB"/>
<path d="M42.0111 36.3601H39.1182V39.2531H42.0111V36.3601Z" fill="#E0E0E0"/>
<path d="M49.1391 36.3601H46.2461V39.2531H49.1391V36.3601Z" fill="#E0E0E0"/>
<path d="M56.267 36.3601H53.374V39.2531H56.267V36.3601Z" fill="#E0E0E0"/>
<path d="M13.4994 42.5146H10.6064V45.4076H13.4994V42.5146Z" fill="#E0E0E0"/>
<path d="M20.6273 42.5146H17.7344V45.4076H20.6273V42.5146Z" fill="#E0E0E0"/>
<path d="M27.7553 42.5146H24.8623V45.4076H27.7553V42.5146Z" fill="#E0E0E0"/>
<path d="M35.015 42.3894H32.1221V45.2824H35.015V42.3894Z" fill="#E0E0E0"/>
<path d="M42.0111 42.5146H39.1182V45.4076H42.0111V42.5146Z" fill="#E0E0E0"/>
<path d="M49.1391 42.5146H46.2461V45.4076H49.1391V42.5146Z" fill="#EBEBEB"/>
<path d="M56.267 42.5146H53.374V45.4076H56.267V42.5146Z" fill="#E0E0E0"/>
<path d="M13.4994 48.676H10.6064V51.569H13.4994V48.676Z" fill="#E0E0E0"/>
<path d="M20.6273 48.676H17.7344V51.569H20.6273V48.676Z" fill="#EBEBEB"/>
<path d="M27.7553 48.676H24.8623V51.569H27.7553V48.676Z" fill="#E0E0E0"/>
<path d="M34.8832 48.676H31.9902V51.569H34.8832V48.676Z" fill="#E0E0E0"/>
<path d="M42.0111 48.676H39.1182V51.569H42.0111V48.676Z" fill="#E0E0E0"/>
<path d="M49.2719 48.5439H46.3789V51.4369H49.2719V48.5439Z" fill="#E0E0E0"/>
<path d="M56.267 48.676H53.374V51.569H56.267V48.676Z" fill="#E0E0E0"/>
<path d="M286.801 8.70996H252.969V17.6601H286.801V8.70996Z" fill="#EBEBEB"/>
<path d="M272.496 27.0832C272.49 27.03 272.49 26.9764 272.496 26.9232V26.4364C272.496 26.0122 272.496 25.4281 272.496 24.677C272.496 23.1332 272.496 20.9078 272.44 18.1052L272.545 18.2096L238.712 18.2791C238.789 18.2026 238.538 18.453 238.879 18.1052V27.0832L238.712 26.9163L262.823 26.9928L269.937 27.0414H271.863H272.364H272.545H272.385H271.905H270.013L262.864 27.1805L238.636 27.257H238.524V18.14C238.865 17.7993 238.622 18.0496 238.698 17.9731L272.531 18.0357H272.6V18.14C272.6 20.9704 272.558 23.2097 272.545 24.7744C272.545 25.5185 272.545 26.0957 272.545 26.5129C272.545 26.6937 272.545 26.8328 272.545 26.951C272.532 26.9963 272.516 27.0405 272.496 27.0832Z" fill="#E0E0E0"/>
<path d="M136.763 228.374H102.931V237.324H136.763V228.374Z" fill="#EBEBEB"/>
<path d="M122.458 246.754C122.453 246.698 122.453 246.642 122.458 246.587V246.128C122.458 245.71 122.458 245.119 122.458 244.368C122.458 242.824 122.423 240.599 122.402 237.804L122.506 237.908L88.6739 237.97L88.8408 237.804V246.74L88.6739 246.573L112.784 246.649L119.898 246.698H121.825H122.325H122.506H122.346H121.866H119.975L112.902 246.747L88.6739 246.823H88.5V237.845L88.6739 237.671L122.506 237.741H122.611V237.845C122.611 240.669 122.569 242.915 122.555 244.473C122.555 245.217 122.555 245.794 122.555 246.211C122.555 246.392 122.555 246.538 122.555 246.649C122.525 246.686 122.492 246.721 122.458 246.754Z" fill="#E0E0E0"/>
<path d="M286.467 133.907C286.461 133.854 286.461 133.8 286.467 133.747V133.288C286.467 132.864 286.467 132.28 286.467 131.529C286.467 129.978 286.432 127.76 286.411 124.957L286.515 125.061L252.683 125.131C252.759 125.054 252.509 125.305 252.85 124.957V133.9L252.676 133.733L276.793 133.81L283.908 133.858H285.834H286.335H286.515C286.462 133.865 286.409 133.865 286.355 133.858H285.876H283.984L276.912 133.907L252.676 133.984H252.433V124.964C252.773 124.623 252.53 124.874 252.606 124.797L286.439 124.86H286.543V124.964C286.543 127.794 286.494 130.034 286.481 131.598C286.481 132.335 286.481 132.92 286.481 133.337V133.775C286.479 133.819 286.475 133.864 286.467 133.907Z" fill="#E0E0E0"/>
<path d="M291.05 124.957C291.05 124.957 291.05 124.895 291.05 124.79C291.05 124.686 291.05 124.505 291.05 124.317C291.05 123.872 291.05 123.274 291.015 122.523C291.015 120.952 290.98 118.733 290.952 116.007L291.071 116.132L270.743 116.181L270.917 116.007V120.611C270.917 122.113 270.917 123.559 270.917 124.95L270.75 124.79L285.292 124.867L289.527 124.908H290.674H291.078C290.955 124.918 290.832 124.918 290.709 124.908H289.603L285.431 124.957L270.778 125.034H270.618V124.867C270.618 123.476 270.618 122.029 270.618 120.527C270.618 119.783 270.618 119.018 270.618 118.253V115.924L270.792 115.75L291.119 115.798H291.244V115.924C291.244 118.705 291.196 120.924 291.182 122.509C291.182 123.253 291.182 123.844 291.147 124.276C291.138 124.506 291.106 124.734 291.05 124.957Z" fill="#E0E0E0"/>
<path d="M34.5426 125.11C34.5365 125.057 34.5365 125.003 34.5426 124.95V124.491C34.5426 124.067 34.5426 123.483 34.5426 122.725C34.5426 121.181 34.5426 118.962 34.48 116.16L34.5843 116.264L0.758905 116.334C0.828448 116.257 0.58505 116.501 0.925808 116.16V120.694C0.925808 122.192 0.925808 123.659 0.925808 125.096L0.758905 124.929L24.8693 125.006L31.9904 125.054H33.9098H34.4174H34.5982C34.5451 125.061 34.4914 125.061 34.4383 125.054H33.9584L31.9834 125.186H24.9318L0.689364 125.277H0.522461V120.708C0.522461 119.964 0.522461 119.206 0.522461 118.448V116.146C0.870173 115.798 0.619822 116.049 0.703273 115.972L34.5287 116.042H34.64V116.146C34.64 118.976 34.5913 121.216 34.5774 122.773C34.5774 123.517 34.5774 124.095 34.5774 124.512V124.957C34.5705 125.009 34.5589 125.06 34.5426 125.11Z" fill="#E0E0E0"/>
<path d="M39.125 116.146C39.125 116.146 39.125 116.084 39.125 115.972C39.125 115.861 39.125 115.694 39.125 115.499C39.125 115.061 39.125 114.463 39.125 113.705C39.125 112.141 39.0833 109.922 39.0555 107.196L39.1806 107.321L18.7699 107.384C18.6169 107.537 18.9786 107.168 18.9438 107.21V109.526C18.9438 110.298 18.9438 111.056 18.9438 111.807V116.146L18.7769 115.979L33.3738 116.077L37.5464 116.146H38.6869H39.0972C38.9745 116.156 38.8513 116.156 38.7286 116.146H37.6229L33.4503 116.188L18.7699 116.327H18.6309V116.146C18.6309 114.755 18.6309 113.302 18.6309 111.807V107.21L18.8047 107.036L39.132 107.085H39.2571V107.21C39.2571 109.992 39.2085 112.21 39.1876 113.796C39.1876 114.54 39.1876 115.131 39.1876 115.562C39.1791 115.758 39.1582 115.953 39.125 116.146Z" fill="#E0E0E0"/>
<path d="M296.516 299.182C296.516 299.279 232.87 299.363 154.385 299.363C75.8994 299.363 12.2402 299.279 12.2402 299.182C12.2402 299.084 75.8715 299.001 154.385 299.001C232.898 299.001 296.516 299.084 296.516 299.182Z" fill="#263238"/>
<path d="M229.505 55.9084H115.518V142.245H229.505V55.9084Z" fill="#F5F5F5"/>
<path d="M229.484 142.245C229.484 142.245 229.484 141.696 229.484 140.66C229.484 139.624 229.484 138.08 229.484 136.07C229.484 132.044 229.484 126.146 229.443 118.615C229.443 103.566 229.401 82.0008 229.366 55.9085L229.519 56.0546H115.539L115.72 55.8738C115.72 86.9314 115.72 116.334 115.72 142.211L115.56 142.044L197.843 142.127L221.202 142.169H227.398H228.998H229.547H227.461H221.292L197.975 142.211L115.581 142.294H115.414V142.134C115.414 116.257 115.414 86.8549 115.414 55.7973V55.6165H115.609H229.589H229.735V55.7694C229.7 81.8965 229.679 103.496 229.658 118.566C229.658 126.084 229.658 131.974 229.617 135.952V140.521C229.484 141.724 229.484 142.245 229.484 142.245Z" fill="#263238"/>
<path d="M156.84 96.3474H149.142V117.168H156.84V96.3474Z" fill="#5EBBFF"/>
<path d="M189.504 96.3474H181.806V117.168H189.504V96.3474Z" fill="#5EBBFF"/>
<path d="M200.395 84.1218H192.696V117.168H200.395V84.1218Z" fill="#5EBBFF"/>
<path d="M146.881 110.617H139.183V117.62H146.881V110.617Z" fill="#5EBBFF"/>
<path d="M167.731 105.75H160.032V117.168H167.731V105.75Z" fill="#5EBBFF"/>
<path d="M178.62 103.128H170.922V117.168H178.62V103.128Z" fill="#5EBBFF"/>
<path d="M144.808 90.1025C145.723 90.1025 146.464 89.3614 146.464 88.4473C146.464 87.5333 145.723 86.7922 144.808 86.7922C143.894 86.7922 143.153 87.5333 143.153 88.4473C143.153 89.3614 143.894 90.1025 144.808 90.1025Z" fill="#FF725E"/>
<path d="M170.324 60.1575C170.422 60.1575 170.505 67.7585 170.505 77.1328C170.505 86.5071 170.422 94.1081 170.324 94.1081C170.227 94.1081 170.144 86.5071 170.144 77.1328C170.144 67.7585 170.22 60.1575 170.324 60.1575Z" fill="#263238"/>
<path d="M221.466 72.5638C221.069 72.6161 220.669 72.6393 220.27 72.6333L216.994 72.6889C214.212 72.7237 210.409 72.7446 206.194 72.7446H200.248C199.812 72.7192 199.375 72.7331 198.941 72.7863C198.55 72.8562 198.179 73.013 197.856 73.2453C197.264 73.6668 196.856 74.2988 196.716 75.0117C196.669 75.3293 196.651 75.6504 196.66 75.9713C196.66 76.2843 196.66 76.5764 196.66 76.8545C196.66 77.383 196.66 77.8559 196.66 78.2454C196.67 78.6476 196.647 79.05 196.59 79.4485C196.538 79.0496 196.515 78.6475 196.521 78.2454C196.521 77.842 196.521 77.3691 196.521 76.8545C196.521 76.5764 196.521 76.2843 196.521 75.9713C196.49 75.6382 196.49 75.303 196.521 74.9699C196.654 74.1802 197.091 73.4738 197.738 73.0019C198.094 72.7375 198.505 72.5568 198.941 72.4734C199.402 72.4093 199.867 72.3884 200.332 72.4108H206.278C210.492 72.4108 214.31 72.4108 217.078 72.4594L220.353 72.522C220.724 72.5069 221.097 72.5208 221.466 72.5638Z" fill="#263238"/>
<path d="M206.25 82.5363C206.186 82.526 206.123 82.5097 206.062 82.4877L205.527 82.2999C205.29 82.2164 205.005 82.0982 204.65 81.987L203.44 81.6392C200.209 80.8208 196.837 80.7262 193.564 81.3621C190.292 81.998 187.201 83.3489 184.511 85.318C182.677 86.7765 180.986 88.4066 179.462 90.186C177.793 91.9593 175.985 93.8787 173.558 94.9844C172.36 95.5303 171.056 95.8012 169.74 95.7772C168.472 95.7292 167.221 95.4658 166.04 94.9983C163.866 94.0548 161.802 92.8748 159.886 91.4795C158.137 90.2894 156.274 89.2783 154.323 88.4614C152.608 87.7756 150.762 87.481 148.919 87.599C146.242 87.7491 143.631 88.4851 141.269 89.7548C140.63 90.1005 140.014 90.4885 139.427 90.9162L138.968 91.2639C138.919 91.3059 138.865 91.341 138.808 91.3682C139.525 90.6853 140.329 90.1007 141.2 89.6297C143.568 88.2966 146.207 87.5145 148.919 87.3417C150.8 87.2028 152.687 87.4904 154.441 88.1832C156.43 88.99 158.329 90.0015 160.108 91.2013C162.011 92.576 164.055 93.7417 166.207 94.6784C167.353 95.1304 168.566 95.3866 169.796 95.4365C171.056 95.4515 172.305 95.1904 173.454 94.6715C175.797 93.6075 177.578 91.7298 179.24 89.9565C180.785 88.1626 182.496 86.5188 184.351 85.0468C187.618 82.6737 191.459 81.2164 195.478 80.8256C198.175 80.5644 200.898 80.8001 203.51 81.521L204.72 81.9035C205.068 82.0217 205.353 82.1539 205.589 82.2443L206.111 82.4668C206.194 82.5016 206.257 82.5294 206.25 82.5363Z" fill="#FF725E"/>
<path d="M170.324 96.8967C171.238 96.8967 171.979 96.1556 171.979 95.2415C171.979 94.3274 171.238 93.5864 170.324 93.5864C169.41 93.5864 168.669 94.3274 168.669 95.2415C168.669 96.1556 169.41 96.8967 170.324 96.8967Z" fill="#FF725E"/>
<path d="M196.743 82.4875C197.657 82.4875 198.398 81.7465 198.398 80.8324C198.398 79.9183 197.657 79.1772 196.743 79.1772C195.829 79.1772 195.088 79.9183 195.088 80.8324C195.088 81.7465 195.829 82.4875 196.743 82.4875Z" fill="#FF725E"/>
<path d="M146.881 120.354C145.594 120.536 144.292 120.597 142.994 120.534C141.697 120.597 140.398 120.536 139.113 120.354C140.399 120.175 141.697 120.114 142.994 120.173C144.292 120.114 145.594 120.175 146.881 120.354Z" fill="#263238"/>
<path d="M156.986 120.354C155.699 120.536 154.397 120.597 153.098 120.534C151.8 120.597 150.498 120.536 149.211 120.354C150.499 120.175 151.8 120.114 153.098 120.173C154.397 120.115 155.698 120.175 156.986 120.354Z" fill="#263238"/>
<path d="M168.245 120.354C166.957 120.536 165.656 120.597 164.357 120.534C163.059 120.597 161.757 120.536 160.47 120.354C161.757 120.175 163.059 120.115 164.357 120.173C165.656 120.114 166.957 120.175 168.245 120.354Z" fill="#263238"/>
<path d="M178.982 120.353C176.396 120.595 173.793 120.595 171.207 120.353C173.793 120.112 176.396 120.112 178.982 120.353Z" fill="#263238"/>
<path d="M189.448 120.353C186.862 120.595 184.259 120.595 181.673 120.353C184.259 120.112 186.862 120.112 189.448 120.353Z" fill="#263238"/>
<path d="M199.921 120.353C197.335 120.595 194.732 120.595 192.146 120.353C194.732 120.112 197.335 120.112 199.921 120.353Z" fill="#263238"/>
<path d="M139.857 126.918H138.786V126.278H141.714V126.918H140.636V129.644H139.857V126.918Z" fill="#263238"/>
<path d="M144.281 129.644L143.634 128.705H142.938V129.644H142.139V126.278H143.592C144.489 126.278 145.053 126.744 145.053 127.502C145.062 127.73 145 127.955 144.876 128.146C144.751 128.337 144.57 128.484 144.357 128.566L145.108 129.644H144.281ZM143.585 126.918H142.952V128.086H143.585C144.058 128.086 144.281 127.864 144.281 127.502C144.281 127.141 144.023 126.918 143.55 126.918H143.585Z" fill="#263238"/>
<path d="M148.28 129.018V129.644H145.672V126.278H148.217V126.904H146.444V127.634H148.008V128.239H146.444V129.018H148.28Z" fill="#263238"/>
<path d="M151.985 126.278V129.644H151.345L149.669 127.6V129.644H148.897V126.278H149.544L151.213 128.323V126.278H151.985Z" fill="#263238"/>
<path d="M152.786 126.278H154.316C154.55 126.257 154.786 126.285 155.008 126.36C155.231 126.435 155.435 126.555 155.609 126.713C155.782 126.872 155.921 127.065 156.015 127.279C156.11 127.494 156.159 127.727 156.159 127.961C156.159 128.196 156.11 128.428 156.015 128.643C155.921 128.858 155.782 129.051 155.609 129.209C155.435 129.368 155.231 129.488 155.008 129.563C154.786 129.638 154.55 129.666 154.316 129.644H152.786V126.278ZM154.274 129.005C154.551 129.005 154.816 128.895 155.012 128.699C155.208 128.503 155.317 128.238 155.317 127.961C155.317 127.685 155.208 127.419 155.012 127.224C154.816 127.028 154.551 126.918 154.274 126.918H153.579V129.005H154.274Z" fill="#263238"/>
<path d="M143.564 88.0789C143.439 88.1104 143.31 88.1245 143.181 88.1206H142.083L138.042 88.1832H132.048H128.508C127.874 88.2099 127.239 88.182 126.61 88.0997C125.953 87.9776 125.322 87.7423 124.746 87.4043C123.601 86.7449 122.729 85.6997 122.284 84.4557C122.068 83.8699 121.955 83.2511 121.95 82.6267V80.8951C121.95 78.6489 121.95 76.6183 121.992 74.9006C122.034 73.1829 122.034 71.8616 122.048 70.8602C122.048 70.4151 122.048 70.0535 122.082 69.7614C122.079 69.633 122.091 69.5046 122.117 69.3789C122.136 69.5057 122.136 69.6346 122.117 69.7614C122.117 70.0535 122.117 70.4151 122.152 70.8602C122.152 71.8616 122.152 73.2316 122.214 74.9006C122.277 76.5696 122.214 78.6489 122.214 80.8951C122.249 82.0217 122.103 83.2178 122.548 84.3305C122.963 85.5024 123.782 86.4884 124.857 87.1122C125.398 87.4205 125.989 87.6323 126.603 87.7381C127.211 87.8184 127.825 87.8463 128.439 87.8216H131.978L137.973 87.8633L142.013 87.9189L143.112 87.9537C143.266 87.9805 143.418 88.0224 143.564 88.0789Z" fill="#263238"/>
<path d="M221.034 58.4885V109.734H227.23H235.77H275.562V58.4885H221.034Z" fill="#FAFAFA"/>
<path d="M221.034 58.4886H222.022H224.929L236.007 58.4469L275.563 58.3704H275.722V58.5303C275.722 73.5167 275.722 91.0762 275.722 109.769V109.887H275.542H221.013H220.854V109.734C220.888 94.3238 220.916 81.4932 220.937 72.5153C220.937 68.0507 220.937 64.5388 220.979 62.1326C220.979 60.9504 220.979 60.0463 220.979 59.4135C220.979 58.7807 220.979 58.4886 220.979 58.4886C220.979 58.4886 220.979 58.8224 220.979 59.4483C220.979 60.0742 220.979 60.9991 220.979 62.23C220.979 64.6431 220.979 68.1689 221.02 72.6613C221.02 81.6184 221.062 94.4142 221.097 109.783L220.944 109.63H275.472L275.291 109.811C275.291 91.1179 275.291 73.5584 275.291 58.572L275.451 58.732L236 58.6485H224.873H221.931H221.166L221.034 58.4886Z" fill="#263238"/>
<path d="M248.052 64.2952C244.723 64.2952 241.47 65.2822 238.702 67.1314C235.935 68.9806 233.777 71.609 232.504 74.6841C231.23 77.7593 230.897 81.1431 231.546 84.4077C232.195 87.6722 233.798 90.6709 236.152 93.0245C238.505 95.3781 241.504 96.9809 244.769 97.6303C248.033 98.2797 251.417 97.9464 254.492 96.6726C257.567 95.3989 260.196 93.2418 262.045 90.4743C263.894 87.7067 264.881 84.4529 264.881 81.1244C264.881 76.661 263.108 72.3804 259.952 69.2243C256.796 66.0682 252.515 64.2952 248.052 64.2952ZM248.309 91.2011C246.265 91.2011 244.267 90.595 242.568 89.4595C240.869 88.324 239.544 86.7101 238.762 84.8218C237.98 82.9335 237.775 80.8557 238.174 78.8511C238.573 76.8465 239.557 75.0051 241.002 73.5599C242.447 72.1146 244.289 71.1304 246.293 70.7317C248.298 70.3329 250.376 70.5376 252.264 71.3197C254.152 72.1019 255.766 73.4264 256.902 75.1259C258.037 76.8253 258.643 78.8232 258.643 80.8671C258.643 83.6079 257.554 86.2364 255.616 88.1744C253.678 90.1124 251.05 91.2011 248.309 91.2011Z" fill="#41CC97"/>
<path d="M237.974 80.8674C237.974 78.8722 238.55 76.9194 239.635 75.2448C240.72 73.5702 242.266 72.2454 244.087 71.4304L241.5 65.6167C238.451 66.9037 235.849 69.0614 234.019 71.8198C232.19 74.5782 231.214 77.8148 231.215 81.1247C231.215 81.3611 231.215 81.5975 231.215 81.8201H237.981C237.977 81.5234 237.974 81.2058 237.974 80.8674Z" fill="#E0E0E0"/>
<path d="M261.974 102.196C261.974 102.279 255.715 102.349 248.066 102.349C240.416 102.349 234.157 102.279 234.157 102.196C234.157 102.112 240.416 102.036 248.066 102.036C255.715 102.036 261.974 102.105 261.974 102.196Z" fill="#263238"/>
<path d="M255.777 104.748C255.777 104.838 252.3 104.908 248.051 104.908C243.802 104.908 240.332 104.838 240.332 104.748C240.332 104.658 243.809 104.588 248.051 104.588C252.293 104.588 255.777 104.658 255.777 104.748Z" fill="#263238"/>
<path d="M246.869 78.6904V79.3859L245.479 82.5778H244.282L245.59 79.5667H244.568V80.1647H243.636V78.6974L246.869 78.6904Z" fill="#263238"/>
<path d="M250.145 81.3191C250.145 82.0146 249.624 82.6474 248.455 82.6474C247.929 82.6575 247.41 82.5254 246.953 82.2649L247.343 81.4374C247.664 81.6444 248.038 81.7553 248.42 81.7573C248.789 81.7573 249.039 81.6112 249.039 81.347C249.039 81.0827 248.879 80.9575 248.288 80.9575H247.238L247.426 78.6904H249.902V79.5388H248.337L248.288 80.1021H248.546C249.693 80.1021 250.145 80.6376 250.145 81.3191Z" fill="#263238"/>
<path d="M250.347 79.7127C250.363 79.5204 250.435 79.337 250.553 79.1848C250.672 79.0326 250.832 78.9182 251.015 78.8555C251.197 78.7929 251.394 78.7847 251.581 78.832C251.768 78.8793 251.938 78.98 252.069 79.1218C252.199 79.2637 252.286 79.4405 252.318 79.6308C252.35 79.8211 252.326 80.0166 252.249 80.1935C252.172 80.3704 252.045 80.5211 251.884 80.6271C251.723 80.7331 251.534 80.7899 251.341 80.7906C251.203 80.7933 251.065 80.7665 250.938 80.7121C250.81 80.6578 250.696 80.577 250.602 80.4751C250.508 80.3733 250.436 80.2527 250.392 80.1213C250.348 79.9898 250.333 79.8506 250.347 79.7127ZM253.636 78.6904H254.429L251.738 82.5709H250.973L253.636 78.6904ZM251.668 79.7127C251.668 79.3233 251.529 79.1703 251.341 79.1703C251.153 79.1703 251.014 79.3233 251.014 79.7127C251.014 80.1021 251.16 80.2621 251.341 80.2621C251.522 80.2621 251.654 80.1091 251.654 79.7127H251.668ZM253.059 81.5417C253.044 81.4045 253.058 81.2657 253.102 81.1346C253.145 81.0035 253.216 80.8832 253.309 80.7817C253.403 80.6803 253.517 80.6 253.644 80.5464C253.771 80.4927 253.908 80.4669 254.046 80.4707C254.263 80.4525 254.48 80.5001 254.669 80.6072C254.857 80.7144 255.01 80.8761 255.105 81.0712C255.2 81.2663 255.235 81.4856 255.203 81.7005C255.172 81.9154 255.076 82.1159 254.929 82.2755C254.782 82.4352 254.59 82.5467 254.378 82.5953C254.167 82.644 253.945 82.6276 253.743 82.5483C253.541 82.4689 253.367 82.3304 253.245 82.1508C253.123 81.9712 253.058 81.7589 253.059 81.5417ZM254.373 81.5417C254.373 81.1522 254.234 80.9923 254.046 80.9923C253.859 80.9923 253.719 81.1522 253.719 81.5417C253.719 81.9311 253.866 82.0911 254.046 82.0911C254.227 82.0911 254.387 81.9381 254.387 81.5417H254.373Z" fill="#263238"/>
<path d="M152.375 1.99219V59.9766H159.392H169.051H214.08V1.99219H152.375Z" fill="#FAFAFA"/>
<path d="M152.375 1.99224H152.654H153.495H156.791L169.309 1.95052L214.06 1.87402H214.219V2.03397C214.219 18.9884 214.219 38.8914 214.219 60.0115V60.1923H214.039H152.334H152.181V60.0323C152.181 42.5911 152.236 28.0776 152.257 17.9175C152.257 12.8617 152.292 8.87694 152.299 6.17174C152.299 4.82958 152.299 3.80035 152.299 3.09102C152.299 2.38168 152.299 2.04788 152.299 2.04788C152.299 2.04788 152.299 2.41645 152.299 3.12579C152.299 3.83512 152.299 4.87826 152.299 6.23433C152.299 8.96039 152.299 12.9452 152.341 18.0148C152.341 28.1541 152.389 42.6328 152.417 60.0323L152.264 59.8793H213.969L213.788 60.0601C213.788 38.9053 213.788 19.0301 213.788 2.08265L213.948 2.23564L169.427 2.09656L156.854 2.05483H153.53H152.375V1.99224Z" fill="#263238"/>
<path d="M182.953 8.56397C179.187 8.56397 175.505 9.68086 172.374 11.7734C169.242 13.8659 166.802 16.8401 165.361 20.3197C163.92 23.7994 163.543 27.6282 164.278 31.3219C165.014 35.0156 166.828 38.4083 169.491 41.0709C172.155 43.7336 175.548 45.5465 179.242 46.2804C182.936 47.0143 186.765 46.6362 190.244 45.194C193.723 43.7518 196.697 41.3102 198.788 38.1781C200.879 35.0459 201.995 31.3639 201.994 27.5977C201.994 25.0976 201.501 22.6219 200.544 20.3122C199.587 18.0025 198.184 15.9039 196.416 14.1364C194.648 12.3688 192.549 10.967 190.239 10.0108C187.929 9.0547 185.453 8.56305 182.953 8.56397ZM183.238 39.0096C180.924 39.0096 178.663 38.3236 176.739 37.0383C174.816 35.753 173.317 33.9262 172.431 31.7889C171.546 29.6515 171.314 27.2996 171.766 25.0306C172.217 22.7616 173.331 20.6774 174.967 19.0415C176.603 17.4057 178.687 16.2917 180.956 15.8403C183.225 15.389 185.577 15.6206 187.714 16.5059C189.852 17.3913 191.678 18.8905 192.964 20.8141C194.249 22.7376 194.935 24.9991 194.935 27.3126C194.935 30.4148 193.703 33.39 191.509 35.5836C189.315 37.7773 186.34 39.0096 183.238 39.0096Z" fill="#E0E0E0"/>
<path d="M183.245 8.57104V15.6157C185.084 15.6188 186.895 16.055 188.533 16.8891C190.171 17.7232 191.59 18.9317 192.674 20.4165C193.757 21.9012 194.476 23.6205 194.771 25.4349C195.066 27.2493 194.93 29.1077 194.372 30.8594L201.271 32.7301C202.06 29.9249 202.193 26.976 201.661 24.111C201.129 21.246 199.946 18.5416 198.203 16.2067C196.459 13.8718 194.202 11.9689 191.606 10.6449C189.011 9.32097 186.145 8.61141 183.231 8.57104H183.245Z" fill="#E0E0E0"/>
<path d="M171.548 27.3127C171.549 25.05 172.206 22.8361 173.441 20.9399C174.675 19.0437 176.434 17.5468 178.503 16.631L175.568 10.0522C172.119 11.5103 169.177 13.952 167.108 17.0724C165.039 20.1928 163.935 23.8537 163.934 27.5978C163.934 27.869 163.934 28.1333 163.934 28.3975H171.583C171.562 28.0429 171.548 27.6812 171.548 27.3127Z" fill="#455A64"/>
<path d="M183.238 39.0097C182.42 39.0049 181.604 38.9164 180.804 38.7455C180.505 40.4423 179.949 43.7317 179.518 46.3186C184.192 47.1873 189.023 46.2742 193.058 43.7592C197.093 41.2442 200.04 37.3095 201.319 32.7301L194.421 30.8594C193.665 33.2302 192.174 35.2985 190.163 36.7641C188.152 38.2297 185.726 39.0163 183.238 39.0097Z" fill="#EBEBEB"/>
<path d="M198.711 51.4716C198.711 51.5689 191.652 51.6524 182.953 51.6524C174.253 51.6524 167.201 51.5689 167.201 51.4716C167.201 51.3742 174.253 51.2908 182.953 51.2908C191.652 51.2908 198.711 51.3395 198.711 51.4716Z" fill="#263238"/>
<path d="M191.695 54.3368C191.695 54.4342 187.78 54.5176 182.953 54.5176C178.127 54.5176 174.219 54.4342 174.219 54.3368C174.219 54.2395 178.127 54.156 182.953 54.156C187.78 54.156 191.695 54.2534 191.695 54.3368Z" fill="#263238"/>
<path d="M181.652 27.9037C181.652 28.5991 181.131 29.1972 179.962 29.1972C179.434 29.2055 178.913 29.0735 178.453 28.8147L178.856 27.9872C179.175 28.1951 179.547 28.3062 179.927 28.3071C180.303 28.3071 180.546 28.168 180.546 27.9037C180.546 27.6394 180.372 27.5282 179.948 27.5282H179.489V26.8328L180.185 26.0887H178.655V25.2402H181.437V25.9357L180.637 26.798C180.913 26.8223 181.171 26.9492 181.359 27.1538C181.547 27.3584 181.651 27.6259 181.652 27.9037Z" fill="#263238"/>
<path d="M184.976 27.8689C184.976 28.5644 184.455 29.1972 183.286 29.1972C182.76 29.208 182.241 29.0758 181.784 28.8147L182.174 27.9872C182.495 28.1949 182.869 28.3059 183.252 28.3071C183.62 28.3071 183.87 28.161 183.87 27.8968C183.87 27.6325 183.71 27.5073 183.119 27.5073H182.062L182.257 25.2402H184.726V26.0887H183.168L183.119 26.6519H183.377C184.545 26.6519 184.976 27.1874 184.976 27.8689Z" fill="#263238"/>
<path d="M185.186 26.2625C185.202 26.0702 185.274 25.8868 185.392 25.7346C185.511 25.5824 185.671 25.468 185.854 25.4054C186.036 25.3427 186.233 25.3345 186.42 25.3818C186.607 25.4291 186.777 25.5298 186.907 25.6716C187.038 25.8135 187.125 25.9903 187.157 26.1806C187.189 26.3709 187.165 26.5664 187.088 26.7433C187.011 26.9202 186.884 27.0709 186.723 27.1769C186.562 27.2829 186.373 27.3397 186.18 27.3404C186.041 27.3431 185.904 27.3163 185.776 27.2619C185.649 27.2076 185.535 27.1268 185.441 27.0249C185.347 26.9231 185.275 26.8025 185.231 26.6711C185.187 26.5396 185.172 26.4004 185.186 26.2625ZM188.454 25.2402H189.254L186.604 29.1207H185.811L188.454 25.2402ZM186.493 26.2625C186.493 25.8731 186.354 25.7131 186.166 25.7131C185.978 25.7131 185.839 25.8731 185.839 26.2625C185.839 26.6519 185.985 26.8119 186.166 26.8119C186.347 26.8119 186.507 26.6589 186.507 26.2625H186.493ZM187.884 28.0915C187.869 27.9543 187.883 27.8155 187.927 27.6844C187.97 27.5533 188.041 27.433 188.134 27.3315C188.228 27.2301 188.342 27.1498 188.469 27.0962C188.596 27.0425 188.733 27.0167 188.871 27.0205C189.088 27.0023 189.305 27.0499 189.493 27.157C189.682 27.2642 189.835 27.4259 189.93 27.621C190.025 27.8161 190.06 28.0354 190.028 28.2503C189.997 28.4653 189.901 28.6657 189.754 28.8253C189.607 28.985 189.415 29.0965 189.203 29.1451C188.992 29.1938 188.77 29.1774 188.568 29.0981C188.366 29.0187 188.192 28.8802 188.07 28.7006C187.948 28.521 187.883 28.3087 187.884 28.0915ZM189.198 28.0915C189.198 27.702 189.052 27.5421 188.871 27.5421C188.69 27.5421 188.544 27.702 188.544 28.0915C188.544 28.4809 188.69 28.6409 188.871 28.6409C189.052 28.6409 189.24 28.5226 189.24 28.0915H189.198Z" fill="#263238"/>
<path d="M83.8408 18.0566V69.3024H90.044H98.5768H138.376V18.0566H83.8408Z" fill="#FAFAFA"/>
<path d="M83.8412 18.0912H84.0916H84.8357H87.7495H98.8276L138.383 17.8965H138.543V18.0912C138.543 33.0706 138.543 50.637 138.543 69.33V69.5108H138.383H83.8551H83.7021V69.3579C83.7369 53.9403 83.7647 41.1167 83.7856 32.1318C83.7856 27.6672 83.7856 24.1553 83.8204 21.7561C83.8204 20.5669 83.8204 19.6698 83.8204 19.03C83.8204 18.3902 83.8204 18.1121 83.8204 18.1121C83.8204 18.1121 83.8204 18.4389 83.8204 19.0648C83.8204 19.6907 83.8204 20.6225 83.8204 21.8465C83.8204 24.2596 83.8204 27.7785 83.8621 32.2779C83.8621 41.2419 83.9108 54.0307 83.9456 69.4065L83.7856 69.2466H138.314L138.133 69.4274C138.133 50.7344 138.133 33.168 138.133 18.1886L138.286 18.3416L98.8346 18.2651L87.7078 18.2233L84.8357 18.0912H83.8134H83.8412Z" fill="#263238"/>
<path d="M110.866 23.8633C107.536 23.8619 104.282 24.8479 101.513 26.6966C98.7444 28.5453 96.5863 31.1736 95.3117 34.249C94.0371 37.3245 93.7032 40.7089 94.3523 43.9741C95.0015 47.2393 96.6044 50.2386 98.9585 52.5926C101.313 54.9467 104.312 56.5496 107.577 57.1988C110.842 57.8479 114.227 57.514 117.302 56.2394C120.377 54.9648 123.006 52.8067 124.854 50.038C126.703 47.2694 127.689 44.0147 127.688 40.6856C127.688 36.224 125.915 31.9452 122.761 28.7904C119.606 25.6356 115.327 23.8633 110.866 23.8633ZM111.123 50.7762C109.079 50.7762 107.081 50.1701 105.382 49.0346C103.682 47.8991 102.358 46.2851 101.575 44.3968C100.793 42.5085 100.589 40.4307 100.987 38.4261C101.386 36.4215 102.37 34.5802 103.816 33.1349C105.261 31.6897 107.102 30.7055 109.107 30.3068C111.111 29.908 113.189 30.1127 115.077 30.8948C116.966 31.677 118.58 33.0015 119.715 34.7009C120.851 36.4003 121.457 38.3983 121.457 40.4422C121.457 41.7993 121.19 43.1431 120.67 44.3968C120.151 45.6506 119.39 46.7898 118.43 47.7494C117.47 48.709 116.331 49.4702 115.077 49.9896C113.824 50.5089 112.48 50.7762 111.123 50.7762Z" fill="#E0E0E0"/>
<path d="M111.122 23.8704V30.1292C112.747 30.1249 114.349 30.5041 115.8 31.2358C117.251 31.9675 118.508 33.0311 119.47 34.3402C120.432 35.6493 121.072 37.1669 121.337 38.7698C121.603 40.3726 121.486 42.0155 120.997 43.5648L127.096 45.2199C127.788 42.7409 127.901 40.1363 127.429 37.6064C126.956 35.0765 125.909 32.6887 124.369 30.6267C122.829 28.5647 120.836 26.8834 118.545 25.7121C116.253 24.5408 113.723 23.9108 111.15 23.8704H111.122Z" fill="#41CC97"/>
<path d="M100.782 40.4352C100.783 38.4377 101.362 36.4831 102.449 34.8073C103.536 33.1315 105.085 31.8062 106.909 30.9914L104.308 25.1846C101.26 26.4714 98.6596 28.6283 96.8314 31.3854C95.0033 34.1425 94.0286 37.3774 94.0293 40.6856C94.0293 40.922 94.0293 41.1585 94.0293 41.381H100.831C100.831 41.075 100.782 40.7551 100.782 40.4352Z" fill="#EBEBEB"/>
<path d="M111.123 50.7762C110.386 50.7755 109.652 50.6962 108.932 50.5398C108.675 52.0419 108.181 54.9488 107.799 57.2367C108.81 57.4238 109.837 57.5192 110.866 57.5219C114.539 57.5179 118.111 56.313 121.036 54.0908C123.962 51.8686 126.08 48.7509 127.069 45.2129L120.998 43.5647C120.333 45.6605 119.016 47.4896 117.241 48.7864C115.465 50.0833 113.322 50.7803 111.123 50.7762Z" fill="#41CC97"/>
<g opacity="0.3">
<path d="M111.123 50.7762C110.386 50.7755 109.652 50.6962 108.932 50.5398C108.675 52.0419 108.181 54.9488 107.799 57.2367C108.81 57.4238 109.837 57.5192 110.866 57.5219C114.539 57.5179 118.111 56.313 121.036 54.0908C123.962 51.8686 126.08 48.7509 127.069 45.2129L120.998 43.5647C120.333 45.6605 119.016 47.4896 117.241 48.7864C115.465 50.0833 113.322 50.7803 111.123 50.7762Z" fill="black"/>
</g>
<path d="M124.788 61.7569C124.788 61.8473 118.529 61.9168 110.879 61.9168C103.23 61.9168 96.9707 61.8473 96.9707 61.7569C96.9707 61.6665 103.23 61.5969 110.879 61.5969C118.529 61.5969 124.788 61.6665 124.788 61.7569Z" fill="#263238"/>
<path d="M118.585 64.3162C118.585 64.3997 115.108 64.4761 110.866 64.4761C106.624 64.4761 103.146 64.3997 103.146 64.3162C103.146 64.2327 106.624 64.1562 110.866 64.1562C115.108 64.1562 118.585 64.2258 118.585 64.3162Z" fill="#263238"/>
<path d="M108.849 40.8943C108.84 41.0827 108.794 41.2674 108.711 41.4371C108.629 41.6069 108.513 41.7582 108.371 41.8817C108.229 42.0053 108.062 42.0987 107.883 42.156C107.703 42.2134 107.514 42.2337 107.326 42.2156C107.076 42.2321 106.825 42.1929 106.592 42.1009C106.358 42.0089 106.149 41.8663 105.977 41.6834C105.805 41.5005 105.676 41.2819 105.599 41.0432C105.523 40.8046 105.499 40.5518 105.532 40.3032C105.51 40.0236 105.549 39.7426 105.646 39.4795C105.743 39.2164 105.896 38.9775 106.094 38.7792C106.292 38.5809 106.531 38.428 106.794 38.3309C107.058 38.2338 107.339 38.1949 107.618 38.2169C108.018 38.2007 108.414 38.2996 108.759 38.502L108.362 39.2879C108.156 39.152 107.914 39.0817 107.667 39.0862C107.542 39.0777 107.417 39.0946 107.299 39.1361C107.182 39.1775 107.074 39.2425 106.982 39.3271C106.89 39.4117 106.817 39.5142 106.766 39.6282C106.715 39.7422 106.688 39.8654 106.686 39.9902C106.933 39.7903 107.245 39.6887 107.562 39.7051C107.89 39.6938 108.209 39.8124 108.45 40.0351C108.691 40.2577 108.835 40.5665 108.849 40.8943ZM107.785 40.943C107.786 40.8751 107.773 40.8076 107.747 40.7452C107.72 40.6827 107.68 40.6266 107.63 40.5806C107.58 40.5346 107.521 40.4997 107.457 40.4782C107.392 40.4568 107.324 40.4493 107.256 40.4562C107.187 40.4479 107.117 40.4544 107.05 40.4753C106.984 40.4961 106.922 40.5309 106.87 40.5772C106.818 40.6235 106.776 40.6804 106.748 40.744C106.719 40.8077 106.704 40.8767 106.704 40.9464C106.704 41.0162 106.719 41.0852 106.748 41.1488C106.776 41.2125 106.818 41.2693 106.87 41.3157C106.922 41.362 106.984 41.3967 107.05 41.4176C107.117 41.4385 107.187 41.445 107.256 41.4367C107.325 41.4437 107.394 41.436 107.458 41.4142C107.523 41.3923 107.583 41.3568 107.633 41.31C107.683 41.2632 107.723 41.2063 107.749 41.143C107.775 41.0796 107.787 41.0114 107.785 40.943Z" fill="#263238"/>
<path d="M109.12 40.1989C109.12 38.9193 109.816 38.1821 110.838 38.1821C111.86 38.1821 112.542 38.9193 112.542 40.1989C112.542 41.4784 111.846 42.2156 110.838 42.2156C109.829 42.2156 109.12 41.4784 109.12 40.1989ZM111.436 40.1989C111.436 39.3852 111.186 39.0792 110.838 39.0792C110.49 39.0792 110.226 39.3852 110.226 40.1989C110.226 41.0125 110.483 41.3185 110.838 41.3185C111.192 41.3185 111.436 41.0403 111.436 40.1989Z" fill="#263238"/>
<path d="M112.847 39.2878C112.86 39.0939 112.928 38.9079 113.045 38.7527C113.162 38.5974 113.321 38.4798 113.504 38.4142C113.687 38.3487 113.885 38.3381 114.074 38.3839C114.263 38.4296 114.434 38.5296 114.567 38.6715C114.699 38.8134 114.787 38.9911 114.82 39.1825C114.853 39.374 114.829 39.5708 114.751 39.7488C114.673 39.9267 114.545 40.078 114.382 40.1839C114.219 40.2899 114.029 40.3458 113.835 40.3448C113.698 40.3473 113.563 40.321 113.438 40.2679C113.312 40.2147 113.199 40.1357 113.106 40.036C113.013 39.9364 112.942 39.8183 112.897 39.6894C112.853 39.5605 112.836 39.4236 112.847 39.2878ZM116.13 38.2585H116.929L114.28 42.139H113.487L116.13 38.2585ZM114.169 39.2878C114.169 38.8914 114.03 38.7384 113.835 38.7384C113.64 38.7384 113.515 38.8914 113.515 39.2878C113.515 39.6842 113.661 39.8372 113.835 39.8372C114.009 39.8372 114.169 39.6494 114.169 39.2878ZM115.559 41.1167C115.574 40.924 115.645 40.7398 115.763 40.5866C115.881 40.4335 116.041 40.318 116.223 40.2543C116.406 40.1906 116.603 40.1815 116.791 40.2281C116.978 40.2747 117.148 40.3749 117.28 40.5166C117.411 40.6582 117.499 40.8351 117.531 41.0257C117.564 41.2162 117.54 41.4121 117.463 41.5894C117.386 41.7667 117.259 41.9177 117.098 42.024C116.936 42.1302 116.747 42.1871 116.554 42.1877C116.417 42.1884 116.282 42.1604 116.157 42.1055C116.032 42.0506 115.92 41.97 115.829 41.869C115.737 41.768 115.667 41.6489 115.625 41.5193C115.582 41.3897 115.567 41.2525 115.58 41.1167H115.559ZM116.881 41.1167C116.881 40.7203 116.735 40.5674 116.554 40.5674C116.373 40.5674 116.227 40.7203 116.227 41.1167C116.227 41.5131 116.373 41.6592 116.554 41.6592C116.735 41.6592 116.902 41.5062 116.902 41.1167H116.881Z" fill="#263238"/>
<path d="M275.591 260.238H229.234V266.608H275.591V260.238Z" fill="#263238"/>
<path d="M275.667 266.685H229.157V260.155H275.667V266.685ZM229.317 266.525H275.507V260.314H229.317V266.525Z" fill="#263238"/>
<path d="M233.532 264.487L240.208 297.401H264.896L271.342 266.608L233.532 264.487Z" fill="#263238"/>
<path d="M233.532 294.286L237.093 299.182H267.1L271.342 294.286H233.532Z" fill="#455A64"/>
<path d="M250.674 265.447C250.583 265.447 250.465 250.196 250.409 231.371C250.354 212.546 250.409 197.295 250.479 197.295C250.549 197.295 250.688 212.539 250.743 231.371C250.799 250.203 250.764 265.447 250.674 265.447Z" fill="#263238"/>
<path d="M261.001 227.282C260.972 227.404 260.93 227.523 260.876 227.636C260.765 227.901 260.625 228.221 260.459 228.624L260.159 229.319L259.847 230.189L259.492 231.183C259.367 231.531 259.269 231.92 259.151 232.31C258.599 234.174 258.164 236.072 257.851 237.991C257.497 240.342 257.265 242.71 257.155 245.085C256.986 249.409 257.109 253.74 257.524 258.047C257.67 259.702 257.823 261.045 257.934 261.969C257.976 262.401 258.018 262.755 258.045 263.033C258.064 263.158 258.064 263.285 258.045 263.409C258.001 263.291 257.973 263.167 257.962 263.04C257.913 262.762 257.858 262.415 257.781 261.983C257.635 261.065 257.447 259.73 257.267 258.075C256.784 253.758 256.63 249.411 256.808 245.071C256.923 242.68 257.171 240.298 257.552 237.936C257.881 236.009 258.346 234.108 258.943 232.247C259.068 231.851 259.172 231.461 259.304 231.114C259.436 230.766 259.568 230.418 259.687 230.119C259.805 229.82 259.923 229.528 260.027 229.264C260.132 228.999 260.257 228.77 260.354 228.568L260.827 227.602C260.873 227.489 260.931 227.381 261.001 227.282Z" fill="#263238"/>
<path d="M259.812 214.952C259.777 215.123 259.728 215.29 259.666 215.453L259.186 216.843C259.075 217.149 258.956 217.497 258.831 217.866L258.456 219.097C258.184 219.98 257.872 220.981 257.593 222.108C257.44 222.671 257.287 223.262 257.127 223.874C256.967 224.486 256.842 225.133 256.689 225.801C256.369 227.129 256.133 228.582 255.834 230.077C255.326 233.102 254.874 236.454 254.561 239.987C254.248 243.52 254.144 246.9 254.095 249.967C254.047 253.033 254.13 255.808 254.255 258.131C254.297 259.292 254.367 260.342 254.429 261.267C254.492 262.192 254.54 262.978 254.596 263.632C254.652 264.285 254.687 264.751 254.714 265.12C254.731 265.296 254.731 265.473 254.714 265.648C254.714 265.648 254.68 265.468 254.631 265.127C254.582 264.786 254.534 264.264 254.457 263.639C254.381 263.013 254.304 262.199 254.234 261.281C254.165 260.363 254.061 259.306 254.005 258.145C253.852 255.822 253.789 253.047 253.782 249.967C253.775 246.886 253.928 243.499 254.221 239.959C254.513 236.42 254.992 233.061 255.521 230.022C255.827 228.513 256.07 227.066 256.411 225.738C256.564 225.077 256.717 224.431 256.863 223.812C257.009 223.193 257.197 222.609 257.35 222.045C257.649 220.919 257.976 219.917 258.268 219.041C258.407 218.603 258.539 218.193 258.664 217.817C258.789 217.442 258.929 217.122 259.047 216.802C259.279 216.218 259.459 215.754 259.589 215.411C259.651 215.252 259.725 215.099 259.812 214.952Z" fill="#263238"/>
<path d="M247.739 268.145C247.732 268.085 247.732 268.024 247.739 267.964C247.739 267.829 247.725 267.656 247.697 267.442C247.697 266.956 247.621 266.281 247.558 265.419C247.447 263.645 247.294 261.114 247.099 257.992C246.696 251.733 246.112 243.061 245.055 233.533C244.519 228.77 243.894 224.243 243.24 220.147C242.899 218.095 242.586 216.148 242.231 214.333C241.877 212.518 241.536 210.856 241.23 209.298C240.924 207.74 240.583 206.377 240.312 205.16C240.041 203.943 239.784 202.9 239.561 202.045C239.338 201.189 239.199 200.556 239.081 200.084C239.032 199.875 238.998 199.701 238.963 199.569C238.956 199.509 238.956 199.448 238.963 199.388C238.992 199.443 239.013 199.501 239.026 199.562L239.179 200.063C239.304 200.536 239.485 201.189 239.714 202.017C239.943 202.844 240.229 203.901 240.514 205.118C240.799 206.335 241.16 207.705 241.48 209.249C241.8 210.793 242.176 212.469 242.524 214.284C242.871 216.099 243.219 218.046 243.574 220.091C244.269 224.201 244.874 228.728 245.416 233.499C246.467 243.033 247.016 251.705 247.357 257.978C247.531 261.121 247.649 263.659 247.718 265.412C247.718 266.274 247.774 266.949 247.795 267.435V267.964C247.785 268.026 247.766 268.087 247.739 268.145Z" fill="#263238"/>
<path d="M250.291 204.66C250.09 202.497 247.906 200.869 245.736 200.849C244.651 200.898 243.59 201.192 242.635 201.71C241.68 202.228 240.855 202.956 240.222 203.839C238.971 205.622 238.07 207.625 237.565 209.743C236.105 214.827 235.305 220.174 235.931 225.439C236.557 230.703 238.713 235.87 242.461 239.584C243.073 240.189 243.852 240.794 244.707 240.613C245.161 240.478 245.571 240.227 245.896 239.883C249.592 236.501 252.522 232.368 254.489 227.761C256.456 223.154 257.415 218.18 257.301 213.172C257.246 211.176 256.981 209.089 255.876 207.427C254.77 205.765 252.183 203.992 250.312 204.646" fill="#41CC97"/>
<path d="M234.095 187.358L231.035 192.921C230.965 193.053 230.868 193.199 230.722 193.213C230.576 193.227 230.444 193.074 230.353 192.935L222.279 180.535L224.136 179.485L234.095 187.358Z" fill="#41CC97"/>
<g opacity="0.2">
<path d="M234.095 187.358L231.035 192.921C230.965 193.053 230.868 193.199 230.722 193.213C230.576 193.227 230.444 193.074 230.353 192.935L222.279 180.535L224.136 179.485L234.095 187.358Z" fill="black"/>
</g>
<path d="M250.479 197.33L222.919 181.064C222.641 180.897 222.335 180.702 222.224 180.368C222.112 180.035 222.418 179.569 222.71 179.263C224.606 177.297 226.902 175.762 229.444 174.764C231.986 173.765 234.713 173.326 237.439 173.477C240.165 173.673 242.802 174.529 245.122 175.972C247.442 177.415 249.376 179.401 250.757 181.759C253.413 186.509 253.504 192.796 250.451 197.309" fill="#41CC97"/>
<path d="M226.891 175.876C227.009 175.844 227.13 175.828 227.252 175.827C227.489 175.827 227.843 175.772 228.295 175.779C229.577 175.761 230.858 175.863 232.12 176.085C236.323 176.794 240.235 178.691 243.396 181.551C246.556 184.41 248.833 188.114 249.958 192.225C250.306 193.46 250.538 194.724 250.653 196.002C250.683 196.267 250.697 196.534 250.695 196.801C250.671 197.016 250.599 197.222 250.486 197.406C250.567 196.947 250.581 196.479 250.528 196.015C250.365 194.757 250.105 193.513 249.749 192.295C248.363 187.651 245.542 183.565 241.69 180.623C237.839 177.681 233.155 176.034 228.309 175.918C227.398 175.89 226.898 175.904 226.891 175.876Z" fill="#263238"/>
<path d="M246.752 186.106C246.313 186.368 245.847 186.581 245.361 186.739C244.485 187.079 243.275 187.524 241.884 187.962C240.493 188.401 239.255 188.741 238.337 188.971C237.849 189.122 237.345 189.218 236.835 189.256C237.296 189.035 237.778 188.862 238.274 188.741L241.786 187.65L245.263 186.516C245.743 186.326 246.242 186.188 246.752 186.106Z" fill="#263238"/>
<path d="M242.412 174.443C242.653 175.449 242.763 176.483 242.739 177.517C242.818 178.55 242.76 179.588 242.565 180.605C242.429 179.586 242.376 178.558 242.405 177.531C242.321 176.503 242.323 175.471 242.412 174.443Z" fill="#263238"/>
<path d="M222.683 180.758C223.326 180.467 223.994 180.235 224.678 180.063C225.937 179.673 227.676 179.186 229.623 178.713C231.57 178.241 233.343 177.886 234.63 177.663C235.316 177.509 236.014 177.413 236.716 177.378C236.034 177.601 235.337 177.773 234.63 177.893C233.35 178.178 231.591 178.588 229.651 179.04C227.711 179.492 225.965 179.958 224.699 180.285C224.038 180.487 223.365 180.645 222.683 180.758Z" fill="#263238"/>
<path d="M238.858 199.972C236.487 198.171 233.99 197.817 231.007 197.935C228.031 198.135 225.119 198.887 222.418 200.153C217.766 202.191 213.378 205.188 210.596 209.437C207.814 213.686 206.855 219.305 208.934 223.93C209.09 224.416 209.426 224.824 209.873 225.07C210.389 225.222 210.943 225.18 211.431 224.952C216.716 223.227 222.036 221.475 226.897 218.791C231.758 216.106 236.181 212.337 238.789 207.427C239.459 206.267 239.885 204.982 240.04 203.651C240.113 202.987 240.043 202.315 239.834 201.681C239.626 201.046 239.283 200.464 238.83 199.972" fill="#41CC97"/>
<path d="M238.9 199.416C238.78 199.479 238.654 199.53 238.524 199.569L237.412 199.952L236.612 200.216C236.32 200.32 236.014 200.452 235.673 200.584C234.978 200.856 234.227 201.12 233.413 201.516L232.12 202.107C231.668 202.316 231.215 202.573 230.729 202.803C229.769 203.269 228.802 203.874 227.773 204.479C223.342 207.228 219.4 210.697 216.111 214.743C215.374 215.689 214.657 216.572 214.066 217.462C213.767 217.9 213.454 218.318 213.19 218.735L212.439 219.945C211.945 220.703 211.577 221.44 211.222 222.066C211.048 222.386 210.881 222.678 210.742 222.949L210.374 223.714C210.158 224.145 209.991 224.493 209.852 224.764C209.802 224.891 209.734 225.011 209.65 225.119C209.69 224.988 209.739 224.86 209.796 224.736L210.255 223.659L210.603 222.88C210.735 222.601 210.895 222.302 211.062 221.983C211.396 221.343 211.758 220.592 212.237 219.827L212.975 218.596C213.239 218.172 213.545 217.754 213.837 217.302C214.421 216.405 215.137 215.508 215.874 214.521C217.525 212.486 219.336 210.589 221.292 208.846C223.274 207.132 225.388 205.577 227.613 204.194C228.656 203.589 229.637 202.991 230.603 202.532C231.083 202.288 231.535 202.038 231.994 201.836L233.309 201.266C234.136 200.876 234.922 200.619 235.597 200.369C235.937 200.244 236.25 200.125 236.549 200.028L237.363 199.785L238.49 199.465C238.624 199.432 238.762 199.416 238.9 199.416Z" fill="#263238"/>
<path d="M220.381 209.437C218.496 210.167 216.572 210.789 214.616 211.301C212.694 211.914 210.739 212.417 208.761 212.81C210.648 212.089 212.572 211.469 214.526 210.953C216.45 210.346 218.404 209.84 220.381 209.437Z" fill="#263238"/>
<path d="M220.145 222.163C220.049 221.57 220.007 220.97 220.019 220.369C220.019 219.257 219.985 217.72 220.019 216.03C220.054 214.34 220.158 212.796 220.249 211.69C220.263 211.088 220.34 210.489 220.478 209.903C220.525 210.503 220.525 211.105 220.478 211.704C220.437 212.921 220.395 214.402 220.339 216.037C220.284 217.671 220.263 219.152 220.235 220.369C220.257 220.969 220.227 221.569 220.145 222.163Z" fill="#263238"/>
<path d="M231.049 216.614C230.959 216.614 230.667 213.499 230.402 209.66C230.138 205.821 229.992 202.671 230.082 202.664C230.173 202.657 230.465 205.779 230.729 209.618C230.994 213.457 231.14 216.607 231.049 216.614Z" fill="#263238"/>
<path d="M217.481 202.379C218.095 202.303 218.714 202.284 219.331 202.323C220.465 202.323 222.043 202.365 223.775 202.42C225.507 202.476 227.085 202.552 228.226 202.615C228.842 202.618 229.457 202.679 230.062 202.796C229.45 202.867 228.834 202.886 228.219 202.851C227.078 202.851 225.507 202.81 223.768 202.754C222.03 202.699 220.458 202.622 219.317 202.552C218.701 202.555 218.086 202.496 217.481 202.379Z" fill="#263238"/>
<path d="M243.643 240.314C243.612 240.194 243.598 240.07 243.601 239.945C243.601 239.667 243.601 239.313 243.553 238.881C243.511 237.964 243.504 236.628 243.553 234.98C243.601 233.332 243.692 231.371 243.893 229.201C244.095 227.031 244.415 224.646 244.86 222.17C245.305 219.695 245.868 217.358 246.432 215.216C246.995 213.074 247.6 211.231 248.149 209.653C248.699 208.074 249.178 206.871 249.54 206.002C249.714 205.598 249.853 205.306 249.957 205.021C250.004 204.906 250.059 204.794 250.124 204.688C250.109 204.811 250.074 204.93 250.02 205.042C249.93 205.306 249.811 205.64 249.658 206.044C249.331 206.906 248.886 208.165 248.372 209.729C247.857 211.294 247.287 213.172 246.724 215.293C246.16 217.414 245.639 219.73 245.187 222.198C244.735 224.667 244.422 227.066 244.192 229.201C243.963 231.336 243.845 233.318 243.782 234.959C243.719 236.601 243.692 237.936 243.699 238.854C243.699 239.285 243.699 239.633 243.699 239.911C243.694 240.047 243.675 240.182 243.643 240.314Z" fill="#263238"/>
<path d="M245.096 222.268C244.773 222.706 244.404 223.109 243.997 223.471C243.302 224.166 242.273 225.14 241.118 226.155C239.964 227.171 238.879 228.047 238.079 228.659C237.669 229.017 237.221 229.329 236.744 229.591C237.105 229.184 237.503 228.811 237.933 228.478L240.896 225.905L243.837 223.304C244.221 222.917 244.643 222.57 245.096 222.268Z" fill="#263238"/>
<path d="M253.824 229.291C253.392 228.783 253.001 228.242 252.656 227.671L249.93 223.7C248.872 222.205 247.92 220.849 247.148 219.764C246.739 219.236 246.367 218.681 246.035 218.102C246.514 218.57 246.949 219.079 247.336 219.625C248.101 220.592 249.123 221.962 250.201 223.512C251.279 225.063 252.204 226.489 252.85 227.546C253.228 228.097 253.554 228.681 253.824 229.291Z" fill="#263238"/>
<path d="M249.248 207.198C249.297 207.274 246.397 209.222 242.774 211.551C239.151 213.881 236.174 215.724 236.126 215.633C236.077 215.543 238.977 213.603 242.6 211.273C246.223 208.943 249.2 207.121 249.248 207.198Z" fill="#263238"/>
<path d="M257.419 216.016C255.887 214.744 254.425 213.39 253.038 211.962C251.568 210.613 250.175 209.183 248.865 207.678C250.398 208.946 251.861 210.297 253.246 211.725C254.717 213.075 256.11 214.508 257.419 216.016Z" fill="#263238"/>
<path d="M259.471 215.835L261.96 215.633C263.727 215.486 265.441 214.962 266.988 214.097C267.74 213.652 268.521 213.257 269.325 212.914C272.399 211.683 275.834 211.906 279.144 211.739C284.562 211.462 289.87 210.105 294.757 207.747C295.048 207.619 295.291 207.403 295.452 207.128C295.967 206.197 295.014 205.369 294.2 204.861C290.028 202.281 285.744 199.667 280.987 198.387C276.23 197.107 270.841 197.323 266.787 200.112C262.03 203.387 260.291 210.112 259.485 215.835" fill="#41CC97"/>
<path d="M295.494 206.822L295.077 206.628L293.895 206.009C292.872 205.466 291.398 204.673 289.541 203.783C287.376 202.72 285.121 201.85 282.803 201.182C279.964 200.373 276.992 200.137 274.061 200.487C271.126 200.813 268.355 202.004 266.099 203.909C264.325 205.544 262.905 207.525 261.926 209.729C261.246 211.209 260.643 212.722 260.118 214.263C259.937 214.785 259.791 215.202 259.673 215.522C259.633 215.672 259.574 215.817 259.499 215.953C259.524 215.8 259.561 215.649 259.61 215.501C259.708 215.174 259.84 214.757 260 214.229C260.476 212.663 261.047 211.128 261.71 209.632C262.672 207.379 264.093 205.352 265.883 203.679C268.173 201.721 270.997 200.493 273.992 200.153C276.964 199.797 279.978 200.048 282.851 200.89C285.185 201.574 287.45 202.473 289.618 203.575C291.468 204.493 292.928 205.32 293.929 205.897L295.077 206.593C295.225 206.652 295.365 206.729 295.494 206.822Z" fill="#263238"/>
<path d="M289.52 210.028C289.471 210.105 286.217 208.005 282.253 205.327C278.289 202.65 275.125 200.459 275.173 200.355C275.222 200.251 278.477 202.386 282.441 205.056C286.404 207.726 289.576 209.952 289.52 210.028Z" fill="#263238"/>
<path d="M286.05 200.188C285.287 200.446 284.491 200.589 283.686 200.612C282.884 200.737 282.068 200.737 281.266 200.612C282.056 200.472 282.856 200.391 283.658 200.369C284.449 200.244 285.249 200.183 286.05 200.188Z" fill="#263238"/>
<path d="M271.808 198.331C271.545 198.939 271.186 199.501 270.744 199.993C270.374 200.573 269.916 201.091 269.388 201.53C269.658 200.925 270.019 200.364 270.459 199.868C270.83 199.292 271.284 198.774 271.808 198.331Z" fill="#263238"/>
<path d="M274.722 211.948C274.174 211.716 273.65 211.432 273.157 211.099C272.219 210.529 270.953 209.708 269.59 208.707C268.227 207.706 267.038 206.788 266.182 206.106C265.696 205.763 265.242 205.377 264.826 204.952C265.356 205.223 265.857 205.546 266.321 205.918L269.798 208.443C271.155 209.423 272.392 210.286 273.276 210.904C273.788 211.209 274.272 211.558 274.722 211.948Z" fill="#263238"/>
<path d="M263.136 226.405C260.765 225.78 257.934 228.088 257.448 230.495C256.961 232.901 257.858 235.363 258.915 237.574C261.176 242.538 264.53 246.927 268.727 250.412C272.962 253.889 278.249 255.833 283.728 255.926C282.726 251.267 283.999 246.399 283.436 241.663C282.943 237.499 281.053 233.625 278.075 230.673C275.097 227.721 271.206 225.866 267.037 225.411C265.521 225.244 263.769 225.008 263.164 226.405" fill="#41CC97"/>
<path d="M283.727 255.926C283.612 255.881 283.501 255.828 283.393 255.766C283.082 255.593 282.784 255.395 282.503 255.175C281.51 254.307 280.711 253.238 280.16 252.039C279.784 251.302 279.36 250.509 278.95 249.626L277.67 246.802C277.212 245.765 276.689 244.757 276.105 243.784C275.46 242.752 274.737 241.771 273.943 240.849C272.322 238.944 270.577 237.289 269.075 235.717C267.708 234.34 266.463 232.846 265.354 231.253C264.613 230.17 264.004 229.002 263.539 227.775C263.386 227.337 263.275 226.997 263.219 226.753C263.181 226.636 263.156 226.514 263.143 226.392C263.177 226.392 263.309 226.878 263.657 227.727C264.161 228.922 264.795 230.058 265.549 231.114C266.672 232.675 267.923 234.141 269.29 235.495C270.806 237.052 272.559 238.701 274.2 240.627C275.005 241.562 275.736 242.56 276.383 243.61C276.973 244.595 277.498 245.617 277.955 246.67L279.2 249.501C279.603 250.384 280.014 251.183 280.375 251.928C280.896 253.112 281.65 254.179 282.594 255.064C283.282 255.676 283.727 255.926 283.727 255.926Z" fill="#263238"/>
<path d="M271.46 252.06C271.475 251.52 271.547 250.984 271.676 250.46C271.863 249.487 272.169 248.144 272.58 246.684C272.99 245.224 273.435 243.902 273.783 242.984C273.945 242.471 274.162 241.977 274.429 241.51C274.34 242.04 274.198 242.559 274.005 243.061C273.713 244.014 273.31 245.321 272.899 246.774C272.489 248.228 272.148 249.556 271.905 250.516C271.806 251.043 271.657 251.56 271.46 252.06Z" fill="#263238"/>
<path d="M283.282 240.627C282.713 240.545 282.153 240.414 281.606 240.238C280.584 239.973 279.172 239.605 277.6 239.25C276.029 238.895 274.603 238.624 273.56 238.429C272.993 238.348 272.433 238.224 271.884 238.061C272.46 238.042 273.036 238.089 273.601 238.2C274.652 238.332 276.098 238.575 277.677 238.93C279.255 239.285 280.667 239.688 281.675 240.015C282.231 240.161 282.77 240.366 283.282 240.627Z" fill="#263238"/>
<path d="M262.656 243.944C262.683 243.323 262.769 242.706 262.914 242.101C263.122 240.968 263.456 239.41 263.894 237.706C264.332 236.002 264.812 234.486 265.188 233.395C265.362 232.794 265.595 232.211 265.883 231.656C265.786 232.271 265.634 232.876 265.431 233.464C265.118 234.57 264.68 236.093 264.235 237.79C263.79 239.486 263.428 241.03 263.164 242.15C263.044 242.761 262.875 243.361 262.656 243.944Z" fill="#263238"/>
<path d="M277.837 230.654C275.625 230.587 273.417 230.409 271.223 230.119C269.015 229.942 266.817 229.654 264.638 229.257C264.638 229.166 267.614 229.41 271.258 229.792C274.902 230.175 277.844 230.564 277.837 230.654Z" fill="#263238"/>
<path d="M275.667 266.58C275.667 266.671 265.236 266.74 252.412 266.74C239.589 266.74 229.157 266.671 229.157 266.58C229.157 266.49 239.589 266.413 252.412 266.413C265.236 266.413 275.667 266.49 275.667 266.58Z" fill="#455A64"/>
<path d="M268.428 279.974C268.428 280.071 261.411 280.141 252.76 280.141C244.109 280.141 237.092 280.071 237.092 279.974C237.092 279.877 244.109 279.814 252.76 279.814C261.411 279.814 268.428 279.883 268.428 279.974Z" fill="#455A64"/>
<path d="M268.15 281.893C268.15 281.984 261.258 282.06 252.753 282.06C244.248 282.06 237.363 281.984 237.363 281.893C237.363 281.803 244.255 281.727 252.753 281.727C261.251 281.727 268.15 281.803 268.15 281.893Z" fill="#455A64"/>
<path d="M268.7 278.395C268.7 278.486 261.44 278.562 252.49 278.562C243.539 278.562 236.286 278.486 236.286 278.395C236.286 278.305 243.539 278.235 252.49 278.235C261.44 278.235 268.7 278.305 268.7 278.395Z" fill="#455A64"/>
<path d="M48.7913 262.185L29.9453 277.645L49.0556 301.192C51.1905 299.231 45.8218 283.382 45.8218 283.382L58.3047 273.973L48.7913 262.185Z" fill="#455A64"/>
<g opacity="0.6">
<path d="M40.9324 275.266C40.6792 275.095 40.372 275.024 40.0694 275.065C39.7668 275.106 39.4898 275.257 39.2912 275.489C39.1128 275.736 39.0357 276.043 39.0758 276.345C39.1159 276.648 39.2701 276.923 39.5068 277.116C39.7753 277.295 40.1009 277.369 40.4206 277.323C40.7404 277.277 41.0317 277.114 41.2384 276.866C41.3973 276.589 41.4433 276.262 41.3669 275.952C41.2904 275.642 41.0974 275.374 40.8281 275.203" fill="white"/>
</g>
<g opacity="0.6">
<path d="M30.0146 277.575L31.9132 276.003L49.4239 299.349C49.4239 299.349 49.8134 300.739 48.9719 301.247L30.0146 277.575Z" fill="white"/>
</g>
<path d="M46.2529 283.66C46.1347 283.75 45.6132 283.215 44.7856 282.965C43.958 282.714 43.2278 282.791 43.1861 282.645C43.1444 282.499 43.9511 282.137 44.9455 282.478C45.94 282.819 46.3781 283.597 46.2529 283.66Z" fill="#263238"/>
<path d="M47.2334 286.956C47.143 287.074 46.538 286.734 45.7382 286.741C44.9385 286.748 44.3474 287.047 44.2431 286.928C44.1388 286.81 44.7438 286.233 45.7452 286.233C46.7466 286.233 47.3447 286.866 47.2334 286.956Z" fill="#263238"/>
<path d="M45.4182 290.76C45.3069 290.677 45.752 290.065 46.6213 289.835C47.4906 289.606 48.179 289.954 48.1234 290.079C48.0678 290.204 47.428 290.141 46.7325 290.329C46.0371 290.517 45.5225 290.865 45.4182 290.76Z" fill="#263238"/>
<path d="M48.8612 281.198C48.7151 281.233 48.4439 280.579 47.8737 279.967C47.3034 279.355 46.6845 279.007 46.7332 278.868C46.7818 278.729 47.5885 278.868 48.2561 279.619C48.9238 280.371 48.9933 281.184 48.8612 281.198Z" fill="#263238"/>
<path d="M51.1969 278.368C51.1482 278.409 50.7101 278.013 50.2442 277.185C49.822 276.405 49.5462 275.554 49.4305 274.675C49.4021 274.481 49.4021 274.284 49.4305 274.091C49.4498 273.95 49.5157 273.819 49.6177 273.719C49.7198 273.62 49.8521 273.557 49.9938 273.541C50.1245 273.532 50.2556 273.554 50.3764 273.604C50.4972 273.655 50.6044 273.734 50.6892 273.834C50.8094 273.985 50.9099 274.151 50.9883 274.327C51.1282 274.63 51.2422 274.944 51.329 275.266C51.4742 275.807 51.5306 276.369 51.4959 276.928C51.5189 277.448 51.3831 277.962 51.1065 278.402C51.023 278.402 51.1691 277.825 51.1065 276.928C51.0867 276.409 51.0002 275.895 50.8492 275.398C50.7579 275.107 50.644 274.823 50.5084 274.55C50.3693 274.244 50.1955 274.035 50.0355 274.056C49.8756 274.077 49.9521 274.056 49.9243 274.188C49.9072 274.331 49.9072 274.476 49.9243 274.619C49.9594 274.925 50.0105 275.23 50.0773 275.53C50.1934 276.043 50.3564 276.543 50.5641 277.026C50.8061 277.458 51.0176 277.906 51.1969 278.368Z" fill="#263238"/>
<path d="M50.9123 278.354C50.8566 278.354 51.0861 277.763 51.7955 277.116C52.2171 276.743 52.6992 276.444 53.2211 276.233C53.5314 276.108 53.8527 276.013 54.1808 275.948C54.3877 275.886 54.6071 275.878 54.8178 275.926C55.0285 275.973 55.2234 276.074 55.3838 276.219C55.4679 276.325 55.5192 276.453 55.5315 276.588C55.5439 276.722 55.5167 276.857 55.4534 276.977C55.3661 277.15 55.2536 277.31 55.1196 277.45C54.8908 277.706 54.6233 277.924 54.3268 278.097C53.8323 278.389 53.2735 278.556 52.6995 278.583C52.44 278.622 52.1754 278.609 51.9211 278.545C51.6668 278.48 51.4278 278.366 51.2183 278.208C51.7001 278.234 52.1829 278.234 52.6647 278.208C53.1603 278.131 53.6342 277.951 54.0556 277.679C54.3133 277.52 54.5474 277.326 54.751 277.102C54.9666 276.866 55.0918 276.608 54.9944 276.532C54.8918 276.468 54.7769 276.426 54.6571 276.409C54.5372 276.392 54.4152 276.401 54.299 276.434C54.0004 276.484 53.7071 276.56 53.4227 276.664C52.9282 276.828 52.4598 277.062 52.0319 277.359C51.3087 277.93 50.9818 278.403 50.9123 278.354Z" fill="#263238"/>
<path d="M40.251 274.807L40.4805 299.182L70.8079 299.05C70.6201 296.157 54.9036 290.405 54.9036 290.405L55.3973 274.779L40.251 274.807Z" fill="#455A64"/>
<g opacity="0.6">
<path d="M45.5158 289.133C45.23 289.223 44.9865 289.413 44.8305 289.669C44.6745 289.925 44.6165 290.229 44.6674 290.524C44.7462 290.817 44.9342 291.069 45.1928 291.228C45.4514 291.387 45.761 291.441 46.0582 291.379C46.3679 291.284 46.6309 291.076 46.7956 290.797C46.9602 290.518 47.0147 290.187 46.9484 289.87C46.834 289.572 46.6088 289.329 46.3198 289.193C46.0308 289.057 45.7003 289.038 45.3976 289.14" fill="white"/>
</g>
<g opacity="0.6">
<path d="M40.4736 299.084V296.623L69.6814 297.61C69.6814 297.61 71.0306 298.201 70.8706 299.154L40.4736 299.084Z" fill="white"/>
</g>
<path d="M55.3911 290.252C55.3911 290.398 54.647 290.468 53.9237 290.948C53.2005 291.428 52.811 292.054 52.672 291.991C52.5329 291.928 52.7554 291.08 53.6456 290.517C54.5357 289.953 55.4258 290.113 55.3911 290.252Z" fill="#263238"/>
<path d="M58.583 291.553C58.583 291.692 57.971 291.949 57.4772 292.575C56.9835 293.201 56.8305 293.869 56.6844 293.862C56.5384 293.855 56.441 293.02 57.0739 292.248C57.7067 291.476 58.576 291.393 58.583 291.553Z" fill="#263238"/>
<path d="M60.4042 295.35C60.2651 295.385 60.0564 294.655 60.4042 293.834C60.7519 293.013 61.4751 292.694 61.5377 292.819C61.6003 292.944 61.1761 293.375 60.8423 294.05C60.5085 294.724 60.5502 295.336 60.4042 295.35Z" fill="#263238"/>
<path d="M55.1126 286.678C55.05 286.81 54.3685 286.608 53.534 286.678C52.6995 286.748 52.0458 287.005 51.9693 286.88C51.8928 286.754 52.5117 286.219 53.4992 286.184C54.4867 286.149 55.1821 286.56 55.1126 286.678Z" fill="#263238"/>
<path d="M54.3756 283.083C53.8771 283.219 53.3511 283.219 52.8526 283.083C52.3041 282.985 51.7693 282.822 51.2601 282.596C50.9599 282.463 50.6695 282.31 50.3908 282.137C50.2179 282.047 50.0624 281.927 49.9318 281.782C49.833 281.679 49.7718 281.545 49.7579 281.402C49.744 281.26 49.7783 281.117 49.8553 280.996C49.9295 280.893 50.0264 280.809 50.1386 280.75C50.2509 280.691 50.3753 280.659 50.5021 280.656C50.6949 280.652 50.8871 280.678 51.0723 280.732C51.398 280.805 51.715 280.912 52.0181 281.052C52.5278 281.279 52.9975 281.586 53.4089 281.963C54.1044 282.617 54.3617 283.166 54.313 283.194C54.2643 283.222 53.8957 282.784 53.1794 282.248C52.7514 281.935 52.2837 281.68 51.7886 281.49C51.5057 281.374 51.2122 281.286 50.9124 281.226C50.5925 281.142 50.3213 281.142 50.2169 281.281C50.1126 281.421 50.2169 281.358 50.2517 281.455C50.3538 281.555 50.4683 281.642 50.5925 281.713C50.8483 281.882 51.1155 282.033 51.3922 282.165C51.8639 282.399 52.3577 282.585 52.8665 282.721C53.3778 282.804 53.8822 282.925 54.3756 283.083Z" fill="#263238"/>
<path d="M54.1805 283.291C53.8918 282.861 53.7503 282.349 53.7771 281.831C53.7458 281.268 53.8116 280.703 53.9718 280.162C54.0737 279.846 54.2016 279.539 54.3543 279.244C54.4359 279.043 54.5677 278.867 54.7369 278.732C54.9062 278.597 55.1073 278.507 55.321 278.472C55.4567 278.472 55.5896 278.511 55.7033 278.585C55.817 278.659 55.9065 278.765 55.9608 278.889C56.0351 279.068 56.0887 279.255 56.1207 279.446C56.1729 279.785 56.1729 280.129 56.1207 280.468C56.0405 281.037 55.8207 281.577 55.4809 282.04C54.8898 282.832 54.2709 283.013 54.2639 282.958C54.257 282.902 54.7299 282.596 55.1749 281.838C55.437 281.404 55.6008 280.917 55.6548 280.412C55.6837 280.132 55.6743 279.849 55.627 279.571C55.5783 279.244 55.4531 278.987 55.3349 279.022C55.2167 279.056 54.9315 279.265 54.8064 279.522C54.6584 279.785 54.5328 280.059 54.4308 280.343C54.2652 280.835 54.1692 281.347 54.1457 281.866C54.104 282.721 54.2361 283.271 54.1805 283.291Z" fill="#263238"/>
<path d="M42.8525 133.601C42.8525 133.601 38.5965 138.149 36.5102 142.517C34.4239 146.884 33.0887 157.28 33.0887 157.28C33.0887 157.28 27.2193 170.354 28.1095 177.044C28.9996 183.734 34.9803 229.5 34.9803 229.5C34.9803 229.5 34.6882 273.938 38.9372 281.866L39.883 286.15L56.9835 283.111L56.8722 280.544L60.8918 193.338L71.184 133.984L42.8525 133.601Z" fill="#263238"/>
<path d="M80.5789 146.571C80.5789 146.571 90.8016 202.845 91.7057 212.636C92.6097 222.428 57.8107 273.91 57.8107 273.91L41.8994 257.317L64.7371 214.896L57.31 172.114L67.6371 134.318L78.4857 134.693L80.5789 146.571Z" fill="#263238"/>
<path d="M36.2666 268.027C36.2847 268.441 36.3265 268.855 36.3918 269.265C36.4961 270.085 36.6978 271.281 36.9759 272.832C37.5462 275.927 38.4711 280.419 39.7089 286.045V286.163H39.8272L56.9346 283.166H57.0667V283.034C57.5466 271.302 58.1099 257.303 58.7218 242.233C59.3547 226.051 59.9388 211.044 60.4187 198.735C61.6983 188.846 62.7623 180.654 63.4994 174.944C63.861 172.1 64.1392 169.868 64.3339 168.324L64.5425 166.592C64.5843 166.196 64.5982 165.994 64.5982 165.994C64.5982 165.994 64.5495 166.189 64.4939 166.585C64.4382 166.982 64.3478 167.566 64.2366 168.317C64.0279 169.854 63.715 172.079 63.3186 174.916C62.5467 180.633 61.4409 188.825 60.0988 198.693C59.5981 211.002 58.9931 226.009 58.3324 242.192C57.7482 257.234 57.1989 271.26 56.7399 282.999L56.879 282.839L39.7854 285.913L39.9315 286.01C38.6589 280.447 37.6992 275.927 37.0872 272.839C36.7882 271.295 36.5656 270.106 36.4405 269.292C36.364 268.889 36.3292 268.597 36.3014 268.374C36.2971 268.258 36.2855 268.142 36.2666 268.027Z" fill="#455A64"/>
<path d="M66.8998 38.6759C67.4075 35.6926 65.1334 32.6883 62.2474 31.7843C59.3614 30.8802 56.1277 31.7843 53.645 33.495C51.8021 34.7816 50.2722 36.5132 48.3181 37.6328C46.5378 38.6481 44.4793 39.1141 42.7547 40.1711C41.3845 41.0124 40.245 42.1812 39.4389 43.5725C38.6328 44.9637 38.1855 46.5335 38.1371 48.1407C38.0953 50.366 38.8325 52.7374 37.8102 54.7263C36.7253 56.8961 33.9923 57.7862 32.7545 59.8725C31.6348 61.7571 32.0034 64.1493 32.5389 66.2773C33.0744 68.4053 33.742 70.6515 33.1231 72.7587C32.5528 74.6711 31.0368 76.1384 30.1466 77.9465C29.3511 79.7714 29.2522 81.8246 29.8687 83.7174C30.4851 85.6103 31.7741 87.2115 33.4916 88.2179L51.8578 80.763L66.8998 38.6759Z" fill="#263238"/>
<path d="M67.1155 37.5008C69.9459 37.2296 72.512 39.4758 73.6107 42.0975C74.7095 44.7193 74.6747 47.6609 74.7165 50.4983C74.7582 53.3356 74.9251 56.305 76.3368 58.7668C77.0809 60.0603 78.138 61.1452 78.9933 62.3691C79.9332 63.5498 80.406 65.035 80.3216 66.5417C79.9808 69.233 77.0253 70.8881 76.2812 73.4959C75.6761 75.5822 76.6497 77.9049 76.1629 80.0468C75.7051 81.6969 74.6225 83.1037 73.1448 83.969C71.6786 84.816 70.0975 85.4461 68.4507 85.8397L59.2363 78.7116L61.4756 36.9236L67.1155 37.5008Z" fill="#263238"/>
<path d="M46.8785 51.7013L47.9773 81.3751C48.0218 82.5699 48.3087 83.7432 48.8204 84.8238C49.3322 85.9044 50.0582 86.8697 50.9544 87.6612C51.8505 88.4527 52.8982 89.0538 54.0338 89.428C55.1693 89.8023 56.3691 89.9419 57.5603 89.8384C59.7806 89.6449 61.8372 88.5911 63.2912 86.902C64.7451 85.2128 65.4811 83.0222 65.3421 80.7979C65.2586 78.5725 65.3073 75.9299 65.3421 75.7004C65.3421 75.7004 72.7692 74.0314 73.0334 66.5417C73.1656 62.9185 73.0821 56.8057 72.6927 50.074C72.5039 46.5563 70.9918 43.2401 68.4599 40.7908C65.928 38.3414 62.5635 36.9401 59.0415 36.8679H58.3461C50.5156 37.1252 46.3848 43.9056 46.8785 51.7013Z" fill="#FFBE9D"/>
<path d="M65.3629 75.6795C61.891 75.6686 58.5013 74.6227 55.627 72.6753C55.627 72.6753 57.8106 78.1205 65.3003 77.6198L65.3629 75.6795Z" fill="#EB996E"/>
<path d="M70.8635 56.6665C70.8581 56.9452 70.745 57.211 70.548 57.4081C70.3509 57.6052 70.0851 57.7182 69.8064 57.7236C69.6699 57.7311 69.5332 57.7111 69.4045 57.6648C69.2759 57.6185 69.1578 57.5469 69.0573 57.4542C68.9568 57.3615 68.8759 57.2495 68.8194 57.125C68.7629 57.0004 68.732 56.8658 68.7285 56.7291C68.7322 56.4505 68.8449 56.1845 69.0426 55.9882C69.2402 55.7918 69.507 55.6808 69.7856 55.679C69.9215 55.6716 70.0576 55.6913 70.1859 55.7372C70.3141 55.783 70.4319 55.854 70.5323 55.946C70.6327 56.038 70.7137 56.1491 70.7706 56.2728C70.8275 56.3966 70.859 56.5304 70.8635 56.6665Z" fill="#263238"/>
<path d="M71.0166 54.1422C70.8775 54.2812 70.0848 53.6623 68.9304 53.6345C67.776 53.6067 66.9206 54.17 66.8024 54.0239C66.6841 53.8779 66.8858 53.711 67.2544 53.4537C67.7607 53.1188 68.3583 52.9487 68.9651 52.9669C69.564 52.9793 70.1435 53.1814 70.6202 53.5441C70.9679 53.8292 71.0862 54.0796 71.0166 54.1422Z" fill="#263238"/>
<path d="M59.9455 56.6665C59.9402 56.9451 59.8271 57.2109 59.63 57.408C59.4329 57.6051 59.1671 57.7182 58.8885 57.7235C58.7519 57.731 58.6153 57.711 58.4866 57.6647C58.3579 57.6185 58.2398 57.5468 58.1393 57.4541C58.0388 57.3614 57.9579 57.2494 57.9014 57.1249C57.845 57.0004 57.8141 56.8657 57.8105 56.729C57.8142 56.4505 57.9269 56.1844 58.1246 55.9881C58.3222 55.7917 58.589 55.6808 58.8676 55.679C59.0038 55.6705 59.1403 55.6896 59.2689 55.7351C59.3976 55.7805 59.5158 55.8515 59.6164 55.9437C59.717 56.0359 59.798 56.1474 59.8545 56.2715C59.9111 56.3957 59.942 56.53 59.9455 56.6665Z" fill="#263238"/>
<path d="M60.0085 54.302C59.8694 54.4411 59.0766 53.8222 57.9222 53.8013C56.7678 53.7805 55.9124 54.3298 55.7942 54.1838C55.676 54.0378 55.8707 53.8778 56.2462 53.6136C56.7534 53.2811 57.3509 53.1135 57.957 53.1337C58.5559 53.1461 59.1354 53.3482 59.6121 53.7109C59.9598 53.9891 60.0711 54.2533 60.0085 54.302Z" fill="#263238"/>
<path d="M63.6178 62.2439C64.2302 62.0741 64.8603 61.9761 65.4954 61.9518C65.7945 61.9518 66.0726 61.8753 66.1283 61.6806C66.1589 61.3769 66.0957 61.0711 65.9475 60.8044C65.6901 60.1089 65.4189 59.3301 65.1338 58.5442C64.0003 55.3244 63.1866 52.6888 63.3188 52.6401C63.4509 52.5914 64.4732 55.1645 65.6067 58.3843C65.8779 59.1771 66.1352 59.9351 66.3856 60.6514C66.5623 61.0118 66.6066 61.4229 66.5107 61.8127C66.4647 61.9147 66.3965 62.005 66.3111 62.0772C66.2256 62.1494 66.1252 62.2016 66.017 62.23C65.8539 62.2738 65.6851 62.2925 65.5163 62.2856C64.8845 62.3586 64.2457 62.3445 63.6178 62.2439Z" fill="#263238"/>
<path d="M59.6537 49.7888C59.5216 50.0948 58.3811 49.8861 57.025 49.9835C55.669 50.0808 54.5563 50.3868 54.3894 50.1017C54.3198 49.9626 54.5215 49.6775 54.9805 49.4063C55.5987 49.0056 56.3327 48.8221 57.0668 48.8847C57.7203 48.8193 58.3798 48.9173 58.9861 49.1698C59.4729 49.3854 59.7094 49.6427 59.6537 49.7888Z" fill="#263238"/>
<path d="M71.4691 49.7401C71.2326 50.0044 70.3077 49.7401 69.1881 49.6914C68.0684 49.6428 67.1018 49.8444 66.914 49.5732C66.8167 49.4411 66.9697 49.1768 67.3869 48.9334C67.9596 48.6401 68.598 48.4988 69.241 48.5232C69.884 48.5476 70.5099 48.7367 71.0588 49.0725C71.4482 49.3437 71.5734 49.6149 71.4691 49.7401Z" fill="#263238"/>
<path d="M63.9724 65.9296C63.9276 65.6875 63.848 65.4533 63.736 65.2341C63.5994 65.0032 63.408 64.8094 63.1788 64.6699C62.9496 64.5305 62.6895 64.4496 62.4216 64.4344C61.8811 64.4105 61.3525 64.5975 60.9473 64.956C60.7699 65.1105 60.6269 65.3005 60.5275 65.5137C60.4281 65.7269 60.3745 65.9586 60.3701 66.1938C60.3754 66.3193 60.4062 66.4423 60.4605 66.5555C60.597 66.8772 60.8083 67.1618 61.0768 67.3855C61.3453 67.6093 61.6633 67.7658 62.0044 67.842C62.3478 67.9084 62.7032 67.8742 63.0277 67.7434C63.3522 67.6127 63.6319 67.3909 63.8333 67.1048C63.9492 66.9396 64.0232 66.7487 64.0489 66.5485C64.0546 66.3395 64.0288 66.1309 63.9724 65.9296Z" fill="#EB996E"/>
<path d="M48.0402 61.7015C47.9985 61.7015 47.9429 61.7015 47.9498 61.778C47.9526 61.7894 47.958 61.8 47.9656 61.809C47.9731 61.818 47.9827 61.8251 47.9934 61.8298C48.0042 61.8345 48.0159 61.8367 48.0276 61.8362C48.0394 61.8356 48.0508 61.8324 48.0611 61.8267C48.07 61.8189 48.0771 61.8092 48.0819 61.7985C48.0868 61.7877 48.0893 61.776 48.0893 61.7641C48.0893 61.7523 48.0868 61.7406 48.0819 61.7298C48.0771 61.719 48.07 61.7094 48.0611 61.7015C48.0514 61.6966 48.0407 61.6941 48.0298 61.6941C48.0189 61.6941 48.0082 61.6966 47.9985 61.7015" fill="#263238"/>
<path d="M48.1517 61.3814C48.1405 61.3777 48.1284 61.377 48.1168 61.3793C48.1051 61.3815 48.0942 61.3868 48.0852 61.3944C48.0761 61.4021 48.0692 61.412 48.065 61.4231C48.0608 61.4342 48.0596 61.4462 48.0613 61.4579C48.0631 61.4691 48.0677 61.4797 48.0745 61.4888C48.0813 61.4979 48.0903 61.5051 48.1006 61.5099C48.1109 61.5147 48.1222 61.5169 48.1335 61.5163C48.1449 61.5158 48.1559 61.5124 48.1656 61.5066C48.1757 61.4995 48.1839 61.4902 48.1895 61.4793C48.1952 61.4684 48.1982 61.4563 48.1982 61.444C48.1982 61.4317 48.1952 61.4196 48.1895 61.4088C48.1839 61.3979 48.1757 61.3885 48.1656 61.3814C48.1561 61.3759 48.1453 61.373 48.1343 61.373C48.1234 61.373 48.1126 61.3759 48.1031 61.3814" fill="#263238"/>
<path d="M64.9669 66.4442C64.9669 66.5276 64.6749 66.6945 64.1255 66.778C63.382 66.896 62.6202 66.7844 61.9418 66.4581C61.2554 66.1238 60.707 65.5606 60.3911 64.8655C60.1546 64.3509 60.1477 63.9963 60.2311 63.9615C60.4397 63.8641 60.9265 65.1576 62.2617 65.8113C62.8433 66.0743 63.4677 66.2298 64.1046 66.2703C64.6192 66.319 64.953 66.3329 64.9669 66.4442Z" fill="#263238"/>
<path d="M44.062 58.1966C42.3512 52.1533 43.2205 45.2408 47.0801 40.2825C50.9397 35.3241 57.9357 32.7719 63.8746 34.8164C64.7278 35.0724 65.509 35.525 66.1556 36.1377C66.4703 36.4513 66.6995 36.8403 66.8212 37.2676C66.943 37.6949 66.9532 38.1463 66.851 38.5787C66.4477 39.9208 64.8343 40.4494 63.4365 40.5119C62.0387 40.5745 60.5435 40.4007 59.3404 41.11C57.2124 42.3548 57.2541 45.4842 55.752 47.4314C55.0079 48.3911 53.9022 49.0378 53.2276 50.0462C51.4056 52.7723 52.9077 54.4065 51.7464 57.4733C51.4195 58.3218 49.9452 59.1006 49.0412 59.2258C48.1371 59.351 48.8604 59.3371 46.9549 59.1215L44.062 58.1966Z" fill="#263238"/>
<path d="M49.5147 59.2258C49.3895 59.1632 44.4867 57.4455 44.3824 62.536C44.2781 67.6265 49.4103 66.7086 49.4243 66.5347C49.4382 66.3609 49.5147 59.2258 49.5147 59.2258Z" fill="#FFBE9D"/>
<path d="M47.9075 64.5735C47.9075 64.5735 47.8171 64.6361 47.6641 64.6987C47.5552 64.7492 47.4365 64.7753 47.3164 64.7753C47.1963 64.7753 47.0777 64.7492 46.9687 64.6987C46.4332 64.497 46.0021 63.6277 45.9951 62.7098C45.9879 62.275 46.0807 61.8443 46.2663 61.4511C46.3156 61.2866 46.4049 61.137 46.5263 61.0156C46.6477 60.8942 46.7973 60.8049 46.9618 60.7556C47.0642 60.7312 47.172 60.7427 47.2669 60.7883C47.3619 60.8339 47.4383 60.9107 47.4833 61.006C47.5459 61.152 47.4833 61.2494 47.539 61.2633C47.5946 61.2772 47.6502 61.1798 47.6155 60.9643C47.5884 60.8388 47.5198 60.726 47.4207 60.6444C47.2817 60.5385 47.1079 60.4888 46.9339 60.5053C46.7235 60.5425 46.5261 60.633 46.3606 60.7681C46.195 60.9033 46.0668 61.0785 45.9882 61.2772C45.7658 61.7069 45.6512 62.1842 45.6544 62.6681C45.6544 63.6903 46.169 64.6639 46.8992 64.8934C47.0353 64.9338 47.1785 64.9441 47.319 64.9237C47.4595 64.9033 47.5938 64.8526 47.7128 64.7752C47.8936 64.6848 47.9214 64.5874 47.9075 64.5735Z" fill="#EB996E"/>
<path d="M38.2764 49.2812C39.3666 49.7521 40.5326 50.023 41.7187 50.081C42.9971 50.1054 44.2701 49.9078 45.481 49.4968C46.9625 48.9724 48.3662 48.2496 49.6535 47.348C51.0444 46.4091 52.2822 45.4008 53.4297 44.4967C54.5771 43.5927 55.6202 42.786 56.5452 42.174C57.2701 41.679 58.0301 41.2374 58.8192 40.8527C59.102 40.6969 59.4034 40.5777 59.7163 40.498C59.7163 40.498 59.4173 40.6719 58.8818 40.9779C58.1272 41.4019 57.396 41.8662 56.6912 42.3687C55.7941 43.0016 54.7649 43.8152 53.6383 44.7401C52.5117 45.665 51.2599 46.6873 49.8552 47.64C48.5405 48.5562 47.103 49.282 45.5853 49.7959C44.3365 50.2042 43.0242 50.3833 41.7118 50.3244C40.8266 50.2801 39.9548 50.0898 39.1317 49.7611C38.9109 49.6703 38.6971 49.5634 38.4919 49.4412C38.3482 49.3485 38.2764 49.2952 38.2764 49.2812Z" fill="#455A64"/>
<path d="M37.8797 49.7611C37.8797 49.7125 38.5752 50.1367 39.7922 50.686C41.3351 51.402 42.9542 51.9409 44.6184 52.2925C46.2854 52.6365 47.9864 52.7882 49.688 52.7445C50.9954 52.7445 51.7743 52.6054 51.8091 52.668C51.6317 52.7422 51.4441 52.7891 51.2527 52.8071C50.7405 52.9047 50.2225 52.9698 49.702 53.0018C46.2336 53.2373 42.7671 52.5156 39.6809 50.9155C39.2141 50.6789 38.7634 50.4117 38.3318 50.1158C38.0258 49.9072 37.8658 49.782 37.8797 49.7611Z" fill="#455A64"/>
<path d="M74.5776 46.6942C73.7109 46.5441 72.9 46.1652 72.2288 45.5967C71.5576 45.0282 71.0504 44.2907 70.7598 43.4604C71.2918 44.1136 71.8607 44.7358 72.4636 45.3242C73.1414 45.821 73.8473 46.2784 74.5776 46.6942Z" fill="#455A64"/>
<path d="M74.4036 51.6316C74.4592 51.7081 74.188 52.0071 73.7081 52.1671C73.2283 52.327 72.8389 52.2575 72.8389 52.1671C72.8389 52.0767 73.1866 51.9724 73.5899 51.8333C73.9933 51.6942 74.3132 51.5482 74.4036 51.6316Z" fill="#455A64"/>
<path d="M102.812 113.365C102.768 111.803 103.189 110.264 104.022 108.942C105.357 107.134 108.194 106.306 108.424 105.047C108.653 103.789 110.83 101.264 111.901 101.848C112.972 102.432 113.41 103.796 111.901 105.367C110.91 106.4 110.007 107.514 109.203 108.698C109.203 108.698 122.722 106.355 123.709 106.529C124.697 106.702 125.684 106.869 125.691 107.704C125.698 108.538 123.07 108.768 123.07 108.768L118.668 111.828C117.656 113.208 116.46 114.443 115.114 115.5C113.609 116.422 111.927 117.019 110.176 117.252L105.496 120.242C105.496 120.242 100.879 116.883 102.812 113.365Z" fill="#FFBE9D"/>
<path d="M122.77 108.893C122.77 108.893 122.687 108.789 122.534 108.649C122.314 108.448 122.037 108.319 121.741 108.281C120.733 108.262 119.744 108.556 118.911 109.122C118.051 109.685 117.26 110.345 116.553 111.09C116.276 111.423 115.958 111.72 115.607 111.974C115.82 111.593 116.082 111.242 116.386 110.93C117.055 110.115 117.848 109.411 118.737 108.844C119.629 108.228 120.711 107.95 121.79 108.058C122.124 108.122 122.425 108.301 122.638 108.566C122.77 108.754 122.784 108.886 122.77 108.893Z" fill="#EB996E"/>
<path d="M118.034 109.053C116.714 109.57 115.319 109.87 113.903 109.943C115.226 109.435 116.619 109.134 118.034 109.053Z" fill="#EB996E"/>
<path d="M111.06 109.7C111.759 109.677 112.446 109.889 113.011 110.3C113.577 110.712 113.989 111.301 114.182 111.974C113.76 111.47 113.295 111.005 112.791 110.583C112.243 110.235 111.663 109.939 111.06 109.7Z" fill="#EB996E"/>
<path d="M76.7334 83.4055C76.7334 83.4055 83.3747 86.7853 84.9881 91.236C85.8365 93.5796 90.8575 118.49 90.8575 118.49L100.969 111.626L107.784 121.918L91.6155 134.505C88.4553 135.313 85.1181 135.069 82.109 133.81C81.0103 133.344 80.1271 132.801 79.9115 132.224C79.2717 130.437 76.7334 83.4055 76.7334 83.4055Z" fill="#61D5A9"/>
<g opacity="0.3">
<path d="M86.5729 122.607C85.4672 124.276 84.9456 126.473 85.7245 128.323C85.7815 128.496 85.8879 128.648 86.0305 128.761C86.2046 128.845 86.4045 128.859 86.5884 128.799C86.7724 128.74 86.9262 128.611 87.018 128.441C87.1845 128.09 87.2655 127.704 87.2544 127.315C87.4471 124.065 88.7311 120.975 90.8985 118.545V118.448C89.2351 119.584 87.7731 120.989 86.5729 122.607Z" fill="black"/>
</g>
<path d="M29.8063 86.7228L48.993 80.4988C52.7205 90.4086 64.7235 88.7187 65.3355 80.7422L76.7335 83.4613C76.7335 83.4613 80.5514 107.655 79.6265 112.669C78.1383 120.75 81.8727 147.002 83.8477 156.446C85.5654 164.624 80.5514 169.485 78.034 171.711C65.2242 183.032 58.5621 181.509 49.1947 175.626C42.603 171.655 35.681 168.261 28.5059 165.48C29.4377 154.527 35.5088 143.163 39.4101 134.944L37.6159 115.84L29.8063 86.7228Z" fill="#B1EAD4"/>
<path d="M83.5139 153.609C83.4416 153.426 83.3858 153.238 83.347 153.045C83.2566 152.677 83.1176 152.134 82.9576 151.425C82.6308 150.034 82.1996 147.948 81.7615 145.403C81.3234 142.857 80.8922 139.784 80.5653 136.362C80.2385 132.941 80.0577 129.178 80.0021 125.235C79.9464 121.292 79.8908 117.516 79.6265 114.109C79.4355 111.086 79.0123 108.082 78.3609 105.124C77.9215 103.13 77.3191 101.177 76.5597 99.2821C76.3094 98.5867 76.0451 98.1068 75.906 97.7521C75.8205 97.5771 75.7484 97.3957 75.6904 97.2097C75.8016 97.3718 75.8971 97.5441 75.9755 97.7243C76.1355 98.0651 76.4206 98.5588 76.671 99.2334C77.482 101.118 78.1243 103.07 78.5903 105.068C79.2879 108.024 79.7483 111.031 79.9673 114.06C80.2455 117.481 80.315 121.257 80.3706 125.187C80.4263 129.116 80.6071 132.899 80.9061 136.313C81.2051 139.728 81.6015 142.774 82.0188 145.354C82.436 147.934 82.8185 149.965 83.1036 151.39C83.2427 152.086 83.347 152.621 83.4305 153.024C83.4705 153.217 83.4984 153.412 83.5139 153.609Z" fill="#263238"/>
<g opacity="0.3">
<path d="M57.5811 138.56C53.5477 138.365 49.3891 138.191 45.6129 139.596C39.8548 141.731 35.9952 147.092 30.9395 150.583L31.4193 150.757C33.7474 152.047 36.3956 152.644 39.052 152.479C41.7083 152.314 44.2621 151.393 46.4126 149.825C48.4989 148.247 50.1818 146.035 52.6297 145.104C53.6937 144.693 54.869 144.547 55.8565 143.97C56.7417 143.422 57.402 142.575 57.7182 141.583C58.0344 140.591 57.9858 139.519 57.5811 138.56Z" fill="black"/>
</g>
<path d="M29.8064 86.7854C27.621 88.041 25.9102 89.9816 24.9384 92.3071C23.631 95.4643 20.0704 138.038 20.6824 140.764C21.2944 143.49 24.1595 147.572 28.8606 149.693C32.8315 151.481 43.0959 147.148 47.2615 145.618C47.3936 145.57 46.3296 143.97 45.8707 142.906L42.3449 131.675L36.698 132.287L38.7843 111.174L29.8064 86.7854Z" fill="#61D5A9"/>
<path d="M36.0791 101.097C36.203 101.484 36.2983 101.879 36.3642 102.279C36.5172 103.051 36.698 104.171 36.8788 105.562C37.2405 108.343 37.5743 112.203 37.8872 116.459L38.6591 127.377C38.7704 128.726 38.8678 129.839 38.9373 130.68C38.998 131.081 39.0259 131.486 39.0207 131.891C38.9157 131.498 38.8413 131.098 38.7982 130.694C38.68 129.922 38.5479 128.796 38.4018 127.398C38.1237 124.616 37.8385 120.75 37.5256 116.487C37.2126 112.224 36.9206 108.371 36.6215 105.59C36.4755 104.199 36.3364 103.079 36.2251 102.307C36.1422 101.909 36.0934 101.504 36.0791 101.097Z" fill="#263238"/>
<path d="M43.2417 131.258C42.6394 131.428 42.0259 131.556 41.4058 131.64C40.2444 131.842 38.6241 132.113 36.6769 132.419H36.6282H36.5795C35.5708 131.965 34.4855 131.706 33.3806 131.654C32.0976 131.595 30.8175 131.82 29.6322 132.315C28.6676 132.725 27.7826 133.302 27.0174 134.019C26.3341 134.709 25.7214 135.466 25.1885 136.279C25.2647 136.033 25.3747 135.799 25.5153 135.583C25.8796 134.954 26.3237 134.374 26.8366 133.859C27.608 133.093 28.5131 132.476 29.5071 132.037C30.7321 131.509 32.0624 131.271 33.3945 131.341C34.5471 131.394 35.6785 131.67 36.7256 132.155H36.6282C38.5545 131.877 40.2027 131.654 41.3779 131.508C41.9913 131.374 42.6147 131.29 43.2417 131.258Z" fill="#263238"/>
<path d="M46.0164 142.941C46.1881 143.153 46.3308 143.387 46.4406 143.636L47.5046 145.542L47.5741 145.66L47.442 145.716C45.5226 146.46 42.6922 147.524 39.535 148.685L36.802 149.687L36.7046 149.353L36.795 149.687H36.7255L36.642 149.346H36.6768L36.7742 149.68C34.8444 150.331 32.7873 150.515 30.7727 150.215C30.1949 150.127 29.6234 150.002 29.0619 149.84C28.8542 149.79 28.6533 149.716 28.4639 149.617C28.4639 149.561 29.3331 149.826 30.8005 149.993C32.7784 150.219 34.7819 149.998 36.6629 149.346L36.7603 149.68L36.6768 149.339H36.7394L36.8298 149.673L36.7255 149.332L39.4516 148.324C42.6088 147.162 45.4531 146.14 47.4003 145.465L47.3307 145.632L46.3641 143.678C46.2229 143.445 46.1064 143.198 46.0164 142.941Z" fill="#263238"/>
<path d="M91.017 118.372C90.3198 119.182 89.6696 120.032 89.0698 120.917C88.1797 122.433 87.8389 123.858 87.7207 123.824C87.801 122.722 88.1573 121.657 88.7569 120.729C89.2739 119.747 90.0572 118.93 91.017 118.372Z" fill="#263238"/>
<path d="M67.5332 40.9292C67.5365 40.9778 67.5365 41.0266 67.5332 41.0752V40.9292Z" fill="#263238"/>
<path d="M53.7075 140.945C53.2357 139.818 52.947 138.623 52.8521 137.405C52.626 136.206 52.5954 134.978 52.7617 133.768C53.0044 134.95 53.1716 136.147 53.2624 137.35C53.5406 139.325 53.8257 140.917 53.7075 140.945Z" fill="#455A64"/>
<path d="M46.9973 66.5276L29.9316 84.0384C31.0362 85.8748 31.6468 87.9658 31.7041 90.1081C31.7614 92.2504 31.2634 94.3711 30.2585 96.2639L44.5077 96.7229L44.5912 92.8842C44.8302 93.6846 45.2671 94.412 45.8614 94.999C46.4558 95.5861 47.1884 96.0139 47.9918 96.2431C50.1546 96.862 52.4634 96.2848 54.6331 95.6798C51.0011 86.28 48.4397 76.5009 46.9973 66.5276Z" fill="#263238"/>
<path d="M50.8151 103.218C50.8151 103.733 50.7178 134.93 50.7178 134.93L77.1439 135.813L78.4652 104.254L50.8151 103.218Z" fill="#EBEBEB"/>
<path d="M53.5409 100.889C53.5409 101.528 49.876 138.866 49.876 138.866L78.5692 138.17L83.3954 100.875L53.5409 100.889Z" fill="#F5F5F5"/>
<path d="M79.6053 108.42C79.6053 108.524 74.6817 108.601 68.6176 108.601C62.5535 108.601 57.6299 108.524 57.6299 108.42C57.6299 108.316 62.5535 108.239 68.6176 108.239C74.6817 108.239 79.6053 108.323 79.6053 108.42Z" fill="#263238"/>
<path d="M79.3278 110.882C79.3278 110.979 74.4112 111.063 68.3471 111.063C62.283 111.063 57.3594 110.979 57.3594 110.882C57.3594 110.784 62.276 110.701 68.3471 110.701C74.4181 110.701 79.3278 110.777 79.3278 110.882Z" fill="#263238"/>
<path d="M78.8406 113.99C78.8406 114.095 73.917 114.171 67.8529 114.171C61.7888 114.171 56.8652 114.095 56.8652 113.99C56.8652 113.886 61.7888 113.81 67.8529 113.81C73.917 113.81 78.8406 113.893 78.8406 113.99Z" fill="#263238"/>
<path d="M78.3192 116.779C78.3192 116.876 73.3955 116.96 67.3315 116.96C61.2674 116.96 56.3438 116.876 56.3438 116.779C56.3438 116.682 61.2674 116.591 67.3315 116.591C73.3955 116.591 78.3192 116.675 78.3192 116.779Z" fill="#263238"/>
<path d="M78.3192 119.561C78.3192 119.658 73.3955 119.742 67.3315 119.742C61.2674 119.742 56.3438 119.658 56.3438 119.561C56.3438 119.463 61.2674 119.38 67.3315 119.38C73.3955 119.38 78.3192 119.463 78.3192 119.561Z" fill="#263238"/>
<path d="M78.0544 122.482C78.0544 122.586 73.1377 122.662 67.0667 122.662C60.9956 122.662 56.0859 122.586 56.0859 122.482C56.0859 122.377 61.0026 122.301 67.0667 122.301C73.1308 122.301 78.0544 122.405 78.0544 122.482Z" fill="#263238"/>
<path d="M77.7907 125.402C77.7907 125.507 72.8741 125.59 66.81 125.59C60.7459 125.59 55.8223 125.507 55.8223 125.402C55.8223 125.298 60.7389 125.221 66.81 125.221C72.881 125.221 77.7907 125.305 77.7907 125.402Z" fill="#263238"/>
<path d="M77.5261 128.33C77.5261 128.427 72.6094 128.511 66.5453 128.511C60.4812 128.511 55.5576 128.427 55.5576 128.33C55.5576 128.233 60.4743 128.149 66.5453 128.149C72.6164 128.149 77.5261 128.226 77.5261 128.33Z" fill="#263238"/>
<path d="M77.2684 131.251C77.2684 131.348 72.3448 131.432 66.2807 131.432C60.2166 131.432 55.293 131.348 55.293 131.251C55.293 131.154 60.2166 131.07 66.2807 131.07C72.3448 131.07 77.2684 131.154 77.2684 131.251Z" fill="#263238"/>
<path d="M77.0046 134.172C77.0046 134.276 72.0879 134.352 66.0169 134.352C59.9458 134.352 55.0361 134.276 55.0361 134.172C55.0361 134.067 59.9528 133.991 66.0169 133.991C72.081 133.991 77.0046 134.074 77.0046 134.172Z" fill="#263238"/>
<path d="M41.5726 134.874C41.5726 134.874 43.8606 129.825 44.3543 129.54C44.8481 129.255 53.0054 128.323 54.6327 128.302C56.3921 128.302 59.1043 128.351 59.5563 129.213C59.8901 129.846 59.5563 130.778 58.2489 130.973C58.2489 130.973 60.0709 130.875 59.8762 132.016C59.6815 133.156 55.5854 135.25 55.5854 135.25C55.5854 135.25 56.3504 136.112 54.8274 137.725L54.132 138.581C54.132 138.581 54.4171 140.104 53.5617 140.771C52.7064 141.439 47.2821 143.337 47.2821 143.337L45.1958 142.677L43.8675 143.337C43.8675 143.337 39.5211 139.095 41.5726 134.874Z" fill="#FFBE9D"/>
<path d="M58.875 130.75C58.2914 131.027 57.6809 131.244 57.053 131.397C55.9055 131.744 54.313 132.176 52.5327 132.565C50.7524 132.954 49.1251 133.26 47.9429 133.413C47.3087 133.54 46.6632 133.6 46.0166 133.594C46.6307 133.393 47.2613 133.246 47.9012 133.156C49.0695 132.927 50.6829 132.607 52.4562 132.21C54.2296 131.814 55.8221 131.432 56.9834 131.153C57.6011 130.964 58.234 130.829 58.875 130.75Z" fill="#EB996E"/>
<path d="M55.4048 135.402C54.2054 136.031 52.9148 136.468 51.58 136.696C50.2717 137.039 48.9178 137.175 47.5674 137.099C47.5674 136.995 49.3477 136.814 51.5035 136.341C53.6593 135.868 55.3631 135.305 55.4048 135.402Z" fill="#EB996E"/>
<path d="M54.0555 138.539C53.3435 139.186 52.484 139.649 51.5519 139.888C50.6546 140.238 49.6862 140.367 48.7285 140.264C48.7285 140.159 49.9803 140.027 51.4407 139.568C52.9011 139.109 53.9998 138.448 54.0555 138.539Z" fill="#EB996E"/>
<path d="M45.8912 140.486C45.8912 140.486 45.467 140.542 44.9316 140.166C44.6333 139.936 44.3948 139.638 44.2361 139.297C44.041 138.876 43.9733 138.407 44.0414 137.948C44.0638 137.757 44.03 137.563 43.9441 137.391C43.8312 137.231 43.7031 137.082 43.5616 136.946C43.3021 136.66 43.1371 136.301 43.0887 135.917C43.0122 135.263 43.2625 134.909 43.2904 134.93C43.2768 135.246 43.2931 135.562 43.339 135.875C43.4165 136.192 43.5774 136.483 43.805 136.717C43.97 136.866 44.1191 137.031 44.25 137.211C44.3774 137.439 44.4309 137.701 44.403 137.962C44.3406 138.327 44.3717 138.702 44.4932 139.052C44.6148 139.403 44.823 139.716 45.0985 139.964C45.5227 140.368 45.8912 140.437 45.8912 140.486Z" fill="#EB996E"/>
<path d="M47.2815 142.788C47.2815 142.892 46.6765 142.871 46.2453 142.336C45.8142 141.8 45.9254 141.202 46.0228 141.23C46.1202 141.258 46.1828 141.696 46.5305 142.106C46.8782 142.517 47.2815 142.691 47.2815 142.788Z" fill="#EB996E"/>
</svg>
