<svg width="81" height="174" viewBox="0 0 81 174" fill="none" xmlns="http://www.w3.org/2000/svg">
<path d="M9.03544 168.829L11.3186 164.599L3.41912 160.271L0.0126953 166.424L0.48276 166.723C2.59499 168.042 11.3186 173.267 13.0157 173.621C14.9143 174.018 9.03544 168.829 9.03544 168.829Z" fill="#FF725E"/>
<path d="M2.91192 167.933C3.15591 167.202 3.12553 166.408 2.82646 165.699C2.53145 164.997 1.98497 164.431 1.29418 164.111L0.0732422 166.315L2.91192 167.933Z" fill="#E6E6E6"/>
<path d="M11.8436 171.485C11.8436 171.485 13.8215 173.45 13.3148 173.676C12.8081 173.902 3.79761 168.957 0.0126953 166.424L0.122585 166.253L10.586 172.12C10.586 172.12 11.3552 171.253 11.8436 171.485Z" fill="#E6E6E6"/>
<path d="M0 166.18L0.128203 166.271L0.506691 166.509L1.90467 167.358C3.09509 168.066 4.74946 169.024 6.59919 170.044C8.44891 171.063 10.1399 171.943 11.3792 172.565C11.953 172.858 12.4475 173.096 12.8443 173.298L13.2472 173.487L13.3876 173.548C13.3876 173.548 13.3449 173.518 13.2533 173.469L12.8626 173.261L11.4097 172.498C10.1887 171.888 8.49774 170.966 6.64802 169.946C4.79829 168.927 3.14392 167.981 1.9474 167.291L0.525004 166.473L0.140415 166.253L0 166.18Z" fill="#263238"/>
<path d="M10.5186 172.236C10.7121 172.034 10.927 171.854 11.1595 171.699C11.4172 171.575 11.6873 171.479 11.9654 171.412C11.6689 171.369 11.3669 171.436 11.1168 171.601C10.8439 171.729 10.6299 171.956 10.5186 172.236Z" fill="#263238"/>
<path d="M8.83364 169.776C8.83364 169.806 9.0351 169.733 9.24877 169.611C9.46243 169.489 9.62725 169.379 9.61505 169.349C9.4658 169.371 9.32372 169.427 9.19993 169.513C8.98627 169.636 8.82144 169.752 8.83364 169.776Z" fill="#263238"/>
<path d="M8.38103 169.092C8.50826 169.112 8.63847 169.1 8.75952 169.056C8.96708 169.007 9.1258 168.946 9.11969 168.915C8.99044 168.896 8.85827 168.908 8.7351 168.952C8.53365 169.001 8.37493 169.062 8.38103 169.092Z" fill="#263238"/>
<path d="M8.38672 168.122C8.38672 168.122 8.54544 168.275 8.77132 168.403C8.90069 168.495 9.04863 168.557 9.20475 168.586C9.20475 168.586 9.04603 168.433 8.82016 168.305C8.69079 168.213 8.54284 168.151 8.38672 168.122Z" fill="#263238"/>
<path d="M8.53516 167.524C8.62573 167.687 8.76137 167.821 8.92586 167.909C9.07073 168.024 9.24761 168.092 9.43255 168.104C9.43255 168.073 9.22498 167.976 8.9808 167.817C8.73661 167.658 8.55958 167.5 8.53516 167.524Z" fill="#263238"/>
<path d="M9.48047 169.238C9.63567 169.357 9.80879 169.449 9.99327 169.513C10.1909 169.591 10.3952 169.65 10.6037 169.69C10.728 169.718 10.8549 169.732 10.9822 169.733C11.0622 169.729 11.1382 169.697 11.1959 169.641C11.224 169.608 11.2419 169.567 11.2473 169.524C11.2527 169.48 11.2455 169.436 11.2264 169.397C11.1353 169.268 11.0163 169.16 10.8782 169.082C10.7402 169.005 10.5865 168.959 10.4285 168.949C10.2705 168.938 10.1121 168.963 9.965 169.022C9.81787 169.08 9.68569 169.171 9.57815 169.287C9.51099 169.36 9.48047 169.409 9.48658 169.415C9.62581 169.289 9.78454 169.186 9.95664 169.11C10.151 169.034 10.364 169.019 10.5671 169.067C10.6887 169.085 10.8056 169.127 10.9105 169.191C11.0154 169.255 11.1063 169.34 11.1776 169.44C11.2203 169.544 11.1409 169.623 11.0189 169.623C10.9021 169.625 10.7855 169.615 10.6709 169.592C10.4641 169.556 10.2601 169.505 10.0604 169.44C9.68193 169.324 9.5232 169.22 9.48047 169.238Z" fill="#263238"/>
<path d="M9.59627 169.337C9.71672 169.262 9.80737 169.148 9.85267 169.013C9.9095 168.872 9.93048 168.719 9.91372 168.568C9.91345 168.469 9.88741 168.372 9.83816 168.286C9.78891 168.2 9.71816 168.129 9.6329 168.079C9.57623 168.062 9.51504 168.068 9.46251 168.095C9.40998 168.122 9.37033 168.169 9.35209 168.226C9.31691 168.313 9.30228 168.407 9.30935 168.5C9.31529 168.649 9.33991 168.797 9.38261 168.94C9.4108 169.073 9.47164 169.197 9.55965 169.3C9.53171 169.172 9.49707 169.046 9.45587 168.922C9.42767 168.783 9.41336 168.642 9.41314 168.5C9.41314 168.354 9.46198 168.134 9.60238 168.183C9.74279 168.232 9.79162 168.433 9.81604 168.58C9.83296 168.717 9.82047 168.857 9.77942 168.989C9.7299 169.11 9.66855 169.227 9.59627 169.337Z" fill="#263238"/>
<path d="M1.34961 164.086C1.34961 164.086 1.58769 164.19 1.91734 164.428C2.35308 164.736 2.6953 165.159 2.90631 165.649C3.10663 166.144 3.16785 166.684 3.08334 167.212C3.01619 167.614 2.90631 167.822 2.92462 167.822C2.94294 167.822 2.96125 167.773 3.01009 167.663C3.07667 167.513 3.12583 167.355 3.1566 167.193C3.26926 166.651 3.21608 166.087 3.00399 165.575C2.78308 165.077 2.42265 164.653 1.96618 164.355C1.82601 164.267 1.67902 164.192 1.52664 164.129C1.47083 164.103 1.41078 164.089 1.34961 164.086Z" fill="#263238"/>
<path d="M3.96763 161.272C3.6204 161.784 3.30048 162.314 3.0092 162.86C2.69298 163.389 2.40564 163.935 2.14844 164.496C2.49656 163.987 2.81653 163.459 3.10688 162.915C3.42818 162.386 3.71567 161.837 3.96763 161.272Z" fill="#263238"/>
<path d="M4.32715 167.706C4.65369 168.005 5.01924 168.257 5.41378 168.457C5.79369 168.692 6.20466 168.873 6.63472 168.994C6.63472 168.994 6.11582 168.714 5.48704 168.384C4.85825 168.054 4.34546 167.682 4.32715 167.706Z" fill="#263238"/>
<path d="M2.80827 166.858C2.80827 166.858 2.80827 166.986 2.80827 167.133C2.80827 167.279 2.77164 167.402 2.80827 167.414C2.8449 167.426 2.91815 167.316 2.93036 167.145C2.94257 166.974 2.80827 166.846 2.80827 166.858Z" fill="#263238"/>
<path d="M2.59462 165.809C2.5641 165.809 2.59462 165.931 2.59462 166.059C2.59462 166.187 2.6862 166.279 2.71672 166.273C2.74725 166.267 2.71672 166.157 2.71672 166.029C2.71672 165.9 2.62514 165.803 2.59462 165.809Z" fill="#263238"/>
<path d="M1.94043 165.021C1.94043 165.051 2.0381 165.106 2.12967 165.21C2.22124 165.314 2.27618 165.424 2.30671 165.417C2.33723 165.411 2.30671 165.265 2.21514 165.137C2.12357 165.008 1.94653 164.99 1.94043 165.021Z" fill="#263238"/>
<path d="M1.43457 164.538C1.43457 164.538 1.43457 164.624 1.48951 164.685C1.54445 164.746 1.5994 164.783 1.62381 164.758C1.64823 164.734 1.62382 164.673 1.56887 164.612C1.51393 164.551 1.45899 164.52 1.43457 164.538Z" fill="#263238"/>
<path d="M0.0556641 162.828L12.4177 168.566L34.5533 129.063C37.4408 118.642 40.2246 81.959 40.2246 81.959L24.1997 83.1799C24.1997 83.1799 21.7273 109.516 17.8509 123.086L0.0556641 162.828Z" fill="#263238"/>
<path d="M14.364 164.696C13.7158 164.498 13.0849 164.247 12.4776 163.945C11.3361 163.445 9.76106 162.724 8.02733 161.925C6.29359 161.125 4.743 160.38 3.61974 159.825C2.99836 159.554 2.40013 159.234 1.83105 158.866C2.4758 159.069 3.10434 159.32 3.7113 159.617C4.85899 160.118 6.434 160.838 8.16163 161.638C9.88926 162.437 11.4582 163.188 12.5753 163.744C13.1957 164.014 13.7937 164.332 14.364 164.696Z" fill="#455A64"/>
<path opacity="0.2" d="M25.7188 93.9756L35.645 124.09L36.9026 117.412L25.7188 93.9756Z" fill="black"/>
<path d="M73.6228 166.284L71.1077 162.188L63.3975 166.845L67.0115 172.883L67.5059 172.62C69.7097 171.454 78.6043 166.516 79.7642 165.24C81.0339 163.805 73.6228 166.284 73.6228 166.284Z" fill="#FF725E"/>
<path d="M69.7454 171.132C69.2381 170.55 68.5337 170.176 67.7675 170.082C67.014 169.987 66.2522 170.176 65.6309 170.613L66.9312 172.768L69.7454 171.132Z" fill="#E6E6E6"/>
<path d="M77.2852 165.187C77.2852 165.187 79.9835 164.467 79.9225 165.016C79.8614 165.566 71.0645 170.877 66.9744 172.885L66.8828 172.702L77.2059 166.597C77.2059 166.597 76.864 165.48 77.2852 165.187Z" fill="#E6E6E6"/>
<path d="M66.7715 172.768L66.9119 172.707C67.0279 172.64 67.1622 172.573 67.3087 172.499L68.7433 171.712C69.9642 171.04 71.6125 170.088 73.4195 169.001C75.2265 167.915 76.8442 166.889 78.0041 166.132L79.3716 165.229L79.7379 164.978L79.86 164.887C79.8114 164.903 79.766 164.928 79.7257 164.96L79.3472 165.192L77.9614 166.071C76.7893 166.81 75.1715 167.817 73.3646 168.91C71.5576 170.002 69.9032 170.955 68.7067 171.645L67.2843 172.463L66.8997 172.682L66.7715 172.768Z" fill="#263238"/>
<path d="M77.2857 166.712C77.0906 166.18 77.0906 165.596 77.2857 165.063C77.1006 165.297 77.0073 165.59 77.0232 165.888C77.0073 166.185 77.1006 166.478 77.2857 166.712Z" fill="#263238"/>
<path d="M74.3185 166.932C74.3727 166.792 74.3936 166.642 74.3795 166.493C74.3795 166.242 74.3795 166.047 74.3368 166.047C74.2789 166.186 74.2558 166.337 74.2696 166.486C74.2485 166.637 74.2653 166.79 74.3185 166.932Z" fill="#263238"/>
<path d="M73.4936 166.979C73.4936 166.979 73.5913 166.833 73.6523 166.631C73.704 166.512 73.725 166.382 73.7134 166.253C73.7134 166.253 73.6096 166.399 73.5486 166.601C73.4875 166.802 73.4631 166.967 73.4936 166.979Z" fill="#263238"/>
<path d="M72.6579 166.487C72.6579 166.517 72.8654 166.432 73.0913 166.298C73.3172 166.163 73.482 166.041 73.4698 166.011C73.3126 166.043 73.1645 166.11 73.0364 166.206C72.8105 166.334 72.6457 166.462 72.6579 166.487Z" fill="#263238"/>
<path d="M72.2129 166.059C72.3999 166.066 72.5847 166.017 72.744 165.919C73.0126 165.779 73.1896 165.595 73.1652 165.577C73.0018 165.645 72.8445 165.726 72.6952 165.821C72.5279 165.887 72.3665 165.966 72.2129 166.059Z" fill="#263238"/>
<path d="M74.1724 166.101C74.3535 166.031 74.5209 165.93 74.6669 165.802C74.8317 165.669 74.9849 165.522 75.1248 165.362C75.2104 165.269 75.2861 165.166 75.3506 165.057C75.389 164.988 75.3999 164.908 75.3812 164.831C75.3664 164.79 75.3402 164.754 75.3056 164.727C75.271 164.7 75.2295 164.683 75.1858 164.679C74.9412 164.7 74.7113 164.805 74.5355 164.976C74.3596 165.148 74.2486 165.375 74.2213 165.619C74.2046 165.762 74.2171 165.908 74.2579 166.046C74.2693 166.099 74.2922 166.149 74.3251 166.193C74.297 166.007 74.297 165.817 74.3251 165.631C74.3577 165.433 74.4467 165.249 74.5815 165.1C74.7355 164.918 74.9547 164.804 75.1919 164.782C75.3079 164.782 75.3323 164.905 75.2774 165.014C75.2178 165.117 75.1483 165.213 75.0698 165.301C74.9381 165.458 74.7953 165.605 74.6425 165.741C74.3495 165.973 74.1602 166.089 74.1724 166.101Z" fill="#263238"/>
<path d="M74.3128 166.046C74.3128 166.046 74.3128 165.881 74.1663 165.667C74.0712 165.548 73.9501 165.452 73.8122 165.386C73.7246 165.34 73.6272 165.316 73.5283 165.316C73.4294 165.316 73.332 165.34 73.2444 165.386C73.2041 165.429 73.1816 165.486 73.1816 165.545C73.1816 165.604 73.2041 165.661 73.2444 165.704C73.3024 165.778 73.3779 165.837 73.4642 165.875C73.5921 165.947 73.7299 166.001 73.8732 166.034C74.0048 166.078 74.1455 166.088 74.2822 166.064C74.2822 166.064 74.1296 166.034 73.8976 165.96C73.7634 165.918 73.6344 165.861 73.5131 165.789C73.3787 165.728 73.22 165.563 73.3299 165.466C73.4002 165.431 73.4775 165.413 73.5558 165.413C73.6341 165.413 73.7114 165.431 73.7817 165.466C73.9101 165.516 74.0251 165.595 74.1174 165.698C74.1927 165.808 74.2581 165.924 74.3128 166.046Z" fill="#263238"/>
<path d="M65.6861 170.564C65.6861 170.564 65.8936 170.411 66.266 170.24C66.7534 170.02 67.2918 169.938 67.8227 170.002C68.3469 170.074 68.8424 170.284 69.2573 170.613C69.5748 170.875 69.7213 171.089 69.7396 171.077C69.7579 171.064 69.7396 171.016 69.6419 170.918C69.5429 170.786 69.4304 170.666 69.3061 170.558C68.8983 170.189 68.3879 169.953 67.8427 169.881C67.2976 169.809 66.7434 169.904 66.2538 170.155C66.1041 170.226 65.9628 170.314 65.8326 170.417C65.6861 170.515 65.6494 170.558 65.6861 170.564Z" fill="#263238"/>
<path d="M64.5195 166.876C65.0772 167.977 65.701 169.043 66.3876 170.069C66.1302 169.508 65.8344 168.965 65.5024 168.445C65.2061 167.903 64.8779 167.379 64.5195 166.876Z" fill="#263238"/>
<path d="M70.2651 169.795C70.6838 169.656 71.0837 169.465 71.4555 169.227C71.8436 169.015 72.2044 168.757 72.5299 168.458C72.5299 168.458 72.0233 168.763 71.4006 169.136C70.7779 169.508 70.2468 169.764 70.2651 169.795Z" fill="#263238"/>
<path d="M68.7393 170.704C68.7393 170.734 68.843 170.783 68.9651 170.869C69.0872 170.954 69.1788 171.04 69.2032 171.021C69.2276 171.003 69.1666 170.875 69.0262 170.777C68.8858 170.679 68.7393 170.673 68.7393 170.704Z" fill="#263238"/>
<path d="M67.749 170.339C67.749 170.369 67.8406 170.418 67.9688 170.455C68.097 170.491 68.2069 170.485 68.2191 170.455C68.2313 170.424 68.1275 170.375 67.9993 170.339C67.8711 170.302 67.7612 170.308 67.749 170.339Z" fill="#263238"/>
<path d="M66.7432 170.508C66.7432 170.508 66.8652 170.466 67.0057 170.435C67.1461 170.405 67.2559 170.435 67.2682 170.392C67.2804 170.35 67.1522 170.295 66.9812 170.331C66.8103 170.368 66.7187 170.49 66.7432 170.508Z" fill="#263238"/>
<path d="M66.0717 170.705C66.0717 170.736 66.145 170.748 66.2243 170.736C66.3037 170.723 66.3586 170.687 66.3586 170.656C66.3586 170.626 66.2854 170.614 66.206 170.626C66.1267 170.638 66.0656 170.675 66.0717 170.705Z" fill="#263238"/>
<path d="M16.904 67.1973C16.6049 67.1973 13.3267 76.9159 16.4828 83.3564C16.8002 84.0035 19.2727 87.5503 19.2727 87.5503C28.0085 97.8612 36.8603 117.848 39.3266 123.098C44.3996 133.873 63.08 169.304 63.08 169.304L75.0818 162.437L57.5369 117.323L41.6097 76.6107L16.904 67.1973Z" fill="#263238"/>
<path d="M38.5459 108.876C38.5459 108.876 39.3945 112.985 39.834 112.741C41.0855 112.069 49.6748 108.864 49.6748 108.864L47.355 106.294L38.5459 108.876Z" fill="#455A64"/>
<path d="M41.085 112.069C41.085 112.069 42.6905 118.68 44.7478 118.314C46.8051 117.948 51.1394 115.787 51.1394 115.787L48.5327 109.261L41.085 112.069Z" fill="#455A64"/>
<path opacity="0.2" d="M41.0791 112.069L48.5452 109.261L48.9664 110.311L41.366 113.094L41.0791 112.069Z" fill="black"/>
<path d="M24.5537 93.5762C24.7349 93.8671 24.8941 94.1711 25.0299 94.4858C25.3412 95.0962 25.7441 95.9692 26.2508 96.9887C27.313 99.1437 28.7293 102.031 30.2982 105.224C31.8671 108.417 33.3017 111.365 34.2663 113.508C34.7547 114.582 35.1332 115.449 35.3896 116.06C35.5333 116.368 35.6557 116.687 35.7558 117.012C35.568 116.726 35.4066 116.424 35.2736 116.109C34.9683 115.468 34.5593 114.625 34.0526 113.606C32.9904 111.451 31.5741 108.563 30.0052 105.364C28.4363 102.165 27.0078 99.223 26.0372 97.0803C25.5549 96.0119 25.1703 95.139 24.9139 94.5346C24.7645 94.2269 24.6439 93.9061 24.5537 93.5762Z" fill="#455A64"/>
<path d="M74.1833 160.339C74.22 160.419 71.4545 161.89 67.9932 163.624C64.5318 165.357 61.7053 166.676 61.6626 166.621C61.6199 166.566 64.3975 165.077 67.8527 163.343C71.308 161.609 74.1467 160.26 74.1833 160.339Z" fill="#455A64"/>
<path d="M30.5708 25.3036C30.5708 25.3036 20.1928 21.1463 19.3198 21.7324C18.4468 22.3184 12.8855 31.4144 18.0317 32.1653C23.178 32.9162 31.1385 26.5795 31.1385 26.5795L30.5708 25.3036Z" fill="#FF725E"/>
<path d="M30.1569 25.6377C30.0419 25.7536 29.9076 25.8486 29.7601 25.9185C29.3785 26.1332 28.967 26.2896 28.5391 26.3824C27.0944 26.6625 25.598 26.4765 24.2658 25.8513C22.9531 25.2201 21.7496 24.3834 20.7007 23.3728C20.2374 22.9931 19.8177 22.5631 19.4492 22.0908C19.942 22.4262 20.4093 22.7975 20.8472 23.2019C21.9183 24.1431 23.1113 24.9357 24.394 25.5583C25.6778 26.1621 27.111 26.3744 28.5147 26.1688C29.0755 26.0364 29.6247 25.8588 30.1569 25.6377Z" fill="#263238"/>
<path d="M62.5303 45.8746L63.4155 44.0432C64.0302 43.0785 64.5495 42.0562 64.9661 40.9908C65.1801 40.4577 65.3019 39.8921 65.3262 39.3181C65.3875 38.608 65.3484 37.8929 65.2102 37.1937C65.021 36.5832 65.6925 36.0338 66.1687 36.394C66.6449 36.7542 67.2126 38.4635 66.9257 40.5574C66.6387 42.6513 69.0684 40.3803 69.978 39.5684L72.2429 47.358L66.5899 51.149L62.5303 45.8746Z" fill="#E6BBAC"/>
<path d="M39.3313 26.4316C38.6719 26.4316 37.8906 31.1994 37.2312 39.7582C36.4804 49.4708 36.5414 59.2932 39.2336 65.4407C39.4838 66.0996 39.8618 66.7025 40.3458 67.2148C40.8298 67.7271 41.4103 68.1387 42.054 68.4259C49.0072 71.2951 68.1882 50.7222 68.1882 50.7222L63.4692 42.4382L49.9595 53.3473C49.9595 53.3473 48.6104 42.31 48.8729 37.2248C49.0682 33.3727 45.2101 26.4744 39.3313 26.4316Z" fill="#FF725E"/>
<g opacity="0.2">
<path d="M39.3342 26.4297C38.6749 26.4297 37.8935 31.1975 37.2342 39.7562C36.4833 49.4688 36.5444 59.2913 39.2365 65.4387C39.4867 66.0976 39.8647 66.7005 40.3487 67.2128C40.8327 67.7251 41.4133 68.1367 42.0569 68.4239C49.0101 71.2931 68.1911 50.7203 68.1911 50.7203L63.4722 42.4362L49.9625 53.3453C49.9625 53.3453 48.6133 42.308 48.8758 37.2228C49.0712 33.3707 45.213 26.4724 39.3342 26.4297Z" fill="black"/>
</g>
<path d="M47.9338 92.1854L54.0995 90.1342L45.4308 31.4619L42 78.462L47.9338 92.1854Z" fill="#FF725E"/>
<path opacity="0.2" d="M47.9338 92.1854L54.0995 90.1342L45.4308 31.4619L42 78.462L47.9338 92.1854Z" fill="black"/>
<path d="M51.9876 75.818C51.8917 75.5073 51.8243 75.1886 51.7861 74.8657C51.6762 74.2552 51.5358 73.3578 51.3649 72.2467C51.0353 70.0368 50.6323 66.9723 50.2905 63.572C49.9486 60.1717 49.741 57.0888 49.619 54.8545C49.564 53.7373 49.5274 52.8338 49.5091 52.205C49.4787 51.8822 49.4787 51.5572 49.5091 51.2344C49.5722 51.5525 49.611 51.8749 49.6251 52.1989C49.68 52.8765 49.7533 53.7678 49.8387 54.8361C50.0158 57.0705 50.26 60.1472 50.6018 63.5415C50.9437 66.9357 51.31 70.0002 51.5847 72.2162C51.7129 73.2846 51.8228 74.1697 51.9021 74.8474C51.9571 75.168 51.9857 75.4927 51.9876 75.818Z" fill="#263238"/>
<path d="M65.9673 53.0431C65.6293 52.698 65.3323 52.3149 65.0821 51.9016C64.5693 51.1629 63.8978 50.1312 63.1958 48.9591C62.4937 47.787 61.8955 46.7065 61.4864 45.9068C61.2298 45.4916 61.0248 45.0468 60.876 44.582C61.1762 44.9634 61.4399 45.3722 61.6635 45.803C62.1824 46.6759 62.7867 47.6832 63.446 48.8004L65.2775 51.7856C65.549 52.1806 65.7801 52.6019 65.9673 53.0431Z" fill="#263238"/>
<path d="M45.3332 36.3996C44.6362 36.4792 43.9339 36.5016 43.2332 36.4668H43.0195L43.1111 36.2715C43.2576 35.9357 43.4224 35.5938 43.5812 35.2336L43.6972 34.9895L43.8559 35.2153L44.2466 35.777L44.332 35.8991H44.0573L44.8387 34.3302L45.0341 33.9395L45.1012 34.3668C45.2345 35.0307 45.3121 35.7045 45.3332 36.3813C45.1275 35.7361 44.9583 35.0799 44.8265 34.4156L45.089 34.4522L44.3443 36.0395L44.2222 36.2837L44.0695 36.0578L43.9841 35.9418C43.8559 35.7464 43.7216 35.5572 43.5995 35.3741H43.8681C43.6911 35.7281 43.5262 36.07 43.3614 36.3935L43.2393 36.1921C43.9403 36.2261 44.6392 36.2954 45.3332 36.3996Z" fill="#263238"/>
<path d="M45.5969 36.9031C45.5969 36.9886 45.0658 37.0618 44.4126 37.0618C43.7594 37.0618 43.2344 36.9886 43.2344 36.9031C43.2344 36.8176 43.7655 36.7383 44.4126 36.7383C45.0597 36.7383 45.5969 36.8115 45.5969 36.9031Z" fill="#263238"/>
<path d="M26.5124 27.6539C26.5124 27.6539 20.3771 30.462 17.3553 35.0711C14.3335 39.6801 15.8841 80.7464 15.8841 80.7464L45.0218 81.6744C45.0218 81.6744 42.5799 27.5989 41.0904 27.0129C37.3482 25.5111 32.7208 25.5111 26.5124 27.6539Z" fill="#F0F0F0"/>
<path d="M14.6513 42.4447C14.6208 43.8366 12.417 93.9745 12.417 93.9745L36.03 93.9379L29.8215 26.4932C29.8215 26.4932 14.9565 28.9045 14.6513 42.4447Z" fill="#FF725E"/>
<path d="M29.901 81.8498C27.9486 82.0251 25.9882 82.0964 24.0282 82.0635C22.0682 82.1371 20.1056 82.1025 18.1494 81.9597C20.1018 81.7842 22.0622 81.7129 24.0221 81.746C25.9822 81.6761 27.9446 81.7107 29.901 81.8498Z" fill="#263238"/>
<path d="M33.0135 93.7911C32.9667 93.4758 32.9422 93.1575 32.9402 92.8388C32.9402 92.1672 32.8853 91.2882 32.8486 90.232C32.7693 88.0344 32.6472 84.9942 32.4518 81.6427C32.2565 78.2913 32.0184 75.2633 31.8414 73.0656C31.7559 72.0156 31.6826 71.1427 31.6338 70.4711C31.5898 70.1537 31.5755 69.8328 31.5911 69.5127C31.6744 69.8225 31.7295 70.1392 31.7559 70.4589C31.8414 71.0694 31.9451 71.9546 32.0611 73.0473C32.2992 75.2389 32.5678 78.2669 32.7693 81.6244C32.9707 84.982 33.0501 88.0222 33.0684 90.226C33.0684 91.3309 33.0684 92.2222 33.0684 92.8327C33.0809 93.1532 33.0625 93.4741 33.0135 93.7911Z" fill="#263238"/>
<path d="M33.6073 83.723C33.5645 83.723 33.7477 83.4849 34.0956 83.6131C34.2137 83.6487 34.3171 83.7213 34.3906 83.8203C34.4642 83.9192 34.5039 84.0392 34.5039 84.1625C34.5039 84.2858 34.4642 84.4058 34.3906 84.5048C34.3171 84.6037 34.2137 84.6764 34.0956 84.712C33.972 84.7694 33.8327 84.7837 33.6999 84.7527C33.5671 84.7217 33.4486 84.6472 33.3631 84.541C33.2987 84.4547 33.2566 84.3538 33.2406 84.2473C33.2247 84.1408 33.2353 84.032 33.2715 83.9306C33.3814 83.5948 33.6439 83.5582 33.6439 83.5948C33.6439 83.6314 33.5096 83.7413 33.4913 83.9794C33.4736 84.0443 33.4748 84.1128 33.4947 84.1771C33.5146 84.2413 33.5524 84.2985 33.6036 84.342C33.6549 84.3856 33.7174 84.4136 33.784 84.4229C33.8506 84.4322 33.9185 84.4224 33.9796 84.3945C34.0448 84.3753 34.1023 84.3361 34.1439 84.2824C34.1856 84.2287 34.2093 84.1633 34.2116 84.0954C34.2038 84.034 34.1822 83.9752 34.1483 83.9233C34.1145 83.8715 34.0693 83.8281 34.0163 83.7963C33.7965 83.6803 33.6317 83.7657 33.6073 83.723Z" fill="#263238"/>
<path d="M32.9335 71.8501C32.9335 71.8928 32.8175 71.9599 32.7931 72.1492C32.7686 72.3384 32.8785 72.5643 33.1349 72.4788C33.1826 72.4652 33.2256 72.4387 33.2591 72.4022C33.2926 72.3657 33.3154 72.3206 33.3249 72.2719C33.3344 72.2232 33.3302 72.1729 33.3128 72.1265C33.2955 72.08 33.2656 72.0393 33.2265 72.0088C33.0922 71.8745 32.9457 71.8928 32.9335 71.8501C32.9213 71.8073 33.0922 71.6791 33.3547 71.8501C33.4469 71.8989 33.5221 71.9746 33.5701 72.0673C33.6181 72.1599 33.6367 72.265 33.6235 72.3685C33.6102 72.472 33.5657 72.569 33.4958 72.6465C33.426 72.7241 33.3342 72.7784 33.2326 72.8024C33.1355 72.8429 33.0284 72.8525 32.9257 72.83C32.823 72.8076 32.7296 72.7541 32.6583 72.6768C32.587 72.5995 32.5412 72.5021 32.5271 72.3979C32.513 72.2938 32.5312 72.1877 32.5794 72.0942C32.7198 71.8012 32.9396 71.8073 32.9335 71.8501Z" fill="#263238"/>
<path d="M30.5357 55.7829C30.5109 55.687 30.4966 55.5888 30.493 55.4899C30.493 55.264 30.4441 54.9893 30.4136 54.6596C30.3586 53.8843 30.2793 52.8282 30.1816 51.6073C29.9924 49.0128 29.7115 45.4354 29.3575 41.4796C29.0034 37.5237 28.6432 33.9586 28.3685 31.3702C28.2403 30.1493 28.1304 29.0809 28.0511 28.3178C28.0511 27.9882 27.9961 27.7074 27.9778 27.4815C27.9644 27.3843 27.9644 27.2857 27.9778 27.1885C28.016 27.2797 28.0387 27.3767 28.045 27.4754C28.0816 27.7013 28.1304 27.9699 28.1793 28.2995C28.2892 29.0199 28.4357 30.0638 28.6005 31.3519C28.9301 33.9342 29.327 37.5054 29.681 41.4613C30.0351 45.4171 30.2915 49.0006 30.4136 51.5951C30.4807 52.8954 30.5235 53.9454 30.5418 54.6779C30.5418 55.0076 30.5418 55.2884 30.5418 55.5143C30.5528 55.6036 30.5507 55.6941 30.5357 55.7829Z" fill="#263238"/>
<path d="M29.9616 26.1201C29.3833 26.3839 28.7852 26.6023 28.1729 26.7733C26.7179 27.2373 25.291 27.7857 23.8997 28.4155C22.5153 29.0523 21.2236 29.8737 20.0598 30.8574C19.1807 31.6266 18.729 32.2004 18.6862 32.1638C18.6435 32.1271 18.7656 31.9928 18.9671 31.7303C19.2528 31.3584 19.5693 31.0113 19.9133 30.6925C21.0494 29.637 22.348 28.7713 23.7593 28.1286C25.1633 27.489 26.6169 26.9643 28.1058 26.5597C28.7097 26.3568 29.3309 26.2097 29.9616 26.1201Z" fill="#263238"/>
<path d="M47.0791 41.4561L57.799 28.502L58.7086 29.3688L48.1047 42.4207L47.0791 41.4561Z" fill="#263238"/>
<path d="M47.9346 40.7724C47.9346 40.7724 49.6256 35.9863 50.0041 34.9607C50.3825 33.9351 51.0296 32.1647 51.286 32.122C51.5424 32.0793 52.507 32.1953 51.3471 35.2476C50.1872 38.3 52.8427 36.377 52.8427 36.377L55.1747 33.7092C55.1747 33.7092 57.5128 39.936 56.3957 41.8285C55.4481 43.338 54.3783 44.7673 53.1968 46.1018L47.9346 40.7724Z" fill="#E6BBAC"/>
<path d="M53.5384 45.7217L50.1992 49.354L45.4619 43.2981L47.9343 40.7891L53.5384 45.7217Z" fill="#E6BBAC"/>
<path d="M20.1626 31.5037C19.4666 31.6746 14.9308 36.0639 14.8637 45.4468C14.8087 52.9007 15.3826 69.4627 20.4739 71.9229C22.7815 73.0401 26.2795 73.0157 29.3196 71.0561C37.8662 65.513 53.0608 47.669 53.0608 47.669L46.2724 40.4349C46.2724 40.4349 28.6359 58.3766 27.885 57.7173C26.7495 56.7283 26.9266 47.4126 25.962 38.9392C25.2783 32.92 24.4725 30.4293 20.1626 31.5037Z" fill="#FF725E"/>
<path d="M33.8387 67.5887C33.7639 67.6952 33.678 67.7934 33.5823 67.8817C33.3257 68.1563 33.0547 68.4171 32.7704 68.6631C31.725 69.5711 30.5655 70.3386 29.3213 70.9463C28.4561 71.3602 27.5496 71.6815 26.6169 71.9047C25.5372 72.1761 24.4137 72.2259 23.3142 72.0512C22.1042 71.8082 20.9772 71.2573 20.0421 70.4518C19.0454 69.5908 18.2263 68.5436 17.6308 67.3689C16.5218 65.104 15.8527 62.6492 15.659 60.1348C15.3598 57.8517 15.1462 55.7822 15.0485 54.0301C14.9508 52.2781 14.8776 50.8862 14.8653 49.9095C14.8653 49.4211 14.8653 49.0426 14.8653 48.7862C14.8509 48.6564 14.8509 48.5253 14.8653 48.3955C14.8936 48.5238 14.9079 48.6548 14.9081 48.7862C14.9081 49.0711 14.9264 49.4435 14.963 49.9034C15.0119 50.8801 15.0851 52.2842 15.2438 54.0118C15.4026 55.7395 15.6345 57.8028 15.9459 60.0799C16.0833 61.2706 16.2871 62.4527 16.5563 63.6206C16.861 64.8668 17.3139 66.0719 17.9055 67.2102C18.4838 68.3476 19.2755 69.3631 20.2375 70.2015C21.1279 70.9785 22.205 71.5107 23.3631 71.746C24.4218 71.9253 25.5059 71.8879 26.5497 71.6361C27.4658 71.4208 28.3561 71.1076 29.2053 70.7021C30.4455 70.1219 31.61 69.3921 32.6727 68.5288C33.4419 67.9611 33.8143 67.5643 33.8387 67.5887Z" fill="#263238"/>
<path d="M46.2737 40.4365C46.1771 40.572 46.071 40.7005 45.9562 40.8211C45.7365 41.0592 45.419 41.4316 44.9917 41.8772C44.1493 42.7868 42.8978 44.0749 41.3289 45.656C39.76 47.2372 37.8309 49.093 35.6698 51.1503L32.2451 54.3491C31.0241 55.4419 29.8032 56.5957 28.4419 57.7067L28.2099 57.896V57.5846C28.1671 56.9253 28.1244 56.2233 28.0878 55.5151C27.8741 51.8096 27.6727 48.2811 27.4773 45.0639C27.3674 43.4583 27.3491 41.9261 27.1904 40.5159C27.0712 39.2054 26.722 37.9263 26.1587 36.7371C25.6912 35.7617 24.9833 34.9214 24.1014 34.2952C23.4238 33.8378 22.6437 33.5548 21.8305 33.4711C21.1327 33.4058 20.4294 33.5084 19.7793 33.7702C19.9348 33.6703 20.1032 33.5923 20.2799 33.5382C20.7822 33.3682 21.3143 33.3038 21.8427 33.349C22.6829 33.4129 23.4935 33.688 24.1991 34.1487C25.1221 34.7788 25.8665 35.6368 26.3602 36.6394C26.9516 37.8478 27.3216 39.1525 27.4529 40.4915C27.6238 41.92 27.6544 43.4522 27.7642 45.0578C27.9596 48.2688 28.1672 51.7729 28.3747 55.509C28.4113 56.2172 28.4541 56.9192 28.4907 57.5785L28.2404 57.4564C30.8837 55.2526 33.2768 52.9634 35.4623 50.9488C37.6477 48.9343 39.5646 47.0723 41.164 45.5156C42.7635 43.9589 44.0394 42.6953 44.9062 41.8101L45.9074 40.7723C46.0206 40.651 46.1431 40.5387 46.2737 40.4365Z" fill="#263238"/>
<path d="M50.0635 50.6677C49.6756 50.3624 49.3234 50.0143 49.0135 49.6299C48.4031 48.9645 47.5606 48.0305 46.651 46.9866C45.7414 45.9427 44.9295 44.9843 44.3556 44.2761C44.0179 43.9166 43.7229 43.5192 43.4766 43.0918C43.8606 43.3971 44.2106 43.743 44.5205 44.1235C45.1309 44.795 45.9795 45.729 46.8891 46.779C47.7987 47.829 48.6106 48.7814 49.1845 49.4895C49.5195 49.8491 49.8143 50.2442 50.0635 50.6677Z" fill="#263238"/>
<path d="M26.7207 61.7728C26.9305 60.2332 27.4834 58.7603 28.3385 57.4629C28.1559 58.2109 27.9045 58.9405 27.5876 59.6423C27.3657 60.3779 27.0754 61.0912 26.7207 61.7728Z" fill="#263238"/>
<path d="M25.1953 60.5763C26.1858 59.388 27.3339 58.3405 28.6078 57.4629C28.155 58.0921 27.6167 58.6551 27.0084 59.1356C26.4712 59.6947 25.8614 60.1793 25.1953 60.5763Z" fill="#263238"/>
<path d="M52.868 48.0959C52.5165 47.7583 52.1977 47.3884 51.9157 46.991C51.3479 46.2889 50.5604 45.3366 49.6508 44.311C48.7412 43.2854 47.8804 42.3941 47.2517 41.7531C46.8893 41.4265 46.5582 41.0668 46.2627 40.6787C46.6828 40.9313 47.0685 41.237 47.4104 41.5883C48.2776 42.3832 49.1028 43.2228 49.8828 44.1034C50.6683 44.9787 51.406 45.8958 52.0927 46.8506C52.4036 47.2306 52.6641 47.6492 52.868 48.0959Z" fill="#263238"/>
<mask id="mask0_2443_12021" style="mask-type:luminance" maskUnits="userSpaceOnUse" x="65" y="27" width="16" height="147">
<path d="M65.5957 27.9512C65.5957 27.9512 75.174 78.4981 75.1801 78.9865C75.1862 79.4748 74.4475 120.81 75.1251 127.421C75.8027 134.033 78.8673 174 78.8673 174H80.8574L78.4156 105.994L78.3667 73.7364L70.3329 33.4088L65.5957 27.9512Z" fill="white"/>
</mask>
<g mask="url(#mask0_2443_12021)">
<path d="M65.5947 27.9512C65.5947 27.9512 75.173 78.4981 75.1791 78.9865C75.1852 79.4748 74.4465 120.81 75.1241 127.421C75.8018 134.033 78.9457 174 78.9457 174H80.948L78.4268 105.994L78.3657 73.7364L70.332 33.4088L65.5947 27.9512Z" fill="#263238"/>
<path d="M78.9156 128.63C78.9644 128.63 78.7996 129.356 78.6287 130.529C78.4081 132.05 78.3243 133.589 78.3784 135.125C78.4423 136.665 78.6467 138.195 78.9888 139.698C79.2452 140.852 79.465 141.529 79.4161 141.566C79.3204 141.422 79.2483 141.263 79.2025 141.096C79.0351 140.654 78.8905 140.203 78.769 139.747C78.3636 138.242 78.1302 136.695 78.0731 135.138C78.0153 133.581 78.13 132.023 78.415 130.492C78.531 129.881 78.647 129.436 78.7446 129.118C78.8423 128.801 78.8912 128.624 78.9156 128.63Z" fill="#455A64"/>
<path d="M68.2995 50.8622C67.9101 50.5805 67.5768 50.2285 67.3167 49.8244C66.6435 48.8982 66.0512 47.9158 65.5463 46.8881C64.9358 45.7037 64.3803 44.6232 64.0018 43.8357C63.7688 43.4222 63.5824 42.984 63.4463 42.5293C63.7422 42.9076 63.996 43.317 64.2033 43.7502C64.6306 44.5133 65.2106 45.5816 65.8271 46.7598C66.3329 47.7732 66.8912 48.7594 67.4998 49.7145C67.9821 50.4227 68.3362 50.8317 68.2995 50.8622Z" fill="#263238"/>
<path d="M69.8057 51.0947C69.879 51.1579 69.9446 51.2297 70.001 51.3084L70.5199 51.9738C70.9595 52.5843 71.5943 53.3962 72.3147 54.4889C73.1721 55.759 73.9021 57.1107 74.4941 58.5241C75.2008 60.2707 75.5735 62.1344 75.5929 64.0184C75.5929 67.9986 75.5563 71.5882 75.5258 74.1949C75.4952 75.4586 75.4769 76.5025 75.4586 77.2473C75.4586 77.583 75.4586 77.8577 75.4281 78.0897C75.431 78.1887 75.4186 78.2875 75.3915 78.3827C75.3789 78.2855 75.3789 78.187 75.3915 78.0897C75.3915 77.8577 75.3915 77.583 75.3915 77.2473C75.3915 76.472 75.3915 75.4158 75.3548 74.1949C75.3548 71.5455 75.3548 67.9742 75.3548 64.0245C75.3389 62.1705 74.983 60.3352 74.3048 58.6096C73.7299 57.207 73.0269 55.8603 72.2048 54.5866C71.5089 53.4878 70.9045 52.6209 70.4955 52.0226C70.2439 51.7301 70.0133 51.42 69.8057 51.0947Z" fill="#455A64"/>
<path d="M78.3346 99.6629C78.2879 99.5689 78.257 99.4678 78.243 99.3638C78.1942 99.1257 78.127 98.8387 78.0477 98.4908C77.889 97.7277 77.6631 96.6289 77.4067 95.2614C76.708 91.7036 76.2187 88.1078 75.9415 84.4927C75.6583 80.8673 75.812 77.2211 76.3994 73.6324C76.5813 72.5473 76.8239 71.4733 77.1259 70.4153C77.2235 70.0368 77.3273 69.7499 77.3884 69.5545C77.4168 69.455 77.4556 69.3588 77.5043 69.2676C77.442 69.6655 77.3543 70.059 77.2418 70.4458C77.0648 71.1967 76.8328 72.2772 76.6314 73.6691C76.12 77.2451 75.9992 80.8661 76.2712 84.4683C76.5581 88.6927 77.1869 92.4838 77.6386 95.2187C77.8645 96.5556 78.0477 97.6605 78.182 98.4664C78.2369 98.8204 78.2858 99.1135 78.3224 99.3515C78.3397 99.4544 78.3438 99.559 78.3346 99.6629Z" fill="#455A64"/>
<path d="M75.1182 124.508C75.1067 124.407 75.1067 124.305 75.1182 124.203C75.1141 123.909 75.1325 123.615 75.1732 123.324C75.3465 122.258 75.6648 121.221 76.1194 120.241C76.8189 118.821 77.4305 117.359 77.9508 115.864C78.4024 113.987 78.4771 112.038 78.1706 110.132C77.9142 108.087 77.67 106.133 77.4502 104.351C77.2305 102.568 77.0656 100.957 76.8397 99.6379C76.7134 98.5831 76.3019 97.5827 75.6493 96.7443C75.3814 96.4642 75.08 96.2182 74.752 96.0117C74.8509 96.0416 74.947 96.0804 75.0389 96.1277C75.2985 96.2681 75.5352 96.4472 75.7409 96.6588C76.4485 97.4913 76.9057 98.5073 77.0595 99.5891C77.3159 100.938 77.4868 102.538 77.7371 104.314C77.9874 106.091 78.2438 108.038 78.488 110.101C78.8004 112.046 78.7132 114.034 78.2316 115.944C77.7056 117.448 77.0774 118.914 76.3514 120.333C75.8846 121.29 75.538 122.301 75.3197 123.342C75.1426 124.087 75.1549 124.508 75.1182 124.508Z" fill="#455A64"/>
<path d="M75.1972 103.154C75.2944 103.312 75.3685 103.482 75.4169 103.661C75.5901 104.134 75.7348 104.617 75.8504 105.108C76.2354 106.725 76.4058 108.385 76.3571 110.047C76.3064 111.703 76.0354 113.345 75.5513 114.93C75.4072 115.41 75.236 115.88 75.0385 116.34C74.977 116.516 74.8929 116.682 74.7882 116.835C74.7332 116.835 75.014 116.084 75.3376 114.863C76.1747 111.686 76.2749 108.36 75.6306 105.138C75.3803 103.917 75.1483 103.173 75.1972 103.154Z" fill="#455A64"/>
<path d="M79.0625 153.544C79.0476 153.426 79.0476 153.307 79.0625 153.19C79.0625 152.927 79.1113 152.579 79.1479 152.189C79.2426 150.969 79.2324 149.744 79.1174 148.526C79.0295 147.686 78.8619 146.856 78.6168 146.047C78.314 145.122 77.9531 144.217 77.5363 143.337C77.0748 142.355 76.6672 141.348 76.3153 140.321C75.9572 139.202 75.7198 138.048 75.6072 136.878C75.4148 134.634 75.536 132.374 75.9674 130.163C76.3124 128.361 76.7505 126.578 77.2799 124.821C77.7255 123.319 78.104 122.111 78.3665 121.274L78.6657 120.316C78.6928 120.201 78.7359 120.09 78.7938 119.986C78.7866 120.105 78.764 120.222 78.7267 120.334C78.6656 120.591 78.5802 120.914 78.4825 121.311C78.2383 122.196 77.9087 123.405 77.4997 124.882C77.0906 126.36 76.6084 128.185 76.2787 130.218C75.8714 132.411 75.7605 134.649 75.9491 136.872C76.0565 138.018 76.2857 139.15 76.6328 140.248C76.9851 141.266 77.3927 142.265 77.8537 143.239C78.2647 144.134 78.6195 145.053 78.916 145.992C79.1588 146.819 79.3183 147.668 79.3921 148.526C79.4898 149.764 79.4652 151.01 79.3188 152.244C79.2639 152.677 79.2151 153.013 79.1723 153.245C79.1478 153.348 79.1109 153.449 79.0625 153.544Z" fill="#455A64"/>
<path d="M80.1546 152.249C80.2461 152.286 79.4952 154.166 79.013 156.602C78.5307 159.037 78.4757 161.064 78.4025 161.064C78.3205 160.626 78.302 160.177 78.3476 159.733C78.428 157.585 78.8547 155.464 79.6112 153.452C79.735 153.027 79.9179 152.622 80.1546 152.249Z" fill="#455A64"/>
<path d="M75.1599 53.9884C75.1599 53.9884 74.9829 53.8174 74.7143 53.4695C74.4457 53.1215 74.0672 52.6026 73.6215 51.9494C71.3231 48.5271 69.5015 44.8077 68.2067 40.8938C67.9625 40.1429 67.7855 39.5324 67.6756 39.1051C67.604 38.8872 67.5569 38.662 67.5352 38.4336C67.6421 38.6274 67.7281 38.832 67.7916 39.0441C67.9625 39.5202 68.1762 40.1063 68.402 40.7961C69.1048 42.719 69.9076 44.6039 70.8073 46.443C71.7095 48.2798 72.7058 50.0688 73.7925 51.8029L74.7997 53.3718C74.9451 53.5615 75.0661 53.7686 75.1599 53.9884Z" fill="#455A64"/>
<path d="M72.8899 39.7748C72.5189 39.4672 72.1813 39.1214 71.8827 38.7432L69.569 36.167L67.2614 33.5908C66.9182 33.2512 66.6113 32.8768 66.3457 32.4736C66.7402 32.7499 67.1008 33.0716 67.4201 33.4321C68.0306 34.0425 68.9036 34.946 69.8071 35.9533C70.7106 36.9606 71.4981 37.9007 72.0536 38.5966C72.375 38.9573 72.6555 39.3525 72.8899 39.7748Z" fill="#455A64"/>
</g>
<path d="M72.0475 39.8433C72.0475 39.8433 69.2759 44.0311 70.3565 44.2264C71.437 44.4218 73.067 40.9177 72.9571 40.3622C72.8472 39.8066 72.0475 39.8433 72.0475 39.8433Z" fill="#E6BBAC"/>
<path d="M72.6648 41.6819C72.6648 41.6819 69.8994 45.8698 70.98 46.0712C72.0605 46.2727 73.6843 42.7625 73.5805 42.2069C73.4768 41.6514 72.6648 41.6819 72.6648 41.6819Z" fill="#E6BBAC"/>
<path d="M73.483 44.2329C73.483 44.2329 70.7115 48.4207 71.792 48.6161C72.8726 48.8114 74.5025 45.3073 74.3926 44.7518C74.2827 44.1963 73.483 44.2329 73.483 44.2329Z" fill="#E6BBAC"/>
<path d="M27.1487 9.24902C27.6066 12.1549 27.5822 14.7005 26.1659 16.5747C25.8568 16.9386 25.5713 17.3219 25.3112 17.7223C25.1834 17.9245 25.098 18.1504 25.0602 18.3865C25.0225 18.6227 25.0331 18.864 25.0914 19.0959C25.1599 19.2994 25.2808 19.4811 25.4419 19.623C25.603 19.7648 25.7987 19.8617 26.0092 19.9038C26.2197 19.9458 26.4375 19.9317 26.6408 19.8628C26.8441 19.7938 27.0256 19.6725 27.167 19.511C27.1204 19.8398 27.1728 20.1751 27.3173 20.4741C27.4619 20.773 27.6923 21.0222 27.979 21.1898C28.1252 21.2589 28.2853 21.2934 28.447 21.2908C28.6087 21.2882 28.7676 21.2485 28.9115 21.1748C29.0554 21.1011 29.1805 20.9953 29.2771 20.8656C29.3736 20.7359 29.4391 20.5857 29.4685 20.4267C29.4685 20.4267 29.09 21.8919 30.7749 21.6477L29.5906 11.5505L27.1487 9.24902Z" fill="#263238"/>
<path d="M34.7424 31.559C35.4028 31.5609 36.0562 31.4237 36.6601 31.1565C37.264 30.8893 37.8049 30.4979 38.2477 30.008C38.6905 29.518 39.0252 28.9403 39.2301 28.3125C39.435 27.6846 39.5054 27.0207 39.4369 26.3639C39.2782 24.856 39.1439 23.629 39.1439 23.629C39.1439 23.629 42.8616 23.0491 42.9044 19.3557C42.9471 15.6624 42.2939 7.10358 42.2939 7.10358C40.1814 6.19486 37.8646 5.86682 35.5829 6.15337C33.3012 6.43993 31.1374 7.33067 29.3153 8.73353L28.7598 9.16086L30.054 27.2186C30.1447 28.3997 30.6781 29.503 31.5474 30.3078C32.4167 31.1125 33.5578 31.5594 34.7424 31.559Z" fill="#E6BBAC"/>
<path d="M41.3105 13.7942C41.2324 13.7224 41.1773 13.6293 41.1521 13.5263C41.1269 13.4233 41.1327 13.3152 41.1688 13.2156C41.2049 13.1159 41.2697 13.0292 41.355 12.9662C41.4403 12.9033 41.5423 12.867 41.6482 12.8619C41.754 12.8569 41.8591 12.8832 41.95 12.9377C42.0409 12.9921 42.1137 13.0723 42.1592 13.168C42.2047 13.2638 42.2208 13.3708 42.2056 13.4757C42.1903 13.5806 42.1444 13.6787 42.0736 13.7575C41.9768 13.8628 41.8424 13.9257 41.6996 13.9326C41.5567 13.9395 41.4169 13.8897 41.3105 13.7942Z" fill="#263238"/>
<path d="M42.3426 12.6174C42.2816 12.6846 41.9153 12.4038 41.4086 12.4038C40.9019 12.4038 40.5234 12.6663 40.4624 12.5991C40.4013 12.532 40.4929 12.4526 40.6577 12.3305C40.8742 12.1704 41.1363 12.084 41.4055 12.084C41.6748 12.084 41.9369 12.1704 42.1534 12.3305C42.3121 12.477 42.367 12.593 42.3426 12.6174Z" fill="#263238"/>
<path d="M36.4401 13.3921C36.5307 13.4476 36.6027 13.5288 36.6472 13.6253C36.6917 13.7218 36.7065 13.8293 36.6899 13.9343C36.6732 14.0392 36.6258 14.1369 36.5537 14.2149C36.4815 14.2929 36.3878 14.3478 36.2845 14.3725C36.1812 14.3973 36.0728 14.3908 35.9731 14.354C35.8735 14.3172 35.7869 14.2517 35.7245 14.1657C35.6621 14.0797 35.6266 13.9771 35.6225 13.8709C35.6184 13.7647 35.6458 13.6597 35.7014 13.5691C35.7377 13.5084 35.7858 13.4555 35.8428 13.4136C35.8998 13.3717 35.9647 13.3417 36.0335 13.3252C36.1023 13.3087 36.1737 13.3061 36.2435 13.3176C36.3133 13.3291 36.3802 13.3544 36.4401 13.3921Z" fill="#263238"/>
<path d="M36.7801 13.0673C36.7191 13.1344 36.3528 12.8536 35.8461 12.8475C35.3394 12.8414 34.9609 13.11 34.906 13.049C34.851 12.9879 34.906 12.9024 35.0952 12.7804C35.3123 12.6202 35.5764 12.5365 35.8461 12.5423C36.1159 12.5431 36.3778 12.6333 36.5909 12.7987C36.7496 12.9208 36.8045 13.0429 36.7801 13.0673Z" fill="#263238"/>
<path d="M38.8275 17.2921C39.0926 17.1878 39.3731 17.128 39.6577 17.1151C39.792 17.1151 39.8958 17.0724 39.9019 16.9991C39.9073 16.8669 39.8756 16.7357 39.8103 16.6206L39.4013 15.5767C39.0176 14.6973 38.7251 13.7809 38.5283 12.8418C38.9971 13.6787 39.3815 14.56 39.676 15.4729C39.8103 15.8392 39.9324 16.1811 40.0606 16.5229C40.1458 16.6949 40.1716 16.8903 40.1339 17.0785C40.1148 17.1298 40.0838 17.176 40.0435 17.2131C40.0032 17.2502 39.9546 17.2773 39.9019 17.2921C39.829 17.3157 39.7525 17.326 39.676 17.3226C39.3936 17.3621 39.1064 17.3518 38.8275 17.2921Z" fill="#263238"/>
<path d="M37.1719 17.8614C36.6347 17.5439 38.6371 18.6428 39.681 18.5879C39.507 18.8572 39.2471 19.0598 38.9434 19.1628C38.6398 19.2659 38.3103 19.2633 38.0083 19.1556C36.8972 18.7466 37.1719 17.8614 37.1719 17.8614Z" fill="white"/>
<path d="M39.1372 23.575C37.4204 23.606 35.7332 23.1258 34.29 22.1953C34.29 22.1953 35.4316 24.8753 39.1433 24.5395L39.1372 23.575Z" fill="#D88876"/>
<path d="M28.7536 12.7323C28.6742 12.7323 25.982 12.5248 26.4277 15.6565C26.8733 18.7882 29.8952 17.3048 29.883 17.2132C29.8707 17.1216 28.7536 12.7323 28.7536 12.7323Z" fill="#E6BBAC"/>
<path d="M28.7715 16.2489C28.7715 16.2489 28.7165 16.2977 28.6311 16.3527C28.5108 16.4272 28.3661 16.4514 28.2281 16.4198C28.0077 16.3197 27.8176 16.1631 27.6771 15.9658C27.5367 15.7686 27.4509 15.5377 27.4284 15.2966C27.3826 15.0281 27.3972 14.7528 27.4712 14.4907C27.4873 14.3895 27.5272 14.2935 27.5877 14.2107C27.6482 14.1279 27.7276 14.0607 27.8191 14.0146C27.8804 13.9902 27.948 13.9872 28.0111 14.0061C28.0743 14.0249 28.1292 14.0645 28.1671 14.1184C28.222 14.2038 28.2098 14.2649 28.2281 14.271C28.2465 14.2771 28.2831 14.2099 28.2281 14.0817C28.2016 14.0055 28.1471 13.9422 28.0755 13.9047C28.0291 13.8771 27.9774 13.8595 27.9238 13.8532C27.8701 13.8469 27.8158 13.852 27.7642 13.8681C27.6389 13.9115 27.5269 13.9866 27.4392 14.0861C27.3515 14.1856 27.291 14.306 27.2636 14.4358C27.1669 14.7247 27.1439 15.0331 27.1965 15.3332C27.2247 15.6108 27.3333 15.8742 27.5089 16.0911C27.6846 16.308 27.9197 16.4689 28.1854 16.5541C28.273 16.5655 28.362 16.5578 28.4464 16.5315C28.5307 16.5051 28.6083 16.4608 28.6738 16.4015C28.7715 16.3527 28.7776 16.255 28.7715 16.2489Z" fill="#D88876"/>
<path d="M43.2645 6.71938C43.2092 6.40421 43.0323 6.12336 42.772 5.93726C42.5117 5.75116 42.1888 5.67469 41.8726 5.72431C42.084 5.70372 42.2878 5.63506 42.4685 5.52357C42.6492 5.41209 42.802 5.26074 42.9152 5.08111C43.0284 4.90148 43.099 4.69833 43.1216 4.48722C43.1442 4.2761 43.1182 4.06261 43.0456 3.86308C42.973 3.66356 42.8557 3.48329 42.7028 3.33607C42.5498 3.18884 42.3651 3.07858 42.1629 3.0137C41.9608 2.94883 41.7464 2.93105 41.5363 2.96176C41.3263 2.99247 41.126 3.07084 40.9508 3.19086C41.3693 2.79714 41.7018 2.32119 41.9276 1.79288C42.0357 1.52599 42.0591 1.23233 41.9946 0.951689C41.9302 0.671047 41.7811 0.417005 41.5674 0.22398C41.3253 0.0774582 41.0476 0 40.7646 0C40.4816 0 40.204 0.0774582 39.9619 0.22398C39.1927 0.602471 38.6127 1.31061 37.8252 1.64027C37.0377 1.96992 36.122 1.88446 35.2613 1.97603C34.2981 2.05611 33.3843 2.43615 32.6484 3.06266C32.2877 3.37967 32.006 3.77657 31.8258 4.22172C31.6457 4.66687 31.572 5.14796 31.6106 5.62663C30.4385 5.55338 29.1688 5.62663 28.247 6.35309C28.3143 5.88117 28.2555 5.39982 28.0764 4.95803C27.8974 4.51623 27.6044 4.12977 27.2275 3.83796C26.7457 3.50168 26.1856 3.29476 25.6009 3.23704C25.0162 3.17932 24.4264 3.27273 23.8882 3.50831C23.6318 3.59741 23.3968 3.73897 23.1981 3.92396C22.9994 4.10895 22.8415 4.33331 22.7344 4.58273C22.6615 4.95353 22.6964 5.33745 22.8349 5.68906C22.9733 6.04067 23.2096 6.34525 23.5158 6.56676C24.0484 7.01764 24.6792 7.33753 25.3577 7.50078C26.0361 7.66404 26.7434 7.66612 27.4228 7.50688C27.2059 8.05989 27.1142 8.65406 27.1542 9.24672C27.2153 10.2723 28.0394 11.3345 28.3752 12.2991L28.4545 12.9095L29.065 15.5346L30.7071 15.4003L30.2615 9.90603C30.2615 9.90603 29.9502 7.59235 31.9708 7.67171C33.9915 7.75107 36.8546 9.84498 40.7189 9.03306C41.3532 8.96562 41.9643 8.75703 42.5075 8.42259C42.7776 8.23522 42.991 7.9773 43.1244 7.67696C43.2579 7.37661 43.3064 7.04537 43.2645 6.71938Z" fill="#263238"/>
<path d="M21.6113 9.14415C21.6113 9.09531 22.0325 9.29066 22.7224 9.39444C23.6122 9.53357 24.5232 9.39946 25.3352 9.00984C26.1407 8.60383 26.8062 7.96598 27.246 7.17843C27.5817 6.56796 27.6733 6.13453 27.7221 6.14674C27.7365 6.5421 27.6391 6.9335 27.4413 7.27611C27.0396 8.15564 26.3458 8.86904 25.4779 9.29523C24.6099 9.72141 23.6213 9.83412 22.6797 9.61421C22.2874 9.55757 21.9181 9.39505 21.6113 9.14415Z" fill="#263238"/>
<path d="M25.554 12.2083C25.5174 12.2083 25.3892 11.8969 25.4442 11.3597C25.5398 10.6744 25.788 10.0194 26.1706 9.44285C26.5857 8.76522 27.0009 8.22191 27.2389 7.75185C27.3507 7.49785 27.4855 7.25467 27.6418 7.02539C27.6846 7.02539 27.6419 7.36115 27.4404 7.84953C27.1514 8.45992 26.8167 9.04763 26.4392 9.60768C26.0806 10.1553 25.8183 10.7602 25.6639 11.3964C25.5601 11.8786 25.6029 12.2022 25.554 12.2083Z" fill="#263238"/>
<path d="M28.5265 5.97461C28.6059 5.97461 28.4838 6.55455 28.0381 7.07956C27.5925 7.60456 27.0614 7.81212 27.0248 7.73887C26.9881 7.66561 27.3971 7.34817 27.7939 6.872C28.1907 6.39583 28.4472 5.97461 28.5265 5.97461Z" fill="#FF725E"/>
</svg>
