<svg width="311" height="182" viewBox="0 0 311 182" fill="none" xmlns="http://www.w3.org/2000/svg">
<rect width="311" height="182" rx="8" fill="#F6F6F6"/>
<path d="M38.0364 176.829L40.3196 172.599L32.4201 168.271L29.0137 174.424L29.4837 174.723C31.596 176.042 40.3196 181.267 42.0167 181.622C43.9152 182.018 38.0364 176.829 38.0364 176.829Z" fill="#41CC97"/>
<path d="M31.9129 175.933C32.1569 175.202 32.1265 174.408 31.8274 173.698C31.5324 172.997 30.9859 172.431 30.2952 172.111L29.0742 174.315L31.9129 175.933Z" fill="#E6E6E6"/>
<path d="M40.8446 179.485C40.8446 179.485 42.8225 181.451 42.3158 181.677C41.8091 181.903 32.7986 176.958 29.0137 174.425L29.1236 174.254L39.587 180.12C39.587 180.12 40.3562 179.253 40.8446 179.485Z" fill="#E6E6E6"/>
<path d="M29 174.18L29.1282 174.272L29.5067 174.51L30.9047 175.358C32.0951 176.066 33.7495 177.025 35.5992 178.044C37.4489 179.064 39.1399 179.943 40.3792 180.566C40.953 180.859 41.4475 181.097 41.8443 181.298L42.2472 181.487L42.3876 181.548C42.3876 181.548 42.3449 181.518 42.2533 181.469L41.8626 181.262L40.4097 180.498C39.1887 179.888 37.4977 178.966 35.648 177.947C33.7983 176.927 32.1439 175.981 30.9474 175.291L29.525 174.473L29.1404 174.253L29 174.18Z" fill="#263238"/>
<path d="M39.5195 180.236C39.713 180.034 39.928 179.854 40.1605 179.699C40.4181 179.575 40.6883 179.479 40.9663 179.412C40.6699 179.369 40.3678 179.436 40.1178 179.601C39.8449 179.729 39.6309 179.956 39.5195 180.236Z" fill="#263238"/>
<path d="M37.8346 177.776C37.8346 177.807 38.0361 177.733 38.2497 177.611C38.4634 177.489 38.6282 177.379 38.616 177.349C38.4668 177.371 38.3247 177.427 38.2009 177.514C37.9872 177.636 37.8224 177.752 37.8346 177.776Z" fill="#263238"/>
<path d="M37.381 177.093C37.5083 177.113 37.6385 177.1 37.7595 177.056C37.9671 177.008 38.1258 176.947 38.1197 176.916C37.9904 176.896 37.8583 176.909 37.7351 176.953C37.5336 177.002 37.3749 177.063 37.381 177.093Z" fill="#263238"/>
<path d="M37.3867 176.122C37.3867 176.122 37.5454 176.275 37.7713 176.403C37.9007 176.495 38.0486 176.557 38.2047 176.586C38.2047 176.586 38.046 176.433 37.8202 176.305C37.6908 176.213 37.5428 176.151 37.3867 176.122Z" fill="#263238"/>
<path d="M37.5352 175.524C37.6257 175.687 37.7614 175.82 37.9259 175.908C38.0707 176.024 38.2476 176.092 38.4325 176.104C38.4325 176.073 38.225 175.976 37.9808 175.817C37.7366 175.658 37.5596 175.499 37.5352 175.524Z" fill="#263238"/>
<path d="M38.4805 177.239C38.6357 177.357 38.8088 177.45 38.9933 177.513C39.1909 177.591 39.3952 177.65 39.6037 177.69C39.728 177.718 39.8549 177.733 39.9822 177.733C40.0622 177.729 40.1382 177.697 40.1959 177.641C40.224 177.608 40.2419 177.567 40.2473 177.524C40.2527 177.481 40.2455 177.437 40.2264 177.397C40.1353 177.268 40.0163 177.16 39.8782 177.083C39.7402 177.005 39.5865 176.959 39.4285 176.949C39.2705 176.938 39.1121 176.963 38.965 177.022C38.8179 177.08 38.6857 177.171 38.5781 177.287C38.511 177.361 38.4805 177.409 38.4866 177.416C38.6258 177.289 38.7845 177.186 38.9566 177.11C39.151 177.034 39.364 177.019 39.5671 177.068C39.6887 177.085 39.8056 177.127 39.9105 177.191C40.0154 177.255 40.1063 177.34 40.1776 177.44C40.2203 177.544 40.1409 177.623 40.0189 177.623C39.9021 177.625 39.7855 177.615 39.6709 177.593C39.4641 177.556 39.2601 177.505 39.0604 177.44C38.6819 177.324 38.5232 177.22 38.4805 177.239Z" fill="#263238"/>
<path d="M38.5972 177.337C38.7177 177.262 38.8083 177.148 38.8536 177.013C38.9105 176.872 38.9315 176.719 38.9147 176.568C38.9144 176.469 38.8884 176.372 38.8391 176.286C38.7899 176.201 38.7191 176.129 38.6339 176.079C38.5772 176.062 38.516 176.068 38.4635 176.095C38.411 176.123 38.3713 176.169 38.3531 176.226C38.3179 176.313 38.3033 176.407 38.3103 176.501C38.3163 176.65 38.3409 176.797 38.3836 176.94C38.4118 177.073 38.4726 177.197 38.5606 177.3C38.5327 177.172 38.498 177.046 38.4568 176.922C38.4286 176.783 38.4143 176.642 38.4141 176.501C38.4141 176.354 38.463 176.134 38.6034 176.183C38.7438 176.232 38.7926 176.433 38.817 176.58C38.8339 176.717 38.8214 176.857 38.7804 176.989C38.7309 177.111 38.6695 177.227 38.5972 177.337Z" fill="#263238"/>
<path d="M30.3496 172.087C30.3496 172.087 30.5877 172.19 30.9173 172.429C31.3531 172.737 31.6953 173.159 31.9063 173.649C32.1066 174.145 32.1678 174.685 32.0833 175.212C32.0162 175.615 31.9063 175.823 31.9246 175.823C31.9429 175.823 31.9613 175.774 32.0101 175.664C32.0767 175.513 32.1258 175.356 32.1566 175.194C32.2693 174.652 32.2161 174.088 32.004 173.576C31.7831 173.078 31.4226 172.654 30.9662 172.355C30.826 172.268 30.679 172.193 30.5266 172.129C30.4708 172.104 30.4108 172.09 30.3496 172.087Z" fill="#263238"/>
<path d="M32.9676 169.272C32.6204 169.784 32.3005 170.314 32.0092 170.86C31.693 171.389 31.4056 171.935 31.1484 172.496C31.4966 171.987 31.8165 171.459 32.1069 170.915C32.4282 170.386 32.7157 169.837 32.9676 169.272Z" fill="#263238"/>
<path d="M33.3262 175.707C33.6527 176.005 34.0183 176.258 34.4128 176.458C34.7927 176.693 35.2037 176.874 35.6337 176.995C35.6337 176.995 35.1148 176.714 34.4861 176.384C33.8573 176.055 33.3445 175.682 33.3262 175.707Z" fill="#263238"/>
<path d="M31.8092 174.859C31.8092 174.859 31.8092 174.987 31.8092 175.133C31.8092 175.28 31.7726 175.402 31.8092 175.414C31.8459 175.426 31.9191 175.316 31.9313 175.145C31.9435 174.975 31.8092 174.846 31.8092 174.859Z" fill="#263238"/>
<path d="M31.5936 173.81C31.5631 173.81 31.5936 173.932 31.5936 174.06C31.5936 174.188 31.6852 174.28 31.7157 174.273C31.7463 174.267 31.7157 174.157 31.7157 174.029C31.7157 173.901 31.6242 173.803 31.5936 173.81Z" fill="#263238"/>
<path d="M30.9414 173.021C30.9414 173.051 31.0391 173.106 31.1307 173.21C31.2222 173.314 31.2772 173.424 31.3077 173.418C31.3382 173.412 31.3077 173.265 31.2161 173.137C31.1245 173.009 30.9475 172.99 30.9414 173.021Z" fill="#263238"/>
<path d="M30.4336 172.539C30.4336 172.539 30.4336 172.624 30.4885 172.685C30.5435 172.746 30.5984 172.783 30.6228 172.758C30.6473 172.734 30.6228 172.673 30.5679 172.612C30.513 172.551 30.458 172.52 30.4336 172.539Z" fill="#263238"/>
<path d="M29.0566 170.828L41.4187 176.567L63.5543 137.063C66.4418 126.643 69.2256 89.9595 69.2256 89.9595L53.2007 91.1804C53.2007 91.1804 50.7283 117.516 46.8518 131.087L29.0566 170.828Z" fill="#263238"/>
<path d="M43.365 172.696C42.7168 172.498 42.0859 172.247 41.4786 171.945C40.337 171.445 38.762 170.725 37.0283 169.925C35.2946 169.125 33.744 168.38 32.6207 167.825C31.9993 167.555 31.4011 167.234 30.832 166.866C31.4768 167.069 32.1053 167.32 32.7123 167.617C33.86 168.118 35.435 168.838 37.1626 169.638C38.8902 170.438 40.4591 171.188 41.5763 171.744C42.1966 172.014 42.7947 172.332 43.365 172.696Z" fill="#455A64"/>
<path opacity="0.2" d="M54.7188 101.976L64.645 132.09L65.9026 125.412L54.7188 101.976Z" fill="#141F1E"/>
<path d="M102.624 174.284L100.109 170.188L92.3984 174.846L96.0124 180.883L96.5069 180.621C98.7107 179.455 107.605 174.516 108.765 173.24C110.035 171.806 102.624 174.284 102.624 174.284Z" fill="#41CC97"/>
<path d="M98.7454 179.132C98.2381 178.55 97.5337 178.176 96.7675 178.082C96.014 177.987 95.2522 178.176 94.6309 178.613L95.9312 180.768L98.7454 179.132Z" fill="#E6E6E6"/>
<path d="M106.285 173.187C106.285 173.187 108.984 172.467 108.922 173.016C108.861 173.566 100.065 178.877 95.9744 180.885L95.8828 180.702L106.206 174.597C106.206 174.597 105.864 173.48 106.285 173.187Z" fill="#E6E6E6"/>
<path d="M95.7715 180.768L95.9119 180.707C96.0279 180.64 96.1622 180.573 96.3087 180.499L97.7433 179.712C98.9642 179.04 100.613 178.088 102.42 177.001C104.227 175.915 105.844 174.889 107.004 174.132L108.372 173.229L108.738 172.978L108.86 172.887C108.811 172.903 108.766 172.928 108.726 172.96L108.347 173.192L106.961 174.071C105.789 174.81 104.172 175.817 102.365 176.91C100.558 178.002 98.9032 178.955 97.7067 179.645L96.2843 180.463L95.8997 180.682L95.7715 180.768Z" fill="#263238"/>
<path d="M106.286 174.712C106.091 174.18 106.091 173.596 106.286 173.064C106.101 173.297 106.007 173.591 106.023 173.888C106.007 174.186 106.101 174.479 106.286 174.712Z" fill="#263238"/>
<path d="M103.317 174.932C103.372 174.793 103.393 174.642 103.379 174.493C103.379 174.243 103.379 174.047 103.336 174.047C103.278 174.186 103.255 174.337 103.269 174.487C103.247 174.637 103.264 174.79 103.317 174.932Z" fill="#263238"/>
<path d="M102.494 174.98C102.494 174.98 102.591 174.834 102.652 174.632C102.704 174.513 102.725 174.383 102.713 174.254C102.713 174.254 102.61 174.4 102.549 174.602C102.488 174.803 102.463 174.968 102.494 174.98Z" fill="#263238"/>
<path d="M101.657 174.487C101.657 174.518 101.864 174.432 102.09 174.298C102.316 174.164 102.481 174.042 102.469 174.011C102.312 174.043 102.164 174.11 102.035 174.206C101.81 174.335 101.645 174.463 101.657 174.487Z" fill="#263238"/>
<path d="M101.213 174.059C101.4 174.066 101.585 174.017 101.744 173.919C102.013 173.779 102.19 173.595 102.165 173.577C102.002 173.645 101.844 173.726 101.695 173.821C101.528 173.887 101.367 173.966 101.213 174.059Z" fill="#263238"/>
<path d="M103.172 174.101C103.354 174.032 103.521 173.93 103.667 173.802C103.832 173.669 103.985 173.522 104.125 173.363C104.21 173.269 104.286 173.167 104.351 173.058C104.389 172.989 104.4 172.908 104.381 172.832C104.366 172.79 104.34 172.754 104.306 172.727C104.271 172.7 104.229 172.683 104.186 172.679C103.941 172.7 103.711 172.805 103.535 172.977C103.36 173.148 103.249 173.375 103.221 173.619C103.205 173.763 103.217 173.908 103.258 174.047C103.269 174.1 103.292 174.15 103.325 174.193C103.297 174.007 103.297 173.818 103.325 173.631C103.358 173.433 103.447 173.249 103.581 173.1C103.736 172.919 103.955 172.805 104.192 172.783C104.308 172.783 104.332 172.905 104.277 173.015C104.218 173.117 104.148 173.213 104.07 173.302C103.938 173.458 103.795 173.605 103.643 173.741C103.349 173.973 103.16 174.089 103.172 174.101Z" fill="#263238"/>
<path d="M103.313 174.046C103.313 174.046 103.313 173.882 103.166 173.668C103.071 173.549 102.95 173.452 102.812 173.387C102.725 173.341 102.627 173.317 102.528 173.317C102.429 173.317 102.332 173.341 102.244 173.387C102.204 173.43 102.182 173.487 102.182 173.546C102.182 173.605 102.204 173.662 102.244 173.705C102.302 173.779 102.378 173.838 102.464 173.875C102.592 173.948 102.73 174.001 102.873 174.034C103.005 174.079 103.145 174.089 103.282 174.065C103.282 174.065 103.13 174.034 102.898 173.961C102.763 173.919 102.634 173.861 102.513 173.79C102.379 173.729 102.22 173.564 102.33 173.466C102.4 173.432 102.477 173.414 102.556 173.414C102.634 173.414 102.711 173.432 102.782 173.466C102.91 173.517 103.025 173.596 103.117 173.698C103.193 173.808 103.258 173.925 103.313 174.046Z" fill="#263238"/>
<path d="M94.687 178.564C94.687 178.564 94.8946 178.411 95.267 178.24C95.7544 178.02 96.2928 177.938 96.8237 178.002C97.3479 178.073 97.8434 178.284 98.2583 178.613C98.5757 178.875 98.7223 179.089 98.7406 179.077C98.7589 179.064 98.7406 179.015 98.6429 178.918C98.5439 178.786 98.4313 178.666 98.3071 178.558C97.8993 178.189 97.3889 177.953 96.8437 177.881C96.2985 177.809 95.7444 177.904 95.2548 178.155C95.1051 178.226 94.9638 178.314 94.8335 178.417C94.687 178.515 94.6504 178.558 94.687 178.564Z" fill="#263238"/>
<path d="M93.5195 174.876C94.0772 175.977 94.701 177.044 95.3876 178.069C95.1302 177.508 94.8344 176.966 94.5024 176.445C94.2061 175.903 93.8779 175.379 93.5195 174.876Z" fill="#263238"/>
<path d="M99.2661 177.795C99.6848 177.655 100.085 177.465 100.457 177.227C100.845 177.015 101.205 176.757 101.531 176.458C101.531 176.458 101.024 176.763 100.402 177.135C99.7789 177.508 99.2478 177.764 99.2661 177.795Z" fill="#263238"/>
<path d="M97.7402 178.704C97.7402 178.735 97.844 178.783 97.9661 178.869C98.0882 178.954 98.1798 179.04 98.2042 179.022C98.2286 179.003 98.1676 178.875 98.0272 178.777C97.8867 178.68 97.7402 178.674 97.7402 178.704Z" fill="#263238"/>
<path d="M96.75 178.339C96.75 178.369 96.8416 178.418 96.9698 178.455C97.098 178.491 97.2078 178.485 97.2201 178.455C97.2323 178.424 97.1285 178.375 97.0003 178.339C96.8721 178.302 96.7622 178.308 96.75 178.339Z" fill="#263238"/>
<path d="M95.7422 178.508C95.7422 178.508 95.8643 178.466 96.0047 178.435C96.1451 178.404 96.255 178.435 96.2672 178.392C96.2794 178.35 96.1512 178.295 95.9803 178.331C95.8093 178.368 95.7178 178.49 95.7422 178.508Z" fill="#263238"/>
<path d="M95.0707 178.705C95.0707 178.736 95.144 178.748 95.2234 178.736C95.3027 178.724 95.3577 178.687 95.3577 178.657C95.3577 178.626 95.2844 178.614 95.205 178.626C95.1257 178.638 95.0646 178.675 95.0707 178.705Z" fill="#263238"/>
<path d="M45.904 75.1979C45.6049 75.1979 42.3267 84.9166 45.4828 91.357C45.8002 92.0041 48.2727 95.5509 48.2727 95.5509C57.0085 105.862 65.8603 125.849 68.3266 131.099C73.3996 141.873 92.08 177.305 92.08 177.305L104.082 170.437L86.5369 125.324L70.6097 84.6113L45.904 75.1979Z" fill="#263238"/>
<path d="M67.5449 116.876C67.5449 116.876 68.3935 120.985 68.833 120.741C70.0845 120.069 78.6738 116.864 78.6738 116.864L76.354 114.294L67.5449 116.876Z" fill="#455A64"/>
<path d="M70.084 120.069C70.084 120.069 71.6895 126.68 73.7468 126.314C75.8041 125.948 80.1384 123.787 80.1384 123.787L77.5317 117.261L70.084 120.069Z" fill="#455A64"/>
<path opacity="0.2" d="M70.0781 120.069L77.5442 117.261L77.9654 118.311L70.365 121.095L70.0781 120.069Z" fill="#141F1E"/>
<path d="M53.5527 101.577C53.7339 101.868 53.8931 102.172 54.0289 102.486C54.3402 103.097 54.7431 103.97 55.2498 104.989C56.3121 107.144 57.7284 110.032 59.2973 113.225C60.8662 116.417 62.3008 119.366 63.2653 121.509C63.7537 122.583 64.1322 123.45 64.3886 124.06C64.5323 124.369 64.6547 124.687 64.7549 125.013C64.567 124.727 64.4056 124.424 64.2726 124.109C63.9673 123.468 63.5583 122.626 63.0516 121.606C61.9894 119.451 60.5731 116.564 59.0042 113.365C57.4353 110.166 56.0068 107.224 55.0362 105.081C54.5539 104.013 54.1693 103.14 53.9129 102.535C53.7635 102.228 53.643 101.907 53.5527 101.577Z" fill="#455A64"/>
<path d="M103.183 168.339C103.22 168.419 100.455 169.89 96.9932 171.624C93.5318 173.357 90.7053 174.676 90.6626 174.621C90.6199 174.566 93.3975 173.076 96.8527 171.343C100.308 169.609 103.147 168.26 103.183 168.339Z" fill="#455A64"/>
<path d="M59.5717 33.3035C59.5717 33.3035 49.1938 29.1462 48.3208 29.7322C47.4478 30.3183 41.8864 39.4143 47.0327 40.1651C52.179 40.916 60.1395 34.5793 60.1395 34.5793L59.5717 33.3035Z" fill="#41CC97"/>
<path d="M59.1569 33.6376C59.0419 33.7536 58.9076 33.8486 58.7601 33.9184C58.3785 34.1332 57.967 34.2896 57.5391 34.3824C56.0944 34.6624 54.598 34.4765 53.2658 33.8513C51.9531 33.2201 50.7496 32.3834 49.7007 31.3728C49.2374 30.993 48.8177 30.5631 48.4492 30.0908C48.942 30.4262 49.4093 30.7975 49.8472 31.2019C50.9183 32.1431 52.1113 32.9357 53.394 33.5583C54.6778 34.1621 56.111 34.3744 57.5147 34.1687C58.0755 34.0364 58.6247 33.8587 59.1569 33.6376Z" fill="#263238"/>
<path d="M91.5293 53.875L92.4145 52.0436C93.0292 51.079 93.5486 50.0567 93.9651 48.9913C94.1791 48.4582 94.3009 47.8925 94.3253 47.3186C94.3865 46.6085 94.3474 45.8934 94.2093 45.1942C94.02 44.5837 94.6915 44.0343 95.1677 44.3944C95.6439 44.7546 96.2116 46.4639 95.9247 48.5578C95.6378 50.6518 98.0674 48.3808 98.977 47.5689L101.242 55.3585L95.5889 59.1495L91.5293 53.875Z" fill="#E6BBAC"/>
<path d="M68.3313 34.4317C67.6719 34.4317 66.8906 39.1995 66.2312 47.7583C65.4804 57.4708 65.5414 67.2933 68.2336 73.4407C68.4838 74.0996 68.8618 74.7025 69.3458 75.2148C69.8298 75.7272 70.4103 76.1387 71.054 76.4259C78.0072 79.2951 97.1882 58.7223 97.1882 58.7223L92.4692 50.4382L78.9595 61.3473C78.9595 61.3473 77.6104 50.31 77.8729 45.2248C78.0682 41.3727 74.2101 34.4744 68.3313 34.4317Z" fill="#41CC97"/>
<g opacity="0.2">
<path d="M68.3332 34.4301C67.6739 34.4301 66.8925 39.1979 66.2332 47.7567C65.4823 57.4692 65.5434 67.2917 68.2355 73.4391C68.4857 74.098 68.8637 74.701 69.3477 75.2133C69.8318 75.7256 70.4123 76.1371 71.0559 76.4243C78.0092 79.2935 97.1901 58.7207 97.1901 58.7207L92.4712 50.4366L78.9615 61.3457C78.9615 61.3457 77.6123 50.3084 77.8749 45.2232C78.0702 41.3712 74.212 34.4728 68.3332 34.4301Z" fill="#141F1E"/>
</g>
<path d="M76.9338 100.185L83.0995 98.1341L74.4308 39.4619L71 86.4619L76.9338 100.185Z" fill="#41CC97"/>
<path opacity="0.2" d="M76.9338 100.185L83.0995 98.1341L74.4308 39.4619L71 86.4619L76.9338 100.185Z" fill="#141F1E"/>
<path d="M80.9876 83.8186C80.8917 83.5079 80.8243 83.1892 80.7861 82.8663C80.6762 82.2558 80.5358 81.3584 80.3649 80.2474C80.0353 78.0375 79.6323 74.9729 79.2905 71.5726C78.9486 68.1723 78.741 65.0894 78.619 62.8551C78.564 61.7379 78.5274 60.8344 78.5091 60.2056C78.4787 59.8828 78.4787 59.5578 78.5091 59.235C78.5722 59.5531 78.611 59.8755 78.6251 60.1995C78.68 60.8772 78.7533 61.7684 78.8387 62.8368C79.0158 65.0711 79.26 68.1478 79.6018 71.5421C79.9437 74.9363 80.31 78.0008 80.5847 80.2168C80.7129 81.2852 80.8228 82.1703 80.9021 82.848C80.9571 83.1686 80.9857 83.4933 80.9876 83.8186Z" fill="#263238"/>
<path d="M94.9683 61.0436C94.6302 60.6984 94.3332 60.3154 94.0831 59.902C93.5703 59.1634 92.8988 58.1317 92.1967 56.9596C91.4947 55.7875 90.8964 54.707 90.4874 53.9072C90.2308 53.4921 90.0258 53.0473 89.877 52.5825C90.1772 52.9639 90.4409 53.3727 90.6645 53.8035C91.1834 54.6764 91.7877 55.6837 92.447 56.8009L94.2784 59.7861C94.55 60.181 94.7811 60.6024 94.9683 61.0436Z" fill="#263238"/>
<path d="M74.3332 44.4004C73.6362 44.4799 72.9339 44.5024 72.2332 44.4676H72.0195L72.1111 44.2722C72.2576 43.9364 72.4224 43.5946 72.5812 43.2344L72.6972 42.9902L72.8559 43.2161L73.2466 43.7777L73.332 43.8998H73.0573L73.8387 42.3309L74.0341 41.9402L74.1012 42.3675C74.2345 43.0314 74.3121 43.7053 74.3332 44.3821C74.1275 43.7369 73.9583 43.0806 73.8265 42.4164L74.089 42.453L73.3443 44.0402L73.2222 44.2844L73.0695 44.0585L72.9841 43.9425C72.8559 43.7472 72.7216 43.558 72.5995 43.3748H72.8681C72.6911 43.7289 72.5262 44.0708 72.3614 44.3943L72.2393 44.1928C72.9403 44.2268 73.6392 44.2961 74.3332 44.4004Z" fill="#263238"/>
<path d="M74.5969 44.9029C74.5969 44.9884 74.0658 45.0617 73.4126 45.0617C72.7594 45.0617 72.2344 44.9884 72.2344 44.9029C72.2344 44.8175 72.7655 44.7381 73.4126 44.7381C74.0597 44.7381 74.5969 44.8114 74.5969 44.9029Z" fill="#263238"/>
<path d="M55.5124 35.6537C55.5124 35.6537 49.3771 38.4618 46.3553 43.0709C43.3335 47.6799 44.8841 88.7462 44.8841 88.7462L74.0218 89.6741C74.0218 89.6741 71.5799 35.5987 70.0904 35.0127C66.3482 33.5109 61.7208 33.5109 55.5124 35.6537Z" fill="#F0F0F0"/>
<path d="M43.6523 50.4451C43.6218 51.837 41.418 101.975 41.418 101.975L65.0309 101.938L58.8225 34.4935C58.8225 34.4935 43.9575 36.9049 43.6523 50.4451Z" fill="#41CC97"/>
<path d="M58.9019 89.85C56.9495 90.0252 54.9892 90.0965 53.0292 90.0636C51.0692 90.1373 49.1066 90.1026 47.1504 89.9598C49.1028 89.7844 51.0631 89.713 53.0231 89.7462C54.9832 89.6762 56.9456 89.7109 58.9019 89.85Z" fill="#263238"/>
<path d="M62.0144 101.791C61.9676 101.476 61.9432 101.158 61.9412 100.839C61.9412 100.167 61.8862 99.2884 61.8496 98.2323C61.7703 96.0346 61.6482 92.9945 61.4528 89.643C61.2575 86.2915 61.0194 83.2636 60.8423 81.0659C60.7569 80.0159 60.6836 79.1429 60.6348 78.4714C60.5908 78.1539 60.5764 77.833 60.592 77.5129C60.6754 77.8227 60.7305 78.1394 60.7569 78.4592C60.8423 79.0696 60.9461 79.9548 61.0621 81.0476C61.3002 83.2391 61.5688 86.2671 61.7703 89.6247C61.9717 92.9823 62.0511 96.0224 62.0694 98.2262C62.0694 99.3311 62.0694 100.222 62.0694 100.833C62.0819 101.153 62.0635 101.474 62.0144 101.791Z" fill="#263238"/>
<path d="M62.6063 91.7237C62.5635 91.7237 62.7467 91.4857 63.0947 91.6139C63.2127 91.6494 63.3161 91.7221 63.3897 91.821C63.4632 91.92 63.5029 92.04 63.5029 92.1633C63.5029 92.2866 63.4632 92.4066 63.3897 92.5055C63.3161 92.6045 63.2127 92.6771 63.0947 92.7127C62.971 92.7701 62.8317 92.7845 62.6989 92.7535C62.5662 92.7225 62.4476 92.648 62.3621 92.5418C62.2977 92.4555 62.2556 92.3546 62.2397 92.248C62.2237 92.1415 62.2343 92.0327 62.2705 91.9313C62.3804 91.5956 62.6429 91.5589 62.6429 91.5955C62.6429 91.6322 62.5086 91.7421 62.4903 91.9801C62.4727 92.045 62.4739 92.1136 62.4938 92.1778C62.5137 92.242 62.5514 92.2993 62.6027 92.3428C62.6539 92.3863 62.7164 92.4144 62.783 92.4237C62.8496 92.433 62.9175 92.4231 62.9787 92.3953C63.0438 92.3761 63.1013 92.3369 63.143 92.2832C63.1846 92.2295 63.2083 92.164 63.2106 92.0961C63.2028 92.0347 63.1812 91.9759 63.1474 91.9241C63.1135 91.8723 63.0684 91.8288 63.0153 91.797C62.7955 91.681 62.6307 91.7665 62.6063 91.7237Z" fill="#263238"/>
<path d="M61.9344 79.8502C61.9344 79.893 61.8185 79.9601 61.794 80.1494C61.7696 80.3386 61.8795 80.5645 62.1359 80.479C62.1836 80.4654 62.2266 80.4389 62.2601 80.4024C62.2936 80.3658 62.3164 80.3207 62.3259 80.2721C62.3353 80.2234 62.3312 80.1731 62.3138 80.1266C62.2964 80.0802 62.2666 80.0395 62.2275 80.009C62.0932 79.8747 61.9467 79.893 61.9344 79.8502C61.9222 79.8075 62.0932 79.6793 62.3557 79.8502C62.4479 79.899 62.523 79.9748 62.5711 80.0675C62.6191 80.1601 62.6377 80.2652 62.6245 80.3687C62.6112 80.4722 62.5666 80.5692 62.4968 80.6467C62.427 80.7242 62.3351 80.7786 62.2336 80.8026C62.1365 80.843 62.0294 80.8527 61.9267 80.8302C61.8239 80.8077 61.7306 80.7542 61.6593 80.677C61.588 80.5997 61.5422 80.5023 61.5281 80.3981C61.514 80.2939 61.5322 80.1879 61.5804 80.0944C61.7208 79.8014 61.9406 79.8075 61.9344 79.8502Z" fill="#263238"/>
<path d="M59.5347 63.783C59.5099 63.6872 59.4956 63.5889 59.492 63.49C59.492 63.2641 59.4431 62.9894 59.4126 62.6598C59.3577 61.8845 59.2783 60.8283 59.1806 59.6074C58.9914 57.0129 58.7106 53.4356 58.3565 49.4797C58.0024 45.5239 57.6422 41.9587 57.3675 39.3703C57.2393 38.1494 57.1295 37.0811 57.0501 36.318C57.0501 35.9883 56.9951 35.7075 56.9768 35.4816C56.9635 35.3844 56.9635 35.2858 56.9768 35.1886C57.015 35.2799 57.0377 35.3768 57.044 35.4755C57.0806 35.7014 57.1295 35.97 57.1783 36.2997C57.2882 37.02 57.4347 38.0639 57.5995 39.352C57.9292 41.9343 58.326 45.5056 58.68 49.4614C59.0341 53.4172 59.2905 57.0007 59.4126 59.5952C59.4798 60.8955 59.5225 61.9455 59.5408 62.6781C59.5408 63.0077 59.5408 63.2885 59.5408 63.5144C59.5518 63.6038 59.5498 63.6943 59.5347 63.783Z" fill="#263238"/>
<path d="M58.9616 34.1203C58.3833 34.3841 57.7852 34.6025 57.1729 34.7735C55.7179 35.2375 54.291 35.7858 52.8997 36.4157C51.5153 37.0525 50.2236 37.8739 49.0598 38.8575C48.1807 39.6267 47.729 40.2006 47.6862 40.1639C47.6435 40.1273 47.7656 39.993 47.9671 39.7305C48.2528 39.3586 48.5693 39.0115 48.9133 38.6927C50.0494 37.6372 51.348 36.7715 52.7593 36.1287C54.1633 35.4892 55.6169 34.9645 57.1058 34.5598C57.7097 34.357 58.3309 34.2098 58.9616 34.1203Z" fill="#263238"/>
<path d="M76.0801 49.456L86.7999 36.5018L87.7095 37.3687L77.1057 50.4206L76.0801 49.456Z" fill="#263238"/>
<path d="M76.9336 48.7723C76.9336 48.7723 78.6246 43.9862 79.0031 42.9606C79.3816 41.935 80.0287 40.1647 80.2851 40.1219C80.5415 40.0792 81.506 40.1952 80.3461 43.2475C79.1862 46.2999 81.8418 44.3769 81.8418 44.3769L84.1738 41.7091C84.1738 41.7091 86.5119 47.9359 85.3947 49.8284C84.4472 51.338 83.3773 52.7672 82.1958 54.1017L76.9336 48.7723Z" fill="#E6BBAC"/>
<path d="M82.5375 53.7224L79.1982 57.3547L74.4609 51.2988L76.9334 48.7898L82.5375 53.7224Z" fill="#E6BBAC"/>
<path d="M49.1635 39.5042C48.4676 39.6752 43.9318 44.0644 43.8647 53.4474C43.8097 60.9012 44.3836 77.4632 49.4749 79.9234C51.7825 81.0406 55.2804 81.0162 58.3206 79.0566C66.8672 73.5135 82.0618 55.6695 82.0618 55.6695L75.2733 48.4354C75.2733 48.4354 57.6369 66.3771 56.886 65.7178C55.7505 64.7288 55.9275 55.4131 54.963 46.9398C54.2793 40.9205 53.4734 38.4298 49.1635 39.5042Z" fill="#41CC97"/>
<path d="M62.8397 75.5894C62.7649 75.6959 62.679 75.7942 62.5833 75.8825C62.3267 76.1571 62.0556 76.4179 61.7714 76.6639C60.726 77.5718 59.5665 78.3394 58.3222 78.947C57.4571 79.3609 56.5506 79.6822 55.6179 79.9054C54.5382 80.1769 53.4147 80.2267 52.3152 80.052C51.1052 79.8089 49.9782 79.2581 49.0431 78.4525C48.0464 77.5916 47.2273 76.5444 46.6317 75.3697C45.5228 73.1048 44.8536 70.65 44.6599 68.1356C44.3608 65.8524 44.1471 63.7829 44.0495 62.0309C43.9518 60.2788 43.8785 58.887 43.8663 57.9102C43.8663 57.4218 43.8663 57.0434 43.8663 56.787C43.8519 56.6571 43.8519 56.5261 43.8663 56.3963C43.8945 56.5246 43.9089 56.6556 43.9091 56.787C43.9091 57.0718 43.9274 57.4442 43.964 57.9041C44.0128 58.8809 44.0861 60.2849 44.2448 62.0126C44.4035 63.7402 44.6355 65.8036 44.9469 68.0806C45.0842 69.2713 45.288 70.4534 45.5573 71.6214C45.862 72.8675 46.3149 74.0726 46.9065 75.2109C47.4848 76.3483 48.2765 77.3639 49.2385 78.2022C50.1289 78.9792 51.206 79.5114 52.3641 79.7467C53.4228 79.9261 54.5069 79.8887 55.5507 79.6368C56.4668 79.4215 57.3571 79.1084 58.2063 78.7028C59.4465 78.1227 60.611 77.3928 61.6737 76.5296C62.4429 75.9618 62.8153 75.565 62.8397 75.5894Z" fill="#263238"/>
<path d="M75.2737 48.4365C75.1771 48.572 75.071 48.7005 74.9562 48.8211C74.7365 49.0591 74.419 49.4315 73.9917 49.8772C73.1493 50.7868 71.8978 52.0749 70.3289 53.656C68.76 55.2371 66.8309 57.0929 64.6698 59.1502L61.2451 62.3491C60.0241 63.4418 58.8032 64.5956 57.4419 65.7067L57.2099 65.8959V65.5846C57.1671 64.9253 57.1244 64.2232 57.0878 63.5151C56.8741 59.8095 56.6727 56.281 56.4773 53.0638C56.3674 51.4583 56.3491 49.926 56.1904 48.5158C56.0712 47.2054 55.722 45.9262 55.1587 44.737C54.6912 43.7617 53.9833 42.9213 53.1014 42.2951C52.4238 41.8378 51.6437 41.5547 50.8305 41.471C50.1327 41.4058 49.4294 41.5083 48.7793 41.7701C48.9348 41.6703 49.1032 41.5922 49.2799 41.5382C49.7822 41.3682 50.3143 41.3037 50.8427 41.3489C51.6829 41.4129 52.4935 41.688 53.1991 42.1486C54.1221 42.7787 54.8665 43.6367 55.3602 44.6393C55.9516 45.8478 56.3216 47.1524 56.4529 48.4914C56.6238 49.9199 56.6544 51.4522 56.7642 53.0577C56.9596 56.2688 57.1672 59.7729 57.3747 63.509C57.4113 64.2171 57.4541 64.9192 57.4907 65.5785L57.2404 65.4564C59.8837 63.2526 62.2768 60.9633 64.4623 58.9488C66.6477 56.9342 68.5646 55.0723 70.164 53.5156C71.7635 51.9589 73.0394 50.6952 73.9062 49.81L74.9074 48.7722C75.0206 48.651 75.1431 48.5387 75.2737 48.4365Z" fill="#263238"/>
<path d="M79.0635 58.6679C78.6756 58.3626 78.3234 58.0145 78.0135 57.6301C77.4031 56.9647 76.5606 56.0307 75.651 54.9868C74.7414 53.9429 73.9295 52.9845 73.3556 52.2763C73.0179 51.9168 72.7229 51.5194 72.4766 51.092C72.8606 51.3974 73.2106 51.7433 73.5205 52.1237C74.1309 52.7952 74.9795 53.7292 75.8891 54.7792C76.7987 55.8293 77.6106 56.7816 78.1845 57.4897C78.5195 57.8493 78.8143 58.2444 79.0635 58.6679Z" fill="#263238"/>
<path d="M55.7207 69.7728C55.9305 68.2332 56.4834 66.7603 57.3385 65.4629C57.1559 66.211 56.9045 66.9405 56.5876 67.6423C56.3657 68.378 56.0754 69.0912 55.7207 69.7728Z" fill="#263238"/>
<path d="M54.1953 68.5763C55.1858 67.3881 56.3339 66.3406 57.6078 65.4629C57.155 66.0921 56.6167 66.6551 56.0084 67.1356C55.4712 67.6948 54.8614 68.1793 54.1953 68.5763Z" fill="#263238"/>
<path d="M81.869 56.0962C81.5175 55.7586 81.1986 55.3887 80.9166 54.9912C80.3489 54.2892 79.5614 53.3369 78.6518 52.3113C77.7422 51.2857 76.8814 50.3944 76.2526 49.7534C75.8903 49.4268 75.5592 49.0671 75.2637 48.679C75.6837 48.9316 76.0695 49.2373 76.4114 49.5886C77.2786 50.3835 78.1038 51.223 78.8838 52.1037C79.6693 52.979 80.407 53.896 81.0937 54.8508C81.4045 55.2309 81.6651 55.6495 81.869 56.0962Z" fill="#263238"/>
<mask id="mask0_2446_3681" style="mask-type:luminance" maskUnits="userSpaceOnUse" x="94" y="35" width="16" height="147">
<path d="M94.5957 35.9512C94.5957 35.9512 104.174 86.4981 104.18 86.9865C104.186 87.4748 103.448 128.81 104.125 135.421C104.803 142.033 107.867 182 107.867 182H109.857L107.416 113.994L107.367 81.7364L99.3329 41.4088L94.5957 35.9512Z" fill="white"/>
</mask>
<g mask="url(#mask0_2446_3681)">
<path d="M94.5957 35.9512C94.5957 35.9512 104.174 86.4981 104.18 86.9865C104.186 87.4748 103.448 128.81 104.125 135.421C104.803 142.033 107.947 182 107.947 182H109.949L107.428 113.994L107.367 81.7364L99.3329 41.4088L94.5957 35.9512Z" fill="#263238"/>
<path d="M107.918 136.631C107.966 136.631 107.802 137.357 107.631 138.529C107.41 140.051 107.326 141.589 107.38 143.126C107.444 144.665 107.649 146.196 107.991 147.698C108.247 148.852 108.467 149.53 108.418 149.566C108.322 149.422 108.25 149.263 108.204 149.096C108.037 148.654 107.892 148.204 107.771 147.747C107.366 146.242 107.132 144.696 107.075 143.138C107.017 141.582 107.132 140.024 107.417 138.492C107.533 137.882 107.649 137.436 107.747 137.119C107.844 136.801 107.893 136.624 107.918 136.631Z" fill="#455A64"/>
<path d="M97.3005 58.8626C96.9111 58.5809 96.5778 58.2289 96.3177 57.8248C95.6445 56.8986 95.0522 55.9162 94.5473 54.8884C93.9368 53.7041 93.3813 52.6236 93.0028 51.8361C92.7697 51.4226 92.5834 50.9844 92.4473 50.5297C92.7432 50.908 92.997 51.3174 93.2043 51.7506C93.6316 52.5137 94.2115 53.582 94.8281 54.7602C95.3338 55.7736 95.8922 56.7598 96.5008 57.7149C96.9831 58.4231 97.3371 58.8321 97.3005 58.8626Z" fill="#263238"/>
<path d="M98.8066 59.0949C98.88 59.1581 98.9456 59.2298 99.002 59.3085L99.5209 59.9739C99.9604 60.5844 100.595 61.3963 101.316 62.4891C102.173 63.7592 102.903 65.1108 103.495 66.5243C104.202 68.2708 104.575 70.1345 104.594 72.0185C104.594 75.9988 104.557 79.5883 104.527 82.195C104.496 83.4587 104.478 84.5026 104.46 85.2474C104.46 85.5831 104.46 85.8579 104.429 86.0898C104.432 86.1888 104.42 86.2876 104.392 86.3828C104.38 86.2856 104.38 86.1871 104.392 86.0898C104.392 85.8579 104.392 85.5831 104.392 85.2474C104.392 84.4721 104.392 83.416 104.356 82.195C104.356 79.5456 104.356 75.9743 104.356 72.0246C104.34 70.1706 103.984 68.3353 103.306 66.6097C102.731 65.2071 102.028 63.8604 101.206 62.5867C100.51 61.4879 99.9055 60.621 99.4965 60.0228C99.2448 59.7302 99.0143 59.4201 98.8066 59.0949Z" fill="#455A64"/>
<path d="M107.336 107.663C107.289 107.569 107.258 107.468 107.244 107.364C107.195 107.126 107.128 106.839 107.049 106.491C106.89 105.728 106.664 104.629 106.408 103.262C105.709 99.7039 105.22 96.1081 104.943 92.493C104.659 88.8676 104.813 85.2213 105.4 81.6327C105.582 80.5476 105.825 79.4735 106.127 78.4155C106.225 78.037 106.328 77.7501 106.389 77.5548C106.418 77.4553 106.457 77.3591 106.505 77.2678C106.443 77.6658 106.355 78.0593 106.243 78.446C106.066 79.1969 105.834 80.2775 105.632 81.6693C105.121 85.2454 105 88.8664 105.272 92.4685C105.559 96.693 106.188 100.484 106.64 103.219C106.866 104.556 107.049 105.661 107.183 106.467C107.238 106.821 107.287 107.114 107.323 107.352C107.341 107.455 107.345 107.559 107.336 107.663Z" fill="#455A64"/>
<path d="M104.12 132.509C104.109 132.407 104.109 132.305 104.12 132.203C104.116 131.909 104.134 131.615 104.175 131.324C104.348 130.258 104.667 129.221 105.121 128.241C105.821 126.821 106.432 125.359 106.953 123.864C107.404 121.987 107.479 120.039 107.173 118.132C106.916 116.087 106.672 114.133 106.452 112.351C106.232 110.568 106.068 108.957 105.842 107.638C105.715 106.583 105.304 105.583 104.651 104.744C104.383 104.464 104.082 104.218 103.754 104.012C103.853 104.042 103.949 104.08 104.041 104.128C104.3 104.268 104.537 104.447 104.743 104.659C105.45 105.491 105.908 106.507 106.061 107.589C106.318 108.938 106.489 110.538 106.739 112.314C106.989 114.091 107.246 116.038 107.49 118.101C107.802 120.046 107.715 122.034 107.234 123.944C106.708 125.448 106.079 126.914 105.353 128.333C104.887 129.29 104.54 130.301 104.322 131.343C104.145 132.087 104.157 132.509 104.12 132.509Z" fill="#455A64"/>
<path d="M104.199 111.154C104.296 111.312 104.37 111.482 104.419 111.661C104.592 112.134 104.737 112.617 104.852 113.108C105.237 114.724 105.408 116.385 105.359 118.046C105.308 119.703 105.037 121.345 104.553 122.93C104.409 123.409 104.238 123.88 104.04 124.34C103.979 124.515 103.895 124.682 103.79 124.835C103.735 124.835 104.016 124.084 104.34 122.863C105.177 119.686 105.277 116.36 104.633 113.138C104.382 111.917 104.15 111.172 104.199 111.154Z" fill="#455A64"/>
<path d="M108.063 161.543C108.049 161.426 108.049 161.307 108.063 161.189C108.063 160.927 108.112 160.579 108.149 160.188C108.244 158.969 108.233 157.743 108.118 156.525C108.031 155.685 107.863 154.855 107.618 154.047C107.315 153.122 106.954 152.216 106.537 151.336C106.076 150.354 105.668 149.347 105.316 148.321C104.958 147.201 104.721 146.047 104.608 144.878C104.416 142.633 104.537 140.373 104.968 138.162C105.313 136.36 105.751 134.577 106.281 132.821C106.726 131.319 107.105 130.11 107.367 129.274L107.667 128.316C107.694 128.2 107.737 128.089 107.795 127.986C107.788 128.104 107.765 128.221 107.728 128.334C107.667 128.59 107.581 128.914 107.483 129.311C107.239 130.196 106.91 131.405 106.501 132.882C106.092 134.359 105.609 136.184 105.28 138.217C104.872 140.411 104.762 142.649 104.95 144.871C105.058 146.018 105.287 147.15 105.634 148.247C105.986 149.266 106.394 150.265 106.855 151.239C107.266 152.133 107.62 153.053 107.917 153.992C108.16 154.818 108.319 155.667 108.393 156.525C108.491 157.764 108.466 159.009 108.32 160.243C108.265 160.677 108.216 161.012 108.173 161.244C108.149 161.348 108.112 161.448 108.063 161.543Z" fill="#455A64"/>
<path d="M109.156 160.249C109.247 160.285 108.496 162.166 108.014 164.601C107.532 167.037 107.477 169.064 107.403 169.064C107.321 168.625 107.303 168.177 107.349 167.733C107.429 165.585 107.856 163.464 108.612 161.451C108.736 161.027 108.919 160.622 109.156 160.249Z" fill="#455A64"/>
<path d="M104.162 61.9885C104.162 61.9885 103.985 61.8176 103.716 61.4696C103.448 61.1216 103.069 60.6027 102.623 59.9495C100.325 56.5272 98.5034 52.8078 97.2086 48.8939C96.9644 48.143 96.7874 47.5326 96.6775 47.1052C96.6059 46.8873 96.5588 46.6621 96.5371 46.4337C96.6441 46.6275 96.73 46.8321 96.7935 47.0442C96.9644 47.5203 97.1781 48.1064 97.404 48.7962C98.1067 50.7192 98.9096 52.604 99.8092 54.4431C100.711 56.2799 101.708 58.0689 102.794 59.803L103.802 61.3719C103.947 61.5616 104.068 61.7687 104.162 61.9885Z" fill="#455A64"/>
<path d="M101.89 47.7752C101.519 47.4676 101.181 47.1218 100.883 46.7435L98.569 44.1674L96.2614 41.5912C95.9182 41.2516 95.6113 40.8772 95.3457 40.474C95.7402 40.7503 96.1008 41.0719 96.4201 41.4324C97.0306 42.0429 97.9036 42.9464 98.8071 43.9537C99.7106 44.961 100.498 45.9011 101.054 46.597C101.375 46.9577 101.655 47.3529 101.89 47.7752Z" fill="#455A64"/>
</g>
<path d="M101.047 47.8433C101.047 47.8433 98.275 52.0311 99.3555 52.2264C100.436 52.4218 102.066 48.9177 101.956 48.3622C101.846 47.8066 101.047 47.8433 101.047 47.8433Z" fill="#E6BBAC"/>
<path d="M101.664 49.6823C101.664 49.6823 98.8984 53.8701 99.979 54.0716C101.06 54.273 102.683 50.7628 102.58 50.2073C102.476 49.6518 101.664 49.6823 101.664 49.6823Z" fill="#E6BBAC"/>
<path d="M102.482 52.2331C102.482 52.2331 99.7105 56.421 100.791 56.6163C101.872 56.8117 103.502 53.3076 103.392 52.752C103.282 52.1965 102.482 52.2331 102.482 52.2331Z" fill="#E6BBAC"/>
<path d="M56.1478 17.2489C56.6056 20.1547 56.5812 22.7004 55.1649 24.5745C54.8558 24.9385 54.5703 25.3218 54.3102 25.7222C54.1824 25.9243 54.097 26.1503 54.0593 26.3864C54.0215 26.6225 54.0321 26.8639 54.0905 27.0958C54.1589 27.2992 54.2798 27.481 54.4409 27.6228C54.6021 27.7647 54.7977 27.8615 55.0082 27.9036C55.2187 27.9457 55.4366 27.9316 55.6398 27.8626C55.8431 27.7937 56.0246 27.6723 56.1661 27.5109C56.1195 27.8397 56.1718 28.1749 56.3164 28.4739C56.461 28.7729 56.6913 29.0221 56.978 29.1897C57.1242 29.2587 57.2843 29.2933 57.446 29.2907C57.6077 29.2881 57.7666 29.2484 57.9105 29.1747C58.0545 29.1009 58.1795 28.9951 58.2761 28.8654C58.3727 28.7357 58.4382 28.5856 58.4675 28.4266C58.4675 28.4266 58.089 29.8917 59.7739 29.6475L58.5896 19.5504L56.1478 17.2489Z" fill="#263238"/>
<path d="M63.7424 39.5595C64.4028 39.5614 65.0562 39.4242 65.6601 39.157C66.264 38.8898 66.8049 38.4985 67.2477 38.0085C67.6905 37.5185 68.0252 36.9408 68.2301 36.313C68.435 35.6852 68.5054 35.0213 68.4369 34.3644C68.2782 32.8566 68.1439 31.6295 68.1439 31.6295C68.1439 31.6295 71.8616 31.0496 71.9044 27.3562C71.9471 23.6629 71.2939 15.1041 71.2939 15.1041C69.1814 14.1954 66.8646 13.8674 64.5829 14.1539C62.3012 14.4405 60.1374 15.3312 58.3153 16.7341L57.7598 17.1614L59.054 35.2191C59.1447 36.4002 59.6781 37.5035 60.5474 38.3083C61.4167 39.1131 62.5578 39.5599 63.7424 39.5595Z" fill="#E6BBAC"/>
<path d="M70.3105 21.7948C70.2324 21.7231 70.1773 21.6299 70.1521 21.527C70.1269 21.424 70.1327 21.3159 70.1688 21.2163C70.2049 21.1166 70.2697 21.0299 70.355 20.9669C70.4403 20.904 70.5423 20.8677 70.6482 20.8626C70.754 20.8576 70.8591 20.8839 70.95 20.9384C71.0409 20.9928 71.1137 21.073 71.1592 21.1687C71.2047 21.2645 71.2208 21.3715 71.2056 21.4764C71.1903 21.5813 71.1444 21.6794 71.0736 21.7582C70.9768 21.8635 70.8424 21.9264 70.6996 21.9333C70.5567 21.9402 70.4169 21.8904 70.3105 21.7948Z" fill="#263238"/>
<path d="M71.3426 20.6175C71.2816 20.6847 70.9153 20.4039 70.4086 20.4039C69.9019 20.4039 69.5234 20.6664 69.4624 20.5992C69.4013 20.5321 69.4929 20.4527 69.6577 20.3306C69.8742 20.1705 70.1363 20.0841 70.4055 20.0841C70.6748 20.0841 70.9369 20.1705 71.1534 20.3306C71.3121 20.4771 71.367 20.5931 71.3426 20.6175Z" fill="#263238"/>
<path d="M65.4391 21.3926C65.5297 21.4481 65.6018 21.5293 65.6462 21.6258C65.6907 21.7223 65.7055 21.8298 65.6889 21.9348C65.6722 22.0397 65.6248 22.1374 65.5527 22.2154C65.4805 22.2934 65.3868 22.3482 65.2835 22.373C65.1802 22.3978 65.0718 22.3913 64.9722 22.3545C64.8725 22.3177 64.786 22.2521 64.7235 22.1661C64.6611 22.0802 64.6256 21.9776 64.6215 21.8714C64.6174 21.7652 64.6448 21.6602 64.7004 21.5696C64.7367 21.5089 64.7848 21.456 64.8418 21.4141C64.8989 21.3722 64.9637 21.3422 65.0325 21.3257C65.1013 21.3092 65.1727 21.3066 65.2425 21.3181C65.3124 21.3296 65.3792 21.3549 65.4391 21.3926Z" fill="#263238"/>
<path d="M65.7811 21.0677C65.72 21.1349 65.3538 20.8541 64.8471 20.848C64.3404 20.8419 63.9619 21.1105 63.907 21.0494C63.852 20.9884 63.907 20.9029 64.0962 20.7808C64.3133 20.6207 64.5774 20.537 64.8471 20.5427C65.1168 20.5436 65.3787 20.6337 65.5918 20.7991C65.7506 20.9212 65.8055 21.0433 65.7811 21.0677Z" fill="#263238"/>
<path d="M67.8265 25.2925C68.0916 25.1882 68.3721 25.1284 68.6567 25.1155C68.791 25.1155 68.8948 25.0727 68.9009 24.9995C68.9064 24.8673 68.8746 24.7361 68.8093 24.621L68.4003 23.5771C68.0167 22.6977 67.7241 21.7813 67.5273 20.8422C67.9961 21.6791 68.3806 22.5604 68.675 23.4733C68.8093 23.8396 68.9314 24.1815 69.0596 24.5233C69.1449 24.6953 69.1706 24.8907 69.1329 25.0789C69.1138 25.1302 69.0828 25.1763 69.0425 25.2135C69.0022 25.2506 68.9537 25.2777 68.9009 25.2925C68.828 25.3161 68.7515 25.3264 68.675 25.323C68.3926 25.3625 68.1054 25.3522 67.8265 25.2925Z" fill="#263238"/>
<path d="M66.1719 25.8612C65.6347 25.5438 67.6371 26.6426 68.681 26.5877C68.507 26.857 68.2471 27.0596 67.9434 27.1627C67.6398 27.2657 67.3103 27.2632 67.0083 27.1554C65.8972 26.7464 66.1719 25.8612 66.1719 25.8612Z" fill="white"/>
<path d="M68.1362 31.5754C66.4194 31.6064 64.7322 31.1262 63.2891 30.1958C63.2891 30.1958 64.4306 32.8757 68.1423 32.54L68.1362 31.5754Z" fill="#D88876"/>
<path d="M57.7526 20.7331C57.6732 20.7331 54.9811 20.5255 55.4267 23.6572C55.8724 26.7889 58.8942 25.3055 58.882 25.2139C58.8698 25.1223 57.7526 20.7331 57.7526 20.7331Z" fill="#E6BBAC"/>
<path d="M57.7705 24.2493C57.7705 24.2493 57.7155 24.2982 57.6301 24.3531C57.5099 24.4277 57.3651 24.4518 57.2272 24.4203C57.0067 24.3201 56.8166 24.1635 56.6762 23.9662C56.5357 23.769 56.4499 23.5381 56.4275 23.297C56.3816 23.0286 56.3962 22.7533 56.4702 22.4912C56.4863 22.3899 56.5263 22.2939 56.5868 22.2111C56.6473 22.1284 56.7266 22.0611 56.8182 22.015C56.8794 21.9907 56.947 21.9877 57.0101 22.0065C57.0733 22.0253 57.1282 22.0649 57.1661 22.1188C57.2211 22.2043 57.2089 22.2653 57.2272 22.2714C57.2455 22.2775 57.2821 22.2104 57.2272 22.0822C57.2007 22.0059 57.1461 21.9426 57.0746 21.9051C57.0281 21.8775 56.9764 21.86 56.9228 21.8537C56.8691 21.8473 56.8148 21.8524 56.7632 21.8685C56.6379 21.9119 56.526 21.9871 56.4383 22.0865C56.3505 22.186 56.29 22.3065 56.2626 22.4362C56.166 22.7251 56.1429 23.0336 56.1955 23.3336C56.2237 23.6113 56.3323 23.8747 56.5079 24.0915C56.6836 24.3084 56.9187 24.4693 57.1844 24.5546C57.272 24.566 57.3611 24.5582 57.4454 24.5319C57.5297 24.5055 57.6073 24.4612 57.6728 24.402C57.7705 24.3531 57.7766 24.2554 57.7705 24.2493Z" fill="#D88876"/>
<path d="M72.2645 14.7197C72.2092 14.4045 72.0323 14.1236 71.772 13.9375C71.5117 13.7514 71.1888 13.675 70.8726 13.7246C71.084 13.704 71.2878 13.6353 71.4685 13.5238C71.6492 13.4124 71.802 13.261 71.9152 13.0814C72.0284 12.9018 72.099 12.6986 72.1216 12.4875C72.1442 12.2764 72.1182 12.0629 72.0456 11.8634C71.973 11.6638 71.8557 11.4836 71.7028 11.3363C71.5498 11.1891 71.3651 11.0789 71.1629 11.014C70.9608 10.9491 70.7464 10.9313 70.5363 10.962C70.3263 10.9927 70.126 11.0711 69.9508 11.1911C70.3693 10.7974 70.7018 10.3215 70.9276 9.79316C71.0357 9.52627 71.0591 9.2326 70.9946 8.95196C70.9302 8.67132 70.7811 8.41728 70.5674 8.22425C70.3253 8.07773 70.0476 8.00027 69.7646 8.00027C69.4816 8.00027 69.204 8.07773 68.9619 8.22425C68.1927 8.60275 67.6127 9.31089 66.8252 9.64054C66.0377 9.97019 65.122 9.88473 64.2613 9.9763C63.2981 10.0564 62.3843 10.4364 61.6484 11.0629C61.2877 11.3799 61.006 11.7768 60.8258 12.222C60.6457 12.6671 60.572 13.1482 60.6106 13.6269C59.4385 13.5537 58.1688 13.6269 57.247 14.3534C57.3143 13.8814 57.2555 13.4001 57.0764 12.9583C56.8974 12.5165 56.6044 12.13 56.2275 11.8382C55.7457 11.502 55.1856 11.295 54.6009 11.2373C54.0162 11.1796 53.4264 11.273 52.8882 11.5086C52.6318 11.5977 52.3968 11.7392 52.1981 11.9242C51.9994 12.1092 51.8415 12.3336 51.7344 12.583C51.6615 12.9538 51.6964 13.3377 51.8349 13.6893C51.9733 14.0409 52.2096 14.3455 52.5158 14.567C53.0484 15.0179 53.6792 15.3378 54.3577 15.5011C55.0361 15.6643 55.7434 15.6664 56.4228 15.5072C56.2059 16.0602 56.1142 16.6543 56.1542 17.247C56.2153 18.2726 57.0394 19.3348 57.3752 20.2993L57.4545 20.9098L58.065 23.5348L59.7071 23.4005L59.2615 17.9063C59.2615 17.9063 58.9502 15.5926 60.9708 15.672C62.9915 15.7513 65.8546 17.8453 69.7189 17.0333C70.3532 16.9659 70.9643 16.7573 71.5075 16.4229C71.7776 16.2355 71.991 15.9776 72.1244 15.6772C72.2579 15.3769 72.3064 15.0456 72.2645 14.7197Z" fill="#263238"/>
<path d="M50.6113 17.1442C50.6113 17.0954 51.0325 17.2908 51.7224 17.3945C52.6122 17.5337 53.5232 17.3996 54.3352 17.0099C55.1407 16.6039 55.8062 15.9661 56.246 15.1785C56.5817 14.5681 56.6733 14.1346 56.7221 14.1468C56.7365 14.5422 56.6391 14.9336 56.4413 15.2762C56.0396 16.1557 55.3458 16.8691 54.4779 17.2953C53.6099 17.7215 52.6213 17.8342 51.6797 17.6143C51.2874 17.5577 50.9181 17.3951 50.6113 17.1442Z" fill="#263238"/>
<path d="M54.555 20.2088C54.5184 20.2088 54.3902 19.8975 54.4451 19.3603C54.5407 18.675 54.789 18.0199 55.1716 17.4434C55.5867 16.7658 56.0018 16.2225 56.2399 15.7524C56.3517 15.4984 56.4865 15.2552 56.6428 15.0259C56.6856 15.0259 56.6428 15.3617 56.4414 15.8501C56.1523 16.4605 55.8177 17.0482 55.4402 17.6082C55.0815 18.1558 54.8193 18.7608 54.6649 19.3969C54.5611 19.8792 54.6039 20.2027 54.555 20.2088Z" fill="#263238"/>
<path d="M57.5275 13.9751C57.6068 13.9751 57.4848 14.5551 57.0391 15.0801C56.5935 15.6051 56.0624 15.8126 56.0257 15.7394C55.9891 15.6661 56.3981 15.3487 56.7949 14.8725C57.1917 14.3964 57.4481 13.9751 57.5275 13.9751Z" fill="#41CC97"/>
<path d="M150.789 76.1961C150.379 76.1961 150.043 76.0935 149.781 75.8881C149.539 75.6828 149.333 75.3655 149.165 74.9361L143.145 57.7721C142.977 57.2868 143.005 56.8855 143.229 56.5681C143.472 56.2321 143.864 56.0641 144.405 56.0641C144.816 56.0641 145.133 56.1575 145.357 56.3441C145.6 56.5308 145.787 56.8295 145.917 57.2401L151.377 73.3121H150.341L155.941 57.2961C156.109 56.8855 156.305 56.5775 156.529 56.3721C156.753 56.1668 157.052 56.0641 157.425 56.0641C157.799 56.0641 158.088 56.1668 158.293 56.3721C158.517 56.5775 158.713 56.8948 158.881 57.3241L164.369 73.3121H163.445L168.961 57.2401C169.092 56.8481 169.269 56.5588 169.493 56.3721C169.736 56.1668 170.053 56.0641 170.445 56.0641C170.931 56.0641 171.285 56.2321 171.509 56.5681C171.752 56.8855 171.78 57.2868 171.593 57.7721L165.545 74.9641C165.377 75.3748 165.172 75.6828 164.929 75.8881C164.687 76.0935 164.36 76.1961 163.949 76.1961C163.52 76.1961 163.184 76.0935 162.941 75.8881C162.699 75.6828 162.503 75.3655 162.353 74.9361L157.061 59.7881H157.677L152.329 74.9641C152.18 75.3748 151.984 75.6828 151.741 75.8881C151.517 76.0935 151.2 76.1961 150.789 76.1961ZM177.518 76.1961C177.07 76.1961 176.724 76.0748 176.482 75.8321C176.239 75.5708 176.118 75.2161 176.118 74.7681V57.4921C176.118 57.0255 176.239 56.6708 176.482 56.4281C176.724 56.1855 177.07 56.0641 177.518 56.0641C177.966 56.0641 178.311 56.1855 178.554 56.4281C178.815 56.6708 178.946 57.0255 178.946 57.4921V65.2481H178.554C178.964 64.2028 179.608 63.4188 180.486 62.8961C181.363 62.3548 182.371 62.0841 183.51 62.0841C184.592 62.0841 185.488 62.2895 186.198 62.7001C186.926 63.0921 187.467 63.6988 187.822 64.5201C188.176 65.3228 188.354 66.3401 188.354 67.5721V74.7681C188.354 75.2161 188.232 75.5708 187.99 75.8321C187.747 76.0748 187.402 76.1961 186.954 76.1961C186.487 76.1961 186.132 76.0748 185.89 75.8321C185.647 75.5708 185.526 75.2161 185.526 74.7681V67.7401C185.526 66.5641 185.292 65.7055 184.826 65.1641C184.378 64.6228 183.668 64.3521 182.698 64.3521C181.559 64.3521 180.644 64.7068 179.954 65.4161C179.282 66.1255 178.946 67.0775 178.946 68.2721V74.7681C178.946 75.7201 178.47 76.1961 177.518 76.1961ZM196.898 76.2521C195.946 76.2521 195.088 76.0655 194.322 75.6921C193.576 75.3188 192.988 74.8148 192.558 74.1801C192.129 73.5455 191.914 72.8268 191.914 72.0241C191.914 71.0161 192.166 70.2228 192.67 69.6441C193.193 69.0468 194.042 68.6268 195.218 68.3841C196.413 68.1228 198.018 67.9921 200.034 67.9921H201.35V69.7281H200.062C198.718 69.7281 197.654 69.7935 196.87 69.9241C196.086 70.0548 195.526 70.2788 195.19 70.5961C194.873 70.8948 194.714 71.3148 194.714 71.8561C194.714 72.5655 194.957 73.1441 195.442 73.5921C195.928 74.0215 196.6 74.2361 197.458 74.2361C198.149 74.2361 198.756 74.0775 199.278 73.7601C199.801 73.4241 200.212 72.9761 200.51 72.4161C200.828 71.8561 200.986 71.2121 200.986 70.4841V67.2641C200.986 66.2001 200.762 65.4348 200.314 64.9681C199.866 64.5015 199.129 64.2681 198.102 64.2681C197.505 64.2681 196.88 64.3428 196.226 64.4921C195.592 64.6415 194.929 64.8935 194.238 65.2481C193.921 65.3975 193.65 65.4441 193.426 65.3881C193.202 65.3321 193.025 65.2108 192.894 65.0241C192.764 64.8188 192.689 64.6041 192.67 64.3801C192.67 64.1375 192.726 63.9041 192.838 63.6801C192.969 63.4561 193.184 63.2881 193.482 63.1761C194.304 62.7841 195.116 62.5041 195.918 62.3361C196.721 62.1681 197.477 62.0841 198.186 62.0841C199.437 62.0841 200.464 62.2801 201.266 62.6721C202.088 63.0641 202.694 63.6615 203.086 64.4641C203.478 65.2668 203.674 66.3028 203.674 67.5721V74.7681C203.674 75.2161 203.562 75.5708 203.338 75.8321C203.114 76.0748 202.788 76.1961 202.358 76.1961C201.948 76.1961 201.621 76.0748 201.378 75.8321C201.136 75.5708 201.014 75.2161 201.014 74.7681V72.9481H201.266C201.117 73.6388 200.837 74.2361 200.426 74.7401C200.034 75.2255 199.54 75.5988 198.942 75.8601C198.345 76.1215 197.664 76.2521 196.898 76.2521ZM213.673 76.2521C212.553 76.2521 211.611 76.0561 210.845 75.6641C210.08 75.2721 209.511 74.6935 209.137 73.9281C208.764 73.1628 208.577 72.2295 208.577 71.1281V64.5201H206.897C206.524 64.5201 206.235 64.4268 206.029 64.2401C205.824 64.0348 205.721 63.7641 205.721 63.4281C205.721 63.0735 205.824 62.8028 206.029 62.6161C206.235 62.4295 206.524 62.3361 206.897 62.3361H208.577V59.4521C208.577 58.9855 208.699 58.6308 208.941 58.3881C209.203 58.1455 209.557 58.0241 210.005 58.0241C210.453 58.0241 210.799 58.1455 211.041 58.3881C211.284 58.6308 211.405 58.9855 211.405 59.4521V62.3361H214.681C215.055 62.3361 215.344 62.4295 215.549 62.6161C215.755 62.8028 215.857 63.0735 215.857 63.4281C215.857 63.7641 215.755 64.0348 215.549 64.2401C215.344 64.4268 215.055 64.5201 214.681 64.5201H211.405V70.9041C211.405 71.8935 211.611 72.6401 212.021 73.1441C212.451 73.6481 213.141 73.9001 214.093 73.9001C214.429 73.9001 214.719 73.8721 214.961 73.8161C215.223 73.7415 215.437 73.6948 215.605 73.6761C215.811 73.6761 215.979 73.7508 216.109 73.9001C216.24 74.0308 216.305 74.2921 216.305 74.6841C216.305 74.9641 216.249 75.2255 216.137 75.4681C216.044 75.7108 215.867 75.8695 215.605 75.9441C215.381 76.0188 215.073 76.0841 214.681 76.1401C214.308 76.2148 213.972 76.2521 213.673 76.2521ZM227.419 76.1681C226.971 76.1681 226.626 76.0375 226.383 75.7761C226.14 75.4961 226.019 75.1135 226.019 74.6281V63.7081C226.019 63.2228 226.14 62.8495 226.383 62.5881C226.626 62.3268 226.971 62.1961 227.419 62.1961C227.867 62.1961 228.212 62.3268 228.455 62.5881C228.716 62.8495 228.847 63.2228 228.847 63.7081V74.6281C228.847 75.1135 228.726 75.4961 228.483 75.7761C228.24 76.0375 227.886 76.1681 227.419 76.1681ZM227.419 59.2841C226.859 59.2841 226.42 59.1441 226.103 58.8641C225.804 58.5841 225.655 58.1921 225.655 57.6881C225.655 57.1655 225.804 56.7735 226.103 56.5121C226.42 56.2321 226.859 56.0921 227.419 56.0921C227.979 56.0921 228.408 56.2321 228.707 56.5121C229.024 56.7735 229.183 57.1655 229.183 57.6881C229.183 58.1921 229.024 58.5841 228.707 58.8641C228.408 59.1441 227.979 59.2841 227.419 59.2841ZM237.895 76.2521C237.074 76.2521 236.225 76.1588 235.347 75.9721C234.489 75.7855 233.695 75.4681 232.967 75.0201C232.725 74.8521 232.557 74.6655 232.463 74.4601C232.37 74.2548 232.333 74.0495 232.351 73.8441C232.389 73.6201 232.473 73.4335 232.603 73.2841C232.753 73.1161 232.93 73.0135 233.135 72.9761C233.359 72.9388 233.593 72.9855 233.835 73.1161C234.563 73.5268 235.263 73.8161 235.935 73.9841C236.607 74.1335 237.27 74.2081 237.923 74.2081C238.913 74.2081 239.659 74.0308 240.163 73.6761C240.667 73.3215 240.919 72.8455 240.919 72.2481C240.919 71.7628 240.751 71.3895 240.415 71.1281C240.079 70.8481 239.575 70.6335 238.903 70.4841L236.243 69.9521C235.086 69.7095 234.209 69.2801 233.611 68.6641C233.014 68.0481 232.715 67.2641 232.715 66.3121C232.715 65.4535 232.949 64.7068 233.415 64.0721C233.882 63.4375 234.535 62.9521 235.375 62.6161C236.215 62.2615 237.186 62.0841 238.287 62.0841C239.109 62.0841 239.883 62.1868 240.611 62.3921C241.339 62.5975 242.011 62.9055 242.627 63.3161C242.87 63.4468 243.029 63.6241 243.103 63.8481C243.178 64.0535 243.187 64.2588 243.131 64.4641C243.094 64.6695 243.001 64.8561 242.851 65.0241C242.702 65.1735 242.515 65.2668 242.291 65.3041C242.086 65.3228 241.853 65.2668 241.591 65.1361C241.031 64.7815 240.471 64.5295 239.911 64.3801C239.37 64.2308 238.829 64.1561 238.287 64.1561C237.298 64.1561 236.551 64.3428 236.047 64.7161C235.562 65.0708 235.319 65.5561 235.319 66.1721C235.319 66.6388 235.469 67.0215 235.767 67.3201C236.066 67.6188 236.533 67.8335 237.167 67.9641L239.827 68.4961C241.041 68.7388 241.955 69.1495 242.571 69.7281C243.206 70.3068 243.523 71.0908 243.523 72.0801C243.523 73.3681 243.01 74.3855 241.983 75.1321C240.957 75.8788 239.594 76.2521 237.895 76.2521ZM144.517 112C144.144 112 143.836 111.925 143.593 111.776C143.369 111.627 143.211 111.421 143.117 111.16C143.043 110.88 143.043 110.581 143.117 110.264C143.211 109.928 143.388 109.583 143.649 109.228L154.849 93.7161V94.6961H144.293C143.864 94.6961 143.537 94.5935 143.313 94.3881C143.089 94.1641 142.977 93.8561 142.977 93.4641C142.977 93.0721 143.089 92.7735 143.313 92.5681C143.537 92.3628 143.864 92.2601 144.293 92.2601H156.193C156.567 92.2601 156.875 92.3348 157.117 92.4841C157.36 92.6335 157.519 92.8388 157.593 93.1001C157.687 93.3615 157.687 93.6601 157.593 93.9961C157.519 94.3321 157.351 94.6775 157.089 95.0321L145.861 110.544V109.564H156.837C157.267 109.564 157.593 109.667 157.817 109.872C158.041 110.077 158.153 110.376 158.153 110.768C158.153 111.16 158.041 111.468 157.817 111.692C157.593 111.897 157.267 112 156.837 112H144.517ZM161.21 105.672C160.874 105.672 160.594 105.56 160.37 105.336C160.146 105.112 160.034 104.841 160.034 104.524C160.034 104.188 160.146 103.917 160.37 103.712C160.594 103.488 160.874 103.376 161.21 103.376H167.37C167.688 103.376 167.958 103.488 168.182 103.712C168.406 103.917 168.518 104.188 168.518 104.524C168.518 104.841 168.406 105.112 168.182 105.336C167.958 105.56 167.688 105.672 167.37 105.672H161.21ZM178.883 112.252C178.025 112.252 177.185 112.187 176.363 112.056C175.542 111.925 174.767 111.729 174.039 111.468C173.311 111.188 172.658 110.852 172.079 110.46C171.799 110.255 171.603 110.021 171.491 109.76C171.398 109.499 171.37 109.247 171.407 109.004C171.463 108.743 171.575 108.519 171.743 108.332C171.911 108.145 172.117 108.033 172.359 107.996C172.602 107.94 172.873 108.015 173.171 108.22C174.011 108.761 174.898 109.163 175.831 109.424C176.765 109.667 177.782 109.788 178.883 109.788C180.47 109.788 181.637 109.508 182.383 108.948C183.149 108.369 183.531 107.623 183.531 106.708C183.531 105.961 183.261 105.373 182.719 104.944C182.178 104.496 181.273 104.141 180.003 103.88L177.007 103.264C175.234 102.891 173.909 102.275 173.031 101.416C172.173 100.557 171.743 99.4001 171.743 97.9441C171.743 97.0668 171.921 96.2641 172.275 95.5361C172.649 94.8081 173.162 94.1828 173.815 93.6601C174.469 93.1188 175.253 92.7081 176.167 92.4281C177.082 92.1481 178.081 92.0081 179.163 92.0081C180.321 92.0081 181.403 92.1575 182.411 92.4561C183.438 92.7548 184.353 93.2121 185.155 93.8281C185.398 93.9961 185.557 94.2108 185.631 94.4721C185.725 94.7148 185.743 94.9575 185.687 95.2001C185.65 95.4428 185.547 95.6481 185.379 95.8161C185.211 95.9841 184.997 96.0868 184.735 96.1241C184.474 96.1428 184.185 96.0495 183.867 95.8441C183.139 95.3588 182.393 95.0135 181.627 94.8081C180.881 94.5841 180.05 94.4721 179.135 94.4721C178.221 94.4721 177.418 94.6121 176.727 94.8921C176.055 95.1721 175.533 95.5641 175.159 96.0681C174.805 96.5721 174.627 97.1695 174.627 97.8601C174.627 98.6441 174.879 99.2695 175.383 99.7361C175.887 100.203 176.727 100.557 177.903 100.8L180.871 101.416C182.738 101.808 184.129 102.415 185.043 103.236C185.958 104.057 186.415 105.149 186.415 106.512C186.415 107.389 186.238 108.183 185.883 108.892C185.529 109.583 185.025 110.18 184.371 110.684C183.718 111.188 182.925 111.58 181.991 111.86C181.077 112.121 180.041 112.252 178.883 112.252ZM195.713 112.252C194.313 112.252 193.1 111.963 192.073 111.384C191.065 110.787 190.281 109.956 189.721 108.892C189.161 107.809 188.881 106.54 188.881 105.084C188.881 104.001 189.04 103.031 189.357 102.172C189.675 101.295 190.123 100.557 190.701 99.9601C191.299 99.3628 192.017 98.9055 192.857 98.5881C193.716 98.2521 194.668 98.0841 195.713 98.0841C196.367 98.0841 197.048 98.1868 197.757 98.3921C198.485 98.5788 199.157 98.8961 199.773 99.3441C200.016 99.4935 200.165 99.6801 200.221 99.9041C200.296 100.109 200.305 100.324 200.249 100.548C200.212 100.772 200.109 100.968 199.941 101.136C199.792 101.285 199.605 101.379 199.381 101.416C199.157 101.435 198.915 101.369 198.653 101.22C198.205 100.903 197.748 100.679 197.281 100.548C196.815 100.399 196.367 100.324 195.937 100.324C195.265 100.324 194.668 100.436 194.145 100.66C193.641 100.865 193.212 101.173 192.857 101.584C192.503 101.976 192.232 102.471 192.045 103.068C191.877 103.665 191.793 104.347 191.793 105.112C191.793 106.643 192.148 107.847 192.857 108.724C193.585 109.583 194.612 110.012 195.937 110.012C196.367 110.012 196.815 109.947 197.281 109.816C197.748 109.685 198.205 109.461 198.653 109.144C198.915 108.995 199.157 108.939 199.381 108.976C199.605 109.013 199.783 109.116 199.913 109.284C200.063 109.433 200.156 109.62 200.193 109.844C200.249 110.049 200.24 110.264 200.165 110.488C200.091 110.712 199.932 110.899 199.689 111.048C199.092 111.477 198.439 111.785 197.729 111.972C197.039 112.159 196.367 112.252 195.713 112.252ZM208.706 112.252C207.325 112.252 206.13 111.963 205.122 111.384C204.133 110.805 203.358 109.984 202.798 108.92C202.238 107.856 201.958 106.605 201.958 105.168C201.958 104.067 202.117 103.087 202.434 102.228C202.751 101.369 203.199 100.632 203.778 100.016C204.375 99.3815 205.085 98.9055 205.906 98.5881C206.746 98.2521 207.679 98.0841 208.706 98.0841C210.069 98.0841 211.245 98.3735 212.234 98.9521C213.242 99.5308 214.026 100.352 214.586 101.416C215.146 102.461 215.426 103.712 215.426 105.168C215.426 106.251 215.267 107.231 214.95 108.108C214.633 108.985 214.175 109.732 213.578 110.348C212.999 110.964 212.29 111.44 211.45 111.776C210.629 112.093 209.714 112.252 208.706 112.252ZM208.706 110.068C209.471 110.068 210.143 109.881 210.722 109.508C211.301 109.135 211.749 108.584 212.066 107.856C212.402 107.128 212.57 106.232 212.57 105.168C212.57 103.563 212.215 102.349 211.506 101.528C210.797 100.707 209.863 100.296 208.706 100.296C207.922 100.296 207.241 100.483 206.662 100.856C206.083 101.211 205.626 101.752 205.29 102.48C204.973 103.208 204.814 104.104 204.814 105.168C204.814 106.755 205.169 107.968 205.878 108.808C206.587 109.648 207.53 110.068 208.706 110.068ZM220.31 112.196C219.843 112.196 219.489 112.075 219.246 111.832C219.003 111.571 218.882 111.216 218.882 110.768V99.5681C218.882 99.1015 219.003 98.7468 219.246 98.5041C219.489 98.2615 219.825 98.1401 220.254 98.1401C220.702 98.1401 221.038 98.2615 221.262 98.5041C221.505 98.7468 221.626 99.1015 221.626 99.5681V101.612H221.346C221.645 100.492 222.195 99.6428 222.998 99.0641C223.801 98.4855 224.827 98.1495 226.078 98.0561C226.414 98.0375 226.675 98.1215 226.862 98.3081C227.067 98.4948 227.179 98.7841 227.198 99.1761C227.235 99.5681 227.151 99.8855 226.946 100.128C226.741 100.352 226.423 100.483 225.994 100.52L225.462 100.576C224.249 100.688 223.325 101.071 222.69 101.724C222.055 102.377 221.738 103.273 221.738 104.412V110.768C221.738 111.216 221.617 111.571 221.374 111.832C221.15 112.075 220.795 112.196 220.31 112.196ZM235.828 112.252C234.335 112.252 233.047 111.972 231.964 111.412C230.9 110.833 230.069 110.021 229.472 108.976C228.893 107.912 228.604 106.652 228.604 105.196C228.604 103.777 228.893 102.536 229.472 101.472C230.051 100.408 230.844 99.5775 231.852 98.9801C232.86 98.3828 234.008 98.0841 235.296 98.0841C236.248 98.0841 237.097 98.2428 237.844 98.5601C238.591 98.8588 239.225 99.3068 239.748 99.9041C240.289 100.483 240.691 101.192 240.952 102.032C241.232 102.872 241.372 103.815 241.372 104.86C241.372 105.177 241.279 105.42 241.092 105.588C240.905 105.737 240.625 105.812 240.252 105.812H230.844V104.076H239.468L238.992 104.468C238.992 103.535 238.852 102.741 238.572 102.088C238.311 101.435 237.909 100.94 237.368 100.604C236.845 100.249 236.192 100.072 235.408 100.072C234.531 100.072 233.784 100.277 233.168 100.688C232.571 101.099 232.113 101.668 231.796 102.396C231.479 103.124 231.32 103.973 231.32 104.944V105.112C231.32 106.755 231.703 107.996 232.468 108.836C233.252 109.657 234.381 110.068 235.856 110.068C236.416 110.068 237.004 109.993 237.62 109.844C238.255 109.695 238.852 109.443 239.412 109.088C239.729 108.901 240.009 108.817 240.252 108.836C240.513 108.855 240.719 108.939 240.868 109.088C241.036 109.237 241.139 109.424 241.176 109.648C241.213 109.872 241.176 110.105 241.064 110.348C240.952 110.572 240.756 110.777 240.476 110.964C239.841 111.393 239.104 111.72 238.264 111.944C237.424 112.149 236.612 112.252 235.828 112.252Z" fill="#141F1E"/>
<path d="M142.914 137V128.273H145.965C146.573 128.273 147.075 128.378 147.47 128.588C147.865 128.796 148.159 129.075 148.352 129.428C148.545 129.777 148.642 130.165 148.642 130.591C148.642 130.966 148.575 131.276 148.441 131.52C148.311 131.764 148.137 131.958 147.921 132.1C147.708 132.242 147.477 132.347 147.227 132.415V132.5C147.494 132.517 147.762 132.611 148.032 132.781C148.302 132.952 148.528 133.196 148.71 133.514C148.892 133.833 148.982 134.222 148.982 134.682C148.982 135.119 148.883 135.513 148.684 135.862C148.485 136.212 148.171 136.489 147.742 136.693C147.313 136.898 146.755 137 146.068 137H142.914ZM143.971 136.063H146.068C146.758 136.063 147.248 135.929 147.538 135.662C147.83 135.392 147.977 135.065 147.977 134.682C147.977 134.387 147.901 134.114 147.751 133.864C147.6 133.611 147.386 133.409 147.107 133.259C146.829 133.105 146.499 133.029 146.119 133.029H143.971V136.063ZM143.971 132.108H145.931C146.249 132.108 146.536 132.046 146.792 131.921C147.051 131.796 147.255 131.619 147.406 131.392C147.559 131.165 147.636 130.898 147.636 130.591C147.636 130.208 147.502 129.882 147.235 129.615C146.968 129.345 146.545 129.21 145.965 129.21H143.971V132.108ZM151.43 139.455C151.26 139.455 151.108 139.44 150.974 139.412C150.841 139.387 150.748 139.361 150.697 139.335L150.953 138.449C151.197 138.512 151.413 138.534 151.601 138.517C151.788 138.5 151.954 138.416 152.099 138.266C152.247 138.118 152.382 137.878 152.504 137.546L152.692 137.034L150.271 130.455H151.362L153.169 135.671H153.237L155.044 130.455H156.135L153.356 137.955C153.231 138.293 153.077 138.573 152.892 138.794C152.707 139.019 152.493 139.185 152.248 139.293C152.007 139.401 151.734 139.455 151.43 139.455ZM161.374 137V128.273H166.641V129.21H162.43V132.159H166.368V133.097H162.43V136.063H166.709V137H161.374ZM169.615 128.273V137H168.609V128.273H169.615ZM172.662 128.273V137H171.657V128.273H172.662ZM175.352 139.455C175.182 139.455 175.03 139.44 174.896 139.412C174.763 139.387 174.67 139.361 174.619 139.335L174.875 138.449C175.119 138.512 175.335 138.534 175.523 138.517C175.71 138.5 175.876 138.416 176.021 138.266C176.169 138.118 176.304 137.878 176.426 137.546L176.614 137.034L174.193 130.455H175.284L177.091 135.671H177.159L178.966 130.455H180.057L177.278 137.955C177.153 138.293 176.998 138.573 176.814 138.794C176.629 139.019 176.415 139.185 176.17 139.293C175.929 139.401 175.656 139.455 175.352 139.455ZM182.59 133.063V137H181.584V130.455H182.556V131.477H182.641C182.794 131.145 183.027 130.878 183.34 130.676C183.652 130.472 184.056 130.369 184.55 130.369C184.993 130.369 185.381 130.46 185.713 130.642C186.046 130.821 186.304 131.094 186.489 131.46C186.674 131.824 186.766 132.284 186.766 132.841V137H185.76V132.909C185.76 132.395 185.627 131.994 185.36 131.708C185.093 131.418 184.726 131.273 184.26 131.273C183.939 131.273 183.652 131.342 183.399 131.482C183.149 131.621 182.952 131.824 182.807 132.091C182.662 132.358 182.59 132.682 182.59 133.063ZM197.288 130.455C197.237 130.023 197.029 129.688 196.666 129.449C196.302 129.21 195.856 129.091 195.328 129.091C194.941 129.091 194.603 129.154 194.313 129.279C194.026 129.404 193.802 129.575 193.64 129.794C193.481 130.013 193.401 130.262 193.401 130.54C193.401 130.773 193.457 130.973 193.568 131.141C193.681 131.306 193.826 131.443 194.002 131.554C194.178 131.662 194.363 131.752 194.556 131.823C194.749 131.891 194.927 131.946 195.089 131.989L195.975 132.227C196.203 132.287 196.455 132.369 196.734 132.475C197.015 132.58 197.283 132.723 197.539 132.905C197.798 133.084 198.011 133.314 198.178 133.595C198.346 133.877 198.43 134.222 198.43 134.631C198.43 135.102 198.306 135.529 198.059 135.909C197.815 136.29 197.457 136.592 196.985 136.817C196.516 137.041 195.947 137.154 195.276 137.154C194.651 137.154 194.11 137.053 193.653 136.851C193.198 136.649 192.84 136.368 192.579 136.007C192.32 135.646 192.174 135.227 192.14 134.75H193.231C193.259 135.08 193.37 135.352 193.563 135.568C193.759 135.781 194.006 135.94 194.305 136.046C194.606 136.148 194.93 136.199 195.276 136.199C195.68 136.199 196.042 136.134 196.363 136.003C196.684 135.869 196.938 135.685 197.126 135.449C197.313 135.21 197.407 134.932 197.407 134.614C197.407 134.324 197.326 134.088 197.164 133.906C197.002 133.725 196.789 133.577 196.525 133.463C196.261 133.35 195.975 133.25 195.668 133.165L194.595 132.858C193.913 132.662 193.373 132.382 192.975 132.019C192.578 131.655 192.379 131.179 192.379 130.591C192.379 130.102 192.511 129.676 192.775 129.313C193.042 128.946 193.4 128.662 193.849 128.46C194.301 128.256 194.805 128.154 195.362 128.154C195.924 128.154 196.424 128.254 196.862 128.456C197.299 128.655 197.646 128.928 197.901 129.274C198.16 129.621 198.296 130.014 198.31 130.455H197.288ZM202.157 137.154C201.742 137.154 201.366 137.075 201.028 136.919C200.69 136.76 200.421 136.531 200.222 136.233C200.024 135.932 199.924 135.568 199.924 135.142C199.924 134.767 199.998 134.463 200.146 134.23C200.294 133.994 200.491 133.81 200.738 133.676C200.985 133.543 201.258 133.443 201.556 133.378C201.857 133.31 202.16 133.256 202.464 133.216C202.862 133.165 203.184 133.127 203.431 133.101C203.681 133.073 203.863 133.026 203.977 132.96C204.093 132.895 204.151 132.781 204.151 132.619V132.585C204.151 132.165 204.036 131.838 203.806 131.605C203.579 131.372 203.234 131.256 202.771 131.256C202.291 131.256 201.914 131.361 201.642 131.571C201.369 131.781 201.177 132.006 201.066 132.244L200.112 131.904C200.282 131.506 200.509 131.196 200.794 130.975C201.08 130.75 201.393 130.594 201.731 130.506C202.072 130.415 202.407 130.369 202.737 130.369C202.947 130.369 203.188 130.395 203.461 130.446C203.737 130.494 204.002 130.595 204.258 130.749C204.517 130.902 204.731 131.134 204.901 131.443C205.072 131.753 205.157 132.168 205.157 132.688V137H204.151V136.114H204.1C204.032 136.256 203.919 136.408 203.759 136.57C203.6 136.732 203.389 136.869 203.124 136.983C202.86 137.097 202.538 137.154 202.157 137.154ZM202.311 136.25C202.708 136.25 203.044 136.172 203.316 136.016C203.592 135.86 203.799 135.658 203.938 135.411C204.08 135.163 204.151 134.904 204.151 134.631V133.71C204.109 133.762 204.015 133.808 203.87 133.851C203.728 133.891 203.563 133.926 203.376 133.958C203.191 133.986 203.011 134.012 202.835 134.034C202.661 134.054 202.521 134.071 202.413 134.085C202.151 134.119 201.907 134.175 201.68 134.252C201.455 134.325 201.274 134.438 201.134 134.588C200.998 134.736 200.93 134.938 200.93 135.193C200.93 135.543 201.059 135.807 201.318 135.986C201.579 136.162 201.91 136.25 202.311 136.25ZM210.039 130.455V131.307H206.647V130.455H210.039ZM207.636 128.887H208.642V135.125C208.642 135.409 208.683 135.622 208.765 135.764C208.85 135.904 208.958 135.997 209.089 136.046C209.223 136.091 209.363 136.114 209.511 136.114C209.622 136.114 209.713 136.108 209.784 136.097C209.855 136.083 209.911 136.071 209.954 136.063L210.159 136.966C210.09 136.992 209.995 137.017 209.873 137.043C209.751 137.071 209.596 137.085 209.409 137.085C209.125 137.085 208.846 137.024 208.573 136.902C208.304 136.78 208.079 136.594 207.9 136.344C207.724 136.094 207.636 135.779 207.636 135.398V128.887ZM214.599 130.455V131.307H211.207V130.455H214.599ZM212.195 128.887H213.201V135.125C213.201 135.409 213.242 135.622 213.325 135.764C213.41 135.904 213.518 135.997 213.648 136.046C213.782 136.091 213.923 136.114 214.07 136.114C214.181 136.114 214.272 136.108 214.343 136.097C214.414 136.083 214.471 136.071 214.513 136.063L214.718 136.966C214.65 136.992 214.555 137.017 214.432 137.043C214.31 137.071 214.156 137.085 213.968 137.085C213.684 137.085 213.406 137.024 213.133 136.902C212.863 136.78 212.638 136.594 212.459 136.344C212.283 136.094 212.195 135.779 212.195 135.398V128.887ZM218.985 137.137C218.355 137.137 217.811 136.997 217.353 136.719C216.899 136.438 216.548 136.046 216.301 135.543C216.056 135.037 215.934 134.449 215.934 133.779C215.934 133.108 216.056 132.517 216.301 132.006C216.548 131.492 216.892 131.091 217.332 130.804C217.775 130.514 218.292 130.369 218.883 130.369C219.224 130.369 219.561 130.426 219.893 130.54C220.226 130.654 220.528 130.838 220.801 131.094C221.074 131.347 221.291 131.682 221.453 132.1C221.615 132.517 221.696 133.031 221.696 133.642V134.068H216.65V133.199H220.673C220.673 132.83 220.599 132.5 220.451 132.21C220.306 131.921 220.099 131.692 219.829 131.524C219.562 131.357 219.247 131.273 218.883 131.273C218.483 131.273 218.136 131.372 217.843 131.571C217.554 131.767 217.331 132.023 217.174 132.338C217.018 132.654 216.94 132.992 216.94 133.352V133.932C216.94 134.426 217.025 134.845 217.196 135.189C217.369 135.53 217.609 135.79 217.916 135.969C218.223 136.145 218.579 136.233 218.985 136.233C219.25 136.233 219.488 136.196 219.701 136.122C219.917 136.046 220.103 135.932 220.26 135.781C220.416 135.628 220.537 135.438 220.622 135.21L221.593 135.483C221.491 135.813 221.319 136.102 221.078 136.352C220.836 136.6 220.538 136.793 220.183 136.932C219.828 137.068 219.429 137.137 218.985 137.137ZM223.426 137V130.455H224.397V131.443H224.465C224.585 131.119 224.801 130.857 225.113 130.655C225.426 130.453 225.778 130.352 226.17 130.352C226.244 130.352 226.336 130.354 226.447 130.357C226.558 130.36 226.641 130.364 226.698 130.369V131.392C226.664 131.384 226.586 131.371 226.464 131.354C226.345 131.334 226.218 131.324 226.085 131.324C225.766 131.324 225.482 131.391 225.232 131.524C224.985 131.655 224.789 131.837 224.644 132.07C224.502 132.3 224.431 132.563 224.431 132.858V137H223.426ZM232.859 128.273V137H231.802V128.273H232.859ZM236.047 133.063V137H235.041V130.455H236.013V131.477H236.098C236.251 131.145 236.484 130.878 236.797 130.676C237.109 130.472 237.513 130.369 238.007 130.369C238.45 130.369 238.838 130.46 239.17 130.642C239.503 130.821 239.761 131.094 239.946 131.46C240.131 131.824 240.223 132.284 240.223 132.841V137H239.217V132.909C239.217 132.395 239.084 131.994 238.817 131.708C238.55 131.418 238.183 131.273 237.717 131.273C237.396 131.273 237.109 131.342 236.857 131.482C236.607 131.621 236.409 131.824 236.264 132.091C236.119 132.358 236.047 132.682 236.047 133.063ZM246.897 131.921L245.994 132.176C245.937 132.026 245.853 131.879 245.742 131.737C245.634 131.592 245.487 131.473 245.299 131.379C245.112 131.286 244.871 131.239 244.579 131.239C244.178 131.239 243.844 131.331 243.577 131.516C243.313 131.698 243.181 131.929 243.181 132.21C243.181 132.46 243.272 132.658 243.454 132.803C243.636 132.948 243.92 133.068 244.306 133.165L245.278 133.404C245.863 133.546 246.299 133.763 246.586 134.056C246.873 134.345 247.016 134.719 247.016 135.176C247.016 135.551 246.908 135.887 246.693 136.182C246.479 136.477 246.181 136.71 245.798 136.881C245.414 137.051 244.968 137.137 244.46 137.137C243.792 137.137 243.239 136.992 242.802 136.702C242.364 136.412 242.087 135.989 241.971 135.432L242.925 135.193C243.016 135.546 243.188 135.81 243.441 135.986C243.697 136.162 244.031 136.25 244.443 136.25C244.911 136.25 245.283 136.151 245.559 135.952C245.837 135.75 245.977 135.509 245.977 135.227C245.977 135 245.897 134.81 245.738 134.656C245.579 134.5 245.335 134.384 245.005 134.307L243.914 134.051C243.315 133.909 242.874 133.689 242.593 133.391C242.315 133.09 242.175 132.713 242.175 132.262C242.175 131.892 242.279 131.565 242.487 131.281C242.697 130.997 242.982 130.774 243.343 130.612C243.707 130.45 244.119 130.369 244.579 130.369C245.227 130.369 245.735 130.512 246.104 130.796C246.477 131.08 246.741 131.455 246.897 131.921ZM251.577 130.455V131.307H248.185V130.455H251.577ZM249.173 128.887H250.179V135.125C250.179 135.409 250.22 135.622 250.303 135.764C250.388 135.904 250.496 135.997 250.627 136.046C250.76 136.091 250.901 136.114 251.048 136.114C251.159 136.114 251.25 136.108 251.321 136.097C251.392 136.083 251.449 136.071 251.492 136.063L251.696 136.966C251.628 136.992 251.533 137.017 251.411 137.043C251.288 137.071 251.134 137.085 250.946 137.085C250.662 137.085 250.384 137.024 250.111 136.902C249.841 136.78 249.617 136.594 249.438 136.344C249.261 136.094 249.173 135.779 249.173 135.398V128.887ZM253.29 137V130.455H254.295V137H253.29ZM253.801 129.364C253.605 129.364 253.436 129.297 253.294 129.163C253.155 129.03 253.085 128.869 253.085 128.682C253.085 128.494 253.155 128.334 253.294 128.2C253.436 128.067 253.605 128 253.801 128C253.997 128 254.165 128.067 254.304 128.2C254.446 128.334 254.517 128.494 254.517 128.682C254.517 128.869 254.446 129.03 254.304 129.163C254.165 129.297 253.997 129.364 253.801 129.364ZM259.184 130.455V131.307H255.792V130.455H259.184ZM256.78 128.887H257.786V135.125C257.786 135.409 257.827 135.622 257.91 135.764C257.995 135.904 258.103 135.997 258.234 136.046C258.367 136.091 258.508 136.114 258.655 136.114C258.766 136.114 258.857 136.108 258.928 136.097C258.999 136.083 259.056 136.071 259.099 136.063L259.303 136.966C259.235 136.992 259.14 137.017 259.018 137.043C258.895 137.071 258.741 137.085 258.553 137.085C258.269 137.085 257.991 137.024 257.718 136.902C257.448 136.78 257.224 136.594 257.045 136.344C256.868 136.094 256.78 135.779 256.78 135.398V128.887ZM265.022 134.324V130.455H266.027V137H265.022V135.892H264.953C264.8 136.225 264.561 136.507 264.238 136.74C263.914 136.97 263.505 137.085 263.01 137.085C262.601 137.085 262.238 136.996 261.919 136.817C261.601 136.635 261.351 136.362 261.169 135.999C260.988 135.632 260.897 135.171 260.897 134.614V130.455H261.902V134.546C261.902 135.023 262.036 135.404 262.303 135.688C262.573 135.972 262.917 136.114 263.334 136.114C263.584 136.114 263.838 136.05 264.097 135.922C264.358 135.794 264.577 135.598 264.753 135.334C264.932 135.07 265.022 134.733 265.022 134.324ZM270.916 130.455V131.307H267.524V130.455H270.916ZM268.512 128.887H269.518V135.125C269.518 135.409 269.559 135.622 269.642 135.764C269.727 135.904 269.835 135.997 269.966 136.046C270.099 136.091 270.24 136.114 270.387 136.114C270.498 136.114 270.589 136.108 270.66 136.097C270.731 136.083 270.788 136.071 270.831 136.063L271.035 136.966C270.967 136.992 270.872 137.017 270.75 137.043C270.628 137.071 270.473 137.085 270.285 137.085C270.001 137.085 269.723 137.024 269.45 136.902C269.18 136.78 268.956 136.594 268.777 136.344C268.601 136.094 268.512 135.779 268.512 135.398V128.887ZM275.303 137.137C274.672 137.137 274.128 136.997 273.671 136.719C273.216 136.438 272.865 136.046 272.618 135.543C272.374 135.037 272.252 134.449 272.252 133.779C272.252 133.108 272.374 132.517 272.618 132.006C272.865 131.492 273.209 131.091 273.649 130.804C274.092 130.514 274.609 130.369 275.2 130.369C275.541 130.369 275.878 130.426 276.21 130.54C276.543 130.654 276.845 130.838 277.118 131.094C277.391 131.347 277.608 131.682 277.77 132.1C277.932 132.517 278.013 133.031 278.013 133.642V134.068H272.967V133.199H276.99C276.99 132.83 276.916 132.5 276.769 132.21C276.624 131.921 276.416 131.692 276.146 131.524C275.879 131.357 275.564 131.273 275.2 131.273C274.8 131.273 274.453 131.372 274.161 131.571C273.871 131.767 273.648 132.023 273.492 132.338C273.335 132.654 273.257 132.992 273.257 133.352V133.932C273.257 134.426 273.342 134.845 273.513 135.189C273.686 135.53 273.926 135.79 274.233 135.969C274.54 136.145 274.896 136.233 275.303 136.233C275.567 136.233 275.806 136.196 276.019 136.122C276.234 136.046 276.421 135.932 276.577 135.781C276.733 135.628 276.854 135.438 276.939 135.21L277.911 135.483C277.808 135.813 277.636 136.102 277.395 136.352C277.154 136.6 276.855 136.793 276.5 136.932C276.145 137.068 275.746 137.137 275.303 137.137Z" fill="#141F1E"/>
</svg>
