<svg width="21" height="20" viewBox="0 0 21 20" fill="none" xmlns="http://www.w3.org/2000/svg">
<g id="Group">
<path id="Vector" d="M11.9849 12.9697C10.0016 12.9697 8.42746 11.2864 8.42746 9.23999C8.42746 7.19361 10.033 5.51029 11.9849 5.51029C13.9368 5.51029 15.5424 7.19361 15.5424 9.23999C15.5424 11.3194 13.9683 12.9697 11.9849 12.9697ZM11.9849 6.00539C10.2849 6.00539 8.89969 7.45766 8.89969 9.23999C8.89969 11.0223 10.2849 12.4746 11.9849 12.4746C13.685 12.4746 15.0702 11.0223 15.0702 9.23999C15.0702 7.45766 13.685 6.00539 11.9849 6.00539ZM14.7868 20C14.1257 20 13.4646 19.835 12.8664 19.5379C12.0794 19.1418 11.3238 18.7788 10.6312 18.4157C8.39598 17.2275 6.63298 16.3033 4.90146 16.4683C4.01997 16.6004 3.16995 16.2373 2.60327 15.5112C1.97363 14.587 1.81622 13.3658 2.194 12.3096C2.76068 10.4942 2.50883 9.273 2.00511 8.84392C1.94215 8.7779 1.8477 8.71189 1.75326 8.64588C1.12361 8.15079 0.116187 7.35864 0.651382 5.97238C1.53288 3.76097 3.98848 -1.18996 7.51448 0.262313C10.9775 1.68158 13.2127 2.47373 14.9128 1.8136C16.235 1.2855 17.6517 1.51655 18.7536 2.37471C19.6666 3.10084 20.737 4.65213 20.4536 7.85373C20.2962 9.70208 19.6036 10.8903 18.974 11.9465C18.3443 13.0027 17.8721 13.8278 18.1554 15.0161C18.5017 16.5674 17.998 18.1517 16.8647 19.2079C16.298 19.736 15.5424 20 14.7868 20ZM5.27925 15.9402C7.01077 15.9402 8.7108 16.8314 10.8516 17.9536C11.5442 18.3167 12.2998 18.7128 13.0868 19.0758C14.4091 19.7029 15.6683 19.6369 16.5813 18.8448C17.5887 17.9206 17.998 16.5013 17.7147 15.1481C17.3999 13.7618 17.9665 12.8047 18.5962 11.6824C19.1629 10.6923 19.8555 9.53705 19.9814 7.78772C20.2018 5.44428 19.6666 3.69495 18.4702 2.73778C17.4943 1.97863 16.235 1.7806 15.1017 2.20968C13.2757 2.93581 10.946 2.11066 7.35707 0.658387C4.20886 -0.628853 1.91067 4.02502 1.09213 6.1044C0.714346 7.06158 1.28102 7.58968 2.03659 8.18379C2.13104 8.2498 2.22549 8.34882 2.31993 8.41484C2.94957 8.94293 3.35884 10.2632 2.66624 12.4416C2.35142 13.3658 2.44586 14.389 2.98106 15.1811C3.42181 15.7752 4.14589 16.0723 4.86998 15.9732C4.99591 15.9402 5.15332 15.9402 5.27925 15.9402ZM14.1572 10.7913C14.6294 9.96613 14.6924 8.94293 14.3146 8.05177C14.2831 7.98576 14.1887 7.95275 14.0942 7.98576C14.0313 7.98576 13.9998 8.08477 14.0313 8.15079C14.3776 8.94293 14.3146 9.86711 13.8739 10.5932C13.8424 10.6593 13.8424 10.7583 13.9368 10.8243C13.9683 10.8243 13.9998 10.8573 14.0313 10.8573C14.0628 10.8573 14.1257 10.8243 14.1572 10.7913ZM13.9368 7.65569C13.9998 7.58968 14.0313 7.49066 13.9683 7.42465C13.8424 7.25962 13.7165 7.09459 13.559 6.96256C13.4961 6.89655 13.4016 6.89655 13.3387 6.96256C13.2757 7.02858 13.2757 7.12759 13.3387 7.19361C13.4646 7.32563 13.5905 7.45766 13.685 7.58968C13.7794 7.6887 13.8739 7.72171 13.9368 7.65569ZM10.4738 13.2007C10.5053 13.1017 10.4423 13.0357 10.3479 13.0027C9.81267 12.8707 9.34044 12.5736 8.99414 12.1115C8.83673 11.9135 8.74228 11.7155 8.64783 11.4844C8.61635 11.3854 8.52191 11.3524 8.42746 11.3854C8.33301 11.4184 8.30153 11.5174 8.33301 11.6164C8.42746 11.8805 8.58487 12.1115 8.74228 12.3096C9.12006 12.8047 9.65526 13.1677 10.2534 13.2997H10.2849C10.3793 13.3328 10.4423 13.2667 10.4738 13.2007Z" fill="black"/>
</g>
</svg>
