<?xml version="1.0" encoding="UTF-8"?>
<svg id="Layer_1" data-name="Layer 1" xmlns="http://www.w3.org/2000/svg" viewBox="0 0 24 24">
  <defs>
    <style>
      .cls-1 {
        fill: #41cc97;
      }

      .cls-1, .cls-2 {
        stroke-width: 0px;
      }

      .cls-2 {
        fill: #fff;
      }
    </style>
  </defs>
  <g>
    <rect class="cls-1" x="0" y="0" width="24" height="24" rx="12" ry="12"/>
    <g>
      <path class="cls-2" d="m10.2123,4.1335h1.7877v-.6385h-1.7877c-.5363,0-.9619.4341-.9619.9619v.3234c0,.0681.0085.1362.017.2044.0085.017.017.034.017.0511.017.0511.034.1021.0596.1532.0085.017.017.034.0255.0511.0256.0426.0511.0851.0852.1277.0085.017.0255.0341.034.0426.0341.0426.0766.0766.1107.1107.017.0085.0256.017.034.0255.1362.1021.2213.2554.2299.4171,0,.0596-.0085.1447-.0596.2213-.1021.1192-.2383.2299-.2979.2809-.6555.5448-1.5408,1.2939-1.5408,2.8007v9.7046c0,.8172.647,1.4897,1.4557,1.5238h2.5794v-.6299h-2.5028c-.4938,0-.8938-.4001-.8938-.8938v-9.7046c0-1.2088.6981-1.7877,1.3109-2.307.0852-.0681.1617-.1362.2384-.2043l.0085-.0085c.2383-.2128.3575-.5022.3405-.8172,0-.0596-.017-.1277-.034-.1873h1.5323v-.6469h-1.7877c-.0852,0-.1533-.0256-.2044-.0766-.0255-.0256-.0511-.0511-.0681-.0766-.0085-.0085-.017-.017-.017-.034-.0255-.034-.034-.0851-.034-.1277v-.3234c0-.1788.1447-.3235.3235-.3235Z"/>
      <path class="cls-2" d="m14.4942,6.4659c-.0596-.0511-.1958-.1617-.2979-.2809-.0511-.0766-.0596-.1617-.0596-.2213.0085-.1617.0936-.315.2299-.4171.0085-.0085.017-.017.034-.0255.034-.0341.0766-.0681.1107-.1107.0085-.0085.0255-.0256.034-.0426.0341-.0426.0596-.0851.0852-.1277.0085-.017.017-.0341.0255-.0511.0256-.0511.0426-.1021.0596-.1532,0-.017.0085-.0341.017-.0511.0085-.0681.017-.1362.017-.2044v-.3234c0-.5278-.4256-.9619-.9619-.9619h-1.7877v.6385h1.7877c.1788,0,.3235.1447.3235.3235v.3234c0,.0426-.0085.0937-.034.1277,0,.017-.0085.0256-.017.034-.017.0256-.0426.0511-.0681.0766-.0511.0511-.1192.0766-.2044.0766h-1.7877v.6469h1.5323c-.017.0596-.034.1277-.034.1873-.017.315.1021.6044.3405.8172l.0085.0085c.0766.0681.1532.1362.2384.2043.6129.5193,1.3109,1.0982,1.3109,2.307v9.7046c0,.4937-.4001.8938-.8938.8938h-2.5028v.6299h2.5794c.8087-.034,1.4557-.7066,1.4557-1.5238v-9.7046c0-1.5068-.8853-2.2559-1.5408-2.8007Z"/>
      <path class="cls-2" d="m14.1112,4.4569v.3234c0,.0426-.0085.0937-.034.1277,0,.017-.0085.0256-.017.034-.017.0256-.0426.0511-.0681.0766-.0511.0511-.1192.0766-.2044.0766h-3.5753c-.0852,0-.1533-.0256-.2044-.0766-.0255-.0256-.0511-.0511-.0681-.0766-.0085-.0085-.017-.017-.017-.034-.0255-.034-.034-.0851-.034-.1277v-.3234c0-.1788.1447-.3235.3235-.3235h3.5753c.1788,0,.3235.1447.3235.3235Z"/>
      <path class="cls-2" d="m15.3966,12.842v6.1292c0,.4937-.4001.8938-.8938.8938h-5.0055c-.4938,0-.8938-.4001-.8938-.8938v-6.4271c.664-.2213,1.4131-.1362,2.1026.0426.8343.2213,1.6345.5874,2.4858.7321.7746.1277,1.5238-.0766,2.2048-.4767Z"/>
    </g>
  </g>
  <g>
    <rect class="cls-1" x="0" y="0" width="24" height="24" rx="12" ry="12"/>
    <g>
      <path class="cls-2" d="m10.2123,4.1335h1.7877v-.6385h-1.7877c-.5363,0-.9619.4341-.9619.9619v.3234c0,.0681.0085.1362.017.2044.0085.017.017.034.017.0511.017.0511.034.1021.0596.1532.0085.017.017.034.0255.0511.0256.0426.0511.0851.0852.1277.0085.017.0255.0341.034.0426.0341.0426.0766.0766.1107.1107.017.0085.0256.017.034.0255.1362.1021.2213.2554.2299.4171,0,.0596-.0085.1447-.0596.2213-.1021.1192-.2383.2299-.2979.2809-.6555.5448-1.5408,1.2939-1.5408,2.8007v9.7046c0,.8172.647,1.4897,1.4557,1.5238h2.5794v-.6299h-2.5028c-.4938,0-.8938-.4001-.8938-.8938v-9.7046c0-1.2088.6981-1.7877,1.3109-2.307.0852-.0681.1617-.1362.2384-.2043l.0085-.0085c.2383-.2128.3575-.5022.3405-.8172,0-.0596-.017-.1277-.034-.1873h1.5323v-.6469h-1.7877c-.0852,0-.1533-.0256-.2044-.0766-.0255-.0256-.0511-.0511-.0681-.0766-.0085-.0085-.017-.017-.017-.034-.0255-.034-.034-.0851-.034-.1277v-.3234c0-.1788.1447-.3235.3235-.3235Z"/>
      <path class="cls-2" d="m14.4942,6.4659c-.0596-.0511-.1958-.1617-.2979-.2809-.0511-.0766-.0596-.1617-.0596-.2213.0085-.1617.0936-.315.2299-.4171.0085-.0085.017-.017.034-.0255.034-.0341.0766-.0681.1107-.1107.0085-.0085.0255-.0256.034-.0426.0341-.0426.0596-.0851.0852-.1277.0085-.017.017-.0341.0255-.0511.0256-.0511.0426-.1021.0596-.1532,0-.017.0085-.0341.017-.0511.0085-.0681.017-.1362.017-.2044v-.3234c0-.5278-.4256-.9619-.9619-.9619h-1.7877v.6385h1.7877c.1788,0,.3235.1447.3235.3235v.3234c0,.0426-.0085.0937-.034.1277,0,.017-.0085.0256-.017.034-.017.0256-.0426.0511-.0681.0766-.0511.0511-.1192.0766-.2044.0766h-1.7877v.6469h1.5323c-.017.0596-.034.1277-.034.1873-.017.315.1021.6044.3405.8172l.0085.0085c.0766.0681.1532.1362.2384.2043.6129.5193,1.3109,1.0982,1.3109,2.307v9.7046c0,.4937-.4001.8938-.8938.8938h-2.5028v.6299h2.5794c.8087-.034,1.4557-.7066,1.4557-1.5238v-9.7046c0-1.5068-.8853-2.2559-1.5408-2.8007Z"/>
      <path class="cls-2" d="m14.1112,4.4569v.3234c0,.0426-.0085.0937-.034.1277,0,.017-.0085.0256-.017.034-.017.0256-.0426.0511-.0681.0766-.0511.0511-.1192.0766-.2044.0766h-3.5753c-.0852,0-.1533-.0256-.2044-.0766-.0255-.0256-.0511-.0511-.0681-.0766-.0085-.0085-.017-.017-.017-.034-.0255-.034-.034-.0851-.034-.1277v-.3234c0-.1788.1447-.3235.3235-.3235h3.5753c.1788,0,.3235.1447.3235.3235Z"/>
      <path class="cls-2" d="m15.3966,12.842v6.1292c0,.4937-.4001.8938-.8938.8938h-5.0055c-.4938,0-.8938-.4001-.8938-.8938v-6.4271c.664-.2213,1.4131-.1362,2.1026.0426.8343.2213,1.6345.5874,2.4858.7321.7746.1277,1.5238-.0766,2.2048-.4767Z"/>
    </g>
  </g>
</svg>