<svg width="259" height="259" viewBox="0 0 259 259" fill="none" xmlns="http://www.w3.org/2000/svg">
<path d="M41.8498 239.874C41.889 240.128 42.0081 240.363 42.1905 240.547C42.3728 240.731 42.6092 240.855 42.8667 240.901C43.1241 240.946 43.3897 240.912 43.6261 240.802C43.8626 240.692 44.0581 240.512 44.1853 240.288C46.8417 235.621 53.438 226.834 67.9084 220.405C81.5765 214.344 70.0953 199.234 59.4817 204.262C48.0361 209.682 39.5322 224.571 41.8498 239.874Z" fill="#92E3A9"/>
<path opacity="0.2" d="M43.591 238.287C44.3175 236.26 45.4331 234.388 46.8773 232.773C50.4429 228.649 55.6368 224.11 50.6628 226.584C54.0285 224.112 57.6688 222.024 61.5141 220.359C67.1893 218.025 56.3558 218.293 56.3558 218.293C56.3558 218.293 69.0077 210.808 67.0526 208.51C65.4362 206.625 57.8237 212.553 57.8237 212.553C57.8237 212.553 59.1964 207.354 57.8237 207.209C56.4509 207.063 51.8216 217.628 51.8216 217.628C51.8216 217.628 52.3683 214.314 50.6747 214.67C48.981 215.026 41.6537 230.778 43.591 238.287Z" fill="#263238"/>
<path d="M34.0235 239.512C34.0164 239.74 33.936 239.961 33.7938 240.142C33.6515 240.323 33.4547 240.455 33.2314 240.52C33.008 240.584 32.7696 240.578 32.5501 240.502C32.3306 240.426 32.1412 240.283 32.0089 240.095C29.2278 236.21 22.6017 229.08 9.26045 224.699C-3.32014 220.569 5.3383 206.263 15.1556 209.752C25.7335 213.492 34.6237 225.843 34.0235 239.512Z" fill="#92E3A9"/>
<path opacity="0.2" d="M32.1339 237.359C31.2966 235.707 30.1448 234.228 28.7406 233.001C25.2345 229.857 20.3437 226.525 24.8422 228.124C21.7087 226.37 18.3835 224.969 14.9299 223.947C9.84895 222.564 19.0898 221.666 19.0898 221.666C19.0898 221.666 7.50754 216.596 8.92784 214.431C10.1164 212.681 17.2475 216.934 17.2475 216.934C17.2475 216.934 15.5123 212.646 16.6533 212.384C17.7943 212.121 22.899 220.621 22.899 220.621C22.899 220.621 22.067 217.856 23.5468 217.99C25.0265 218.124 32.9658 230.767 32.1339 237.359Z" fill="black"/>
<path d="M15.6665 218.311C15.6665 218.311 29.9645 225.312 35.1703 246.396" stroke="#263238" stroke-width="0.75" stroke-linecap="round" stroke-linejoin="round"/>
<path d="M39.2408 240.317C39.0892 240.596 38.853 240.821 38.565 240.962C38.277 241.103 37.9514 241.153 37.6333 241.104C37.3153 241.056 37.0206 240.911 36.79 240.69C36.5595 240.47 36.4046 240.184 36.3467 239.874C35.2295 233.357 31.242 220.522 17.0866 207.29C3.73346 194.817 23.4928 181.731 33.726 191.801C44.7972 202.652 48.4162 223.386 39.2408 240.317Z" fill="#92E3A9"/>
<path opacity="0.2" d="M37.7917 237.709C37.6985 235.02 37.077 232.373 35.9613 229.915C33.2277 223.678 28.7707 216.386 33.7863 221.135C30.6915 216.969 27.1227 213.164 23.149 209.793C17.2063 204.992 30.1257 209.163 30.1257 209.163C30.1257 209.163 17.8065 195.657 21.0512 193.604C23.7135 191.918 30.5595 201.771 30.5595 201.771C30.5595 201.771 30.9041 195.039 32.6037 195.354C34.3033 195.669 35.8247 209.986 35.8247 209.986C35.8247 209.986 36.4189 205.814 38.3265 206.847C40.2341 207.88 42.9974 229.39 37.7917 237.709Z" fill="#263238"/>
<path d="M29.1094 202.932C29.1094 202.932 42.8428 220.055 36.4545 249.675" stroke="#263238" stroke-width="0.75" stroke-linecap="round" stroke-linejoin="round"/>
<path d="M59.9392 213.941C59.9392 213.941 44.6903 223.474 41.3862 247.744" stroke="#263238" stroke-width="0.75" stroke-linecap="round" stroke-linejoin="round"/>
<path d="M47.5787 257.697H28.5623C27.5421 257.704 26.5547 257.344 25.7877 256.683C25.0207 256.023 24.5277 255.109 24.4024 254.115L23.3922 245.568C23.3721 245.379 23.3929 245.188 23.4532 245.007C23.5134 244.826 23.6118 244.66 23.7419 244.519C23.8719 244.378 24.0308 244.266 24.2081 244.189C24.3854 244.112 24.5772 244.073 24.7709 244.074H51.3226C51.5163 244.073 51.7081 244.112 51.8854 244.189C52.0627 244.266 52.2215 244.378 52.3516 244.519C52.4817 244.66 52.5801 244.826 52.6403 245.007C52.7006 245.188 52.7213 245.379 52.7013 245.568L51.6911 254.115C51.5667 255.101 51.0806 256.008 50.3236 256.668C49.5666 257.327 48.5907 257.693 47.5787 257.697Z" fill="white" stroke="#263238" stroke-miterlimit="10"/>
<path d="M28.1344 248.129H25.27" stroke="#263238" stroke-linecap="round" stroke-linejoin="round"/>
<path d="M51.0251 248.129H31.2539" stroke="#263238" stroke-linecap="round" stroke-linejoin="round"/>
<path d="M216.047 227.103C216.1 227.196 215.601 227.657 217.235 227.727C221.282 227.902 228.449 227.657 231.153 224.046C235.01 218.894 226.149 219.344 226.993 216.497C227.837 213.65 237.375 216.006 239.247 211.946C241.119 207.885 234.19 208.661 234.493 206.573C234.796 204.484 242.076 207.209 244.482 202.903C246.889 198.598 240.536 200.89 241.57 199.105C242.604 197.32 250.68 189.911 247.424 188.242C244.167 186.574 236.638 194.315 234.13 195.138C231.622 195.961 231.082 188.347 227.789 190.885C224.497 193.423 226.601 204.928 222.792 206.339C219.939 207.395 221.508 203.282 217.99 203.422C213.212 203.632 211.59 219.74 216.047 227.103Z" fill="#92E3A9"/>
<g opacity="0.1">
<path d="M216.047 227.103C216.1 227.196 215.601 227.657 217.235 227.727C221.282 227.902 228.449 227.657 231.153 224.046C235.01 218.894 226.149 219.344 226.993 216.497C227.837 213.65 237.375 216.006 239.247 211.946C241.119 207.885 234.19 208.661 234.493 206.573C234.796 204.484 242.076 207.209 244.482 202.903C246.889 198.598 240.536 200.89 241.57 199.105C242.604 197.32 250.68 189.911 247.424 188.242C244.167 186.574 236.638 194.315 234.13 195.138C231.622 195.961 231.082 188.347 227.789 190.885C224.497 193.423 226.601 204.928 222.792 206.339C219.939 207.395 221.508 203.282 217.99 203.422C213.212 203.632 211.59 219.74 216.047 227.103Z" fill="black"/>
</g>
<path d="M232.14 203.44C232.14 203.44 216.433 214.011 212.98 240.912" stroke="#263238" stroke-width="0.75" stroke-linecap="round" stroke-linejoin="round"/>
<path d="M234.54 206.759C230.743 205.96 228.419 206.695 228.419 206.695" stroke="#263238" stroke-width="0.75" stroke-linecap="round" stroke-linejoin="round"/>
<path d="M230.238 195.645C230.238 195.645 225.484 201.847 225.484 209.933" stroke="#263238" stroke-width="0.75" stroke-linecap="round" stroke-linejoin="round"/>
<path d="M220.825 216.759C220.825 216.759 224.23 213.62 228.74 215.225" stroke="#263238" stroke-width="0.75" stroke-linecap="round" stroke-linejoin="round"/>
<path d="M218.37 221.526C217.233 218.357 216.957 214.953 217.567 211.648" stroke="#263238" stroke-width="0.75" stroke-linecap="round" stroke-linejoin="round"/>
<path d="M211.245 231.239C207.911 231.303 202.218 228.264 199.984 225.306C197.749 222.348 204.096 224.139 203.442 221.805C202.789 219.472 194.921 221.193 193.471 217.821C192.021 214.449 197.696 215.225 197.47 213.498C197.244 211.771 191.367 212.121 189.477 208.539C187.587 204.957 192.763 206.964 191.949 205.476C191.135 203.988 184.658 197.734 187.367 196.427C190.077 195.12 196.157 201.643 198.195 202.366C200.233 203.09 200.703 198.592 203.353 200.744C206.004 202.897 204.019 212.308 207.139 213.55C209.456 214.472 208.47 210.166 211.144 211.252C215.839 213.159 212.6 231.216 211.245 231.239Z" fill="#92E3A9"/>
<g opacity="0.3">
<path d="M211.245 231.239C207.911 231.303 202.218 228.264 199.984 225.306C197.749 222.348 204.096 224.139 203.442 221.805C202.789 219.472 194.921 221.193 193.471 217.821C192.021 214.449 197.696 215.225 197.47 213.498C197.244 211.771 191.367 212.121 189.477 208.539C187.587 204.957 192.763 206.964 191.949 205.476C191.135 203.988 184.658 197.734 187.367 196.427C190.077 195.12 196.157 201.643 198.195 202.366C200.233 203.09 200.703 198.592 203.353 200.744C206.004 202.897 204.019 212.308 207.139 213.55C209.456 214.472 208.47 210.166 211.144 211.252C215.839 213.159 212.6 231.216 211.245 231.239Z" fill="white"/>
</g>
<path d="M195.159 203.44C195.159 203.44 211.798 219.443 212.737 243.362" stroke="#263238" stroke-width="0.75" stroke-linecap="round" stroke-linejoin="round"/>
<path d="M194.754 210.867C197.148 210.85 199.52 211.315 201.725 212.232" stroke="#263238" stroke-width="0.75" stroke-linecap="round" stroke-linejoin="round"/>
<path d="M200.982 202.396C200.982 202.396 204.72 208.16 204.048 215.277" stroke="#263238" stroke-width="0.75" stroke-linecap="round" stroke-linejoin="round"/>
<path d="M206.444 219.309C205.536 218.488 204.433 217.904 203.236 217.61C202.039 217.317 200.786 217.323 199.592 217.628" stroke="#263238" stroke-width="0.75" stroke-linecap="round" stroke-linejoin="round"/>
<path d="M209.468 225.948C210.716 223.238 211.224 220.256 210.942 217.296" stroke="#263238" stroke-width="0.75" stroke-linecap="round" stroke-linejoin="round"/>
<path d="M196.822 242.983C196.822 251.285 204.161 258 213.212 258C222.262 258 229.625 251.279 229.625 242.983C229.625 238.316 224.408 234.127 219.861 231.373H206.609C202.063 234.127 196.822 238.31 196.822 242.983Z" fill="white" stroke="#263238" stroke-miterlimit="10"/>
<path d="M203.371 243.607H200.507" stroke="#263238" stroke-linecap="round" stroke-linejoin="round"/>
<path d="M226.262 243.607H206.491" stroke="#263238" stroke-linecap="round" stroke-linejoin="round"/>
<path d="M190.571 33.8841V27.735" stroke="#263238" stroke-linecap="round" stroke-linejoin="round"/>
<path d="M192.882 32.0347L190.583 34.2925L188.283 32.0347" stroke="#263238" stroke-linecap="round" stroke-linejoin="round"/>
<path d="M193.435 26.3406H187.76" stroke="#263238" stroke-linecap="round" stroke-linejoin="round"/>
<path d="M188.746 22.525C189.321 22.3986 189.909 22.3341 190.499 22.3325C192.296 22.337 194.039 22.9404 195.441 24.044C196.843 25.1475 197.822 26.6859 198.218 28.407C198.613 30.1282 198.402 31.9302 197.618 33.518C196.834 35.1057 195.524 36.3851 193.903 37.1467C192.282 37.9082 190.445 38.1068 188.694 37.7098C186.943 37.3128 185.381 36.3439 184.264 34.9616C183.147 33.5794 182.541 31.8657 182.545 30.1013C182.55 28.3369 183.165 26.6263 184.289 25.2496" stroke="#263238" stroke-linecap="round" stroke-linejoin="round"/>
<path d="M186.126 23.6393C186.46 23.4211 186.81 23.2261 187.172 23.0559" stroke="#263238" stroke-linecap="round" stroke-linejoin="round"/>
<path d="M58.18 26.5798H70.4278V32.7289H51.7441V26.5798H53.1882" stroke="#263238" stroke-linecap="round" stroke-linejoin="round"/>
<path d="M54.9175 26.5798H56.6587" stroke="#263238" stroke-linecap="round" stroke-linejoin="round"/>
<path d="M64.6874 38.1894L61.0862 41.7248L57.479 38.1894H59.1667V34.6248H62.9997V38.1894H64.6874Z" stroke="#263238" stroke-linecap="round" stroke-linejoin="round"/>
<path d="M157.791 206.689H170.455L161.363 216.922L152.271 206.689H154.939" stroke="#263238" stroke-linecap="round" stroke-linejoin="round"/>
<path d="M161.362 198.632H167.192L161.362 205.196L155.532 198.632H158.391" stroke="#263238" stroke-linecap="round" stroke-linejoin="round"/>
<path d="M248.683 47.2032H2.55664V183.604H248.683V47.2032Z" fill="#BFBFBF" stroke="#263238" stroke-linecap="round" stroke-linejoin="round"/>
<path d="M246.105 49.8695H5.13623V181.002H246.105V49.8695Z" fill="#92E3A9"/>
<mask id="mask0_2258_62223" style="mask-type:luminance" maskUnits="userSpaceOnUse" x="5" y="49" width="242" height="133">
<path d="M246.105 49.8695H5.13623V181.002H246.105V49.8695Z" fill="white"/>
</mask>
<g mask="url(#mask0_2258_62223)">
<path opacity="0.9" d="M246.105 49.8695H5.13623V181.002H246.105V49.8695Z" fill="white" stroke="#263238" stroke-miterlimit="10"/>
</g>
<path d="M246.105 49.8695H5.13623V181.002H246.105V49.8695Z" stroke="#263238" stroke-miterlimit="10"/>
<path d="M246.105 49.7821H5.13623V63.2471H246.105V49.7821Z" fill="#92E3A9" stroke="#263238" stroke-linecap="round" stroke-linejoin="round"/>
<path opacity="0.2" d="M196.68 52.4072H167.21V60.6099H196.68V52.4072Z" fill="black"/>
<path d="M190.517 54.0759H172.166V59.1748H190.517V54.0759Z" fill="white" stroke="#263238" stroke-linecap="round" stroke-linejoin="round"/>
<path d="M58.0616 54.0759H21.2588V59.1748H58.0616V54.0759Z" fill="white" stroke="#263238" stroke-linecap="round" stroke-linejoin="round"/>
<path d="M162.289 54.0759H143.938V59.1748H162.289V54.0759Z" fill="white" stroke="#263238" stroke-linecap="round" stroke-linejoin="round"/>
<path d="M218.744 54.0759H200.394V59.1748H218.744V54.0759Z" fill="white" stroke="#263238" stroke-linecap="round" stroke-linejoin="round"/>
<path d="M40.1203 107.44C49.9435 107.44 57.9067 99.7373 57.9067 90.2354C57.9067 80.7336 49.9435 73.0308 40.1203 73.0308C30.2972 73.0308 22.334 80.7336 22.334 90.2354C22.334 99.7373 30.2972 107.44 40.1203 107.44Z" fill="#92E3A9" stroke="#263238" stroke-linecap="round" stroke-linejoin="round"/>
<path d="M22.8809 114.038H57.7345" stroke="#263238" stroke-width="2" stroke-linecap="round" stroke-linejoin="round"/>
<path d="M38.7413 122.55H29.8809V127.381H38.7413V122.55Z" fill="#263238" stroke="#263238" stroke-linecap="round" stroke-linejoin="round"/>
<path d="M47.5959 131.92H29.8809V136.75H47.5959V131.92Z" fill="#263238" stroke="#263238" stroke-linecap="round" stroke-linejoin="round"/>
<path d="M43.2399 141.289H29.8809V146.12H43.2399V141.289Z" fill="#263238" stroke="#263238" stroke-linecap="round" stroke-linejoin="round"/>
<path d="M49.5391 150.659H29.8809V155.489H49.5391V150.659Z" fill="#263238" stroke="#263238" stroke-linecap="round" stroke-linejoin="round"/>
<path d="M236.923 71.0005H67.0469V172.957H236.923V71.0005Z" fill="white" stroke="#263238" stroke-linecap="round" stroke-linejoin="round"/>
<path d="M227.754 97.2536H197.072V148.745H227.754V97.2536Z" fill="#BFBFBF" stroke="#263238" stroke-linecap="round" stroke-linejoin="round"/>
<path d="M203.115 104.476H221.715" stroke="#263238" stroke-width="2" stroke-linecap="round" stroke-linejoin="round"/>
<path d="M203.115 121.273H221.715" stroke="#263238" stroke-width="2" stroke-linecap="round" stroke-linejoin="round"/>
<path d="M203.115 138.063H221.715" stroke="#263238" stroke-width="2" stroke-linecap="round" stroke-linejoin="round"/>
<path d="M197.072 63.037H166.39V114.529H197.072V63.037Z" fill="#BFBFBF" stroke="#263238" stroke-linecap="round" stroke-linejoin="round"/>
<path opacity="0.2" d="M194.142 99.9433H169.641V108.146H194.142V99.9433Z" fill="white"/>
<path d="M172.6 70.4171H191.2" stroke="#263238" stroke-width="2" stroke-linecap="round" stroke-linejoin="round"/>
<path d="M172.6 87.2075H191.2" stroke="#263238" stroke-width="2" stroke-linecap="round" stroke-linejoin="round"/>
<path d="M172.6 104.004H191.2" stroke="#92E3A9" stroke-width="2" stroke-linecap="round" stroke-linejoin="round"/>
<path d="M195.218 108.7L193.09 109.99L194.588 112.312L192.644 113.49L191.147 111.168L189.138 112.382L188.372 104.657L195.218 108.7Z" fill="white" stroke="#263238" stroke-linecap="round" stroke-linejoin="round"/>
<path d="M125.249 117.236L127.364 109.418C120.869 105.019 114.243 98.9165 108.223 93.6659C105.554 91.2288 103.094 88.5809 100.866 85.749L90.8289 73.7134C89.0461 71.5547 84.6426 63.9238 80.1321 67.4767C76.8874 69.6587 76.8577 77.3947 78.6524 82.0619C80.5421 86.9917 82.7528 90.0138 86.6512 93.0416C90.5495 96.0695 100.563 106.39 102.233 107.685C109.239 113.158 116.905 115.695 125.249 117.236Z" fill="#263238"/>
<path d="M125.249 117.236L127.364 109.418C120.869 105.019 114.243 98.9165 108.223 93.6659C105.554 91.2288 103.094 88.5809 100.866 85.749L90.8289 73.7134C89.0461 71.5547 84.6426 63.9238 80.1321 67.4767C76.8874 69.6587 76.8577 77.3947 78.6524 82.0619C80.5421 86.9917 82.7528 90.0138 86.6512 93.0416C90.5495 96.0695 100.563 106.39 102.233 107.685C109.239 113.158 116.905 115.695 125.249 117.236Z" stroke="#263238" stroke-width="0.920831" stroke-linecap="round" stroke-linejoin="round"/>
<path d="M139.012 75.8251L138.839 76.7177C138.839 76.6477 139.725 76.1343 140.176 76.3502C140.466 76.5084 140.732 76.7047 140.967 76.9336L141.918 75.6968L140.004 75.2884L139.012 75.8251Z" fill="#263238" stroke="#263238" stroke-linecap="round" stroke-linejoin="round"/>
<path d="M140.005 75.271L139.012 75.8252C138.876 76.322 138.805 76.8336 138.798 77.3479C138.828 77.8847 139.743 78.2639 140.243 78.4797C141.051 78.1472 142.269 77.3129 143.077 76.9629C144.266 75.5744 145.145 77.3946 144.052 79.1857C144.052 79.1857 141.122 81.2976 139.048 82.4819C137.627 82.6809 136.22 82.9654 134.835 83.3337C134.08 82.0385 131.923 79.1623 131.923 79.1623C132.886 78.4972 135.435 73.655 136.772 72.1031L140.902 71.8581C142.126 71.7764 142.477 72.7857 143.576 74.11L140.005 75.271Z" fill="#757575" stroke="#263238" stroke-linecap="round" stroke-linejoin="round"/>
<path d="M136.998 72.0915L142.815 71.3914C145.62 71.4906 148.104 71.7181 149.798 72.5582C150.089 72.7041 150.452 72.7566 150.624 73.025C150.915 73.4742 150.565 73.7775 150.06 73.9759C149.499 74.1648 148.898 74.2011 148.318 74.0809C147.249 73.8534 143.564 74.0809 143.564 74.0809C141.957 74.4007 140.414 74.9803 139 75.7961" fill="#757575"/>
<path d="M136.998 72.0915L142.815 71.3914C145.62 71.4906 148.104 71.7181 149.798 72.5582C150.089 72.7041 150.452 72.7566 150.624 73.025C150.915 73.4742 150.565 73.7775 150.06 73.9759C149.499 74.1648 148.898 74.2011 148.318 74.0809C147.249 73.8534 143.564 74.0809 143.564 74.0809C141.957 74.4007 140.414 74.9803 139 75.7961" stroke="#263238" stroke-linecap="round" stroke-linejoin="round"/>
<path d="M143.492 76.0295C143.464 76.3404 143.325 76.6316 143.1 76.8521C142.34 77.2955 141.377 77.8731 140.575 78.2348C140.093 78.0429 139.644 77.7792 139.243 77.453L138.804 77.0855C138.869 76.7529 139.434 76.3912 139.772 76.3212C140.367 76.1987 140.961 76.9046 140.961 76.9046C140.563 76.4612 140.723 76.6362 140.723 76.6362C140.604 76.5779 140.527 76.4904 140.408 76.4321C140.452 76.2624 140.547 76.1098 140.682 75.9945C141.027 76.0633 141.385 76.0203 141.704 75.872C141.216 76.2395 140.438 75.5978 139.998 75.2594L143.492 76.0295Z" fill="#757575" stroke="#263238" stroke-linecap="round" stroke-linejoin="round"/>
<path d="M136.166 84.2612L131.685 77.3478C123.324 80.2649 113.518 82.1843 104.889 84.1679C101.039 85.0546 109.008 99.1323 111.29 98.4905C120.828 95.8127 128.63 90.6612 136.166 84.2612Z" fill="#263238"/>
<mask id="mask1_2258_62223" style="mask-type:luminance" maskUnits="userSpaceOnUse" x="103" y="77" width="34" height="22">
<path d="M136.166 84.2612L131.685 77.3478C123.324 80.2649 113.518 82.1843 104.889 84.1679C101.039 85.0546 109.008 99.1323 111.29 98.4905C120.828 95.8127 128.63 90.6612 136.166 84.2612Z" fill="white"/>
</mask>
<g mask="url(#mask1_2258_62223)">
<path opacity="0.4" d="M104.889 84.1678C103.275 84.5312 101.642 84.8077 99.998 84.9962L109.316 98.8988C110.243 98.7297 110.927 98.5896 111.289 98.4905C120.827 95.8126 128.63 90.6611 136.165 84.2612L131.684 77.3478C123.323 80.2706 113.518 82.1842 104.889 84.1678Z" fill="black" stroke="#263238" stroke-linecap="round" stroke-linejoin="round"/>
</g>
<path d="M136.166 84.2612L131.685 77.3478C123.324 80.2649 113.518 82.1843 104.889 84.1679C101.039 85.0546 109.008 99.1323 111.29 98.4905C120.828 95.8127 128.63 90.6612 136.166 84.2612Z" stroke="#263238" stroke-linecap="round" stroke-linejoin="round"/>
<path d="M75.0396 257.773L81.6478 257.953H82.0163H88.0718C90.2944 257.953 90.0151 256.367 90.2706 254.208C90.5796 251.577 89.1356 248.852 89.1356 248.852H78.9499C78.5841 249.432 78.2775 250.045 78.0347 250.684C72.5615 254.529 75.0396 257.773 75.0396 257.773Z" fill="#263238" stroke="#263238" stroke-linecap="round" stroke-linejoin="round"/>
<path d="M124.697 257.772L118.457 257.947H117.732H112.134C109.501 257.947 109.382 255.87 109.436 253.28C109.526 251.727 109.949 250.21 110.678 248.829H121.321C121.746 249.471 122.097 250.158 122.367 250.876C127.787 256.005 124.697 257.772 124.697 257.772Z" fill="#263238" stroke="#263238" stroke-linecap="round" stroke-linejoin="round"/>
<path d="M118.445 257.948H118.011H117.72H118.445Z" fill="#263238" stroke="#263238" stroke-linecap="round" stroke-linejoin="round"/>
<path d="M131.928 147.789C131.928 147.789 128.826 202.046 127.032 211.532C126.485 214.449 123.858 234.734 123.466 239.034C123.466 239.034 124.274 242.878 123.52 246.034L122.777 247.709C121.511 250.305 110.368 250.427 109.994 249.722C109.62 249.016 108.17 248.852 109.863 238.987C110.048 237.89 110.345 226.28 110.82 210.721C110.975 205.616 111.7 201.614 111.111 188.756C111.111 188.172 108.182 154.848 108.14 154.276L107.546 154.504C107.474 155.157 107.415 155.781 107.35 156.376C107.061 159.245 106.534 162.086 105.775 164.871L95.078 203.959V211.065C95.2444 219.717 94.4838 229.997 92.0473 238.328L92.285 240.498C92.7307 244.582 93.6874 249.296 89.0284 250.083L79.5202 250.532C77.9394 250.532 76.1448 250.375 76.2458 248.835L77.155 242.528C79.1042 235.241 78.4327 211.94 78.7655 204.414L82.7233 148.32L85.0409 131.692L130.336 130.782L131.928 147.789Z" fill="#92E3A9"/>
<mask id="mask2_2258_62223" style="mask-type:luminance" maskUnits="userSpaceOnUse" x="76" y="130" width="56" height="121">
<path d="M131.928 147.789C131.928 147.789 128.826 202.046 127.032 211.532C126.485 214.449 123.858 234.734 123.466 239.034C123.466 239.034 124.274 242.878 123.52 246.034L122.777 247.709C121.511 250.305 110.368 250.427 109.994 249.722C109.62 249.016 108.17 248.852 109.863 238.987C110.048 237.89 110.345 226.28 110.82 210.721C110.975 205.616 111.7 201.614 111.111 188.756C111.111 188.172 108.182 154.848 108.14 154.276L107.546 154.504C107.474 155.157 107.415 155.781 107.35 156.376C107.061 159.245 106.534 162.086 105.775 164.871L95.078 203.959V211.065C95.2444 219.717 94.4838 229.997 92.0473 238.328L92.285 240.498C92.7307 244.582 93.6874 249.296 89.0284 250.083L79.5202 250.532C77.9394 250.532 76.1448 250.375 76.2458 248.835L77.155 242.528C79.1042 235.241 78.4327 211.94 78.7655 204.414L82.7233 148.32L85.0409 131.692L130.336 130.782L131.928 147.789Z" fill="white"/>
</mask>
<g mask="url(#mask2_2258_62223)">
<path opacity="0.2" d="M107.433 140.094C100.082 140.677 92.4038 139.358 83.882 136.593C83.7616 136.54 83.6511 136.467 83.5552 136.377C83.5552 136.377 100.997 137.457 130.847 133.18C130.847 133.18 127.376 134.003 120.31 136.961C116.22 138.686 111.87 139.744 107.433 140.094Z" fill="black"/>
<path opacity="0.2" d="M91.4707 154.545C93.4793 157.998 99.0773 157.993 101.139 161.411C103.106 164.667 104.111 170.46 102.679 176.218L104.497 169.55C106.583 166.049 106.096 163.675 106.874 159.766C106.993 159.183 107.32 155.297 107.522 154.515C107.522 154.515 102.173 155.875 101.728 155.892C97.3242 156.056 95.5355 155.536 91.4707 154.545Z" fill="black"/>
<path opacity="0.2" d="M111.919 187.612C112.074 189.502 112.365 191.457 113.441 193.026C114.516 194.595 116.602 195.646 118.415 195.016C119.294 194.706 120.031 194.047 120.988 193.977C121.267 193.943 121.549 193.993 121.798 194.121C122.047 194.25 122.249 194.45 122.378 194.695C122.455 194.904 122.469 195.131 122.418 195.348C122.368 195.565 122.255 195.764 122.093 195.92C121.374 196.853 120.346 197.559 119.787 198.592C119.229 199.624 119.443 201.229 120.596 201.544C119.443 201.509 117.862 201.871 117.939 202.997C118.017 204.28 120.316 204.747 120.108 205.989C117.75 208.888 116.237 212.36 115.729 216.036C114.641 223.923 118.409 231.508 117.113 239.156C116.997 239.756 117.107 240.377 117.423 240.903C117.739 241.429 118.24 241.824 118.831 242.015C118.914 242.04 119 242.059 119.086 242.073C116.902 242.779 114.617 243.142 112.318 243.147C111.319 244.278 117.286 249.99 117.28 249.307C117.28 249.226 114.57 250.573 114.487 250.562C111.111 250.019 109.887 251.483 107.308 248.228C106.75 247.516 106.376 246.681 106.22 245.795C100.908 215.901 109.625 179.748 108.449 154.784C108.496 155.017 115.58 157.485 120.703 155.186C122.123 154.556 116.685 159.964 114.79 165.933C112.555 172.91 111.301 180.279 111.919 187.612Z" fill="black"/>
<path opacity="0.2" d="M93.3367 196.077C92.8751 196.86 92.1917 197.495 91.3696 197.903C89.8543 198.487 83.8997 191.194 82.3606 190.675C84.2682 196.48 87.8575 198.872 89.7057 201.911C90.0227 202.32 90.1789 202.828 90.1455 203.341C89.8067 205.091 83.6739 203.521 83.1331 205.225C84.4762 206.45 89.2243 207.185 90.7635 206.211C92.1778 218.848 89.0461 232.692 81.6118 243.106C83.4303 243.887 85.4032 242.791 86.8889 241.495C86.9305 244.412 84.6901 248.864 82.3903 250.562C85.1358 251.145 90.294 250.206 92.0887 248.082C94.4658 245.258 92.6295 241.04 92.8553 237.382C92.9682 235.521 93.6516 233.748 94.2162 231.974C96.3635 225.234 96.9363 218.105 95.892 211.117C95.5354 208.749 94.9947 206.369 95.1729 203.977C95.3512 201.585 96.2783 199.187 97.134 196.876C97.8234 195.01 103.374 181.469 101.234 181.498C101.234 181.498 94.7213 194.105 93.3367 196.077Z" fill="black"/>
</g>
<path d="M131.928 147.789C131.928 147.789 128.826 202.046 127.032 211.532C126.485 214.449 123.858 234.734 123.466 239.034C123.466 239.034 124.274 242.878 123.52 246.034L122.777 247.709C121.511 250.305 110.368 250.427 109.994 249.722C109.62 249.016 108.17 248.852 109.863 238.987C110.048 237.89 110.345 226.28 110.82 210.721C110.975 205.616 111.7 201.614 111.111 188.756C111.111 188.172 108.182 154.848 108.14 154.276L107.546 154.504C107.474 155.157 107.415 155.781 107.35 156.376C107.061 159.245 106.534 162.086 105.775 164.871L95.078 203.959V211.065C95.2444 219.717 94.4838 229.997 92.0473 238.328L92.285 240.498C92.7307 244.582 93.6874 249.296 89.0284 250.083L79.5202 250.532C77.9394 250.532 76.1448 250.375 76.2458 248.835L77.155 242.528C79.1042 235.241 78.4327 211.94 78.7655 204.414L82.7233 148.32L85.0409 131.692L130.336 130.782L131.928 147.789Z" stroke="#263238" stroke-linecap="round" stroke-linejoin="round"/>
<path d="M101.229 61.5434L105.419 51.3338L104.004 42.3377L105.419 32.5014L114.107 29.2869L121.285 29.2285L123.841 31.3696L124.53 34.3508C124.53 34.3508 126.806 42.221 126.016 43.5278C125.225 44.8347 124.584 46.1006 124.584 46.1006C124.584 46.1006 126.307 49.9686 126.366 51.5205C126.45 53.3757 124.203 51.6547 123.472 53.7608C122.741 55.8669 122.141 60.7617 119.467 60.6041C116.793 60.4466 115.361 60.2599 114.713 62.4827C114.065 64.7055 112.443 70.7671 112.443 70.7671L101.229 61.5434Z" fill="#757575"/>
<mask id="mask3_2258_62223" style="mask-type:luminance" maskUnits="userSpaceOnUse" x="101" y="29" width="26" height="42">
<path d="M101.229 61.5434L105.419 51.3338L104.004 42.3377L105.419 32.5014L114.107 29.2869L121.285 29.2285L123.841 31.3696L124.53 34.3508C124.53 34.3508 126.806 42.221 126.016 43.5278C125.225 44.8347 124.584 46.1006 124.584 46.1006C124.584 46.1006 126.307 49.9686 126.366 51.5205C126.45 53.3757 124.203 51.6547 123.472 53.7608C122.741 55.8669 122.141 60.7617 119.467 60.6041C116.793 60.4466 115.361 60.2599 114.713 62.4827C114.065 64.7055 112.443 70.7671 112.443 70.7671L101.229 61.5434Z" fill="white"/>
</mask>
<g mask="url(#mask3_2258_62223)">
<path opacity="0.3" d="M112.128 38.5979C111.985 40.844 112.912 42.6818 111.444 46.7656C111.444 46.7656 110.357 44.1228 108.966 44.0936C108.715 44.0673 108.46 44.0964 108.222 44.1786C107.983 44.2608 107.766 44.3942 107.586 44.569C107.406 44.7438 107.268 44.9557 107.182 45.1893C107.096 45.4229 107.064 45.6724 107.089 45.9197C107.089 47.0456 107.57 48.4458 108.592 48.9942C108.592 48.9942 107.439 51.6546 107.184 52.6697C106.506 52.6697 105.401 51.3454 105.401 51.3454L104.117 42.9151C106.604 41.1699 109.293 39.7207 112.128 38.5979Z" fill="black"/>
</g>
<path d="M101.229 61.5434L105.419 51.3338L104.004 42.3377L105.419 32.5014L114.107 29.2869L121.285 29.2285L123.841 31.3696L124.53 34.3508C124.53 34.3508 126.806 42.221 126.016 43.5278C125.225 44.8347 124.584 46.1006 124.584 46.1006C124.584 46.1006 126.307 49.9686 126.366 51.5205C126.45 53.3757 124.203 51.6547 123.472 53.7608C122.741 55.8669 122.141 60.7617 119.467 60.6041C116.793 60.4466 115.361 60.2599 114.713 62.4827C114.065 64.7055 112.443 70.7671 112.443 70.7671L101.229 61.5434Z" stroke="#263238" stroke-linecap="round" stroke-linejoin="round"/>
<path d="M122.432 45.389C122.355 45.9257 122.022 46.3283 121.689 46.2816C121.356 46.2349 121.142 45.7624 121.226 45.2256C121.309 44.6889 121.636 44.2864 121.968 44.333C122.301 44.3797 122.539 44.8523 122.432 45.389Z" fill="#263238"/>
<path d="M119.913 42.9153C119.913 42.9153 121.743 40.4067 124.072 42.3902" stroke="#263238" stroke-linecap="round" stroke-linejoin="round"/>
<path d="M120.81 54.1517C120.17 54.0894 119.556 53.8696 119.025 53.5127C118.495 53.1558 118.064 52.6733 117.773 52.1098" stroke="#263238" stroke-linecap="round" stroke-linejoin="round"/>
<path d="M118.7 60.505C118.7 60.505 113.019 57.7163 111.569 55.8377L114.748 62.4652C114.748 62.4652 115.111 59.3907 118.7 60.505Z" fill="#263238" stroke="#263238" stroke-linecap="round" stroke-linejoin="round"/>
<path d="M98.394 62.5761C98.394 62.5761 101.597 62.4652 106.672 62.6811C110.558 62.9075 114.43 63.3301 118.272 63.9471C118.272 63.9471 116.953 59.8632 113.298 59.5657C109.643 59.2682 101.151 59.2507 101.151 59.2507L98.394 62.5761Z" fill="white" stroke="#263238" stroke-linecap="round" stroke-linejoin="round"/>
<path d="M130.265 96.4488L129.968 98.6365C128.733 107.662 129.069 116.827 130.96 125.742L132.476 132.929C132.476 132.929 119.402 135.794 110.886 136.751C91.3941 138.944 81.6303 135.957 81.6303 135.957C81.526 132.468 81.8351 128.979 82.5514 125.561C87.7809 101.174 78.0766 71.3039 80.62 67.5001C82.5157 64.6472 98.341 62.4945 98.341 62.4945C98.341 62.4945 112.924 62.0919 118.255 63.9121L118.909 64.3147C126.004 66.695 131.632 69.2561 134.692 71.3973L133.569 74.1451C133.527 75.4928 130.265 96.4488 130.265 96.4488Z" fill="#263238"/>
<mask id="mask4_2258_62223" style="mask-type:luminance" maskUnits="userSpaceOnUse" x="80" y="62" width="55" height="76">
<path d="M130.265 96.4488L129.968 98.6365C128.733 107.662 129.069 116.827 130.96 125.742L132.476 132.929C132.476 132.929 119.402 135.794 110.886 136.751C91.3941 138.944 81.6303 135.957 81.6303 135.957C81.526 132.468 81.8351 128.979 82.5514 125.561C87.7809 101.174 78.0766 71.3039 80.62 67.5001C82.5157 64.6472 98.341 62.4945 98.341 62.4945C98.341 62.4945 112.924 62.0919 118.255 63.9121L118.909 64.3147C126.004 66.695 131.632 69.2561 134.692 71.3973L133.569 74.1451C133.527 75.4928 130.265 96.4488 130.265 96.4488Z" fill="white"/>
</mask>
<g mask="url(#mask4_2258_62223)">
<path d="M79.4011 104.086C79.4011 104.086 81.7365 111.757 79.3179 117.101L83.1865 118.268C83.1865 118.268 84.066 111.816 83.5253 106.6L79.4011 104.086Z" fill="#92E3A9"/>
<path opacity="0.6" d="M79.4011 104.086C79.4011 104.086 81.7365 111.757 79.3179 117.101L83.1865 118.268C83.1865 118.268 84.066 111.816 83.5253 106.6L79.4011 104.086Z" fill="white"/>
<g opacity="0.2">
<path d="M96.6822 106.594C97.4131 108.093 98.1559 109.663 98.1262 111.326C98.049 115.065 94.2516 117.568 90.8881 119.412C98.3825 116.965 106.323 116.122 114.177 116.938C112.175 116.728 108.621 112.93 107.106 111.687C104.706 109.705 102.417 107.598 100.248 105.375C96.1328 101.226 92.5049 96.6369 89.4321 91.6939C91.8032 96.6762 94.2635 101.623 96.6822 106.594Z" fill="black"/>
</g>
<g opacity="0.2">
<path d="M112.917 110.276C114.731 110.617 116.602 110.534 118.377 110.032C120.152 109.53 121.782 108.624 123.133 107.388C121.398 106.308 119.133 107.003 117.083 107.248C114.741 107.507 112.371 107.117 110.243 106.122C109.352 105.702 105.97 102.51 105.067 103.129C102.363 104.955 111.628 110.025 112.917 110.276Z" fill="black"/>
</g>
<g opacity="0.2">
<path d="M119.567 122.725C117.998 122.813 115.407 121.302 113.749 120.975C111.66 120.577 109.537 120.382 107.409 120.392C102.715 120.524 98.0719 121.375 93.6455 122.912C95.1609 125.246 103.522 123.63 106.012 123.496L119.567 122.725Z" fill="black"/>
</g>
</g>
<path d="M130.265 96.4488L129.968 98.6365C128.733 107.662 129.069 116.827 130.96 125.742L132.476 132.929C132.476 132.929 119.402 135.794 110.886 136.751C91.3941 138.944 81.6303 135.957 81.6303 135.957C81.526 132.468 81.8351 128.979 82.5514 125.561C87.7809 101.174 78.0766 71.3039 80.62 67.5001C82.5157 64.6472 98.341 62.4945 98.341 62.4945C98.341 62.4945 112.924 62.0919 118.255 63.9121L118.909 64.3147C126.004 66.695 131.632 69.2561 134.692 71.3973L133.569 74.1451C133.527 75.4928 130.265 96.4488 130.265 96.4488Z" stroke="#263238" stroke-linecap="round" stroke-linejoin="round"/>
<path d="M87.6196 88.3568C93.1164 99.9709 101.948 109.756 113.03 116.512" stroke="#757575" stroke-linecap="round" stroke-linejoin="round"/>
<path d="M86.5918 86.064C86.7938 86.554 86.7998 86.554 87.0137 87.0324" stroke="#757575" stroke-linecap="round" stroke-linejoin="round"/>
<path d="M85.1001 82.0909C85.3675 82.8727 85.6528 83.6486 85.9558 84.4246" stroke="#757575" stroke-linecap="round" stroke-linejoin="round"/>
<path d="M105.9 107.178C107.703 109.07 110.008 110.432 112.556 111.11C116.27 112.008 120.715 110.672 122.498 107.393" stroke="#757575" stroke-linecap="round" stroke-linejoin="round"/>
<path d="M103.624 104.523C103.992 105.03 104.378 105.526 104.812 106.011" stroke="#757575" stroke-linecap="round" stroke-linejoin="round"/>
<path d="M92.0591 123.449C101.32 119.974 111.532 119.817 120.899 123.006" stroke="#757575" stroke-linecap="round" stroke-linejoin="round"/>
<path d="M100.753 117.953C104.064 116.976 107.593 116.976 110.903 117.953" stroke="#757575" stroke-linecap="round" stroke-linejoin="round"/>
<path d="M112.437 65.5981C117.786 65.6242 123.098 66.4747 128.179 68.1184" stroke="#263238" stroke-linecap="round" stroke-linejoin="round"/>
<path d="M107.088 45.9197C107.288 46.8287 107.641 47.6984 108.134 48.4925C109.032 49.6593 109.917 49.8168 110.832 49.601" stroke="#263238" stroke-linecap="round" stroke-linejoin="round"/>
<path d="M125.005 34.5259C125.396 34.5934 125.769 34.736 126.103 34.9455C126.437 35.155 126.725 35.4273 126.951 35.7466C127.178 36.066 127.338 36.4261 127.422 36.8064C127.506 37.1866 127.513 37.5794 127.442 37.9622C127.878 37.6253 128.18 37.1492 128.297 36.6164C128.413 36.0837 128.335 35.5278 128.078 35.0452C127.573 34.1409 126.022 34.1525 125.005 34.5259Z" fill="#263238" stroke="#263238" stroke-linecap="round" stroke-linejoin="round"/>
<path d="M124.494 32.1748C123.784 30.7927 122.842 29.5382 121.707 28.4643C117.773 24.678 106.85 29.2228 104.354 31.6381C101.727 34.1526 102.203 43.5279 103.356 43.3062C106.428 42.7228 112.27 42.2619 112.27 42.2619C114.338 41.7835 111.913 37.0112 113.791 36.0545C121.617 32.0464 124.155 35.6869 124.618 34.7535C125.082 33.82 125.415 32.6999 124.494 32.1748Z" fill="#263238" stroke="#263238" stroke-linecap="round" stroke-linejoin="round"/>
<path d="M101.009 43.1252C99.6655 44.0411 97.6926 43.6036 96.3495 44.5195C95.3215 45.2196 94.953 46.5089 94.7628 47.7108C94.3351 50.4325 94.4746 53.2112 95.1729 55.8785C97.5507 54.3413 99.6313 52.4014 101.318 50.1494C102.833 48.0666 102.375 45.2896 101.009 43.1252Z" fill="#263238" stroke="#263238" stroke-linecap="round" stroke-linejoin="round"/>
<path d="M102.821 41.9467C102.312 41.9893 101.831 42.197 101.455 42.5371C101.079 42.8773 100.829 43.3305 100.744 43.8256C100.658 44.3206 100.743 44.8294 100.985 45.2719C101.227 45.7143 101.612 46.0653 102.079 46.2697C102.38 46.4208 102.723 46.4751 103.058 46.4249C103.392 46.3746 103.703 46.2224 103.945 45.9897C104.193 45.6256 104.326 45.197 104.325 44.7587C104.426 43.7377 104.266 42.355 103.22 42.1858" fill="#92E3A9"/>
<path d="M102.821 41.9467C102.312 41.9893 101.831 42.197 101.455 42.5371C101.079 42.8773 100.829 43.3305 100.744 43.8256C100.658 44.3206 100.743 44.8294 100.985 45.2719C101.227 45.7143 101.612 46.0653 102.079 46.2697C102.38 46.4208 102.723 46.4751 103.058 46.4249C103.392 46.3746 103.703 46.2224 103.945 45.9897C104.193 45.6256 104.326 45.197 104.325 44.7587C104.426 43.7377 104.266 42.355 103.22 42.1858" stroke="#263238" stroke-linecap="round" stroke-linejoin="round"/>
<path d="M166.218 77.5931C167.269 76.9046 168.797 76.6304 169.397 75.5453C170.189 74.149 170.966 72.7527 171.726 71.3564C171.32 69.3802 170.316 67.5705 168.844 66.1641C170.371 63.4571 171.025 62.1969 172.558 59.4899C172.558 58.4631 172.035 58.1481 171.293 58.539C169.51 61.0243 168.137 62.687 166.354 65.1723C165.267 64.7532 164.09 64.6107 162.931 64.7581C161.757 65.9103 160.902 67.3382 160.447 68.9061C159.862 70.9457 160.017 73.1217 160.887 75.0611C161.925 74.976 162.967 75.1661 163.905 75.6114C164.843 76.0568 165.641 76.7412 166.218 77.5931Z" fill="#757575" stroke="#263238" stroke-linecap="round" stroke-linejoin="round"/>
<path d="M129.599 87.8143C129.473 88.8641 129.611 89.9281 130 90.9136C130.39 91.899 131.019 92.7758 131.833 93.4675C135.084 96.2446 146.292 103.438 148.74 103.712C149.695 103.814 150.661 103.761 151.599 103.555C154.956 102.855 166.396 77.9781 166.396 77.9781C165.801 76.4029 163.234 75.1077 161.493 75.061C159.752 75.0144 158.831 75.5569 157.791 76.9104C157.714 77.0155 148.586 88.5786 148.586 88.5786C147.165 88.5786 141.229 81.3035 140.741 80.0083C139.303 76.1637 136.873 72.6282 134.71 71.3914C134.71 71.3973 131.512 71.829 129.599 87.8143Z" fill="#263238" stroke="#263238" stroke-linecap="round" stroke-linejoin="round"/>
<path d="M149.346 89.4946C149.346 89.4946 152.585 91.6123 153.714 93.0884" stroke="#757575" stroke-linecap="round" stroke-linejoin="round"/>
<path d="M149.388 90.8421C150.218 91.7771 150.644 92.993 150.576 94.2317" stroke="#757575" stroke-linecap="round" stroke-linejoin="round"/>
<path d="M140.42 79.2206C141.306 81.2673 141.638 83.5042 141.383 85.7139" stroke="#757575" stroke-linecap="round" stroke-linejoin="round"/>
<path d="M122.319 198.633C120.118 199.899 117.636 200.622 115.087 200.739C117.419 200.557 119.758 200.984 121.867 201.975" stroke="#263238" stroke-linecap="round" stroke-linejoin="round"/>
<path d="M114.487 204.467C117.038 204.887 119.564 205.446 122.052 206.141" stroke="#263238" stroke-linecap="round" stroke-linejoin="round"/>
<path d="M126.551 151.767C121.434 156.143 114.315 157.508 108.128 154.288C102.061 156.826 93.242 156.534 87.9233 152.689" stroke="#263238" stroke-linecap="round" stroke-linejoin="round"/>
<path d="M128.981 149.276C128.588 149.755 128.178 150.216 127.75 150.647" stroke="#263238" stroke-linecap="round" stroke-linejoin="round"/>
<path d="M116.341 140.397H111.432" stroke="#263238" stroke-linecap="round" stroke-linejoin="round"/>
<path d="M120.085 140.397H117.898" stroke="#263238" stroke-linecap="round" stroke-linejoin="round"/>
<path d="M126.907 140.397H121.428" stroke="#263238" stroke-linecap="round" stroke-linejoin="round"/>
<path d="M92.8789 140.397H104.206" stroke="#263238" stroke-linecap="round" stroke-linejoin="round"/>
<path d="M88.7314 140.397H90.6806" stroke="#263238" stroke-linecap="round" stroke-linejoin="round"/>
<path d="M79.8057 242.767C81.5608 243.269 83.4287 243.245 85.1695 242.697C86.9103 242.149 88.4446 241.103 89.5754 239.693" stroke="#263238" stroke-linecap="round" stroke-linejoin="round"/>
<path d="M112.122 242.855C113.464 243.257 114.886 243.321 116.26 243.043C117.634 242.765 118.914 242.152 119.984 241.262" fill="#92E3A9"/>
<path d="M112.122 242.855C113.464 243.257 114.886 243.321 116.26 243.043C117.634 242.765 118.914 242.152 119.984 241.262" stroke="#263238" stroke-linecap="round" stroke-linejoin="round"/>
<path d="M92.8796 204.554H92.6181C90.449 207.039 85.8316 207.162 83.1099 205.225L88.7138 204.058" stroke="#263238" stroke-linecap="round" stroke-linejoin="round"/>
<path d="M84.2686 194.63C86.1462 197.971 88.9264 200.739 92.303 202.629" stroke="#263238" stroke-linecap="round" stroke-linejoin="round"/>
<path d="M82.3608 189.94C82.5653 190.733 82.8214 191.512 83.1274 192.273" stroke="#263238" stroke-linecap="round" stroke-linejoin="round"/>
<path d="M135.613 72.7566C135.327 72.767 135.048 72.8541 134.809 73.0083C134.569 73.1625 134.376 73.378 134.252 73.6317C131.804 77.5989 130.603 83.2638 131.215 90.6614" stroke="#757575" stroke-linecap="round" stroke-linejoin="round"/>
<path d="M83.8225 65.9948C80.6491 69.4953 80.6491 77.5929 82.3012 86.5482" stroke="#757575" stroke-linecap="round" stroke-linejoin="round"/>
<path d="M107.624 141.984L107.956 151.598" stroke="#263238" stroke-linecap="round" stroke-linejoin="round"/>
<path d="M107.498 138.308L107.569 140.397" stroke="#263238" stroke-linecap="round" stroke-linejoin="round"/>
<path d="M250.722 257.965H1" stroke="#263238" stroke-linecap="round" stroke-linejoin="round"/>
</svg>
