<svg width="311" height="182" viewBox="0 0 311 182" fill="none" xmlns="http://www.w3.org/2000/svg">
<rect width="311" height="182" rx="8" fill="#F6F6F6"/>
<path d="M104.921 36.5749C103.967 36.2871 102.256 41.409 101.99 40.0978C101.723 38.7867 104.804 34.0699 103.796 33.8088C102.485 33.4677 100.801 38.8667 100.625 39.309C100.449 39.7514 99.799 39.5169 99.9749 39.1225C100.236 38.5576 102.821 32.535 101.536 32.1939C100.822 32.002 100.598 33.3131 100.598 33.3131C100.598 33.3131 98.5945 39.1225 97.9922 38.9413C97.3899 38.7601 98.4452 35.3011 98.8823 34.1445C99.3193 32.988 98.9569 32.3591 98.3013 32.5776C97.8536 32.7322 96.4199 36.1858 96.0149 37.3211C95.6098 38.4563 94.5386 41.5848 93.8084 39.6182C93.0782 37.6515 91.7671 36.4203 91.1808 36.3137C91.0443 36.3081 90.9094 36.3449 90.7947 36.4192C90.68 36.4934 90.5911 36.6013 90.5402 36.7281C90.4894 36.8549 90.4791 36.9944 90.5108 37.1273C90.5424 37.2602 90.6145 37.38 90.7171 37.4703C91.1674 38.022 91.5387 38.6337 91.8204 39.2877C92.0671 39.8031 92.2256 40.3562 92.2894 40.9239C92.4279 42.0627 92.4547 43.2123 92.3693 44.3563V44.6761L86.0483 60.3775L79.0077 44.9212C76.7532 37.4276 67.4422 37.1185 67.4422 37.1185L58.2111 36.1645C54.8747 34.88 51.1492 35.0986 49.0759 36.2818C47.7752 37.0526 46.6528 38.0906 45.7828 39.3272C44.9127 40.5638 44.3149 41.9709 44.0287 43.4556C41.8968 53.9125 34.4991 91.3592 33.9022 107.759C33.5247 109.544 33.2436 111.348 33.0601 113.163C32.8789 116.004 33.1347 116.025 33.4651 115.988C34.3659 115.892 33.9981 110.999 34.6697 112.001C35.3412 113.003 34.4511 118.045 35.3839 117.907C36.6417 117.709 36.1087 112.593 36.1087 112.156C36.1087 111.719 36.7269 111.692 36.7163 112.087C36.7163 112.651 36.6736 118.61 37.8728 118.445C38.5337 118.354 38.2619 117.176 38.2619 117.176C38.2619 117.176 37.8728 111.602 38.4431 111.538C39.0134 111.474 39.3598 114.735 39.3918 115.855C39.4238 116.974 39.9621 117.379 40.4578 116.963C40.7775 116.675 40.7509 113.275 40.6923 112.166C40.6336 111.058 40.4098 108.063 41.7209 109.454C43.032 110.845 44.567 111.426 45.0946 111.292C45.211 111.248 45.3108 111.169 45.3803 111.066C45.4498 110.962 45.4855 110.84 45.4826 110.715C45.4796 110.591 45.4382 110.47 45.364 110.37C45.2897 110.27 45.1863 110.196 45.068 110.157C44.4951 109.854 43.9662 109.473 43.4957 109.027C43.1164 108.689 42.7943 108.291 42.5417 107.849C42.4617 107.705 42.3978 107.572 42.3232 107.439C42.5257 104.321 44.3591 77.5339 49.0813 59.1783L49.966 56.8918C50.8934 60.6226 50.3391 68.2548 48.3671 71.5539C45.1319 77.0222 45.3878 90.4585 45.3878 90.4585L75.1596 91.5937C75.1596 91.5937 74.9305 86.6531 74.6693 80.3427L74.0084 61.7845L74.083 58.2296L74.2216 57.8565C75.6606 60.1536 77.4621 63.101 79.6846 66.8584C87.0876 79.346 93.334 64.4814 93.334 64.4814L99.6604 46.5841C101.272 44.3386 102.761 42.0079 104.121 39.6022C105.523 36.8094 105.273 36.6975 104.921 36.5749Z" fill="#E5BAAB"/>
<path d="M59.0959 179.428V174.631L50.0727 174.572L49.998 181.623L50.5577 181.661C53.0467 181.815 63.2264 182.268 64.8946 181.778C66.7547 181.202 59.0959 179.428 59.0959 179.428Z" fill="#41CC97"/>
<path d="M65.1071 181.314C65.1071 181.399 61.7281 181.469 57.5655 181.469C53.403 181.469 50.0293 181.399 50.0293 181.314C50.0293 181.229 53.403 181.16 57.5655 181.16C61.7281 181.16 65.1071 181.229 65.1071 181.314Z" fill="#263238"/>
<path d="M59.2552 180.413C59.1805 180.371 59.2552 180.11 59.4417 179.88C59.6282 179.651 59.8681 179.502 59.9267 179.561C59.9853 179.619 59.8628 179.838 59.6869 180.067C59.511 180.296 59.3298 180.451 59.2552 180.413Z" fill="#263238"/>
<path d="M59.8317 180.728C59.7518 180.696 59.7944 180.409 59.9703 180.11C60.1462 179.812 60.386 179.63 60.45 179.684C60.5139 179.737 60.402 179.988 60.2368 180.265C60.0716 180.542 59.9117 180.76 59.8317 180.728Z" fill="#263238"/>
<path d="M52.7485 181.282C52.7111 181.309 52.5779 181.181 52.3807 180.968C52.14 180.688 51.8722 180.433 51.5812 180.206C51.2957 179.995 50.9625 179.858 50.6112 179.806C50.3394 179.769 50.1635 179.806 50.1475 179.763C50.1316 179.721 50.2968 179.609 50.6166 179.588C51.0294 179.575 51.4339 179.705 51.7625 179.955C52.0796 180.196 52.349 180.495 52.5566 180.835C52.7111 181.085 52.7804 181.256 52.7485 181.282Z" fill="#263238"/>
<path d="M59.2833 179.535C59.3259 179.604 59.1713 179.774 58.9155 179.865C58.6597 179.956 58.4252 179.924 58.4145 179.838C58.4039 179.753 58.5851 179.657 58.8089 179.577C59.0328 179.497 59.2406 179.433 59.2833 179.535Z" fill="#263238"/>
<path d="M59.1441 179.039C59.1441 179.124 58.9096 179.199 58.6111 179.204C58.3126 179.209 58.0781 179.14 58.0781 179.055C58.0781 178.97 58.3286 178.895 58.6111 178.895C58.8936 178.895 59.1334 178.954 59.1441 179.039Z" fill="#263238"/>
<path d="M68.6195 177.722L70.0478 173.117L61.4456 170.394L59.2871 177.104L59.8201 177.306C62.1545 178.191 71.7374 181.634 73.4802 181.661C75.4042 181.666 68.6195 177.722 68.6195 177.722Z" fill="#41CC97"/>
<path d="M73.7942 181.299C73.7942 181.384 70.5271 180.451 66.5511 179.215C62.5751 177.978 59.372 176.918 59.3986 176.838C59.4253 176.758 62.6657 177.69 66.6417 178.922C70.6177 180.153 73.8209 181.219 73.7942 181.299Z" fill="#263238"/>
<path d="M68.4762 178.708C68.4176 178.644 68.5562 178.42 68.8173 178.234C69.0785 178.047 69.3503 177.999 69.3503 178.074C69.3503 178.149 69.2064 178.319 68.9666 178.49C68.7267 178.66 68.5348 178.767 68.4762 178.708Z" fill="#263238"/>
<path d="M68.9347 179.183C68.8654 179.129 68.9933 178.863 69.2491 178.65C69.5049 178.437 69.7821 178.314 69.8301 178.383C69.878 178.453 69.6968 178.66 69.457 178.879C69.2171 179.097 68.9986 179.236 68.9347 179.183Z" fill="#263238"/>
<path d="M62.0052 177.611C61.9626 177.611 61.872 177.467 61.7441 177.2C61.5977 176.864 61.4192 176.543 61.2111 176.241C61.0014 175.953 60.7229 175.722 60.401 175.569C60.1558 175.452 59.9746 175.436 59.9746 175.388C59.9746 175.34 60.1612 175.287 60.4756 175.362C60.8724 175.476 61.2195 175.72 61.4616 176.054C61.6898 176.377 61.8577 176.738 61.9573 177.12C62.0266 177.403 62.0425 177.6 62.0052 177.611Z" fill="#263238"/>
<path d="M68.7691 177.85C68.7691 177.93 68.5879 178.048 68.3161 178.058C68.0443 178.069 67.8364 177.968 67.8524 177.882C67.8684 177.797 68.0656 177.76 68.3055 177.749C68.5453 177.739 68.7532 177.765 68.7691 177.85Z" fill="#263238"/>
<path d="M68.7751 177.365C68.7751 177.445 68.5033 177.445 68.2422 177.365C67.981 177.285 67.7092 177.141 67.7678 177.061C67.8265 176.981 68.0503 176.987 68.3274 177.061C68.6046 177.136 68.7911 177.28 68.7751 177.365Z" fill="#263238"/>
<path d="M67.2659 37.7153C67.1273 36.7133 67.6656 32.5454 67.6656 32.5454C67.6656 32.5454 71.4977 32.2683 71.8495 28.4895C72.2012 24.7107 72.2492 15.9806 72.2492 15.9806L65.4218 12.3617L57.5871 17.9047L55.5352 22.307L58.1361 31.9005V36.8678L67.2659 37.7153Z" fill="#E5BAAB"/>
<path d="M71.7749 21.8006C71.8015 21.7739 71.7749 21.6513 71.6043 21.5074C71.3996 21.3243 71.1413 21.2119 70.8678 21.187C70.5942 21.162 70.3199 21.2258 70.0854 21.3688C69.9095 21.4808 69.8402 21.5927 69.8669 21.6247C69.8935 21.6566 70.3199 21.4488 70.8369 21.5021C70.9034 21.5071 70.9694 21.5178 71.0341 21.5341C70.9594 21.5735 70.8965 21.6319 70.8517 21.7035C70.8068 21.775 70.7817 21.8571 70.7787 21.9414C70.7758 22.0258 70.7951 22.1095 70.8348 22.184C70.8746 22.2584 70.9333 22.3211 71.005 22.3657C71.0767 22.4102 71.1589 22.4351 71.2433 22.4377C71.3276 22.4403 71.4112 22.4206 71.4855 22.3805C71.5599 22.3405 71.6223 22.2816 71.6666 22.2097C71.7108 22.1378 71.7353 22.0555 71.7376 21.9711C71.7483 21.9148 71.7483 21.8569 71.7376 21.8006C71.7376 21.8006 71.7589 21.8165 71.7749 21.8006Z" fill="#263238"/>
<path d="M65.9922 21.6197C66.0242 21.5931 65.9922 21.4651 65.827 21.3266C65.6232 21.142 65.3653 21.0279 65.0915 21.0015C64.8161 20.9775 64.5401 21.0409 64.3027 21.1827C64.1322 21.2946 64.0629 21.4065 64.0895 21.4385C64.1162 21.4705 64.5372 21.2679 65.0595 21.3159C65.1442 21.3252 65.2279 21.3412 65.31 21.3639C65.2444 21.3949 65.1866 21.4405 65.1412 21.4971C65.0957 21.5537 65.0637 21.6199 65.0475 21.6907C65.0314 21.7615 65.0315 21.8351 65.0479 21.9058C65.0643 21.9766 65.0965 22.0427 65.1422 22.0991C65.1879 22.1556 65.2458 22.201 65.3115 22.2318C65.3773 22.2626 65.4492 22.2781 65.5218 22.2771C65.5944 22.2761 65.6658 22.2586 65.7307 22.226C65.7956 22.1934 65.8522 22.1464 65.8963 22.0887C65.944 22.0213 65.9735 21.9427 65.9819 21.8605C65.9903 21.7783 65.9773 21.6954 65.9443 21.6197H65.9922Z" fill="#263238"/>
<path d="M67.7305 26.0803C68.0123 26.0196 68.3004 25.9928 68.5886 26.0003C68.7218 26.0003 68.855 26.0003 68.8817 25.8884C68.9058 25.7436 68.8853 25.595 68.8231 25.462C68.7218 25.1209 68.6152 24.7532 68.498 24.3961C68.1948 23.4657 67.9596 22.5145 67.7944 21.55C67.9278 21.8056 68.0315 22.0756 68.1035 22.3548C68.2688 22.8611 68.482 23.5593 68.7058 24.3375L69.0096 25.4034C69.0803 25.5721 69.0935 25.7595 69.0469 25.9364C69.0259 25.9826 68.9941 26.0232 68.9542 26.0547C68.9144 26.0862 68.8676 26.1078 68.8177 26.1176C68.7419 26.1305 68.6644 26.1305 68.5886 26.1176C68.3021 26.1419 68.0137 26.1294 67.7305 26.0803Z" fill="#263238"/>
<path d="M65.9933 26.5227C66.4143 26.6773 67.4216 27.4341 68.4876 27.4714C68.289 27.7303 68.0084 27.914 67.6918 27.9924C67.3751 28.0709 67.0412 28.0394 66.7448 27.9031C65.6468 27.3968 65.9933 26.5227 65.9933 26.5227Z" fill="#EFEDE9"/>
<path d="M67.6656 32.5458C65.8712 32.4133 64.1517 31.7717 62.709 30.6964C62.709 30.6964 63.7749 33.5105 67.5537 33.4732L67.6656 32.5458Z" fill="#D78776"/>
<path d="M74.7977 10.342C74.5175 10.0778 74.1757 9.8877 73.8034 9.78904C73.4311 9.69038 73.0401 9.68625 72.6658 9.77701C71.9221 9.96456 71.1948 10.2123 70.4913 10.5178C69.7814 10.8209 68.9882 10.868 68.2474 10.6511C67.2614 10.278 66.7178 9.22805 65.8704 8.60447C65.4966 8.33168 65.0672 8.14475 64.6128 8.05702C64.1584 7.96929 63.6903 7.98294 63.2418 8.09697C62.7933 8.211 62.3756 8.42261 62.0183 8.7167C61.661 9.0108 61.373 9.38012 61.1749 9.79833C60.7485 10.6991 60.6419 11.9302 59.7678 12.3406C59.0483 12.687 58.2116 12.3406 57.4494 12.0901C56.7471 11.845 55.987 11.819 55.2695 12.0155C54.9135 12.1236 54.5961 12.3318 54.3552 12.6153C54.1142 12.8988 53.9598 13.2456 53.9105 13.6144C53.8678 14.286 54.2729 14.9255 54.2516 15.6024C54.2196 16.631 53.2496 17.3506 52.3648 17.8729C51.4801 18.3952 50.4834 19.0241 50.3076 20.0367C50.2767 20.4721 50.3517 20.9084 50.5262 21.3085C50.7006 21.7085 50.9695 22.0604 51.3096 22.3339C51.9893 22.8771 52.6404 23.4553 53.2602 24.066C53.8199 24.7269 54.1556 25.7023 53.7506 26.4751C53.5427 26.8588 53.1696 27.1626 53.0844 27.589C52.9351 28.3085 53.6173 28.8894 54.2729 29.2519C54.9191 29.6721 55.6447 29.9551 56.4048 30.0833C56.7079 30.1171 57.0146 30.0973 57.3108 30.0247C57.8438 31.5436 58.1476 32.8228 58.1476 32.8228C58.7818 33.8514 58.7818 30.4937 58.7818 30.4937C58.7818 30.4937 59.091 27.2532 58.574 26.022C58.574 26.022 56.6553 26.7682 56.0157 23.2772C55.6959 21.5557 58.2755 20.575 59.107 22.6323L60.7485 22.691C60.7485 22.691 60.5566 15.9595 64.3514 17.1214C71.0456 19.1733 74.6325 17.0148 75.0961 11.5785C75.1483 11.3635 75.1484 11.1391 75.0965 10.9241C75.0446 10.709 74.9422 10.5095 74.7977 10.342Z" fill="#263238"/>
<path d="M58.4349 24.9721C58.4349 24.9721 58.3816 25.0147 58.291 25.068C58.16 25.1327 58.0091 25.1442 57.8699 25.1C57.655 24.9803 57.4757 24.8058 57.3502 24.5942C57.2248 24.3826 57.1577 24.1415 57.1558 23.8955C57.1293 23.6191 57.1657 23.3403 57.2624 23.08C57.286 22.9774 57.3343 22.8821 57.403 22.8022C57.4717 22.7224 57.5588 22.6604 57.6567 22.6217C57.7202 22.6008 57.789 22.6027 57.8512 22.6271C57.9135 22.6514 57.9653 22.6966 57.9979 22.7549C58.0458 22.8455 58.0298 22.9095 58.0458 22.9148C58.0618 22.9201 58.1151 22.8562 58.0778 22.7229C58.0556 22.6447 58.0065 22.5768 57.9392 22.5311C57.8937 22.5001 57.8424 22.4785 57.7884 22.4675C57.7344 22.4566 57.6788 22.4564 57.6248 22.4671C57.4983 22.504 57.3831 22.5721 57.29 22.6653C57.1968 22.7585 57.1287 22.8736 57.0918 23.0001C56.9718 23.2881 56.9225 23.6006 56.9479 23.9115C56.9502 24.1996 57.0373 24.4807 57.1985 24.7196C57.3596 24.9585 57.5876 25.1446 57.854 25.2546C57.9456 25.2806 58.0422 25.2836 58.1352 25.2631C58.2282 25.2427 58.3147 25.1994 58.3869 25.1373C58.4349 25.0307 58.4509 24.9721 58.4349 24.9721Z" fill="#D78776"/>
<path d="M74.9036 84.2494L63.0663 83.3433L45.1211 81.8883L47.1251 178.266L62.7039 178.063C62.7039 178.063 62.7039 176.997 62.6666 175.111L71.8177 177.605C71.8177 177.605 80.7184 147.54 83.751 135.202C86.2666 124.905 74.9036 84.2494 74.9036 84.2494ZM62.5013 160.123C62.2615 137.877 61.9417 102.306 62.2668 97.6803C62.2668 97.6803 70.9916 128.726 71.0716 131.354C71.1249 132.952 66.2908 148.323 62.5013 160.123Z" fill="#263238"/>
<path opacity="0.2" d="M62.502 160.124L62.6672 175.106L65.1828 175.799L64.5752 153.627L62.502 160.124Z" fill="#141F1E"/>
<path d="M62.0702 97.5737C62.0223 97.547 62.4327 96.9181 62.7791 95.7829C63.1978 94.2942 63.3866 92.7503 63.3387 91.2046C63.3387 89.3925 63.2055 87.735 63.2481 86.5305C63.2534 86.0566 63.2836 85.5834 63.3387 85.1127C63.3443 84.9309 63.3784 84.751 63.44 84.5798C63.488 84.5798 63.44 85.3206 63.44 86.5091C63.44 87.6977 63.6052 89.3446 63.6265 91.1833C63.6761 92.759 63.4525 94.3314 62.9656 95.8308C62.8079 96.2822 62.6043 96.7161 62.3581 97.126C62.2878 97.2902 62.1905 97.4416 62.0702 97.5737Z" fill="#455A64"/>
<path d="M60.424 85.3844C60.424 85.3844 60.4826 85.2884 60.6532 85.2191C60.9038 85.1241 61.1806 85.1241 61.4313 85.2191C61.6272 85.2816 61.8008 85.3993 61.9313 85.5582C62.0618 85.717 62.1436 85.9102 62.1668 86.1145C62.2108 86.369 62.17 86.6308 62.0507 86.8598C61.9313 87.0888 61.7401 87.2722 61.5063 87.3819C61.2725 87.4915 61.0091 87.5213 60.7567 87.4666C60.5044 87.4119 60.277 87.2758 60.1095 87.0792C59.9666 86.9295 59.8703 86.7415 59.8324 86.538C59.7946 86.3345 59.8168 86.1244 59.8963 85.9333C59.9879 85.683 60.1655 85.4733 60.3973 85.3417C60.5626 85.2564 60.6691 85.2564 60.6745 85.2778C60.4072 85.4472 60.2059 85.703 60.1042 86.0026C60.0554 86.1542 60.049 86.3163 60.0857 86.4713C60.1223 86.6262 60.2006 86.7683 60.3121 86.882C60.4382 87.0407 60.614 87.1526 60.8112 87.1996C61.0085 87.2466 61.2158 87.2261 61.4 87.1414C61.5842 87.0566 61.7347 86.9126 61.8273 86.7322C61.9199 86.5518 61.9494 86.3456 61.911 86.1465C61.8945 85.9892 61.8365 85.8392 61.7428 85.7118C61.6491 85.5844 61.5232 85.4843 61.378 85.4217C61.0736 85.3006 60.7369 85.2874 60.424 85.3844Z" fill="#455A64"/>
<path d="M76.0386 89.0141C75.7147 89.2553 75.3317 89.4045 74.93 89.4458C73.9653 89.623 72.969 89.4525 72.1181 88.9646C71.2672 88.4767 70.6168 87.703 70.2824 86.7809C70.1155 86.416 70.051 86.0125 70.0959 85.6137C70.1492 85.6137 70.1972 86.0561 70.485 86.6796C70.8623 87.5138 71.4852 88.2129 72.2704 88.6836C73.0721 89.1286 73.9917 89.3147 74.9033 89.2166C75.6068 89.1526 76.0172 88.9661 76.0386 89.0141Z" fill="#455A64"/>
<path d="M51.8154 83.2262C51.8154 83.2262 51.9007 83.3648 51.97 83.6366C52.0636 84.0219 52.1049 84.4181 52.0926 84.8145C52.0761 86.15 51.5397 87.4264 50.5973 88.3728C49.6549 89.3192 48.3807 89.861 47.0453 89.8831C46.6475 89.8963 46.2496 89.8569 45.8621 89.7658C45.7186 89.7431 45.581 89.6924 45.457 89.6166C45.9887 89.6619 46.5225 89.6779 47.056 89.6646C48.319 89.5894 49.5105 89.0527 50.4037 88.1566C51.297 87.2604 51.8297 86.0672 51.9007 84.8038C51.9048 84.2767 51.8763 83.7498 51.8154 83.2262Z" fill="#455A64"/>
<path d="M62.7894 174.402C62.7894 174.487 59.3037 174.557 55.008 174.557C50.7122 174.557 47.2266 174.487 47.2266 174.402C47.2266 174.317 50.7069 174.248 55.008 174.248C59.3091 174.248 62.7894 174.317 62.7894 174.402Z" fill="#455A64"/>
<path d="M49.2676 174.626C49.1823 174.626 48.9371 155.62 48.7346 132.174C48.5321 108.729 48.4201 89.723 48.5054 89.723C48.5907 89.723 48.8305 108.724 49.0384 132.174C49.2462 155.625 49.3528 174.626 49.2676 174.626Z" fill="#455A64"/>
<path d="M62.9976 163.892C63.0051 163.83 63.0194 163.769 63.0403 163.711L63.1842 163.178C63.3281 162.709 63.5253 162.042 63.7758 161.2C64.3087 159.468 65.0762 156.995 66.0142 153.947C66.9523 150.898 68.1035 147.242 69.3666 143.202C70.0009 141.182 70.6671 139.061 71.3546 136.86L72.4206 133.507C72.5858 132.942 72.8043 132.356 72.9536 131.802C72.9368 131.214 72.86 130.63 72.7244 130.059C72.1914 127.676 71.5678 125.374 70.9549 123.157C70.342 120.94 69.7078 118.802 69.1055 116.761C67.901 112.694 66.7817 109.049 65.8437 105.984C64.9057 102.92 64.1435 100.463 63.6052 98.7306C63.3494 97.8885 63.1522 97.2276 63.0083 96.7586L62.859 96.2256C62.8382 96.167 62.8239 96.1062 62.8164 96.0444C62.844 96.0993 62.8672 96.1564 62.8857 96.215C62.9337 96.3429 62.9923 96.5134 63.0669 96.7213C63.2215 97.1903 63.44 97.8459 63.7225 98.6773C64.2554 100.404 65.0709 102.866 66.0515 105.904C67.0322 108.942 68.1834 112.604 69.3773 116.66C69.9849 118.69 70.6191 120.822 71.2427 123.055C71.8663 125.289 72.5112 127.575 73.0228 129.984C73.0868 130.288 73.1454 130.586 73.1881 130.89C73.2184 131.043 73.238 131.198 73.2467 131.354C73.2683 131.517 73.2683 131.681 73.2467 131.844C73.1028 132.462 72.8949 133.006 72.7137 133.582L71.6478 136.934C70.9496 139.13 70.278 141.251 69.6385 143.271L66.2221 154C65.2414 157.038 64.4473 159.5 63.893 161.227L63.2428 163.188C63.1735 163.396 63.1149 163.561 63.0669 163.695C63.0498 163.762 63.0266 163.828 62.9976 163.892Z" fill="#455A64"/>
<path d="M62.6562 170.937C63.1432 171.045 63.6195 171.197 64.0793 171.39L67.6449 172.638L71.2105 173.879C71.7145 174.027 72.2035 174.221 72.6708 174.46C72.1516 174.387 71.6409 174.262 71.1465 174.087C70.2138 173.821 68.94 173.416 67.5436 172.931C66.1472 172.446 64.8787 171.966 64.0047 171.598C63.5274 171.44 63.0738 171.218 62.6562 170.937Z" fill="#455A64"/>
<path d="M54.5552 126.605C54.6218 126.53 54.7012 126.466 54.7898 126.419C55.0333 126.263 55.302 126.151 55.5839 126.088C56.0358 125.982 56.5072 125.993 56.9536 126.12C57.5506 126.301 58.0702 126.676 58.43 127.186C58.8467 127.816 59.052 128.563 59.0162 129.318C59.0162 130.107 58.9683 130.917 58.9416 131.802C58.9374 132.723 58.8626 133.642 58.7178 134.552C58.6315 135.046 58.4505 135.518 58.1848 135.943C57.8861 136.389 57.4413 136.717 56.927 136.87C56.4212 136.989 55.8931 136.976 55.3943 136.83C54.8955 136.684 54.443 136.412 54.0809 136.039C53.4349 135.34 53.0232 134.457 52.903 133.512C52.7025 131.957 52.8222 130.378 53.2548 128.87C53.3951 128.283 53.6195 127.72 53.921 127.197C54.158 126.793 54.5213 126.478 54.955 126.301C55.2282 126.189 55.5291 126.161 55.8184 126.221C55.9181 126.237 56.0129 126.275 56.0955 126.333C55.7329 126.235 55.3473 126.263 55.0029 126.413C54.605 126.595 54.2774 126.902 54.0702 127.287C53.7949 127.803 53.5905 128.353 53.4626 128.924C53.0752 130.407 52.9811 131.951 53.1855 133.47C53.3033 134.35 53.6884 135.172 54.2888 135.826C54.615 136.158 55.021 136.401 55.4679 136.531C55.9149 136.662 56.3879 136.676 56.8417 136.572C57.28 136.436 57.6571 136.151 57.9076 135.767C58.1692 135.381 58.3505 134.946 58.4406 134.488C58.5817 133.594 58.6583 132.691 58.6698 131.786C58.7071 130.917 58.7711 130.08 58.7764 129.318C58.8195 128.619 58.6424 127.923 58.2701 127.33C57.9407 126.854 57.4655 126.499 56.9163 126.317C56.4999 126.183 56.0563 126.155 55.6265 126.237C55.253 126.305 54.8918 126.429 54.5552 126.605Z" fill="#455A64"/>
<path d="M76.924 131.06C75.9609 131.288 74.9767 131.415 73.9873 131.439C73.0063 131.564 72.0148 131.585 71.0293 131.503C71.9928 131.278 72.9769 131.153 73.966 131.13C74.9469 131.004 75.9382 130.981 76.924 131.06Z" fill="#455A64"/>
<path d="M75.9057 132.808C74.3853 132.587 72.9023 132.158 71.498 131.535C72.2659 131.6 73.022 131.764 73.7472 132.025C74.4981 132.19 75.2239 132.453 75.9057 132.808Z" fill="#455A64"/>
<path d="M83.01 127.975C83.0968 128.003 83.178 128.046 83.2499 128.103C83.4642 128.258 83.6378 128.463 83.7562 128.7C84.1079 129.307 84.1932 130.325 84.1719 131.519C84.2039 132.943 83.9483 134.359 83.4204 135.681C83.0834 136.469 82.5798 137.175 81.9441 137.749C81.61 138.07 81.2072 138.311 80.7662 138.453C80.5213 138.515 80.265 138.515 80.02 138.453C79.7684 138.385 79.5445 138.24 79.3805 138.037C79.102 137.647 78.9278 137.192 78.8741 136.715C78.7897 136.279 78.731 135.837 78.6983 135.394C78.6442 134.555 78.6799 133.714 78.8048 132.883C79.0196 131.476 79.5008 130.123 80.2226 128.897C80.4868 128.403 80.8861 127.994 81.3738 127.719C81.5648 127.622 81.774 127.566 81.9879 127.555C82.2018 127.544 82.4157 127.578 82.6156 127.655C82.874 127.752 83.0869 127.942 83.2125 128.188C83.2576 128.27 83.2831 128.361 83.2872 128.454C83.2872 128.454 83.2499 128.364 83.1592 128.22C83.0182 128.017 82.8138 127.867 82.5783 127.793C82.3944 127.73 82.199 127.706 82.0051 127.723C81.8113 127.741 81.6233 127.799 81.4537 127.895C80.9992 128.166 80.6299 128.559 80.3878 129.03C79.7103 130.243 79.2623 131.571 79.066 132.947C78.9512 133.757 78.9226 134.577 78.9807 135.394C79.0147 135.825 79.0716 136.253 79.1513 136.678C79.2013 137.103 79.355 137.51 79.599 137.861C79.7252 138.014 79.8951 138.123 80.0858 138.176C80.2765 138.228 80.4786 138.221 80.6649 138.154C81.0648 138.029 81.4298 137.812 81.7309 137.52C82.3316 136.975 82.8094 136.308 83.1326 135.564C83.654 134.277 83.9218 132.902 83.9214 131.514C84.0297 130.582 83.9259 129.638 83.6176 128.753C83.4739 128.452 83.2665 128.187 83.01 127.975Z" fill="#455A64"/>
<path d="M91.9102 30.8717L95.4651 46.2906L103.785 44.4945L100.875 28.6705L91.9102 30.8717Z" fill="#263238"/>
<path d="M92.8965 31.6659L95.62 44.0096L102.836 42.2295L100.257 29.8272L92.8965 31.6659Z" fill="white"/>
<path d="M100.283 44.1588C100.284 44.3111 100.24 44.4602 100.156 44.5872C100.072 44.7143 99.9521 44.8134 99.8117 44.8722C99.6712 44.9309 99.5165 44.9466 99.3671 44.9171C99.2177 44.8877 99.0805 44.8145 98.9728 44.7068C98.8652 44.5992 98.792 44.462 98.7625 44.3126C98.7331 44.1632 98.7487 44.0085 98.8075 43.868C98.8662 43.7275 98.9654 43.6077 99.0925 43.5238C99.2195 43.4399 99.3686 43.3956 99.5208 43.3967C99.723 43.3967 99.9168 43.477 100.06 43.6199C100.203 43.7629 100.283 43.9567 100.283 44.1588Z" fill="#455A64"/>
<path d="M98.0667 29.9928L94.7676 30.7337L94.7782 30.7816L98.0773 30.0408L98.0667 29.9928Z" fill="#455A64"/>
<path d="M99.8715 30.9059L93.5117 32.3345L94.6518 37.4098L101.012 35.9813L99.8715 30.9059Z" fill="#F0F0F0"/>
<path d="M94.8262 37.9873L95.3112 39.794L101.552 38.3657L101.11 36.399L94.8262 37.9873Z" fill="#E0E0E0"/>
<path d="M95.5195 40.4921L96.0898 43.237L102.256 41.6967L101.665 39.0798L95.5195 40.4921Z" fill="#EBEBEB"/>
<path d="M49.7312 58.0859C49.5607 59.0186 49.3102 60.4256 49.0117 62.0778C52.6519 62.2324 57.0063 62.4242 61.7444 62.6428C66.7171 62.8773 71.338 63.1011 75.0688 63.293L75.0315 59.2584C71.3007 59.1038 66.8024 58.9066 61.9257 58.6775C57.4274 58.4696 53.2595 58.2671 49.7312 58.0859Z" fill="#41CC97"/>
<path d="M44.5927 40.6838C43.8814 41.9779 43.2668 43.3229 42.7539 44.7077C46.7246 44.8463 54.0956 45.1554 62.5379 45.5498C70.0421 45.8962 76.7096 46.232 80.8775 46.4612C80.3202 45.0285 79.6686 43.6344 78.9268 42.288C74.7856 42.1281 69.0508 41.8776 62.7191 41.5845C55.3374 41.2434 48.7765 40.9129 44.5927 40.6838Z" fill="#41CC97"/>
<path d="M67.3034 37.1455C67.0336 37.4944 66.7262 37.8125 66.3867 38.0941C69.2328 38.2274 71.903 38.3553 74.3014 38.4779C72.0334 37.7438 69.6825 37.2962 67.3034 37.1455Z" fill="#41CC97"/>
<path d="M54.8906 83.5517L75.2928 86.7495V84.4418C71.3328 84.2765 66.2323 84.058 60.7107 83.7969L54.8906 83.5517Z" fill="#41CC97"/>
<path d="M75.8575 61.3687L77.4085 59.3541L75.0527 59.2581L75.8575 61.3687Z" fill="#41CC97"/>
<path d="M46.5442 75.0719C46.2191 76.5375 45.8993 77.9393 45.6328 79.0798C49.6887 79.2397 55.0558 79.4742 60.9505 79.7514C66.3548 80.0019 71.3168 80.2417 75.2341 80.4442L75.1968 76.4043C71.3168 76.2444 66.4348 76.0312 61.137 75.786C55.5888 75.5142 50.4989 75.2691 46.5442 75.0719Z" fill="#41CC97"/>
<path d="M45.5799 79.2923C45.2281 80.774 44.9883 81.7546 44.9883 81.7546L52.4499 83.1457C55.0028 83.2576 57.7796 83.3802 60.6843 83.5188C66.2219 83.7746 71.2958 84.0198 75.2558 84.2276L75.2185 80.678C71.3012 80.5128 66.3339 80.2996 60.9188 80.0438C55.0242 79.772 49.6358 79.5055 45.5799 79.2923Z" fill="#41CC97"/>
<path d="M47.4398 70.8076C47.1893 72.0814 46.9068 73.4724 46.5977 74.8102C50.5523 74.9701 55.6209 75.1939 61.1478 75.4498C66.4456 75.6949 71.317 75.9348 75.1917 76.132L75.1544 72.092C71.3116 71.9321 66.5255 71.7243 61.3344 71.4844C56.1432 71.2446 51.2932 71.0208 47.4398 70.8076Z" fill="#41CC97"/>
<path d="M41.3591 49.0623C40.906 50.7198 40.5916 52.1535 40.373 53.2194C43.379 53.2994 51.9759 53.6512 62.1184 54.1255C69.7878 54.4773 76.5673 54.8184 80.7191 55.0529L82.851 52.2494C82.851 52.2494 82.7124 51.7751 82.4673 51.0129C78.6032 50.8797 71.0137 50.5599 62.2836 50.1549C52.9459 49.6965 44.8927 49.2861 41.3591 49.0623Z" fill="#41CC97"/>
<path d="M40.3721 53.2895C40.2069 54.1583 40.127 54.6806 40.127 54.6806L49.9656 56.9084C49.9656 56.9084 49.907 57.2442 49.8004 57.8304C53.3287 57.9797 57.4966 58.1609 61.9682 58.3634C68.0174 58.6459 73.5124 58.8964 77.6003 59.1309L80.6329 55.1922C76.4651 55.0377 69.7389 54.7499 62.1547 54.3981C51.9696 53.9344 43.3621 53.492 40.3721 53.2895Z" fill="#41CC97"/>
<path d="M48.97 62.3336C48.7462 63.5701 48.5064 64.9345 48.2559 66.3309C51.9867 66.4854 56.5916 66.688 61.5482 66.9171C66.6274 67.1516 71.3176 67.3808 75.1124 67.578L75.0751 63.5434C71.3176 63.3889 66.7127 63.181 61.7507 62.9518C57.002 62.7333 52.6316 62.5201 48.97 62.3336Z" fill="#41CC97"/>
<path d="M42.6964 44.8574C42.1634 46.2591 41.7477 47.6555 41.3906 48.9453C44.9456 49.0519 52.9828 49.3877 62.3365 49.8247C71.0293 50.2245 78.5868 50.6082 82.4562 50.8374C82.1151 49.7714 81.5928 48.2525 80.9532 46.6482C76.7854 46.4936 70.0806 46.2058 62.523 45.8594C54.0434 45.465 46.6511 45.0919 42.6964 44.8574Z" fill="#41CC97"/>
<path d="M48.2131 66.5764C48.0639 67.4079 47.9147 68.2446 47.7708 69.0654C47.6855 69.5451 47.5895 70.0514 47.4883 70.5791C51.3363 70.7389 56.1384 70.9521 61.3456 71.192C66.5527 71.4318 71.3175 71.6663 75.1549 71.8635L75.1176 67.8289C71.3122 67.669 66.6167 67.4612 61.5321 67.2266C56.5595 66.9975 51.9653 66.7736 48.2131 66.5764Z" fill="#41CC97"/>
<path d="M60.1935 37.8059C59.4275 37.291 58.723 36.6901 58.0936 36.0151C58.0936 36.0151 52.9024 33.7393 48.8465 35.9405C48.2145 36.291 47.635 36.7288 47.125 37.2409C50.616 37.3795 55.1516 37.5714 60.1935 37.8059Z" fill="#41CC97"/>
<path d="M46.9178 37.4485C46.0518 38.3673 45.3051 39.3916 44.6953 40.4971C48.8845 40.657 55.4081 40.9342 62.7365 41.2753C68.9989 41.5631 74.6644 41.8455 78.8003 42.0641C78.3577 41.2353 77.767 40.4947 77.0574 39.8789C76.4459 39.4317 75.7818 39.0612 75.0801 38.7756C72.3833 38.6637 69.3027 38.5304 66.0196 38.3812C64.2128 39.5804 62.2568 39.0154 60.7378 38.136C55.3708 37.8802 50.558 37.6457 46.9178 37.4485Z" fill="#41CC97"/>
<path d="M44.695 40.4976C44.6581 40.558 44.6243 40.6203 44.5938 40.6842C48.7776 40.9133 55.3385 41.2438 62.7148 41.5849C69.0466 41.878 74.7813 42.1179 78.9225 42.2884L78.7946 42.0646C74.6588 41.8461 68.9933 41.5636 62.7308 41.2758C55.4078 40.9613 48.9002 40.6575 44.695 40.4976Z" fill="#263238"/>
<path d="M74.3023 38.4774C71.9039 38.3548 69.2337 38.2269 66.3876 38.0936C66.2597 38.1931 66.1318 38.289 66.0039 38.3814C69.303 38.5307 72.3996 38.6639 75.0645 38.7758C74.8246 38.6692 74.5635 38.5733 74.3023 38.4774Z" fill="#263238"/>
<path d="M47.1258 37.2302C47.0512 37.2942 46.9873 37.3688 46.918 37.4381C50.5582 37.6353 55.3709 37.8698 60.722 38.1256C60.5408 38.019 60.3649 37.9071 60.189 37.7952C55.1524 37.5713 50.6168 37.3795 47.1258 37.2302Z" fill="#263238"/>
<path d="M42.7539 44.6918C42.7376 44.7427 42.718 44.7926 42.6953 44.841C46.65 45.0755 54.0423 45.4486 62.5219 45.843C70.0795 46.1894 76.7843 46.4772 80.9521 46.6318C80.9521 46.5731 80.9042 46.5092 80.8775 46.4452C76.7097 46.2161 70.0422 45.8803 62.5379 45.5339C54.0956 45.1554 46.7246 44.8463 42.7539 44.6918Z" fill="#263238"/>
<path d="M41.3894 48.956L41.3574 49.0733C44.891 49.2971 52.9443 49.7075 62.3246 50.1392C71.0547 50.5443 78.6442 50.8641 82.5083 50.9973C82.5083 50.9494 82.4763 50.9014 82.455 50.8481C78.5856 50.6189 71.028 50.2352 62.3352 49.8354C52.9816 49.3877 44.9443 49.052 41.3894 48.956Z" fill="#263238"/>
<path d="M40.373 53.2193C40.3755 53.2513 40.3755 53.2834 40.373 53.3153C43.363 53.5178 51.9705 53.9602 62.129 54.4292C69.7132 54.781 76.4393 55.0688 80.6072 55.2233L80.7404 55.0528C76.5886 54.8183 69.8092 54.4772 62.1397 54.1254C51.9972 53.6244 43.4003 53.2726 40.373 53.2193Z" fill="#263238"/>
<path d="M49.7751 57.8296C49.7751 57.9095 49.7751 57.9948 49.7324 58.0854C53.2607 58.2666 57.4445 58.4691 61.9269 58.677C66.8036 58.9062 71.3178 59.1034 75.0327 59.2579L77.3884 59.3539L77.5536 59.1354C73.4657 58.9222 67.9601 58.6504 61.9215 58.3679C57.4712 58.16 53.3033 57.9788 49.7751 57.8296Z" fill="#263238"/>
<path d="M49.0114 62.0773C49.0114 62.1626 48.9847 62.2478 48.9688 62.3331C52.6143 62.5197 57.0007 62.7328 61.7281 62.9514C66.7114 63.1805 71.3216 63.3884 75.0525 63.543V63.2925C71.3216 63.1006 66.7008 62.8767 61.7281 62.6422C57.0326 62.4237 52.6303 62.2319 49.0114 62.0773Z" fill="#263238"/>
<path d="M48.2555 66.3309C48.2555 66.4108 48.2555 66.4961 48.2129 66.576C51.9437 66.7732 56.5593 66.9971 61.5372 67.2262C66.6218 67.4608 71.3173 67.6686 75.1227 67.8285V67.578C71.3279 67.3808 66.6378 67.1516 61.5585 66.9171C56.5912 66.6879 52.0023 66.4854 48.2555 66.3309Z" fill="#263238"/>
<path d="M47.4874 70.5786L47.4395 70.8237C51.2928 71.0209 56.1056 71.2554 61.3341 71.5006C66.5625 71.7458 71.3113 71.9483 75.1541 72.1082V71.8737C71.3167 71.6765 66.5359 71.442 61.3447 71.2021C56.1536 70.9623 51.3355 70.7385 47.4874 70.5786Z" fill="#263238"/>
<path d="M46.5982 74.8263C46.5982 74.9009 46.5609 74.9809 46.5449 75.0608C50.5049 75.2687 55.6055 75.5138 61.1377 75.775C66.4355 76.0202 71.3175 76.2333 75.1976 76.3932V76.1374C71.3228 75.9402 66.4515 75.7004 61.1537 75.4552C55.6215 75.21 50.5529 74.9862 46.5982 74.8263Z" fill="#263238"/>
<path d="M45.6334 79.0691C45.6334 79.1438 45.5961 79.2184 45.5801 79.293C49.636 79.5062 55.0244 79.7727 60.935 80.0445C66.35 80.3003 71.3174 80.5135 75.2347 80.6787V80.4389C71.3174 80.2364 66.3554 79.9965 60.951 79.746C55.0563 79.4635 49.6893 79.229 45.6334 79.0691Z" fill="#263238"/>
<path d="M52.4668 83.1463L54.5667 83.5354H54.8918L60.6906 83.8072C66.2282 84.0684 71.3127 84.2869 75.2727 84.4521H75.3047V84.2123C71.3447 84.0044 66.2442 83.7593 60.7332 83.5034C57.7965 83.3808 55.0197 83.2582 52.4668 83.1463Z" fill="#263238"/>
<path d="M75.1867 63.1651C75.1014 63.1651 74.7337 60.0739 74.3659 56.2365C73.9982 52.3991 73.769 49.3078 73.8329 49.3078C73.8969 49.3078 74.286 52.3991 74.6537 56.2365C75.0215 60.0739 75.272 63.1545 75.1867 63.1651Z" fill="#263238"/>
<path d="M74.8391 47.7993C74.9084 47.8473 74.6793 48.3056 74.3062 48.8279C73.9331 49.3503 73.608 49.7393 73.5334 49.6914C73.4587 49.6434 73.6932 49.1584 74.0663 48.6574C74.4394 48.1564 74.7699 47.7513 74.8391 47.7993Z" fill="#263238"/>
<path d="M69.9836 64.4116C70.0262 64.4862 66.2954 66.5435 61.6479 68.9898C57.0003 71.4362 53.2056 73.3655 53.1682 73.2909C53.1309 73.2163 56.8617 71.159 61.5039 68.718C66.1461 66.277 69.9462 64.3316 69.9836 64.4116Z" fill="#263238"/>
<path d="M70.8847 68.0791C70.3035 68.2512 69.7103 68.3795 69.1099 68.4628L64.8461 69.2676L60.5823 70.1363C59.9966 70.2902 59.3996 70.3972 58.7969 70.4561C59.3569 70.2213 59.939 70.0428 60.5344 69.9231C61.6003 69.6407 63.1246 69.2889 64.7982 68.9585C66.4717 68.628 67.996 68.3882 69.1152 68.2389C69.6992 68.1339 70.2913 68.0804 70.8847 68.0791Z" fill="#263238"/>
<path d="M50.4504 51.7752C50.5095 52.2316 50.5095 52.6938 50.4504 53.1503C50.4185 53.9977 50.3279 55.1649 50.1626 56.4494C49.9974 57.7338 49.7789 58.8904 49.5977 59.7218C49.5249 60.1754 49.3997 60.6189 49.2246 61.0436C49.225 60.5841 49.2786 60.1263 49.3845 59.6792C49.5124 58.8424 49.6883 57.6912 49.8535 56.4121C50.0187 55.1329 50.1467 53.971 50.2319 53.1343C50.2578 52.6749 50.331 52.2195 50.4504 51.7752Z" fill="#263238"/>
<path d="M67.3777 36.9323C67.3187 37.0674 67.2377 37.1917 67.1379 37.3001C66.899 37.6156 66.6352 37.9115 66.3491 38.1848C65.9235 38.6127 65.4004 38.9309 64.8248 39.1122C64.1108 39.3038 63.3589 39.3038 62.6449 39.1122C61.3768 38.7551 60.2019 38.1258 59.2019 37.2681C58.9002 37.0111 58.6187 36.7314 58.3598 36.4313C58.1786 36.2235 58.0933 36.0902 58.1093 36.0796C58.1253 36.0689 58.5517 36.5113 59.3298 37.1135C60.3341 37.9051 61.4839 38.4918 62.7142 38.8404C63.3815 39.0293 64.0862 39.044 64.7608 38.883C65.3028 38.722 65.8018 38.4415 66.2212 38.0622C66.9513 37.3853 67.3404 36.9003 67.3777 36.9323Z" fill="#263238"/>
<path d="M140.411 61.168C140.011 61.168 139.699 61.056 139.475 60.832C139.267 60.608 139.163 60.296 139.163 59.896V45.184C139.163 44.768 139.267 44.456 139.475 44.248C139.699 44.024 140.011 43.912 140.411 43.912C140.811 43.912 141.115 44.024 141.323 44.248C141.547 44.456 141.659 44.768 141.659 45.184V51.376H151.139V45.184C151.139 44.768 151.243 44.456 151.451 44.248C151.675 44.024 151.987 43.912 152.387 43.912C152.787 43.912 153.091 44.024 153.299 44.248C153.507 44.456 153.611 44.768 153.611 45.184V59.896C153.611 60.296 153.507 60.608 153.299 60.832C153.091 61.056 152.787 61.168 152.387 61.168C151.987 61.168 151.675 61.056 151.451 60.832C151.243 60.608 151.139 60.296 151.139 59.896V53.464H141.659V59.896C141.659 60.296 141.555 60.608 141.347 60.832C141.139 61.056 140.827 61.168 140.411 61.168ZM162.626 61.216C161.442 61.216 160.418 60.968 159.554 60.472C158.706 59.976 158.042 59.272 157.562 58.36C157.082 57.448 156.842 56.376 156.842 55.144C156.842 54.2 156.978 53.36 157.25 52.624C157.522 51.888 157.906 51.256 158.402 50.728C158.914 50.184 159.522 49.776 160.226 49.504C160.946 49.216 161.746 49.072 162.626 49.072C163.794 49.072 164.802 49.32 165.65 49.816C166.514 50.312 167.186 51.016 167.666 51.928C168.146 52.824 168.386 53.896 168.386 55.144C168.386 56.072 168.25 56.912 167.978 57.664C167.706 58.416 167.314 59.056 166.802 59.584C166.306 60.112 165.698 60.52 164.978 60.808C164.274 61.08 163.49 61.216 162.626 61.216ZM162.626 59.344C163.282 59.344 163.858 59.184 164.354 58.864C164.85 58.544 165.234 58.072 165.506 57.448C165.794 56.824 165.938 56.056 165.938 55.144C165.938 53.768 165.634 52.728 165.026 52.024C164.418 51.32 163.618 50.968 162.626 50.968C161.954 50.968 161.37 51.128 160.874 51.448C160.378 51.752 159.986 52.216 159.698 52.84C159.426 53.464 159.29 54.232 159.29 55.144C159.29 56.504 159.594 57.544 160.202 58.264C160.81 58.984 161.618 59.344 162.626 59.344ZM175.409 61.168C175.073 61.168 174.777 61.088 174.521 60.928C174.281 60.752 174.089 60.48 173.945 60.112L170.417 50.776C170.289 50.456 170.249 50.176 170.297 49.936C170.345 49.68 170.465 49.48 170.657 49.336C170.865 49.192 171.129 49.12 171.449 49.12C171.737 49.12 171.969 49.192 172.145 49.336C172.337 49.464 172.497 49.72 172.625 50.104L175.769 58.96H175.193L178.457 50.008C178.569 49.704 178.721 49.48 178.913 49.336C179.105 49.192 179.353 49.12 179.657 49.12C179.961 49.12 180.209 49.192 180.401 49.336C180.609 49.48 180.761 49.704 180.857 50.008L184.049 58.96H183.521L186.713 50.056C186.841 49.688 187.001 49.44 187.193 49.312C187.401 49.184 187.633 49.12 187.889 49.12C188.209 49.12 188.449 49.2 188.609 49.36C188.785 49.52 188.881 49.728 188.897 49.984C188.929 50.224 188.889 50.488 188.777 50.776L185.249 60.112C185.105 60.464 184.905 60.728 184.649 60.904C184.409 61.08 184.129 61.168 183.809 61.168C183.473 61.168 183.177 61.08 182.921 60.904C182.681 60.728 182.489 60.464 182.345 60.112L178.985 51.016H180.185L176.849 60.112C176.721 60.464 176.529 60.728 176.273 60.904C176.033 61.08 175.745 61.168 175.409 61.168ZM203.234 61.216C202.274 61.216 201.466 61.048 200.81 60.712C200.154 60.376 199.666 59.88 199.346 59.224C199.026 58.568 198.866 57.768 198.866 56.824V51.16H197.426C197.106 51.16 196.858 51.08 196.682 50.92C196.506 50.744 196.418 50.512 196.418 50.224C196.418 49.92 196.506 49.688 196.682 49.528C196.858 49.368 197.106 49.288 197.426 49.288H198.866V46.816C198.866 46.416 198.97 46.112 199.178 45.904C199.402 45.696 199.706 45.592 200.09 45.592C200.474 45.592 200.77 45.696 200.978 45.904C201.186 46.112 201.29 46.416 201.29 46.816V49.288H204.098C204.418 49.288 204.666 49.368 204.842 49.528C205.018 49.688 205.106 49.92 205.106 50.224C205.106 50.512 205.018 50.744 204.842 50.92C204.666 51.08 204.418 51.16 204.098 51.16H201.29V56.632C201.29 57.48 201.466 58.12 201.818 58.552C202.186 58.984 202.778 59.2 203.594 59.2C203.882 59.2 204.13 59.176 204.338 59.128C204.562 59.064 204.746 59.024 204.89 59.008C205.066 59.008 205.21 59.072 205.322 59.2C205.434 59.312 205.49 59.536 205.49 59.872C205.49 60.112 205.442 60.336 205.346 60.544C205.266 60.752 205.114 60.888 204.89 60.952C204.698 61.016 204.434 61.072 204.098 61.12C203.778 61.184 203.49 61.216 203.234 61.216ZM212.219 61.216C211.035 61.216 210.011 60.968 209.147 60.472C208.299 59.976 207.635 59.272 207.155 58.36C206.675 57.448 206.435 56.376 206.435 55.144C206.435 54.2 206.571 53.36 206.843 52.624C207.115 51.888 207.499 51.256 207.995 50.728C208.507 50.184 209.115 49.776 209.819 49.504C210.539 49.216 211.339 49.072 212.219 49.072C213.387 49.072 214.395 49.32 215.243 49.816C216.107 50.312 216.779 51.016 217.259 51.928C217.739 52.824 217.979 53.896 217.979 55.144C217.979 56.072 217.843 56.912 217.571 57.664C217.299 58.416 216.907 59.056 216.395 59.584C215.899 60.112 215.291 60.52 214.571 60.808C213.867 61.08 213.083 61.216 212.219 61.216ZM212.219 59.344C212.875 59.344 213.451 59.184 213.947 58.864C214.443 58.544 214.827 58.072 215.099 57.448C215.387 56.824 215.531 56.056 215.531 55.144C215.531 53.768 215.227 52.728 214.619 52.024C214.011 51.32 213.211 50.968 212.219 50.968C211.547 50.968 210.963 51.128 210.467 51.448C209.971 51.752 209.579 52.216 209.291 52.84C209.019 53.464 208.883 54.232 208.883 55.144C208.883 56.504 209.187 57.544 209.795 58.264C210.403 58.984 211.211 59.344 212.219 59.344ZM146.747 93.216C145.035 93.216 143.571 92.864 142.355 92.16C141.139 91.456 140.203 90.456 139.547 89.16C138.907 87.848 138.587 86.304 138.587 84.528C138.587 83.2 138.771 82.008 139.139 80.952C139.507 79.88 140.035 78.968 140.723 78.216C141.427 77.448 142.283 76.864 143.291 76.464C144.315 76.064 145.467 75.864 146.747 75.864C147.691 75.864 148.595 75.992 149.459 76.248C150.339 76.504 151.099 76.872 151.739 77.352C152.011 77.528 152.187 77.744 152.267 78C152.363 78.24 152.379 78.472 152.315 78.696C152.267 78.92 152.163 79.112 152.003 79.272C151.843 79.416 151.635 79.496 151.379 79.512C151.139 79.528 150.875 79.44 150.587 79.248C150.059 78.848 149.475 78.552 148.835 78.36C148.195 78.168 147.523 78.072 146.819 78.072C145.603 78.072 144.579 78.328 143.747 78.84C142.915 79.336 142.283 80.064 141.851 81.024C141.419 81.984 141.203 83.152 141.203 84.528C141.203 85.904 141.419 87.08 141.851 88.056C142.283 89.016 142.915 89.752 143.747 90.264C144.579 90.76 145.603 91.008 146.819 91.008C147.523 91.008 148.195 90.912 148.835 90.72C149.491 90.512 150.107 90.208 150.683 89.808C150.971 89.632 151.227 89.552 151.451 89.568C151.691 89.584 151.891 89.664 152.051 89.808C152.211 89.952 152.315 90.136 152.363 90.36C152.427 90.568 152.419 90.792 152.339 91.032C152.275 91.256 152.123 91.448 151.883 91.608C151.227 92.136 150.451 92.536 149.555 92.808C148.659 93.08 147.723 93.216 146.747 93.216ZM158.704 93.216C157.888 93.216 157.152 93.056 156.496 92.736C155.856 92.416 155.352 91.984 154.984 91.44C154.616 90.896 154.432 90.28 154.432 89.592C154.432 88.728 154.648 88.048 155.08 87.552C155.528 87.04 156.256 86.68 157.264 86.472C158.288 86.248 159.664 86.136 161.392 86.136H162.52V87.624H161.416C160.264 87.624 159.352 87.68 158.68 87.792C158.008 87.904 157.528 88.096 157.24 88.368C156.968 88.624 156.832 88.984 156.832 89.448C156.832 90.056 157.04 90.552 157.456 90.936C157.872 91.304 158.448 91.488 159.184 91.488C159.776 91.488 160.296 91.352 160.744 91.08C161.192 90.792 161.544 90.408 161.8 89.928C162.072 89.448 162.208 88.896 162.208 88.272V85.512C162.208 84.6 162.016 83.944 161.632 83.544C161.248 83.144 160.616 82.944 159.736 82.944C159.224 82.944 158.688 83.008 158.128 83.136C157.584 83.264 157.016 83.48 156.424 83.784C156.152 83.912 155.92 83.952 155.728 83.904C155.536 83.856 155.384 83.752 155.272 83.592C155.16 83.416 155.096 83.232 155.08 83.04C155.08 82.832 155.128 82.632 155.224 82.44C155.336 82.248 155.52 82.104 155.776 82.008C156.48 81.672 157.176 81.432 157.864 81.288C158.552 81.144 159.2 81.072 159.808 81.072C160.88 81.072 161.76 81.24 162.448 81.576C163.152 81.912 163.672 82.424 164.008 83.112C164.344 83.8 164.512 84.688 164.512 85.776V91.944C164.512 92.328 164.416 92.632 164.224 92.856C164.032 93.064 163.752 93.168 163.384 93.168C163.032 93.168 162.752 93.064 162.544 92.856C162.336 92.632 162.232 92.328 162.232 91.944V90.384H162.448C162.32 90.976 162.08 91.488 161.728 91.92C161.392 92.336 160.968 92.656 160.456 92.88C159.944 93.104 159.36 93.216 158.704 93.216ZM171.858 93.216C170.61 93.216 169.666 92.856 169.026 92.136C168.402 91.4 168.09 90.344 168.09 88.968V77.136C168.09 76.736 168.194 76.432 168.402 76.224C168.61 76.016 168.906 75.912 169.29 75.912C169.674 75.912 169.97 76.016 170.178 76.224C170.402 76.432 170.514 76.736 170.514 77.136V88.824C170.514 89.624 170.674 90.224 170.994 90.624C171.33 91.008 171.81 91.2 172.434 91.2C172.578 91.2 172.706 91.2 172.818 91.2C172.93 91.184 173.042 91.168 173.154 91.152C173.346 91.136 173.482 91.192 173.562 91.32C173.642 91.432 173.682 91.672 173.682 92.04C173.682 92.376 173.61 92.64 173.466 92.832C173.322 93.008 173.09 93.12 172.77 93.168C172.626 93.184 172.474 93.192 172.314 93.192C172.154 93.208 172.002 93.216 171.858 93.216ZM180.709 93.216C179.509 93.216 178.469 92.968 177.589 92.472C176.725 91.96 176.053 91.248 175.573 90.336C175.093 89.408 174.853 88.32 174.853 87.072C174.853 86.144 174.989 85.312 175.261 84.576C175.533 83.824 175.917 83.192 176.413 82.68C176.925 82.168 177.541 81.776 178.261 81.504C178.997 81.216 179.813 81.072 180.709 81.072C181.269 81.072 181.853 81.16 182.461 81.336C183.085 81.496 183.661 81.768 184.189 82.152C184.397 82.28 184.525 82.44 184.573 82.632C184.637 82.808 184.645 82.992 184.597 83.184C184.565 83.376 184.477 83.544 184.333 83.688C184.205 83.816 184.045 83.896 183.853 83.928C183.661 83.944 183.453 83.888 183.229 83.76C182.845 83.488 182.453 83.296 182.053 83.184C181.653 83.056 181.269 82.992 180.901 82.992C180.325 82.992 179.813 83.088 179.365 83.28C178.933 83.456 178.565 83.72 178.261 84.072C177.957 84.408 177.725 84.832 177.565 85.344C177.421 85.856 177.349 86.44 177.349 87.096C177.349 88.408 177.653 89.44 178.261 90.192C178.885 90.928 179.765 91.296 180.901 91.296C181.269 91.296 181.653 91.24 182.053 91.128C182.453 91.016 182.845 90.824 183.229 90.552C183.453 90.424 183.661 90.376 183.853 90.408C184.045 90.44 184.197 90.528 184.309 90.672C184.437 90.8 184.517 90.96 184.549 91.152C184.597 91.328 184.589 91.512 184.525 91.704C184.461 91.896 184.325 92.056 184.117 92.184C183.605 92.552 183.045 92.816 182.437 92.976C181.845 93.136 181.269 93.216 180.709 93.216ZM191.168 93.216C190.224 93.216 189.432 93.04 188.792 92.688C188.168 92.336 187.696 91.816 187.376 91.128C187.072 90.424 186.92 89.544 186.92 88.488V82.344C186.92 81.928 187.024 81.624 187.232 81.432C187.44 81.224 187.736 81.12 188.12 81.12C188.504 81.12 188.8 81.224 189.008 81.432C189.232 81.624 189.344 81.928 189.344 82.344V88.512C189.344 89.456 189.536 90.152 189.92 90.6C190.304 91.048 190.912 91.272 191.744 91.272C192.656 91.272 193.392 90.968 193.952 90.36C194.528 89.736 194.816 88.92 194.816 87.912V82.344C194.816 81.928 194.92 81.624 195.128 81.432C195.336 81.224 195.64 81.12 196.04 81.12C196.424 81.12 196.72 81.224 196.928 81.432C197.136 81.624 197.24 81.928 197.24 82.344V91.944C197.24 92.76 196.848 93.168 196.064 93.168C195.696 93.168 195.408 93.064 195.2 92.856C194.992 92.632 194.888 92.328 194.888 91.944V89.904L195.2 90.432C194.88 91.328 194.368 92.016 193.664 92.496C192.96 92.976 192.128 93.216 191.168 93.216ZM204.664 93.216C203.416 93.216 202.472 92.856 201.832 92.136C201.208 91.4 200.896 90.344 200.896 88.968V77.136C200.896 76.736 201 76.432 201.208 76.224C201.416 76.016 201.712 75.912 202.096 75.912C202.48 75.912 202.776 76.016 202.984 76.224C203.208 76.432 203.32 76.736 203.32 77.136V88.824C203.32 89.624 203.48 90.224 203.8 90.624C204.136 91.008 204.616 91.2 205.24 91.2C205.384 91.2 205.512 91.2 205.624 91.2C205.736 91.184 205.848 91.168 205.96 91.152C206.152 91.136 206.288 91.192 206.368 91.32C206.448 91.432 206.488 91.672 206.488 92.04C206.488 92.376 206.416 92.64 206.272 92.832C206.128 93.008 205.896 93.12 205.576 93.168C205.432 93.184 205.28 93.192 205.12 93.192C204.96 93.208 204.808 93.216 204.664 93.216ZM212.216 93.216C211.4 93.216 210.664 93.056 210.008 92.736C209.368 92.416 208.864 91.984 208.496 91.44C208.128 90.896 207.944 90.28 207.944 89.592C207.944 88.728 208.16 88.048 208.592 87.552C209.04 87.04 209.768 86.68 210.776 86.472C211.8 86.248 213.176 86.136 214.904 86.136H216.032V87.624H214.928C213.776 87.624 212.864 87.68 212.192 87.792C211.52 87.904 211.04 88.096 210.752 88.368C210.48 88.624 210.344 88.984 210.344 89.448C210.344 90.056 210.552 90.552 210.968 90.936C211.384 91.304 211.96 91.488 212.696 91.488C213.288 91.488 213.808 91.352 214.256 91.08C214.704 90.792 215.056 90.408 215.312 89.928C215.584 89.448 215.72 88.896 215.72 88.272V85.512C215.72 84.6 215.528 83.944 215.144 83.544C214.76 83.144 214.128 82.944 213.248 82.944C212.736 82.944 212.2 83.008 211.64 83.136C211.096 83.264 210.528 83.48 209.936 83.784C209.664 83.912 209.432 83.952 209.24 83.904C209.048 83.856 208.896 83.752 208.784 83.592C208.672 83.416 208.608 83.232 208.592 83.04C208.592 82.832 208.64 82.632 208.736 82.44C208.848 82.248 209.032 82.104 209.288 82.008C209.992 81.672 210.688 81.432 211.376 81.288C212.064 81.144 212.712 81.072 213.32 81.072C214.392 81.072 215.272 81.24 215.96 81.576C216.664 81.912 217.184 82.424 217.52 83.112C217.856 83.8 218.024 84.688 218.024 85.776V91.944C218.024 92.328 217.928 92.632 217.736 92.856C217.544 93.064 217.264 93.168 216.896 93.168C216.544 93.168 216.264 93.064 216.056 92.856C215.848 92.632 215.744 92.328 215.744 91.944V90.384H215.96C215.832 90.976 215.592 91.488 215.24 91.92C214.904 92.336 214.48 92.656 213.968 92.88C213.456 93.104 212.872 93.216 212.216 93.216ZM226.595 93.216C225.635 93.216 224.827 93.048 224.171 92.712C223.515 92.376 223.027 91.88 222.707 91.224C222.387 90.568 222.227 89.768 222.227 88.824V83.16H220.787C220.467 83.16 220.219 83.08 220.043 82.92C219.867 82.744 219.779 82.512 219.779 82.224C219.779 81.92 219.867 81.688 220.043 81.528C220.219 81.368 220.467 81.288 220.787 81.288H222.227V78.816C222.227 78.416 222.331 78.112 222.539 77.904C222.763 77.696 223.067 77.592 223.451 77.592C223.835 77.592 224.131 77.696 224.339 77.904C224.547 78.112 224.651 78.416 224.651 78.816V81.288H227.459C227.779 81.288 228.027 81.368 228.203 81.528C228.379 81.688 228.467 81.92 228.467 82.224C228.467 82.512 228.379 82.744 228.203 82.92C228.027 83.08 227.779 83.16 227.459 83.16H224.651V88.632C224.651 89.48 224.827 90.12 225.179 90.552C225.547 90.984 226.139 91.2 226.955 91.2C227.243 91.2 227.491 91.176 227.699 91.128C227.923 91.064 228.107 91.024 228.251 91.008C228.427 91.008 228.571 91.072 228.683 91.2C228.795 91.312 228.851 91.536 228.851 91.872C228.851 92.112 228.803 92.336 228.707 92.544C228.627 92.752 228.475 92.888 228.251 92.952C228.059 93.016 227.795 93.072 227.459 93.12C227.139 93.184 226.851 93.216 226.595 93.216ZM235.987 93.216C234.707 93.216 233.603 92.976 232.675 92.496C231.763 92 231.051 91.304 230.539 90.408C230.043 89.496 229.795 88.416 229.795 87.168C229.795 85.952 230.043 84.888 230.539 83.976C231.035 83.064 231.715 82.352 232.579 81.84C233.443 81.328 234.427 81.072 235.531 81.072C236.347 81.072 237.075 81.208 237.715 81.48C238.355 81.736 238.899 82.12 239.347 82.632C239.811 83.128 240.155 83.736 240.379 84.456C240.619 85.176 240.739 85.984 240.739 86.88C240.739 87.152 240.659 87.36 240.499 87.504C240.339 87.632 240.099 87.696 239.779 87.696H231.715V86.208H239.107L238.699 86.544C238.699 85.744 238.579 85.064 238.339 84.504C238.115 83.944 237.771 83.52 237.307 83.232C236.859 82.928 236.299 82.776 235.627 82.776C234.875 82.776 234.235 82.952 233.707 83.304C233.195 83.656 232.803 84.144 232.531 84.768C232.259 85.392 232.123 86.12 232.123 86.952V87.096C232.123 88.504 232.451 89.568 233.107 90.288C233.779 90.992 234.747 91.344 236.011 91.344C236.491 91.344 236.995 91.28 237.523 91.152C238.067 91.024 238.579 90.808 239.059 90.504C239.331 90.344 239.571 90.272 239.779 90.288C240.003 90.304 240.179 90.376 240.307 90.504C240.451 90.632 240.539 90.792 240.571 90.984C240.603 91.176 240.571 91.376 240.475 91.584C240.379 91.776 240.211 91.952 239.971 92.112C239.427 92.48 238.795 92.76 238.075 92.952C237.355 93.128 236.659 93.216 235.987 93.216ZM139.475 125C139.155 125 138.891 124.936 138.683 124.808C138.491 124.68 138.355 124.504 138.275 124.28C138.211 124.04 138.211 123.784 138.275 123.512C138.355 123.224 138.507 122.928 138.731 122.624L148.331 109.328V110.168H139.283C138.915 110.168 138.635 110.08 138.443 109.904C138.251 109.712 138.155 109.448 138.155 109.112C138.155 108.776 138.251 108.52 138.443 108.344C138.635 108.168 138.915 108.08 139.283 108.08H149.483C149.803 108.08 150.067 108.144 150.275 108.272C150.483 108.4 150.619 108.576 150.683 108.8C150.763 109.024 150.763 109.28 150.683 109.568C150.619 109.856 150.475 110.152 150.251 110.456L140.627 123.752V122.912H150.035C150.403 122.912 150.683 123 150.875 123.176C151.067 123.352 151.163 123.608 151.163 123.944C151.163 124.28 151.067 124.544 150.875 124.736C150.683 124.912 150.403 125 150.035 125H139.475ZM153.783 119.576C153.495 119.576 153.255 119.48 153.063 119.288C152.871 119.096 152.775 118.864 152.775 118.592C152.775 118.304 152.871 118.072 153.063 117.896C153.255 117.704 153.495 117.608 153.783 117.608H159.063C159.335 117.608 159.567 117.704 159.759 117.896C159.951 118.072 160.047 118.304 160.047 118.592C160.047 118.864 159.951 119.096 159.759 119.288C159.567 119.48 159.335 119.576 159.063 119.576H153.783ZM168.932 125.216C168.196 125.216 167.476 125.16 166.772 125.048C166.068 124.936 165.404 124.768 164.78 124.544C164.156 124.304 163.596 124.016 163.1 123.68C162.86 123.504 162.692 123.304 162.596 123.08C162.516 122.856 162.492 122.64 162.524 122.432C162.572 122.208 162.668 122.016 162.812 121.856C162.956 121.696 163.132 121.6 163.34 121.568C163.548 121.52 163.78 121.584 164.036 121.76C164.756 122.224 165.516 122.568 166.316 122.792C167.116 123 167.988 123.104 168.932 123.104C170.292 123.104 171.292 122.864 171.932 122.384C172.588 121.888 172.916 121.248 172.916 120.464C172.916 119.824 172.684 119.32 172.22 118.952C171.756 118.568 170.98 118.264 169.892 118.04L167.324 117.512C165.804 117.192 164.668 116.664 163.916 115.928C163.18 115.192 162.812 114.2 162.812 112.952C162.812 112.2 162.964 111.512 163.268 110.888C163.588 110.264 164.028 109.728 164.588 109.28C165.148 108.816 165.82 108.464 166.604 108.224C167.388 107.984 168.244 107.864 169.172 107.864C170.164 107.864 171.092 107.992 171.956 108.248C172.836 108.504 173.62 108.896 174.308 109.424C174.516 109.568 174.652 109.752 174.716 109.976C174.796 110.184 174.812 110.392 174.764 110.6C174.732 110.808 174.644 110.984 174.5 111.128C174.356 111.272 174.172 111.36 173.948 111.392C173.724 111.408 173.476 111.328 173.204 111.152C172.58 110.736 171.94 110.44 171.284 110.264C170.644 110.072 169.932 109.976 169.148 109.976C168.364 109.976 167.676 110.096 167.084 110.336C166.508 110.576 166.06 110.912 165.74 111.344C165.436 111.776 165.284 112.288 165.284 112.88C165.284 113.552 165.5 114.088 165.932 114.488C166.364 114.888 167.084 115.192 168.092 115.4L170.636 115.928C172.236 116.264 173.428 116.784 174.212 117.488C174.996 118.192 175.388 119.128 175.388 120.296C175.388 121.048 175.236 121.728 174.932 122.336C174.628 122.928 174.196 123.44 173.636 123.872C173.076 124.304 172.396 124.64 171.596 124.88C170.812 125.104 169.924 125.216 168.932 125.216ZM183.357 125.216C182.157 125.216 181.117 124.968 180.237 124.472C179.373 123.96 178.701 123.248 178.221 122.336C177.741 121.408 177.501 120.32 177.501 119.072C177.501 118.144 177.637 117.312 177.909 116.576C178.181 115.824 178.565 115.192 179.061 114.68C179.573 114.168 180.189 113.776 180.909 113.504C181.645 113.216 182.461 113.072 183.357 113.072C183.917 113.072 184.501 113.16 185.109 113.336C185.733 113.496 186.309 113.768 186.837 114.152C187.045 114.28 187.173 114.44 187.221 114.632C187.285 114.808 187.293 114.992 187.245 115.184C187.213 115.376 187.125 115.544 186.981 115.688C186.853 115.816 186.693 115.896 186.501 115.928C186.309 115.944 186.101 115.888 185.877 115.76C185.493 115.488 185.101 115.296 184.701 115.184C184.301 115.056 183.917 114.992 183.549 114.992C182.973 114.992 182.461 115.088 182.013 115.28C181.581 115.456 181.213 115.72 180.909 116.072C180.605 116.408 180.373 116.832 180.213 117.344C180.069 117.856 179.997 118.44 179.997 119.096C179.997 120.408 180.301 121.44 180.909 122.192C181.533 122.928 182.413 123.296 183.549 123.296C183.917 123.296 184.301 123.24 184.701 123.128C185.101 123.016 185.493 122.824 185.877 122.552C186.101 122.424 186.309 122.376 186.501 122.408C186.693 122.44 186.845 122.528 186.957 122.672C187.085 122.8 187.165 122.96 187.197 123.152C187.245 123.328 187.237 123.512 187.173 123.704C187.109 123.896 186.973 124.056 186.765 124.184C186.253 124.552 185.693 124.816 185.085 124.976C184.493 125.136 183.917 125.216 183.357 125.216ZM194.494 125.216C193.31 125.216 192.286 124.968 191.422 124.472C190.574 123.976 189.91 123.272 189.43 122.36C188.95 121.448 188.71 120.376 188.71 119.144C188.71 118.2 188.846 117.36 189.118 116.624C189.39 115.888 189.774 115.256 190.27 114.728C190.782 114.184 191.39 113.776 192.094 113.504C192.814 113.216 193.614 113.072 194.494 113.072C195.662 113.072 196.67 113.32 197.518 113.816C198.382 114.312 199.054 115.016 199.534 115.928C200.014 116.824 200.254 117.896 200.254 119.144C200.254 120.072 200.118 120.912 199.846 121.664C199.574 122.416 199.182 123.056 198.67 123.584C198.174 124.112 197.566 124.52 196.846 124.808C196.142 125.08 195.358 125.216 194.494 125.216ZM194.494 123.344C195.15 123.344 195.726 123.184 196.222 122.864C196.718 122.544 197.102 122.072 197.374 121.448C197.662 120.824 197.806 120.056 197.806 119.144C197.806 117.768 197.502 116.728 196.894 116.024C196.286 115.32 195.486 114.968 194.494 114.968C193.822 114.968 193.238 115.128 192.742 115.448C192.246 115.752 191.854 116.216 191.566 116.84C191.294 117.464 191.158 118.232 191.158 119.144C191.158 120.504 191.462 121.544 192.07 122.264C192.678 122.984 193.486 123.344 194.494 123.344ZM204.44 125.168C204.04 125.168 203.736 125.064 203.528 124.856C203.32 124.632 203.216 124.328 203.216 123.944V114.344C203.216 113.944 203.32 113.64 203.528 113.432C203.736 113.224 204.024 113.12 204.392 113.12C204.776 113.12 205.064 113.224 205.256 113.432C205.464 113.64 205.568 113.944 205.568 114.344V116.096H205.328C205.584 115.136 206.056 114.408 206.744 113.912C207.432 113.416 208.312 113.128 209.384 113.048C209.672 113.032 209.896 113.104 210.056 113.264C210.232 113.424 210.328 113.672 210.344 114.008C210.376 114.344 210.304 114.616 210.128 114.824C209.952 115.016 209.68 115.128 209.312 115.16L208.856 115.208C207.816 115.304 207.024 115.632 206.48 116.192C205.936 116.752 205.664 117.52 205.664 118.496V123.944C205.664 124.328 205.56 124.632 205.352 124.856C205.16 125.064 204.856 125.168 204.44 125.168ZM217.742 125.216C216.462 125.216 215.358 124.976 214.43 124.496C213.518 124 212.806 123.304 212.294 122.408C211.798 121.496 211.55 120.416 211.55 119.168C211.55 117.952 211.798 116.888 212.294 115.976C212.79 115.064 213.47 114.352 214.334 113.84C215.198 113.328 216.182 113.072 217.286 113.072C218.102 113.072 218.83 113.208 219.47 113.48C220.11 113.736 220.654 114.12 221.102 114.632C221.566 115.128 221.91 115.736 222.134 116.456C222.374 117.176 222.494 117.984 222.494 118.88C222.494 119.152 222.414 119.36 222.254 119.504C222.094 119.632 221.854 119.696 221.534 119.696H213.47V118.208H220.862L220.454 118.544C220.454 117.744 220.334 117.064 220.094 116.504C219.87 115.944 219.526 115.52 219.062 115.232C218.614 114.928 218.054 114.776 217.382 114.776C216.63 114.776 215.99 114.952 215.462 115.304C214.95 115.656 214.558 116.144 214.286 116.768C214.014 117.392 213.878 118.12 213.878 118.952V119.096C213.878 120.504 214.206 121.568 214.862 122.288C215.534 122.992 216.502 123.344 217.766 123.344C218.246 123.344 218.75 123.28 219.278 123.152C219.822 123.024 220.334 122.808 220.814 122.504C221.086 122.344 221.326 122.272 221.534 122.288C221.758 122.304 221.934 122.376 222.062 122.504C222.206 122.632 222.294 122.792 222.326 122.984C222.358 123.176 222.326 123.376 222.23 123.584C222.134 123.776 221.966 123.952 221.726 124.112C221.182 124.48 220.55 124.76 219.83 124.952C219.11 125.128 218.414 125.216 217.742 125.216Z" fill="#141F1E"/>
<path d="M138.252 149V140.273H141.303C141.911 140.273 142.413 140.378 142.808 140.588C143.202 140.795 143.496 141.075 143.69 141.428C143.883 141.777 143.979 142.165 143.979 142.591C143.979 142.966 143.913 143.276 143.779 143.52C143.648 143.764 143.475 143.957 143.259 144.099C143.046 144.241 142.815 144.347 142.565 144.415V144.5C142.832 144.517 143.1 144.611 143.37 144.781C143.64 144.952 143.866 145.196 144.048 145.514C144.229 145.832 144.32 146.222 144.32 146.682C144.32 147.119 144.221 147.513 144.022 147.862C143.823 148.212 143.509 148.489 143.08 148.693C142.651 148.898 142.093 149 141.406 149H138.252ZM139.309 148.062H141.406C142.096 148.062 142.586 147.929 142.876 147.662C143.168 147.392 143.315 147.065 143.315 146.682C143.315 146.386 143.239 146.114 143.089 145.864C142.938 145.611 142.724 145.409 142.445 145.259C142.167 145.105 141.837 145.028 141.457 145.028H139.309V148.062ZM139.309 144.108H141.269C141.587 144.108 141.874 144.045 142.13 143.92C142.388 143.795 142.593 143.619 142.744 143.392C142.897 143.165 142.974 142.898 142.974 142.591C142.974 142.207 142.84 141.882 142.573 141.615C142.306 141.345 141.883 141.21 141.303 141.21H139.309V144.108ZM146.768 151.455C146.598 151.455 146.446 151.44 146.312 151.412C146.179 151.386 146.086 151.361 146.035 151.335L146.291 150.449C146.535 150.511 146.751 150.534 146.939 150.517C147.126 150.5 147.292 150.416 147.437 150.266C147.585 150.118 147.72 149.878 147.842 149.545L148.03 149.034L145.609 142.455H146.7L148.507 147.67H148.575L150.382 142.455H151.473L148.694 149.955C148.569 150.293 148.414 150.572 148.23 150.794C148.045 151.018 147.831 151.185 147.586 151.293C147.345 151.401 147.072 151.455 146.768 151.455ZM156.712 149V140.273H161.979V141.21H157.768V144.159H161.706V145.097H157.768V148.062H162.047V149H156.712ZM164.953 140.273V149H163.947V140.273H164.953ZM168 140.273V149H166.995V140.273H168ZM170.69 151.455C170.52 151.455 170.368 151.44 170.234 151.412C170.101 151.386 170.008 151.361 169.957 151.335L170.213 150.449C170.457 150.511 170.673 150.534 170.861 150.517C171.048 150.5 171.214 150.416 171.359 150.266C171.507 150.118 171.642 149.878 171.764 149.545L171.951 149.034L169.531 142.455H170.622L172.429 147.67H172.497L174.304 142.455H175.395L172.616 149.955C172.491 150.293 172.336 150.572 172.152 150.794C171.967 151.018 171.753 151.185 171.508 151.293C171.267 151.401 170.994 151.455 170.69 151.455ZM177.928 145.062V149H176.922V142.455H177.894V143.477H177.979C178.132 143.145 178.365 142.878 178.678 142.676C178.99 142.472 179.394 142.369 179.888 142.369C180.331 142.369 180.719 142.46 181.051 142.642C181.384 142.821 181.642 143.094 181.827 143.46C182.012 143.824 182.104 144.284 182.104 144.841V149H181.098V144.909C181.098 144.395 180.965 143.994 180.698 143.707C180.431 143.418 180.064 143.273 179.598 143.273C179.277 143.273 178.99 143.342 178.737 143.482C178.487 143.621 178.29 143.824 178.145 144.091C178 144.358 177.928 144.682 177.928 145.062ZM192.626 142.455C192.575 142.023 192.367 141.688 192.003 141.449C191.64 141.21 191.194 141.091 190.665 141.091C190.279 141.091 189.941 141.153 189.651 141.278C189.364 141.403 189.14 141.575 188.978 141.794C188.819 142.013 188.739 142.261 188.739 142.54C188.739 142.773 188.795 142.973 188.905 143.141C189.019 143.305 189.164 143.443 189.34 143.554C189.516 143.662 189.701 143.751 189.894 143.822C190.087 143.891 190.265 143.946 190.427 143.989L191.313 144.227C191.54 144.287 191.793 144.369 192.072 144.474C192.353 144.58 192.621 144.723 192.877 144.905C193.136 145.084 193.349 145.314 193.516 145.595C193.684 145.876 193.768 146.222 193.768 146.631C193.768 147.102 193.644 147.528 193.397 147.909C193.153 148.29 192.795 148.592 192.323 148.817C191.854 149.041 191.285 149.153 190.614 149.153C189.989 149.153 189.448 149.053 188.991 148.851C188.536 148.649 188.178 148.368 187.917 148.007C187.658 147.646 187.512 147.227 187.478 146.75H188.569C188.597 147.08 188.708 147.352 188.901 147.568C189.097 147.781 189.344 147.94 189.643 148.045C189.944 148.148 190.268 148.199 190.614 148.199C191.018 148.199 191.38 148.134 191.701 148.003C192.022 147.869 192.276 147.685 192.464 147.449C192.651 147.21 192.745 146.932 192.745 146.614C192.745 146.324 192.664 146.088 192.502 145.906C192.34 145.724 192.127 145.577 191.863 145.463C191.599 145.349 191.313 145.25 191.006 145.165L189.932 144.858C189.251 144.662 188.711 144.382 188.313 144.018C187.915 143.655 187.717 143.179 187.717 142.591C187.717 142.102 187.849 141.676 188.113 141.312C188.38 140.946 188.738 140.662 189.187 140.46C189.638 140.256 190.143 140.153 190.7 140.153C191.262 140.153 191.762 140.254 192.2 140.456C192.637 140.655 192.984 140.928 193.239 141.274C193.498 141.621 193.634 142.014 193.648 142.455H192.626ZM197.495 149.153C197.08 149.153 196.704 149.075 196.366 148.919C196.028 148.76 195.759 148.531 195.56 148.233C195.362 147.932 195.262 147.568 195.262 147.142C195.262 146.767 195.336 146.463 195.484 146.23C195.631 145.994 195.829 145.81 196.076 145.676C196.323 145.543 196.596 145.443 196.894 145.378C197.195 145.31 197.498 145.256 197.802 145.216C198.2 145.165 198.522 145.126 198.769 145.101C199.019 145.072 199.201 145.026 199.315 144.96C199.431 144.895 199.489 144.781 199.489 144.619V144.585C199.489 144.165 199.374 143.838 199.144 143.605C198.917 143.372 198.572 143.256 198.109 143.256C197.629 143.256 197.252 143.361 196.979 143.571C196.707 143.781 196.515 144.006 196.404 144.244L195.45 143.903C195.62 143.506 195.847 143.196 196.131 142.974C196.418 142.75 196.731 142.594 197.069 142.506C197.41 142.415 197.745 142.369 198.075 142.369C198.285 142.369 198.526 142.395 198.799 142.446C199.075 142.494 199.34 142.595 199.596 142.749C199.854 142.902 200.069 143.134 200.239 143.443C200.41 143.753 200.495 144.168 200.495 144.688V149H199.489V148.114H199.438C199.37 148.256 199.256 148.408 199.097 148.57C198.938 148.732 198.727 148.869 198.462 148.983C198.198 149.097 197.876 149.153 197.495 149.153ZM197.648 148.25C198.046 148.25 198.381 148.172 198.654 148.016C198.93 147.859 199.137 147.658 199.276 147.411C199.418 147.163 199.489 146.903 199.489 146.631V145.71C199.447 145.761 199.353 145.808 199.208 145.851C199.066 145.891 198.901 145.926 198.714 145.957C198.529 145.986 198.349 146.011 198.173 146.034C197.999 146.054 197.859 146.071 197.751 146.085C197.489 146.119 197.245 146.175 197.018 146.251C196.793 146.325 196.612 146.437 196.472 146.588C196.336 146.736 196.268 146.937 196.268 147.193C196.268 147.543 196.397 147.807 196.656 147.986C196.917 148.162 197.248 148.25 197.648 148.25ZM205.377 142.455V143.307H201.985V142.455H205.377ZM202.974 140.886H203.979V147.125C203.979 147.409 204.021 147.622 204.103 147.764C204.188 147.903 204.296 147.997 204.427 148.045C204.56 148.091 204.701 148.114 204.849 148.114C204.96 148.114 205.05 148.108 205.122 148.097C205.193 148.082 205.249 148.071 205.292 148.062L205.497 148.966C205.428 148.991 205.333 149.017 205.211 149.043C205.089 149.071 204.934 149.085 204.747 149.085C204.462 149.085 204.184 149.024 203.911 148.902C203.641 148.78 203.417 148.594 203.238 148.344C203.062 148.094 202.974 147.778 202.974 147.398V140.886ZM209.937 142.455V143.307H206.545V142.455H209.937ZM207.533 140.886H208.539V147.125C208.539 147.409 208.58 147.622 208.662 147.764C208.748 147.903 208.856 147.997 208.986 148.045C209.12 148.091 209.26 148.114 209.408 148.114C209.519 148.114 209.61 148.108 209.681 148.097C209.752 148.082 209.809 148.071 209.851 148.062L210.056 148.966C209.988 148.991 209.893 149.017 209.77 149.043C209.648 149.071 209.493 149.085 209.306 149.085C209.022 149.085 208.743 149.024 208.471 148.902C208.201 148.78 207.976 148.594 207.797 148.344C207.621 148.094 207.533 147.778 207.533 147.398V140.886ZM214.323 149.136C213.693 149.136 213.149 148.997 212.691 148.719C212.237 148.438 211.886 148.045 211.639 147.543C211.394 147.037 211.272 146.449 211.272 145.778C211.272 145.108 211.394 144.517 211.639 144.006C211.886 143.491 212.23 143.091 212.67 142.804C213.113 142.514 213.63 142.369 214.221 142.369C214.562 142.369 214.899 142.426 215.231 142.54C215.563 142.653 215.866 142.838 216.139 143.094C216.411 143.347 216.629 143.682 216.791 144.099C216.953 144.517 217.034 145.031 217.034 145.642V146.068H211.988V145.199H216.011C216.011 144.83 215.937 144.5 215.789 144.21C215.644 143.92 215.437 143.692 215.167 143.524C214.9 143.357 214.585 143.273 214.221 143.273C213.821 143.273 213.474 143.372 213.181 143.571C212.892 143.767 212.669 144.023 212.512 144.338C212.356 144.653 212.278 144.991 212.278 145.352V145.932C212.278 146.426 212.363 146.845 212.534 147.189C212.707 147.53 212.947 147.79 213.254 147.969C213.561 148.145 213.917 148.233 214.323 148.233C214.588 148.233 214.826 148.196 215.039 148.122C215.255 148.045 215.441 147.932 215.598 147.781C215.754 147.628 215.875 147.437 215.96 147.21L216.931 147.483C216.829 147.812 216.657 148.102 216.416 148.352C216.174 148.599 215.876 148.793 215.521 148.932C215.166 149.068 214.767 149.136 214.323 149.136ZM218.763 149V142.455H219.735V143.443H219.803C219.923 143.119 220.138 142.857 220.451 142.655C220.763 142.453 221.116 142.352 221.508 142.352C221.582 142.352 221.674 142.354 221.785 142.357C221.896 142.359 221.979 142.364 222.036 142.369V143.392C222.002 143.384 221.924 143.371 221.802 143.354C221.682 143.334 221.556 143.324 221.423 143.324C221.104 143.324 220.82 143.391 220.57 143.524C220.323 143.655 220.127 143.837 219.982 144.07C219.84 144.3 219.769 144.562 219.769 144.858V149H218.763ZM228.196 140.273V149H227.14V140.273H228.196ZM231.385 145.062V149H230.379V142.455H231.351V143.477H231.436C231.589 143.145 231.822 142.878 232.135 142.676C232.447 142.472 232.851 142.369 233.345 142.369C233.788 142.369 234.176 142.46 234.508 142.642C234.841 142.821 235.099 143.094 235.284 143.46C235.469 143.824 235.561 144.284 235.561 144.841V149H234.555V144.909C234.555 144.395 234.422 143.994 234.155 143.707C233.888 143.418 233.521 143.273 233.055 143.273C232.734 143.273 232.447 143.342 232.194 143.482C231.944 143.621 231.747 143.824 231.602 144.091C231.457 144.358 231.385 144.682 231.385 145.062ZM242.235 143.92L241.332 144.176C241.275 144.026 241.191 143.879 241.08 143.737C240.972 143.592 240.824 143.473 240.637 143.379C240.449 143.286 240.209 143.239 239.917 143.239C239.516 143.239 239.182 143.331 238.915 143.516C238.651 143.697 238.519 143.929 238.519 144.21C238.519 144.46 238.61 144.658 238.792 144.803C238.974 144.947 239.258 145.068 239.644 145.165L240.616 145.403C241.201 145.545 241.637 145.763 241.924 146.055C242.211 146.345 242.354 146.719 242.354 147.176C242.354 147.551 242.246 147.886 242.03 148.182C241.817 148.477 241.519 148.71 241.136 148.881C240.752 149.051 240.306 149.136 239.797 149.136C239.13 149.136 238.577 148.991 238.14 148.702C237.702 148.412 237.425 147.989 237.309 147.432L238.263 147.193C238.354 147.545 238.526 147.81 238.779 147.986C239.035 148.162 239.368 148.25 239.78 148.25C240.249 148.25 240.621 148.151 240.897 147.952C241.175 147.75 241.314 147.509 241.314 147.227C241.314 147 241.235 146.81 241.076 146.656C240.917 146.5 240.672 146.384 240.343 146.307L239.252 146.051C238.653 145.909 238.212 145.689 237.931 145.391C237.653 145.089 237.513 144.713 237.513 144.261C237.513 143.892 237.617 143.565 237.824 143.281C238.035 142.997 238.32 142.774 238.681 142.612C239.045 142.45 239.457 142.369 239.917 142.369C240.564 142.369 241.073 142.511 241.442 142.795C241.814 143.08 242.079 143.455 242.235 143.92ZM246.915 142.455V143.307H243.523V142.455H246.915ZM244.511 140.886H245.517V147.125C245.517 147.409 245.558 147.622 245.641 147.764C245.726 147.903 245.834 147.997 245.964 148.045C246.098 148.091 246.239 148.114 246.386 148.114C246.497 148.114 246.588 148.108 246.659 148.097C246.73 148.082 246.787 148.071 246.829 148.062L247.034 148.966C246.966 148.991 246.871 149.017 246.749 149.043C246.626 149.071 246.472 149.085 246.284 149.085C246 149.085 245.722 149.024 245.449 148.902C245.179 148.78 244.954 148.594 244.776 148.344C244.599 148.094 244.511 147.778 244.511 147.398V140.886ZM248.627 149V142.455H249.633V149H248.627ZM249.139 141.364C248.943 141.364 248.774 141.297 248.632 141.163C248.493 141.03 248.423 140.869 248.423 140.682C248.423 140.494 248.493 140.334 248.632 140.2C248.774 140.067 248.943 140 249.139 140C249.335 140 249.502 140.067 249.642 140.2C249.784 140.334 249.855 140.494 249.855 140.682C249.855 140.869 249.784 141.03 249.642 141.163C249.502 141.297 249.335 141.364 249.139 141.364ZM254.522 142.455V143.307H251.13V142.455H254.522ZM252.118 140.886H253.124V147.125C253.124 147.409 253.165 147.622 253.248 147.764C253.333 147.903 253.441 147.997 253.571 148.045C253.705 148.091 253.846 148.114 253.993 148.114C254.104 148.114 254.195 148.108 254.266 148.097C254.337 148.082 254.394 148.071 254.437 148.062L254.641 148.966C254.573 148.991 254.478 149.017 254.356 149.043C254.233 149.071 254.079 149.085 253.891 149.085C253.607 149.085 253.329 149.024 253.056 148.902C252.786 148.78 252.562 148.594 252.383 148.344C252.206 148.094 252.118 147.778 252.118 147.398V140.886ZM260.36 146.324V142.455H261.365V149H260.36V147.892H260.291C260.138 148.224 259.899 148.507 259.575 148.74C259.252 148.97 258.842 149.085 258.348 149.085C257.939 149.085 257.575 148.996 257.257 148.817C256.939 148.635 256.689 148.362 256.507 147.999C256.325 147.632 256.235 147.17 256.235 146.614V142.455H257.24V146.545C257.24 147.023 257.374 147.403 257.641 147.688C257.911 147.972 258.254 148.114 258.672 148.114C258.922 148.114 259.176 148.05 259.435 147.922C259.696 147.794 259.915 147.598 260.091 147.334C260.27 147.07 260.36 146.733 260.36 146.324ZM266.254 142.455V143.307H262.862V142.455H266.254ZM263.85 140.886H264.856V147.125C264.856 147.409 264.897 147.622 264.98 147.764C265.065 147.903 265.173 147.997 265.303 148.045C265.437 148.091 265.578 148.114 265.725 148.114C265.836 148.114 265.927 148.108 265.998 148.097C266.069 148.082 266.126 148.071 266.169 148.062L266.373 148.966C266.305 148.991 266.21 149.017 266.088 149.043C265.965 149.071 265.811 149.085 265.623 149.085C265.339 149.085 265.061 149.024 264.788 148.902C264.518 148.78 264.294 148.594 264.115 148.344C263.938 148.094 263.85 147.778 263.85 147.398V140.886ZM270.641 149.136C270.01 149.136 269.466 148.997 269.008 148.719C268.554 148.438 268.203 148.045 267.956 147.543C267.712 147.037 267.589 146.449 267.589 145.778C267.589 145.108 267.712 144.517 267.956 144.006C268.203 143.491 268.547 143.091 268.987 142.804C269.43 142.514 269.947 142.369 270.538 142.369C270.879 142.369 271.216 142.426 271.548 142.54C271.881 142.653 272.183 142.838 272.456 143.094C272.729 143.347 272.946 143.682 273.108 144.099C273.27 144.517 273.351 145.031 273.351 145.642V146.068H268.305V145.199H272.328C272.328 144.83 272.254 144.5 272.106 144.21C271.962 143.92 271.754 143.692 271.484 143.524C271.217 143.357 270.902 143.273 270.538 143.273C270.138 143.273 269.791 143.372 269.499 143.571C269.209 143.767 268.986 144.023 268.829 144.338C268.673 144.653 268.595 144.991 268.595 145.352V145.932C268.595 146.426 268.68 146.845 268.851 147.189C269.024 147.53 269.264 147.79 269.571 147.969C269.878 148.145 270.234 148.233 270.641 148.233C270.905 148.233 271.143 148.196 271.356 148.122C271.572 148.045 271.758 147.932 271.915 147.781C272.071 147.628 272.192 147.437 272.277 147.21L273.249 147.483C273.146 147.812 272.974 148.102 272.733 148.352C272.491 148.599 272.193 148.793 271.838 148.932C271.483 149.068 271.084 149.136 270.641 149.136Z" fill="#141F1E"/>
</svg>
