<svg width="26" height="26" viewBox="0 0 26 26" fill="none" xmlns="http://www.w3.org/2000/svg">
<g id="Group 632596">
<path id="Vector" fill-rule="evenodd" clip-rule="evenodd" d="M25.5 13C25.5 16.5494 24.0206 19.7533 21.645 22.0286C20.9916 19.0381 17.3699 16.75 13 16.75C8.6301 16.75 5.00839 19.0381 4.35506 22.0286C1.97933 19.7533 0.5 16.5494 0.5 13C0.5 6.09644 6.09644 0.5 13 0.5C19.9035 0.5 25.5 6.09644 25.5 13ZM13 14.25C15.7614 14.25 18 12.0114 18 9.25C18 6.48857 15.7614 4.25 13 4.25C10.2386 4.25 8 6.48857 8 9.25C8 12.0114 10.2386 14.25 13 14.25Z" fill="#41CC97"/>
<path id="Vector_2" fill-rule="evenodd" clip-rule="evenodd" d="M13 24.25C19.2132 24.25 24.25 19.2132 24.25 13C24.25 6.7868 19.2132 1.75 13 1.75C6.7868 1.75 1.75 6.7868 1.75 13C1.75 19.2132 6.7868 24.25 13 24.25ZM13 25.5C19.9035 25.5 25.5 19.9035 25.5 13C25.5 6.09644 19.9035 0.5 13 0.5C6.09644 0.5 0.5 6.09644 0.5 13C0.5 19.9035 6.09644 25.5 13 25.5Z" fill="#41CC97"/>
</g>
</svg>
